<svg width="24" height="24" viewBox="0 0 24 24" fill="none" xmlns="http://www.w3.org/2000/svg">
<mask id="path-1-inside-1_0_759" fill="white">
<path d="M21.389 9.87764C20.637 8.66781 19.6884 7.58713 18.5809 6.6785L20.9134 4.38696C21.0651 4.23261 21.1491 4.02588 21.1472 3.81129C21.1453 3.59671 21.0577 3.39144 20.9032 3.23971C20.7488 3.08797 20.5398 3.0019 20.3214 3.00003C20.103 2.99817 19.8926 3.08066 19.7355 3.22974L17.1989 5.72505C15.6265 4.80747 13.8288 4.32923 12 4.34195C6.84274 4.34195 3.90383 7.81035 2.61098 9.87764C2.21157 10.5123 2 11.2438 2 11.9899C2 12.7361 2.21157 13.4676 2.61098 14.1022C3.363 15.3121 4.31159 16.3928 5.4191 17.3014L3.08664 19.5929C3.00707 19.6684 2.94361 19.7587 2.89995 19.8586C2.8563 19.9584 2.83332 20.0658 2.83235 20.1745C2.83139 20.2832 2.85247 20.3909 2.89436 20.4915C2.93624 20.5921 2.9981 20.6835 3.07631 20.7603C3.15453 20.8371 3.24753 20.8979 3.34991 20.9391C3.45229 20.9802 3.56198 21.0009 3.67259 21C3.78319 20.999 3.8925 20.9764 3.99414 20.9336C4.09577 20.8907 4.18769 20.8283 4.26453 20.7502L6.80692 18.2524C8.3774 19.1698 10.1729 19.6489 12 19.6379C17.1573 19.6379 20.0962 16.1695 21.389 14.1022C21.7884 13.4676 22 12.7361 22 11.9899C22 11.2438 21.7884 10.5123 21.389 9.87764ZM4.03045 13.2454C3.79315 12.8681 3.66746 12.4334 3.66746 11.9899C3.66746 11.5465 3.79315 11.1118 4.03045 10.7345C5.14171 8.96184 7.65328 5.97876 12 5.97876C13.383 5.97115 14.7467 6.29862 15.9702 6.9322L14.2933 8.57965C13.4936 8.058 12.5347 7.82426 11.5795 7.91809C10.6243 8.01192 9.73156 8.42754 9.05276 9.09443C8.37396 9.76132 7.95091 10.6384 7.85541 11.5768C7.7599 12.5153 7.99782 13.4573 8.52879 14.243L6.6045 16.1335C5.58413 15.3231 4.7134 14.3461 4.03045 13.2454ZM14.4991 11.9899C14.4991 12.6411 14.2358 13.2656 13.7671 13.726C13.2984 14.1865 12.6628 14.4452 12 14.4452C11.6289 14.4437 11.2629 14.3598 10.9296 14.1996L14.2492 10.9383C14.4122 11.2658 14.4976 11.6254 14.4991 11.9899ZM9.50093 11.9899C9.50093 11.3388 9.76422 10.7143 10.2329 10.2538C10.7016 9.7934 11.3372 9.53473 12 9.53473C12.3711 9.53614 12.7371 9.62008 13.0704 9.78025L9.75083 13.0416C9.5878 12.7141 9.50236 12.3545 9.50093 11.9899ZM19.9695 13.2454C18.8583 15.018 16.3467 18.0011 12 18.0011C10.617 18.0087 9.25332 17.6813 8.0298 17.0477L9.70668 15.4002C10.5064 15.9219 11.4653 16.1556 12.4205 16.0618C13.3757 15.968 14.2684 15.5523 14.9472 14.8855C15.626 14.2186 16.0491 13.3415 16.1446 12.403C16.2401 11.4646 16.0022 10.5226 15.4712 9.73687L17.3955 7.84636C18.4159 8.65681 19.2866 9.63379 19.9695 10.7345C20.2068 11.1118 20.3325 11.5465 20.3325 11.9899C20.3325 12.4334 20.2068 12.8681 19.9695 13.2454Z"/>
</mask>
<path d="M21.389 9.87764C20.637 8.66781 19.6884 7.58713 18.5809 6.6785L20.9134 4.38696C21.0651 4.23261 21.1491 4.02588 21.1472 3.81129C21.1453 3.59671 21.0577 3.39144 20.9032 3.23971C20.7488 3.08797 20.5398 3.0019 20.3214 3.00003C20.103 2.99817 19.8926 3.08066 19.7355 3.22974L17.1989 5.72505C15.6265 4.80747 13.8288 4.32923 12 4.34195C6.84274 4.34195 3.90383 7.81035 2.61098 9.87764C2.21157 10.5123 2 11.2438 2 11.9899C2 12.7361 2.21157 13.4676 2.61098 14.1022C3.363 15.3121 4.31159 16.3928 5.4191 17.3014L3.08664 19.5929C3.00707 19.6684 2.94361 19.7587 2.89995 19.8586C2.8563 19.9584 2.83332 20.0658 2.83235 20.1745C2.83139 20.2832 2.85247 20.3909 2.89436 20.4915C2.93624 20.5921 2.9981 20.6835 3.07631 20.7603C3.15453 20.8371 3.24753 20.8979 3.34991 20.9391C3.45229 20.9802 3.56198 21.0009 3.67259 21C3.78319 20.999 3.8925 20.9764 3.99414 20.9336C4.09577 20.8907 4.18769 20.8283 4.26453 20.7502L6.80692 18.2524C8.3774 19.1698 10.1729 19.6489 12 19.6379C17.1573 19.6379 20.0962 16.1695 21.389 14.1022C21.7884 13.4676 22 12.7361 22 11.9899C22 11.2438 21.7884 10.5123 21.389 9.87764ZM4.03045 13.2454C3.79315 12.8681 3.66746 12.4334 3.66746 11.9899C3.66746 11.5465 3.79315 11.1118 4.03045 10.7345C5.14171 8.96184 7.65328 5.97876 12 5.97876C13.383 5.97115 14.7467 6.29862 15.9702 6.9322L14.2933 8.57965C13.4936 8.058 12.5347 7.82426 11.5795 7.91809C10.6243 8.01192 9.73156 8.42754 9.05276 9.09443C8.37396 9.76132 7.95091 10.6384 7.85541 11.5768C7.7599 12.5153 7.99782 13.4573 8.52879 14.243L6.6045 16.1335C5.58413 15.3231 4.7134 14.3461 4.03045 13.2454ZM14.4991 11.9899C14.4991 12.6411 14.2358 13.2656 13.7671 13.726C13.2984 14.1865 12.6628 14.4452 12 14.4452C11.6289 14.4437 11.2629 14.3598 10.9296 14.1996L14.2492 10.9383C14.4122 11.2658 14.4976 11.6254 14.4991 11.9899ZM9.50093 11.9899C9.50093 11.3388 9.76422 10.7143 10.2329 10.2538C10.7016 9.7934 11.3372 9.53473 12 9.53473C12.3711 9.53614 12.7371 9.62008 13.0704 9.78025L9.75083 13.0416C9.5878 12.7141 9.50236 12.3545 9.50093 11.9899ZM19.9695 13.2454C18.8583 15.018 16.3467 18.0011 12 18.0011C10.617 18.0087 9.25332 17.6813 8.0298 17.0477L9.70668 15.4002C10.5064 15.9219 11.4653 16.1556 12.4205 16.0618C13.3757 15.968 14.2684 15.5523 14.9472 14.8855C15.626 14.2186 16.0491 13.3415 16.1446 12.403C16.2401 11.4646 16.0022 10.5226 15.4712 9.73687L17.3955 7.84636C18.4159 8.65681 19.2866 9.63379 19.9695 10.7345C20.2068 11.1118 20.3325 11.5465 20.3325 11.9899C20.3325 12.4334 20.2068 12.8681 19.9695 13.2454Z" fill="#DAA930"/>
<path d="M18.5809 6.6785L3.63008 -8.5394L-13.3129 8.10624L5.04963 23.1714L18.5809 6.6785ZM20.9134 4.38696L35.8642 19.6049L35.9964 19.4749L36.1264 19.3427L20.9134 4.38696ZM19.7355 3.22974L5.05124 -12.2456L4.91175 -12.1132L4.77467 -11.9783L19.7355 3.22974ZM17.1989 5.72505L6.44677 24.1507L20.5331 32.3707L32.1597 20.9331L17.1989 5.72505ZM12 4.34195V25.6753H12.0742L12.1483 25.6748L12 4.34195ZM2.61098 9.87764L20.6665 21.2402L20.6825 21.2148L20.6985 21.1893L2.61098 9.87764ZM2.61098 14.1022L20.7293 2.84005L20.6981 2.78976L20.6665 2.73964L2.61098 14.1022ZM5.4191 17.3014L20.3699 32.5193L37.3129 15.8736L18.9504 0.808486L5.4191 17.3014ZM3.08664 19.5929L17.7709 35.0682L17.9053 34.9407L18.0375 34.8108L3.08664 19.5929ZM4.26453 20.7502L-10.6863 5.53226L-10.8185 5.6622L-10.9485 5.79442L4.26453 20.7502ZM6.80692 18.2524L17.5677 -0.168158L3.48794 -8.39321L-8.14389 3.03449L6.80692 18.2524ZM12 19.6379V-1.6954H11.9362L11.8724 -1.69501L12 19.6379ZM21.389 14.1022L3.33348 2.73964L3.31747 2.76509L3.30153 2.79059L21.389 14.1022ZM4.03045 10.7345L22.0883 22.0934L22.0971 22.0795L22.1058 22.0656L4.03045 10.7345ZM12 5.97876V27.3121H12.0587L12.1174 27.3118L12 5.97876ZM15.9702 6.9322L30.921 22.1501L51.9169 1.52268L25.7801 -12.0119L15.9702 6.9322ZM14.2933 8.57965L2.63855 26.448L17.007 35.8199L29.2441 23.7975L14.2933 8.57965ZM8.52879 14.243L23.4796 29.4609L36.149 17.0139L26.2046 2.29825L8.52879 14.243ZM6.6045 16.1335L-6.6639 32.8386L8.10304 44.5676L21.5553 31.3514L6.6045 16.1335ZM12 14.4452L11.9189 35.7783L11.9594 35.7785H12V14.4452ZM10.9296 14.1996L-4.02125 -1.01825L-25.6922 20.2724L1.69087 33.4287L10.9296 14.1996ZM14.2492 10.9383L33.3473 1.43179L20.2555 -24.8689L-0.70165 -4.2796L14.2492 10.9383ZM9.50093 11.9899H-11.8324V12.032L-11.8322 12.074L9.50093 11.9899ZM12 9.53473L12.0811 -11.7985L12.0406 -11.7986H12V9.53473ZM13.0704 9.78025L28.0213 24.9981L49.6922 3.70748L22.3091 -9.44884L13.0704 9.78025ZM9.75083 13.0416L-9.34727 22.5481L3.74451 48.8488L24.7017 28.2595L9.75083 13.0416ZM12 18.0011V-3.33221H11.9413L11.8826 -3.33188L12 18.0011ZM8.0298 17.0477L-6.92102 1.8298L-27.9169 22.4572L-1.78008 35.9917L8.0298 17.0477ZM9.70668 15.4002L21.3615 -2.4681L6.993 -11.84L-5.24414 0.182351L9.70668 15.4002ZM15.4712 9.73687L0.520397 -5.48102L-12.149 6.966L-2.20458 21.6816L15.4712 9.73687ZM17.3955 7.84636L30.6639 -8.85875L15.897 -20.5877L2.44468 -7.37153L17.3955 7.84636ZM19.9695 10.7345L1.84199 21.9819L1.87666 22.0377L1.91167 22.0934L19.9695 10.7345ZM39.5074 -1.38456C37.5158 -4.5886 35.0142 -7.43348 32.1122 -9.81441L5.04963 23.1714C4.3626 22.6077 3.75826 21.9242 3.27069 21.1398L39.5074 -1.38456ZM33.5317 21.8964L35.8642 19.6049L5.96255 -10.8309L3.63008 -8.5394L33.5317 21.8964ZM36.1264 19.3427C40.2077 15.1912 42.5321 9.55213 42.4797 3.62261L-0.185327 3.99998C-0.233977 -1.50038 1.92255 -6.72602 5.70031 -10.5688L36.1264 19.3427ZM42.4797 3.62261C42.4272 -2.30662 40.0038 -7.90123 35.854 -11.9782L5.9524 18.4576C2.11151 14.6841 -0.136679 9.50004 -0.185327 3.99998L42.4797 3.62261ZM35.854 -11.9782C31.7165 -16.0431 26.1968 -18.2839 20.5035 -18.3325L20.1393 24.3326C14.8829 24.2877 9.78107 22.2191 5.9524 18.4576L35.854 -11.9782ZM20.5035 -18.3325C14.8106 -18.3811 9.25586 -16.2352 5.05124 -12.2456L34.4197 18.705C30.5293 22.3966 25.3954 24.3775 20.1393 24.3326L20.5035 -18.3325ZM4.77467 -11.9783L2.23811 -9.48302L32.1597 20.9331L34.6963 18.4378L4.77467 -11.9783ZM27.951 -12.7005C23.0559 -15.557 17.4906 -17.0301 11.8517 -16.9909L12.1483 25.6748C10.1671 25.6885 8.19702 25.172 6.44677 24.1507L27.951 -12.7005ZM12 -16.9914C-4.10368 -16.9914 -12.6743 -5.91473 -15.4765 -1.43402L20.6985 21.1893C20.4268 21.6238 19.7696 22.5903 18.439 23.5621C16.8604 24.7151 14.5633 25.6753 12 25.6753V-16.9914ZM-15.4446 -1.48496C-17.9742 2.53474 -19.3333 7.20186 -19.3333 11.9899H23.3333C23.3333 15.2856 22.3973 18.4899 20.6665 21.2402L-15.4446 -1.48496ZM-19.3333 11.9899C-19.3333 16.778 -17.9742 21.4451 -15.4446 25.4648L20.6665 2.73964C22.3973 5.48999 23.3333 8.69424 23.3333 11.9899H-19.3333ZM-15.5074 25.3644C-13.5158 28.5685 -11.0142 31.4134 -8.11216 33.7943L18.9504 0.808486C19.6374 1.37215 20.2417 2.05567 20.7293 2.84005L-15.5074 25.3644ZM-9.53172 2.0835L-11.8642 4.37504L18.0375 34.8108L20.3699 32.5193L-9.53172 2.0835ZM-11.5976 4.11764C-13.7307 6.14167 -15.4536 8.58365 -16.6466 11.312L22.4465 28.4051C21.3409 30.9338 19.7448 33.1952 17.7709 35.0682L-11.5976 4.11764ZM-16.6466 11.312C-17.8399 14.0412 -18.4737 16.9909 -18.5001 19.9858L24.1649 20.3632C24.1403 23.1407 23.5525 25.8756 22.4465 28.4051L-16.6466 11.312ZM-18.5001 19.9858C-18.5266 22.9807 -17.9452 25.9418 -16.7995 28.6928L22.5882 12.2902C23.6501 14.84 24.1894 17.5856 24.1649 20.3632L-18.5001 19.9858ZM-16.7995 28.6928C-15.6542 31.443 -13.9734 33.9161 -11.8745 35.9782L18.0271 5.5424C19.9696 7.45076 21.5267 9.74112 22.5882 12.2902L-16.7995 28.6928ZM-11.8745 35.9782C-9.77647 38.0394 -7.30241 39.6495 -4.60639 40.7332L11.3062 1.14491C13.7975 2.14628 16.0855 3.63488 18.0271 5.5424L-11.8745 35.9782ZM-4.60639 40.7332C-1.91109 41.8166 0.964039 42.3572 3.85471 42.3325L3.49047 -0.332586C6.15992 -0.355376 8.81566 0.143824 11.3062 1.14491L-4.60639 40.7332ZM3.85471 42.3325C6.74552 42.3078 9.61165 41.7182 12.289 40.5882L-4.30071 1.27887C-1.82664 0.234742 0.820865 -0.309795 3.49047 -0.332586L3.85471 42.3325ZM12.289 40.5882C14.967 39.458 17.4143 37.8047 19.4776 35.7059L-10.9485 5.79442C-9.03891 3.85195 -6.77545 2.32328 -4.30071 1.27887L12.289 40.5882ZM19.2153 35.968L21.7577 33.4703L-8.14389 3.03449L-10.6863 5.53226L19.2153 35.968ZM-3.95388 36.6729C0.935241 39.529 6.49403 41.0046 12.1276 40.9709L11.8724 -1.69501C13.8518 -1.70685 15.8196 -1.1894 17.5677 -0.168158L-3.95388 36.6729ZM12 40.9713C28.1037 40.9713 36.6743 29.8946 39.4765 25.4139L3.30153 2.79059C3.57324 2.35612 4.23043 1.38962 5.561 0.4178C7.1396 -0.73518 9.43671 -1.6954 12 -1.6954V40.9713ZM39.4446 25.4648C41.9742 21.4452 43.3333 16.778 43.3333 11.9899H0.666666C0.666666 8.69423 1.60266 5.48998 3.33348 2.73964L39.4446 25.4648ZM43.3333 11.9899C43.3333 7.20186 41.9742 2.53473 39.4446 -1.48496L3.33348 21.2402C1.60266 18.4899 0.666666 15.2857 0.666666 11.9899H43.3333ZM22.0883 1.88649C23.9798 4.89346 25.0008 8.39304 25.0008 11.9899H-17.6659C-17.6659 16.4738 -16.3935 20.8428 -14.0274 24.6043L22.0883 1.88649ZM25.0008 11.9899C25.0008 15.5869 23.9798 19.0864 22.0883 22.0934L-14.0274 -0.62438C-16.3935 3.13709 -17.6659 7.50609 -17.6659 11.9899H25.0008ZM22.1058 22.0656C21.7742 22.5946 20.9956 23.7303 19.4737 24.854C17.7071 26.1583 15.0733 27.3121 12 27.3121V-15.3546C-3.425 -15.3546 -11.5464 -4.58221 -14.0449 -0.596609L22.1058 22.0656ZM12.1174 27.3118C10.0605 27.3231 8.01589 26.8371 6.16032 25.8763L25.7801 -12.0119C21.4775 -14.2399 16.7056 -15.3808 11.8826 -15.3543L12.1174 27.3118ZM1.01938 -8.28569L-0.657498 -6.63824L29.2441 23.7975L30.921 22.1501L1.01938 -8.28569ZM25.9481 -9.28869C21.061 -12.4763 15.2511 -13.8786 9.49399 -13.3131L13.665 29.1492C9.81833 29.5271 5.92609 28.5923 2.63855 26.448L25.9481 -9.28869ZM9.49399 -13.3131C3.73514 -12.7474 -1.7108 -10.2372 -5.89806 -6.12346L24.0036 24.3123C21.1739 27.0923 17.5135 28.7712 13.665 29.1492L9.49399 -13.3131ZM-5.89806 -6.12346C-10.0927 -2.0024 -12.7641 3.47994 -13.3683 9.41689L29.0791 13.7368C28.6659 17.7969 26.8407 21.525 24.0036 24.3123L-5.89806 -6.12346ZM-13.3683 9.41689C-13.9728 15.3563 -12.4599 21.2853 -9.14701 26.1878L26.2046 2.29825C28.4556 5.62923 29.4926 9.67431 29.0791 13.7368L-13.3683 9.41689ZM-6.42203 -0.974879L-8.34632 0.915637L21.5553 31.3514L23.4796 29.4609L-6.42203 -0.974879ZM19.8729 -0.57158C20.7624 0.134957 21.5394 1.00095 22.158 1.99803L-14.0971 24.4927C-12.1126 27.6912 -9.59418 30.5112 -6.6639 32.8386L19.8729 -0.57158ZM-6.83426 11.9899C-6.83426 6.86005 -4.75648 2.01823 -1.1837 -1.49185L28.7179 28.9439C33.228 24.513 35.8324 18.4222 35.8324 11.9899H-6.83426ZM-1.1837 -1.49185C2.37626 -4.98934 7.12554 -6.88818 12 -6.88818V35.7785C18.2001 35.7785 24.2206 33.3623 28.7179 28.9439L-1.1837 -1.49185ZM12.0811 -6.88802C14.8699 -6.87741 17.6334 -6.24731 20.1683 -5.02945L1.69087 33.4287C4.89243 34.9669 8.38789 35.7649 11.9189 35.7783L12.0811 -6.88802ZM25.8804 29.4175L29.2 26.1562L-0.70165 -4.2796L-4.02125 -1.01825L25.8804 29.4175ZM-4.84893 20.4448C-6.13809 17.8549 -6.8226 14.9918 -6.83409 12.074L35.8322 11.9059C35.8179 8.25888 34.9625 4.67669 33.3473 1.43179L-4.84893 20.4448ZM30.8343 11.9899C30.8343 17.1198 28.7565 21.9617 25.1837 25.4717L-4.71793 -4.96405C-9.22804 -0.533089 -11.8324 5.55773 -11.8324 11.9899H30.8343ZM25.1837 25.4717C21.6237 28.9692 16.8745 30.8681 12 30.8681V-11.7986C5.79995 -11.7986 -0.22062 -9.38243 -4.71793 -4.96405L25.1837 25.4717ZM11.9189 30.8679C9.13011 30.8573 6.36657 30.2272 3.83175 29.0093L22.3091 -9.44884C19.1076 -10.987 15.6121 -11.785 12.0811 -11.7985L11.9189 30.8679ZM-1.88038 -5.43764L-5.19998 -2.1763L24.7017 28.2595L28.0213 24.9981L-1.88038 -5.43764ZM28.8489 3.53509C30.1381 6.12494 30.8226 8.98805 30.8341 11.9059L-11.8322 12.074C-11.8179 15.721 -10.9625 19.3032 -9.34727 22.5481L28.8489 3.53509ZM1.89423 1.91426C2.22584 1.38529 3.0044 0.249627 4.52628 -0.874073C6.29285 -2.17844 8.92669 -3.33221 12 -3.33221V39.3345C27.425 39.3345 35.5464 28.5621 38.0449 24.5765L1.89423 1.91426ZM11.8826 -3.33188C13.9395 -3.3432 15.9841 -2.85726 17.8397 -1.89637L-1.78008 35.9917C2.52254 38.2198 7.2944 39.3607 12.1174 39.3341L11.8826 -3.33188ZM22.9806 32.2656L24.6575 30.6181L-5.24414 0.182351L-6.92102 1.8298L22.9806 32.2656ZM-1.94809 33.2686C2.93898 36.4562 8.74889 37.8585 14.506 37.2929L10.335 -5.16935C14.1817 -5.54721 18.0739 -4.61243 21.3615 -2.4681L-1.94809 33.2686ZM14.506 37.2929C20.2649 36.7273 25.7108 34.2171 29.8981 30.1033L-0.00357676 -0.332433C2.82608 -3.11243 6.48653 -4.79132 10.335 -5.16935L14.506 37.2929ZM29.8981 30.1033C34.0928 25.9823 36.7641 20.4999 37.3683 14.563L-5.07912 10.2431C-4.66592 6.18305 -2.84067 2.45487 -0.00357676 -0.332433L29.8981 30.1033ZM37.3683 14.563C37.9728 8.62364 36.4599 2.69455 33.147 -2.20789L-2.20458 21.6816C-4.45557 18.3506 -5.49256 14.3056 -5.07912 10.2431L37.3683 14.563ZM30.422 24.9548L32.3463 23.0643L2.44468 -7.37153L0.520397 -5.48102L30.422 24.9548ZM4.1271 24.5515C3.23757 23.8449 2.46064 22.9789 1.84199 21.9819L38.0971 -0.512837C36.1126 -3.71135 33.5942 -6.53132 30.6639 -8.85875L4.1271 24.5515ZM1.91167 22.0934C0.0202022 19.0864 -1.0008 15.5868 -1.0008 11.9899H41.6659C41.6659 7.5061 40.3935 3.1371 38.0274 -0.62438L1.91167 22.0934ZM-1.0008 11.9899C-1.0008 8.39305 0.0202022 4.89347 1.91167 1.88649L38.0274 24.6043C40.3935 20.8428 41.6659 16.4738 41.6659 11.9899H-1.0008Z" fill="#DAA930" mask="url(#path-1-inside-1_0_759)"/>
</svg>
