<svg width="16" height="16" viewBox="0 0 16 16" fill="none" xmlns="http://www.w3.org/2000/svg">
<g clip-path="url(#clip0_0_677)">
<path d="M12.2116 10.9002L11.953 11.2458L12.2582 11.551L15.2045 14.4986L15.2045 14.5L15.355 14.6505C15.5497 14.8452 15.5497 15.1609 15.355 15.3556L15.355 15.3557C15.1603 15.5504 14.8446 15.5504 14.6498 15.3556L11.5518 12.2576L11.2465 11.9523L10.9009 12.211C8.59045 13.9398 5.41718 13.9398 3.1068 12.211C0.230625 10.0587 -0.356227 5.98231 1.79604 3.10614C3.9483 0.229961 8.02468 -0.356891 10.9009 1.79537C13.777 3.94764 14.3639 8.02402 12.2116 10.9002ZM7.02965 12.5103H7.03018C10.0558 12.507 12.5077 10.0551 12.5109 7.02951V7.02898C12.5109 4.00175 10.0569 1.54771 7.02965 1.54771C4.00241 1.54771 1.54837 4.00175 1.54837 7.02898C1.54837 10.0562 4.00241 12.5103 7.02965 12.5103Z" fill="#32B66C" stroke="#32B66C" stroke-width="0.996596"/>
</g>
<defs>
<clipPath id="clip0_0_677">
<rect width="16" height="16" fill="white"/>
</clipPath>
</defs>
</svg>
