<svg width="24" height="24" viewBox="0 0 24 24" fill="none" xmlns="http://www.w3.org/2000/svg">
<path d="M17.8333 2H6.16667C5.062 2.00132 4.00296 2.44073 3.22185 3.22185C2.44073 4.00296 2.00132 5.062 2 6.16667L2 17.8333C2.00132 18.938 2.44073 19.997 3.22185 20.7782C4.00296 21.5593 5.062 21.9987 6.16667 22H17.8333C18.938 21.9987 19.997 21.5593 20.7782 20.7782C21.5593 19.997 21.9987 18.938 22 17.8333V6.16667C21.9987 5.062 21.5593 4.00296 20.7782 3.22185C19.997 2.44073 18.938 2.00132 17.8333 2V2ZM6.16667 3.66667H17.8333C18.4964 3.66667 19.1323 3.93006 19.6011 4.3989C20.0699 4.86774 20.3333 5.50363 20.3333 6.16667V17.8333C20.3319 18.2046 20.2464 18.5707 20.0833 18.9042L12.4475 11.2683C12.0606 10.8813 11.6012 10.5743 11.0956 10.3648C10.59 10.1554 10.0481 10.0476 9.50083 10.0476C8.95357 10.0476 8.41166 10.1554 7.90606 10.3648C7.40047 10.5743 6.94109 10.8813 6.55417 11.2683L3.66667 14.155V6.16667C3.66667 5.50363 3.93006 4.86774 4.3989 4.3989C4.86774 3.93006 5.50363 3.66667 6.16667 3.66667ZM6.16667 20.3333C5.50363 20.3333 4.86774 20.0699 4.3989 19.6011C3.93006 19.1323 3.66667 18.4964 3.66667 17.8333V16.5117L7.73167 12.4467C7.96383 12.2144 8.2395 12.0301 8.54292 11.9043C8.84634 11.7786 9.17156 11.7139 9.5 11.7139C9.82844 11.7139 10.1537 11.7786 10.4571 11.9043C10.7605 12.0301 11.0362 12.2144 11.2683 12.4467L18.9042 20.0833C18.5707 20.2464 18.2046 20.3319 17.8333 20.3333H6.16667Z" fill="#32B66C"/>
<path d="M15.3334 10.7494C15.9102 10.7494 16.4741 10.5783 16.9538 10.2578C17.4334 9.93732 17.8072 9.48179 18.028 8.94884C18.2488 8.41589 18.3065 7.82945 18.194 7.26367C18.0814 6.69789 17.8037 6.17819 17.3957 5.77029C16.9878 5.36239 16.4681 5.0846 15.9024 4.97206C15.3366 4.85952 14.7501 4.91728 14.2172 5.13803C13.6842 5.35879 13.2287 5.73263 12.9082 6.21227C12.5877 6.69191 12.4167 7.25582 12.4167 7.83268C12.4167 8.60623 12.724 9.3481 13.271 9.89508C13.8179 10.4421 14.5598 10.7494 15.3334 10.7494ZM15.3334 6.58268C15.5806 6.58268 15.8223 6.656 16.0278 6.79335C16.2334 6.9307 16.3936 7.12592 16.4882 7.35433C16.5828 7.58274 16.6076 7.83407 16.5593 8.07655C16.5111 8.31902 16.3921 8.54175 16.2172 8.71657C16.0424 8.89138 15.8197 9.01043 15.5772 9.05867C15.3347 9.1069 15.0834 9.08214 14.855 8.98753C14.6266 8.89292 14.4314 8.73271 14.294 8.52715C14.1567 8.32158 14.0834 8.07991 14.0834 7.83268C14.0834 7.50116 14.215 7.18322 14.4495 6.9488C14.6839 6.71438 15.0018 6.58268 15.3334 6.58268Z" fill="#32B66C"/>
</svg>
