<svg width="33" height="32" viewBox="0 0 33 32" fill="none" xmlns="http://www.w3.org/2000/svg">
<path d="M16.1575 31.9995C7.27976 31.9995 0 24.8494 0 15.9998C0 7.15008 7.27976 0 16.1575 0C25.0353 0 32.315 7.15008 32.315 15.9998C32.315 24.8494 25.0944 31.9995 16.1575 31.9995Z" fill="#60FC7C"/>
<path fill-rule="evenodd" clip-rule="evenodd" d="M16.9266 5.56522C11.5407 5.56522 7.16104 9.90215 7.16104 15.2354C7.16104 17.1108 7.6937 18.9277 8.69985 20.4514L7.22022 23.6748C7.10185 24.0265 7.16104 24.3781 7.39778 24.6126C7.57533 24.7884 7.81207 24.9056 8.04881 24.9056C8.108 24.9056 8.22637 24.9056 8.28556 24.847L12.3693 23.7334C13.7898 24.4953 15.3878 24.847 16.9857 24.847C22.3716 24.847 26.7513 20.5101 26.7513 15.1768C26.6921 9.90215 22.3124 5.56522 16.9266 5.56522ZM16.9266 23.206C15.5061 23.206 14.0857 22.8543 12.902 22.0924C12.7836 22.0338 12.6061 21.9752 12.4877 21.9752C12.4285 21.9752 12.3101 21.9752 12.2509 22.0338L9.58762 22.7371L10.5346 20.6859C10.653 20.3928 10.653 20.0998 10.4754 19.8654C9.46925 18.5174 8.93659 16.8764 8.93659 15.2354C8.93659 10.8399 12.5469 7.26483 16.9857 7.26483C21.4246 7.26483 25.0349 10.8399 25.0349 15.2354C24.9757 19.6309 21.3654 23.206 16.9266 23.206Z" fill="white"/>
<path fill-rule="evenodd" clip-rule="evenodd" d="M20.7148 16.7001C20.3005 16.4657 19.7678 16.1727 19.2944 16.4071C18.9393 16.5829 18.7025 17.1104 18.4658 17.4034C18.3474 17.5792 18.1698 17.5792 17.9923 17.5206C16.631 16.9932 15.5657 16.0554 14.7963 14.8247C14.6779 14.6489 14.6779 14.4731 14.8555 14.2972C15.0922 14.0042 15.3882 13.7112 15.4473 13.3595C15.5065 13.0079 15.329 12.5976 15.2106 12.246C15.033 11.8357 14.7963 11.2497 14.382 11.0152C14.0269 10.7808 13.4942 10.898 13.1391 11.1911C12.5473 11.6599 12.2513 12.4218 12.2513 13.1251C12.2513 13.3595 12.2513 13.5353 12.3105 13.7698C12.4289 14.2386 12.6656 14.7075 12.9024 15.1177C13.0799 15.4694 13.3167 15.7624 13.5534 16.0554C14.3228 17.0518 15.2106 17.9309 16.2759 18.5756C16.8086 18.9272 17.4004 19.1616 17.9923 19.3961C18.6433 19.6305 19.2352 19.8649 19.9454 19.6891C20.7148 19.5719 21.425 19.103 21.7209 18.3411C21.7801 18.1067 21.8393 17.8723 21.7801 17.6378C21.7209 17.169 21.0699 16.9346 20.7148 16.7001Z" fill="white"/>
</svg>
