<svg width="81" height="34" viewBox="0 0 81 34" fill="none" xmlns="http://www.w3.org/2000/svg">
<path d="M55.5131 6.11417C55.424 6.61805 55.0969 7.71625 54.8331 8.54586C53.8539 11.4828 49.8792 21.6883 46.7954 29.1283C44.8676 33.7843 44.9274 33.6653 44.6303 33.8142C44.1611 34.0801 42.7943 34.11 42.4652 33.5762C42.4889 33.1981 42.5794 32.8272 42.7324 32.4807C42.9405 31.9469 43.7103 29.9307 44.4535 27.9729C45.1655 26.0451 45.7883 24.3839 45.7883 24.324C45.579 23.7114 45.2346 23.1536 44.7806 22.692C44.3046 22.1881 43.4756 21.623 43.3866 21.74C43.3566 21.7699 42.8827 22.896 42.3196 24.2309C40.7767 28.028 40.7175 28.1157 39.6506 28.2646C38.9985 28.3537 38.1084 28.0607 37.9894 27.7309C37.9302 27.4636 38.1675 26.7829 39.5024 23.608C40.0362 22.303 40.4802 21.2062 40.4503 21.1763C39.6002 21.224 38.7613 21.3937 37.9594 21.6802C37.4902 21.8366 36.3274 22.333 35.3795 22.7756C32.7996 23.9915 30.9316 23.6046 33.7788 21.6802C35.605 20.5287 37.7004 19.8744 39.8573 19.7823L41.1623 19.6932L42.7644 16.0463C44.9295 11.1503 46.4711 7.97942 46.8573 7.68226C47.0771 7.53068 47.3342 7.44224 47.6007 7.42653C47.8672 7.41083 48.1329 7.46846 48.369 7.59317C48.5771 7.74209 48.5771 7.76998 48.3989 8.48194C48.014 9.87595 46.5901 13.6452 43.921 20.2855C43.8911 20.3446 44.1591 20.5826 44.514 20.7547C44.9804 21.0588 45.4173 21.406 45.819 21.7917C46.0341 22.0266 46.2843 22.2266 46.5608 22.3847C46.5908 22.352 47.1865 20.9016 47.8658 19.1206C51.1876 10.6981 53.0555 6.45688 53.9674 5.27095C54.7494 4.2761 55.8463 4.33527 55.5131 6.11417Z" fill="url(#paint0_linear_0_649)"/>
<path d="M60.21 20.2902C59.333 20.8784 58.387 21.3566 57.3934 21.7141C56.8602 21.8705 56.8004 21.9222 56.2979 22.7531C54.4877 25.926 50.069 27.4091 50.2771 23.3162C50.3961 21.032 52.0859 17.6211 54.2211 15.3683C54.5845 15.0133 54.9029 14.615 55.1691 14.1824C55.4961 13.3514 58.4011 14.2422 57.3941 14.5081C56.9793 14.6271 54.6951 17.9761 53.6282 20.0549C52.7081 21.8637 52.3532 22.9306 52.3532 23.9397C52.3532 26.6387 54.8141 23.4705 55.2588 22.7239L55.7627 21.8929L55.2935 21.744C55.0519 21.663 54.8365 21.5186 54.6698 21.3259C54.503 21.1332 54.391 20.8993 54.3456 20.6485C54.1674 19.6693 54.9385 17.8326 56.2136 16.1707C56.5685 15.6654 58.1414 13.6207 58.4039 15.3696C58.582 16.4651 57.989 19.2246 57.2478 20.9457C57.0914 21.2728 57.426 21.1837 58.5528 20.5907C59.3538 20.2045 59.7088 20.0868 59.9169 20.1215C60.0862 20.1725 60.21 20.231 60.21 20.2902ZM57.3934 16.3788C57.3934 16.053 57.3934 16.053 57.2152 16.2611C56.5836 17.2852 56.0947 18.3907 55.762 19.5469C55.6759 19.7999 55.6453 20.0685 55.6723 20.3344C55.6992 20.6003 55.7832 20.8573 55.9185 21.0878C56.0674 21.2959 56.1265 21.2068 56.5985 19.961C56.9833 18.7954 57.2491 17.5938 57.392 16.3747L57.3934 16.3788Z" fill="url(#paint1_linear_0_649)"/>
<path d="M69.6648 19.0743C69.9606 19.2232 67.6778 23.4943 66.6102 24.7993C65.6011 25.9852 63.2891 26.9039 62.9321 24.8292C62.9119 24.6248 62.8617 24.4246 62.7832 24.2349C62.5486 24.4558 62.3306 24.6938 62.1311 24.9468C61.8237 25.3222 61.4644 25.6519 61.0641 25.926C58.0918 27.4901 58.2475 23.614 58.6923 21.8331C59.3615 19.4269 60.4128 17.1439 61.806 15.0711C62.399 13.9151 63.7631 15.1901 63.793 15.3982C63.793 15.4281 63.555 15.8674 63.2891 16.376C61.3613 19.7271 59.7293 24.9815 60.5602 25.2161C61.0228 24.8959 61.4329 24.5059 61.7761 24.0601C62.843 22.8728 62.843 22.8443 63.1701 21.6869C63.702 19.5868 64.5843 17.5916 65.7799 15.7851C65.9758 15.5222 66.1338 15.2332 66.2491 14.9263C66.664 13.739 68.2062 15.0439 68.2361 15.252C68.2361 15.3111 62.0372 28.5685 66.1601 23.9717C67.3368 22.6365 68.2976 21.1257 69.0079 19.4939C69.1283 19.1022 69.3976 18.9322 69.6648 19.0743Z" fill="url(#paint2_linear_0_649)"/>
<path d="M72.6602 20.9659C72.2584 20.9908 71.8606 21.0606 71.4743 21.174L71.0051 21.3229L70.9453 22.5388C70.7073 27.3729 66.1404 25.2377 66.1404 23.8437C66.1404 23.4588 67.8302 22.0648 68.8393 21.5888L69.1643 21.442L69.1943 18.6838C69.2534 15.9257 69.2534 15.8958 69.5513 15.3029C70.3523 13.494 73.1091 13.5539 73.1091 15.2138C73.0791 16.2821 72.4834 17.2599 71.8578 17.2599C71.443 17.2599 71.443 17.1035 71.7688 16.5799C71.9891 16.2261 72.0833 15.8081 72.036 15.394C72.036 14.6228 72.274 14.6228 71.6511 14.6228C71.3241 14.6228 71.205 14.6827 71.0255 15.0376C70.6393 15.8088 70.5563 16.6697 70.6985 18.7158C70.7875 19.7528 70.8548 20.6137 70.8766 20.6436C71.037 20.6411 71.1957 20.611 71.3458 20.5545C72.039 20.3797 72.7659 20.39 73.4538 20.5845C73.7564 20.8238 73.5204 20.9421 72.6602 20.9659ZM69.2181 22.1532L68.3293 22.7462C67.9119 23.034 67.5151 23.3508 67.142 23.6941C66.4912 24.3741 68.0022 24.8501 68.3592 24.6461C68.8495 24.1692 69.1361 23.5209 69.1589 22.8373L69.2181 22.1532Z" fill="url(#paint3_linear_0_649)"/>
<path d="M79.9851 20.4967C78.4721 23.2255 77.0781 24.6787 75.595 25.0636C72.8682 25.7756 72.0073 23.6098 72.622 21.1787C74.2819 14.6248 80.2435 12.7562 79.8301 16.2269C79.549 17.6138 78.7543 18.8433 77.6051 19.6691C77.3588 19.7953 77.0879 19.8661 76.8113 19.8763C76.5347 19.8865 76.2593 19.836 76.0044 19.7283C75.8262 19.5515 75.7963 19.7283 75.3523 21.0332C75.107 21.6866 74.9957 22.3827 75.0252 23.08C75.0252 24.0892 75.0252 24.1191 75.2931 24.1748C76.1519 24.2938 78.8808 21.4773 79.7709 19.5202C80.0688 18.8946 80.1558 18.7783 80.4237 18.7783C80.844 18.7756 80.7814 19.0449 79.9851 20.4967ZM78.5911 16.8199C79.2711 13.0799 76.4552 18.1547 76.307 18.7477C75.8922 20.3498 78.1172 19.491 78.5911 16.8219V16.8199Z" fill="url(#paint4_linear_0_649)"/>
<path d="M19.7687 11.8594C19.4987 11.8243 19.2457 11.708 19.0434 11.5258C18.8411 11.3436 18.6989 11.1043 18.6358 10.8394C18.6358 10.2954 19.4851 9.37467 20.1998 9.07139C20.0577 9.23731 19.4171 10.2274 19.5613 10.2274C21.2389 10.2274 24.6416 7.74606 24.6416 5.68973C24.6416 4.65068 23.5774 4.17806 22.539 4.17806C16.0661 4.17806 2.55434 15.9129 2.15246 23.1706C2.05862 24.5633 2.60128 25.6037 4.77457 25.4146C9.92357 24.9454 18.7147 17.5714 22.5628 14.1231C17.9096 14.5923 11.6963 16.4624 11.6963 17.6197C11.6963 17.8543 10.845 17.0077 10.845 16.2019C10.845 14.0993 20.106 13.2962 22.0426 13.2962C24.7824 13.2962 27.0495 14.0517 27.1685 14.4053C26.0684 14.1541 24.9423 14.0354 23.814 14.0518C25.089 14.2877 25.4916 15.7055 25.1142 15.3737C24.7592 15.1139 24.1438 15.3737 23.3414 15.9653C18.8779 19.2245 15.0018 25.5316 13.7037 28.7684C13.3532 29.5793 13.1301 30.4395 13.0421 31.3184C13.0421 31.4844 13.1141 31.4844 13.1141 31.5313C13.1141 31.5782 13.0904 31.6265 12.9951 31.6265C12.7592 31.6265 12.4756 31.3137 12.4756 30.871C12.4756 27.2316 15.2637 21.9888 17.4397 19.3667C13.7534 22.3192 7.85159 26.689 3.82732 26.9249C1.46498 27.0671 0.0240377 25.6968 0.000237532 23.5467C-0.067763 14.6882 14.481 3.7041 22.6308 3.7041C23.7868 3.7041 25.7024 4.24812 25.7024 5.97125C25.6983 8.67223 22.3201 11.8594 19.7687 11.8594Z" fill="url(#paint5_linear_0_649)"/>
<path d="M29.7287 16.0714C29.5648 16.3526 29.4155 16.6419 29.2812 16.9384C29.0494 17.4144 28.6162 18.2263 28.2973 18.7594C27.2868 20.4071 25.9506 19.8876 26.6217 17.5076C26.9588 16.3676 27.4386 15.2747 28.0497 14.2551C28.1796 14.0389 28.2374 13.9232 28.1796 13.9076C27.9819 13.8255 27.7675 13.7912 27.554 13.8076C27.5397 13.8219 27.2942 14.3571 27.0046 14.9922C26.6929 15.7794 26.3057 16.5345 25.8486 17.2471C25.733 17.3627 25.429 17.4035 25.3726 17.3206C25.4507 17.092 25.5557 16.8736 25.6854 16.6698C26.2616 15.7166 26.7546 14.7156 27.1589 13.6778C27.1589 13.6343 27.0869 13.5758 27.0025 13.5322C26.7301 13.3993 26.5099 13.1791 26.3769 12.9066C26.3037 12.6886 26.2813 12.4567 26.3113 12.2287C26.3414 12.0006 26.4231 11.7825 26.5503 11.5908C27.3595 9.98738 28.6454 10.4205 27.9103 12.719C27.8366 12.9095 27.7882 13.1088 27.7662 13.3119C27.9873 13.4727 28.2586 13.5492 28.5312 13.5275C28.8404 13.5279 29.1477 13.577 29.4417 13.673C29.4574 13.6873 29.3995 13.7594 29.3261 13.8294C28.6911 15.0702 28.1594 16.3611 27.7363 17.6891C27.3609 18.8594 27.4044 19.0328 27.9239 18.3963C28.4944 17.6555 28.9677 16.8447 29.3322 15.9837L29.4886 15.5505L29.7198 15.5349C30.032 15.5083 30.032 15.5661 29.7287 16.0714ZM27.7635 11.0992C27.5366 11.5515 27.3944 12.0414 27.3439 12.5449C27.3439 12.8482 27.3718 12.9923 27.4438 12.9359C27.5071 12.7508 27.5593 12.5621 27.6003 12.3708C27.7635 11.7799 27.8491 11.0006 27.7635 11.0992Z" fill="url(#paint6_linear_0_649)"/>
<path d="M32.7778 16.1291C32.0406 17.4591 31.362 18.1629 30.6391 18.3554C29.3091 18.7008 28.8902 17.6468 29.1935 16.4622C30.002 13.2662 32.9076 12.3564 32.7057 14.0482C32.569 14.7238 32.1814 15.3224 31.6211 15.7238C31.5004 15.7847 31.3681 15.8189 31.233 15.8241C31.0979 15.8292 30.9633 15.8052 30.8384 15.7537C30.7527 15.666 30.7371 15.7537 30.5256 16.3888C30.4073 16.7078 30.3541 17.0472 30.3692 17.3871C30.3692 17.878 30.3692 17.8923 30.4991 17.9222C30.9186 17.98 32.248 16.6064 32.6819 15.6517C32.8274 15.3484 32.8696 15.2906 32.9947 15.2906C33.1973 15.2879 33.1674 15.4239 32.7778 16.1291ZM32.0978 14.3379C32.4296 12.5169 31.0573 14.9873 30.9839 15.2763C30.7826 16.057 31.8672 15.6456 32.0984 14.3359L32.0978 14.3379Z" fill="url(#paint7_linear_0_649)"/>
<path d="M35.944 16.1291C35.2069 17.4591 34.5357 18.1629 33.8054 18.3554C32.4753 18.7008 32.0564 17.6468 32.3597 16.4622C33.1689 13.2662 36.0739 12.3564 35.8719 14.0482C35.7352 14.7238 35.3477 15.3224 34.7873 15.7238C34.6668 15.7846 34.5345 15.8188 34.3996 15.8239C34.2647 15.8291 34.1302 15.8051 34.0053 15.7537C33.919 15.666 33.9033 15.7537 33.6925 16.3888C33.5742 16.7078 33.521 17.0472 33.5361 17.3871C33.5361 17.878 33.5361 17.8923 33.666 17.9222C34.0856 17.98 35.415 16.6064 35.8488 15.6517C35.9943 15.3484 36.0365 15.2906 36.1616 15.2906C36.3629 15.2879 36.333 15.4239 35.944 16.1291ZM35.264 14.3379C35.5959 12.5169 34.2236 14.9873 34.1502 15.2763C33.9482 16.057 35.0328 15.6456 35.264 14.3359V14.3379Z" fill="url(#paint8_linear_0_649)"/>
<path d="M40.3804 15.8024C40.4524 15.8745 40.2505 16.2934 39.7004 17.2468C38.0683 20.0504 36.7525 19.4153 37.7351 16.394C38.0097 15.5961 38.3581 14.8255 38.7756 14.0922C38.932 13.8311 38.9319 13.8168 38.8191 13.8746C38.2635 14.3185 37.7639 14.8281 37.3312 15.3924C36.4921 16.5062 35.7985 17.8662 35.7985 18.3837V18.6734H35.249C34.5561 18.6734 34.4663 18.6292 34.6418 18.398C35.081 17.6295 35.4478 16.8218 35.7373 15.9854C36.0984 15.117 36.4601 14.2643 36.5479 14.0766C36.6478 13.8674 36.7299 13.6501 36.7933 13.4272C36.8797 13.094 36.9973 12.9512 37.1687 12.9512C37.3135 12.9881 37.454 13.0405 37.5876 13.1076L37.9194 13.264L37.7317 13.5237C37.4737 13.9729 37.264 14.4482 37.1061 14.9415C37.1061 14.9558 37.3659 14.6961 37.6991 14.3629C38.0775 13.8573 38.639 13.5202 39.2631 13.4238C40.5354 13.3082 39.4807 14.7382 39.119 15.663C38.439 17.4263 38.1941 18.3225 38.3818 18.3225C38.9986 17.6984 39.5068 16.9756 39.8853 16.1839C40.1192 15.8024 40.2648 15.6814 40.3804 15.8024Z" fill="url(#paint9_linear_0_649)"/>
<path d="M33.8951 5.90119C33.8937 5.84893 33.8964 5.79665 33.9032 5.74481C33.9255 4.96479 34.0267 4.18903 34.2051 3.42939C34.4467 2.38316 34.9248 1.40616 35.6025 0.573357C35.7017 0.447771 35.8099 0.329597 35.9262 0.219761C35.9636 0.185081 35.9942 0.110285 36.0527 0.135445C36.1112 0.160606 36.0888 0.235393 36.0922 0.291833C36.1187 0.731797 36.1438 1.16973 36.1656 1.60901C36.2109 2.51569 36.2277 3.42531 36.2159 4.33787C36.2064 5.09404 36.1611 5.8477 36.0799 6.59888C36.0192 7.2206 35.9184 7.83776 35.778 8.44646C35.6729 8.92576 35.5132 9.39144 35.302 9.83436C35.2836 9.89512 35.2434 9.94693 35.1891 9.97988C34.4649 7.44074 32.7921 5.61968 30.7378 4.08287C31.9493 4.35727 33.0437 5.00605 33.8658 5.93724L33.8951 5.90119Z" fill="url(#paint10_linear_0_649)"/>
<path d="M36.258 0C36.8629 0.899009 37.3322 1.88218 37.6507 2.91789C37.9547 3.95014 38.0415 5.0342 37.9057 6.10168C37.9492 6.12072 37.9621 6.09216 37.9777 6.07516C38.5362 5.47403 39.2431 5.03054 40.0273 4.78928C40.4066 4.66169 40.7945 4.56126 41.188 4.48872C41.3009 4.46696 41.3445 4.48872 41.2901 4.60772C40.9483 5.46893 40.4959 6.28202 39.9443 7.0265C39.6173 7.47548 39.2509 7.89444 38.8495 8.27839C38.4184 8.68863 37.9547 9.06318 37.463 9.39836C37.1019 9.64113 36.7245 9.85668 36.3444 10.0682C36.311 10.0872 36.2764 10.1259 36.2363 10.096C36.1961 10.0661 36.2362 10.0226 36.2458 9.98656C36.5166 8.90992 36.7085 7.81492 36.8197 6.7103C37.0335 4.51301 36.848 2.29515 36.2723 0.163879C36.2461 0.113267 36.241 0.0543752 36.258 0Z" fill="url(#paint11_linear_0_649)"/>
<path d="M35.117 10.7591C34.8871 10.8077 34.6518 10.8255 34.4172 10.8121C33.3804 10.8439 32.3469 10.6798 31.3708 10.3286C30.8567 10.1312 30.3681 9.87274 29.9156 9.55886C29.7796 9.46502 29.7843 9.44122 29.9394 9.36506C30.3695 9.1735 30.8297 9.05844 31.2994 9.02505C31.4354 9.00941 31.5782 8.99853 31.7169 8.98425C31.7496 8.98425 31.7917 8.98427 31.8047 8.94211C31.8176 8.89995 31.7856 8.88702 31.7659 8.8673C31.3709 8.46402 31.02 8.01972 30.7194 7.54196C30.3117 6.88681 30.0132 6.16984 29.8354 5.419C29.7155 4.92355 29.6406 4.4183 29.6116 3.90939C29.6116 3.88151 29.5912 3.85021 29.6429 3.81689C30.786 6.64028 32.4037 9.10123 35.117 10.7591Z" fill="url(#paint12_linear_0_649)"/>
<path d="M36.3403 10.7831C36.5484 10.6471 36.7578 10.5281 36.9659 10.4016C37.8363 9.8771 38.6428 9.25321 39.3691 8.54246C40.3584 7.58086 41.1299 6.41817 41.6315 5.13291C41.7885 4.72587 41.914 4.30733 42.0068 3.88102C42.0124 3.82222 42.0378 3.76706 42.0789 3.72461C42.0789 3.85449 42.0973 3.96398 42.0973 4.07482C42.1013 5.58993 41.5768 7.05902 40.6141 8.22898C40.347 8.55945 40.0623 8.87543 39.7614 9.17555C39.722 9.21499 39.6486 9.24353 39.6785 9.31969C39.7084 9.39585 39.7757 9.3809 39.8349 9.3877C40.4368 9.46073 41.0223 9.63428 41.5668 9.9011C41.5838 9.9011 41.6015 9.92151 41.5968 9.96911C39.8026 9.69781 37.9684 9.98184 36.3403 10.7831Z" fill="url(#paint13_linear_0_649)"/>
<path d="M36.095 11.3413C38.1537 11.5095 40.2249 11.2519 42.1797 10.5845C42.0556 10.7534 41.9057 10.9019 41.7356 11.0244C41.043 11.5096 40.2629 11.856 39.4386 12.0444C39.3026 12.0791 39.2822 12.1213 39.3651 12.2308C39.5351 12.4967 39.7411 12.7379 39.9771 12.9475C40.0373 12.9829 40.0833 13.0382 40.107 13.1039C38.603 13.0108 37.181 12.3861 36.095 11.3413Z" fill="url(#paint14_linear_0_649)"/>
<path d="M31.2859 12.8169C31.3641 12.4795 31.5423 12.1735 31.7973 11.9391C31.9054 11.8371 31.8993 11.7983 31.7599 11.7636C31.3993 11.6585 31.0603 11.49 30.7589 11.2659C30.2803 10.9219 29.8342 10.535 29.4261 10.1098C29.403 10.0796 29.3821 10.0478 29.3635 10.0146C31.1511 10.8584 33.1022 11.2995 35.079 11.3067C33.6952 11.433 32.3778 11.9576 31.2859 12.8169Z" fill="url(#paint15_linear_0_649)"/>
<defs>
<linearGradient id="paint0_linear_0_649" x1="23.7571" y1="19.3124" x2="84.8835" y2="19.3124" gradientUnits="userSpaceOnUse">
<stop stop-color="#7A5100"/>
<stop offset="0.3" stop-color="#E9BA46"/>
<stop offset="0.55" stop-color="#C08B09"/>
<stop offset="0.79" stop-color="#EEC95E"/>
<stop offset="1" stop-color="#865800"/>
</linearGradient>
<linearGradient id="paint1_linear_0_649" x1="23.7503" y1="19.824" x2="84.9008" y2="19.824" gradientUnits="userSpaceOnUse">
<stop stop-color="#7A5100"/>
<stop offset="0.3" stop-color="#E9BA46"/>
<stop offset="0.55" stop-color="#C08B09"/>
<stop offset="0.79" stop-color="#EEC95E"/>
<stop offset="1" stop-color="#865800"/>
</linearGradient>
<linearGradient id="paint2_linear_0_649" x1="23.7572" y1="20.3617" x2="84.8936" y2="20.3617" gradientUnits="userSpaceOnUse">
<stop stop-color="#7A5100"/>
<stop offset="0.3" stop-color="#E9BA46"/>
<stop offset="0.55" stop-color="#C08B09"/>
<stop offset="0.79" stop-color="#EEC95E"/>
<stop offset="1" stop-color="#865800"/>
</linearGradient>
<linearGradient id="paint3_linear_0_649" x1="23.7522" y1="19.7588" x2="84.8944" y2="19.7588" gradientUnits="userSpaceOnUse">
<stop stop-color="#7A5100"/>
<stop offset="0.3" stop-color="#E9BA46"/>
<stop offset="0.55" stop-color="#C08B09"/>
<stop offset="0.79" stop-color="#EEC95E"/>
<stop offset="1" stop-color="#865800"/>
</linearGradient>
<linearGradient id="paint4_linear_0_649" x1="23.76" y1="19.8564" x2="84.8945" y2="19.8564" gradientUnits="userSpaceOnUse">
<stop stop-color="#7A5100"/>
<stop offset="0.3" stop-color="#E9BA46"/>
<stop offset="0.55" stop-color="#C08B09"/>
<stop offset="0.79" stop-color="#EEC95E"/>
<stop offset="1" stop-color="#865800"/>
</linearGradient>
<linearGradient id="paint5_linear_0_649" x1="2.33649" y1="26.0141" x2="49.5642" y2="-2.17979" gradientUnits="userSpaceOnUse">
<stop stop-color="#32B66C"/>
<stop offset="1" stop-color="#EAE113"/>
</linearGradient>
<linearGradient id="paint6_linear_0_649" x1="4.57265" y1="29.5536" x2="54.5399" y2="21.5347" gradientUnits="userSpaceOnUse">
<stop stop-color="#32B66C"/>
<stop offset="1" stop-color="#EAE113"/>
</linearGradient>
<linearGradient id="paint7_linear_0_649" x1="5.94095" y1="31.7284" x2="56.3954" y2="12.7947" gradientUnits="userSpaceOnUse">
<stop stop-color="#32B66C"/>
<stop offset="1" stop-color="#EAE113"/>
</linearGradient>
<linearGradient id="paint8_linear_0_649" x1="6.84688" y1="33.1559" x2="57.2944" y2="14.2248" gradientUnits="userSpaceOnUse">
<stop stop-color="#32B66C"/>
<stop offset="1" stop-color="#EAE113"/>
</linearGradient>
<linearGradient id="paint9_linear_0_649" x1="7.85018" y1="34.7495" x2="55.4505" y2="7.23045" gradientUnits="userSpaceOnUse">
<stop stop-color="#32B66C"/>
<stop offset="1" stop-color="#EAE113"/>
</linearGradient>
<linearGradient id="paint10_linear_0_649" x1="28.1997" y1="8.82748" x2="41.378" y2="6.74297" gradientUnits="userSpaceOnUse">
<stop stop-color="#32B66C"/>
<stop offset="0.74" stop-color="#DFB956"/>
<stop offset="1" stop-color="#BB912E"/>
</linearGradient>
<linearGradient id="paint11_linear_0_649" x1="28.3323" y1="9.09629" x2="41.4476" y2="7.39439" gradientUnits="userSpaceOnUse">
<stop stop-color="#32B66C"/>
<stop offset="0.74" stop-color="#DFB956"/>
<stop offset="1" stop-color="#BB912E"/>
</linearGradient>
<linearGradient id="paint12_linear_0_649" x1="28.4397" y1="9.29753" x2="41.644" y2="5.122" gradientUnits="userSpaceOnUse">
<stop stop-color="#32B66C"/>
<stop offset="0.74" stop-color="#DFB956"/>
<stop offset="1" stop-color="#BB912E"/>
</linearGradient>
<linearGradient id="paint13_linear_0_649" x1="30.2149" y1="12.7806" x2="43.3705" y2="8.30984" gradientUnits="userSpaceOnUse">
<stop stop-color="#32B66C"/>
<stop offset="0.74" stop-color="#DFB956"/>
<stop offset="1" stop-color="#BB912E"/>
</linearGradient>
<linearGradient id="paint14_linear_0_649" x1="31.6227" y1="15.5276" x2="34.8161" y2="6.02433" gradientUnits="userSpaceOnUse">
<stop stop-color="#32B66C"/>
<stop offset="0.74" stop-color="#DFB956"/>
<stop offset="1" stop-color="#BB912E"/>
</linearGradient>
<linearGradient id="paint15_linear_0_649" x1="29.775" y1="11.909" x2="34.5046" y2="1.87026" gradientUnits="userSpaceOnUse">
<stop stop-color="#32B66C"/>
<stop offset="0.74" stop-color="#DFB956"/>
<stop offset="1" stop-color="#BB912E"/>
</linearGradient>
</defs>
</svg>
