<svg width="24" height="24" viewBox="0 0 24 24" fill="none" xmlns="http://www.w3.org/2000/svg">
<path d="M18.6667 2H5.33333C4.44928 2 3.60143 2.35119 2.97631 2.97632C2.35119 3.60145 2 4.44931 2 5.33338L2 15.3335C2 16.2176 2.35119 17.0654 2.97631 17.6906C3.60143 18.3157 4.44928 18.6669 5.33333 18.6669H7.75L11.4592 21.8028C11.6096 21.9301 11.8004 22 11.9975 22C12.1946 22 12.3854 21.9301 12.5358 21.8028L16.25 18.6669H18.6667C19.5507 18.6669 20.3986 18.3157 21.0237 17.6906C21.6488 17.0654 22 16.2176 22 15.3335V5.33338C22 4.44931 21.6488 3.60145 21.0237 2.97632C20.3986 2.35119 19.5507 2 18.6667 2V2ZM20.3333 15.3335C20.3333 15.7756 20.1577 16.1995 19.8452 16.512C19.5326 16.8246 19.1087 17.0002 18.6667 17.0002H16.25C15.8561 17.0003 15.4749 17.14 15.1742 17.3944L12 20.0753L8.8275 17.3944C8.5263 17.1396 8.1445 16.9999 7.75 17.0002H5.33333C4.89131 17.0002 4.46738 16.8246 4.15482 16.512C3.84226 16.1995 3.66667 15.7756 3.66667 15.3335V5.33338C3.66667 4.89135 3.84226 4.46742 4.15482 4.15485C4.46738 3.84229 4.89131 3.66669 5.33333 3.66669H18.6667C19.1087 3.66669 19.5326 3.84229 19.8452 4.15485C20.1577 4.46742 20.3333 4.89135 20.3333 5.33338V15.3335Z" fill="white"/>
<path d="M7.85714 8H12.1429C12.3702 8 12.5882 7.89464 12.7489 7.70711C12.9097 7.51957 13 7.26522 13 7C13 6.73478 12.9097 6.48043 12.7489 6.29289C12.5882 6.10536 12.3702 6 12.1429 6H7.85714C7.62981 6 7.4118 6.10536 7.25105 6.29289C7.09031 6.48043 7 6.73478 7 7C7 7.26522 7.09031 7.51957 7.25105 7.70711C7.4118 7.89464 7.62981 8 7.85714 8Z" fill="white"/>
<path d="M16.1667 10H7.83333C7.61232 10 7.40036 10.0527 7.24408 10.1464C7.0878 10.2402 7 10.3674 7 10.5C7 10.6326 7.0878 10.7598 7.24408 10.8536C7.40036 10.9473 7.61232 11 7.83333 11H16.1667C16.3877 11 16.5996 10.9473 16.7559 10.8536C16.9122 10.7598 17 10.6326 17 10.5C17 10.3674 16.9122 10.2402 16.7559 10.1464C16.5996 10.0527 16.3877 10 16.1667 10Z" fill="white"/>
<path d="M16.1667 13H7.83333C7.61232 13 7.40036 13.1054 7.24408 13.2929C7.0878 13.4804 7 13.7348 7 14C7 14.2652 7.0878 14.5196 7.24408 14.7071C7.40036 14.8946 7.61232 15 7.83333 15H16.1667C16.3877 15 16.5996 14.8946 16.7559 14.7071C16.9122 14.5196 17 14.2652 17 14C17 13.7348 16.9122 13.4804 16.7559 13.2929C16.5996 13.1054 16.3877 13 16.1667 13Z" fill="white"/>
</svg>
