<svg width="16" height="16" viewBox="0 0 16 16" fill="none" xmlns="http://www.w3.org/2000/svg">
<path d="M14.6666 7.58891C14.5862 6.29022 14.1273 5.0434 13.3462 4.00218C12.5651 2.96095 11.4962 2.17082 10.2711 1.72921C9.04598 1.2876 7.7183 1.2138 6.45173 1.51692C5.18515 1.82004 4.03505 2.48683 3.14321 3.43507C2.25137 4.38332 1.65678 5.57157 1.43273 6.85334C1.20869 8.13511 1.36499 9.45437 1.88236 10.6485C2.39974 11.8426 3.25557 12.8593 4.34435 13.5733C5.43314 14.2874 6.70727 14.6675 8.00968 14.6668H11.8889C12.6254 14.6661 13.3315 14.3735 13.8522 13.8532C14.373 13.333 14.6659 12.6276 14.6666 11.8918V7.58891ZM13.5555 11.8918C13.5555 12.3334 13.3799 12.7569 13.0674 13.0692C12.7548 13.3814 12.3309 13.5568 11.8889 13.5568H8.00968C7.22579 13.5565 6.45077 13.3911 5.73517 13.0714C5.01957 12.7517 4.37944 12.2849 3.85654 11.7015C3.3311 11.1183 2.93654 10.4297 2.69931 9.6817C2.46208 8.93373 2.38766 8.14374 2.48105 7.36469C2.6285 6.13588 3.18112 4.99105 4.05177 4.11068C4.92243 3.2303 6.0616 2.66445 7.28971 2.50233C7.52927 2.47233 7.77046 2.45713 8.0119 2.45682C9.30655 2.45329 10.5611 2.9052 11.5556 3.73332C12.1364 4.21558 12.6132 4.81066 12.957 5.48247C13.3007 6.15429 13.5044 6.88885 13.5555 7.64163V11.8918Z" fill="white"/>
<path d="M5.88881 6.00016H8.11103C8.25837 6.00016 8.39968 5.96504 8.50387 5.90253C8.60805 5.84002 8.66659 5.75523 8.66659 5.66683C8.66659 5.57842 8.60805 5.49364 8.50387 5.43113C8.39968 5.36862 8.25837 5.3335 8.11103 5.3335H5.88881C5.74147 5.3335 5.60016 5.36862 5.49597 5.43113C5.39178 5.49364 5.33325 5.57842 5.33325 5.66683C5.33325 5.75523 5.39178 5.84002 5.49597 5.90253C5.60016 5.96504 5.74147 6.00016 5.88881 6.00016Z" fill="white"/>
<path d="M10.1333 7.3335H5.86659C5.72514 7.3335 5.58948 7.40373 5.48946 7.52876C5.38944 7.65378 5.33325 7.82335 5.33325 8.00016C5.33325 8.17697 5.38944 8.34654 5.48946 8.47157C5.58948 8.59659 5.72514 8.66683 5.86659 8.66683H10.1333C10.2747 8.66683 10.4104 8.59659 10.5104 8.47157C10.6104 8.34654 10.6666 8.17697 10.6666 8.00016C10.6666 7.82335 10.6104 7.65378 10.5104 7.52876C10.4104 7.40373 10.2747 7.3335 10.1333 7.3335Z" fill="white"/>
<path d="M10.1333 9.3335H5.86659C5.72514 9.3335 5.58948 9.40373 5.48946 9.52876C5.38944 9.65378 5.33325 9.82335 5.33325 10.0002C5.33325 10.177 5.38944 10.3465 5.48946 10.4716C5.58948 10.5966 5.72514 10.6668 5.86659 10.6668H10.1333C10.2747 10.6668 10.4104 10.5966 10.5104 10.4716C10.6104 10.3465 10.6666 10.177 10.6666 10.0002C10.6666 9.82335 10.6104 9.65378 10.5104 9.52876C10.4104 9.40373 10.2747 9.3335 10.1333 9.3335Z" fill="white"/>
</svg>
