<svg width="39" height="39" viewBox="0 0 39 39" fill="none" xmlns="http://www.w3.org/2000/svg">
<g clip-path="url(#clip0_2830_16930)">
<path d="M38.6104 28.5319C38.439 28.4279 34.355 25.9762 29.25 25.9762C28.7243 25.9762 28.2026 25.997 27.6867 26.0287C28.8847 25.3783 30.0916 24.625 31.2083 23.753C36.6005 19.5429 38.8666 12.7033 38.9602 12.4144C39.0467 12.1471 38.9896 11.8534 38.8079 11.6384C38.6254 11.4249 38.3493 11.3258 38.0676 11.3599C37.8343 11.3948 32.3055 12.2637 27.2449 16.8633C25.8773 18.1067 24.6392 19.4874 23.5512 20.8437C24.0337 18.9618 24.3749 16.8509 24.3749 14.6012C24.3749 6.81982 20.3505 0.603053 20.1792 0.342773C19.8792 -0.114258 19.1207 -0.114258 18.8208 0.342773C18.6493 0.603053 14.6249 6.81982 14.6249 14.6012C14.6249 16.8509 14.9662 18.9618 15.4487 20.8438C14.3607 19.4874 13.1227 18.1067 11.755 16.8634C6.69429 12.2637 1.16551 11.3949 0.932271 11.36C0.655386 11.3258 0.375302 11.425 0.191956 11.6385C0.0102861 11.8535 -0.0468428 12.1471 0.0396123 12.4145C0.133228 12.7033 2.39934 19.5429 7.7917 23.753C8.90838 24.625 10.1153 25.3783 11.3133 26.0287C10.7974 25.9971 10.2757 25.9762 9.75 25.9762C4.64489 25.9762 0.561009 28.428 0.389622 28.5319C0.146786 28.6803 -0.000758784 28.9445 2.9351e-06 29.2286C0.000764654 29.5135 0.150747 29.7769 0.394345 29.9229C0.568017 30.0268 4.7075 32.4762 9.74993 32.4762C10.8747 32.4762 11.9831 32.3146 13.0362 32.0693C11.3126 34.0994 11.3703 36.4567 11.3757 36.5736C11.3869 36.8235 11.5122 37.0553 11.7162 37.2004C11.855 37.2996 12.0201 37.3512 12.1875 37.3512C12.2653 37.3512 12.343 37.3401 12.4192 37.3178C12.5414 37.2813 15.4487 36.395 17.6767 33.8202C18.0761 33.3587 18.3981 32.9013 18.6876 32.4523V38.1636C18.6876 38.6127 19.051 38.9762 19.5001 38.9762C19.9492 38.9762 20.3126 38.6127 20.3126 38.1636V32.4523C20.602 32.9014 20.924 33.3588 21.3235 33.8202C23.5515 36.395 26.4588 37.2813 26.5809 37.3178C26.6571 37.3401 26.7349 37.3512 26.8127 37.3512C26.9801 37.3512 27.1451 37.2996 27.284 37.2004C27.4879 37.0553 27.6133 36.8235 27.6244 36.5736C27.6298 36.4566 27.6882 34.0932 25.9579 32.0617C27.0167 32.3114 28.1285 32.4763 29.2502 32.4763C34.3553 32.4763 38.4392 30.0244 38.6105 29.9205C38.8525 29.7729 39.0002 29.5095 39.0002 29.2262C39.0002 28.9429 38.8524 28.6795 38.6104 28.5319ZM28.3382 18.0662C31.5295 15.1645 34.981 13.8529 36.8702 13.3094C35.9443 15.4692 33.8059 19.6635 30.2084 22.4723C27.2289 24.7987 23.4561 26.2928 21.2194 27.0442C22.5468 24.8463 25.1081 21.0028 28.3382 18.0662ZM8.79146 22.4723C5.20186 19.6698 3.05952 15.4724 2.13114 13.3103C4.02035 13.8538 7.47109 15.1654 10.6616 18.0663C13.8878 20.9989 16.4507 24.8448 17.7797 27.0434C15.543 26.292 11.7708 24.7979 8.79146 22.4723ZM9.74993 30.8512C6.81411 30.8512 4.15609 29.9062 2.61674 29.2214C4.14093 28.5391 6.77526 27.6012 9.74993 27.6012C12.696 27.6012 15.6295 28.2066 17.4377 28.6692C15.6802 29.5857 12.7159 30.8512 9.74993 30.8512ZM16.4483 32.7571C15.3708 34.0012 14.0854 34.7955 13.1658 35.2525C13.3887 34.3812 13.9085 33.2165 15.1121 32.3136C16.3325 31.3987 17.3211 30.7163 18.0733 30.2236C17.7345 30.9726 17.2203 31.8644 16.4483 32.7571ZM19.6427 26.5067C19.5948 26.5878 19.544 26.6726 19.4999 26.7483C19.4558 26.6726 19.405 26.5878 19.3571 26.5067C18.2064 24.2906 16.2499 19.7755 16.2499 14.6012C16.2499 9.21923 18.3756 4.52354 19.4999 2.41533C20.6242 4.52354 22.75 9.21923 22.75 14.6012C22.75 19.7755 20.7935 24.2906 19.6427 26.5067ZM22.5516 32.7571C21.7851 31.8716 21.2718 30.9789 20.9322 30.2276C21.6844 30.7195 22.6707 31.4011 23.8878 32.3136C25.0978 33.2213 25.6168 34.386 25.8381 35.2581C24.9209 34.8035 23.6371 34.0107 22.5516 32.7571ZM29.2499 30.8512C26.3229 30.8512 23.3442 29.5832 21.5724 28.6652C23.3799 28.2042 26.3046 27.6012 29.2499 27.6012C32.2199 27.6012 34.8644 28.5438 36.391 29.227C34.8676 29.9102 32.2294 30.8512 29.2499 30.8512Z" fill="#B3B3B3"/>
</g>
<defs>
<clipPath id="clip0_2830_16930">
<rect width="39" height="39" fill="white"/>
</clipPath>
</defs>
</svg>
