<svg width="20" height="20" viewBox="0 0 20 20" fill="none" xmlns="http://www.w3.org/2000/svg">
<path d="M12.923 6.52539H7.077C5.93 6.52539 5 7.44539 5 8.57939V11.4694C5 12.6044 5.93 13.5234 7.077 13.5234H12.923C14.07 13.5234 15 12.6034 15 11.4694V8.57939C15 7.44439 14.07 6.52539 12.923 6.52539ZM11.519 10.1654L8.784 11.4554C8.76727 11.4633 8.74881 11.4669 8.73034 11.4657C8.71187 11.4646 8.69398 11.4589 8.67833 11.449C8.66267 11.4391 8.64976 11.4255 8.64079 11.4093C8.63182 11.3931 8.62708 11.3749 8.627 11.3564V8.69639C8.62717 8.67765 8.63212 8.65926 8.64139 8.64297C8.65066 8.62667 8.66394 8.61302 8.67997 8.6033C8.696 8.59359 8.71424 8.58813 8.73298 8.58744C8.75171 8.58676 8.7703 8.59087 8.787 8.59939L11.521 9.96939C11.539 9.97879 11.554 9.99297 11.5644 10.0104C11.5748 10.0278 11.5803 10.0477 11.58 10.068C11.5798 10.0883 11.574 10.1081 11.5633 10.1253C11.5525 10.1425 11.5372 10.1564 11.519 10.1654Z" fill="#B3B3B3"/>
<path d="M4 2C3.46957 2 2.96086 2.21071 2.58579 2.58579C2.21071 2.96086 2 3.46957 2 4V16C2 16.5304 2.21071 17.0391 2.58579 17.4142C2.96086 17.7893 3.46957 18 4 18H16C16.5304 18 17.0391 17.7893 17.4142 17.4142C17.7893 17.0391 18 16.5304 18 16V4C18 3.46957 17.7893 2.96086 17.4142 2.58579C17.0391 2.21071 16.5304 2 16 2H4ZM4 0H16C17.0609 0 18.0783 0.421427 18.8284 1.17157C19.5786 1.92172 20 2.93913 20 4V16C20 17.0609 19.5786 18.0783 18.8284 18.8284C18.0783 19.5786 17.0609 20 16 20H4C2.93913 20 1.92172 19.5786 1.17157 18.8284C0.421427 18.0783 0 17.0609 0 16V4C0 2.93913 0.421427 1.92172 1.17157 1.17157C1.92172 0.421427 2.93913 0 4 0Z" fill="#B3B3B3"/>
</svg>
