<svg width="24" height="24" viewBox="0 0 24 24" fill="none" xmlns="http://www.w3.org/2000/svg">
<path d="M8.42939 18.0041C8.42863 17.8725 8.45386 17.742 8.50362 17.6202C8.55339 17.4983 8.62671 17.3875 8.71939 17.2941L13.3094 12.7141C13.4031 12.6211 13.4775 12.5105 13.5283 12.3887C13.579 12.2668 13.6052 12.1361 13.6052 12.0041C13.6052 11.8721 13.579 11.7414 13.5283 11.6195C13.4775 11.4977 13.4031 11.3871 13.3094 11.2941L8.71939 6.71409C8.53109 6.52579 8.4253 6.27039 8.4253 6.00409C8.4253 5.73779 8.53109 5.48239 8.71939 5.29409C8.9077 5.10579 9.16309 5 9.42939 5C9.56125 5 9.69182 5.02597 9.81364 5.07643C9.93546 5.12689 10.0462 5.20085 10.1394 5.29409L14.7194 9.88409C15.2669 10.454 15.5728 11.2137 15.5728 12.0041C15.5728 12.7944 15.2669 13.5541 14.7194 14.1241L10.1394 18.7141C10.0464 18.8078 9.93583 18.8822 9.81397 18.933C9.69211 18.9837 9.5614 19.0099 9.42939 19.0099C9.29738 19.0099 9.16668 18.9837 9.04482 18.933C8.92296 18.8822 8.81236 18.8078 8.71939 18.7141C8.62671 18.6206 8.55339 18.5098 8.50362 18.388C8.45386 18.2662 8.42863 18.1357 8.42939 18.0041Z" fill="white"/>
</svg>
