<svg width="24" height="24" viewBox="0 0 24 24" fill="none" xmlns="http://www.w3.org/2000/svg">
<g clip-path="url(#clip0_0_971)">
<mask id="path-1-inside-1_0_971" fill="white">
<path d="M23.1193 0.88238C22.7607 0.519507 22.3147 0.255235 21.8242 0.115097C21.3337 -0.0250423 20.8154 -0.0363107 20.3193 0.0823801L4.31925 3.45238C3.39783 3.57875 2.52999 3.95986 1.81346 4.55279C1.09693 5.14573 0.560167 5.92694 0.263629 6.80844C-0.0329088 7.68995 -0.0774484 8.63674 0.135026 9.54219C0.347501 10.4476 0.808551 11.2758 1.46625 11.9334L3.18425 13.6504C3.27724 13.7433 3.35098 13.8537 3.40126 13.9752C3.45153 14.0967 3.47736 14.2269 3.47725 14.3584V17.5264C3.47946 17.9718 3.582 18.411 3.77725 18.8114L3.76925 18.8184L3.79525 18.8444C4.08827 19.4335 4.56684 19.91 5.15725 20.2004L5.18325 20.2264L5.19025 20.2184C5.59062 20.4136 6.02982 20.5162 6.47525 20.5184H9.64325C9.90831 20.5182 10.1626 20.6232 10.3503 20.8104L12.0673 22.5274C12.5278 22.993 13.0759 23.3629 13.68 23.6157C14.2842 23.8685 14.9324 23.9992 15.5873 24.0004C16.133 23.9997 16.675 23.9105 17.1923 23.7364C18.0657 23.4496 18.8416 22.9244 19.4325 22.2201C20.0234 21.5158 20.4056 20.6604 20.5363 19.7504L23.9113 3.71538C24.0361 3.21502 24.0287 2.6908 23.8899 2.19414C23.7511 1.69748 23.4855 1.24545 23.1193 0.88238ZM4.60025 12.2384L2.88125 10.5214C2.48097 10.1307 2.20043 9.63402 2.07254 9.08953C1.94465 8.54504 1.97474 7.97537 2.15925 7.44738C2.33815 6.9057 2.66886 6.4268 3.11205 6.06764C3.55524 5.70848 4.09227 5.48416 4.65925 5.42138L20.5003 2.08638L5.47525 17.1134V14.3584C5.47677 13.9647 5.40022 13.5747 5.25003 13.2108C5.09983 12.8469 4.87899 12.5164 4.60025 12.2384ZM18.5713 19.4084C18.4945 19.9607 18.2653 20.4807 17.9094 20.91C17.5534 21.3393 17.0849 21.6609 16.5564 21.8387C16.0278 22.0165 15.4602 22.0435 14.9172 21.9166C14.3742 21.7897 13.8773 21.514 13.4823 21.1204L11.7623 19.4004C11.4846 19.1212 11.1544 18.8999 10.7907 18.7492C10.427 18.5985 10.037 18.5214 9.64325 18.5224H6.88825L21.9153 3.50038L18.5713 19.4084Z"/>
</mask>
<path d="M23.1193 0.88238C22.7607 0.519507 22.3147 0.255235 21.8242 0.115097C21.3337 -0.0250423 20.8154 -0.0363107 20.3193 0.0823801L4.31925 3.45238C3.39783 3.57875 2.52999 3.95986 1.81346 4.55279C1.09693 5.14573 0.560167 5.92694 0.263629 6.80844C-0.0329088 7.68995 -0.0774484 8.63674 0.135026 9.54219C0.347501 10.4476 0.808551 11.2758 1.46625 11.9334L3.18425 13.6504C3.27724 13.7433 3.35098 13.8537 3.40126 13.9752C3.45153 14.0967 3.47736 14.2269 3.47725 14.3584V17.5264C3.47946 17.9718 3.582 18.411 3.77725 18.8114L3.76925 18.8184L3.79525 18.8444C4.08827 19.4335 4.56684 19.91 5.15725 20.2004L5.18325 20.2264L5.19025 20.2184C5.59062 20.4136 6.02982 20.5162 6.47525 20.5184H9.64325C9.90831 20.5182 10.1626 20.6232 10.3503 20.8104L12.0673 22.5274C12.5278 22.993 13.0759 23.3629 13.68 23.6157C14.2842 23.8685 14.9324 23.9992 15.5873 24.0004C16.133 23.9997 16.675 23.9105 17.1923 23.7364C18.0657 23.4496 18.8416 22.9244 19.4325 22.2201C20.0234 21.5158 20.4056 20.6604 20.5363 19.7504L23.9113 3.71538C24.0361 3.21502 24.0287 2.6908 23.8899 2.19414C23.7511 1.69748 23.4855 1.24545 23.1193 0.88238ZM4.60025 12.2384L2.88125 10.5214C2.48097 10.1307 2.20043 9.63402 2.07254 9.08953C1.94465 8.54504 1.97474 7.97537 2.15925 7.44738C2.33815 6.9057 2.66886 6.4268 3.11205 6.06764C3.55524 5.70848 4.09227 5.48416 4.65925 5.42138L20.5003 2.08638L5.47525 17.1134V14.3584C5.47677 13.9647 5.40022 13.5747 5.25003 13.2108C5.09983 12.8469 4.87899 12.5164 4.60025 12.2384ZM18.5713 19.4084C18.4945 19.9607 18.2653 20.4807 17.9094 20.91C17.5534 21.3393 17.0849 21.6609 16.5564 21.8387C16.0278 22.0165 15.4602 22.0435 14.9172 21.9166C14.3742 21.7897 13.8773 21.514 13.4823 21.1204L11.7623 19.4004C11.4846 19.1212 11.1544 18.8999 10.7907 18.7492C10.427 18.5985 10.037 18.5214 9.64325 18.5224H6.88825L21.9153 3.50038L18.5713 19.4084Z" fill="white"/>
<path d="M20.3193 0.0823801L24.7161 20.9577L25.0004 20.8978L25.283 20.8302L20.3193 0.0823801ZM4.31925 3.45238L7.21783 24.5879L7.97161 24.4845L8.71612 24.3277L4.31925 3.45238ZM1.46625 11.9334L-13.6173 27.0197L-13.6143 27.0227L1.46625 11.9334ZM3.18425 13.6504L18.2669 -1.43686L18.2648 -1.43896L3.18425 13.6504ZM3.47725 14.3584L-17.8561 14.3416L-17.8561 14.35V14.3584H3.47725ZM3.47725 17.5264H-17.8561V17.5792L-17.8558 17.6321L3.47725 17.5264ZM3.77725 18.8114L17.8254 34.8663L30.103 24.1233L22.9518 9.46003L3.77725 18.8114ZM3.76925 18.8184L-10.2789 2.76346L-27.44 17.7796L-11.3154 33.9036L3.76925 18.8184ZM3.79525 18.8444L22.8964 9.34408L21.3444 6.22353L18.8799 3.75915L3.79525 18.8444ZM5.15725 20.2004L20.2419 5.11515L17.7435 2.61685L14.5731 1.05742L5.15725 20.2004ZM5.18325 20.2264L-9.90141 35.3116L6.22213 51.4345L21.2377 34.275L5.18325 20.2264ZM5.19025 20.2184L14.5416 1.04381L-0.121221 -6.10717L-10.8642 6.16973L5.19025 20.2184ZM6.47525 20.5184L6.36956 41.8514L6.42241 41.8517H6.47525V20.5184ZM9.64325 20.5184V41.8517H9.65165L9.66005 41.8517L9.64325 20.5184ZM10.3503 20.8104L25.4352 5.72543L25.4257 5.71589L25.4161 5.70637L10.3503 20.8104ZM12.0673 22.5274L27.235 7.52572L27.1937 7.48396L27.1522 7.44243L12.0673 22.5274ZM15.5873 24.0004L15.5501 45.3337L15.5819 45.3337L15.6138 45.3337L15.5873 24.0004ZM17.1923 23.7364L10.5368 3.46777L10.4604 3.49286L10.3842 3.51852L17.1923 23.7364ZM20.5363 19.7504L-0.339684 15.3565L-0.482325 16.0342L-0.580711 16.7197L20.5363 19.7504ZM23.9113 3.71538L3.21256 -1.44945L3.11679 -1.06563L3.03532 -0.678529L23.9113 3.71538ZM23.1193 0.88238L7.94364 15.8761L8.02136 15.9548L8.09989 16.0326L23.1193 0.88238ZM2.88125 10.5214L17.9574 -4.57235L17.8698 -4.65984L17.7812 -4.74631L2.88125 10.5214ZM2.15925 7.44738L22.2982 14.4854L22.3588 14.312L22.4164 14.1376L2.15925 7.44738ZM4.65925 5.42138L7.00731 26.6251L8.03874 26.5109L9.05421 26.2971L4.65925 5.42138ZM20.5003 2.08638L35.5862 17.1703L86.3218 -33.572L16.1053 -18.7893L20.5003 2.08638ZM5.47525 17.1134H-15.8581V68.6214L20.5612 32.1973L5.47525 17.1134ZM5.47525 14.3584L-15.8579 14.2763L-15.8581 14.3173V14.3584H5.47525ZM4.60025 12.2384L-10.4759 27.3321L-10.4703 27.3377L-10.4647 27.3433L4.60025 12.2384ZM18.5713 19.4084L-2.30581 15.0198L-2.45742 15.7411L-2.5589 16.471L18.5713 19.4084ZM13.4823 21.1204L-1.60269 36.2053L-1.58938 36.2186L-1.57604 36.2319L13.4823 21.1204ZM11.7623 19.4004L-3.36393 34.444L-3.34334 34.4647L-3.32269 34.4853L11.7623 19.4004ZM9.64325 18.5224V39.8557H9.67004L9.69683 39.8556L9.64325 18.5224ZM6.88825 18.5224L-8.19418 3.43491L-44.6271 39.8557H6.88825V18.5224ZM21.9153 3.50038L42.7923 7.88892L57.5424 -62.2798L6.83282 -11.5871L21.9153 3.50038ZM38.2949 -14.1114C35.3576 -17.0842 31.7033 -19.2493 27.6849 -20.3974L15.9635 20.6276C12.9261 19.7598 10.1638 18.1232 7.94364 15.8761L38.2949 -14.1114ZM27.6849 -20.3974C23.6665 -21.5455 19.42 -21.6378 15.3555 -20.6654L25.283 20.8302C22.2108 21.5652 19.0009 21.4954 15.9635 20.6276L27.6849 -20.3974ZM15.9224 -20.7929L-0.0776073 -17.4229L8.71612 24.3277L24.7161 20.9577L15.9224 -20.7929ZM1.42067 -17.6831C-3.43609 -17.0171 -8.01044 -15.0082 -11.7872 -11.8829L15.4141 20.9885C13.0704 22.928 10.2318 24.1745 7.21783 24.5879L1.42067 -17.6831ZM-11.7872 -11.8829C-15.564 -8.75759 -18.3932 -4.63989 -19.9563 0.00648434L20.4835 13.6104C19.5136 16.4938 17.7579 19.049 15.4141 20.9885L-11.7872 -11.8829ZM-19.9563 0.00648434C-21.5193 4.65285 -21.7541 9.64333 -20.6341 14.4159L20.9042 4.66847C21.5992 7.63015 21.4535 10.727 20.4835 13.6104L-19.9563 0.00648434ZM-20.6341 14.4159C-19.5142 19.1885 -17.084 23.5536 -13.6173 27.0197L16.5498 -3.15295C18.7011 -1.00204 20.2092 1.70678 20.9042 4.66847L-20.6341 14.4159ZM-13.6143 27.0227L-11.8963 28.7397L18.2648 -1.43896L16.5468 -3.15596L-13.6143 27.0227ZM-11.8984 28.7376C-13.7891 26.8475 -15.2885 24.6031 -16.3108 22.1329L23.1133 5.81754C21.9904 3.10436 20.3436 0.639194 18.2669 -1.43686L-11.8984 28.7376ZM-16.3108 22.1329C-17.333 19.6626 -17.8582 17.015 -17.8561 14.3416L24.8106 14.3751C24.8129 11.4388 24.2361 8.53074 23.1133 5.81754L-16.3108 22.1329ZM-17.8561 14.3584V17.5264H24.8106V14.3584H-17.8561ZM-17.8558 17.6321C-17.8377 21.2824 -16.9974 24.8817 -15.3973 28.1627L22.9518 9.46003C24.1614 11.9403 24.7967 14.6612 24.8103 17.4207L-17.8558 17.6321ZM-10.2709 2.75646L-10.2789 2.76346L17.8174 34.8733L17.8254 34.8663L-10.2709 2.75646ZM-11.3154 33.9036L-11.2894 33.9296L18.8799 3.75915L18.8539 3.73315L-11.3154 33.9036ZM-15.3059 28.3447C-12.9293 33.1231 -9.04756 36.9878 -4.25861 39.3433L14.5731 1.05742C18.1812 2.83215 21.1058 5.74385 22.8964 9.34408L-15.3059 28.3447ZM-9.92741 35.2856L-9.90141 35.3116L20.2679 5.14115L20.2419 5.11515L-9.92741 35.2856ZM21.2377 34.275L21.2447 34.267L-10.8642 6.16973L-10.8712 6.17773L21.2377 34.275ZM-4.16108 39.3929C-0.880083 40.9931 2.71926 41.8334 6.36956 41.8514L6.58095 -0.814701C9.34039 -0.80103 12.0613 -0.165805 14.5416 1.04381L-4.16108 39.3929ZM6.47525 41.8517H9.64325V-0.814963H6.47525V41.8517ZM9.66005 41.8517C4.2707 41.8559 -0.899917 39.7204 -4.71562 35.9144L25.4161 5.70637C21.2251 1.52594 15.5459 -0.819617 9.62646 -0.814957L9.66005 41.8517ZM-4.73469 35.8953L-3.01769 37.6123L27.1522 7.44243L25.4352 5.72543L-4.73469 35.8953ZM-3.10053 37.529C-0.660459 39.9961 2.24376 41.9559 5.44475 43.2954L21.9153 3.93596C23.908 4.76985 25.716 5.98988 27.235 7.52572L-3.10053 37.529ZM5.44475 43.2954C8.64573 44.6349 12.0802 45.3276 15.5501 45.3337L15.6244 2.66707C17.7845 2.67083 19.9226 3.10208 21.9153 3.93596L5.44475 43.2954ZM15.6138 45.3337C18.4655 45.3301 21.2977 44.8643 24.0003 43.9542L10.3842 3.51852C12.0523 2.95679 13.8005 2.66924 15.5607 2.66705L15.6138 45.3337ZM23.8477 44.005C28.4985 42.4778 32.6299 39.6815 35.7761 35.9313L3.08889 8.50884C5.0533 6.1673 7.63294 4.42129 10.5368 3.46777L23.8477 44.005ZM35.7761 35.9313C38.9222 32.1812 40.9578 27.6265 41.6532 22.7811L-0.580711 16.7197C-0.146508 13.6943 1.12448 10.8504 3.08889 8.50884L35.7761 35.9313ZM41.4122 24.1443L44.7872 8.10929L3.03532 -0.678529L-0.339684 15.3565L41.4122 24.1443ZM44.6099 8.88021C45.6301 4.79185 45.57 0.508516 44.4355 -3.54963L3.34433 7.93791C2.48752 4.87308 2.44212 1.63818 3.21256 -1.44945L44.6099 8.88021ZM44.4355 -3.54963C43.301 -7.60776 41.1311 -11.3013 38.1386 -14.2679L8.09989 16.0326C5.83992 13.7922 4.20114 11.0027 3.34433 7.93791L44.4355 -3.54963ZM19.6764 -2.85535L17.9574 -4.57235L-12.1949 25.6151L-10.4759 27.3321L19.6764 -2.85535ZM17.7812 -4.74631C20.2855 -2.30238 22.0406 0.805177 22.8407 4.21164L-18.6956 13.9674C-17.6398 18.4629 -15.3235 22.5639 -12.0187 25.7891L17.7812 -4.74631ZM22.8407 4.21164C23.6408 7.6181 23.4526 11.1821 22.2982 14.4854L-17.9797 0.409391C-19.5031 4.76863 -19.7515 9.47198 -18.6956 13.9674L22.8407 4.21164ZM22.4164 14.1376C21.3138 17.4763 19.2754 20.428 16.5437 22.6418L-10.3196 -10.5065C-13.9377 -7.5744 -16.6375 -3.66486 -18.0979 0.757197L22.4164 14.1376ZM16.5437 22.6418C13.812 24.8555 10.502 26.2381 7.00731 26.6251L2.3112 -15.7823C-2.31747 -15.2698 -6.70155 -13.4386 -10.3196 -10.5065L16.5437 22.6418ZM9.05421 26.2971L24.8952 22.9621L16.1053 -18.7893L0.264299 -15.4543L9.05421 26.2971ZM5.41431 -12.9976L-9.61069 2.02943L20.5612 32.1973L35.5862 17.1703L5.41431 -12.9976ZM26.8086 17.1134V14.3584H-15.8581V17.1134H26.8086ZM26.8084 14.4404C26.8208 11.2267 26.1958 8.0424 24.9697 5.07173L-14.4697 21.3498C-15.3954 19.1069 -15.8673 16.7027 -15.8579 14.2763L26.8084 14.4404ZM24.9697 5.07173C23.7436 2.10106 21.9407 -0.597039 19.6652 -2.8665L-10.4647 27.3433C-12.1827 25.6298 -13.544 23.5927 -14.4697 21.3498L24.9697 5.07173ZM-2.5589 16.471C-2.08969 13.0957 -0.688972 9.91788 1.48605 7.29435L34.3327 34.5257C37.2195 31.0435 39.0786 26.8257 39.7014 22.3457L-2.5589 16.471ZM1.48605 7.29435C3.66103 4.67087 6.52421 2.7055 9.7542 1.6189L23.3586 42.0585C27.6456 40.6163 31.4459 38.0078 34.3327 34.5257L1.48605 7.29435ZM9.7542 1.6189C12.9842 0.532294 16.4531 0.367469 19.7715 1.14291L10.0629 42.6903C14.4673 43.7195 19.0715 43.5008 23.3586 42.0585L9.7542 1.6189ZM19.7715 1.14291C23.0899 1.91835 26.1266 3.60336 28.5405 6.00882L-1.57604 36.2319C1.62795 39.4246 5.6584 41.6611 10.0629 42.6903L19.7715 1.14291ZM28.5672 6.03543L26.8472 4.31543L-3.32269 34.4853L-1.60269 36.2053L28.5672 6.03543ZM26.8884 4.35678C24.622 2.07787 21.9261 0.270986 18.9568 -0.959328L2.62453 38.4577C0.382681 37.5288 -1.65272 36.1646 -3.36393 34.444L26.8884 4.35678ZM18.9568 -0.959328C15.9875 -2.18964 12.8038 -2.81897 9.58968 -2.8109L9.69683 39.8556C7.27016 39.8617 4.86638 39.3866 2.62453 38.4577L18.9568 -0.959328ZM9.64325 -2.81096H6.88825V39.8557H9.64325V-2.81096ZM21.9707 33.6098L36.9977 18.5878L6.83282 -11.5871L-8.19418 3.43491L21.9707 33.6098ZM1.03819 -0.888166L-2.30581 15.0198L39.4483 23.7969L42.7923 7.88892L1.03819 -0.888166Z" fill="white" mask="url(#path-1-inside-1_0_971)"/>
</g>
<defs>
<clipPath id="clip0_0_971">
<rect width="24" height="24" fill="white"/>
</clipPath>
</defs>
</svg>
