<svg width="32" height="32" viewBox="0 0 32 32" fill="none" xmlns="http://www.w3.org/2000/svg">
<path d="M20.7777 16.1601L30.6667 22.7734V9.26758L20.7777 16.1601Z" fill="#32B66C"/>
<path d="M1.33337 9.26758V22.7734L11.2224 16.1601L1.33337 9.26758Z" fill="#32B66C"/>
<path d="M28.8338 5.33398H3.16701C2.25218 5.33398 1.52617 6.05543 1.38867 6.9844L16.0004 17.1681L30.6121 6.9844C30.4746 6.05543 29.7486 5.33398 28.8338 5.33398Z" fill="#DAA930"/>
<path d="M19.0993 17.332L16.5052 19.1395C16.3512 19.2462 16.177 19.2985 16.001 19.2985C15.825 19.2985 15.6508 19.2462 15.4968 19.1395L12.9027 17.3301L1.39294 25.0314C1.53411 25.9526 2.25645 26.6682 3.16762 26.6682H28.8344C29.7456 26.6682 30.4679 25.9526 30.6091 25.0314L19.0993 17.332Z" fill="#32B66C"/>
</svg>
