<svg width="24" height="24" viewBox="0 0 24 24" fill="none" xmlns="http://www.w3.org/2000/svg">
<g clip-path="url(#clip0_0_472)">
<path d="M23.121 9.0691L15.536 1.48311C14.5972 0.547099 13.3257 0.0214844 12 0.0214844C10.6743 0.0214844 9.40275 0.547099 8.46399 1.48311L0.878996 9.0691C0.599422 9.34689 0.377766 9.6774 0.226879 10.0415C0.0759919 10.4056 -0.00112566 10.796 -3.17932e-06 11.1901V21.0071C-3.17932e-06 21.8027 0.316067 22.5658 0.878676 23.1284C1.44128 23.691 2.20435 24.0071 2.99999 24.0071H21C21.7956 24.0071 22.5587 23.691 23.1213 23.1284C23.6839 22.5658 24 21.8027 24 21.0071V11.1901C24.0011 10.796 23.924 10.4056 23.7731 10.0415C23.6222 9.6774 23.4006 9.34689 23.121 9.0691ZM15 22.0071H8.99999V18.0731C8.99999 17.2774 9.31606 16.5144 9.87867 15.9518C10.4413 15.3892 11.2043 15.0731 12 15.0731C12.7956 15.0731 13.5587 15.3892 14.1213 15.9518C14.6839 16.5144 15 17.2774 15 18.0731V22.0071ZM22 21.0071C22 21.2723 21.8946 21.5267 21.7071 21.7142C21.5196 21.9017 21.2652 22.0071 21 22.0071H17V18.0731C17 16.747 16.4732 15.4752 15.5355 14.5376C14.5978 13.5999 13.3261 13.0731 12 13.0731C10.6739 13.0731 9.40214 13.5999 8.46446 14.5376C7.52678 15.4752 6.99999 16.747 6.99999 18.0731V22.0071H2.99999C2.73478 22.0071 2.48042 21.9017 2.29289 21.7142C2.10535 21.5267 2 21.2723 2 21.0071V11.1901C2.00092 10.9251 2.10618 10.6711 2.293 10.4831L9.87799 2.90011C10.4417 2.33904 11.2047 2.02405 12 2.02405C12.7953 2.02405 13.5583 2.33904 14.122 2.90011L21.707 10.4861C21.8931 10.6733 21.9983 10.9261 22 11.1901V21.0071Z" fill="white"/>
</g>
<defs>
<clipPath id="clip0_0_472">
<rect width="24" height="24" fill="white"/>
</clipPath>
</defs>
</svg>
