<svg width="20" height="20" viewBox="0 0 20 20" fill="none" xmlns="http://www.w3.org/2000/svg">
<path d="M19 5.55556V14.4444C19 15.6527 18.52 16.8114 17.6657 17.6657C16.8114 18.52 15.6527 19 14.4444 19H5.55556C4.34735 19 3.18862 18.52 2.33429 17.6657C1.47996 16.8114 1 15.6527 1 14.4444V5.55556C1 4.34735 1.47996 3.18862 2.33429 2.33429C3.18862 1.47996 4.34735 1 5.55556 1H14.4444C15.6527 1 16.8114 1.47996 17.6657 2.33429C18.52 3.18862 19 4.34735 19 5.55556Z" stroke="#B3B3B3" stroke-width="2" stroke-linecap="round" stroke-linejoin="round"/>
<path d="M8.4 10C7.92533 10 7.46131 10.1466 7.06663 10.4213C6.67195 10.696 6.36434 11.0865 6.18269 11.5433C6.00104 12.0001 5.95351 12.5028 6.04612 12.9877C6.13872 13.4727 6.3673 13.9181 6.70294 14.2678C7.03859 14.6174 7.46623 14.8555 7.93178 14.952C8.39734 15.0484 8.8799 14.9989 9.31844 14.8097C9.75698 14.6205 10.1318 14.3 10.3955 13.8889C10.6592 13.4778 10.8 12.9945 10.8 12.5V5C11.0664 5.83333 12.08 7.5 14 7.5" stroke="#B3B3B3" stroke-width="2" stroke-linecap="round" stroke-linejoin="round"/>
</svg>
