<svg width="24" height="24" viewBox="0 0 24 24" fill="none" xmlns="http://www.w3.org/2000/svg">
<mask id="path-1-inside-1_0_1005" fill="white">
<path d="M22 11.3831C21.8795 9.43508 21.191 7.56486 20.0194 6.00302C18.8478 4.44118 17.2444 3.25599 15.4067 2.59357C13.5691 1.93115 11.5776 1.82046 9.67771 2.27514C7.77785 2.72982 6.0527 3.73 4.71494 5.15236C3.37718 6.57473 2.48529 8.35711 2.14922 10.2798C1.81315 12.2024 2.0476 14.1813 2.82367 15.9725C3.59973 17.7636 4.88348 19.2887 6.51665 20.3598C8.14982 21.4308 10.061 22.001 12.0146 22H17.8335C18.9382 21.9989 19.9973 21.56 20.7785 20.7796C21.5596 19.9992 21.9989 18.9411 22 17.8375V11.3831ZM20.3334 17.8375C20.3334 18.4999 20.07 19.1351 19.6012 19.6035C19.1324 20.0719 18.4965 20.335 17.8335 20.335H12.0146C10.8388 20.3345 9.67628 20.0863 8.60288 19.6068C7.52947 19.1273 6.56929 18.4271 5.78493 17.5519C4.99678 16.6772 4.40494 15.6442 4.04909 14.5223C3.69324 13.4004 3.58161 12.2154 3.72169 11.0468C3.94288 9.20358 4.7718 7.48634 6.07778 6.16577C7.38377 4.84521 9.09253 3.99643 10.9347 3.75325C11.294 3.70825 11.6558 3.68545 12.018 3.68498C13.9599 3.67969 15.8418 4.35756 17.3336 5.59973C18.2048 6.32313 18.9199 7.21574 19.4356 8.22347C19.9512 9.23119 20.2567 10.333 20.3334 11.4622V17.8375Z"/>
</mask>
<path d="M22 11.3831C21.8795 9.43508 21.191 7.56486 20.0194 6.00302C18.8478 4.44118 17.2444 3.25599 15.4067 2.59357C13.5691 1.93115 11.5776 1.82046 9.67771 2.27514C7.77785 2.72982 6.0527 3.73 4.71494 5.15236C3.37718 6.57473 2.48529 8.35711 2.14922 10.2798C1.81315 12.2024 2.0476 14.1813 2.82367 15.9725C3.59973 17.7636 4.88348 19.2887 6.51665 20.3598C8.14982 21.4308 10.061 22.001 12.0146 22H17.8335C18.9382 21.9989 19.9973 21.56 20.7785 20.7796C21.5596 19.9992 21.9989 18.9411 22 17.8375V11.3831ZM20.3334 17.8375C20.3334 18.4999 20.07 19.1351 19.6012 19.6035C19.1324 20.0719 18.4965 20.335 17.8335 20.335H12.0146C10.8388 20.3345 9.67628 20.0863 8.60288 19.6068C7.52947 19.1273 6.56929 18.4271 5.78493 17.5519C4.99678 16.6772 4.40494 15.6442 4.04909 14.5223C3.69324 13.4004 3.58161 12.2154 3.72169 11.0468C3.94288 9.20358 4.7718 7.48634 6.07778 6.16577C7.38377 4.84521 9.09253 3.99643 10.9347 3.75325C11.294 3.70825 11.6558 3.68545 12.018 3.68498C13.9599 3.67969 15.8418 4.35756 17.3336 5.59973C18.2048 6.32313 18.9199 7.21574 19.4356 8.22347C19.9512 9.23119 20.2567 10.333 20.3334 11.4622V17.8375Z" fill="white"/>
<path d="M22 11.3831H43.3333V10.7239L43.2926 10.0658L22 11.3831ZM12.0146 22V0.666662L12.0038 0.666667L12.0146 22ZM17.8335 22V43.3333H17.8442L17.8548 43.3333L17.8335 22ZM22 17.8375L43.3333 17.8588L43.3333 17.8482V17.8375H22ZM20.3334 17.8375H41.6667H20.3334ZM17.8335 20.335V41.6683V20.335ZM12.0146 20.335L12.005 41.6683H12.0146V20.335ZM5.78493 17.5519L21.6715 3.3137L21.6527 3.2927L21.6338 3.27174L5.78493 17.5519ZM3.72169 11.0468L-17.4597 8.50501L-17.46 8.50771L3.72169 11.0468ZM10.9347 3.75325L8.28412 -17.4148L8.21339 -17.4059L8.14271 -17.3966L10.9347 3.75325ZM12.018 3.68498L12.0457 25.0183L12.0609 25.0183L12.0761 25.0182L12.018 3.68498ZM17.3336 5.59973L3.68252 21.9936L3.69402 22.0032L3.70554 22.0128L17.3336 5.59973ZM20.3334 11.4622H41.6667V10.7381L41.6177 10.0157L20.3334 11.4622ZM43.2926 10.0658C42.9147 3.95762 40.756 -1.90461 37.0851 -6.79835L2.95378 18.8044C1.62602 17.0343 0.844229 14.9125 0.707374 12.7004L43.2926 10.0658ZM37.0851 -6.79835C33.4143 -11.6919 28.3926 -15.4024 22.6411 -17.4757L8.17237 22.6628C6.09614 21.9144 4.28138 20.5742 2.95378 18.8044L37.0851 -6.79835ZM22.6411 -17.4757C16.8897 -19.5489 10.6577 -19.8952 4.71237 -18.4723L14.6431 23.0226C12.4974 23.5361 10.2484 23.4112 8.17237 22.6628L22.6411 -17.4757ZM4.71237 -18.4723C-1.23308 -17.0494 -6.63463 -13.9188 -10.8251 -9.46332L20.255 19.768C18.74 21.3788 16.7888 22.5091 14.6431 23.0226L4.71237 -18.4723ZM-10.8251 -9.46332C-15.0158 -5.00762 -17.8118 0.578257 -18.8655 6.60655L23.1639 13.953C22.7824 16.136 21.7701 18.1571 20.255 19.768L-10.8251 -9.46332ZM-18.8655 6.60655C-19.9192 12.6349 -19.1839 18.8392 -16.7513 24.4538L22.3986 7.49108C23.2791 9.52337 23.5455 11.7699 23.1639 13.953L-18.8655 6.60655ZM-16.7513 24.4538C-14.3187 30.0682 -10.2961 34.8455 -5.18255 38.199L18.2159 2.52049C20.0631 3.73193 21.5181 5.459 22.3986 7.49108L-16.7513 24.4538ZM-5.18255 38.199C-0.0691822 41.5524 5.91261 43.3364 12.0255 43.3333L12.0038 0.666667C14.2094 0.665544 16.3688 1.30919 18.2159 2.52049L-5.18255 38.199ZM12.0146 43.3333H17.8335V0.666664H12.0146V43.3333ZM17.8548 43.3333C24.6035 43.3266 31.078 40.6454 35.8562 35.8717L5.70069 5.68748C8.91669 2.47455 13.2729 0.671203 17.8122 0.666675L17.8548 43.3333ZM35.8562 35.8717C40.6351 31.0974 43.3266 24.6195 43.3333 17.8588L0.666677 17.8162C0.671228 13.2627 2.48401 8.9011 5.70069 5.68748L35.8562 35.8717ZM43.3333 17.8375V11.3831H0.666667V17.8375H43.3333ZM-0.999922 17.8375C-0.999922 12.8354 0.989247 8.04221 4.52346 4.51137L34.679 34.6956C39.1508 30.228 41.6667 24.1644 41.6667 17.8375H-0.999922ZM4.52346 4.51137C8.05698 0.981208 12.8452 -0.998337 17.8335 -0.998337V41.6683C24.1479 41.6683 30.2078 39.1625 34.679 34.6956L4.52346 4.51137ZM17.8335 -0.998337H12.0146V41.6683H17.8335V-0.998337ZM12.0243 -0.998335C13.8434 -0.997513 15.6425 -0.613684 17.3045 0.128787L-0.0987074 39.0848C3.71008 40.7864 7.83422 41.6664 12.005 41.6683L12.0243 -0.998335ZM17.3045 0.128787C18.9665 0.871282 20.4548 1.9561 21.6715 3.3137L-10.1017 31.7902C-7.3162 34.8981 -3.90755 37.3833 -0.0987074 39.0848L17.3045 0.128787ZM21.6338 3.27174C22.8816 4.65662 23.8198 6.29335 24.3841 8.07266L-16.2859 20.9719C-15.0099 24.9951 -12.8881 28.6978 -10.0639 31.8322L21.6338 3.27174ZM24.3841 8.07266C24.9485 9.85201 25.1256 11.7319 24.9034 13.5859L-17.46 8.50771C-17.9624 12.6988 -17.562 16.9487 -16.2859 20.9719L24.3841 8.07266ZM24.9031 13.5886C24.5593 16.4534 23.2712 19.1191 21.2463 21.1667L-9.09068 -8.83519C-13.7276 -4.14645 -16.6735 1.95379 -17.4597 8.50501L24.9031 13.5886ZM21.2463 21.1667C19.2216 23.214 16.5756 24.527 13.7267 24.9031L8.14271 -17.3966C1.60944 -16.5341 -4.45407 -13.5236 -9.09068 -8.83519L21.2463 21.1667ZM13.5853 24.9213C13.0745 24.9852 12.5604 25.0176 12.0457 25.0183L11.9902 -17.6483C10.7512 -17.6467 9.51352 -17.5687 8.28412 -17.4148L13.5853 24.9213ZM12.0761 25.0182C9.0124 25.0266 6.04075 23.9573 3.68252 21.9936L30.9846 -10.7942C25.6428 -15.2422 18.9075 -17.6672 11.9598 -17.6483L12.0761 25.0182ZM3.70554 22.0128C2.35495 20.8914 1.24506 19.5065 0.444199 17.9415L38.4269 -1.49452C36.5947 -5.07504 34.0546 -8.24511 30.9616 -10.8133L3.70554 22.0128ZM0.444199 17.9415C-0.356684 16.3763 -0.83153 14.6641 -0.950829 12.9087L41.6177 10.0157C41.3449 6.00196 40.2591 2.08605 38.4269 -1.49452L0.444199 17.9415ZM-0.999922 11.4622V17.8375H41.6667V11.4622H-0.999922Z" fill="white" mask="url(#path-1-inside-1_0_1005)"/>
<path d="M8.83333 9H12.1667C12.3877 9 12.5996 8.94732 12.7559 8.85355C12.9122 8.75979 13 8.63261 13 8.5C13 8.36739 12.9122 8.24021 12.7559 8.14645C12.5996 8.05268 12.3877 8 12.1667 8H8.83333C8.61232 8 8.40036 8.05268 8.24408 8.14645C8.0878 8.24021 8 8.36739 8 8.5C8 8.63261 8.0878 8.75979 8.24408 8.85355C8.40036 8.94732 8.61232 9 8.83333 9Z" fill="white"/>
<path d="M15.2 11H8.8C8.58783 11 8.38434 11.1054 8.23431 11.2929C8.08429 11.4804 8 11.7348 8 12C8 12.2652 8.08429 12.5196 8.23431 12.7071C8.38434 12.8946 8.58783 13 8.8 13H15.2C15.4122 13 15.6157 12.8946 15.7657 12.7071C15.9157 12.5196 16 12.2652 16 12C16 11.7348 15.9157 11.4804 15.7657 11.2929C15.6157 11.1054 15.4122 11 15.2 11Z" fill="white"/>
<path d="M15.2 14H8.8C8.58783 14 8.38434 14.1054 8.23431 14.2929C8.08429 14.4804 8 14.7348 8 15C8 15.2652 8.08429 15.5196 8.23431 15.7071C8.38434 15.8946 8.58783 16 8.8 16H15.2C15.4122 16 15.6157 15.8946 15.7657 15.7071C15.9157 15.5196 16 15.2652 16 15C16 14.7348 15.9157 14.4804 15.7657 14.2929C15.6157 14.1054 15.4122 14 15.2 14Z" fill="white"/>
</svg>
