<svg width="24" height="24" viewBox="0 0 24 24" fill="none" xmlns="http://www.w3.org/2000/svg">
<path fill-rule="evenodd" clip-rule="evenodd" d="M14.2324 2.43899C12.0746 1.93516 9.80979 2.17608 7.80625 3.12256C5.80271 4.06905 4.17825 5.66544 3.197 7.65218C2.21574 9.63892 1.9354 11.8992 2.40154 14.0654C2.86768 16.2317 4.0529 18.1766 5.76449 19.5839C7.47609 20.9912 9.61339 21.7781 11.8289 21.8167C14.0444 21.8553 16.2079 21.1433 17.9674 19.7966C18.4459 19.4304 19.1306 19.5214 19.4968 19.9998C19.863 20.4782 19.772 21.1629 19.2935 21.5291C17.1429 23.1752 14.4987 24.0454 11.7909 23.9982C9.08303 23.951 6.47077 22.9892 4.37882 21.2692C2.28688 19.5492 0.838276 17.1721 0.268545 14.5244C-0.301186 11.8768 0.0414609 9.11423 1.24077 6.68599C2.44009 4.25775 4.42553 2.30661 6.8743 1.1498C9.32307 -0.0070164 12.0912 -0.301468 14.7285 0.314317C17.3658 0.930102 19.7173 2.41991 21.4006 4.54151C23.0839 6.66312 24 9.29174 24 12C24 13.9347 23.5175 15.4124 22.5957 16.3702C21.6512 17.3515 20.4024 17.6237 19.2595 17.4408C18.1036 17.2559 16.9214 16.5653 16.1413 15.55C15.141 16.7159 13.6567 17.4545 12 17.4545C8.98755 17.4545 6.54547 15.0125 6.54547 12C6.54547 8.98755 8.98755 6.54546 12 6.54546C15.0125 6.54546 17.4546 8.98755 17.4546 12C17.4546 12.2355 17.4396 12.4674 17.4107 12.695L17.4437 12.6998C17.2763 13.871 18.3274 15.0821 19.6042 15.2864C20.1659 15.3763 20.6558 15.2394 21.0238 14.8571C21.4134 14.4523 21.8161 13.6154 21.8183 12.0132C21.8182 12.0088 21.8182 12.0044 21.8182 12C21.8182 9.78415 21.0686 7.63346 19.6914 5.8976C18.3141 4.16175 16.3902 2.94281 14.2324 2.43899ZM12 15.2727C13.8075 15.2727 15.2727 13.8075 15.2727 12C15.2727 10.1925 13.8075 8.72728 12 8.72728C10.1925 8.72728 8.72728 10.1925 8.72728 12C8.72728 13.8075 10.1925 15.2727 12 15.2727Z" fill="white"/>
</svg>
