<svg width="20" height="20" viewBox="0 0 20 20" fill="none" xmlns="http://www.w3.org/2000/svg">
<path d="M9.99998 11.6663C10.9205 11.6663 11.6666 10.9201 11.6666 9.99967C11.6666 9.0792 10.9205 8.33301 9.99998 8.33301C9.07951 8.33301 8.33331 9.0792 8.33331 9.99967C8.33331 10.9201 9.07951 11.6663 9.99998 11.6663Z" stroke="#DAA930" stroke-width="1.2" stroke-linecap="round" stroke-linejoin="round"/>
<path d="M13.5332 6.46673C13.998 6.9311 14.3668 7.48254 14.6185 8.08953C14.8701 8.69652 14.9996 9.34715 14.9996 10.0042C14.9996 10.6613 14.8701 11.3119 14.6185 11.9189C14.3668 12.5259 13.998 13.0774 13.5332 13.5417M6.46649 13.5334C6.00161 13.069 5.63282 12.5176 5.3812 11.9106C5.12957 11.3036 5.00006 10.653 5.00006 9.9959C5.00006 9.33882 5.12957 8.68819 5.3812 8.0812C5.63282 7.47421 6.00161 6.92276 6.46649 6.4584M15.8915 4.1084C17.4538 5.67113 18.3314 7.79036 18.3314 10.0001C18.3314 12.2098 17.4538 14.329 15.8915 15.8917M4.10816 15.8917C2.5459 14.329 1.66827 12.2098 1.66827 10.0001C1.66827 7.79036 2.5459 5.67113 4.10816 4.1084" stroke="#DAA930" stroke-width="1.2" stroke-linecap="round" stroke-linejoin="round"/>
</svg>
