<svg width="12" height="12" viewBox="0 0 12 12" fill="none" xmlns="http://www.w3.org/2000/svg">
<g clip-path="url(#clip0_0_205)">
<mask id="path-1-inside-1_0_205" fill="white">
<path d="M6 10C7.0605 9.99881 8.07722 9.577 8.82711 8.82711C9.577 8.07722 9.99881 7.0605 10 6V4C10 2.93913 9.57857 1.92172 8.82843 1.17157C8.07828 0.421427 7.06087 0 6 0C4.93913 0 3.92172 0.421427 3.17157 1.17157C2.42143 1.92172 2 2.93913 2 4V6C2.00119 7.0605 2.423 8.07722 3.17289 8.82711C3.92278 9.577 4.9395 9.99881 6 10ZM6 1C6.70828 1.00131 7.39329 1.25293 7.93402 1.7104C8.47474 2.16786 8.83637 2.80173 8.955 3.5H7.5C7.36739 3.5 7.24021 3.55268 7.14645 3.64645C7.05268 3.74021 7 3.86739 7 4C7 4.13261 7.05268 4.25979 7.14645 4.35355C7.24021 4.44732 7.36739 4.5 7.5 4.5H9V5.5H7.5C7.36739 5.5 7.24021 5.55268 7.14645 5.64645C7.05268 5.74021 7 5.86739 7 6C7 6.13261 7.05268 6.25979 7.14645 6.35355C7.24021 6.44732 7.36739 6.5 7.5 6.5H8.955C8.83748 7.19875 8.47616 7.83324 7.93518 8.29084C7.39419 8.74843 6.70856 8.99952 6 8.99952C5.29144 8.99952 4.60581 8.74843 4.06482 8.29084C3.52384 7.83324 3.16252 7.19875 3.045 6.5H4.5C4.63261 6.5 4.75979 6.44732 4.85355 6.35355C4.94732 6.25979 5 6.13261 5 6C5 5.86739 4.94732 5.74021 4.85355 5.64645C4.75979 5.55268 4.63261 5.5 4.5 5.5H3V4.5H4.5C4.63261 4.5 4.75979 4.44732 4.85355 4.35355C4.94732 4.25979 5 4.13261 5 4C5 3.86739 4.94732 3.74021 4.85355 3.64645C4.75979 3.55268 4.63261 3.5 4.5 3.5H3.045C3.16363 2.80173 3.52526 2.16786 4.06598 1.7104C4.60671 1.25293 5.29172 1.00131 6 1Z"/>
</mask>
<path d="M6 10C7.0605 9.99881 8.07722 9.577 8.82711 8.82711C9.577 8.07722 9.99881 7.0605 10 6V4C10 2.93913 9.57857 1.92172 8.82843 1.17157C8.07828 0.421427 7.06087 0 6 0C4.93913 0 3.92172 0.421427 3.17157 1.17157C2.42143 1.92172 2 2.93913 2 4V6C2.00119 7.0605 2.423 8.07722 3.17289 8.82711C3.92278 9.577 4.9395 9.99881 6 10ZM6 1C6.70828 1.00131 7.39329 1.25293 7.93402 1.7104C8.47474 2.16786 8.83637 2.80173 8.955 3.5H7.5C7.36739 3.5 7.24021 3.55268 7.14645 3.64645C7.05268 3.74021 7 3.86739 7 4C7 4.13261 7.05268 4.25979 7.14645 4.35355C7.24021 4.44732 7.36739 4.5 7.5 4.5H9V5.5H7.5C7.36739 5.5 7.24021 5.55268 7.14645 5.64645C7.05268 5.74021 7 5.86739 7 6C7 6.13261 7.05268 6.25979 7.14645 6.35355C7.24021 6.44732 7.36739 6.5 7.5 6.5H8.955C8.83748 7.19875 8.47616 7.83324 7.93518 8.29084C7.39419 8.74843 6.70856 8.99952 6 8.99952C5.29144 8.99952 4.60581 8.74843 4.06482 8.29084C3.52384 7.83324 3.16252 7.19875 3.045 6.5H4.5C4.63261 6.5 4.75979 6.44732 4.85355 6.35355C4.94732 6.25979 5 6.13261 5 6C5 5.86739 4.94732 5.74021 4.85355 5.64645C4.75979 5.55268 4.63261 5.5 4.5 5.5H3V4.5H4.5C4.63261 4.5 4.75979 4.44732 4.85355 4.35355C4.94732 4.25979 5 4.13261 5 4C5 3.86739 4.94732 3.74021 4.85355 3.64645C4.75979 3.55268 4.63261 3.5 4.5 3.5H3.045C3.16363 2.80173 3.52526 2.16786 4.06598 1.7104C4.60671 1.25293 5.29172 1.00131 6 1Z" fill="#DAA930"/>
<path d="M10 6L11.2 6.00135V6H10ZM10 4H11.2H10ZM6 0V-1.2V0ZM2 4H0.8H2ZM2 6H0.799999L0.800001 6.00135L2 6ZM8.955 3.5V4.7H10.3761L10.138 3.299L8.955 3.5ZM9 4.5H10.2V3.3H9V4.5ZM9 5.5V6.7H10.2V5.5H9ZM8.955 6.5L10.1384 6.69902L10.3737 5.3H8.955V6.5ZM3.045 6.5V5.3H1.62633L1.86162 6.69902L3.045 6.5ZM3 5.5H1.8V6.7H3V5.5ZM3 4.5V3.3H1.8V4.5H3ZM3.045 3.5L1.86195 3.299L1.62393 4.7H3.045V3.5ZM6.00135 11.2C7.37964 11.1985 8.70104 10.6502 9.67564 9.67564L7.97858 7.97858C7.45341 8.50376 6.74136 8.79917 5.99865 8.8L6.00135 11.2ZM9.67564 9.67564C10.6502 8.70104 11.1985 7.37964 11.2 6.00135L8.8 5.99865C8.79917 6.74136 8.50376 7.45341 7.97858 7.97858L9.67564 9.67564ZM11.2 6V4H8.8V6H11.2ZM11.2 4C11.2 2.62087 10.6521 1.29823 9.67696 0.323045L7.9799 2.0201C8.505 2.5452 8.8 3.25739 8.8 4H11.2ZM9.67696 0.323045C8.70177 -0.652144 7.37913 -1.2 6 -1.2V1.2C6.74261 1.2 7.4548 1.495 7.9799 2.0201L9.67696 0.323045ZM6 -1.2C4.62087 -1.2 3.29823 -0.652144 2.32304 0.323045L4.0201 2.0201C4.5452 1.495 5.25739 1.2 6 1.2V-1.2ZM2.32304 0.323045C1.34786 1.29823 0.8 2.62087 0.8 4H3.2C3.2 3.25739 3.495 2.5452 4.0201 2.0201L2.32304 0.323045ZM0.8 4V6H3.2V4H0.8ZM0.800001 6.00135C0.801549 7.37964 1.34976 8.70104 2.32436 9.67564L4.02142 7.97858C3.49624 7.45341 3.20083 6.74136 3.2 5.99865L0.800001 6.00135ZM2.32436 9.67564C3.29896 10.6502 4.62036 11.1985 5.99865 11.2L6.00135 8.8C5.25864 8.79917 4.54659 8.50376 4.02142 7.97858L2.32436 9.67564ZM5.99777 2.2C6.42302 2.20079 6.8343 2.35186 7.15895 2.62652L8.70908 0.794276C7.95228 0.154008 6.99353 -0.198158 6.00223 -0.199998L5.99777 2.2ZM7.15895 2.62652C7.4836 2.90118 7.70072 3.28176 7.77195 3.701L10.138 3.299C9.97201 2.3217 9.46587 1.43454 8.70908 0.794276L7.15895 2.62652ZM8.955 2.3H7.5V4.7H8.955V2.3ZM7.5 2.3C7.04913 2.3 6.61673 2.47911 6.29792 2.79792L7.99498 4.49498C7.8637 4.62625 7.68565 4.7 7.5 4.7V2.3ZM6.29792 2.79792C5.97911 3.11673 5.8 3.54913 5.8 4H8.2C8.2 4.18565 8.12625 4.3637 7.99498 4.49498L6.29792 2.79792ZM5.8 4C5.8 4.45087 5.97911 4.88327 6.29792 5.20208L7.99498 3.50503C8.12625 3.6363 8.2 3.81435 8.2 4H5.8ZM6.29792 5.20208C6.61673 5.52089 7.04913 5.7 7.5 5.7V3.3C7.68565 3.3 7.8637 3.37375 7.99498 3.50503L6.29792 5.20208ZM7.5 5.7H9V3.3H7.5V5.7ZM7.8 4.5V5.5H10.2V4.5H7.8ZM9 4.3H7.5V6.7H9V4.3ZM7.5 4.3C7.04913 4.3 6.61673 4.47911 6.29792 4.79792L7.99498 6.49498C7.8637 6.62625 7.68565 6.7 7.5 6.7V4.3ZM6.29792 4.79792C5.97911 5.11673 5.8 5.54913 5.8 6H8.2C8.2 6.18565 8.12625 6.3637 7.99498 6.49498L6.29792 4.79792ZM5.8 6C5.8 6.45087 5.97911 6.88327 6.29792 7.20208L7.99498 5.50502C8.12625 5.6363 8.2 5.81435 8.2 6H5.8ZM6.29792 7.20208C6.61673 7.52089 7.04913 7.7 7.5 7.7V5.3C7.68565 5.3 7.8637 5.37375 7.99498 5.50502L6.29792 7.20208ZM7.5 7.7H8.955V5.3H7.5V7.7ZM7.77162 6.30098C7.70116 6.7199 7.48454 7.1003 7.1602 7.37464L8.71015 9.20703C9.46778 8.56618 9.9738 7.67759 10.1384 6.69902L7.77162 6.30098ZM7.1602 7.37464C6.83587 7.64899 6.4248 7.79952 6 7.79952V10.1995C6.99231 10.1995 7.95252 9.84788 8.71015 9.20703L7.1602 7.37464ZM6 7.79952C5.5752 7.79952 5.16413 7.64899 4.8398 7.37464L3.28985 9.20703C4.04748 9.84788 5.00769 10.1995 6 10.1995V7.79952ZM4.8398 7.37464C4.51546 7.1003 4.29884 6.7199 4.22838 6.30098L1.86162 6.69902C2.0262 7.67759 2.53222 8.56618 3.28985 9.20703L4.8398 7.37464ZM3.045 7.7H4.5V5.3H3.045V7.7ZM4.5 7.7C4.95087 7.7 5.38327 7.52089 5.70208 7.20208L4.00503 5.50502C4.1363 5.37375 4.31435 5.3 4.5 5.3V7.7ZM5.70208 7.20208C6.02089 6.88327 6.2 6.45087 6.2 6H3.8C3.8 5.81435 3.87375 5.6363 4.00503 5.50502L5.70208 7.20208ZM6.2 6C6.2 5.54913 6.02089 5.11673 5.70208 4.79792L4.00503 6.49498C3.87375 6.3637 3.8 6.18565 3.8 6H6.2ZM5.70208 4.79792C5.38327 4.47911 4.95087 4.3 4.5 4.3V6.7C4.31435 6.7 4.1363 6.62625 4.00503 6.49498L5.70208 4.79792ZM4.5 4.3H3V6.7H4.5V4.3ZM4.2 5.5V4.5H1.8V5.5H4.2ZM3 5.7H4.5V3.3H3V5.7ZM4.5 5.7C4.95087 5.7 5.38327 5.52089 5.70208 5.20208L4.00503 3.50503C4.1363 3.37375 4.31435 3.3 4.5 3.3V5.7ZM5.70208 5.20208C6.02089 4.88327 6.2 4.45087 6.2 4H3.8C3.8 3.81435 3.87375 3.6363 4.00503 3.50503L5.70208 5.20208ZM6.2 4C6.2 3.54913 6.02089 3.11673 5.70208 2.79792L4.00503 4.49498C3.87375 4.3637 3.8 4.18565 3.8 4H6.2ZM5.70208 2.79792C5.38327 2.47911 4.95087 2.3 4.5 2.3V4.7C4.31435 4.7 4.1363 4.62625 4.00503 4.49498L5.70208 2.79792ZM4.5 2.3H3.045V4.7H4.5V2.3ZM4.22805 3.701C4.29928 3.28176 4.5164 2.90118 4.84105 2.62652L3.29092 0.794276C2.53413 1.43454 2.02799 2.3217 1.86195 3.299L4.22805 3.701ZM4.84105 2.62652C5.1657 2.35186 5.57698 2.20079 6.00223 2.2L5.99777 -0.199998C5.00647 -0.198158 4.04772 0.154008 3.29092 0.794276L4.84105 2.62652Z" fill="#DAA930" mask="url(#path-1-inside-1_0_205)"/>
<path d="M11.5 6C11.3674 6 11.2402 6.05268 11.1464 6.14645C11.0527 6.24021 11 6.36739 11 6.5C10.9987 7.69307 10.5241 8.83689 9.68052 9.68052C8.83689 10.5241 7.69307 10.9987 6.5 11H5.5C4.30697 10.9985 3.16323 10.524 2.31963 9.68037C1.47603 8.83677 1.00146 7.69303 1 6.5C1 6.36739 0.947322 6.24021 0.853553 6.14645C0.759785 6.05268 0.632608 6 0.5 6C0.367392 6 0.240215 6.05268 0.146447 6.14645C0.0526784 6.24021 0 6.36739 0 6.5C0.00172024 7.95816 0.581735 9.35611 1.61281 10.3872C2.64389 11.4183 4.04184 11.9983 5.5 12H6.5C7.95816 11.9983 9.35611 11.4183 10.3872 10.3872C11.4183 9.35611 11.9983 7.95816 12 6.5C12 6.36739 11.9473 6.24021 11.8536 6.14645C11.7598 6.05268 11.6326 6 11.5 6Z" fill="#DAA930"/>
</g>
<defs>
<clipPath id="clip0_0_205">
<rect width="12" height="12" fill="white"/>
</clipPath>
</defs>
</svg>
