<svg width="24" height="24" viewBox="0 0 24 24" fill="none" xmlns="http://www.w3.org/2000/svg">
<mask id="path-1-inside-1_0_852" fill="white">
<path d="M17.8333 3.66667H17V2.83333C17 2.37333 16.6267 2 16.1667 2C15.7067 2 15.3333 2.37333 15.3333 2.83333V3.66667H8.66667V2.83333C8.66667 2.37333 8.29333 2 7.83333 2C7.37333 2 7 2.37333 7 2.83333V3.66667H6.16667C3.86917 3.66667 2 5.53583 2 7.83333V17.8333C2 20.1308 3.86917 22 6.16667 22H17.8333C20.1308 22 22 20.1308 22 17.8333V7.83333C22 5.53583 20.1308 3.66667 17.8333 3.66667ZM6.16667 5.33333H17.8333C19.2117 5.33333 20.3333 6.455 20.3333 7.83333V8.66667H3.66667V7.83333C3.66667 6.455 4.78833 5.33333 6.16667 5.33333ZM17.8333 20.3333H6.16667C4.78833 20.3333 3.66667 19.2117 3.66667 17.8333V10.3333H20.3333V17.8333C20.3333 19.2117 19.2117 20.3333 17.8333 20.3333ZM15.3333 15.3333C15.3333 15.7933 14.96 16.1667 14.5 16.1667H9.5C9.04 16.1667 8.66667 15.7933 8.66667 15.3333C8.66667 14.8733 9.04 14.5 9.5 14.5H14.5C14.96 14.5 15.3333 14.8733 15.3333 15.3333Z"/>
</mask>
<path d="M17.8333 3.66667H17V2.83333C17 2.37333 16.6267 2 16.1667 2C15.7067 2 15.3333 2.37333 15.3333 2.83333V3.66667H8.66667V2.83333C8.66667 2.37333 8.29333 2 7.83333 2C7.37333 2 7 2.37333 7 2.83333V3.66667H6.16667C3.86917 3.66667 2 5.53583 2 7.83333V17.8333C2 20.1308 3.86917 22 6.16667 22H17.8333C20.1308 22 22 20.1308 22 17.8333V7.83333C22 5.53583 20.1308 3.66667 17.8333 3.66667ZM6.16667 5.33333H17.8333C19.2117 5.33333 20.3333 6.455 20.3333 7.83333V8.66667H3.66667V7.83333C3.66667 6.455 4.78833 5.33333 6.16667 5.33333ZM17.8333 20.3333H6.16667C4.78833 20.3333 3.66667 19.2117 3.66667 17.8333V10.3333H20.3333V17.8333C20.3333 19.2117 19.2117 20.3333 17.8333 20.3333ZM15.3333 15.3333C15.3333 15.7933 14.96 16.1667 14.5 16.1667H9.5C9.04 16.1667 8.66667 15.7933 8.66667 15.3333C8.66667 14.8733 9.04 14.5 9.5 14.5H14.5C14.96 14.5 15.3333 14.8733 15.3333 15.3333Z" fill="#DAA930"/>
<path d="M17 3.66667H-4.33333V25H17V3.66667ZM15.3333 3.66667V25H36.6667V3.66667H15.3333ZM8.66667 3.66667H-12.6667V25H8.66667V3.66667ZM7 3.66667V25H28.3333V3.66667H7ZM20.3333 8.66667V30H41.6667V8.66667H20.3333ZM3.66667 8.66667H-17.6667V30H3.66667V8.66667ZM3.66667 10.3333V-11H-17.6667V10.3333H3.66667ZM20.3333 10.3333H41.6667V-11H20.3333V10.3333ZM17.8333 -17.6667H17V25H17.8333V-17.6667ZM38.3333 3.66667V2.83333H-4.33333V3.66667H38.3333ZM38.3333 2.83333C38.3333 -9.40874 28.4087 -19.3333 16.1667 -19.3333V23.3333C4.84459 23.3333 -4.33333 14.1554 -4.33333 2.83333H38.3333ZM16.1667 -19.3333C3.92459 -19.3333 -6 -9.40874 -6 2.83333H36.6667C36.6667 14.1554 27.4887 23.3333 16.1667 23.3333V-19.3333ZM-6 2.83333V3.66667H36.6667V2.83333H-6ZM15.3333 -17.6667H8.66667V25H15.3333V-17.6667ZM30 3.66667V2.83333H-12.6667V3.66667H30ZM30 2.83333C30 -9.40874 20.0754 -19.3333 7.83333 -19.3333V23.3333C-3.48874 23.3333 -12.6667 14.1554 -12.6667 2.83333H30ZM7.83333 -19.3333C-4.40874 -19.3333 -14.3333 -9.40874 -14.3333 2.83333H28.3333C28.3333 14.1554 19.1554 23.3333 7.83333 23.3333V-19.3333ZM-14.3333 2.83333V3.66667H28.3333V2.83333H-14.3333ZM7 -17.6667H6.16667V25H7V-17.6667ZM6.16667 -17.6667C-7.91291 -17.6667 -19.3333 -6.24624 -19.3333 7.83333H23.3333C23.3333 17.3179 15.6512 25 6.16667 25V-17.6667ZM-19.3333 7.83333V17.8333H23.3333V7.83333H-19.3333ZM-19.3333 17.8333C-19.3333 31.9129 -7.91291 43.3333 6.16667 43.3333V0.666666C15.6512 0.666666 23.3333 8.34876 23.3333 17.8333H-19.3333ZM6.16667 43.3333H17.8333V0.666666H6.16667V43.3333ZM17.8333 43.3333C31.9129 43.3333 43.3333 31.9129 43.3333 17.8333H0.666666C0.666666 8.34876 8.34876 0.666666 17.8333 0.666666V43.3333ZM43.3333 17.8333V7.83333H0.666666V17.8333H43.3333ZM43.3333 7.83333C43.3333 -6.24624 31.9129 -17.6667 17.8333 -17.6667V25C8.34876 25 0.666666 17.3179 0.666666 7.83333H43.3333ZM6.16667 26.6667H17.8333V-16H6.16667V26.6667ZM17.8333 26.6667C7.42959 26.6667 -1 18.2371 -1 7.83333H41.6667C41.6667 -5.32708 30.9937 -16 17.8333 -16V26.6667ZM-1 7.83333V8.66667H41.6667V7.83333H-1ZM20.3333 -12.6667H3.66667V30H20.3333V-12.6667ZM25 8.66667V7.83333H-17.6667V8.66667H25ZM25 7.83333C25 18.2371 16.5704 26.6667 6.16667 26.6667V-16C-6.99374 -16 -17.6667 -5.32708 -17.6667 7.83333H25ZM17.8333 -1H6.16667V41.6667H17.8333V-1ZM6.16667 -1C16.5704 -1 25 7.42959 25 17.8333H-17.6667C-17.6667 30.9937 -6.99374 41.6667 6.16667 41.6667V-1ZM25 17.8333V10.3333H-17.6667V17.8333H25ZM3.66667 31.6667H20.3333V-11H3.66667V31.6667ZM-1 10.3333V17.8333H41.6667V10.3333H-1ZM-1 17.8333C-1 7.42959 7.42959 -1 17.8333 -1V41.6667C30.9937 41.6667 41.6667 30.9937 41.6667 17.8333H-1ZM-6 15.3333C-6 4.01126 3.17792 -5.16667 14.5 -5.16667V37.5C26.7421 37.5 36.6667 27.5754 36.6667 15.3333H-6ZM14.5 -5.16667H9.5V37.5H14.5V-5.16667ZM9.5 -5.16667C20.8221 -5.16667 30 4.01126 30 15.3333H-12.6667C-12.6667 27.5754 -2.74207 37.5 9.5 37.5V-5.16667ZM30 15.3333C30 26.6554 20.8221 35.8333 9.5 35.8333V-6.83333C-2.74207 -6.83333 -12.6667 3.09126 -12.6667 15.3333H30ZM9.5 35.8333H14.5V-6.83333H9.5V35.8333ZM14.5 35.8333C3.17792 35.8333 -6 26.6554 -6 15.3333H36.6667C36.6667 3.09126 26.7421 -6.83333 14.5 -6.83333V35.8333Z" fill="#DAA930" mask="url(#path-1-inside-1_0_852)"/>
</svg>
