<svg width="24" height="24" viewBox="0 0 24 24" fill="none" xmlns="http://www.w3.org/2000/svg">
<path d="M15.5706 5.99598C15.5714 6.12758 15.5461 6.25805 15.4964 6.37988C15.4466 6.50172 15.3733 6.61253 15.2806 6.70597L10.6906 11.286C10.5969 11.3789 10.5225 11.4895 10.4717 11.6114C10.421 11.7333 10.3948 11.864 10.3948 11.996C10.3948 12.128 10.421 12.2587 10.4717 12.3805C10.5225 12.5024 10.5969 12.613 10.6906 12.706L15.2806 17.286C15.4689 17.4743 15.5747 17.7297 15.5747 17.996C15.5747 18.2623 15.4689 18.5177 15.2806 18.706C15.0923 18.8943 14.8369 19.0001 14.5706 19.0001C14.4387 19.0001 14.3082 18.9741 14.1864 18.9236C14.0645 18.8732 13.9538 18.7992 13.8606 18.706L9.28062 14.116C8.73305 13.546 8.42725 12.7863 8.42725 11.996C8.42725 11.2056 8.73305 10.4459 9.28062 9.87597L13.8606 5.28598C13.9536 5.19225 14.0642 5.11785 14.186 5.06708C14.3079 5.01632 14.4386 4.99018 14.5706 4.99018C14.7026 4.99018 14.8333 5.01632 14.9552 5.06708C15.077 5.11785 15.1876 5.19225 15.2806 5.28598C15.3733 5.37942 15.4466 5.49023 15.4964 5.61207C15.5461 5.73391 15.5714 5.86437 15.5706 5.99598Z" fill="white"/>
</svg>
