<svg width="21" height="21" viewBox="0 0 21 21" fill="none" xmlns="http://www.w3.org/2000/svg">
<mask id="path-1-inside-1_2023_10852" fill="white">
<path d="M15.5997 13.6255C15.4857 13.6261 15.3727 13.6041 15.2671 13.5605C15.1615 13.517 15.0655 13.4528 14.9845 13.3717L11.0162 9.35539C10.9356 9.27337 10.8398 9.20828 10.7342 9.16385C10.6286 9.11943 10.5154 9.09656 10.401 9.09656C10.2866 9.09656 10.1733 9.11943 10.0678 9.16385C9.96218 9.20828 9.86634 9.27337 9.7858 9.35539L5.81742 13.3717C5.65426 13.5365 5.43297 13.6291 5.20223 13.6291C4.97149 13.6291 4.7502 13.5365 4.58705 13.3717C4.42389 13.207 4.33223 12.9835 4.33223 12.7505C4.33223 12.6351 4.35473 12.5208 4.39845 12.4142C4.44218 12.3076 4.50626 12.2108 4.58705 12.1292L8.56409 8.12161C9.05792 7.64248 9.71617 7.37489 10.401 7.37489C11.0858 7.37489 11.744 7.64248 12.2379 8.12161L16.2149 12.1292C16.2961 12.2105 16.3606 12.3073 16.4046 12.4139C16.4486 12.5206 16.4712 12.6349 16.4712 12.7505C16.4712 12.866 16.4486 12.9803 16.4046 13.087C16.3606 13.1936 16.2961 13.2904 16.2149 13.3717C16.134 13.4528 16.0379 13.517 15.9324 13.5605C15.8268 13.6041 15.7138 13.6261 15.5997 13.6255Z"/>
</mask>
<path d="M15.5997 13.6255C15.4857 13.6261 15.3727 13.6041 15.2671 13.5605C15.1615 13.517 15.0655 13.4528 14.9845 13.3717L11.0162 9.35539C10.9356 9.27337 10.8398 9.20828 10.7342 9.16385C10.6286 9.11943 10.5154 9.09656 10.401 9.09656C10.2866 9.09656 10.1733 9.11943 10.0678 9.16385C9.96218 9.20828 9.86634 9.27337 9.7858 9.35539L5.81742 13.3717C5.65426 13.5365 5.43297 13.6291 5.20223 13.6291C4.97149 13.6291 4.7502 13.5365 4.58705 13.3717C4.42389 13.207 4.33223 12.9835 4.33223 12.7505C4.33223 12.6351 4.35473 12.5208 4.39845 12.4142C4.44218 12.3076 4.50626 12.2108 4.58705 12.1292L8.56409 8.12161C9.05792 7.64248 9.71617 7.37489 10.401 7.37489C11.0858 7.37489 11.744 7.64248 12.2379 8.12161L16.2149 12.1292C16.2961 12.2105 16.3606 12.3073 16.4046 12.4139C16.4486 12.5206 16.4712 12.6349 16.4712 12.7505C16.4712 12.866 16.4486 12.9803 16.4046 13.087C16.3606 13.1936 16.2961 13.2904 16.2149 13.3717C16.134 13.4528 16.0379 13.517 15.9324 13.5605C15.8268 13.6041 15.7138 13.6261 15.5997 13.6255Z" fill="white"/>
<path d="M15.5997 13.6255L15.7262 -8.03997L15.5997 -8.04071L15.4732 -8.03997L15.5997 13.6255ZM14.9845 13.3717L-0.427241 28.5995L-0.387902 28.6393L-0.348358 28.6789L14.9845 13.3717ZM11.0162 9.35539L-4.44137 24.5367L-4.41853 24.56L-4.39562 24.5831L11.0162 9.35539ZM9.7858 9.35539L25.1976 24.5831L25.2205 24.56L25.2433 24.5367L9.7858 9.35539ZM5.81742 13.3717L21.2126 28.6163L21.2209 28.6079L21.2292 28.5995L5.81742 13.3717ZM4.33223 12.7505L-17.3336 12.7505L4.33223 12.7505ZM4.58705 12.1292L-10.7915 -3.13213L-10.7998 -3.12375L-10.8081 -3.11535L4.58705 12.1292ZM8.56409 8.12161L-6.52279 -7.42811L-6.66998 -7.28529L-6.81445 -7.13972L8.56409 8.12161ZM10.401 7.37489L10.401 -14.2909L10.401 7.37489ZM12.2379 8.12161L27.6164 -7.13972L27.4719 -7.28529L27.3248 -7.42811L12.2379 8.12161ZM16.2149 12.1292L0.836372 27.3905L0.859338 27.4137L0.882373 27.4367L16.2149 12.1292ZM16.2149 13.3717L0.882373 -1.93582L0.88201 -1.93546L16.2149 13.3717ZM15.4732 -8.03997C18.2404 -8.05613 20.9785 -7.52019 23.5287 -6.46829L7.00548 33.5893C9.76676 34.7283 12.731 35.3084 15.7262 35.2909L15.4732 -8.03997ZM23.5287 -6.46829C26.0785 -5.41653 28.3836 -3.87254 30.3174 -1.93546L-0.348358 28.6789C1.7474 30.7782 4.24455 32.4505 7.00548 33.5893L23.5287 -6.46829ZM30.3963 -1.85603L26.428 -5.87237L-4.39562 24.5831L-0.427241 28.5995L30.3963 -1.85603ZM26.4737 -5.82592C24.3891 -7.94846 21.8973 -9.64478 19.1364 -10.8064L2.33204 29.1341C-0.217741 28.0613 -2.51786 26.4952 -4.44137 24.5367L26.4737 -5.82592ZM19.1364 -10.8064C16.375 -11.9682 13.4054 -12.5693 10.401 -12.5693L10.401 30.7624C7.62529 30.7624 4.88227 30.2071 2.33204 29.1341L19.1364 -10.8064ZM10.401 -12.5693C7.39653 -12.5693 4.427 -11.9682 1.6656 -10.8064L18.4699 29.1341C15.9197 30.2071 13.1767 30.7624 10.401 30.7624L10.401 -12.5693ZM1.6656 -10.8064C-1.09535 -9.64478 -3.58714 -7.94846 -5.67174 -5.82592L25.2433 24.5367C23.3198 26.4952 21.0197 28.0613 18.4699 29.1341L1.6656 -10.8064ZM-5.62599 -5.87237L-9.59437 -1.85603L21.2292 28.5995L25.1976 24.5831L-5.62599 -5.87237ZM-9.57775 -1.87283C-5.69453 -5.79442 -0.382258 -8.03676 5.20223 -8.03676L5.20223 35.2949C11.2482 35.2949 17.0031 32.8674 21.2126 28.6163L-9.57775 -1.87283ZM5.20223 -8.03676C10.7867 -8.03676 16.099 -5.79442 19.9822 -1.87283L-10.8081 28.6163C-6.59859 32.8674 -0.843737 35.2949 5.20223 35.2949L5.20223 -8.03676ZM19.9822 -1.87283C23.8583 2.04154 25.998 7.30571 25.998 12.7505L-17.3336 12.7505C-17.3336 18.6613 -15.0105 24.3724 -10.8081 28.6163L19.9822 -1.87283ZM25.998 12.7505C25.998 15.4509 25.4716 18.1298 24.4437 20.636L-15.6468 4.19247C-16.7621 6.91189 -17.3336 9.81926 -17.3336 12.7505L25.998 12.7505ZM24.4437 20.636C23.4155 23.1426 21.903 25.434 19.9822 27.3737L-10.8081 -3.11535C-12.8905 -1.0124 -14.5312 1.47265 -15.6468 4.19247L24.4437 20.636ZM19.9656 27.3905L23.9426 23.3829L-6.81445 -7.13972L-10.7915 -3.13213L19.9656 27.3905ZM23.651 23.6713C20.1236 27.0937 15.3789 29.0407 10.401 29.0407L10.401 -14.2909C4.05343 -14.2909 -2.00779 -11.8087 -6.52279 -7.42811L23.651 23.6713ZM10.401 29.0407C5.42306 29.0407 0.678336 27.0937 -2.84901 23.6713L27.3248 -7.42811C22.8097 -11.8087 16.7485 -14.2909 10.401 -14.2909L10.401 29.0407ZM-3.14067 23.3829L0.836372 27.3905L31.5935 -3.13213L27.6164 -7.13972L-3.14067 23.3829ZM0.882373 27.4367C-1.0569 25.4943 -2.58493 23.1948 -3.62385 20.6765L36.433 4.1514C35.3061 1.41979 33.6491 -1.07322 31.5475 -3.17835L0.882373 27.4367ZM-3.62385 20.6765C-4.66258 18.1586 -5.19461 15.4654 -5.19461 12.7505L38.137 12.7505C38.137 9.80446 37.5597 6.88253 36.433 4.1514L-3.62385 20.6765ZM-5.19461 12.7505C-5.19461 10.0355 -4.66258 7.3423 -3.62385 4.82442L36.433 21.3495C37.5597 18.6184 38.137 15.6965 38.137 12.7505L-5.19461 12.7505ZM-3.62385 4.82442C-2.58493 2.30607 -1.0569 0.00661996 0.882373 -1.93582L31.5475 28.6793C33.6491 26.5741 35.3061 24.0811 36.433 21.3495L-3.62385 4.82442ZM0.88201 -1.93546C2.81584 -3.87254 5.12096 -5.41653 7.67076 -6.46829L24.194 33.5893C26.9549 32.4505 29.4521 30.7782 31.5478 28.6789L0.88201 -1.93546ZM7.67076 -6.46829C10.2209 -7.52019 12.9591 -8.05613 15.7262 -8.03997L15.4732 35.2909C18.4685 35.3084 21.4327 34.7283 24.194 33.5893L7.67076 -6.46829Z" fill="#949494" mask="url(#path-1-inside-1_2023_10852)"/>
</svg>
