<svg width="16" height="16" viewBox="0 0 16 16" fill="none" xmlns="http://www.w3.org/2000/svg">
<path d="M14.2593 6.52682C13.3979 5.08519 11.4386 2.6665 7.99992 2.6665C4.56119 2.6665 2.60192 5.08519 1.74057 6.52682C1.4743 6.96941 1.33325 7.47948 1.33325 7.99984C1.33325 8.52019 1.4743 9.03026 1.74057 9.47285C2.60192 10.9145 4.56119 13.3332 7.99992 13.3332C11.4386 13.3332 13.3979 10.9145 14.2593 9.47285C14.5255 9.03026 14.6666 8.52019 14.6666 7.99984C14.6666 7.47948 14.5255 6.96941 14.2593 6.52682ZM13.3124 8.87531C12.5727 10.1115 10.8983 12.1917 7.99992 12.1917C5.10155 12.1917 3.42717 10.1115 2.68744 8.87531C2.52924 8.61224 2.44545 8.30909 2.44545 7.99984C2.44545 7.69058 2.52924 7.38743 2.68744 7.12436C3.42717 5.88819 5.10155 3.80793 7.99992 3.80793C10.8983 3.80793 12.5727 5.88591 13.3124 7.12436C13.4706 7.38743 13.5544 7.69058 13.5544 7.99984C13.5544 8.30909 13.4706 8.61224 13.3124 8.87531Z" fill="white"/>
<path d="M7.99992 5.3335C7.4725 5.3335 6.95693 5.48989 6.5184 5.78291C6.07987 6.07593 5.73807 6.4924 5.53624 6.97967C5.33441 7.46694 5.2816 8.00312 5.38449 8.5204C5.48739 9.03769 5.74136 9.51284 6.1143 9.88578C6.48724 10.2587 6.9624 10.5127 7.47968 10.6156C7.99696 10.7185 8.53314 10.6657 9.02041 10.4638C9.50768 10.262 9.92415 9.92021 10.2172 9.48168C10.5102 9.04315 10.6666 8.52758 10.6666 8.00016C10.6657 7.29318 10.3845 6.61539 9.8846 6.11548C9.38469 5.61557 8.7069 5.33434 7.99992 5.3335ZM7.99992 9.60016C7.68347 9.60016 7.37413 9.50632 7.11101 9.33051C6.84789 9.1547 6.64281 8.90482 6.52171 8.61246C6.40061 8.32009 6.36893 7.99839 6.43066 7.68802C6.4924 7.37765 6.64478 7.09256 6.86855 6.86879C7.09231 6.64503 7.37741 6.49264 7.68778 6.43091C7.99814 6.36917 8.31985 6.40085 8.61221 6.52196C8.90457 6.64306 9.15446 6.84813 9.33027 7.11125C9.50608 7.37437 9.59992 7.68371 9.59992 8.00016C9.59992 8.42451 9.43135 8.83147 9.13129 9.13153C8.83123 9.43159 8.42427 9.60016 7.99992 9.60016Z" fill="white"/>
</svg>
