<svg width="24" height="24" viewBox="0 0 24 24" fill="none" xmlns="http://www.w3.org/2000/svg">
<path d="M18 5.99982C17.8125 5.81235 17.5582 5.70703 17.293 5.70703C17.0278 5.70703 16.7735 5.81235 16.586 5.99982L12 10.5858L7.414 5.99982C7.22647 5.81235 6.97217 5.70703 6.707 5.70703C6.44184 5.70703 6.18753 5.81235 6 5.99982C5.81253 6.18735 5.70721 6.44165 5.70721 6.70682C5.70721 6.97198 5.81253 7.22629 6 7.41382L10.586 11.9998L6 16.5858C5.81253 16.7733 5.70721 17.0277 5.70721 17.2928C5.70721 17.558 5.81253 17.8123 6 17.9998C6.18753 18.1873 6.44184 18.2926 6.707 18.2926C6.97217 18.2926 7.22647 18.1873 7.414 17.9998L12 13.4138L16.586 17.9998C16.7735 18.1873 17.0278 18.2926 17.293 18.2926C17.5582 18.2926 17.8125 18.1873 18 17.9998C18.1875 17.8123 18.2928 17.558 18.2928 17.2928C18.2928 17.0277 18.1875 16.7733 18 16.5858L13.414 11.9998L18 7.41382C18.1875 7.22629 18.2928 6.97198 18.2928 6.70682C18.2928 6.44165 18.1875 6.18735 18 5.99982Z" fill="#DAA930"/>
</svg>
