<svg width="20" height="20" viewBox="0 0 20 20" fill="none" xmlns="http://www.w3.org/2000/svg">
<path d="M10 0C7.34784 0 4.8043 1.05357 2.92893 2.92893C1.05357 4.8043 0 7.34784 0 10C0 12.6522 1.05357 15.1957 2.92893 17.0711C4.8043 18.9464 7.34784 20 10 20C12.6522 20 15.1957 18.9464 17.0711 17.0711C18.9464 15.1957 20 12.6522 20 10C20 7.34784 18.9464 4.8043 17.0711 2.92893C15.1957 1.05357 12.6522 0 10 0ZM1.23333 10.7556H4.02222C4.06667 11.7667 4.20778 12.7711 4.44444 13.7556H2.04444C1.59689 12.8121 1.32218 11.796 1.23333 10.7556ZM10.7556 4.75556V1.32222C11.8263 1.72914 12.7062 2.5218 13.2222 3.54444C13.45 3.93 13.6511 4.33111 13.8222 4.74444L10.7556 4.75556ZM14.3333 6.25556C14.5911 7.23667 14.7444 8.24222 14.7889 9.25556H10.7556V6.25556H14.3333ZM9.24444 1.32222V4.75556H6.17778C6.34918 4.34188 6.54968 3.94088 6.77778 3.55556C7.29163 2.52873 8.17177 1.73185 9.24444 1.32222ZM9.24444 6.25556V9.25556H5.22222C5.26667 8.24222 5.42 7.23667 5.67778 6.25556H9.24444ZM4.02222 9.24444H1.23333C1.32218 8.20399 1.59689 7.18791 2.04444 6.24444H4.44444C4.20732 7.2285 4.06593 8.23317 4.02222 9.24444ZM5.22222 10.7556H9.24444V13.7556H5.67778C5.42004 12.7745 5.26733 11.7689 5.22222 10.7556ZM9.25556 15.2V18.6333C8.1848 18.2264 7.30494 17.4338 6.78889 16.4111C6.56079 16.0258 6.36029 15.6248 6.18889 15.2111L9.25556 15.2ZM10.7556 18.6333V15.2556H13.8222C13.6508 15.6692 13.4503 16.0702 13.2222 16.4556C12.7062 17.4782 11.8263 18.2709 10.7556 18.6778V18.6333ZM10.7556 13.7V10.7H14.7778C14.7327 11.7133 14.58 12.719 14.3222 13.7H10.7556ZM15.9889 10.7H18.7778C18.6889 11.7405 18.4142 12.7565 17.9667 13.7H15.5556C15.7889 12.7333 15.93 11.7478 15.9778 10.7556L15.9889 10.7ZM15.9889 9.2C15.938 8.20701 15.7929 7.2211 15.5556 6.25556H17.9556C18.4033 7.2 18.6778 8.21556 18.7667 9.25556L15.9889 9.2ZM17.1 4.75556H15.1111C14.7512 3.74478 14.2296 2.79914 13.5667 1.95556C14.9493 2.5762 16.1503 3.54006 17.0556 4.75556H17.1ZM6.43333 1.95556C5.77036 2.79914 5.24875 3.74478 4.88889 4.75556H2.94444C3.84969 3.54006 5.05069 2.5762 6.43333 1.95556ZM2.93333 15.2889H4.88889C5.24875 16.2997 5.77036 17.2453 6.43333 18.0889C5.04686 17.4589 3.8455 16.4833 2.94444 15.2556L2.93333 15.2889ZM13.5556 18.0889C14.2185 17.2453 14.7401 16.2997 15.1 15.2889H17.0556C16.1448 16.4881 14.9443 17.4363 13.5667 18.0444L13.5556 18.0889Z" fill="#B3B3B3"/>
</svg>
