<svg width="43" height="35" viewBox="0 0 43 35" fill="none" xmlns="http://www.w3.org/2000/svg">
<path d="M15.687 2.83757H27.3135V23.6903H15.687V2.83757Z" fill="#FF5F00"/>
<path d="M7.82547 34.1865V31.976C7.82547 31.1285 7.30862 30.576 6.42271 30.576C5.97985 30.576 5.49999 30.7234 5.16775 31.2023C4.9095 30.797 4.54044 30.576 3.98677 30.576C3.61755 30.576 3.24866 30.6864 2.95325 31.0917V30.6497H2.17815V34.1865H2.95325V32.2338C2.95325 31.6076 3.28548 31.3128 3.80233 31.3128C4.31884 31.3128 4.57743 31.6444 4.57743 32.2338V34.1865H5.35254V32.2338C5.35254 31.6076 5.72142 31.3128 6.20128 31.3128C6.71813 31.3128 6.97638 31.6444 6.97638 32.2338V34.1865H7.82547ZM19.3042 30.6497H18.0494V29.5813H17.2743V30.6497H16.573V31.3495H17.2741V32.9707C17.2741 33.7813 17.6064 34.2601 18.4923 34.2601C18.8245 34.2601 19.1934 34.1497 19.452 34.0024L19.2304 33.3391C19.009 33.4865 18.7507 33.5234 18.5661 33.5234C18.197 33.5234 18.0494 33.3024 18.0494 32.9338V31.3495H19.3042V30.6497ZM25.8743 30.5758C25.4314 30.5758 25.1361 30.797 24.9515 31.0917V30.6497H24.1764V34.1865H24.9515V32.197C24.9515 31.6076 25.2098 31.276 25.6896 31.276C25.8373 31.276 26.0219 31.3129 26.1695 31.3497L26.3909 30.6129C26.2433 30.576 26.0219 30.576 25.8743 30.576V30.5758ZM15.9455 30.9444C15.5763 30.6864 15.0596 30.576 14.506 30.576C13.6202 30.576 13.0297 31.0181 13.0297 31.7181C13.0297 32.3076 13.4726 32.6391 14.2477 32.7497L14.6168 32.7866C15.0228 32.8601 15.2443 32.9707 15.2443 33.155C15.2443 33.4128 14.949 33.5971 14.4322 33.5971C13.9155 33.5971 13.5094 33.4128 13.251 33.2287L12.882 33.8181C13.288 34.1128 13.8417 34.2601 14.3952 34.2601C15.4287 34.2601 16.0194 33.7813 16.0194 33.1181C16.0194 32.4917 15.5395 32.1601 14.8012 32.0497L14.4322 32.0128C14.0999 31.9758 13.8417 31.9023 13.8417 31.6813C13.8417 31.4234 14.0999 31.276 14.506 31.276C14.949 31.276 15.3919 31.4601 15.6133 31.5707L15.9455 30.9444ZM36.5412 30.576C36.0982 30.576 35.803 30.797 35.6184 31.0917V30.6497H34.8433V34.1865H35.6184V32.197C35.6184 31.6076 35.8768 31.276 36.3565 31.276C36.5043 31.276 36.6889 31.3129 36.8365 31.3497L37.0579 30.6129C36.9103 30.576 36.6889 30.576 36.5412 30.576ZM26.6494 32.4181C26.6494 33.4865 27.3875 34.2601 28.5318 34.2601C29.0485 34.2601 29.4175 34.1497 29.7866 33.855L29.4175 33.2287C29.1223 33.4497 28.827 33.5601 28.4948 33.5601C27.8673 33.5601 27.4245 33.1181 27.4245 32.4181C27.4245 31.755 27.8673 31.3128 28.4948 31.276C28.827 31.276 29.1223 31.3864 29.4175 31.6076L29.7866 30.9813C29.4175 30.6864 29.0485 30.576 28.5318 30.576C27.3875 30.576 26.6494 31.3497 26.6494 32.4181ZM33.8099 32.4181V30.6497H33.0348V31.0917C32.7764 30.7603 32.4073 30.576 31.9275 30.576C30.9309 30.576 30.1558 31.3497 30.1558 32.4181C30.1558 33.4865 30.9309 34.2601 31.9275 34.2601C32.4441 34.2601 32.8134 34.076 33.0348 33.7444V34.1865H33.8099V32.4181ZM30.9677 32.4181C30.9677 31.7917 31.3738 31.276 32.0381 31.276C32.6656 31.276 33.1086 31.755 33.1086 32.4181C33.1086 33.0444 32.6656 33.5601 32.0381 33.5601C31.3738 33.5232 30.9677 33.0444 30.9677 32.4181ZM21.7035 30.576C20.67 30.576 19.9317 31.3128 19.9317 32.4181C19.9317 33.5234 20.6698 34.2601 21.7403 34.2601C22.257 34.2601 22.7738 34.1128 23.1799 33.7813L22.8107 33.2287C22.5154 33.4497 22.1464 33.5971 21.7773 33.5971C21.2975 33.5971 20.8176 33.376 20.7068 32.7495H23.3275V32.455C23.3645 31.3128 22.7 30.576 21.7033 30.576H21.7035ZM21.7035 31.2391C22.1832 31.2391 22.5156 31.534 22.5892 32.0866H20.7438C20.8176 31.6076 21.1498 31.2391 21.7035 31.2391ZM40.9334 32.4181V29.2497H40.1583V31.0917C39.8999 30.7603 39.5309 30.576 39.051 30.576C38.0545 30.576 37.2794 31.3497 37.2794 32.4181C37.2794 33.4865 38.0545 34.2601 39.051 34.2601C39.5678 34.2601 39.9369 34.076 40.1583 33.7444V34.1865H40.9334V32.4181ZM38.0915 32.4181C38.0915 31.7917 38.4973 31.276 39.1618 31.276C39.7893 31.276 40.2321 31.755 40.2321 32.4181C40.2321 33.0444 39.7893 33.5601 39.1618 33.5601C38.4973 33.5232 38.0915 33.0444 38.0915 32.4181ZM12.1807 32.4181V30.6497H11.4056V31.0917C11.1471 30.7603 10.7781 30.576 10.2982 30.576C9.30169 30.576 8.52659 31.3497 8.52659 32.4181C8.52659 33.4865 9.30169 34.2601 10.2982 34.2601C10.8151 34.2601 11.1841 34.076 11.4056 33.7444V34.1865H12.1807V32.4181ZM9.30169 32.4181C9.30169 31.7917 9.70774 31.276 10.372 31.276C10.9995 31.276 11.4426 31.755 11.4426 32.4181C11.4426 33.0444 10.9995 33.5601 10.372 33.5601C9.70774 33.5232 9.30169 33.0444 9.30169 32.4181Z" fill="#F6F6F6"/>
<path d="M16.4249 13.2632C16.4249 9.02642 18.418 5.26843 21.4814 2.83678C19.2301 1.06839 16.3881 0 13.2877 0C5.9424 0 0 5.93152 0 13.2632C0 20.5948 5.9424 26.5264 13.2875 26.5264C16.388 26.5264 19.2299 25.4581 21.4814 23.6895C18.418 21.2948 16.4249 17.5 16.4249 13.2632Z" fill="#EB001B"/>
<path d="M42.9998 13.2632C42.9998 20.5948 37.0574 26.5264 29.7123 26.5264C26.6119 26.5264 23.7699 25.4581 21.5184 23.6895C24.6188 21.258 26.575 17.5 26.575 13.2632C26.575 9.02642 24.5818 5.26843 21.5184 2.83678C23.7697 1.06839 26.6119 0 29.7123 0C37.0574 0 43 5.96844 43 13.2632H42.9998Z" fill="#F79E1B"/>
</svg>
