<svg width="41" height="41" viewBox="0 0 41 41" fill="none" xmlns="http://www.w3.org/2000/svg">
<g clip-path="url(#clip0_2003_8257)">
<mask id="path-1-inside-1_2003_8257" fill="white">
<path d="M32.4577 14.3907V11.9581C32.4577 8.78661 31.1978 5.74502 28.9552 3.50244C26.7126 1.25987 23.6711 0 20.4996 0C17.3281 0 14.2865 1.25987 12.0439 3.50244C9.80135 5.74502 8.54148 8.78661 8.54148 11.9581V14.3907C7.02 15.0547 5.725 16.1477 4.81483 17.536C3.90465 18.9244 3.41877 20.5478 3.41658 22.2079V32.4577C3.4193 34.7222 4.32007 36.8932 5.92133 38.4944C7.52258 40.0957 9.69357 40.9964 11.9581 40.9992H29.0411C31.3056 40.9964 33.4766 40.0957 35.0778 38.4944C36.6791 36.8932 37.5799 34.7222 37.5826 32.4577V22.2079C37.5804 20.5478 37.0945 18.9244 36.1843 17.536C35.2742 16.1477 33.9791 15.0547 32.4577 14.3907ZM11.9581 11.9581C11.9581 9.69274 12.858 7.52018 14.4598 5.91834C16.0617 4.3165 18.2342 3.4166 20.4996 3.4166C22.7649 3.4166 24.9375 4.3165 26.5393 5.91834C28.1412 7.52018 29.0411 9.69274 29.0411 11.9581V13.6664H11.9581V11.9581ZM34.166 32.4577C34.166 33.8169 33.626 35.1204 32.6649 36.0815C31.7038 37.0426 30.4003 37.5826 29.0411 37.5826H11.9581C10.5989 37.5826 9.29533 37.0426 8.33423 36.0815C7.37313 35.1204 6.83318 33.8169 6.83318 32.4577V22.2079C6.83318 20.8487 7.37313 19.5451 8.33423 18.584C9.29533 17.6229 10.5989 17.083 11.9581 17.083H29.0411C30.4003 17.083 31.7038 17.6229 32.6649 18.584C33.626 19.5451 34.166 20.8487 34.166 22.2079V32.4577Z"/>
</mask>
<path d="M32.4577 14.3907V11.9581C32.4577 8.78661 31.1978 5.74502 28.9552 3.50244C26.7126 1.25987 23.6711 0 20.4996 0C17.3281 0 14.2865 1.25987 12.0439 3.50244C9.80135 5.74502 8.54148 8.78661 8.54148 11.9581V14.3907C7.02 15.0547 5.725 16.1477 4.81483 17.536C3.90465 18.9244 3.41877 20.5478 3.41658 22.2079V32.4577C3.4193 34.7222 4.32007 36.8932 5.92133 38.4944C7.52258 40.0957 9.69357 40.9964 11.9581 40.9992H29.0411C31.3056 40.9964 33.4766 40.0957 35.0778 38.4944C36.6791 36.8932 37.5799 34.7222 37.5826 32.4577V22.2079C37.5804 20.5478 37.0945 18.9244 36.1843 17.536C35.2742 16.1477 33.9791 15.0547 32.4577 14.3907ZM11.9581 11.9581C11.9581 9.69274 12.858 7.52018 14.4598 5.91834C16.0617 4.3165 18.2342 3.4166 20.4996 3.4166C22.7649 3.4166 24.9375 4.3165 26.5393 5.91834C28.1412 7.52018 29.0411 9.69274 29.0411 11.9581V13.6664H11.9581V11.9581ZM34.166 32.4577C34.166 33.8169 33.626 35.1204 32.6649 36.0815C31.7038 37.0426 30.4003 37.5826 29.0411 37.5826H11.9581C10.5989 37.5826 9.29533 37.0426 8.33423 36.0815C7.37313 35.1204 6.83318 33.8169 6.83318 32.4577V22.2079C6.83318 20.8487 7.37313 19.5451 8.33423 18.584C9.29533 17.6229 10.5989 17.083 11.9581 17.083H29.0411C30.4003 17.083 31.7038 17.6229 32.6649 18.584C33.626 19.5451 34.166 20.8487 34.166 22.2079V32.4577Z" fill="white"/>
<path d="M32.4577 11.9581L54.0961 11.9581L32.4577 11.9581ZM8.54148 11.9581H-13.097H8.54148ZM8.54148 14.3907L17.1968 34.2227L30.1799 28.5564V14.3907H8.54148ZM3.41658 22.2079L-18.2218 22.1794L-18.2219 22.1936V22.2079H3.41658ZM3.41658 32.4577H-18.2219V32.4706L-18.2218 32.4836L3.41658 32.4577ZM11.9581 40.9992L11.9322 62.6376L11.9451 62.6376H11.9581V40.9992ZM29.0411 40.9992V62.6376H29.054L29.067 62.6376L29.0411 40.9992ZM37.5826 32.4577L59.221 32.4836L59.221 32.4706V32.4577H37.5826ZM37.5826 22.2079H59.221V22.1936L59.221 22.1794L37.5826 22.2079ZM11.9581 11.9581H-9.68037H11.9581ZM29.0411 13.6664V35.3048H50.6795V13.6664H29.0411ZM11.9581 13.6664H-9.68037V35.3048H11.9581V13.6664ZM34.166 32.4577H55.8044H34.166ZM29.0411 37.5826V59.221V37.5826ZM11.9581 37.5826V59.221V37.5826ZM6.83318 32.4577H-14.8053H6.83318ZM6.83318 22.2079H28.4716H6.83318ZM11.9581 17.083V-4.55547V17.083ZM34.166 22.2079H55.8044H34.166ZM54.0961 14.3907V11.9581H10.8192V14.3907H54.0961ZM54.0961 11.9581C54.0961 3.04773 50.5565 -5.49769 44.2559 -11.7983L13.6545 18.8031C11.8391 16.9877 10.8192 14.5255 10.8192 11.9581L54.0961 11.9581ZM44.2559 -11.7983C37.9553 -18.0988 29.4099 -21.6384 20.4996 -21.6384V21.6384C17.9322 21.6384 15.47 20.6186 13.6545 18.8031L44.2559 -11.7983ZM20.4996 -21.6384C11.5892 -21.6384 3.04381 -18.0988 -3.25676 -11.7983L27.3446 18.8031C25.5292 20.6186 23.067 21.6384 20.4996 21.6384V-21.6384ZM-3.25676 -11.7983C-9.55734 -5.49768 -13.097 3.04773 -13.097 11.9581L30.1799 11.9581C30.1799 14.5255 29.16 16.9877 27.3446 18.8031L-3.25676 -11.7983ZM-13.097 11.9581V14.3907H30.1799V11.9581H-13.097ZM-0.113877 -5.44127C-5.48977 -3.09505 -10.0655 0.766888 -13.2814 5.67226L22.911 29.3998C21.5154 31.5286 19.5298 33.2045 17.1968 34.2227L-0.113877 -5.44127ZM-13.2814 5.67226C-16.4973 10.5776 -18.2141 16.3138 -18.2218 22.1794L25.055 22.2363C25.0517 24.7818 24.3066 27.2711 22.911 29.3998L-13.2814 5.67226ZM-18.2219 22.2079V32.4577H25.055V22.2079H-18.2219ZM-18.2218 32.4836C-18.2123 40.478 -15.0323 48.1422 -9.37936 53.7951L21.222 23.1937C23.6724 25.6441 25.0509 28.9664 25.055 32.4317L-18.2218 32.4836ZM-9.37936 53.7951C-3.72646 59.448 3.93777 62.628 11.9322 62.6376L11.984 19.3607C15.4494 19.3649 18.7716 20.7433 21.222 23.1937L-9.37936 53.7951ZM11.9581 62.6376H29.0411V19.3607H11.9581V62.6376ZM29.067 62.6376C37.0614 62.628 44.7256 59.448 50.3785 53.7951L19.7771 23.1937C22.2275 20.7433 25.5498 19.3649 29.0152 19.3607L29.067 62.6376ZM50.3785 53.7951C56.0314 48.1422 59.2114 40.478 59.221 32.4836L15.9441 32.4317C15.9483 28.9664 17.3267 25.6441 19.7771 23.1937L50.3785 53.7951ZM59.221 32.4577V22.2079H15.9441V32.4577H59.221ZM59.221 22.1794C59.2133 16.3138 57.4965 10.5776 54.2805 5.67226L18.0881 29.3998C16.6925 27.2711 15.9475 24.7818 15.9441 22.2363L59.221 22.1794ZM54.2805 5.67226C51.0646 0.766884 46.4889 -3.09505 41.113 -5.44127L23.8023 34.2227C21.4694 33.2045 19.4837 31.5286 18.0881 29.3998L54.2805 5.67226ZM33.5965 11.9581C33.5965 15.4316 32.2167 18.7629 29.7605 21.219L-0.840865 -9.38236C-6.5007 -3.72252 -9.68037 3.95387 -9.68037 11.9581H33.5965ZM29.7605 21.219C27.3044 23.6752 23.9731 25.055 20.4996 25.055V-18.2219C12.4954 -18.2219 4.81897 -15.0422 -0.840865 -9.38236L29.7605 21.219ZM20.4996 25.055C17.026 25.055 13.6948 23.6752 11.2386 21.219L41.84 -9.38236C36.1802 -15.0422 28.5038 -18.2219 20.4996 -18.2219V25.055ZM11.2386 21.219C8.78248 18.7629 7.40262 15.4316 7.40262 11.9581H50.6795C50.6795 3.95387 47.4999 -3.72252 41.84 -9.38236L11.2386 21.219ZM7.40262 11.9581V13.6664H50.6795V11.9581H7.40262ZM29.0411 -7.97206H11.9581V35.3048H29.0411V-7.97206ZM33.5965 13.6664V11.9581H-9.68037V13.6664H33.5965ZM12.5275 32.4577C12.5275 28.078 14.2673 23.8777 17.3642 20.7808L47.9656 51.3822C52.9847 46.3631 55.8044 39.5557 55.8044 32.4577H12.5275ZM17.3642 20.7808C20.4611 17.6839 24.6614 15.9441 29.0411 15.9441V59.221C36.1391 59.221 42.9465 56.4013 47.9656 51.3822L17.3642 20.7808ZM29.0411 15.9441H11.9581V59.221H29.0411V15.9441ZM11.9581 15.9441C16.3377 15.9441 20.538 17.6839 23.6349 20.7808L-6.96646 51.3822C-1.94735 56.4013 4.86001 59.221 11.9581 59.221V15.9441ZM23.6349 20.7808C26.7318 23.8777 28.4716 28.078 28.4716 32.4577H-14.8053C-14.8053 39.5557 -11.9856 46.3631 -6.96646 51.3822L23.6349 20.7808ZM28.4716 32.4577V22.2079H-14.8053V32.4577H28.4716ZM28.4716 22.2079C28.4716 26.5875 26.7318 30.7878 23.6349 33.8847L-6.96646 3.28333C-11.9856 8.30243 -14.8053 15.1098 -14.8053 22.2079H28.4716ZM23.6349 33.8847C20.538 36.9816 16.3377 38.7214 11.9581 38.7214V-4.55547C4.86001 -4.55547 -1.94735 -1.73577 -6.96646 3.28333L23.6349 33.8847ZM11.9581 38.7214H29.0411V-4.55547H11.9581V38.7214ZM29.0411 38.7214C24.6614 38.7214 20.4611 36.9816 17.3642 33.8847L47.9656 3.28333C42.9465 -1.73578 36.1391 -4.55547 29.0411 -4.55547V38.7214ZM17.3642 33.8847C14.2673 30.7878 12.5275 26.5875 12.5275 22.2079H55.8044C55.8044 15.1098 52.9847 8.30244 47.9656 3.28333L17.3642 33.8847ZM12.5275 22.2079V32.4577H55.8044V22.2079H12.5275Z" fill="white" mask="url(#path-1-inside-1_2003_8257)"/>
<mask id="path-3-inside-2_2003_8257" fill="white">
<path d="M20.4996 23.9153C20.0466 23.9153 19.6121 24.0953 19.2917 24.4157C18.9713 24.7361 18.7913 25.1706 18.7913 25.6236V29.0402C18.7913 29.4933 18.9713 29.9278 19.2917 30.2482C19.6121 30.5685 20.0466 30.7485 20.4996 30.7485C20.9527 30.7485 21.3872 30.5685 21.7076 30.2482C22.0279 29.9278 22.2079 29.4933 22.2079 29.0402V25.6236C22.2079 25.1706 22.0279 24.7361 21.7076 24.4157C21.3872 24.0953 20.9527 23.9153 20.4996 23.9153Z"/>
</mask>
<path d="M20.4996 23.9153C20.0466 23.9153 19.6121 24.0953 19.2917 24.4157C18.9713 24.7361 18.7913 25.1706 18.7913 25.6236V29.0402C18.7913 29.4933 18.9713 29.9278 19.2917 30.2482C19.6121 30.5685 20.0466 30.7485 20.4996 30.7485C20.9527 30.7485 21.3872 30.5685 21.7076 30.2482C22.0279 29.9278 22.2079 29.4933 22.2079 29.0402V25.6236C22.2079 25.1706 22.0279 24.7361 21.7076 24.4157C21.3872 24.0953 20.9527 23.9153 20.4996 23.9153Z" fill="white"/>
<path d="M20.4996 2.2769C14.3077 2.2769 8.36934 4.73665 3.99099 9.115L34.5924 39.7164C30.8548 43.454 25.7855 45.5538 20.4996 45.5538V2.2769ZM3.99099 9.115C-0.387365 13.4934 -2.84711 19.4317 -2.84711 25.6236H40.4298C40.4298 30.9095 38.33 35.9788 34.5924 39.7164L3.99099 9.115ZM-2.84711 25.6236V29.0402H40.4298V25.6236H-2.84711ZM-2.84711 29.0402C-2.84711 35.2322 -0.38738 41.1705 3.99099 45.5489L34.5924 14.9475C38.33 18.6851 40.4298 23.7544 40.4298 29.0402H-2.84711ZM3.99099 45.5489C8.36938 49.9273 14.3077 52.387 20.4996 52.387V9.11008C25.7854 9.11008 30.8547 11.2098 34.5924 14.9475L3.99099 45.5489ZM20.4996 52.387C26.6915 52.387 32.6299 49.9273 37.0083 45.5489L6.40688 14.9475C10.1445 11.2098 15.2139 9.11008 20.4996 9.11008V52.387ZM37.0083 45.5489C41.3866 41.1705 43.8464 35.2322 43.8464 29.0402H0.569477C0.569477 23.7544 2.66925 18.6851 6.40688 14.9475L37.0083 45.5489ZM43.8464 29.0402V25.6236H0.569477V29.0402H43.8464ZM43.8464 25.6236C43.8464 19.4317 41.3866 13.4934 37.0083 9.115L6.40688 39.7164C2.66926 35.9788 0.569477 30.9095 0.569477 25.6236H43.8464ZM37.0083 9.115C32.6299 4.73665 26.6916 2.2769 20.4996 2.2769V45.5538C15.2138 45.5538 10.1445 43.454 6.40688 39.7164L37.0083 9.115Z" fill="white" mask="url(#path-3-inside-2_2003_8257)"/>
</g>
<defs>
<clipPath id="clip0_2003_8257">
<rect width="40.4211" height="40.4211" fill="white" transform="scale(1.0143)"/>
</clipPath>
</defs>
</svg>
