<svg width="20" height="20" viewBox="0 0 20 20" fill="none" xmlns="http://www.w3.org/2000/svg">
<path d="M10 11.6663C10.9205 11.6663 11.6667 10.9201 11.6667 9.99967C11.6667 9.0792 10.9205 8.33301 10 8.33301C9.07957 8.33301 8.33337 9.0792 8.33337 9.99967C8.33337 10.9201 9.07957 11.6663 10 11.6663Z" stroke="#DC1500" stroke-width="1.2" stroke-linecap="round" stroke-linejoin="round"/>
<path d="M13.5332 6.46673C13.9981 6.9311 14.3669 7.48254 14.6185 8.08953C14.8701 8.69652 14.9997 9.34715 14.9997 10.0042C14.9997 10.6613 14.8701 11.3119 14.6185 11.9189C14.3669 12.5259 13.9981 13.0774 13.5332 13.5417M6.46656 13.5334C6.00167 13.069 5.63288 12.5176 5.38126 11.9106C5.12964 11.3036 5.00012 10.653 5.00012 9.9959C5.00012 9.33882 5.12964 8.68819 5.38126 8.0812C5.63288 7.47421 6.00167 6.92276 6.46656 6.4584M15.8916 4.1084C17.4538 5.67113 18.3314 7.79036 18.3314 10.0001C18.3314 12.2098 17.4538 14.329 15.8916 15.8917M4.10822 15.8917C2.54596 14.329 1.66833 12.2098 1.66833 10.0001C1.66833 7.79036 2.54596 5.67113 4.10822 4.1084" stroke="#DC1500" stroke-width="1.2" stroke-linecap="round" stroke-linejoin="round"/>
</svg>
