<svg width="16" height="15" viewBox="0 0 16 15" fill="none" xmlns="http://www.w3.org/2000/svg">
<g clip-path="url(#clip0_2722_13703)">
<path d="M9.33269 13.3722C9.33269 12.7008 8.73573 12.1565 7.99935 12.1565C7.26297 12.1565 6.66602 12.7008 6.66602 13.3722C6.66602 14.0436 7.26297 14.5879 7.99935 14.5879C8.73573 14.5879 9.33269 14.0436 9.33269 13.3722Z" fill="#32B66C"/>
<path d="M9.33269 7.29408C9.33269 6.62267 8.73573 6.07839 7.99935 6.07839C7.26297 6.07839 6.66602 6.62267 6.66602 7.29408C6.66602 7.96548 7.26297 8.50977 7.99935 8.50977C8.73573 8.50977 9.33269 7.96548 9.33269 7.29408Z" fill="#32B66C"/>
<path d="M9.33269 1.21497C9.33269 0.543562 8.73573 -0.000722491 7.99935 -0.000722461C7.26297 -0.000722432 6.66602 0.543562 6.66602 1.21497C6.66602 1.88638 7.26297 2.43066 7.99935 2.43066C8.73573 2.43066 9.33269 1.88638 9.33269 1.21497Z" fill="#32B66C"/>
</g>
<defs>
<clipPath id="clip0_2722_13703">
<rect width="16" height="14.5882" fill="white"/>
</clipPath>
</defs>
</svg>
