<svg width="32" height="32" viewBox="0 0 32 32" fill="none" xmlns="http://www.w3.org/2000/svg">
<g clip-path="url(#clip0_0_698)">
<path d="M31.8533 22.5C31.7325 22.144 31.5425 21.8153 31.2942 21.533C31.046 21.2506 30.7443 21.0201 30.4067 20.8547C30.0691 20.6893 29.7021 20.5922 29.3268 20.5691C28.9515 20.546 28.5754 20.5973 28.22 20.72L25.3333 21.62C25.3737 21.2465 25.3347 20.8687 25.2189 20.5113C25.1031 20.1539 24.9131 19.825 24.6614 19.5462C24.4096 19.2673 24.1017 19.0449 23.758 18.8933C23.4142 18.7417 23.0423 18.6645 22.6667 18.6667H15.5333C13 16.9733 10.8667 17.3333 6.66667 17.3333V16.6667C6.66667 16.4899 6.59643 16.3203 6.4714 16.1953C6.34638 16.0702 6.17681 16 6 16H0.666667C0.489856 16 0.320286 16.0702 0.195262 16.1953C0.0702379 16.3203 0 16.4899 0 16.6667L0 27.3333C0 27.5101 0.0702379 27.6797 0.195262 27.8047C0.320286 27.9298 0.489856 28 0.666667 28H6C6.17681 28 6.34638 27.9298 6.4714 27.8047C6.59643 27.6797 6.66667 27.5101 6.66667 27.3333C6.66667 27.1 6.60667 27.1133 6.86 27.26C9.48238 28.7694 12.4147 29.6603 15.4335 29.8648C18.4523 30.0692 21.478 29.5819 24.28 28.44L30.28 26.0067C30.932 25.7232 31.4546 25.2066 31.7456 24.558C32.0367 23.9093 32.0751 23.1755 31.8533 22.5ZM5.33333 26.6667H1.33333V17.3333H5.33333V26.6667ZM29.78 24.7733L23.78 27.2C21.1662 28.2677 18.3429 28.7237 15.5259 28.533C12.7089 28.3424 9.97275 27.5102 7.52667 26.1L6.66667 25.6133V18.6667C11.06 18.6667 12.7 18.38 14.7933 19.7733C15.26 20.0867 14.9733 20 22.6667 20C22.9197 20.0009 23.1672 20.0737 23.3804 20.21C23.5936 20.3463 23.7636 20.5404 23.8705 20.7697C23.9775 20.999 24.017 21.254 23.9844 21.5049C23.9519 21.7558 23.8486 21.9923 23.6867 22.1867C22.94 22.8533 23.5867 22.6667 15.3333 22.6667C15.1565 22.6667 14.987 22.7369 14.8619 22.8619C14.7369 22.987 14.6667 23.1565 14.6667 23.3333C14.6667 23.5101 14.7369 23.6797 14.8619 23.8047C14.987 23.9298 15.1565 24 15.3333 24C22.8467 24 23.4667 24.2467 24.5 23.2667L28.6667 22C29.0306 21.8759 29.4283 21.8957 29.7782 22.0553C30.128 22.2149 30.4036 22.5023 30.5485 22.8585C30.6933 23.2147 30.6965 23.6128 30.5574 23.9713C30.4182 24.3298 30.1473 24.6215 29.8 24.7867L29.78 24.7733Z" fill="#DAA930"/>
<path d="M2.86033 24.1933C2.76764 24.2867 2.70469 24.4055 2.67941 24.5347C2.65412 24.6639 2.66765 24.7976 2.71826 24.9191C2.76888 25.0406 2.85433 25.1444 2.96385 25.2175C3.07336 25.2905 3.20204 25.3294 3.33366 25.3294C3.46528 25.3294 3.59396 25.2905 3.70347 25.2175C3.81299 25.1444 3.89844 25.0406 3.94905 24.9191C3.99967 24.7976 4.01319 24.6639 3.98791 24.5347C3.96263 24.4055 3.89968 24.2867 3.80699 24.1933C3.74502 24.1308 3.67128 24.0812 3.59004 24.0474C3.5088 24.0135 3.42167 23.9961 3.33366 23.9961C3.24565 23.9961 3.15851 24.0135 3.07727 24.0474C2.99604 24.0812 2.9223 24.1308 2.86033 24.1933Z" fill="#DAA930"/>
<path d="M21.3333 11.3337H18.6667C18.4899 11.3337 18.3203 11.4039 18.1953 11.5289C18.0702 11.6539 18 11.8235 18 12.0003C18 12.1771 18.0702 12.3467 18.1953 12.4717C18.3203 12.5968 18.4899 12.667 18.6667 12.667H20V13.3337C20 13.5105 20.0702 13.68 20.1953 13.8051C20.3203 13.9301 20.4899 14.0003 20.6667 14.0003C20.8435 14.0003 21.013 13.9301 21.1381 13.8051C21.2631 13.68 21.3333 13.5105 21.3333 13.3337V12.667C21.8638 12.667 22.3725 12.4563 22.7475 12.0812C23.1226 11.7061 23.3333 11.1974 23.3333 10.667C23.3333 10.1366 23.1226 9.62785 22.7475 9.25278C22.3725 8.87771 21.8638 8.66699 21.3333 8.66699H20C19.8232 8.66699 19.6536 8.59675 19.5286 8.47173C19.4036 8.34671 19.3333 8.17714 19.3333 8.00033C19.3333 7.82351 19.4036 7.65395 19.5286 7.52892C19.6536 7.4039 19.8232 7.33366 20 7.33366H22.6667C22.8435 7.33366 23.013 7.26342 23.1381 7.1384C23.2631 7.01337 23.3333 6.8438 23.3333 6.66699C23.3333 6.49018 23.2631 6.32061 23.1381 6.19559C23.013 6.07056 22.8435 6.00033 22.6667 6.00033H21.3333V5.33366C21.3333 5.15685 21.2631 4.98728 21.1381 4.86225C21.013 4.73723 20.8435 4.66699 20.6667 4.66699C20.4899 4.66699 20.3203 4.73723 20.1953 4.86225C20.0702 4.98728 20 5.15685 20 5.33366V6.00033C19.4696 6.00033 18.9609 6.21104 18.5858 6.58611C18.2107 6.96118 18 7.46989 18 8.00033C18 8.53076 18.2107 9.03947 18.5858 9.41454C18.9609 9.78961 19.4696 10.0003 20 10.0003H21.3333C21.5101 10.0003 21.6797 10.0706 21.8047 10.1956C21.9298 10.3206 22 10.4902 22 10.667C22 10.8438 21.9298 11.0134 21.8047 11.1384C21.6797 11.2634 21.5101 11.3337 21.3333 11.3337Z" fill="#DAA930"/>
<path d="M20.6663 16.6667C22.1167 16.6667 23.5346 16.2366 24.7405 15.4308C25.9465 14.625 26.8864 13.4797 27.4415 12.1397C27.9965 10.7997 28.1417 9.3252 27.8588 7.90267C27.5758 6.48015 26.8774 5.17347 25.8518 4.14789C24.8262 3.1223 23.5195 2.42387 22.097 2.14091C20.6745 1.85795 19.2 2.00318 17.86 2.55822C16.52 3.11326 15.3747 4.05319 14.5689 5.25915C13.7631 6.46512 13.333 7.88294 13.333 9.33334C13.333 11.2783 14.1056 13.1435 15.4809 14.5188C16.8562 15.8941 18.7214 16.6667 20.6663 16.6667ZM20.6663 3.33334C21.853 3.33334 23.0131 3.68523 23.9998 4.34452C24.9865 5.00381 25.7555 5.94088 26.2096 7.03724C26.6637 8.13359 26.7826 9.33999 26.5511 10.5039C26.3195 11.6678 25.7481 12.7369 24.909 13.576C24.0699 14.4151 23.0008 14.9865 21.8369 15.218C20.673 15.4496 19.4666 15.3307 18.3702 14.8766C17.2739 14.4225 16.3368 13.6535 15.6775 12.6668C15.0182 11.6801 14.6663 10.52 14.6663 9.33334C14.6663 7.74204 15.2985 6.21591 16.4237 5.0907C17.5489 3.96548 19.075 3.33334 20.6663 3.33334Z" fill="#DAA930"/>
</g>
<defs>
<clipPath id="clip0_0_698">
<rect width="32" height="32" fill="white"/>
</clipPath>
</defs>
</svg>
