<svg width="24" height="24" viewBox="0 0 24 24" fill="none" xmlns="http://www.w3.org/2000/svg">
<g clip-path="url(#clip0_0_169)">
<mask id="path-1-inside-1_0_169" fill="white">
<path d="M23.119 0.881891C22.7605 0.519019 22.3144 0.254747 21.8239 0.114608C21.3335 -0.0255306 20.8151 -0.0367989 20.319 0.0818918L4.31901 3.45189C3.39759 3.57826 2.52974 3.95937 1.81321 4.5523C1.09668 5.14524 0.559923 5.92645 0.263385 6.80795C-0.033153 7.68946 -0.0776925 8.63625 0.134782 9.5417C0.347257 10.4472 0.808307 11.2753 1.46601 11.9329L3.18401 13.6499C3.27699 13.7428 3.35073 13.8532 3.40101 13.9747C3.45129 14.0962 3.47711 14.2264 3.47701 14.3579V17.5259C3.47922 17.9713 3.58176 18.4105 3.77701 18.8109L3.76901 18.8179L3.79501 18.8439C4.08802 19.433 4.56659 19.9095 5.15701 20.1999L5.18301 20.2259L5.19001 20.2179C5.59037 20.4131 6.02958 20.5157 6.47501 20.5179H9.64301C9.90806 20.5177 10.1624 20.6227 10.35 20.8099L12.067 22.5269C12.5275 22.9925 13.0757 23.3624 13.6798 23.6152C14.2839 23.868 14.9321 23.9987 15.587 23.9999C16.1328 23.9992 16.6748 23.91 17.192 23.7359C18.0655 23.4491 18.8414 22.9239 19.4322 22.2196C20.0231 21.5153 20.4054 20.6599 20.536 19.7499L23.911 3.71489C24.0359 3.21453 24.0285 2.69031 23.8897 2.19365C23.7508 1.697 23.4852 1.24496 23.119 0.881891ZM4.60001 12.2379L2.88101 10.5209C2.48073 10.1302 2.20018 9.63353 2.0723 9.08904C1.94441 8.54455 1.97449 7.97488 2.15901 7.44689C2.33791 6.90521 2.66861 6.42631 3.11181 6.06715C3.555 5.70799 4.09202 5.48368 4.65901 5.42089L20.5 2.08589L5.47501 17.1129V14.3579C5.47652 13.9642 5.39997 13.5742 5.24978 13.2103C5.09959 12.8464 4.87874 12.5159 4.60001 12.2379ZM18.571 19.4079C18.4942 19.9602 18.265 20.4802 17.9091 20.9095C17.5532 21.3388 17.0847 21.6604 16.5561 21.8382C16.0276 22.016 15.46 22.043 14.9169 21.9161C14.3739 21.7892 13.877 21.5135 13.482 21.1199L11.762 19.3999C11.4844 19.1207 11.1542 18.8994 10.7904 18.7487C10.4267 18.598 10.0367 18.5209 9.64301 18.5219H6.88801L21.915 3.49989L18.571 19.4079Z"/>
</mask>
<path d="M23.119 0.881891C22.7605 0.519019 22.3144 0.254747 21.8239 0.114608C21.3335 -0.0255306 20.8151 -0.0367989 20.319 0.0818918L4.31901 3.45189C3.39759 3.57826 2.52974 3.95937 1.81321 4.5523C1.09668 5.14524 0.559923 5.92645 0.263385 6.80795C-0.033153 7.68946 -0.0776925 8.63625 0.134782 9.5417C0.347257 10.4472 0.808307 11.2753 1.46601 11.9329L3.18401 13.6499C3.27699 13.7428 3.35073 13.8532 3.40101 13.9747C3.45129 14.0962 3.47711 14.2264 3.47701 14.3579V17.5259C3.47922 17.9713 3.58176 18.4105 3.77701 18.8109L3.76901 18.8179L3.79501 18.8439C4.08802 19.433 4.56659 19.9095 5.15701 20.1999L5.18301 20.2259L5.19001 20.2179C5.59037 20.4131 6.02958 20.5157 6.47501 20.5179H9.64301C9.90806 20.5177 10.1624 20.6227 10.35 20.8099L12.067 22.5269C12.5275 22.9925 13.0757 23.3624 13.6798 23.6152C14.2839 23.868 14.9321 23.9987 15.587 23.9999C16.1328 23.9992 16.6748 23.91 17.192 23.7359C18.0655 23.4491 18.8414 22.9239 19.4322 22.2196C20.0231 21.5153 20.4054 20.6599 20.536 19.7499L23.911 3.71489C24.0359 3.21453 24.0285 2.69031 23.8897 2.19365C23.7508 1.697 23.4852 1.24496 23.119 0.881891ZM4.60001 12.2379L2.88101 10.5209C2.48073 10.1302 2.20018 9.63353 2.0723 9.08904C1.94441 8.54455 1.97449 7.97488 2.15901 7.44689C2.33791 6.90521 2.66861 6.42631 3.11181 6.06715C3.555 5.70799 4.09202 5.48368 4.65901 5.42089L20.5 2.08589L5.47501 17.1129V14.3579C5.47652 13.9642 5.39997 13.5742 5.24978 13.2103C5.09959 12.8464 4.87874 12.5159 4.60001 12.2379ZM18.571 19.4079C18.4942 19.9602 18.265 20.4802 17.9091 20.9095C17.5532 21.3388 17.0847 21.6604 16.5561 21.8382C16.0276 22.016 15.46 22.043 14.9169 21.9161C14.3739 21.7892 13.877 21.5135 13.482 21.1199L11.762 19.3999C11.4844 19.1207 11.1542 18.8994 10.7904 18.7487C10.4267 18.598 10.0367 18.5209 9.64301 18.5219H6.88801L21.915 3.49989L18.571 19.4079Z" fill="white"/>
<path d="M20.319 0.0818918L24.7159 20.9572L25.0002 20.8973L25.2827 20.8297L20.319 0.0818918ZM4.31901 3.45189L7.21759 24.5874L7.97137 24.484L8.71587 24.3272L4.31901 3.45189ZM1.46601 11.9329L-13.6176 27.0192L-13.6145 27.0222L1.46601 11.9329ZM3.18401 13.6499L18.2667 -1.43735L18.2646 -1.43945L3.18401 13.6499ZM3.47701 14.3579L-17.8563 14.3411L-17.8563 14.3495V14.3579H3.47701ZM3.47701 17.5259H-17.8563V17.5787L-17.8561 17.6316L3.47701 17.5259ZM3.77701 18.8109L17.8252 34.8658L30.1028 24.1228L22.9516 9.45954L3.77701 18.8109ZM3.76901 18.8179L-10.2792 2.76297L-27.4403 17.7791L-11.3157 33.9031L3.76901 18.8179ZM3.79501 18.8439L22.8962 9.34359L21.3441 6.22304L18.8797 3.75866L3.79501 18.8439ZM5.15701 20.1999L20.2417 5.11466L17.7433 2.61637L14.5729 1.05693L5.15701 20.1999ZM5.18301 20.2259L-9.90166 35.3111L6.22189 51.4341L21.2375 34.2745L5.18301 20.2259ZM5.19001 20.2179L14.5413 1.04333L-0.121465 -6.10765L-10.8645 6.16924L5.19001 20.2179ZM6.47501 20.5179L6.36932 41.851L6.42216 41.8512H6.47501V20.5179ZM9.64301 20.5179V41.8512H9.65141L9.6598 41.8512L9.64301 20.5179ZM10.35 20.8099L25.435 5.72494L25.4254 5.71541L25.4159 5.70589L10.35 20.8099ZM12.067 22.5269L27.2348 7.52523L27.1935 7.48347L27.152 7.44194L12.067 22.5269ZM15.587 23.9999L15.5499 45.3332L15.5817 45.3332L15.6135 45.3332L15.587 23.9999ZM17.192 23.7359L10.5366 3.46728L10.4602 3.49237L10.3839 3.51803L17.192 23.7359ZM20.536 19.7499L-0.339929 15.356L-0.482569 16.0337L-0.580955 16.7192L20.536 19.7499ZM23.911 3.71489L3.21232 -1.44994L3.11655 -1.06612L3.03507 -0.679018L23.911 3.71489ZM2.88101 10.5209L17.9572 -4.57284L17.8696 -4.66033L17.781 -4.7468L2.88101 10.5209ZM2.15901 7.44689L22.298 14.4849L22.3586 14.3115L22.4162 14.1371L2.15901 7.44689ZM4.65901 5.42089L7.00706 26.6246L8.03849 26.5104L9.05397 26.2966L4.65901 5.42089ZM20.5 2.08589L35.586 17.1698L86.3215 -33.5725L16.1051 -18.7898L20.5 2.08589ZM5.47501 17.1129H-15.8583V68.6209L20.561 32.1968L5.47501 17.1129ZM5.47501 14.3579L-15.8582 14.2758L-15.8583 14.3169V14.3579H5.47501ZM18.571 19.4079L-2.30606 15.0193L-2.45767 15.7406L-2.55914 16.4706L18.571 19.4079ZM13.482 21.1199L-1.60294 36.2048L-1.58962 36.2181L-1.57628 36.2314L13.482 21.1199ZM11.762 19.3999L-3.36418 34.4435L-3.34359 34.4642L-3.32294 34.4848L11.762 19.3999ZM9.64301 18.5219V39.8552H9.6698L9.69658 39.8551L9.64301 18.5219ZM6.88801 18.5219L-8.19442 3.43442L-44.6274 39.8552H6.88801V18.5219ZM21.915 3.49989L42.7921 7.88843L57.5422 -62.2803L6.83258 -11.5876L21.915 3.49989ZM38.2946 -14.1118C35.3574 -17.0847 31.703 -19.2498 27.6847 -20.3979L15.9632 20.6271C12.9258 19.7593 10.1636 18.1227 7.9434 15.8756L38.2946 -14.1118ZM27.6847 -20.3979C23.6663 -21.546 19.4197 -21.6383 15.3553 -20.6659L25.2827 20.8297C22.2105 21.5647 19.0006 21.4949 15.9632 20.6271L27.6847 -20.3979ZM15.9221 -20.7934L-0.0778514 -17.4234L8.71587 24.3272L24.7159 20.9572L15.9221 -20.7934ZM1.42043 -17.6836C-3.43634 -17.0175 -8.01068 -15.0087 -11.7875 -11.8834L15.4139 20.988C13.0702 22.9275 10.2315 24.1741 7.21759 24.5874L1.42043 -17.6836ZM-11.7875 -11.8834C-15.5643 -8.75808 -18.3935 -4.64037 -19.9565 0.00599605L20.4833 13.6099C19.5133 16.4933 17.7576 19.0486 15.4139 20.988L-11.7875 -11.8834ZM-19.9565 0.00599605C-21.5196 4.65237 -21.7543 9.64285 -20.6344 14.4154L20.9039 4.66798C21.5989 7.62966 21.4532 10.7266 20.4833 13.6099L-19.9565 0.00599605ZM-20.6344 14.4154C-19.5144 19.188 -17.0843 23.5531 -13.6176 27.0192L16.5496 -3.15344C18.7009 -1.00253 20.2089 1.7063 20.9039 4.66798L-20.6344 14.4154ZM-13.6145 27.0222L-11.8965 28.7392L18.2646 -1.43945L16.5466 -3.15645L-13.6145 27.0222ZM-11.8986 28.7371C-13.7894 26.847 -15.2887 24.6026 -16.311 22.1324L23.113 5.81705C21.9902 3.10388 20.3433 0.638706 18.2667 -1.43735L-11.8986 28.7371ZM-16.311 22.1324C-17.3333 19.6621 -17.8584 17.0145 -17.8563 14.3411L24.8103 14.3747C24.8126 11.4383 24.2359 8.53025 23.113 5.81705L-16.311 22.1324ZM-17.8563 14.3579V17.5259H24.8103V14.3579H-17.8563ZM-17.8561 17.6316C-17.838 21.2819 -16.9977 24.8812 -15.3975 28.1622L22.9516 9.45954C24.1612 11.9398 24.7964 14.6607 24.8101 17.4202L-17.8561 17.6316ZM-10.2712 2.75597L-10.2792 2.76297L17.8172 34.8728L17.8252 34.8658L-10.2712 2.75597ZM-11.3157 33.9031L-11.2897 33.9291L18.8797 3.75866L18.8537 3.73266L-11.3157 33.9031ZM-15.3062 28.3442C-12.9295 33.1227 -9.0478 36.9873 -4.25885 39.3428L14.5729 1.05693C18.181 2.83166 21.1056 5.74336 22.8962 9.34359L-15.3062 28.3442ZM-9.92766 35.2851L-9.90166 35.3111L20.2677 5.14066L20.2417 5.11466L-9.92766 35.2851ZM21.2375 34.2745L21.2445 34.2665L-10.8645 6.16924L-10.8715 6.17724L21.2375 34.2745ZM-4.16133 39.3924C-0.880327 40.9926 2.71902 41.8329 6.36932 41.851L6.58071 -0.81519C9.34014 -0.801518 12.0611 -0.166293 14.5413 1.04333L-4.16133 39.3924ZM6.47501 41.8512H9.64301V-0.815452H6.47501V41.8512ZM9.6598 41.8512C4.27046 41.8555 -0.900161 39.7199 -4.71586 35.9139L25.4159 5.70589C21.2249 1.52545 15.5457 -0.820105 9.62621 -0.815445L9.6598 41.8512ZM-4.73494 35.8948L-3.01794 37.6118L27.152 7.44194L25.435 5.72494L-4.73494 35.8948ZM-3.10077 37.5285C-0.660703 39.9956 2.24352 41.9554 5.4445 43.2949L21.9151 3.93548C23.9078 4.76936 25.7158 5.98939 27.2348 7.52523L-3.10077 37.5285ZM5.4445 43.2949C8.64549 44.6344 12.0799 45.3271 15.5499 45.3332L15.6242 2.66658C17.7843 2.67034 19.9224 3.10159 21.9151 3.93548L5.4445 43.2949ZM15.6135 45.3332C18.4652 45.3297 21.2975 44.8638 24.0001 43.9537L10.3839 3.51803C12.0521 2.95631 13.8003 2.66875 15.5605 2.66656L15.6135 45.3332ZM23.8475 44.0045C28.4982 42.4773 32.6297 39.681 35.7758 35.9308L3.08865 8.50835C5.05305 6.16682 7.63269 4.4208 10.5366 3.46728L23.8475 44.0045ZM35.7758 35.9308C38.922 32.1807 40.9576 27.626 41.653 22.7806L-0.580955 16.7192C-0.146752 13.6938 1.12424 10.8499 3.08865 8.50835L35.7758 35.9308ZM41.4119 24.1438L44.7869 8.1088L3.03507 -0.679018L-0.339929 15.356L41.4119 24.1438ZM44.6097 8.87972C45.6298 4.79137 45.5697 0.508028 44.4352 -3.55011L3.34409 7.93742C2.48728 4.87259 2.44188 1.6377 3.21232 -1.44994L44.6097 8.87972ZM44.4352 -3.55011C43.3007 -7.60825 41.1308 -11.3018 38.1384 -14.2684L8.09965 16.0321C5.83968 13.7917 4.2009 11.0022 3.34409 7.93742L44.4352 -3.55011ZM19.6762 -2.85584L17.9572 -4.57284L-12.1951 25.6146L-10.4761 27.3316L19.6762 -2.85584ZM17.781 -4.7468C20.2852 -2.30287 22.0404 0.804689 22.8405 4.21115L-18.6959 13.9669C-17.64 18.4624 -15.3238 22.5634 -12.019 25.7886L17.781 -4.7468ZM22.8405 4.21115C23.6406 7.61761 23.4524 11.1816 22.298 14.4849L-17.98 0.408903C-19.5034 4.76814 -19.7517 9.4715 -18.6959 13.9669L22.8405 4.21115ZM22.4162 14.1371C21.3135 17.4758 19.2752 20.4275 16.5435 22.6413L-10.3199 -10.507C-13.9379 -7.57489 -16.6377 -3.66534 -18.0982 0.756709L22.4162 14.1371ZM16.5435 22.6413C13.8118 24.855 10.5018 26.2376 7.00706 26.6246L2.31096 -15.7828C-2.31772 -15.2703 -6.70179 -13.439 -10.3199 -10.507L16.5435 22.6413ZM9.05397 26.2966L24.895 22.9616L16.1051 -18.7898L0.264055 -15.4548L9.05397 26.2966ZM5.41406 -12.9981L-9.61094 2.02894L20.561 32.1968L35.586 17.1698L5.41406 -12.9981ZM26.8083 17.1129V14.3579H-15.8583V17.1129H26.8083ZM26.8082 14.4399C26.8205 11.2262 26.1956 8.04191 24.9695 5.07124L-14.4699 21.3493C-15.3957 19.1064 -15.8675 16.7022 -15.8582 14.2758L26.8082 14.4399ZM24.9695 5.07124C23.7434 2.10057 21.9405 -0.597527 19.665 -2.86699L-10.465 27.3428C-12.183 25.6293 -13.5442 23.5922 -14.4699 21.3493L24.9695 5.07124ZM-2.55914 16.4706C-2.08993 13.0952 -0.689216 9.91739 1.4858 7.29387L34.3324 34.5252C37.2193 31.0431 39.0784 26.8252 39.7012 22.3452L-2.55914 16.4706ZM1.4858 7.29387C3.66079 4.67038 6.52396 2.70501 9.75395 1.61841L23.3583 42.0581C27.6454 40.6158 31.4456 38.0073 34.3324 34.5252L1.4858 7.29387ZM9.75395 1.61841C12.9839 0.531806 16.4528 0.366981 19.7713 1.14242L10.0626 42.6898C14.4671 43.719 19.0713 43.5003 23.3583 42.0581L9.75395 1.61841ZM19.7713 1.14242C23.0897 1.91786 26.1263 3.60287 28.5403 6.00833L-1.57628 36.2314C1.62771 39.4241 5.65815 41.6606 10.0626 42.6898L19.7713 1.14242ZM28.567 6.03494L26.847 4.31494L-3.32294 34.4848L-1.60294 36.2048L28.567 6.03494ZM26.8882 4.35629C24.6217 2.07738 21.9259 0.270498 18.9566 -0.959817L2.62429 38.4572C0.382437 37.5283 -1.65297 36.1641 -3.36418 34.4435L26.8882 4.35629ZM18.9566 -0.959817C15.9873 -2.19013 12.8035 -2.81946 9.58944 -2.81138L9.69658 39.8551C7.26992 39.8612 4.86613 39.3861 2.62429 38.4572L18.9566 -0.959817ZM9.64301 -2.81145H6.88801V39.8552H9.64301V-2.81145ZM21.9704 33.6093L36.9974 18.5873L6.83258 -11.5876L-8.19442 3.43442L21.9704 33.6093ZM1.03794 -0.888654L-2.30606 15.0193L39.4481 23.7964L42.7921 7.88843L1.03794 -0.888654Z" fill="white" mask="url(#path-1-inside-1_0_169)"/>
</g>
<defs>
<clipPath id="clip0_0_169">
<rect width="24" height="24" fill="white"/>
</clipPath>
</defs>
</svg>
