<svg width="33" height="32" viewBox="0 0 33 32" fill="none" xmlns="http://www.w3.org/2000/svg">
<path d="M16.1575 31.9995C7.27976 31.9995 0 24.8494 0 15.9998C0 7.20869 7.22057 0 16.1575 0C25.0353 0 32.315 7.15008 32.315 15.9998C32.315 24.8494 25.0353 31.9995 16.1575 31.9995Z" fill="#33CCFF"/>
<path d="M25.4497 10.1951C24.8578 10.4882 24.2068 10.6054 23.5558 10.7226C23.8517 10.664 24.3252 10.1365 24.5027 9.90209C24.7986 9.55045 25.0354 9.19881 25.1538 8.78856C25.1538 8.72995 25.1538 8.72995 25.1538 8.67134C25.0946 8.67134 25.0946 8.67134 25.0354 8.67134C24.3252 9.08159 23.5558 9.31602 22.7864 9.55045C22.7272 9.55045 22.668 9.55045 22.6088 9.49184C22.5496 9.43323 22.4904 9.37463 22.4312 9.31602C22.0761 9.02299 21.721 8.78856 21.3659 8.67134C20.8332 8.43691 20.2414 8.37831 19.7087 8.37831C19.1761 8.43691 18.5842 8.55413 18.1107 8.84716C17.6373 9.08159 17.1638 9.43324 16.8087 9.90209C16.4536 10.371 16.1576 10.8398 16.0393 11.4259C15.9209 11.9533 15.9209 12.4808 15.9801 13.0083C15.9801 13.1255 15.9801 13.1255 15.9209 13.1255C12.8433 12.6566 10.2391 11.5431 8.16765 9.1988C8.04928 9.08159 8.04928 9.08159 7.93091 9.1988C7.04314 10.5468 7.45743 12.7152 8.58195 13.8288C8.7595 13.946 8.87787 14.1218 9.05543 14.239C8.99624 14.239 8.22684 14.1804 7.5758 13.8288C7.45743 13.7702 7.45743 13.8288 7.45743 13.8874C7.45743 14.0046 7.45743 14.1804 7.45743 14.3562C7.63499 15.7042 8.58195 16.9936 9.88402 17.521C10.0616 17.5796 10.2391 17.6382 10.3575 17.6968C10.0616 17.7555 9.76565 17.8141 8.87787 17.7555C8.7595 17.7555 8.70032 17.8141 8.7595 17.8727C9.41054 19.6309 10.7718 20.1584 11.8371 20.4514C11.9555 20.4514 12.133 20.4514 12.2514 20.51C11.8963 21.0375 10.7126 21.4477 10.1208 21.6235C9.11461 21.9752 7.9901 22.151 6.92477 22.0338C6.74721 22.0338 6.68803 22.0338 6.68803 22.0338C6.62884 22.0338 6.68803 22.0924 6.74721 22.151C6.98395 22.2682 7.16151 22.444 7.39825 22.5612C8.10847 22.9129 8.81869 23.2059 9.52891 23.3817C13.3759 24.4367 17.6964 23.6748 20.5965 20.803C22.9047 18.4587 23.6741 15.3526 23.6741 12.305C23.6741 12.1878 23.7925 12.1292 23.9109 12.0706C24.5027 11.6603 24.9762 11.1328 25.3905 10.5468C25.5089 10.4296 25.5089 10.3123 25.5089 10.2537C25.5089 10.1365 25.5089 10.1365 25.4497 10.1951Z" fill="white"/>
</svg>
