<svg width="95" height="40" viewBox="0 0 95 40" fill="none" xmlns="http://www.w3.org/2000/svg">
<path d="M65.3095 7.19199C65.2047 7.78479 64.8199 9.0768 64.5095 10.0528C63.3575 13.508 58.6815 25.5145 55.0535 34.2674C52.7854 39.745 52.8558 39.605 52.5062 39.7802C51.9542 40.093 50.3462 40.1282 49.959 39.5002C49.987 39.0554 50.0934 38.6191 50.2734 38.2114C50.5182 37.5834 51.4239 35.2114 52.2983 32.9082C53.1359 30.6402 53.8686 28.6857 53.8686 28.6153C53.6224 27.8946 53.2172 27.2384 52.683 26.6953C52.123 26.1025 51.1478 25.4377 51.043 25.5753C51.0078 25.6105 50.4503 26.9353 49.7878 28.5058C47.9726 32.973 47.903 33.0762 46.6478 33.2514C45.8806 33.3562 44.8334 33.0114 44.6934 32.6234C44.6238 32.309 44.903 31.5082 46.4734 27.7729C47.1014 26.2377 47.6238 24.9473 47.5886 24.9121C46.5884 24.9683 45.6015 25.1679 44.6582 25.5049C44.1062 25.6889 42.7382 26.2729 41.623 26.7937C38.5877 28.2241 36.3901 27.7689 39.7397 25.5049C41.8882 24.1502 44.3534 23.3805 46.891 23.2721L48.4262 23.1673L50.311 18.8769C52.8583 13.1168 54.6719 9.38641 55.1263 9.0368C55.3848 8.85848 55.6873 8.75442 56.0008 8.73595C56.3144 8.71747 56.627 8.78527 56.9047 8.93199C57.1495 9.10719 57.1495 9.14 56.9399 9.97761C56.4871 11.6176 54.8119 16.0521 51.6718 23.8641C51.6366 23.9337 51.9519 24.2137 52.3695 24.4161C52.9182 24.7739 53.4322 25.1824 53.9047 25.6361C54.1577 25.9124 54.4522 26.1478 54.7775 26.3337C54.8127 26.2953 55.5135 24.5889 56.3127 22.4937C60.2207 12.5848 62.4183 7.59518 63.4911 6.19996C64.4111 5.02956 65.7016 5.09917 65.3095 7.19199Z" fill="white"/>
<path d="M70.8353 23.8705C69.8035 24.5625 68.6906 25.1252 67.5216 25.5457C66.8944 25.7298 66.8241 25.7906 66.2328 26.7682C64.1032 30.501 58.9048 32.2458 59.1496 27.4306C59.2896 24.7434 61.2776 20.7305 63.7896 18.0801C64.2171 17.6625 64.5917 17.1939 64.9048 16.6849C65.2896 15.7073 68.7073 16.7553 67.5225 17.0681C67.0345 17.2081 64.3472 21.1481 63.092 23.5937C62.0096 25.7217 61.592 26.977 61.592 28.1642C61.592 31.3394 64.4872 27.6122 65.0104 26.7338L65.6033 25.7562L65.0512 25.581C64.767 25.4856 64.5136 25.3158 64.3174 25.0891C64.1212 24.8623 63.9895 24.5871 63.936 24.2922C63.7264 23.1401 64.6336 20.9793 66.1336 19.0241C66.5512 18.4297 68.4017 16.0241 68.7105 18.0817C68.9201 19.3705 68.2224 22.6169 67.3504 24.6417C67.1664 25.0265 67.56 24.9217 68.8857 24.2241C69.8281 23.7697 70.2456 23.6314 70.4905 23.6722C70.6897 23.7322 70.8353 23.8009 70.8353 23.8705ZM67.5216 19.2689C67.5216 18.8857 67.5217 18.8857 67.3121 19.1305C66.569 20.3353 65.9938 21.6358 65.6024 22.9961C65.5011 23.2938 65.4651 23.6098 65.4968 23.9226C65.5286 24.2354 65.6274 24.5377 65.7865 24.809C65.9617 25.0538 66.0313 24.9489 66.5865 23.4833C67.0392 22.112 67.352 20.6984 67.5201 19.2641L67.5216 19.2689Z" fill="white"/>
<path d="M81.9585 22.4401C82.3065 22.6153 79.6209 27.6402 78.3649 29.1754C77.1777 30.5706 74.4576 31.6514 74.0376 29.2106C74.0139 28.9702 73.9548 28.7346 73.8624 28.5114C73.5865 28.7714 73.33 29.0513 73.0952 29.349C72.7336 29.7906 72.311 30.1785 71.84 30.501C68.3432 32.341 68.5264 27.781 69.0496 25.6858C69.8369 22.855 71.0737 20.169 72.7128 17.7305C73.4104 16.3705 75.0152 17.8705 75.0504 18.1153C75.0504 18.1505 74.7705 18.6673 74.4576 19.2657C72.1896 23.2081 70.2696 29.3898 71.2472 29.6658C71.7914 29.289 72.2739 28.8302 72.6776 28.3058C73.9328 26.909 73.9329 26.8754 74.3177 25.5138C74.9433 23.0431 75.9814 20.6957 77.388 18.5705C77.6185 18.2612 77.8043 17.9211 77.9401 17.5601C78.4281 16.1633 80.2425 17.6985 80.2777 17.9433C80.2777 18.0129 72.9848 33.6098 77.8353 28.2018C79.2196 26.631 80.35 24.8535 81.1857 22.9337C81.3273 22.4729 81.6441 22.2729 81.9585 22.4401Z" fill="white"/>
<path d="M85.4826 24.6651C85.0098 24.6944 84.5419 24.7765 84.0874 24.9099L83.5354 25.0851L83.465 26.5155C83.185 32.2028 77.8121 29.6908 77.8121 28.0507C77.8121 27.5979 79.8001 25.9579 80.9874 25.3979L81.3697 25.2251L81.4049 21.9803C81.4745 18.7355 81.4746 18.7003 81.825 18.0027C82.7674 15.8746 86.0106 15.945 86.0106 17.8979C85.9754 19.1547 85.2746 20.3051 84.5386 20.3051C84.0506 20.3051 84.0506 20.1211 84.4338 19.5051C84.693 19.0888 84.8038 18.5971 84.7482 18.1099C84.7482 17.2027 85.0282 17.2027 84.2954 17.2027C83.9106 17.2027 83.7706 17.273 83.5593 17.6907C83.1049 18.5979 83.0074 19.6107 83.1746 22.0179C83.2794 23.2379 83.3586 24.2507 83.3842 24.2859C83.5728 24.283 83.7596 24.2475 83.9362 24.1811C84.7516 23.9754 85.6069 23.9875 86.4162 24.2163C86.7722 24.4979 86.4946 24.6371 85.4826 24.6651ZM81.433 26.0619L80.3874 26.7595C79.8962 27.0982 79.4295 27.4708 78.9905 27.8747C78.2249 28.6747 80.0026 29.2347 80.4226 28.9947C80.9994 28.4336 81.3365 27.671 81.3633 26.8667L81.433 26.0619Z" fill="white"/>
<path d="M94.1003 24.1134C92.3202 27.3238 90.6802 29.0334 88.9354 29.4862C85.7274 30.3238 84.7146 27.7758 85.4378 24.9158C87.3906 17.2054 94.4042 15.0069 93.9178 19.0902C93.5871 20.7218 92.6522 22.1683 91.3002 23.1398C91.0105 23.2883 90.6917 23.3715 90.3663 23.3835C90.041 23.3955 89.7169 23.3361 89.417 23.2094C89.2074 23.0014 89.1722 23.2094 88.6498 24.7446C88.3613 25.5133 88.2304 26.3323 88.265 27.1526C88.265 28.3398 88.265 28.375 88.5802 28.4406C89.5906 28.5807 92.801 25.267 93.8483 22.9646C94.1987 22.2286 94.3011 22.0918 94.6163 22.0918C95.1107 22.0886 95.0371 22.4054 94.1003 24.1134ZM92.4603 19.7878C93.2603 15.3877 89.9474 21.3582 89.773 22.0558C89.285 23.9406 91.9027 22.9302 92.4603 19.7902V19.7878Z" fill="white"/>
<path d="M23.2573 13.9519C22.9396 13.9107 22.642 13.7738 22.404 13.5594C22.166 13.3451 21.9987 13.0635 21.9244 12.7519C21.9244 12.1119 22.9237 11.0287 23.7645 10.6719C23.5973 10.8671 22.8437 12.0319 23.0133 12.0319C24.9869 12.0319 28.9901 9.11267 28.9901 6.69345C28.9901 5.47104 27.7381 4.91502 26.5165 4.91502C18.9012 4.91502 3.00511 18.7207 2.53231 27.2592C2.42191 28.8976 3.06032 30.1216 5.61715 29.8992C11.6748 29.3472 22.0173 20.6719 26.5445 16.6151C21.0701 17.1671 13.7604 19.3671 13.7604 20.7287C13.7604 21.0047 12.7588 20.0087 12.7588 19.0607C12.7588 16.5871 23.6541 15.6423 25.9325 15.6423C29.1557 15.6423 31.8229 16.5311 31.9629 16.9471C30.6688 16.6516 29.3439 16.5119 28.0165 16.5311C29.5165 16.8087 29.9901 18.4767 29.5461 18.0863C29.1285 17.7807 28.4045 18.0863 27.4605 18.7823C22.2093 22.6168 17.6492 30.0368 16.122 33.8449C15.7097 34.7988 15.4472 35.8108 15.3436 36.8449C15.3436 37.0401 15.4284 37.0401 15.4284 37.0953C15.4284 37.1505 15.4004 37.2073 15.2884 37.2073C15.0108 37.2073 14.6772 36.8393 14.6772 36.3185C14.6772 32.0368 17.9572 25.8688 20.5173 22.784C16.1804 26.2576 9.23717 31.3984 4.50273 31.676C1.72351 31.8432 0.0282797 30.2312 0.000279449 27.7016C-0.0797212 17.2799 17.0364 4.35742 26.6245 4.35742C27.9845 4.35742 30.2381 4.99744 30.2381 7.02465C30.2333 10.2023 26.2589 13.9519 23.2573 13.9519Z" fill="white"/>
<path d="M34.9749 18.9075C34.7822 19.2383 34.6065 19.5788 34.4485 19.9275C34.1757 20.4875 33.6661 21.4427 33.2909 22.0699C32.1021 24.0084 30.5301 23.3971 31.3197 20.5971C31.7162 19.2559 32.2807 17.9703 32.9997 16.7707C33.1525 16.5163 33.2205 16.3803 33.1525 16.3619C32.9199 16.2653 32.6677 16.225 32.4165 16.2443C32.3997 16.2611 32.1109 16.8907 31.7701 17.6379C31.4034 18.564 30.948 19.4524 30.4101 20.2907C30.2741 20.4267 29.9165 20.4747 29.8501 20.3771C29.942 20.1083 30.0655 19.8513 30.2181 19.6115C30.896 18.4902 31.4761 17.3125 31.9517 16.0915C31.9517 16.0403 31.8669 15.9715 31.7677 15.9203C31.4472 15.7638 31.1881 15.5048 31.0317 15.1843C30.9456 14.9278 30.9192 14.655 30.9545 14.3867C30.9899 14.1184 31.0861 13.8617 31.2357 13.6363C32.1877 11.7499 33.7005 12.2595 32.8357 14.9635C32.749 15.1876 32.692 15.4221 32.6661 15.6611C32.9262 15.8503 33.2455 15.9402 33.5661 15.9147C33.93 15.9152 34.2915 15.973 34.6373 16.0859C34.6557 16.1027 34.5877 16.1875 34.5013 16.2699C33.7543 17.7296 33.1287 19.2484 32.6309 20.8107C32.1893 22.1875 32.2405 22.3915 32.8517 21.6427C33.5229 20.7712 34.0796 19.8173 34.5085 18.8043L34.6925 18.2947L34.9645 18.2763C35.3317 18.2451 35.3317 18.3131 34.9749 18.9075ZM32.6629 13.0579C32.396 13.5899 32.2288 14.1664 32.1693 14.7587C32.1693 15.1155 32.2021 15.2851 32.2869 15.2187C32.3613 15.0009 32.4227 14.7789 32.4709 14.5539C32.6629 13.8587 32.7637 12.9419 32.6629 13.0579Z" fill="white"/>
<path d="M38.5622 18.9749C37.695 20.5397 36.8966 21.3677 36.0462 21.5941C34.4814 22.0005 33.9886 20.7605 34.3454 19.3669C35.2966 15.6069 38.715 14.5365 38.4774 16.5269C38.3166 17.3216 37.8606 18.0259 37.2014 18.4981C37.0595 18.5698 36.9037 18.61 36.7448 18.6161C36.5859 18.6222 36.4276 18.5939 36.2806 18.5333C36.1798 18.4301 36.1614 18.5333 35.9126 19.2805C35.7734 19.6557 35.7109 20.0551 35.7286 20.4549C35.7286 21.0325 35.7286 21.0493 35.8814 21.0845C36.375 21.1525 37.939 19.5365 38.4494 18.4133C38.6206 18.0565 38.6702 17.9885 38.8174 17.9885C39.0558 17.9853 39.0206 18.1453 38.5622 18.9749ZM37.7622 16.8677C38.1526 14.7253 36.5382 17.6317 36.4518 17.9717C36.215 18.8901 37.491 18.4061 37.763 16.8653L37.7622 16.8677Z" fill="white"/>
<path d="M42.287 18.9749C41.4197 20.5397 40.6301 21.3677 39.7709 21.5941C38.2061 22.0005 37.7133 20.7605 38.0701 19.3669C39.0221 15.6069 42.4398 14.5365 42.2022 16.5269C42.0413 17.3216 41.5854 18.0259 40.9261 18.4981C40.7843 18.5697 40.6287 18.6099 40.47 18.6159C40.3112 18.622 40.153 18.5938 40.0061 18.5333C39.9045 18.4301 39.8862 18.5333 39.6382 19.2805C39.4989 19.6557 39.4364 20.0551 39.4541 20.4549C39.4541 21.0325 39.4541 21.0493 39.6069 21.0845C40.1006 21.1525 41.6646 19.5365 42.175 18.4133C42.3462 18.0565 42.3958 17.9885 42.543 17.9885C42.7798 17.9853 42.7446 18.1453 42.287 18.9749ZM41.4869 16.8677C41.8773 14.7253 40.2629 17.6317 40.1765 17.9717C39.9389 18.8901 41.2149 18.4061 41.4869 16.8653V16.8677Z" fill="white"/>
<path d="M47.5062 18.5907C47.591 18.6755 47.3534 19.1683 46.7062 20.29C44.7862 23.5884 43.2382 22.8412 44.3942 19.2868C44.7173 18.348 45.1271 17.4415 45.6182 16.5787C45.8022 16.2715 45.8022 16.2547 45.6694 16.3227C45.0159 16.8449 44.4281 17.4445 43.919 18.1083C42.9318 19.4188 42.1158 21.0188 42.1158 21.6276V21.9684H41.4694C40.6542 21.9684 40.5486 21.9164 40.755 21.6444C41.2717 20.7403 41.7032 19.79 42.0438 18.806C42.4686 17.7844 42.8942 16.7811 42.9974 16.5603C43.1149 16.3142 43.2115 16.0586 43.2862 15.7963C43.3878 15.4043 43.5262 15.2363 43.7278 15.2363C43.8982 15.2798 44.0634 15.3415 44.2206 15.4203L44.611 15.6043L44.3902 15.9099C44.0866 16.4384 43.8399 16.9975 43.6542 17.5779C43.6542 17.5947 43.9598 17.2891 44.3518 16.8971C44.797 16.3024 45.4576 15.9058 46.1918 15.7923C47.6886 15.6563 46.4478 17.3387 46.0222 18.4268C45.2222 20.5012 44.9342 21.5556 45.155 21.5556C45.8807 20.8213 46.4785 19.9709 46.9238 19.0396C47.199 18.5908 47.3702 18.4483 47.5062 18.5907Z" fill="white"/>
<path d="M39.8765 6.94155C39.875 6.88006 39.8782 6.81855 39.8861 6.75756C39.9124 5.8399 40.0314 4.92724 40.2413 4.03354C40.5256 2.80268 41.088 1.65327 41.8853 0.673503C42.002 0.525756 42.1293 0.386727 42.2662 0.257509C42.3102 0.216708 42.3461 0.128713 42.4149 0.158314C42.4837 0.187914 42.4574 0.275899 42.4614 0.342299C42.4926 0.859903 42.5222 1.37512 42.5478 1.89192C42.6011 2.9586 42.6208 4.02874 42.607 5.10235C42.5958 5.99195 42.5424 6.87861 42.4469 7.76235C42.3755 8.49379 42.2569 9.21986 42.0917 9.93598C41.9681 10.4999 41.7802 11.0477 41.5318 11.5688C41.5101 11.6403 41.4628 11.7012 41.3989 11.74C40.5469 8.75277 38.5789 6.61036 36.1621 4.80234C37.5874 5.12517 38.8749 5.88844 39.8421 6.98395L39.8765 6.94155Z" fill="white"/>
<path d="M42.6565 0C43.3682 1.05766 43.9203 2.21433 44.295 3.43282C44.6526 4.64723 44.7548 5.92259 44.595 7.17845C44.6462 7.20085 44.6613 7.16725 44.6797 7.14725C45.3367 6.44004 46.1684 5.91829 47.091 5.63444C47.5372 5.48434 47.9936 5.36618 48.4566 5.28085C48.5894 5.25525 48.6406 5.28084 48.5766 5.42084C48.1745 6.43404 47.6423 7.39062 46.9934 8.26647C46.6086 8.79469 46.1776 9.28758 45.7054 9.73929C45.1982 10.2219 44.6527 10.6626 44.0742 11.0569C43.6494 11.3425 43.2053 11.5961 42.7581 11.8449C42.7189 11.8673 42.6781 11.9129 42.6309 11.8777C42.5837 11.8425 42.6309 11.7913 42.6421 11.7489C42.9608 10.4823 43.1865 9.19402 43.3173 7.89447C43.5688 5.30942 43.3507 2.70018 42.6733 0.192799C42.6425 0.133255 42.6365 0.0639708 42.6565 0Z" fill="white"/>
<path d="M41.3142 12.6575C41.0437 12.7147 40.7669 12.7357 40.491 12.7199C39.2712 12.7572 38.0552 12.5643 36.9069 12.1511C36.3021 11.9188 35.7273 11.6148 35.1949 11.2455C35.0349 11.1351 35.0405 11.1071 35.2229 11.0175C35.7289 10.7921 36.2704 10.6568 36.8229 10.6175C36.9829 10.5991 37.1509 10.5863 37.3141 10.5695C37.3525 10.5695 37.4021 10.5695 37.4173 10.5199C37.4325 10.4703 37.3949 10.4551 37.3717 10.4319C36.907 9.95744 36.4943 9.43474 36.1405 8.87267C35.661 8.1019 35.3097 7.2584 35.1005 6.37506C34.9595 5.79218 34.8714 5.19777 34.8373 4.59905C34.8373 4.56625 34.8133 4.52943 34.8741 4.49023C36.2189 7.81186 38.1221 10.7071 41.3142 12.6575Z" fill="white"/>
<path d="M42.7534 12.6849C42.9982 12.5249 43.2446 12.3849 43.4894 12.2361C44.5134 11.6191 45.4622 10.8851 46.3166 10.0489C47.4805 8.91762 48.3882 7.54976 48.9783 6.03768C49.1631 5.55881 49.3107 5.06641 49.4199 4.56487C49.4265 4.49569 49.4564 4.4308 49.5047 4.38086C49.5047 4.53366 49.5263 4.66247 49.5263 4.79287C49.5311 6.57535 48.914 8.3037 47.7814 9.68012C47.4671 10.0689 47.1322 10.4406 46.7783 10.7937C46.7319 10.8401 46.6454 10.8737 46.6806 10.9633C46.7158 11.0529 46.795 11.0353 46.8646 11.0433C47.5728 11.1292 48.2616 11.3334 48.9022 11.6473C48.9222 11.6473 48.9431 11.6713 48.9375 11.7273C46.8267 11.4082 44.6688 11.7423 42.7534 12.6849Z" fill="white"/>
<path d="M42.4646 13.3416C44.8866 13.5395 47.3234 13.2364 49.6231 12.4512C49.477 12.65 49.3008 12.8246 49.1006 12.9688C48.2858 13.5396 47.3681 13.9471 46.3982 14.1688C46.2382 14.2096 46.2142 14.2592 46.3118 14.388C46.5119 14.7009 46.7541 14.9846 47.0318 15.2312C47.1027 15.2728 47.1568 15.3379 47.1847 15.4152C45.4152 15.3056 43.7422 14.5707 42.4646 13.3416Z" fill="white"/>
<path d="M36.807 15.0781C36.899 14.6811 37.1087 14.3211 37.4086 14.0453C37.5358 13.9253 37.5286 13.8797 37.3646 13.8389C36.9404 13.7152 36.5416 13.5169 36.187 13.2533C35.624 12.8486 35.0992 12.3934 34.619 11.8932C34.5919 11.8577 34.5673 11.8203 34.5454 11.7812C36.6485 12.774 38.9439 13.2928 41.2695 13.3013C39.6415 13.4499 38.0916 14.067 36.807 15.0781Z" fill="white"/>
</svg>
