<svg width="24" height="24" viewBox="0 0 24 24" fill="none" xmlns="http://www.w3.org/2000/svg">
<g clip-path="url(#clip0_0_692)">
<path d="M23.707 22.2928L17.738 16.3238C19.3647 14.3344 20.1644 11.7959 19.9719 9.23335C19.7793 6.67082 18.6093 4.28032 16.7036 2.5563C14.798 0.832293 12.3026 -0.0933258 9.73367 -0.029094C7.16472 0.0351379 4.71873 1.08431 2.90164 2.9014C1.08455 4.71849 0.035382 7.16448 -0.0288498 9.73343C-0.0930817 12.3024 0.832537 14.7977 2.55655 16.7034C4.28056 18.609 6.67106 19.7791 9.23359 19.9716C11.7961 20.1642 14.3346 19.3644 16.324 17.7378L22.293 23.7068C22.4816 23.889 22.7342 23.9897 22.9964 23.9875C23.2586 23.9852 23.5095 23.88 23.6949 23.6946C23.8803 23.5092 23.9854 23.2584 23.9877 22.9962C23.99 22.734 23.8892 22.4814 23.707 22.2928ZM10 17.9998C8.41778 17.9998 6.87106 17.5306 5.55547 16.6515C4.23987 15.7725 3.21449 14.5231 2.60899 13.0613C2.00349 11.5994 1.84506 9.99091 2.15374 8.43906C2.46243 6.88722 3.22435 5.46175 4.34317 4.34293C5.462 3.22411 6.88746 2.46218 8.43931 2.1535C9.99116 1.84482 11.5997 2.00325 13.0615 2.60875C14.5233 3.21425 15.7727 4.23963 16.6518 5.55522C17.5308 6.87082 18 8.41754 18 9.99979C17.9977 12.1208 17.154 14.1542 15.6543 15.654C14.1545 17.1538 12.121 17.9974 10 17.9998Z" fill="white"/>
<path d="M7.71362 12.8219C7.65108 13.1411 7.63609 13.3567 7.63519 13.3707L7.5974 13.9427L8.14445 13.9084C8.18118 13.9062 8.84488 13.86 9.59461 13.5356V14.8813H10.5578V13.5355C11.3075 13.86 11.9712 13.9061 12.008 13.9084L12.5549 13.9427L12.5172 13.3707C12.5163 13.3567 12.5013 13.1411 12.4388 12.8219C13.486 12.6137 14.2515 11.7325 14.2877 11.6902L14.5762 11.3531L14.2868 11.0169C14.2629 10.9891 13.8329 10.4958 13.1856 10.1585C13.8844 9.1106 13.9592 7.87916 13.9624 7.81926L13.9927 7.25614L13.4545 7.28785C13.4025 7.29091 12.4303 7.35551 11.5029 7.91232C11.3638 6.3048 10.4652 5.30597 10.4238 5.26085L10.0762 4.88135L9.72853 5.26079C9.68721 5.3059 8.78863 6.30477 8.64945 7.91228C7.722 7.35541 6.74984 7.29084 6.69789 7.28778L6.1597 7.25607L6.19001 7.8192C6.19322 7.87913 6.26799 9.11053 6.96671 10.1584C6.31949 10.4957 5.88943 10.9891 5.86554 11.0168L5.57617 11.3531L5.86464 11.6901C5.90089 11.7325 6.66636 12.6138 7.71362 12.8219ZM7.88754 10.8805L8.805 10.6959C7.76043 9.65457 8.10262 10.0016 8.03298 9.92876C7.59547 9.47095 7.37272 8.86338 7.2608 8.40822C7.696 8.52536 8.27657 8.7584 8.71405 9.21615C8.81515 9.32193 8.34839 8.82011 9.70567 10.2998C9.62573 9.02147 9.59461 8.80177 9.59461 8.33059C9.59461 7.53342 9.84912 6.89135 10.0762 6.47724C10.3034 6.89165 10.5578 7.53355 10.5578 8.33059C10.5578 8.80147 10.5266 9.02238 10.4467 10.2998C11.7991 8.82542 11.3402 9.31877 11.4383 9.21615C11.8759 8.75837 12.4565 8.5253 12.8915 8.40819C12.7092 9.1496 12.3803 9.68558 12.0796 9.96706C12.0102 10.032 12.0653 9.9802 11.3473 10.6959L12.2648 10.8805C12.6353 10.955 12.9696 11.1666 13.2073 11.3551C12.8561 11.6352 12.3307 11.9081 11.9498 11.851C11.8523 11.8364 11.8968 11.8441 11.1268 11.7599C11.3394 12.4386 11.3817 12.5425 11.4418 12.784C11.1168 12.6951 10.7122 12.5419 10.348 12.2813L10.0761 12.0868L9.8043 12.2813C9.4388 12.5429 9.03469 12.696 8.71035 12.7847C8.77139 12.5393 8.81534 12.431 9.02554 11.7599C8.23454 11.8464 8.29847 11.8366 8.20257 11.851C7.81685 11.9088 7.29676 11.6357 6.94491 11.3551C7.18269 11.1666 7.51701 10.955 7.88754 10.8805Z" fill="white"/>
</g>
<defs>
<clipPath id="clip0_0_692">
<rect width="24" height="24" fill="white"/>
</clipPath>
</defs>
</svg>
