<svg width="32" height="32" viewBox="0 0 32 32" fill="none" xmlns="http://www.w3.org/2000/svg">
<g clip-path="url(#clip0_2139_13715)">
<path d="M28.0156 0H21.375C20.6415 0 20.0468 0.595625 20.0468 1.33031C20.0468 2.065 20.6415 2.66062 21.375 2.66062H27.4658L18.392 11.7494C13.4812 7.86944 6.36003 8.71162 2.48647 13.6305C-1.38709 18.5494 -0.546343 25.6823 4.36441 29.5623C9.27516 33.4422 16.3963 32.6001 20.2699 27.6812C23.5143 23.5614 23.5143 17.7504 20.2699 13.6306L29.3438 4.54175V10.6426C29.3438 11.3774 29.9384 11.9729 30.6719 11.9729C31.4054 11.9729 32 11.3773 32 10.6426V3.991C32 1.78681 30.2162 0 28.0156 0ZM11.4139 29.2672C6.64609 29.2672 2.78103 25.3958 2.78103 20.6201C2.78103 15.8444 6.64609 11.9729 11.4139 11.9729C16.1817 11.9729 20.0468 15.8444 20.0468 20.6201C20.041 25.3933 16.1793 29.2613 11.4139 29.2672Z" fill="#DAA930"/>
</g>
<defs>
<clipPath id="clip0_2139_13715">
<rect width="32" height="32" fill="white"/>
</clipPath>
</defs>
</svg>
