<svg width="190" height="80" viewBox="0 0 190 80" fill="none" xmlns="http://www.w3.org/2000/svg">
<path d="M130.619 14.3857C130.41 15.5714 129.64 18.1554 129.019 20.1074C126.715 27.0178 117.363 51.0308 110.107 68.5366C105.571 79.4918 105.712 79.2118 105.013 79.5622C103.909 80.1878 100.693 80.2582 99.9183 79.0022C99.9742 78.1126 100.187 77.24 100.547 76.4246C101.037 75.1686 102.848 70.4246 104.597 65.8181C106.272 61.2821 107.738 57.3733 107.738 57.2325C107.245 55.7909 106.435 54.4785 105.366 53.3924C104.246 52.2068 102.296 50.8772 102.086 51.1524C102.016 51.2228 100.901 53.8725 99.5759 57.0133C95.9455 65.9477 95.8063 66.1541 93.2959 66.5045C91.7614 66.7141 89.667 66.0246 89.387 65.2485C89.2478 64.6197 89.8062 63.0181 92.947 55.5476C94.203 52.4772 95.2479 49.8964 95.1775 49.826C93.1771 49.9383 91.2033 50.3376 89.3166 51.0116C88.2126 51.3796 85.4766 52.5476 83.2462 53.5892C77.1757 56.45 72.7805 55.5397 79.4797 51.0116C83.7766 48.3022 88.7071 46.7628 93.7822 46.546L96.8527 46.3364L100.622 37.7555C105.717 26.2354 109.344 18.7746 110.253 18.0754C110.77 17.7187 111.375 17.5106 112.002 17.4737C112.629 17.4367 113.254 17.5723 113.81 17.8658C114.299 18.2162 114.299 18.2818 113.88 19.957C112.974 23.237 109.624 32.1059 103.344 47.73C103.274 47.8692 103.904 48.4292 104.739 48.834C105.837 49.5497 106.865 50.3666 107.81 51.274C108.316 51.8266 108.905 52.2973 109.555 52.6692C109.626 52.5924 111.027 49.1796 112.626 44.9892C120.442 25.1714 124.837 15.1921 126.983 12.4017C128.823 10.0609 131.403 10.2001 130.619 14.3857Z" fill="url(#paint0_linear_1817_4897)"/>
<path d="M141.67 47.7411C139.607 49.1251 137.381 50.2504 135.043 51.0916C133.789 51.4596 133.648 51.5812 132.465 53.5364C128.206 61.0021 117.809 64.4917 118.299 54.8612C118.579 49.4868 122.555 41.4611 127.579 36.1602C128.434 35.3251 129.183 34.3879 129.809 33.3698C130.579 31.4146 137.414 33.5106 135.045 34.1362C134.069 34.4163 128.694 42.2963 126.184 47.1875C124.019 51.4436 123.184 53.954 123.184 56.3284C123.184 62.6789 128.974 55.2244 130.021 53.4676L131.206 51.5124L130.102 51.162C129.534 50.9713 129.027 50.6316 128.635 50.1782C128.242 49.7248 127.979 49.1743 127.872 48.5844C127.453 46.2803 129.267 41.9587 132.267 38.0482C133.102 36.8594 136.803 32.0482 137.421 36.1635C137.84 38.7411 136.445 45.2339 134.701 49.2835C134.333 50.0531 135.12 49.8435 137.771 48.4483C139.656 47.5395 140.491 47.2628 140.981 47.3444C141.379 47.4644 141.67 47.6019 141.67 47.7411ZM135.043 38.5378C135.043 37.7714 135.043 37.7715 134.624 38.2611C133.138 40.6706 131.987 43.2717 131.205 45.9923C131.002 46.5877 130.93 47.2196 130.993 47.8452C131.057 48.4709 131.255 49.0755 131.573 49.618C131.923 50.1076 132.062 49.8979 133.173 46.9667C134.078 44.2241 134.704 41.3969 135.04 38.5283L135.043 38.5378Z" fill="url(#paint1_linear_1817_4897)"/>
<path d="M163.917 44.8803C164.613 45.2307 159.242 55.2804 156.73 58.3508C154.355 61.1412 148.915 63.3029 148.075 58.4212C148.028 57.9404 147.91 57.4693 147.725 57.0228C147.173 57.5428 146.66 58.1027 146.19 58.698C145.467 59.5813 144.622 60.3571 143.68 61.0021C136.686 64.6821 137.053 55.562 138.099 51.3716C139.674 45.71 142.147 40.3381 145.426 35.461C146.821 32.741 150.03 35.7411 150.101 36.2307C150.101 36.3011 149.541 37.3347 148.915 38.5315C144.379 46.4163 140.539 58.7796 142.494 59.3316C143.583 58.5781 144.548 57.6605 145.355 56.6116C147.866 53.818 147.866 53.7508 148.635 51.0276C149.887 46.0863 151.963 41.3916 154.776 37.141C155.237 36.5225 155.609 35.8423 155.88 35.1203C156.856 32.3266 160.485 35.397 160.555 35.8866C160.555 36.0258 145.97 67.2197 155.671 56.4036C158.439 53.262 160.7 49.7071 162.371 45.8675C162.655 44.9459 163.288 44.5459 163.917 44.8803Z" fill="url(#paint2_linear_1817_4897)"/>
<path d="M170.965 49.3316C170.019 49.3901 169.083 49.5543 168.175 49.8212L167.071 50.1716L166.93 53.0324C166.37 64.4069 155.624 59.3829 155.624 56.1028C155.624 55.1972 159.6 51.9172 161.974 50.7972L162.739 50.4516L162.81 43.962C162.949 37.4723 162.949 37.4019 163.65 36.0067C165.534 31.7506 172.021 31.8914 172.021 35.7971C171.951 38.3107 170.549 40.6115 169.077 40.6115C168.101 40.6115 168.101 40.2435 168.867 39.0115C169.386 38.179 169.607 37.1955 169.496 36.2211C169.496 34.4067 170.056 34.4067 168.591 34.4067C167.821 34.4067 167.541 34.5474 167.118 35.3826C166.21 37.1971 166.015 39.2227 166.349 44.0372C166.559 46.4772 166.717 48.5028 166.768 48.5732C167.145 48.5673 167.519 48.4964 167.872 48.3636C169.503 47.9521 171.214 47.9764 172.832 48.434C173.544 48.9972 172.989 49.2756 170.965 49.3316ZM162.866 52.1252L160.774 53.5204C159.792 54.1977 158.859 54.9429 157.981 55.7508C156.45 57.3508 160.005 58.4708 160.845 57.9908C161.998 56.8686 162.673 55.3433 162.726 53.7348L162.866 52.1252Z" fill="url(#paint3_linear_1817_4897)"/>
<path d="M188.201 48.2276C184.64 54.6484 181.36 58.0677 177.871 58.9733C171.455 60.6485 169.429 55.5525 170.876 49.8324C174.781 34.4115 188.808 30.0147 187.836 38.1811C187.174 41.4444 185.304 44.3373 182.6 46.2804C182.021 46.5774 181.383 46.7438 180.733 46.7678C180.082 46.7919 179.434 46.673 178.834 46.4196C178.415 46.0036 178.344 46.4196 177.3 49.49C176.723 51.0274 176.461 52.6653 176.53 54.306C176.53 56.6805 176.53 56.7509 177.16 56.8821C179.181 57.1621 185.602 50.5348 187.697 45.93C188.397 44.458 188.602 44.1844 189.233 44.1844C190.221 44.178 190.074 44.8116 188.201 48.2276ZM184.921 39.5763C186.521 30.7763 179.895 42.7172 179.546 44.1124C178.57 47.882 183.805 45.8612 184.921 39.5811V39.5763Z" fill="url(#paint4_linear_1817_4897)"/>
<path d="M46.5145 27.9042C45.8793 27.8217 45.2841 27.548 44.808 27.1193C44.3319 26.6907 43.9974 26.1274 43.8489 25.5042C43.8489 24.2242 45.8473 22.0578 47.529 21.3442C47.1946 21.7346 45.6874 24.0642 46.0266 24.0642C49.9738 24.0642 57.9802 18.2258 57.9802 13.3873C57.9802 10.9425 55.4762 9.83047 53.033 9.83047C37.8025 9.83047 6.01022 37.4419 5.06461 54.5188C4.84381 57.7957 6.12065 60.2437 11.2343 59.7989C23.3496 58.6949 44.0345 41.3443 53.089 33.2306C42.1401 34.3347 27.5208 38.7347 27.5208 41.4579C27.5208 42.0099 25.5176 40.0179 25.5176 38.1219C25.5176 33.1747 47.3081 31.285 51.865 31.285C58.3114 31.285 63.6459 33.0627 63.9259 33.8947C61.3375 33.3036 58.6878 33.0243 56.033 33.0627C59.0331 33.6179 59.9802 36.9539 59.0922 36.1731C58.257 35.5619 56.809 36.1731 54.921 37.5651C44.4185 45.234 35.2984 60.0741 32.244 67.6901C31.4194 69.5981 30.8943 71.622 30.6872 73.6902C30.6872 74.0806 30.8568 74.0806 30.8568 74.191C30.8568 74.3014 30.8008 74.415 30.5768 74.415C30.0216 74.415 29.3544 73.679 29.3544 72.6373C29.3544 64.0741 35.9145 51.738 41.0345 45.5683C32.3609 52.5156 18.4743 62.7973 9.00546 63.3525C3.44702 63.6869 0.0565593 60.4629 0.000558898 55.4036C-0.159442 34.5603 34.0728 8.71527 53.249 8.71527C55.969 8.71527 60.4763 9.9953 60.4763 14.0497C60.4667 20.405 52.5178 27.9042 46.5145 27.9042Z" fill="url(#paint5_linear_1817_4897)"/>
<path d="M69.9499 37.8147C69.5644 38.4763 69.213 39.1572 68.8971 39.8547C68.3515 40.9747 67.3322 42.8851 66.5818 44.1395C64.2042 48.0163 61.0602 46.7939 62.6394 41.1939C63.4325 38.5115 64.5614 35.9402 65.9995 33.541C66.3051 33.0322 66.441 32.7602 66.305 32.7234C65.8397 32.5302 65.3354 32.4496 64.833 32.4882C64.7994 32.5218 64.2218 33.781 63.5402 35.2754C62.8068 37.1276 61.8959 38.9044 60.8202 40.5811C60.5482 40.8531 59.833 40.9491 59.7002 40.7539C59.884 40.2161 60.1311 39.7021 60.4362 39.2227C61.7921 36.98 62.9522 34.6246 63.9034 32.1826C63.9034 32.0802 63.7338 31.9426 63.5354 31.8402C62.8944 31.5273 62.3763 31.0092 62.0634 30.3682C61.8912 29.8552 61.8384 29.3095 61.9091 28.773C61.9798 28.2364 62.1721 27.7231 62.4714 27.2722C64.3754 23.4994 67.401 24.5186 65.6714 29.9266C65.498 30.3749 65.384 30.8439 65.3322 31.3218C65.8525 31.7002 66.4909 31.8801 67.1322 31.829C67.8599 31.8301 68.5829 31.9456 69.2747 32.1714C69.3115 32.205 69.1755 32.3746 69.0027 32.5394C67.5086 35.4589 66.2575 38.4963 65.2619 41.6211C64.3787 44.3747 64.4811 44.7827 65.7035 43.2851C67.0457 41.542 68.1593 39.6342 69.0171 37.6083L69.3851 36.5891L69.9291 36.5522C70.6635 36.4898 70.6635 36.6258 69.9499 37.8147ZM65.3258 26.1153C64.792 27.1795 64.4575 28.3324 64.3387 29.517C64.3387 30.2306 64.4042 30.5698 64.5738 30.437C64.7226 30.0014 64.8455 29.5575 64.9418 29.1074C65.3258 27.717 65.5274 25.8833 65.3258 26.1153Z" fill="url(#paint6_linear_1817_4897)"/>
<path d="M77.1242 37.9507C75.3898 41.0803 73.793 42.7363 72.0922 43.1891C68.9625 44.0019 67.9769 41.5219 68.6905 38.7347C70.5929 31.2146 77.4298 29.0738 76.9546 33.0547C76.6329 34.6442 75.721 36.0528 74.4026 36.9971C74.1187 37.1405 73.8073 37.221 73.4894 37.2331C73.1716 37.2453 72.855 37.1888 72.561 37.0675C72.3594 36.8611 72.3225 37.0675 71.8249 38.5619C71.5466 39.3124 71.4215 40.1111 71.457 40.9107C71.457 42.066 71.4569 42.0995 71.7625 42.1699C72.7497 42.3059 75.8778 39.0739 76.8986 36.8275C77.241 36.1139 77.3402 35.9779 77.6346 35.9779C78.1114 35.9715 78.041 36.2915 77.1242 37.9507ZM75.5242 33.7363C76.305 29.4514 73.0762 35.2643 72.9034 35.9443C72.4298 37.7811 74.9818 36.8131 75.5258 33.7315L75.5242 33.7363Z" fill="url(#paint7_linear_1817_4897)"/>
<path d="M84.5739 37.9507C82.8395 41.0803 81.2603 42.7363 79.5419 43.1891C76.4123 44.0019 75.4266 41.5219 76.1402 38.7347C78.0443 31.2146 84.8795 29.0738 84.4043 33.0547C84.0826 34.6442 83.1708 36.0528 81.8523 36.9971C81.5686 37.1402 81.2575 37.2206 80.94 37.2328C80.6225 37.2449 80.3061 37.1886 80.0123 37.0675C79.8091 36.8611 79.7723 37.0675 79.2763 38.5619C78.9979 39.3124 78.8727 40.1111 78.9083 40.9107C78.9083 42.066 78.9083 42.0995 79.2139 42.1699C80.2011 42.3059 83.3291 39.0739 84.3499 36.8275C84.6923 36.1139 84.7915 35.9779 85.0859 35.9779C85.5595 35.9715 85.4891 36.2915 84.5739 37.9507ZM82.9739 33.7363C83.7547 29.4514 80.5259 35.2643 80.3531 35.9443C79.8779 37.7811 82.4299 36.8131 82.9739 33.7315V33.7363Z" fill="url(#paint8_linear_1817_4897)"/>
<path d="M95.0127 37.1827C95.1823 37.3523 94.7071 38.3379 93.4127 40.5811C89.5727 47.1779 86.4766 45.6835 88.7886 38.5747C89.4348 36.6972 90.2544 34.8841 91.2367 33.1587C91.6047 32.5442 91.6047 32.5106 91.3391 32.6466C90.032 33.6911 88.8564 34.8902 87.8382 36.2179C85.8638 38.8387 84.2319 42.0387 84.2319 43.2563V43.9379H82.939C81.3086 43.9379 81.0974 43.8339 81.5102 43.2899C82.5437 41.4817 83.4066 39.5813 84.0878 37.6131C84.9374 35.5699 85.7887 33.5634 85.9951 33.1218C86.2301 32.6296 86.4233 32.1184 86.5726 31.5938C86.7758 30.8098 87.0526 30.4738 87.4558 30.4738C87.7966 30.5607 88.1271 30.6841 88.4415 30.8418L89.2222 31.2098L88.7806 31.821C88.1735 32.8779 87.6801 33.9962 87.3087 35.1571C87.3087 35.1907 87.9199 34.5794 88.7039 33.7954C89.5943 32.6059 90.9154 31.8127 92.3839 31.5858C95.3775 31.3138 92.8959 34.6787 92.0447 36.8547C90.4447 41.0035 89.8686 43.1123 90.3102 43.1123C91.7616 41.6438 92.9572 39.943 93.8479 38.0803C94.3983 37.1827 94.7407 36.8979 95.0127 37.1827Z" fill="url(#paint9_linear_1817_4897)"/>
<path d="M79.7531 13.8849C79.7499 13.7619 79.7563 13.6389 79.7723 13.5169C79.8247 11.6816 80.0627 9.85625 80.4827 8.06885C81.0511 5.60714 82.1759 3.30832 83.7707 1.34878C84.004 1.05328 84.2586 0.775225 84.5323 0.516787C84.6203 0.435187 84.6923 0.259197 84.8299 0.318397C84.9675 0.377597 84.9147 0.553568 84.9227 0.686369C84.9851 1.72158 85.0443 2.752 85.0955 3.78561C85.2022 5.91896 85.2417 8.05925 85.2139 10.2065C85.1915 11.9857 85.0848 13.759 84.8939 15.5265C84.7511 16.9894 84.5138 18.4415 84.1835 19.8737C83.9361 21.0015 83.5604 22.0972 83.0635 23.1394C83.0202 23.2823 82.9256 23.4042 82.7979 23.4818C81.0939 17.5073 77.1579 13.2225 72.3242 9.60646C75.1748 10.2521 77.7498 11.7786 79.6842 13.9697L79.7531 13.8849Z" fill="url(#paint10_linear_1817_4897)"/>
<path d="M85.3131 0C86.7364 2.11531 87.8406 4.42865 88.5899 6.86563C89.3053 9.29446 89.5096 11.8452 89.1899 14.3569C89.2923 14.4017 89.3227 14.3345 89.3595 14.2945C90.6735 12.8801 92.3367 11.8366 94.182 11.2689C95.0745 10.9687 95.9871 10.7324 96.9132 10.5617C97.1788 10.5105 97.2812 10.5617 97.1532 10.8417C96.349 12.8681 95.2846 14.7812 93.9868 16.5329C93.2173 17.5894 92.3552 18.5752 91.4108 19.4786C90.3964 20.4438 89.3053 21.3251 88.1483 22.1138C87.2987 22.685 86.4107 23.1922 85.5163 23.6898C85.4379 23.7346 85.3563 23.8258 85.2619 23.7554C85.1675 23.685 85.2618 23.5826 85.2842 23.4978C85.9216 20.9645 86.373 18.388 86.6346 15.7889C87.1377 10.6188 86.7013 5.40036 85.3466 0.385599C85.2851 0.26651 85.273 0.127942 85.3131 0Z" fill="url(#paint11_linear_1817_4897)"/>
<path d="M82.6286 25.3154C82.0877 25.4297 81.5341 25.4717 80.9822 25.4402C78.5426 25.5149 76.1107 25.1289 73.8141 24.3026C72.6044 23.838 71.4549 23.2299 70.3901 22.4913C70.0701 22.2705 70.0813 22.2145 70.4461 22.0353C71.4581 21.5846 72.541 21.3139 73.6461 21.2353C73.9661 21.1985 74.3021 21.1729 74.6285 21.1393C74.7053 21.1393 74.8045 21.1394 74.8349 21.0402C74.8653 20.941 74.7901 20.9105 74.7437 20.8641C73.8142 19.9153 72.9888 18.8698 72.2813 17.7457C71.3222 16.2042 70.6197 14.5172 70.2013 12.7505C69.9193 11.5847 69.7431 10.3959 69.6749 9.19846C69.6749 9.13286 69.6269 9.05924 69.7485 8.98083C72.4381 15.6241 76.2445 21.4146 82.6286 25.3154Z" fill="url(#paint12_linear_1817_4897)"/>
<path d="M85.5068 25.3714C85.9964 25.0514 86.4892 24.7714 86.9788 24.4738C89.0268 23.2397 90.9243 21.7717 92.6333 20.0994C94.9611 17.8368 96.7764 15.101 97.9565 12.0769C98.3261 11.1191 98.6214 10.1344 98.8398 9.13127C98.8529 8.99291 98.9128 8.86313 99.0094 8.76324C99.0094 9.06885 99.0525 9.32647 99.0525 9.58727C99.0622 13.1522 97.828 16.6089 95.5629 19.3618C94.9342 20.1394 94.2645 20.8828 93.5565 21.589C93.4637 21.6818 93.2909 21.7489 93.3613 21.9281C93.4317 22.1073 93.5901 22.0722 93.7293 22.0882C95.1457 22.26 96.5232 22.6684 97.8045 23.2962C97.8445 23.2962 97.8861 23.3442 97.8749 23.4562C93.6534 22.8178 89.3376 23.4861 85.5068 25.3714Z" fill="url(#paint13_linear_1817_4897)"/>
<path d="M84.9292 26.685C89.7732 27.0807 94.6467 26.4745 99.2461 24.9042C98.9541 25.3017 98.6015 25.6511 98.2013 25.9394C96.5716 27.081 94.7362 27.8961 92.7964 28.3394C92.4764 28.421 92.4285 28.5202 92.6237 28.7778C93.0237 29.4036 93.5082 29.9711 94.0636 30.4642C94.2053 30.5475 94.3135 30.6777 94.3693 30.8322C90.8304 30.6131 87.4845 29.1432 84.9292 26.685Z" fill="url(#paint14_linear_1817_4897)"/>
<path d="M73.614 30.157C73.798 29.3631 74.2174 28.6431 74.8173 28.0914C75.0717 27.8514 75.0572 27.7602 74.7292 27.6786C73.8808 27.4314 73.0832 27.0348 72.374 26.5074C71.248 25.6982 70.1983 24.7877 69.238 23.7874C69.1838 23.7163 69.1345 23.6415 69.0908 23.5634C73.297 25.5488 77.8878 26.5866 82.5389 26.6034C79.2831 26.9007 76.1831 28.135 73.614 30.157Z" fill="url(#paint15_linear_1817_4897)"/>
<defs>
<linearGradient id="paint0_linear_1817_4897" x1="55.8993" y1="45.4403" x2="199.726" y2="45.4403" gradientUnits="userSpaceOnUse">
<stop stop-color="#7A5100"/>
<stop offset="0.3" stop-color="#E9BA46"/>
<stop offset="0.55" stop-color="#C08B09"/>
<stop offset="0.79" stop-color="#EEC95E"/>
<stop offset="1" stop-color="#865800"/>
</linearGradient>
<linearGradient id="paint1_linear_1817_4897" x1="55.8828" y1="46.6443" x2="199.766" y2="46.6443" gradientUnits="userSpaceOnUse">
<stop stop-color="#7A5100"/>
<stop offset="0.3" stop-color="#E9BA46"/>
<stop offset="0.55" stop-color="#C08B09"/>
<stop offset="0.79" stop-color="#EEC95E"/>
<stop offset="1" stop-color="#865800"/>
</linearGradient>
<linearGradient id="paint2_linear_1817_4897" x1="55.8991" y1="47.9096" x2="199.749" y2="47.9096" gradientUnits="userSpaceOnUse">
<stop stop-color="#7A5100"/>
<stop offset="0.3" stop-color="#E9BA46"/>
<stop offset="0.55" stop-color="#C08B09"/>
<stop offset="0.79" stop-color="#EEC95E"/>
<stop offset="1" stop-color="#865800"/>
</linearGradient>
<linearGradient id="paint3_linear_1817_4897" x1="55.8871" y1="46.4913" x2="199.751" y2="46.4913" gradientUnits="userSpaceOnUse">
<stop stop-color="#7A5100"/>
<stop offset="0.3" stop-color="#E9BA46"/>
<stop offset="0.55" stop-color="#C08B09"/>
<stop offset="0.79" stop-color="#EEC95E"/>
<stop offset="1" stop-color="#865800"/>
</linearGradient>
<linearGradient id="paint4_linear_1817_4897" x1="55.9061" y1="46.7211" x2="199.752" y2="46.7211" gradientUnits="userSpaceOnUse">
<stop stop-color="#7A5100"/>
<stop offset="0.3" stop-color="#E9BA46"/>
<stop offset="0.55" stop-color="#C08B09"/>
<stop offset="0.79" stop-color="#EEC95E"/>
<stop offset="1" stop-color="#865800"/>
</linearGradient>
<linearGradient id="paint5_linear_1817_4897" x1="5.49762" y1="61.2094" x2="116.622" y2="-5.1292" gradientUnits="userSpaceOnUse">
<stop stop-color="#32B66C"/>
<stop offset="1" stop-color="#EAE113"/>
</linearGradient>
<linearGradient id="paint6_linear_1817_4897" x1="10.7593" y1="69.5376" x2="128.329" y2="50.6694" gradientUnits="userSpaceOnUse">
<stop stop-color="#32B66C"/>
<stop offset="1" stop-color="#EAE113"/>
</linearGradient>
<linearGradient id="paint7_linear_1817_4897" x1="13.9787" y1="74.655" x2="132.695" y2="30.1052" gradientUnits="userSpaceOnUse">
<stop stop-color="#32B66C"/>
<stop offset="1" stop-color="#EAE113"/>
</linearGradient>
<linearGradient id="paint8_linear_1817_4897" x1="16.11" y1="78.0139" x2="134.81" y2="33.4701" gradientUnits="userSpaceOnUse">
<stop stop-color="#32B66C"/>
<stop offset="1" stop-color="#EAE113"/>
</linearGradient>
<linearGradient id="paint9_linear_1817_4897" x1="18.4711" y1="81.7641" x2="130.472" y2="17.0133" gradientUnits="userSpaceOnUse">
<stop stop-color="#32B66C"/>
<stop offset="1" stop-color="#EAE113"/>
</linearGradient>
<linearGradient id="paint10_linear_1817_4897" x1="66.3523" y1="20.7703" x2="97.36" y2="15.8655" gradientUnits="userSpaceOnUse">
<stop stop-color="#32B66C"/>
<stop offset="0.74" stop-color="#DFB956"/>
<stop offset="1" stop-color="#BB912E"/>
</linearGradient>
<linearGradient id="paint11_linear_1817_4897" x1="66.6643" y1="21.403" x2="97.5239" y2="17.3986" gradientUnits="userSpaceOnUse">
<stop stop-color="#32B66C"/>
<stop offset="0.74" stop-color="#DFB956"/>
<stop offset="1" stop-color="#BB912E"/>
</linearGradient>
<linearGradient id="paint12_linear_1817_4897" x1="66.9174" y1="21.8765" x2="97.9864" y2="12.0517" gradientUnits="userSpaceOnUse">
<stop stop-color="#32B66C"/>
<stop offset="0.74" stop-color="#DFB956"/>
<stop offset="1" stop-color="#BB912E"/>
</linearGradient>
<linearGradient id="paint13_linear_1817_4897" x1="71.0941" y1="30.0715" x2="102.049" y2="19.552" gradientUnits="userSpaceOnUse">
<stop stop-color="#32B66C"/>
<stop offset="0.74" stop-color="#DFB956"/>
<stop offset="1" stop-color="#BB912E"/>
</linearGradient>
<linearGradient id="paint14_linear_1817_4897" x1="74.4063" y1="36.5351" x2="81.92" y2="14.1744" gradientUnits="userSpaceOnUse">
<stop stop-color="#32B66C"/>
<stop offset="0.74" stop-color="#DFB956"/>
<stop offset="1" stop-color="#BB912E"/>
</linearGradient>
<linearGradient id="paint15_linear_1817_4897" x1="70.0591" y1="28.0207" x2="81.1874" y2="4.40015" gradientUnits="userSpaceOnUse">
<stop stop-color="#32B66C"/>
<stop offset="0.74" stop-color="#DFB956"/>
<stop offset="1" stop-color="#BB912E"/>
</linearGradient>
</defs>
</svg>
