<svg width="80" height="80" viewBox="0 0 80 80" fill="none" xmlns="http://www.w3.org/2000/svg">
<g clip-path="url(#clip0_0_272)">
<path d="M62.4267 39.0383C62.4267 37.4172 61.7956 35.8925 60.6482 34.7457L52.3852 26.4834V20.6997C52.3852 14.6413 48.374 7.44711 41.853 3.41697C35.7672 -0.343408 30.2075 0.00876473 28.0658 0.00876473C12.5403 0.00876473 0 12.5722 0 28.0733C0 32.9574 1.15478 37.8469 3.33923 42.2139L7.96447 51.4638C9.18396 53.9022 9.38049 56.6695 8.51745 59.2568C6.30249 65.9041 2.63061 76.9155 2.63061 76.9155C2.12524 78.4322 3.25561 80.0002 4.85412 80.0002H30.0592C31.0681 80.0002 31.9635 79.355 32.2821 78.398L36.7688 64.9391H41.535C47.6141 64.9391 52.752 60.5873 53.7518 54.5919C54.0088 53.0507 54.2578 51.5584 54.4531 50.3804C54.7467 48.6238 54.8956 46.8276 54.8956 45.0417V44.858H56.6089C59.8169 44.8586 62.4267 42.2487 62.4267 39.0383Z" fill="#383838"/>
<path d="M72.6352 20.0836H67.6145C66.1381 20.0836 64.9375 18.8885 64.9375 17.406C64.9375 15.9259 66.1368 14.729 67.6145 14.729H72.6352C76.7392 14.729 79.9997 11.3995 79.9997 7.3645C79.9997 3.25073 76.6593 0 72.6352 0H62.5937C61.2992 0 60.25 1.04919 60.25 2.34375C60.25 3.6383 61.2992 4.6875 62.5937 4.6875H72.6352C74.1117 4.6875 75.3122 5.88257 75.3122 7.3645C75.3122 8.84521 74.1129 10.0415 72.6352 10.0415H67.6145C63.5105 10.0415 60.25 13.3716 60.25 17.406C60.25 21.5204 63.5905 24.7705 67.6145 24.7705H72.6352C74.1129 24.7705 75.3122 25.9668 75.3122 27.4475C75.3122 28.9282 74.1129 30.1245 72.6352 30.1245H70.1249C68.8303 30.1245 67.7811 31.1743 67.7811 32.4682V47.5311C67.7811 48.825 68.8303 49.8749 70.1249 49.8749C71.4194 49.8749 72.4686 48.825 72.4686 47.5311V34.812H72.6352C76.7392 34.812 79.9997 31.4825 79.9997 27.4475C79.9997 23.3337 76.6593 20.0836 72.6352 20.0836Z" fill="#383838"/>
<path d="M68.3561 55.3539L58.903 52.2026C58.743 53.1639 58.5618 54.251 58.3756 55.3655C58.2908 55.8733 58.1846 56.3726 58.0576 56.8621L66.8741 59.8009C67.1201 59.8827 67.3697 59.9217 67.6151 59.9217C68.5966 59.9217 69.5115 59.3004 69.8386 58.3184C70.2476 57.0903 69.5841 55.7628 68.3561 55.3539Z" fill="#383838"/>
</g>
<defs>
<clipPath id="clip0_0_272">
<rect width="80" height="80" fill="white"/>
</clipPath>
</defs>
</svg>
