<svg width="24" height="24" viewBox="0 0 24 24" fill="none" xmlns="http://www.w3.org/2000/svg">
<g clip-path="url(#clip0_0_1086)">
<path d="M19.333 14.6673C18.5769 14.6679 17.8323 14.8525 17.1635 15.2051C16.4947 15.5577 15.9217 16.0678 15.494 16.6913L8.98499 13.7523C9.44731 12.6359 9.4491 11.3819 8.98999 10.2643L15.49 7.31026C16.1239 8.22701 17.0653 8.88622 18.1436 9.1683C19.2219 9.45039 20.3655 9.33666 21.3671 8.84776C22.3687 8.35885 23.1619 7.52715 23.6028 6.50352C24.0438 5.47989 24.1032 4.33212 23.7704 3.26842C23.4375 2.20472 22.7345 1.29555 21.7887 0.705803C20.843 0.116062 19.7172 -0.11518 18.6155 0.0540236C17.5139 0.223227 16.5094 0.781669 15.7842 1.62805C15.0591 2.47444 14.6613 3.5527 14.663 4.66725C14.6672 4.93105 14.694 5.19401 14.743 5.45325L7.83299 8.59326C7.16933 7.97147 6.3385 7.55709 5.44257 7.40102C4.54663 7.24494 3.62462 7.35397 2.7898 7.71471C1.95498 8.07545 1.24372 8.67219 0.74339 9.43162C0.243061 10.191 -0.0245409 11.0801 -0.026539 11.9895C-0.0285372 12.8989 0.235155 13.7891 0.732142 14.5508C1.22913 15.3124 1.93777 15.9122 2.77099 16.2766C3.60422 16.641 4.52574 16.7541 5.42235 16.602C6.31896 16.4499 7.15161 16.0391 7.81799 15.4203L14.746 18.5483C14.6979 18.8073 14.6714 19.0699 14.667 19.3333C14.6668 20.2564 14.9404 21.1589 15.4531 21.9265C15.9658 22.6941 16.6947 23.2925 17.5476 23.6458C18.4004 23.9992 19.3388 24.0917 20.2442 23.9116C21.1496 23.7316 21.9813 23.2871 22.6341 22.6343C23.2868 21.9816 23.7313 21.1499 23.9114 20.2445C24.0914 19.3391 23.9989 18.4006 23.6455 17.5478C23.2922 16.695 22.6939 15.9661 21.9262 15.4534C21.1586 14.9406 20.2561 14.6671 19.333 14.6673ZM19.333 2.00025C19.8605 2.00005 20.3763 2.1563 20.815 2.44923C21.2537 2.74217 21.5957 3.15863 21.7977 3.64594C21.9997 4.13326 22.0527 4.66953 21.9499 5.18695C21.8471 5.70436 21.5932 6.17967 21.2202 6.55275C20.8473 6.92584 20.372 7.17995 19.8547 7.28294C19.3373 7.38592 18.801 7.33317 18.3136 7.13134C17.8262 6.92951 17.4096 6.58767 17.1165 6.14906C16.8234 5.71046 16.667 5.19478 16.667 4.66725C16.6675 3.96025 16.9485 3.28235 17.4484 2.78233C17.9482 2.28232 18.626 2.00104 19.333 2.00025ZM4.66699 14.6673C4.13947 14.6675 3.62373 14.5112 3.18502 14.2183C2.7463 13.9253 2.40431 13.5089 2.20229 13.0216C2.00028 12.5343 1.94732 11.998 2.05012 11.4806C2.15291 10.9632 2.40684 10.4878 2.77979 10.1148C3.15273 9.74167 3.62795 9.48756 4.14532 9.38458C4.66269 9.28159 5.19899 9.33435 5.68638 9.53618C6.17377 9.73801 6.59036 10.0798 6.88345 10.5184C7.17655 10.9571 7.33299 11.4727 7.33299 12.0003C7.3322 12.7072 7.0511 13.3849 6.55133 13.8849C6.05155 14.3848 5.37391 14.6662 4.66699 14.6673ZM19.333 22.0003C18.8055 22.0003 18.2899 21.8439 17.8513 21.5508C17.4127 21.2577 17.0709 20.8412 16.869 20.3539C16.6672 19.8666 16.6143 19.3303 16.7172 18.813C16.8201 18.2956 17.0742 17.8204 17.4471 17.4474C17.8201 17.0744 18.2953 16.8204 18.8127 16.7175C19.33 16.6146 19.8663 16.6674 20.3536 16.8693C20.8409 17.0711 21.2575 17.413 21.5505 17.8516C21.8436 18.2901 22 18.8058 22 19.3333C21.9995 20.0404 21.7183 20.7185 21.2183 21.2185C20.7182 21.7186 20.0402 21.9997 19.333 22.0003Z" fill="white"/>
</g>
<defs>
<clipPath id="clip0_0_1086">
<rect width="24" height="24" fill="white"/>
</clipPath>
</defs>
</svg>
