<svg width="24" height="24" viewBox="0 0 24 24" fill="none" xmlns="http://www.w3.org/2000/svg">
<mask id="path-1-inside-1_2722_13673" fill="white">
<path d="M18.6667 2H5.33333C4.44928 2 3.60143 2.35119 2.97631 2.97632C2.35119 3.60145 2 4.44931 2 5.33338L2 15.3335C2 16.2176 2.35119 17.0654 2.97631 17.6906C3.60143 18.3157 4.44928 18.6669 5.33333 18.6669H7.75L11.4592 21.8028C11.6096 21.9301 11.8004 22 11.9975 22C12.1946 22 12.3854 21.9301 12.5358 21.8028L16.25 18.6669H18.6667C19.5507 18.6669 20.3986 18.3157 21.0237 17.6906C21.6488 17.0654 22 16.2176 22 15.3335V5.33338C22 4.44931 21.6488 3.60145 21.0237 2.97632C20.3986 2.35119 19.5507 2 18.6667 2V2ZM20.3333 15.3335C20.3333 15.7756 20.1577 16.1995 19.8452 16.512C19.5326 16.8246 19.1087 17.0002 18.6667 17.0002H16.25C15.8561 17.0003 15.4749 17.14 15.1742 17.3944L12 20.0753L8.8275 17.3944C8.5263 17.1396 8.1445 16.9999 7.75 17.0002H5.33333C4.89131 17.0002 4.46738 16.8246 4.15482 16.512C3.84226 16.1995 3.66667 15.7756 3.66667 15.3335V5.33338C3.66667 4.89135 3.84226 4.46742 4.15482 4.15485C4.46738 3.84229 4.89131 3.66669 5.33333 3.66669H18.6667C19.1087 3.66669 19.5326 3.84229 19.8452 4.15485C20.1577 4.46742 20.3333 4.89135 20.3333 5.33338V15.3335Z"/>
</mask>
<path d="M18.6667 2H5.33333C4.44928 2 3.60143 2.35119 2.97631 2.97632C2.35119 3.60145 2 4.44931 2 5.33338L2 15.3335C2 16.2176 2.35119 17.0654 2.97631 17.6906C3.60143 18.3157 4.44928 18.6669 5.33333 18.6669H7.75L11.4592 21.8028C11.6096 21.9301 11.8004 22 11.9975 22C12.1946 22 12.3854 21.9301 12.5358 21.8028L16.25 18.6669H18.6667C19.5507 18.6669 20.3986 18.3157 21.0237 17.6906C21.6488 17.0654 22 16.2176 22 15.3335V5.33338C22 4.44931 21.6488 3.60145 21.0237 2.97632C20.3986 2.35119 19.5507 2 18.6667 2V2ZM20.3333 15.3335C20.3333 15.7756 20.1577 16.1995 19.8452 16.512C19.5326 16.8246 19.1087 17.0002 18.6667 17.0002H16.25C15.8561 17.0003 15.4749 17.14 15.1742 17.3944L12 20.0753L8.8275 17.3944C8.5263 17.1396 8.1445 16.9999 7.75 17.0002H5.33333C4.89131 17.0002 4.46738 16.8246 4.15482 16.512C3.84226 16.1995 3.66667 15.7756 3.66667 15.3335V5.33338C3.66667 4.89135 3.84226 4.46742 4.15482 4.15485C4.46738 3.84229 4.89131 3.66669 5.33333 3.66669H18.6667C19.1087 3.66669 19.5326 3.84229 19.8452 4.15485C20.1577 4.46742 20.3333 4.89135 20.3333 5.33338V15.3335Z" fill="white"/>
<path d="M18.6667 2V23.3333H40V2H18.6667ZM2 5.33338H-19.3333H2ZM2 15.3335H-19.3333H2ZM7.75 18.6669L21.5233 2.37559L15.5595 -2.66643H7.75V18.6669ZM11.4592 21.8028L25.2406 5.51834L25.2325 5.51147L11.4592 21.8028ZM11.9975 22V43.3333V22ZM12.5358 21.8028L-1.22667 5.50233L-1.23615 5.51033L-1.24561 5.51834L12.5358 21.8028ZM16.25 18.6669V-2.66643H8.4485L2.4875 2.36645L16.25 18.6669ZM18.6667 2V-19.3333H-2.66667V2H18.6667ZM16.25 17.0002V-4.33312L16.2434 -4.33312L16.25 17.0002ZM15.1742 17.3944L28.9394 33.6925L28.9455 33.6874L28.9515 33.6823L15.1742 17.3944ZM12 20.0753L-1.76947 36.3698L11.9964 48.0024L25.7652 36.3734L12 20.0753ZM8.8275 17.3944L-4.94985 33.6823L-4.94197 33.6889L8.8275 17.3944ZM7.75 17.0002V38.3335H7.75738L7.76476 38.3335L7.75 17.0002ZM3.66667 15.3335H-17.6667H3.66667ZM5.33333 3.66669V-17.6666V3.66669ZM18.6667 3.66669V-17.6666V3.66669ZM18.6667 -19.3333H5.33333V23.3333H18.6667V-19.3333ZM5.33333 -19.3333C-1.20877 -19.3333 -7.48287 -16.7345 -12.1087 -12.1085L18.0614 18.0612C14.6857 21.4368 10.1073 23.3333 5.33333 23.3333V-19.3333ZM-12.1087 -12.1085C-16.7346 -7.48259 -19.3333 -1.20854 -19.3333 5.33338H23.3333C23.3333 10.1072 21.437 14.6855 18.0614 18.0612L-12.1087 -12.1085ZM-19.3333 5.33338V15.3335H23.3333V5.33338H-19.3333ZM-19.3333 15.3335C-19.3333 21.8754 -16.7346 28.1495 -12.1087 32.7754L18.0614 2.60574C21.437 5.9814 23.3333 10.5597 23.3333 15.3335H-19.3333ZM-12.1087 32.7754C-7.48287 37.4013 -1.20878 40.0002 5.33333 40.0002V-2.66643C10.1073 -2.66643 14.6857 -0.769934 18.0614 2.60574L-12.1087 32.7754ZM5.33333 40.0002H7.75V-2.66643H5.33333V40.0002ZM-6.02332 34.9582L-2.31416 38.0941L25.2325 5.51147L21.5233 2.37559L-6.02332 34.9582ZM-2.32228 38.0872C1.68026 41.4746 6.754 43.3333 11.9975 43.3333V0.666666C16.8468 0.666666 21.539 2.38569 25.2406 5.51834L-2.32228 38.0872ZM11.9975 43.3333C17.241 43.3333 22.3147 41.4746 26.3173 38.0872L-1.24561 5.51834C2.45599 2.38569 7.14825 0.666666 11.9975 0.666666V43.3333ZM26.2983 38.1032L30.0125 34.9674L2.4875 2.36645L-1.22667 5.50233L26.2983 38.1032ZM16.25 40.0002H18.6667V-2.66643H16.25V40.0002ZM18.6667 40.0002C25.2088 40.0002 31.4829 37.4013 36.1087 32.7754L5.93864 2.60574C9.31426 -0.769932 13.8927 -2.66643 18.6667 -2.66643V40.0002ZM36.1087 32.7754C40.7346 28.1495 43.3333 21.8755 43.3333 15.3335H0.666666C0.666666 10.5597 2.56303 5.9814 5.93864 2.60574L36.1087 32.7754ZM43.3333 15.3335V5.33338H0.666666V15.3335H43.3333ZM43.3333 5.33338C43.3333 -1.20855 40.7346 -7.48259 36.1087 -12.1085L5.93864 18.0612C2.56302 14.6855 0.666666 10.1072 0.666666 5.33338H43.3333ZM36.1087 -12.1085C31.4829 -16.7344 25.2088 -19.3333 18.6667 -19.3333V23.3333C13.8927 23.3333 9.31426 21.4368 5.93864 18.0612L36.1087 -12.1085ZM-2.66667 2V2H40V2H-2.66667ZM-1 15.3335C-1 10.1177 1.07195 5.11543 4.76013 1.42721L34.9302 31.5969C39.2435 27.2835 41.6667 21.4334 41.6667 15.3335H-1ZM4.76013 1.42721C8.44831 -2.26102 13.4506 -4.33312 18.6667 -4.33312V38.3335C24.7668 38.3335 30.6169 35.9103 34.9302 31.5969L4.76013 1.42721ZM18.6667 -4.33312H16.25V38.3335H18.6667V-4.33312ZM16.2434 -4.33312C10.8072 -4.33145 5.54732 -2.40428 1.39682 1.10648L28.9515 33.6823C25.4025 36.6842 20.9049 38.3321 16.2566 38.3335L16.2434 -4.33312ZM1.40892 1.09625L-1.76525 3.77713L25.7652 36.3734L28.9394 33.6925L1.40892 1.09625ZM25.7695 3.78069L22.597 1.09982L-4.94197 33.6889L-1.76947 36.3698L25.7695 3.78069ZM22.6049 1.10648C18.4483 -2.40938 13.1794 -4.33688 7.73524 -4.33312L7.76476 38.3335C3.10962 38.3368 -1.39571 36.6886 -4.94985 33.6823L22.6049 1.10648ZM7.75 -4.33312H5.33333V38.3335H7.75V-4.33312ZM5.33333 -4.33312C10.5494 -4.33312 15.5517 -2.26103 19.2399 1.42721L-10.9302 31.5969C-6.61692 35.9103 -0.766753 38.3335 5.33333 38.3335V-4.33312ZM19.2399 1.42721C22.9281 5.11544 25 10.1177 25 15.3335H-17.6667C-17.6667 21.4334 -15.2435 27.2835 -10.9302 31.5969L19.2399 1.42721ZM25 15.3335V5.33338H-17.6667V15.3335H25ZM25 5.33338C25 10.5492 22.9281 15.5515 19.2399 19.2397L-10.9302 -10.93C-15.2435 -6.61662 -17.6667 -0.766505 -17.6667 5.33338H25ZM19.2399 19.2397C15.5517 22.9279 10.5494 25 5.33333 25V-17.6666C-0.76674 -17.6666 -6.61691 -15.2434 -10.9302 -10.93L19.2399 19.2397ZM5.33333 25H18.6667V-17.6666H5.33333V25ZM18.6667 25C13.4506 25 8.44832 22.9279 4.76013 19.2397L34.9302 -10.93C30.6169 -15.2434 24.7667 -17.6666 18.6667 -17.6666V25ZM4.76013 19.2397C1.07195 15.5515 -1 10.5492 -1 5.33338H41.6667C41.6667 -0.766518 39.2435 -6.61663 34.9302 -10.93L4.76013 19.2397ZM-1 5.33338V15.3335H41.6667V5.33338H-1Z" fill="white" mask="url(#path-1-inside-1_2722_13673)"/>
<path d="M7.85714 8H12.1429C12.3702 8 12.5882 7.89464 12.7489 7.70711C12.9097 7.51957 13 7.26522 13 7C13 6.73478 12.9097 6.48043 12.7489 6.29289C12.5882 6.10536 12.3702 6 12.1429 6H7.85714C7.62981 6 7.4118 6.10536 7.25105 6.29289C7.09031 6.48043 7 6.73478 7 7C7 7.26522 7.09031 7.51957 7.25105 7.70711C7.4118 7.89464 7.62981 8 7.85714 8Z" fill="white"/>
<path d="M16.1667 10H7.83333C7.61232 10 7.40036 10.0527 7.24408 10.1464C7.0878 10.2402 7 10.3674 7 10.5C7 10.6326 7.0878 10.7598 7.24408 10.8536C7.40036 10.9473 7.61232 11 7.83333 11H16.1667C16.3877 11 16.5996 10.9473 16.7559 10.8536C16.9122 10.7598 17 10.6326 17 10.5C17 10.3674 16.9122 10.2402 16.7559 10.1464C16.5996 10.0527 16.3877 10 16.1667 10Z" fill="white"/>
<path d="M16.1667 13H7.83333C7.61232 13 7.40036 13.1054 7.24408 13.2929C7.0878 13.4804 7 13.7348 7 14C7 14.2652 7.0878 14.5196 7.24408 14.7071C7.40036 14.8946 7.61232 15 7.83333 15H16.1667C16.3877 15 16.5996 14.8946 16.7559 14.7071C16.9122 14.5196 17 14.2652 17 14C17 13.7348 16.9122 13.4804 16.7559 13.2929C16.5996 13.1054 16.3877 13 16.1667 13Z" fill="white"/>
</svg>
