<svg width="16" height="16" viewBox="0 0 16 16" fill="none" xmlns="http://www.w3.org/2000/svg">
<mask id="path-1-inside-1_0_1061" fill="white">
<path d="M14.5051 11.4472C14.4518 11.4085 13.3702 10.6327 11.9443 10.3951C12.1174 10.2542 12.2868 10.1027 12.4498 9.93968C14.2182 8.17125 14.6442 5.65896 14.6615 5.5529C14.7044 5.28895 14.4758 5.05986 14.2114 5.10284C14.1056 5.12006 11.6048 5.54424 9.83703 7.30237C9.84937 7.11895 9.85617 6.93299 9.85617 6.74478C9.85617 3.94494 8.39414 1.58915 8.33189 1.49024C8.17828 1.24609 7.82168 1.24609 7.66806 1.49024C7.60581 1.58915 6.14378 3.94494 6.14378 6.74478C6.14378 6.93296 6.15058 7.11895 6.16292 7.30237C4.39518 5.54424 1.89436 5.12006 1.78853 5.10284C1.52454 5.05986 1.29547 5.28866 1.33847 5.5529C1.35575 5.65899 1.78174 8.17125 3.55019 9.93968C3.71317 10.1027 3.88253 10.2542 4.05568 10.3951C2.62978 10.6327 1.54812 11.4085 1.49489 11.4472C1.27952 11.6038 1.27994 11.9251 1.49489 12.0815C1.55782 12.1272 3.05668 13.2022 4.86278 13.2022C5.9881 13.2022 6.99408 12.7849 7.60785 12.4592V14.3003C7.60785 14.5168 7.78343 14.6924 8 14.6924C8.21658 14.6924 8.39216 14.5168 8.39216 14.3003V12.4592C9.00593 12.7849 10.0119 13.2022 11.1372 13.2022C12.9433 13.2022 14.4422 12.1272 14.5051 12.0815C14.7204 11.9248 14.72 11.6035 14.5051 11.4472ZM10.3792 7.86911C11.4783 6.76998 12.9447 6.23919 13.7485 6.01572C13.525 6.81979 12.9942 8.28605 11.8952 9.38509C10.8991 10.3811 9.60169 10.9104 8.76878 11.1672C9.04015 10.6062 9.37832 9.78844 9.60488 8.82382C9.84087 8.46858 10.1009 8.14738 10.3792 7.86911ZM8.00039 2.52187C8.41553 3.36366 9.07184 4.97455 9.07184 6.74478C9.07184 8.5102 8.41472 10.1119 7.99995 10.9469C7.58513 10.1118 6.92807 8.51004 6.92807 6.74478C6.92807 4.97907 7.58524 3.36518 8.00039 2.52187ZM2.25135 6.01574C3.05542 6.23927 4.52168 6.77006 5.62073 7.86911C5.89898 8.14738 6.15905 8.46858 6.39505 8.82382C6.62161 9.78844 6.95975 10.6062 7.23112 11.1672C6.39811 10.9103 5.10074 10.3811 4.10472 9.38512C3.00559 8.28594 2.47483 6.81963 2.25135 6.01574ZM2.4851 11.7643C3.28455 11.3412 4.20987 11.0579 5.12348 11.1196C5.79265 11.4981 6.4464 11.7475 6.95546 11.9061C6.41834 12.1573 5.66735 12.4179 4.86273 12.4179C3.90347 12.4179 3.02023 12.0475 2.4851 11.7643ZM11.1372 12.4179C10.3325 12.4179 9.58148 12.1573 9.04441 11.9061C9.55348 11.7475 10.2072 11.4981 10.8764 11.1196C11.79 11.0579 12.7154 11.3412 13.5148 11.7643C12.9796 12.0476 12.0964 12.4179 11.1372 12.4179Z"/>
</mask>
<path d="M14.5051 11.4472C14.4518 11.4085 13.3702 10.6327 11.9443 10.3951C12.1174 10.2542 12.2868 10.1027 12.4498 9.93968C14.2182 8.17125 14.6442 5.65896 14.6615 5.5529C14.7044 5.28895 14.4758 5.05986 14.2114 5.10284C14.1056 5.12006 11.6048 5.54424 9.83703 7.30237C9.84937 7.11895 9.85617 6.93299 9.85617 6.74478C9.85617 3.94494 8.39414 1.58915 8.33189 1.49024C8.17828 1.24609 7.82168 1.24609 7.66806 1.49024C7.60581 1.58915 6.14378 3.94494 6.14378 6.74478C6.14378 6.93296 6.15058 7.11895 6.16292 7.30237C4.39518 5.54424 1.89436 5.12006 1.78853 5.10284C1.52454 5.05986 1.29547 5.28866 1.33847 5.5529C1.35575 5.65899 1.78174 8.17125 3.55019 9.93968C3.71317 10.1027 3.88253 10.2542 4.05568 10.3951C2.62978 10.6327 1.54812 11.4085 1.49489 11.4472C1.27952 11.6038 1.27994 11.9251 1.49489 12.0815C1.55782 12.1272 3.05668 13.2022 4.86278 13.2022C5.9881 13.2022 6.99408 12.7849 7.60785 12.4592V14.3003C7.60785 14.5168 7.78343 14.6924 8 14.6924C8.21658 14.6924 8.39216 14.5168 8.39216 14.3003V12.4592C9.00593 12.7849 10.0119 13.2022 11.1372 13.2022C12.9433 13.2022 14.4422 12.1272 14.5051 12.0815C14.7204 11.9248 14.72 11.6035 14.5051 11.4472ZM10.3792 7.86911C11.4783 6.76998 12.9447 6.23919 13.7485 6.01572C13.525 6.81979 12.9942 8.28605 11.8952 9.38509C10.8991 10.3811 9.60169 10.9104 8.76878 11.1672C9.04015 10.6062 9.37832 9.78844 9.60488 8.82382C9.84087 8.46858 10.1009 8.14738 10.3792 7.86911ZM8.00039 2.52187C8.41553 3.36366 9.07184 4.97455 9.07184 6.74478C9.07184 8.5102 8.41472 10.1119 7.99995 10.9469C7.58513 10.1118 6.92807 8.51004 6.92807 6.74478C6.92807 4.97907 7.58524 3.36518 8.00039 2.52187ZM2.25135 6.01574C3.05542 6.23927 4.52168 6.77006 5.62073 7.86911C5.89898 8.14738 6.15905 8.46858 6.39505 8.82382C6.62161 9.78844 6.95975 10.6062 7.23112 11.1672C6.39811 10.9103 5.10074 10.3811 4.10472 9.38512C3.00559 8.28594 2.47483 6.81963 2.25135 6.01574ZM2.4851 11.7643C3.28455 11.3412 4.20987 11.0579 5.12348 11.1196C5.79265 11.4981 6.4464 11.7475 6.95546 11.9061C6.41834 12.1573 5.66735 12.4179 4.86273 12.4179C3.90347 12.4179 3.02023 12.0475 2.4851 11.7643ZM11.1372 12.4179C10.3325 12.4179 9.58148 12.1573 9.04441 11.9061C9.55348 11.7475 10.2072 11.4981 10.8764 11.1196C11.79 11.0579 12.7154 11.3412 13.5148 11.7643C12.9796 12.0476 12.0964 12.4179 11.1372 12.4179Z" fill="white"/>
<path d="M11.9443 10.3951L11.3131 9.61948L9.59532 11.0174L11.7799 11.3815L11.9443 10.3951ZM12.4498 9.93968L11.7427 9.23255L11.7426 9.23261L12.4498 9.93968ZM14.6615 5.5529L15.6485 5.71371L15.6485 5.71352L14.6615 5.5529ZM14.2114 5.10284L14.0509 4.11578L14.0507 4.11581L14.2114 5.10284ZM9.83703 7.30237L8.83927 7.23525L8.6612 9.8822L10.5422 8.01141L9.83703 7.30237ZM8.33189 1.49024L7.48548 2.0228L7.48556 2.02292L8.33189 1.49024ZM7.66806 1.49024L8.51439 2.02292L8.51447 2.0228L7.66806 1.49024ZM6.16292 7.30237L5.45774 8.01141L7.33876 9.8822L7.16068 7.23525L6.16292 7.30237ZM1.78853 5.10284L1.62784 6.08986L1.62785 6.08986L1.78853 5.10284ZM1.33847 5.5529L0.351446 5.71354L0.351466 5.71367L1.33847 5.5529ZM3.55019 9.93968L4.25731 9.23256L4.2573 9.23255L3.55019 9.93968ZM4.05568 10.3951L4.22007 11.3815L6.40463 11.0174L4.6869 9.61948L4.05568 10.3951ZM1.49489 11.4472L2.08305 12.256L2.08314 12.2559L1.49489 11.4472ZM1.49489 12.0815L0.906686 12.8902L0.90683 12.8903L1.49489 12.0815ZM7.60785 12.4592H8.60786V10.7965L7.13913 11.5759L7.60785 12.4592ZM8.39216 12.4592L8.86087 11.5759L7.39214 10.7965V12.4592H8.39216ZM14.5051 12.0815L15.0932 12.8903L15.0934 12.8901L14.5051 12.0815ZM13.7485 6.01572L14.712 6.28356L15.1861 4.57814L13.4807 5.05224L13.7485 6.01572ZM8.76878 11.1672L7.86855 10.7317L6.86824 12.7997L9.06345 12.1228L8.76878 11.1672ZM9.60488 8.82382L8.77192 8.27045L8.67245 8.42018L8.63135 8.59517L9.60488 8.82382ZM8.00039 2.52187L8.89728 2.07957L7.99962 0.259311L7.10321 2.08019L8.00039 2.52187ZM7.99995 10.9469L7.10432 11.3918L7.99992 13.1949L8.89557 11.3918L7.99995 10.9469ZM5.62073 7.86911L6.32788 7.16202L6.32785 7.16199L5.62073 7.86911ZM6.39505 8.82382L7.36858 8.59517L7.32748 8.42018L7.22801 8.27045L6.39505 8.82382ZM7.23112 11.1672L6.93646 12.1228L9.13165 12.7997L8.13135 10.7317L7.23112 11.1672ZM4.10472 9.38512L3.39759 10.0922L3.39761 10.0922L4.10472 9.38512ZM5.12348 11.1196L5.61577 10.2492L5.41779 10.1372L5.19086 10.1219L5.12348 11.1196ZM6.95546 11.9061L7.37909 12.812L9.71638 11.7189L7.25294 10.9514L6.95546 11.9061ZM9.04441 11.9061L8.74693 10.9514L6.28348 11.7189L8.62078 12.812L9.04441 11.9061ZM10.8764 11.1196L10.809 10.1219L10.5821 10.1372L10.3841 10.2492L10.8764 11.1196ZM13.5148 11.7643L13.9826 12.6481L15.6526 11.7642L13.9825 10.8804L13.5148 11.7643ZM15.0931 10.6384C15.0008 10.5712 13.7664 9.68497 12.1087 9.40869L11.7799 11.3815C12.3648 11.479 12.8941 11.6904 13.2909 11.8895C13.685 12.0873 13.9216 12.2593 13.917 12.256L15.0931 10.6384ZM12.5755 11.1707C12.7732 11.0098 12.9681 10.8356 13.1569 10.6467L11.7426 9.23261C11.6054 9.36978 11.4617 9.49852 11.3131 9.61948L12.5755 11.1707ZM13.1569 10.6468C15.1627 8.64105 15.6259 5.85217 15.6485 5.71371L13.6745 5.39209C13.6625 5.46575 13.2738 7.70145 11.7427 9.23255L13.1569 10.6468ZM15.6485 5.71352C15.8011 4.77613 14.9899 3.96313 14.0509 4.11578L14.3719 6.08989C13.9617 6.15659 13.6078 5.80178 13.6744 5.39227L15.6485 5.71352ZM14.0507 4.11581C13.9119 4.13841 11.1363 4.5998 9.13184 6.59332L10.5422 8.01141C12.0733 6.48869 14.2993 6.10172 14.3721 6.08986L14.0507 4.11581ZM10.8348 7.36949C10.8485 7.16546 10.8562 6.95705 10.8562 6.74478H8.85615C8.85615 6.90892 8.85022 7.07243 8.83927 7.23525L10.8348 7.36949ZM10.8562 6.74478C10.8562 3.6483 9.2611 1.08924 9.17823 0.957565L7.48556 2.02292C7.52718 2.08905 8.85615 4.24158 8.85615 6.74478H10.8562ZM9.17831 0.95769C8.63253 0.0902544 7.36742 0.0902544 6.82164 0.95769L8.51447 2.0228C8.27593 2.40193 7.72402 2.40193 7.48548 2.0228L9.17831 0.95769ZM6.82172 0.957565C6.73885 1.08924 5.14377 3.6483 5.14377 6.74478H7.1438C7.1438 4.24158 8.47277 2.08905 8.51439 2.02292L6.82172 0.957565ZM5.14377 6.74478C5.14377 6.95703 5.15144 7.16546 5.16516 7.36949L7.16068 7.23525C7.14973 7.07243 7.1438 6.9089 7.1438 6.74478H5.14377ZM6.86811 6.59332C4.86367 4.5998 2.08803 4.13841 1.94922 4.11581L1.62785 6.08986C1.7007 6.10172 3.92668 6.48869 5.45774 8.01141L6.86811 6.59332ZM1.94923 4.11582C1.01151 3.96315 0.19866 4.77482 0.351446 5.71354L2.3255 5.39225C2.39228 5.80251 2.03757 6.15656 1.62784 6.08986L1.94923 4.11582ZM0.351466 5.71367C0.374034 5.85221 0.837301 8.64105 2.84308 10.6468L4.2573 9.23255C2.72617 7.70145 2.33748 5.46576 2.32548 5.39213L0.351466 5.71367ZM2.84307 10.6468C3.03182 10.8355 3.22673 11.0098 3.42445 11.1707L4.6869 9.61948C4.53833 9.49856 4.39452 9.36977 4.25731 9.23256L2.84307 10.6468ZM3.89128 9.40869C2.23354 9.68497 0.999198 10.5712 0.906639 10.6385L2.08314 12.2559C2.07836 12.2594 2.31491 12.0873 2.70905 11.8895C3.10585 11.6904 3.63517 11.479 4.22007 11.3815L3.89128 9.40869ZM0.906727 10.6384C0.141389 11.195 0.143484 12.3351 0.906686 12.8902L2.08309 11.2728C2.41639 11.5152 2.41765 12.0126 2.08305 12.256L0.906727 10.6384ZM0.90683 12.8903C0.995834 12.955 2.71799 14.2022 4.86278 14.2022V12.2022C4.15023 12.2022 3.46879 11.9877 2.9364 11.7475C2.40932 11.5097 2.079 11.2698 2.08295 11.2726L0.90683 12.8903ZM4.86278 14.2022C6.21986 14.2022 7.39414 13.7047 8.07657 13.3426L7.13913 11.5759C6.59402 11.8651 5.75634 12.2022 4.86278 12.2022V14.2022ZM6.60783 12.4592V14.3003H8.60786V12.4592H6.60783ZM6.60783 14.3003C6.60783 15.0691 7.23114 15.6924 8 15.6924V13.6924C8.33572 13.6924 8.60786 13.9645 8.60786 14.3003H6.60783ZM8 15.6924C8.76887 15.6924 9.39217 15.0691 9.39217 14.3003H7.39214C7.39214 13.9645 7.66428 13.6924 8 13.6924V15.6924ZM9.39217 14.3003V12.4592H7.39214V14.3003H9.39217ZM7.92344 13.3426C8.60587 13.7047 9.78014 14.2022 11.1372 14.2022V12.2022C10.2437 12.2022 9.40599 11.8651 8.86087 11.5759L7.92344 13.3426ZM11.1372 14.2022C13.282 14.2022 15.0042 12.955 15.0932 12.8903L13.9171 11.2726C13.921 11.2698 13.5907 11.5097 13.0636 11.7475C12.5312 11.9877 11.8498 12.2022 11.1372 12.2022V14.2022ZM15.0934 12.8901C15.8585 12.3336 15.8565 11.1935 15.0932 10.6384L13.9169 12.256C13.5835 12.0135 13.5824 11.5161 13.9168 11.2728L15.0934 12.8901ZM11.0863 8.57623C12.0043 7.65824 13.273 7.18586 14.0164 6.9792L13.4807 5.05224C12.6164 5.29252 10.9524 5.88173 9.67208 7.16198L11.0863 8.57623ZM12.7851 5.74787C12.5783 6.4915 12.106 7.76007 11.1881 8.67798L12.6023 10.0922C13.8825 8.81202 14.4717 7.14807 14.712 6.28356L12.7851 5.74787ZM11.1881 8.67798C10.359 9.50704 9.24088 9.97514 8.47411 10.2116L9.06345 12.1228C9.96249 11.8456 11.4393 11.2552 12.6023 10.0922L11.1881 8.67798ZM9.66901 11.6026C9.96292 10.995 10.3308 10.1068 10.5784 9.05247L8.63135 8.59517C8.42587 9.47004 8.11738 10.2173 7.86855 10.7317L9.66901 11.6026ZM10.4378 9.37718C10.6406 9.07192 10.8593 8.80323 11.0863 8.57623L9.67208 7.16199C9.34254 7.49153 9.04111 7.86524 8.77192 8.27045L10.4378 9.37718ZM7.10351 2.96417C7.49091 3.74974 8.07182 5.19831 8.07182 6.74478H10.0719C10.0719 4.75079 9.34014 2.97759 8.89728 2.07957L7.10351 2.96417ZM8.07182 6.74478C8.07182 8.28521 7.4909 9.72383 7.10433 10.5021L8.89557 11.3918C9.33854 10.5 10.0719 8.73519 10.0719 6.74478H8.07182ZM8.89558 10.5021C8.50895 9.72368 7.92808 8.28506 7.92808 6.74478H5.92805C5.92805 8.73503 6.66131 10.4998 7.10432 11.3918L8.89558 10.5021ZM7.92808 6.74478C7.92808 5.20307 8.50964 3.75157 8.89758 2.96355L7.10321 2.08019C6.66083 2.97879 5.92805 4.75508 5.92805 6.74478H7.92808ZM1.98351 6.97922C2.72714 7.18595 3.99571 7.65832 4.91361 8.57623L6.32785 7.16199C5.04766 5.8818 3.38371 5.29259 2.5192 5.05226L1.98351 6.97922ZM4.91358 8.57619C5.14061 8.80324 5.35931 9.07194 5.56209 9.37718L7.22801 8.27045C6.95879 7.86521 6.65735 7.49152 6.32788 7.16202L4.91358 8.57619ZM5.42153 9.05247C5.66916 10.1068 6.03697 10.995 6.33089 11.6026L8.13135 10.7317C7.88253 10.2174 7.57406 9.47006 7.36858 8.59517L5.42153 9.05247ZM7.52579 10.2116C6.75893 9.97512 5.64088 9.50702 4.81183 8.67799L3.39761 10.0922C4.56059 11.2552 6.03729 11.8456 6.93646 12.1228L7.52579 10.2116ZM4.81186 8.67802C3.89386 7.75997 3.42151 6.49135 3.21483 5.7479L1.28787 6.28358C1.52815 7.14791 2.11733 8.81191 3.39759 10.0922L4.81186 8.67802ZM2.95291 12.6482C3.64756 12.2805 4.38536 12.0721 5.0561 12.1174L5.19086 10.1219C4.03438 10.0438 2.92153 10.4019 2.0173 10.8805L2.95291 12.6482ZM4.63119 11.9901C5.3769 12.4118 6.09957 12.6869 6.65799 12.8609L7.25294 10.9514C6.79323 10.8082 6.20841 10.5844 5.61577 10.2492L4.63119 11.9901ZM6.53184 11.0003C6.06384 11.2191 5.46413 11.4179 4.86273 11.4179V13.4179C5.87057 13.4179 6.77285 13.0955 7.37909 12.812L6.53184 11.0003ZM4.86273 11.4179C4.13987 11.4179 3.42683 11.1313 2.95285 10.8805L2.01736 12.6482C2.61364 12.9638 3.66707 13.4179 4.86273 13.4179V11.4179ZM11.1372 11.4179C10.5357 11.4179 9.93599 11.2191 9.46804 11.0003L8.62078 12.812C9.22697 13.0955 10.1293 13.4179 11.1372 13.4179V11.4179ZM9.34189 12.8609C9.9003 12.6869 10.623 12.4118 11.3687 11.99L10.3841 10.2492C9.79149 10.5844 9.20666 10.8082 8.74693 10.9514L9.34189 12.8609ZM10.9438 12.1174C11.6145 12.0721 12.3524 12.2805 13.047 12.6482L13.9825 10.8804C13.0784 10.4019 11.9655 10.0438 10.809 10.1219L10.9438 12.1174ZM13.047 10.8805C12.573 11.1313 11.86 11.4179 11.1372 11.4179V13.4179C12.3328 13.4179 13.3861 12.9639 13.9826 12.6481L13.047 10.8805Z" fill="white" mask="url(#path-1-inside-1_0_1061)"/>
</svg>
