<svg width="17" height="21" viewBox="0 0 17 21" fill="none" xmlns="http://www.w3.org/2000/svg">
<path d="M0 18.3057C0 20.0431 0.856259 20.916 2.57709 20.916H10.3915C12.1123 20.916 12.9686 20.0348 12.9686 18.3057V16.7677H14.4234C16.1359 16.7677 17.0005 15.8865 17.0005 14.1574V7.40706C17.0005 6.38454 16.7927 5.73611 16.1692 5.09599L11.971 0.83132C11.3808 0.224456 10.6825 0 9.79295 0H6.60899C4.89647 0 4.0319 0.881199 4.0319 2.61034V4.14829H2.57709C0.864573 4.14829 0 5.02117 0 6.75863V18.3057ZM12.1788 9.60174L7.59826 4.93804C6.96646 4.28961 6.44273 4.14829 5.51165 4.14829H5.37033V2.63528C5.37033 1.81228 5.81093 1.33842 6.6755 1.33842H10.3499V5.6031C10.3499 6.56743 10.8155 7.02465 11.7715 7.02465H15.6621V14.1324C15.6621 14.9638 15.2132 15.4293 14.3486 15.4293H12.9686V11.8131C12.9686 10.749 12.8439 10.2834 12.1788 9.60174ZM11.5553 5.40358V1.99517L15.3129 5.81924H11.9627C11.6717 5.81924 11.5553 5.69454 11.5553 5.40358ZM1.33842 18.2807V6.77526C1.33842 5.96056 1.77902 5.48671 2.6436 5.48671H5.37033V10.3084C5.37033 11.3558 5.90237 11.8796 6.93321 11.8796H11.6302V18.2807C11.6302 19.112 11.1813 19.5776 10.325 19.5776H2.63528C1.77902 19.5776 1.33842 19.112 1.33842 18.2807ZM7.09116 10.6243C6.75863 10.6243 6.62562 10.4913 6.62562 10.1587V5.7943L11.3725 10.6243H7.09116Z" fill="white"/>
</svg>
