<svg width="41" height="41" viewBox="0 0 41 41" fill="none" xmlns="http://www.w3.org/2000/svg">
<path d="M29.4158 26.9535L30.287 26.2445C30.7182 25.8936 31.1392 25.5169 31.5437 25.1123L31.5438 25.1123C35.9551 20.701 37.0277 14.4036 37.0693 14.1482C37.1238 13.8135 36.8333 13.5226 36.498 13.5771C36.242 13.6188 29.9741 14.6872 25.5649 19.0724L24.6109 20.0212L24.7013 18.6788C24.7322 18.2192 24.7492 17.7541 24.7492 17.284C24.7492 10.2598 21.0702 4.32623 20.9212 4.08942L20.9211 4.08936C20.7264 3.77981 20.2733 3.77981 20.0786 4.08936L20.0785 4.08942C19.9295 4.32623 16.2505 10.2598 16.2505 17.284C16.2505 17.754 16.2675 18.2192 16.2984 18.6788L16.3887 20.0212L15.4348 19.0724C11.025 14.6866 4.75602 13.6185 4.50157 13.5771L4.58306 13.0765L4.50156 13.5771C4.16678 13.5226 3.87587 13.8133 3.93035 14.1483L29.4158 26.9535ZM29.4158 26.9535L30.5237 27.1382C34.0596 27.7275 36.7536 29.6588 36.8708 29.7441M29.4158 26.9535L36.8708 29.7441M36.8708 29.7441C37.1435 29.9424 37.1438 30.3506 36.8708 30.5491C36.7207 30.6583 32.994 33.324 28.539 33.324C25.7729 33.324 23.2805 32.2953 21.7425 31.4792L20.9976 31.084V31.9272V36.6449C20.9976 36.9197 20.7748 37.1426 20.4999 37.1426C20.225 37.1426 20.0022 36.9197 20.0022 36.6449V31.9272V31.084L19.2573 31.4792C17.7193 32.2953 15.2269 33.324 12.4608 33.324C8.00444 33.324 4.27686 30.6567 4.12884 30.5491C3.85615 30.3506 3.85595 29.9425 4.12889 29.7441L4.12893 29.744C4.24539 29.6593 6.9397 27.7275 10.476 27.1382L11.5839 26.9535M36.8708 29.7441L11.5839 26.9535M11.5839 26.9535L10.7127 26.2445M11.5839 26.9535L10.7127 26.2445M10.7127 26.2445C10.2815 25.8936 9.86048 25.5168 9.45591 25.1123C5.04499 20.7014 3.97213 14.4047 3.93036 14.1483L10.7127 26.2445ZM26.238 19.8064L26.5966 20.1651L26.238 19.8064C25.4989 20.5455 24.8115 21.3952 24.1899 22.3309L24.1395 22.4068L24.1187 22.4955C23.5488 24.9219 22.6973 26.9816 22.0133 28.3955L21.506 29.4443L22.6193 29.101C24.7872 28.4326 28.2029 27.0454 30.8399 24.4084C33.7481 21.5002 35.1379 17.6427 35.7192 15.5516L35.9596 14.6867L35.0947 14.9271C33.0041 15.5083 29.1464 16.8981 26.238 19.8064ZM20.9558 6.23848L20.5005 5.31532L20.0459 6.23879C18.9682 8.42781 17.2459 12.6458 17.2459 17.284C17.2459 21.9216 18.9683 26.1086 20.0455 28.2776L20.4998 29.1921L20.954 28.2776C22.0311 26.1091 23.7536 21.922 23.7536 17.284C23.7536 12.6343 22.0336 8.42409 20.9558 6.23848ZM5.90487 14.9272L5.03995 14.6867L5.28039 15.5517C5.86157 17.6423 7.25128 21.4999 10.1596 24.4085L10.1597 24.4085C12.7966 27.0454 16.2121 28.4325 18.3802 29.101L19.4935 29.4443L18.9862 28.3955C18.3023 26.9816 17.4508 24.9219 16.881 22.4955L16.8601 22.4068L16.8097 22.3309C16.1881 21.3952 15.5007 20.5455 14.7617 19.8065L14.7617 19.8064C11.8535 16.8983 7.99595 15.5085 5.90487 14.9272ZM6.13076 29.6983L5.28378 30.1466L6.13079 30.5948C7.53308 31.3369 9.88267 32.3285 12.4607 32.3285C14.6256 32.3285 16.6267 31.6294 18.0381 30.9694L19.2235 30.415L17.9742 30.0257C16.6947 29.6271 15.0544 29.0009 13.3785 28.0531L13.2781 27.9963L13.163 27.9885C10.6987 27.8221 8.23247 28.5859 6.13076 29.6983ZM23.0253 30.0257L21.776 30.415L22.9614 30.9694C24.3726 31.6293 26.3739 32.3285 28.5389 32.3285C31.1169 32.3285 33.4662 31.3371 34.8688 30.5947L35.7157 30.1464L34.8688 29.6982C32.7672 28.586 30.3008 27.822 27.8365 27.9885L27.7214 27.9962L27.621 28.053C25.9451 29.0009 24.3048 29.6271 23.0253 30.0257Z" fill="white" stroke="white" stroke-width="1.00002"/>
</svg>
