<svg width="81" height="34" viewBox="0 0 81 34" fill="none" xmlns="http://www.w3.org/2000/svg">
<path d="M55.5132 6.11417C55.4241 6.61805 55.097 7.71625 54.8331 8.54586C53.8539 11.4828 49.8793 21.6883 46.7955 29.1283C44.8677 33.7843 44.9275 33.6653 44.6303 33.8142C44.1611 34.0801 42.7943 34.11 42.4652 33.5762C42.489 33.1981 42.5795 32.8272 42.7325 32.4807C42.9406 31.9469 43.7103 29.9307 44.4536 27.9729C45.1655 26.0451 45.7884 24.3839 45.7884 24.324C45.579 23.7114 45.2346 23.1536 44.7806 22.692C44.3046 22.1881 43.4757 21.623 43.3866 21.74C43.3567 21.7699 42.8828 22.896 42.3197 24.2309C40.7768 28.028 40.7176 28.1157 39.6507 28.2646C38.9986 28.3537 38.1084 28.0607 37.9894 27.7309C37.9303 27.4636 38.1676 26.7829 39.5024 23.608C40.0362 22.303 40.4803 21.2062 40.4504 21.1763C39.6002 21.224 38.7613 21.3937 37.9595 21.6802C37.4903 21.8366 36.3275 22.333 35.3796 22.7756C32.7996 23.9915 30.9316 23.6046 33.7788 21.6802C35.605 20.5287 37.7004 19.8744 39.8574 19.7823L41.1623 19.6932L42.7644 16.0463C44.9296 11.1503 46.4711 7.97942 46.8574 7.68226C47.0771 7.53068 47.3342 7.44224 47.6007 7.42653C47.8673 7.41083 48.133 7.46846 48.369 7.59317C48.5771 7.74209 48.5771 7.76998 48.399 8.48194C48.0141 9.87595 46.5901 13.6452 43.9211 20.2855C43.8912 20.3446 44.1591 20.5826 44.5141 20.7547C44.9805 21.0588 45.4174 21.406 45.819 21.7917C46.0341 22.0266 46.2844 22.2266 46.5609 22.3847C46.5908 22.352 47.1865 20.9016 47.8658 19.1206C51.1877 10.6981 53.0556 6.45688 53.9675 5.27095C54.7495 4.2761 55.8464 4.33527 55.5132 6.11417Z" fill="url(#paint0_linear_0_577)"/>
<path d="M60.21 20.2902C59.333 20.8784 58.387 21.3566 57.3934 21.7141C56.8602 21.8705 56.8004 21.9222 56.2979 22.7531C54.4877 25.926 50.069 27.4091 50.2771 23.3162C50.3961 21.032 52.0859 17.6211 54.2211 15.3683C54.5845 15.0133 54.9029 14.615 55.1691 14.1824C55.4961 13.3514 58.4011 14.2422 57.3941 14.5081C56.9793 14.6271 54.6951 17.9761 53.6282 20.0549C52.7081 21.8637 52.3532 22.9306 52.3532 23.9397C52.3532 26.6387 54.8141 23.4705 55.2588 22.7239L55.7627 21.8929L55.2935 21.744C55.0519 21.663 54.8365 21.5186 54.6698 21.3259C54.503 21.1332 54.391 20.8993 54.3456 20.6485C54.1674 19.6693 54.9385 17.8326 56.2136 16.1707C56.5685 15.6654 58.1414 13.6207 58.4039 15.3696C58.582 16.4651 57.989 19.2246 57.2478 20.9457C57.0914 21.2728 57.426 21.1837 58.5528 20.5907C59.3538 20.2045 59.7088 20.0868 59.9169 20.1215C60.0862 20.1725 60.21 20.231 60.21 20.2902ZM57.3934 16.3788C57.3934 16.053 57.3934 16.053 57.2152 16.2611C56.5836 17.2852 56.0947 18.3907 55.762 19.5469C55.6759 19.7999 55.6453 20.0685 55.6723 20.3344C55.6992 20.6003 55.7832 20.8573 55.9185 21.0878C56.0674 21.2959 56.1265 21.2068 56.5985 19.961C56.9833 18.7954 57.2491 17.5938 57.392 16.3747L57.3934 16.3788Z" fill="url(#paint1_linear_0_577)"/>
<path d="M69.6647 19.0743C69.9605 19.2232 67.6777 23.4943 66.6101 24.7993C65.601 25.9852 63.289 26.9039 62.932 24.8292C62.9118 24.6248 62.8616 24.4246 62.7831 24.2349C62.5485 24.4558 62.3305 24.6938 62.1309 24.9468C61.8236 25.3222 61.4643 25.6519 61.064 25.926C58.0917 27.4901 58.2474 23.614 58.6921 21.8331C59.3613 19.4269 60.4126 17.1439 61.8059 15.0711C62.3988 13.9151 63.7629 15.1901 63.7928 15.3982C63.7928 15.4281 63.5549 15.8674 63.289 16.376C61.3612 19.7271 59.7292 24.9815 60.5601 25.2161C61.0227 24.8959 61.4328 24.5059 61.776 24.0601C62.8429 22.8728 62.8429 22.8443 63.17 21.6869C63.7018 19.5868 64.5841 17.5916 65.7798 15.7851C65.9757 15.5222 66.1337 15.2332 66.249 14.9263C66.6638 13.739 68.2061 15.0439 68.236 15.252C68.236 15.3111 62.0371 28.5685 66.16 23.9717C67.3367 22.6365 68.2975 21.1257 69.0078 19.4939C69.1282 19.1022 69.3975 18.9322 69.6647 19.0743Z" fill="url(#paint2_linear_0_577)"/>
<path d="M72.6601 20.9659C72.2583 20.9908 71.8605 21.0606 71.4742 21.174L71.005 21.3229L70.9452 22.5388C70.7072 27.3729 66.1403 25.2377 66.1403 23.8437C66.1403 23.4588 67.8301 22.0648 68.8392 21.5888L69.1642 21.442L69.1941 18.6838C69.2533 15.9257 69.2533 15.8958 69.5512 15.3029C70.3522 13.494 73.1089 13.5539 73.1089 15.2138C73.079 16.2821 72.4833 17.2599 71.8577 17.2599C71.4429 17.2599 71.4429 17.1035 71.7686 16.5799C71.989 16.2261 72.0832 15.8081 72.0359 15.394C72.0359 14.6228 72.2739 14.6228 71.651 14.6228C71.3239 14.6228 71.2049 14.6827 71.0254 15.0376C70.6391 15.8088 70.5562 16.6697 70.6983 18.7158C70.7874 19.7528 70.8547 20.6137 70.8765 20.6436C71.0368 20.6411 71.1956 20.611 71.3457 20.5545C72.0388 20.3797 72.7658 20.39 73.4537 20.5845C73.7563 20.8238 73.5203 20.9421 72.6601 20.9659ZM69.218 22.1532L68.3292 22.7462C67.9117 23.034 67.515 23.3508 67.1419 23.6941C66.4911 24.3741 68.0021 24.8501 68.3591 24.6461C68.8494 24.1692 69.136 23.5209 69.1588 22.8373L69.218 22.1532Z" fill="url(#paint3_linear_0_577)"/>
<path d="M79.9852 20.4967C78.4722 23.2255 77.0782 24.6787 75.5951 25.0636C72.8683 25.7756 72.0074 23.6098 72.6221 21.1787C74.282 14.6248 80.2436 12.7562 79.8301 16.2269C79.549 17.6138 78.7543 18.8433 77.6052 19.6691C77.3589 19.7953 77.0879 19.8661 76.8114 19.8763C76.5348 19.8865 76.2594 19.836 76.0044 19.7283C75.8263 19.5515 75.7964 19.7283 75.3523 21.0332C75.1071 21.6866 74.9958 22.3827 75.0252 23.08C75.0252 24.0892 75.0252 24.1191 75.2931 24.1748C76.152 24.2938 78.8809 21.4773 79.771 19.5202C80.0688 18.8946 80.1559 18.7783 80.4238 18.7783C80.844 18.7756 80.7815 19.0449 79.9852 20.4967ZM78.5912 16.8199C79.2712 13.0799 76.4553 18.1547 76.307 18.7477C75.8922 20.3498 78.1172 19.491 78.5912 16.8219V16.8199Z" fill="url(#paint4_linear_0_577)"/>
<path d="M19.7687 11.8594C19.4987 11.8243 19.2457 11.708 19.0434 11.5258C18.8411 11.3436 18.6989 11.1043 18.6358 10.8394C18.6358 10.2954 19.4851 9.37467 20.1998 9.07139C20.0577 9.23731 19.4171 10.2274 19.5613 10.2274C21.2389 10.2274 24.6416 7.74606 24.6416 5.68973C24.6416 4.65068 23.5774 4.17806 22.539 4.17806C16.0661 4.17806 2.55434 15.9129 2.15246 23.1706C2.05862 24.5633 2.60128 25.6037 4.77457 25.4146C9.92357 24.9454 18.7147 17.5714 22.5628 14.1231C17.9096 14.5923 11.6963 16.4624 11.6963 17.6197C11.6963 17.8543 10.845 17.0077 10.845 16.2019C10.845 14.0993 20.106 13.2962 22.0426 13.2962C24.7824 13.2962 27.0495 14.0517 27.1685 14.4053C26.0684 14.1541 24.9423 14.0354 23.814 14.0518C25.089 14.2877 25.4916 15.7055 25.1142 15.3737C24.7592 15.1139 24.1438 15.3737 23.3414 15.9653C18.8779 19.2245 15.0018 25.5316 13.7037 28.7684C13.3532 29.5793 13.1301 30.4395 13.0421 31.3184C13.0421 31.4844 13.1141 31.4844 13.1141 31.5313C13.1141 31.5782 13.0904 31.6265 12.9951 31.6265C12.7592 31.6265 12.4756 31.3137 12.4756 30.871C12.4756 27.2316 15.2637 21.9888 17.4397 19.3667C13.7534 22.3192 7.85159 26.689 3.82732 26.9249C1.46498 27.0671 0.0240377 25.6968 0.000237532 23.5467C-0.067763 14.6882 14.481 3.7041 22.6308 3.7041C23.7868 3.7041 25.7024 4.24812 25.7024 5.97125C25.6983 8.67223 22.3201 11.8594 19.7687 11.8594Z" fill="url(#paint5_linear_0_577)"/>
<path d="M29.7287 16.0714C29.5649 16.3526 29.4156 16.6419 29.2813 16.9384C29.0494 17.4144 28.6162 18.2263 28.2973 18.7594C27.2868 20.4071 25.9506 19.8876 26.6218 17.5076C26.9588 16.3676 27.4387 15.2747 28.0498 14.2551C28.1797 14.0389 28.2375 13.9232 28.1797 13.9076C27.9819 13.8255 27.7676 13.7912 27.5541 13.8076C27.5398 13.8219 27.2943 14.3571 27.0046 14.9922C26.6929 15.7794 26.3058 16.5345 25.8486 17.2471C25.733 17.3627 25.4291 17.4035 25.3726 17.3206C25.4508 17.092 25.5558 16.8736 25.6854 16.6698C26.2617 15.7166 26.7547 14.7156 27.159 13.6778C27.159 13.6343 27.0869 13.5758 27.0026 13.5322C26.7302 13.3993 26.51 13.1791 26.377 12.9066C26.3038 12.6886 26.2814 12.4567 26.3114 12.2287C26.3415 12.0006 26.4232 11.7825 26.5504 11.5908C27.3596 9.98738 28.6455 10.4205 27.9104 12.719C27.8367 12.9095 27.7882 13.1088 27.7662 13.3119C27.9873 13.4727 28.2587 13.5492 28.5312 13.5275C28.8405 13.5279 29.1478 13.577 29.4418 13.673C29.4574 13.6873 29.3996 13.7594 29.3262 13.8294C28.6912 15.0702 28.1595 16.3611 27.7363 17.6891C27.361 18.8594 27.4045 19.0328 27.924 18.3963C28.4945 17.6555 28.9677 16.8447 29.3323 15.9837L29.4887 15.5505L29.7199 15.5349C30.032 15.5083 30.032 15.5661 29.7287 16.0714ZM27.7635 11.0992C27.5367 11.5515 27.3945 12.0414 27.344 12.5449C27.344 12.8482 27.3718 12.9923 27.4439 12.9359C27.5071 12.7508 27.5594 12.5621 27.6003 12.3708C27.7635 11.7799 27.8492 11.0006 27.7635 11.0992Z" fill="url(#paint6_linear_0_577)"/>
<path d="M32.7779 16.1291C32.0408 17.4591 31.3621 18.1629 30.6393 18.3554C29.3092 18.7008 28.8903 17.6468 29.1936 16.4622C30.0021 13.2662 32.9078 12.3564 32.7058 14.0482C32.5691 14.7238 32.1815 15.3224 31.6212 15.7238C31.5005 15.7847 31.3682 15.8189 31.2331 15.8241C31.098 15.8292 30.9635 15.8052 30.8385 15.7537C30.7528 15.666 30.7372 15.7537 30.5257 16.3888C30.4074 16.7078 30.3542 17.0472 30.3693 17.3871C30.3693 17.878 30.3693 17.8923 30.4992 17.9222C30.9187 17.98 32.2482 16.6064 32.682 15.6517C32.8275 15.3484 32.8697 15.2906 32.9948 15.2906C33.1974 15.2879 33.1675 15.4239 32.7779 16.1291ZM32.0979 14.3379C32.4297 12.5169 31.0575 14.9873 30.984 15.2763C30.7827 16.057 31.8674 15.6456 32.0986 14.3359L32.0979 14.3379Z" fill="url(#paint7_linear_0_577)"/>
<path d="M35.944 16.1291C35.2068 17.4591 34.5357 18.1629 33.8053 18.3554C32.4753 18.7008 32.0564 17.6468 32.3597 16.4622C33.1689 13.2662 36.0738 12.3564 35.8719 14.0482C35.7352 14.7238 35.3476 15.3224 34.7873 15.7238C34.6667 15.7846 34.5345 15.8188 34.3995 15.8239C34.2646 15.8291 34.1301 15.8051 34.0053 15.7537C33.9189 15.666 33.9033 15.7537 33.6925 16.3888C33.5741 16.7078 33.5209 17.0472 33.5361 17.3871C33.5361 17.878 33.5361 17.8923 33.666 17.9222C34.0855 17.98 35.4149 16.6064 35.8488 15.6517C35.9943 15.3484 36.0364 15.2906 36.1616 15.2906C36.3628 15.2879 36.3329 15.4239 35.944 16.1291ZM35.264 14.3379C35.5958 12.5169 34.2235 14.9873 34.1501 15.2763C33.9481 16.057 35.0327 15.6456 35.264 14.3359V14.3379Z" fill="url(#paint8_linear_0_577)"/>
<path d="M40.3803 15.8024C40.4524 15.8745 40.2504 16.2934 39.7003 17.2468C38.0683 20.0504 36.7525 19.4153 37.7351 16.394C38.0097 15.5961 38.358 14.8255 38.7755 14.0922C38.9319 13.8311 38.9319 13.8168 38.819 13.8746C38.2635 14.3185 37.7639 14.8281 37.3312 15.3924C36.492 16.5062 35.7984 17.8662 35.7984 18.3837V18.6734H35.249C34.556 18.6734 34.4663 18.6292 34.6417 18.398C35.081 17.6295 35.4477 16.8218 35.7372 15.9854C36.0983 15.117 36.4601 14.2643 36.5478 14.0766C36.6477 13.8674 36.7298 13.6501 36.7933 13.4272C36.8796 13.094 36.9973 12.9512 37.1686 12.9512C37.3135 12.9881 37.4539 13.0405 37.5875 13.1076L37.9194 13.264L37.7317 13.5237C37.4737 13.9729 37.264 14.4482 37.1061 14.9415C37.1061 14.9558 37.3658 14.6961 37.699 14.3629C38.0775 13.8573 38.639 13.5202 39.2631 13.4238C40.5353 13.3082 39.4807 14.7382 39.1189 15.663C38.4389 17.4263 38.1941 18.3225 38.3818 18.3225C38.9986 17.6984 39.5067 16.9756 39.8852 16.1839C40.1192 15.8024 40.2647 15.6814 40.3803 15.8024Z" fill="url(#paint9_linear_0_577)"/>
<path d="M33.8951 5.90119C33.8938 5.84893 33.8965 5.79665 33.9033 5.74481C33.9256 4.96479 34.0267 4.18903 34.2052 3.42939C34.4468 2.38316 34.9248 1.40616 35.6026 0.573357C35.7018 0.447771 35.8099 0.329597 35.9263 0.219761C35.9637 0.185081 35.9943 0.110285 36.0528 0.135445C36.1112 0.160606 36.0888 0.235393 36.0922 0.291833C36.1187 0.731797 36.1439 1.16973 36.1657 1.60901C36.211 2.51569 36.2278 3.42531 36.216 4.33787C36.2065 5.09404 36.1611 5.8477 36.08 6.59888C36.0193 7.2206 35.9184 7.83776 35.778 8.44646C35.6729 8.92576 35.5132 9.39144 35.3021 9.83436C35.2836 9.89512 35.2434 9.94693 35.1892 9.97988C34.465 7.44074 32.7922 5.61968 30.7379 4.08287C31.9494 4.35727 33.0437 5.00605 33.8659 5.93724L33.8951 5.90119Z" fill="url(#paint10_linear_0_577)"/>
<path d="M36.2581 0C36.863 0.899009 37.3323 1.88218 37.6508 2.91789C37.9548 3.95014 38.0416 5.0342 37.9058 6.10168C37.9493 6.12072 37.9622 6.09216 37.9779 6.07516C38.5363 5.47403 39.2432 5.03054 40.0274 4.78928C40.4067 4.66169 40.7946 4.56126 41.1882 4.48872C41.301 4.46696 41.3446 4.48872 41.2902 4.60772C40.9484 5.46893 40.496 6.28202 39.9444 7.0265C39.6174 7.47548 39.251 7.89444 38.8496 8.27839C38.4185 8.68863 37.9548 9.06318 37.4631 9.39836C37.102 9.64113 36.7246 9.85668 36.3445 10.0682C36.3112 10.0872 36.2765 10.1259 36.2364 10.096C36.1963 10.0661 36.2364 10.0226 36.2459 9.98656C36.5168 8.90992 36.7086 7.81492 36.8198 6.7103C37.0336 4.51301 36.8481 2.29515 36.2724 0.163879C36.2462 0.113267 36.2411 0.0543752 36.2581 0Z" fill="url(#paint11_linear_0_577)"/>
<path d="M35.1171 10.7591C34.8872 10.8077 34.6519 10.8255 34.4174 10.8121C33.3805 10.8439 32.347 10.6798 31.3709 10.3286C30.8568 10.1312 30.3683 9.87274 29.9157 9.55886C29.7797 9.46502 29.7845 9.44122 29.9395 9.36506C30.3696 9.1735 30.8299 9.05844 31.2995 9.02505C31.4355 9.00941 31.5783 8.99853 31.7171 8.98425C31.7497 8.98425 31.7919 8.98427 31.8048 8.94211C31.8177 8.89995 31.7857 8.88702 31.766 8.8673C31.371 8.46402 31.0202 8.01972 30.7195 7.54196C30.3119 6.88681 30.0133 6.16984 29.8355 5.419C29.7156 4.92355 29.6408 4.4183 29.6118 3.90939C29.6118 3.88151 29.5914 3.85021 29.643 3.81689C30.7861 6.64028 32.4039 9.10123 35.1171 10.7591Z" fill="url(#paint12_linear_0_577)"/>
<path d="M36.3404 10.7831C36.5485 10.6471 36.7579 10.5281 36.966 10.4016C37.8364 9.8771 38.6428 9.25321 39.3691 8.54246C40.3585 7.58086 41.13 6.41817 41.6315 5.13291C41.7886 4.72587 41.9141 4.30733 42.0069 3.88102C42.0125 3.82222 42.0379 3.76706 42.079 3.72461C42.079 3.85449 42.0973 3.96398 42.0973 4.07482C42.1014 5.58993 41.5769 7.05902 40.6142 8.22898C40.347 8.55945 40.0624 8.87543 39.7615 9.17555C39.7221 9.21499 39.6486 9.24353 39.6785 9.31969C39.7085 9.39585 39.7758 9.3809 39.8349 9.3877C40.4369 9.46073 41.0224 9.63428 41.5669 9.9011C41.5839 9.9011 41.6016 9.92151 41.5968 9.96911C39.8027 9.69781 37.9685 9.98184 36.3404 10.7831Z" fill="url(#paint13_linear_0_577)"/>
<path d="M36.0949 11.3413C38.1536 11.5095 40.2248 11.2519 42.1796 10.5845C42.0555 10.7534 41.9056 10.9019 41.7355 11.0244C41.0429 11.5096 40.2629 11.856 39.4385 12.0444C39.3025 12.0791 39.2821 12.1213 39.3651 12.2308C39.5351 12.4967 39.741 12.7379 39.977 12.9475C40.0373 12.9829 40.0832 13.0382 40.107 13.1039C38.6029 13.0108 37.1809 12.3861 36.0949 11.3413Z" fill="url(#paint14_linear_0_577)"/>
<path d="M31.2859 12.8169C31.3641 12.4795 31.5423 12.1735 31.7973 11.9391C31.9054 11.8371 31.8993 11.7983 31.7599 11.7636C31.3993 11.6585 31.0603 11.49 30.7589 11.2659C30.2803 10.9219 29.8342 10.535 29.4261 10.1098C29.403 10.0796 29.3821 10.0478 29.3635 10.0146C31.1511 10.8584 33.1022 11.2995 35.079 11.3067C33.6952 11.433 32.3778 11.9576 31.2859 12.8169Z" fill="url(#paint15_linear_0_577)"/>
<defs>
<linearGradient id="paint0_linear_0_577" x1="23.7572" y1="19.3124" x2="84.8836" y2="19.3124" gradientUnits="userSpaceOnUse">
<stop stop-color="#7A5100"/>
<stop offset="0.3" stop-color="#E9BA46"/>
<stop offset="0.55" stop-color="#C08B09"/>
<stop offset="0.79" stop-color="#EEC95E"/>
<stop offset="1" stop-color="#865800"/>
</linearGradient>
<linearGradient id="paint1_linear_0_577" x1="23.7503" y1="19.824" x2="84.9008" y2="19.824" gradientUnits="userSpaceOnUse">
<stop stop-color="#7A5100"/>
<stop offset="0.3" stop-color="#E9BA46"/>
<stop offset="0.55" stop-color="#C08B09"/>
<stop offset="0.79" stop-color="#EEC95E"/>
<stop offset="1" stop-color="#865800"/>
</linearGradient>
<linearGradient id="paint2_linear_0_577" x1="23.7571" y1="20.3617" x2="84.8935" y2="20.3617" gradientUnits="userSpaceOnUse">
<stop stop-color="#7A5100"/>
<stop offset="0.3" stop-color="#E9BA46"/>
<stop offset="0.55" stop-color="#C08B09"/>
<stop offset="0.79" stop-color="#EEC95E"/>
<stop offset="1" stop-color="#865800"/>
</linearGradient>
<linearGradient id="paint3_linear_0_577" x1="23.7521" y1="19.7588" x2="84.8943" y2="19.7588" gradientUnits="userSpaceOnUse">
<stop stop-color="#7A5100"/>
<stop offset="0.3" stop-color="#E9BA46"/>
<stop offset="0.55" stop-color="#C08B09"/>
<stop offset="0.79" stop-color="#EEC95E"/>
<stop offset="1" stop-color="#865800"/>
</linearGradient>
<linearGradient id="paint4_linear_0_577" x1="23.7601" y1="19.8564" x2="84.8945" y2="19.8564" gradientUnits="userSpaceOnUse">
<stop stop-color="#7A5100"/>
<stop offset="0.3" stop-color="#E9BA46"/>
<stop offset="0.55" stop-color="#C08B09"/>
<stop offset="0.79" stop-color="#EEC95E"/>
<stop offset="1" stop-color="#865800"/>
</linearGradient>
<linearGradient id="paint5_linear_0_577" x1="2.33649" y1="26.0141" x2="49.5642" y2="-2.17979" gradientUnits="userSpaceOnUse">
<stop stop-color="#32B66C"/>
<stop offset="1" stop-color="#EAE113"/>
</linearGradient>
<linearGradient id="paint6_linear_0_577" x1="4.57271" y1="29.5536" x2="54.54" y2="21.5347" gradientUnits="userSpaceOnUse">
<stop stop-color="#32B66C"/>
<stop offset="1" stop-color="#EAE113"/>
</linearGradient>
<linearGradient id="paint7_linear_0_577" x1="5.94108" y1="31.7284" x2="56.3955" y2="12.7947" gradientUnits="userSpaceOnUse">
<stop stop-color="#32B66C"/>
<stop offset="1" stop-color="#EAE113"/>
</linearGradient>
<linearGradient id="paint8_linear_0_577" x1="6.84682" y1="33.1559" x2="57.2944" y2="14.2248" gradientUnits="userSpaceOnUse">
<stop stop-color="#32B66C"/>
<stop offset="1" stop-color="#EAE113"/>
</linearGradient>
<linearGradient id="paint9_linear_0_577" x1="7.85012" y1="34.7495" x2="55.4504" y2="7.23045" gradientUnits="userSpaceOnUse">
<stop stop-color="#32B66C"/>
<stop offset="1" stop-color="#EAE113"/>
</linearGradient>
<linearGradient id="paint10_linear_0_577" x1="28.1998" y1="8.82748" x2="41.3781" y2="6.74297" gradientUnits="userSpaceOnUse">
<stop stop-color="#32B66C"/>
<stop offset="0.74" stop-color="#DFB956"/>
<stop offset="1" stop-color="#BB912E"/>
</linearGradient>
<linearGradient id="paint11_linear_0_577" x1="28.3324" y1="9.09629" x2="41.4477" y2="7.39439" gradientUnits="userSpaceOnUse">
<stop stop-color="#32B66C"/>
<stop offset="0.74" stop-color="#DFB956"/>
<stop offset="1" stop-color="#BB912E"/>
</linearGradient>
<linearGradient id="paint12_linear_0_577" x1="28.4398" y1="9.29753" x2="41.6442" y2="5.122" gradientUnits="userSpaceOnUse">
<stop stop-color="#32B66C"/>
<stop offset="0.74" stop-color="#DFB956"/>
<stop offset="1" stop-color="#BB912E"/>
</linearGradient>
<linearGradient id="paint13_linear_0_577" x1="30.215" y1="12.7806" x2="43.3706" y2="8.30984" gradientUnits="userSpaceOnUse">
<stop stop-color="#32B66C"/>
<stop offset="0.74" stop-color="#DFB956"/>
<stop offset="1" stop-color="#BB912E"/>
</linearGradient>
<linearGradient id="paint14_linear_0_577" x1="31.6227" y1="15.5276" x2="34.816" y2="6.02433" gradientUnits="userSpaceOnUse">
<stop stop-color="#32B66C"/>
<stop offset="0.74" stop-color="#DFB956"/>
<stop offset="1" stop-color="#BB912E"/>
</linearGradient>
<linearGradient id="paint15_linear_0_577" x1="29.775" y1="11.909" x2="34.5046" y2="1.87026" gradientUnits="userSpaceOnUse">
<stop stop-color="#32B66C"/>
<stop offset="0.74" stop-color="#DFB956"/>
<stop offset="1" stop-color="#BB912E"/>
</linearGradient>
</defs>
</svg>
