<svg width="14" height="14" viewBox="0 0 14 14" fill="none" xmlns="http://www.w3.org/2000/svg">
<path d="M3.39703 2.11919L6.9997 5.72185L10.5837 2.13785C10.6629 2.05359 10.7582 1.98618 10.8641 1.93967C10.9699 1.89316 11.0841 1.86851 11.1997 1.86719C11.4472 1.86719 11.6846 1.96552 11.8597 2.14055C12.0347 2.31559 12.133 2.55299 12.133 2.80052C12.1352 2.91495 12.114 3.02862 12.0706 3.13454C12.0273 3.24047 11.9628 3.33643 11.881 3.41652L8.25036 7.00052L11.881 10.6312C12.0349 10.7817 12.1251 10.9855 12.133 11.2005C12.133 11.4481 12.0347 11.6855 11.8597 11.8605C11.6846 12.0355 11.4472 12.1339 11.1997 12.1339C11.0807 12.1388 10.9621 12.1189 10.8512 12.0756C10.7403 12.0322 10.6397 11.9662 10.5557 11.8819L6.9997 8.27919L3.40636 11.8725C3.3275 11.954 3.23329 12.019 3.12916 12.0639C3.02504 12.1087 2.91306 12.1325 2.7997 12.1339C2.55216 12.1339 2.31476 12.0355 2.13973 11.8605C1.9647 11.6855 1.86636 11.4481 1.86636 11.2005C1.86419 11.0861 1.88542 10.9724 1.92875 10.8665C1.97209 10.7606 2.03661 10.6646 2.11836 10.5845L5.74903 7.00052L2.11836 3.36985C1.96454 3.21936 1.87433 3.01557 1.86636 2.80052C1.86636 2.55299 1.9647 2.31559 2.13973 2.14055C2.31476 1.96552 2.55216 1.86719 2.7997 1.86719C3.0237 1.86999 3.23836 1.96052 3.39703 2.11919Z" fill="white"/>
</svg>
