<svg width="24" height="24" viewBox="0 0 24 24" fill="none" xmlns="http://www.w3.org/2000/svg">
<mask id="path-1-inside-1_0_82" fill="white">
<path d="M12 7C11.4067 7 10.8266 7.20527 10.3333 7.58986C9.83994 7.97444 9.45543 8.52107 9.22836 9.16061C9.0013 9.80015 8.94189 10.5039 9.05765 11.1828C9.1734 11.8617 9.45912 12.4854 9.87868 12.9749C10.2982 13.4644 10.8328 13.7977 11.4147 13.9327C11.9967 14.0678 12.5999 13.9985 13.1481 13.7336C13.6962 13.4687 14.1648 13.0201 14.4944 12.4445C14.8241 11.8689 15 11.1922 15 10.5C15 9.57174 14.6839 8.6815 14.1213 8.02513C13.5587 7.36875 12.7957 7 12 7ZM12 12.25C11.7033 12.25 11.4133 12.1474 11.1666 11.9551C10.92 11.7628 10.7277 11.4895 10.6142 11.1697C10.5007 10.8499 10.4709 10.4981 10.5288 10.1586C10.5867 9.81912 10.7296 9.5073 10.9393 9.26256C11.1491 9.01782 11.4164 8.85115 11.7074 8.78363C11.9983 8.7161 12.2999 8.75076 12.574 8.88321C12.8481 9.01566 13.0824 9.23997 13.2472 9.52775C13.412 9.81554 13.5 10.1539 13.5 10.5C13.5 10.9641 13.342 11.4092 13.0607 11.7374C12.7794 12.0656 12.3978 12.25 12 12.25Z"/>
</mask>
<path d="M12 7C11.4067 7 10.8266 7.20527 10.3333 7.58986C9.83994 7.97444 9.45543 8.52107 9.22836 9.16061C9.0013 9.80015 8.94189 10.5039 9.05765 11.1828C9.1734 11.8617 9.45912 12.4854 9.87868 12.9749C10.2982 13.4644 10.8328 13.7977 11.4147 13.9327C11.9967 14.0678 12.5999 13.9985 13.1481 13.7336C13.6962 13.4687 14.1648 13.0201 14.4944 12.4445C14.8241 11.8689 15 11.1922 15 10.5C15 9.57174 14.6839 8.6815 14.1213 8.02513C13.5587 7.36875 12.7957 7 12 7ZM12 12.25C11.7033 12.25 11.4133 12.1474 11.1666 11.9551C10.92 11.7628 10.7277 11.4895 10.6142 11.1697C10.5007 10.8499 10.4709 10.4981 10.5288 10.1586C10.5867 9.81912 10.7296 9.5073 10.9393 9.26256C11.1491 9.01782 11.4164 8.85115 11.7074 8.78363C11.9983 8.7161 12.2999 8.75076 12.574 8.88321C12.8481 9.01566 13.0824 9.23997 13.2472 9.52775C13.412 9.81554 13.5 10.1539 13.5 10.5C13.5 10.9641 13.342 11.4092 13.0607 11.7374C12.7794 12.0656 12.3978 12.25 12 12.25Z" fill="#DAA930"/>
<path d="M12 7V-14.3333V7ZM15 10.5H36.3333H15ZM12 -14.3333C6.38517 -14.3333 1.24039 -12.3714 -2.78259 -9.23527L23.4492 24.415C20.4129 26.7819 16.4281 28.3333 12 28.3333V-14.3333ZM-2.78259 -9.23527C-6.75206 -6.1409 -9.40921 -2.10696 -10.8755 2.02293L29.3322 16.2983C28.3201 19.1491 26.4319 22.0898 23.4492 24.415L-2.78259 -9.23527ZM-10.8755 2.02293C-12.3415 6.152 -12.6913 10.5505 -11.9722 14.7683L30.0875 7.5973C30.5751 10.4573 30.3441 13.4483 29.3322 16.2983L-10.8755 2.02293ZM-11.9722 14.7683C-11.2535 18.9838 -9.42411 23.2356 -6.31879 26.8584L26.0762 -0.908677C28.3424 1.73522 29.6003 4.73965 30.0875 7.5973L-11.9722 14.7683ZM-6.31879 26.8584C-3.18765 30.5114 1.22304 33.4679 6.59218 34.7138L16.2373 -6.84835C20.4425 -5.87246 23.7841 -3.58271 26.0762 -0.908677L-6.31879 26.8584ZM6.59218 34.7138C12.0151 35.9723 17.589 35.2812 22.4303 32.9417L3.86576 -5.4745C7.61075 -7.28426 11.9782 -7.83673 16.2373 -6.84835L6.59218 34.7138ZM22.4303 32.9417C27.2003 30.6366 30.7389 27.0064 33.0066 23.0469L-4.01777 1.84212C-2.40935 -0.966247 0.192151 -3.69923 3.86576 -5.4745L22.4303 32.9417ZM33.0066 23.0469C35.2671 19.1 36.3333 14.7428 36.3333 10.5H-6.33333C-6.33333 7.64164 -5.61897 4.63788 -4.01777 1.84212L33.0066 23.0469ZM36.3333 10.5C36.3333 4.8853 34.4506 -1.03799 30.3188 -5.85842L-2.07615 21.9087C-5.08274 18.401 -6.33333 14.2582 -6.33333 10.5H36.3333ZM30.3188 -5.85842C26.0999 -10.7805 19.6081 -14.3333 12 -14.3333V28.3333C5.98321 28.3333 1.01755 25.518 -2.07615 21.9087L30.3188 -5.85842ZM12 -9.08334C16.7248 -9.08334 20.9996 -7.42925 24.2825 -4.87005L-1.94924 28.7802C1.82707 31.724 6.68183 33.5833 12 33.5833V-9.08334ZM24.2825 -4.87005C27.512 -2.35256 29.5924 0.86145 30.718 4.03202L-9.48967 18.3074C-8.13692 22.1175 -5.67203 25.8781 -1.94924 28.7802L24.2825 -4.87005ZM30.718 4.03202C31.8434 7.20177 32.1042 10.5447 31.5587 13.7441L-10.501 6.57308C-11.1623 10.4515 -10.8421 14.4981 -9.48967 18.3074L30.718 4.03202ZM31.5587 13.7441C31.0136 16.9412 29.6128 20.2575 27.1368 23.1461L-5.25813 -4.62099C-8.15365 -1.24288 -9.84019 2.697 -10.501 6.57308L31.5587 13.7441ZM27.1368 23.1461C24.635 26.0649 21.0262 28.5213 16.5299 29.5647L6.88481 -11.9975C1.80662 -10.819 -2.33679 -8.02922 -5.25813 -4.62099L27.1368 23.1461ZM16.5299 29.5647C11.9799 30.6206 7.31081 30.0335 3.29174 28.0913L21.8563 -10.3249C17.2891 -12.532 12.0168 -13.1884 6.88481 -11.9975L16.5299 29.5647ZM3.29174 28.0913C-0.655953 26.1836 -3.49173 23.2263 -5.26497 20.1301L31.7594 -1.07463C29.6565 -4.74636 26.3522 -8.15224 21.8563 -10.3249L3.29174 28.0913ZM-5.26497 20.1301C-7.03099 17.0466 -7.83333 13.7045 -7.83333 10.5H34.8333C34.8333 6.60328 33.855 2.58449 31.7594 -1.07463L-5.26497 20.1301ZM-7.83333 10.5C-7.83333 6.27767 -6.42469 1.68974 -3.13681 -2.14611L29.2581 25.621C33.1086 21.1288 34.8333 15.6506 34.8333 10.5H-7.83333ZM-3.13681 -2.14611C0.238182 -6.08361 5.58536 -9.08334 12 -9.08334V33.5833C19.2103 33.5833 25.3205 30.2149 29.2581 25.621L-3.13681 -2.14611Z" fill="#DAA930" mask="url(#path-1-inside-1_0_82)"/>
<mask id="path-3-inside-2_0_82" fill="white">
<path d="M12 21.9999C11.33 22.0035 10.669 21.839 10.0723 21.52C9.4755 21.2011 8.96039 20.737 8.57006 20.1668C5.53794 15.7863 4 12.4933 4 10.3784C4 8.15634 4.84285 6.02525 6.34315 4.45399C7.84344 2.88273 9.87827 2 12 2C14.1217 2 16.1566 2.88273 17.6569 4.45399C19.1571 6.02525 20 8.15634 20 10.3784C20 12.4933 18.4621 15.7863 15.4299 20.1668C15.0396 20.737 14.5245 21.2011 13.9277 21.52C13.331 21.839 12.67 22.0035 12 21.9999ZM12 3.81901C10.3391 3.82099 8.74671 4.51289 7.57225 5.7429C6.39779 6.97292 5.73715 8.64061 5.73526 10.3801C5.73526 12.055 7.24137 15.1522 9.97514 19.101C10.2072 19.4358 10.5117 19.7083 10.8636 19.8962C11.2156 20.0841 11.605 20.182 12 20.182C12.395 20.182 12.7844 20.0841 13.1364 19.8962C13.4883 19.7083 13.7928 19.4358 14.0249 19.101C16.7586 15.1522 18.2647 12.055 18.2647 10.3801C18.2628 8.64061 17.6022 6.97292 16.4277 5.7429C15.2533 4.51289 13.6609 3.82099 12 3.81901Z"/>
</mask>
<path d="M12 21.9999C11.33 22.0035 10.669 21.839 10.0723 21.52C9.4755 21.2011 8.96039 20.737 8.57006 20.1668C5.53794 15.7863 4 12.4933 4 10.3784C4 8.15634 4.84285 6.02525 6.34315 4.45399C7.84344 2.88273 9.87827 2 12 2C14.1217 2 16.1566 2.88273 17.6569 4.45399C19.1571 6.02525 20 8.15634 20 10.3784C20 12.4933 18.4621 15.7863 15.4299 20.1668C15.0396 20.737 14.5245 21.2011 13.9277 21.52C13.331 21.839 12.67 22.0035 12 21.9999ZM12 3.81901C10.3391 3.82099 8.74671 4.51289 7.57225 5.7429C6.39779 6.97292 5.73715 8.64061 5.73526 10.3801C5.73526 12.055 7.24137 15.1522 9.97514 19.101C10.2072 19.4358 10.5117 19.7083 10.8636 19.8962C11.2156 20.0841 11.605 20.182 12 20.182C12.395 20.182 12.7844 20.0841 13.1364 19.8962C13.4883 19.7083 13.7928 19.4358 14.0249 19.101C16.7586 15.1522 18.2647 12.055 18.2647 10.3801C18.2628 8.64061 17.6022 6.97292 16.4277 5.7429C15.2533 4.51289 13.6609 3.82099 12 3.81901Z" fill="#DAA930"/>
<path d="M8.57006 20.1668L26.1746 8.11724L26.143 8.07102L26.1111 8.02497L8.57006 20.1668ZM4 10.3784H-17.3333H4ZM12 2V-19.3333V2ZM20 10.3784H41.3333H20ZM15.4299 20.1668L-2.1111 8.02497L-2.14298 8.07102L-2.17461 8.11724L15.4299 20.1668ZM5.73526 10.3801L-15.5981 10.3569L-15.5981 10.3685V10.3801H5.73526ZM9.97514 19.101L-7.56505 31.2441L-7.55748 31.255L9.97514 19.101ZM14.0249 19.101L31.5575 31.255L31.565 31.2441L14.0249 19.101ZM18.2647 10.3801H39.5981V10.3685L39.5981 10.3569L18.2647 10.3801ZM11.8856 0.666916C14.7991 0.651297 17.6293 1.36987 20.128 2.70533L0.0164869 40.3347C3.70868 42.3081 7.861 43.3558 12.1144 43.333L11.8856 0.666916ZM20.128 2.70533C22.6208 4.03763 24.6717 5.92141 26.1746 8.11724L-9.03448 32.2163C-6.75087 35.5527 -3.6698 38.3645 0.0164869 40.3347L20.128 2.70533ZM26.1111 8.02497C25.5786 7.2557 25.1852 6.63972 24.9044 6.16838C24.6185 5.68841 24.4972 5.43859 24.478 5.39735C24.4487 5.33455 24.6161 5.67496 24.8096 6.35636C24.9908 6.9944 25.3333 8.41038 25.3333 10.3784H-17.3333C-17.3333 16.0287 -15.4528 20.7269 -14.182 23.4486C-12.7347 26.5482 -10.883 29.5463 -8.97097 32.3086L26.1111 8.02497ZM25.3333 10.3784C25.3333 13.5043 24.1569 16.6893 21.7725 19.1864L-9.08624 -10.2785C-14.4712 -4.63877 -17.3333 2.80838 -17.3333 10.3784H25.3333ZM21.7725 19.1864C19.3561 21.7171 15.8627 23.3333 12 23.3333V-19.3333C3.8938 -19.3333 -3.66927 -15.9517 -9.08624 -10.2785L21.7725 19.1864ZM12 23.3333C8.13726 23.3333 4.64385 21.7171 2.22747 19.1864L33.0862 -10.2785C27.6693 -15.9517 20.1062 -19.3333 12 -19.3333V23.3333ZM2.22747 19.1864C-0.156908 16.6893 -1.33333 13.5043 -1.33333 10.3784H41.3333C41.3333 2.80837 38.4712 -4.63877 33.0862 -10.2785L2.22747 19.1864ZM-1.33333 10.3784C-1.33333 8.41038 -0.990786 6.9944 -0.809598 6.35636C-0.616098 5.67496 -0.448664 5.33455 -0.477988 5.39735C-0.497242 5.43859 -0.618473 5.68841 -0.904412 6.16838C-1.1852 6.63972 -1.57861 7.2557 -2.1111 8.02497L32.971 32.3086C34.883 29.5463 36.7347 26.5482 38.182 23.4486C39.4528 20.7269 41.3333 16.0287 41.3333 10.3784H-1.33333ZM-2.17461 8.11724C-0.671654 5.9214 1.37921 4.03763 3.87198 2.70533L23.9835 40.3347C27.6698 38.3645 30.7509 35.5527 33.0345 32.2163L-2.17461 8.11724ZM3.87198 2.70533C6.37066 1.36988 9.20091 0.651297 12.1144 0.666916L11.8856 43.333C16.139 43.3558 20.2913 42.3081 23.9835 40.3347L3.87198 2.70533ZM11.9745 -17.5143C4.33826 -17.5052 -2.77191 -14.3153 -7.85713 -8.98955L23.0016 20.4754C20.2653 23.3411 16.3399 25.1472 12.0255 25.1523L11.9745 -17.5143ZM-7.85713 -8.98955C-12.9105 -3.69709 -15.5904 3.27719 -15.5981 10.3569L27.0686 10.4034C27.0647 14.004 25.7061 17.6429 23.0016 20.4754L-7.85713 -8.98955ZM-15.5981 10.3801C-15.5981 16.3203 -13.3401 21.1914 -12.3558 23.216C-11.008 25.9882 -9.31281 28.7195 -7.56504 31.2441L27.5153 6.95799C26.5293 5.53376 26.1045 4.74201 26.0159 4.55966C25.9748 4.47516 26.1533 4.82064 26.3727 5.52165C26.4876 5.88888 26.6484 6.46321 26.786 7.21104C26.9208 7.94321 27.0686 9.02958 27.0686 10.3801H-15.5981ZM-7.55748 31.255C-5.43715 34.3136 -2.5891 36.8974 0.81672 38.7156L20.9105 1.07675C23.6125 2.5192 25.8516 4.55797 27.5078 6.94708L-7.55748 31.255ZM0.81672 38.7156C4.2282 40.5369 8.06415 41.5154 12 41.5154V-1.15132C15.1458 -1.15132 18.2029 -0.368727 20.9105 1.07675L0.81672 38.7156ZM12 41.5154C15.9358 41.5154 19.7718 40.5369 23.1833 38.7156L3.08948 1.07675C5.79708 -0.368727 8.85421 -1.15132 12 -1.15132V41.5154ZM23.1833 38.7156C26.5891 36.8974 29.4372 34.3136 31.5575 31.255L-3.50776 6.94708C-1.85159 4.55798 0.387528 2.51921 3.08948 1.07675L23.1833 38.7156ZM31.565 31.2441C33.3128 28.7195 35.008 25.9882 36.3558 23.216C37.3401 21.1914 39.5981 16.3203 39.5981 10.3801H-3.06859C-3.06859 9.02958 -2.92083 7.94321 -2.78603 7.21104C-2.64835 6.46321 -2.48761 5.88888 -2.37267 5.52165C-2.15326 4.82063 -1.97479 4.47516 -2.01587 4.55965C-2.10453 4.74201 -2.52932 5.53376 -3.51532 6.95799L31.565 31.2441ZM39.5981 10.3569C39.5904 3.27719 36.9105 -3.69709 31.8571 -8.98955L0.998366 20.4754C-1.70613 17.6429 -3.06465 14.004 -3.06858 10.4034L39.5981 10.3569ZM31.8571 -8.98955C26.7719 -14.3153 19.6617 -17.5052 12.0255 -17.5143L11.9745 25.1523C7.66012 25.1472 3.73468 23.3411 0.998366 20.4754L31.8571 -8.98955Z" fill="#DAA930" mask="url(#path-3-inside-2_0_82)"/>
</svg>
