<svg width="24" height="24" viewBox="0 0 24 24" fill="none" xmlns="http://www.w3.org/2000/svg">
<path d="M8.42927 18.0041C8.42851 17.8725 8.45374 17.742 8.5035 17.6202C8.55327 17.4983 8.62659 17.3875 8.71927 17.2941L13.3093 12.7141C13.403 12.6211 13.4774 12.5105 13.5282 12.3887C13.5789 12.2668 13.6051 12.1361 13.6051 12.0041C13.6051 11.8721 13.5789 11.7414 13.5282 11.6195C13.4774 11.4977 13.403 11.3871 13.3093 11.2941L8.71927 6.71409C8.53097 6.52579 8.42518 6.27039 8.42518 6.00409C8.42518 5.73779 8.53097 5.48239 8.71927 5.29409C8.90758 5.10579 9.16297 5 9.42927 5C9.56113 5 9.6917 5.02597 9.81352 5.07643C9.93534 5.12689 10.046 5.20085 10.1393 5.29409L14.7193 9.88409C15.2668 10.454 15.5726 11.2137 15.5726 12.0041C15.5726 12.7944 15.2668 13.5541 14.7193 14.1241L10.1393 18.7141C10.0463 18.8078 9.93571 18.8822 9.81385 18.933C9.69199 18.9837 9.56128 19.0099 9.42927 19.0099C9.29726 19.0099 9.16655 18.9837 9.04469 18.933C8.92284 18.8822 8.81223 18.8078 8.71927 18.7141C8.62659 18.6206 8.55327 18.5098 8.5035 18.388C8.45374 18.2662 8.42851 18.1357 8.42927 18.0041Z" fill="#DAA930"/>
</svg>
