<svg width="24" height="24" viewBox="0 0 24 24" fill="none" xmlns="http://www.w3.org/2000/svg">
<path d="M16.7419 15.904L17.6007 15.2051C17.8482 15.0037 18.0894 14.7878 18.321 14.5562L18.321 14.5562C20.855 12.0222 21.4754 8.39208 21.4987 8.24919C21.5082 8.19007 21.4566 8.13846 21.3974 8.14801C21.2552 8.17117 17.6414 8.78883 15.1081 11.3083L14.1676 12.2437L14.2566 10.9202C14.2744 10.6554 14.2842 10.3877 14.2842 10.1174C14.2842 6.06597 12.1577 2.63392 12.0746 2.50195L12.0746 2.50189C12.0402 2.4473 11.9596 2.4473 11.9252 2.50189L11.9252 2.50195C11.8421 2.63392 9.71562 6.06597 9.71562 10.1174C9.71562 10.3877 9.72539 10.6554 9.7432 10.9202L9.83224 12.2437L8.89173 11.3083C6.35845 8.78883 2.74465 8.17117 2.6024 8.14801L2.68274 7.6545L2.6024 8.14801C2.54328 8.13838 2.49158 8.19013 2.50115 8.2492L16.7419 15.904ZM16.7419 15.904L17.8342 16.0861M16.7419 15.904L17.8342 16.0861M17.8342 16.0861C19.8566 16.4232 21.4025 17.5311 21.4635 17.5754C21.5117 17.6105 21.5116 17.6831 21.4634 17.7181C21.3798 17.779 19.2441 19.3036 16.7058 19.3036C15.1337 19.3036 13.7089 18.7177 12.8225 18.2474L12.0882 17.8578V18.6891V21.4506C12.0882 21.4993 12.0487 21.5389 11.9999 21.5389C11.9512 21.5389 11.9117 21.4993 11.9117 21.4506V18.6891V17.8578L11.1774 18.2474C10.291 18.7177 8.86621 19.3036 7.29411 19.3036C4.7543 19.3036 2.61766 17.7772 2.5363 17.7181C2.48807 17.6829 2.48831 17.6104 2.53636 17.5754L2.5364 17.5754C2.59658 17.5316 4.14273 16.4232 6.16565 16.0861L7.25793 15.904M17.8342 16.0861L7.25793 15.904M7.25793 15.904L6.39906 15.2051C6.15163 15.0037 5.91037 14.7878 5.67878 14.5562L5.32522 14.9098M7.25793 15.904L5.32522 14.9098M5.32522 14.9098L5.67878 14.5562M5.32522 14.9098L5.67878 14.5562M5.67878 14.5562C3.14513 12.0226 2.52461 8.39316 2.50116 8.24927L5.67878 14.5562ZM15.2152 11.4503L15.5687 11.8039L15.2152 11.4503C14.7721 11.8934 14.3614 12.4014 13.9908 12.9593L13.941 13.0341L13.9205 13.1216C13.5912 14.5237 13.0988 15.7151 12.703 16.5333L12.2028 17.5673L13.3004 17.2288C14.5829 16.8334 16.6187 16.009 18.1963 14.4314C19.9354 12.6923 20.7608 10.3941 21.1045 9.15774L21.3415 8.30503L20.4888 8.54208C19.2528 8.88569 16.9545 9.71109 15.2152 11.4503ZM12.449 3.5619L12.0001 2.65177L11.5519 3.56221C10.9156 4.85482 9.89203 7.35686 9.89203 10.1174C9.89203 12.8778 10.9157 15.3619 11.5521 16.6431L11.9999 17.5446L12.4477 16.6431C13.0839 15.3622 14.1077 12.878 14.1077 10.1174C14.1077 7.35019 13.0855 4.8527 12.449 3.5619ZM3.51089 8.54212L2.65818 8.30507L2.89523 9.15778C3.23884 10.3938 4.0642 12.6921 5.80345 14.4315L5.80347 14.4315C7.38097 16.009 9.41669 16.8334 10.6993 17.2288L11.7969 17.5673L11.2967 16.5333C10.901 15.7151 10.4086 14.5237 10.0793 13.1216L10.0587 13.0342L10.009 12.9593C9.63839 12.4014 9.22759 11.8934 8.78461 11.4504L8.7846 11.4503C7.04545 9.71121 4.74722 8.88581 3.51089 8.54212ZM3.49369 17.2048L2.65867 17.6468L3.49372 18.0887C4.327 18.5297 5.73694 19.1271 7.29403 19.1271C8.60257 19.1271 9.80471 18.7053 10.6449 18.3124L11.8136 17.7659L10.5819 17.3821C9.84295 17.1519 8.89679 16.7905 7.93131 16.2445L7.83232 16.1885L7.71885 16.1808C6.227 16.0801 4.74525 16.5424 3.49369 17.2048ZM13.4178 17.3821L12.1861 17.7659L13.3547 18.3124C14.1949 18.7053 15.3971 19.1271 16.7057 19.1271C18.2628 19.1271 19.6726 18.5298 20.5061 18.0886L21.341 17.6466L20.506 17.2047C19.2545 16.5424 17.7727 16.08 16.2809 16.1808L16.1674 16.1885L16.0684 16.2444C15.1029 16.7905 14.1567 17.1518 13.4178 17.3821Z" stroke="white" stroke-width="1.00002"/>
</svg>
