<svg width="16" height="16" viewBox="0 0 16 16" fill="none" xmlns="http://www.w3.org/2000/svg">
<path d="M11.8889 2.44412H11.3333V1.88856C11.3333 1.5819 11.0844 1.33301 10.7778 1.33301C10.4711 1.33301 10.2222 1.5819 10.2222 1.88856V2.44412H5.77776V1.88856C5.77776 1.5819 5.52887 1.33301 5.2222 1.33301C4.91554 1.33301 4.66665 1.5819 4.66665 1.88856V2.44412H4.11109C2.57942 2.44412 1.33331 3.69023 1.33331 5.2219V11.8886C1.33331 13.4202 2.57942 14.6663 4.11109 14.6663H11.8889C13.4205 14.6663 14.6666 13.4202 14.6666 11.8886V5.2219C14.6666 3.69023 13.4205 2.44412 11.8889 2.44412ZM4.11109 3.55523H11.8889C12.8078 3.55523 13.5555 4.30301 13.5555 5.2219V5.77745H2.44442V5.2219C2.44442 4.30301 3.1922 3.55523 4.11109 3.55523ZM11.8889 13.5552H4.11109C3.1922 13.5552 2.44442 12.8075 2.44442 11.8886V6.88856H13.5555V11.8886C13.5555 12.8075 12.8078 13.5552 11.8889 13.5552ZM10.2222 10.2219C10.2222 10.5286 9.97331 10.7775 9.66665 10.7775H6.33331C6.02665 10.7775 5.77776 10.5286 5.77776 10.2219C5.77776 9.91523 6.02665 9.66634 6.33331 9.66634H9.66665C9.97331 9.66634 10.2222 9.91523 10.2222 10.2219Z" fill="#DAA930"/>
</svg>
