<svg width="11" height="11" viewBox="0 0 11 11" fill="none" xmlns="http://www.w3.org/2000/svg">
<path d="M0.249129 9.4829C-0.0807986 9.81282 -0.0875318 10.3986 0.255862 10.742C0.605989 11.0854 1.19178 11.0787 1.51497 10.7555L5.50104 6.76941L9.48037 10.7487C9.81703 11.0854 10.3961 11.0854 10.7395 10.742C11.0829 10.3919 11.0829 9.81956 10.7462 9.4829L6.76688 5.50357L10.7462 1.5175C11.0829 1.18084 11.0896 0.601787 10.7395 0.258393C10.3961 -0.0850006 9.81703 -0.0850006 9.48037 0.25166L5.50104 4.23099L1.51497 0.25166C1.19178 -0.0782674 0.599256 -0.0917338 0.255862 0.258393C-0.0875318 0.601787 -0.0807986 1.19431 0.249129 1.5175L4.22846 5.50357L0.249129 9.4829Z" fill="#EBEBF5" fill-opacity="0.6"/>
</svg>
