<svg width="32" height="32" viewBox="0 0 32 32" fill="none" xmlns="http://www.w3.org/2000/svg">
<g clip-path="url(#clip0_0_456)">
<path d="M26.6663 10.6667C26.6679 8.61358 26.077 6.60362 24.9644 4.87808C23.8518 3.15255 22.2648 1.78478 20.394 0.938944C18.5232 0.0931122 16.4481 -0.194832 14.4177 0.109675C12.3872 0.414182 10.4878 1.2982 8.94747 2.65561C7.40709 4.01303 6.29119 5.78615 5.73373 7.76215C5.17626 9.73815 5.20091 11.833 5.80473 13.7954C6.40854 15.7577 7.56585 17.5041 9.13774 18.8249C10.7096 20.1457 12.6293 20.9847 14.6663 21.2414V25.3334H11.9997C11.646 25.3334 11.3069 25.4739 11.0569 25.7239C10.8068 25.974 10.6663 26.3131 10.6663 26.6667C10.6663 27.0203 10.8068 27.3595 11.0569 27.6095C11.3069 27.8596 11.646 28 11.9997 28H14.6663V30.6667C14.6663 31.0203 14.8068 31.3595 15.0569 31.6095C15.3069 31.8596 15.646 32 15.9997 32C16.3533 32 16.6924 31.8596 16.9425 31.6095C17.1925 31.3595 17.333 31.0203 17.333 30.6667V28H19.9997C20.3533 28 20.6924 27.8596 20.9425 27.6095C21.1925 27.3595 21.333 27.0203 21.333 26.6667C21.333 26.3131 21.1925 25.974 20.9425 25.7239C20.6924 25.4739 20.3533 25.3334 19.9997 25.3334H17.333V21.2414C19.9083 20.9146 22.2764 19.6608 23.9943 17.7145C25.7121 15.7682 26.662 13.2627 26.6663 10.6667ZM7.99967 10.6667C7.99967 9.08446 8.46886 7.53774 9.34791 6.22215C10.227 4.90656 11.4764 3.88118 12.9382 3.27567C14.4 2.67017 16.0085 2.51175 17.5604 2.82043C19.1122 3.12911 20.5377 3.89104 21.6565 5.00986C22.7753 6.12868 23.5373 7.55414 23.846 9.10599C24.1546 10.6578 23.9962 12.2664 23.3907 13.7282C22.7852 15.19 21.7598 16.4394 20.4442 17.3185C19.1286 18.1975 17.5819 18.6667 15.9997 18.6667C13.8786 18.6646 11.845 17.8211 10.3452 16.3212C8.84532 14.8214 8.00179 12.7878 7.99967 10.6667Z" fill="#DAA930"/>
</g>
<defs>
<clipPath id="clip0_0_456">
<rect width="32" height="32" fill="white"/>
</clipPath>
</defs>
</svg>
