<svg width="24" height="24" viewBox="0 0 24 24" fill="none" xmlns="http://www.w3.org/2000/svg">
<path d="M9.19651 16.5002H5.62502C4.92883 16.5002 4.26116 16.2237 3.76888 15.7316C3.2766 15.2394 3.00004 14.572 3.00004 13.876V9.92619C2.99671 8.89084 3.22379 7.86771 3.66483 6.93092C4.10587 5.99414 4.74981 5.16715 5.55002 4.50986C6.30866 3.88056 7.19952 3.43043 8.15628 3.193C9.11304 2.95557 10.111 2.93696 11.076 3.13854C12.408 3.40639 13.6282 4.06945 14.5775 5.04115C15.5267 6.01286 16.1609 7.24809 16.3972 8.58561C16.5726 9.52927 16.5362 10.5001 16.2906 11.428C16.0449 12.3559 15.5962 13.2176 14.9767 13.951C14.2573 14.7713 13.3672 15.4245 12.3687 15.8648C11.3703 16.3052 10.2876 16.522 9.19651 16.5002ZM9.73426 5.25363C8.72639 5.25156 7.74981 5.60344 6.97502 6.24783C6.43587 6.6975 6.00197 7.25995 5.70392 7.89551C5.40587 8.53107 5.25093 9.22426 5.25003 9.92619V13.876C5.25003 13.9754 5.28954 14.0708 5.35986 14.1411C5.43019 14.2114 5.52557 14.2509 5.62502 14.2509H9.19651C9.95978 14.2716 10.7184 14.1256 11.4194 13.8231C12.1204 13.5206 12.747 13.0689 13.2555 12.4994C13.6617 12.0159 13.9554 11.4482 14.1153 10.8373C14.2753 10.2265 14.2974 9.58771 14.1802 8.96724C14.0154 8.0808 13.5909 7.26326 12.9607 6.61828C12.3305 5.9733 11.5229 5.52992 10.6403 5.34436C10.3419 5.28478 10.0385 5.2544 9.73426 5.25363ZM18.7342 10.3386C18.4974 10.1484 18.2467 9.97626 17.9842 9.82347C17.9813 10.6738 17.8412 11.5182 17.5695 12.324C18.3209 13.0734 18.7453 14.0895 18.75 15.1506V18.3746C18.75 18.474 18.7105 18.5694 18.6401 18.6397C18.5698 18.71 18.4744 18.7495 18.375 18.7495H15.48C14.89 18.7626 14.3032 18.6587 13.7536 18.4436C13.204 18.2286 12.7026 17.9067 12.2782 17.4966C11.4827 17.761 10.6559 17.9195 9.81901 17.9682C9.97691 18.2375 10.1565 18.4936 10.356 18.7337C10.9934 19.4618 11.7822 20.0417 12.6673 20.433C13.5524 20.8242 14.5124 21.0174 15.48 20.9988H18.375C19.0712 20.9988 19.7388 20.7223 20.2311 20.2302C20.7234 19.738 21 19.0706 21 18.3746V15.1506C21.0033 14.2312 20.802 13.3225 20.4106 12.4905C20.0193 11.6585 19.4477 10.9239 18.7372 10.3401L18.7342 10.3386Z" fill="#FAFAFA"/>
</svg>
