<svg width="24" height="24" viewBox="0 0 24 24" fill="none" xmlns="http://www.w3.org/2000/svg">
<mask id="path-1-inside-1_0_843" fill="white">
<path d="M12 2C10.0222 2 8.08879 2.58649 6.4443 3.6853C4.79981 4.78412 3.51809 6.3459 2.76121 8.17316C2.00433 10.0004 1.8063 12.0111 2.19215 13.9509C2.578 15.8907 3.53041 17.6725 4.92894 19.0711C6.32746 20.4696 8.10929 21.422 10.0491 21.8078C11.9889 22.1937 13.9996 21.9957 15.8268 21.2388C17.6541 20.4819 19.2159 19.2002 20.3147 17.5557C21.4135 15.9112 22 13.9778 22 12C21.9971 9.34871 20.9426 6.80684 19.0679 4.9321C17.1932 3.05736 14.6513 2.00287 12 2V2ZM12 20.3333C10.3518 20.3333 8.74066 19.8446 7.37025 18.9289C5.99984 18.0132 4.93174 16.7117 4.30101 15.189C3.67028 13.6663 3.50525 11.9908 3.82679 10.3742C4.14834 8.75774 4.94201 7.27288 6.10745 6.10744C7.27288 4.94201 8.75774 4.14833 10.3743 3.82679C11.9908 3.50525 13.6663 3.67027 15.189 4.301C16.7117 4.93173 18.0132 5.99984 18.9289 7.37025C19.8446 8.74066 20.3333 10.3518 20.3333 12C20.3309 14.2094 19.4522 16.3276 17.8899 17.8899C16.3276 19.4522 14.2094 20.3309 12 20.3333Z"/>
</mask>
<path d="M12 2C10.0222 2 8.08879 2.58649 6.4443 3.6853C4.79981 4.78412 3.51809 6.3459 2.76121 8.17316C2.00433 10.0004 1.8063 12.0111 2.19215 13.9509C2.578 15.8907 3.53041 17.6725 4.92894 19.0711C6.32746 20.4696 8.10929 21.422 10.0491 21.8078C11.9889 22.1937 13.9996 21.9957 15.8268 21.2388C17.6541 20.4819 19.2159 19.2002 20.3147 17.5557C21.4135 15.9112 22 13.9778 22 12C21.9971 9.34871 20.9426 6.80684 19.0679 4.9321C17.1932 3.05736 14.6513 2.00287 12 2V2ZM12 20.3333C10.3518 20.3333 8.74066 19.8446 7.37025 18.9289C5.99984 18.0132 4.93174 16.7117 4.30101 15.189C3.67028 13.6663 3.50525 11.9908 3.82679 10.3742C4.14834 8.75774 4.94201 7.27288 6.10745 6.10744C7.27288 4.94201 8.75774 4.14833 10.3743 3.82679C11.9908 3.50525 13.6663 3.67027 15.189 4.301C16.7117 4.93173 18.0132 5.99984 18.9289 7.37025C19.8446 8.74066 20.3333 10.3518 20.3333 12C20.3309 14.2094 19.4522 16.3276 17.8899 17.8899C16.3276 19.4522 14.2094 20.3309 12 20.3333Z" fill="#DAA930"/>
<path d="M12 2H33.3333V-19.3333H12V2ZM22 12H43.3333V11.9885L43.3333 11.9769L22 12ZM12 2H-9.33333V23.3103L11.9769 23.3333L12 2ZM20.3333 12L41.6667 12.0234L41.6667 12.0117V12H20.3333ZM12 -19.3333C5.80286 -19.3333 -0.255124 -17.4957 -5.40787 -14.0527L18.2965 21.4233C16.4327 22.6686 14.2415 23.3333 12 23.3333V-19.3333ZM-5.40787 -14.0527C-10.5606 -10.6098 -14.5767 -5.71616 -16.9482 0.00925159L22.4706 16.3371C21.6128 18.408 20.1602 20.178 18.2965 21.4233L-5.40787 -14.0527ZM-16.9482 0.00925159C-19.3198 5.73467 -19.9403 12.0348 -18.7313 18.1128L23.1156 9.78897C23.5529 11.9874 23.3284 14.2662 22.4706 16.3371L-16.9482 0.00925159ZM-18.7313 18.1128C-17.5223 24.1909 -14.5381 29.774 -10.156 34.156L20.0139 3.98612C21.5989 5.57112 22.6783 7.59052 23.1156 9.78897L-18.7313 18.1128ZM-10.156 34.156C-5.77396 38.5381 -0.190895 41.5223 5.88717 42.7313L14.211 0.884429C16.4095 1.32173 18.4289 2.40112 20.0139 3.98612L-10.156 34.156ZM5.88717 42.7313C11.9652 43.9403 18.2653 43.3198 23.9907 40.9482L7.66292 1.52936C9.73382 0.671567 12.0126 0.44713 14.211 0.884429L5.88717 42.7313ZM23.9907 40.9482C29.7162 38.5767 34.6098 34.5606 38.0527 29.4079L2.57668 5.70354C3.822 3.83978 5.59203 2.38715 7.66292 1.52936L23.9907 40.9482ZM38.0527 29.4079C41.4957 24.2551 43.3333 18.1972 43.3333 12H0.666666C0.666666 9.75847 1.33136 7.56729 2.57668 5.70354L38.0527 29.4079ZM43.3333 11.9769C43.3243 3.67569 40.0227 -4.28298 34.1528 -10.1528L3.98296 20.017C1.86257 17.8967 0.669922 15.0217 0.666679 12.0231L43.3333 11.9769ZM34.1528 -10.1528C28.283 -16.0227 20.3243 -19.3243 12.0231 -19.3333L11.9769 23.3333C8.97826 23.3301 6.10334 22.1374 3.98296 20.017L34.1528 -10.1528ZM33.3333 2V2H-9.33333V2H33.3333ZM12 -1C14.5712 -1 17.0846 -0.237565 19.2224 1.19089L-4.48191 36.6669C0.396739 39.9267 6.13249 41.6667 12 41.6667V-1ZM19.2224 1.19089C21.3603 2.61935 23.0265 4.64967 24.0104 7.02511L-15.4084 23.3529C-13.163 28.7738 -9.36057 33.4071 -4.48191 36.6669L19.2224 1.19089ZM24.0104 7.02511C24.9944 9.40055 25.2518 12.0144 24.7502 14.5362L-17.0966 6.21232C-18.2413 11.9671 -17.6538 17.9321 -15.4084 23.3529L24.0104 7.02511ZM24.7502 14.5362C24.2486 17.0579 23.0105 19.3743 21.1924 21.1924L-8.9775 -8.9775C-13.1265 -4.82854 -15.9519 0.457553 -17.0966 6.21232L24.7502 14.5362ZM21.1924 21.1924C19.3743 23.0105 17.0579 24.2486 14.5362 24.7502L6.21232 -17.0966C0.457556 -15.9519 -4.82854 -13.1265 -8.9775 -8.9775L21.1924 21.1924ZM14.5362 24.7502C12.0144 25.2518 9.40056 24.9944 7.02512 24.0104L23.3529 -15.4084C17.9321 -17.6538 11.9671 -18.2413 6.21232 -17.0966L14.5362 24.7502ZM7.02512 24.0104C4.64967 23.0265 2.61935 21.3602 1.19089 19.2224L36.6669 -4.48192C33.4071 -9.36057 28.7738 -13.163 23.3529 -15.4084L7.02512 24.0104ZM1.19089 19.2224C-0.237561 17.0846 -1 14.5712 -1 12H41.6667C41.6667 6.13248 39.9267 0.396736 36.6669 -4.48192L1.19089 19.2224ZM-0.999987 11.9766C-0.996209 8.53613 0.372173 5.23769 2.80493 2.80493L32.9748 32.9748C38.5321 27.4175 41.658 19.8826 41.6667 12.0234L-0.999987 11.9766ZM2.80493 2.80493C5.23769 0.372171 8.53614 -0.996212 11.9766 -0.999991L12.0234 41.6667C19.8827 41.658 27.4175 38.5321 32.9748 32.9748L2.80493 2.80493Z" fill="#DAA930" mask="url(#path-1-inside-1_0_843)"/>
<path d="M12.5986 12.802C12.7227 12.7237 12.8249 12.6146 12.8951 12.4853C12.9654 12.3559 13.0015 12.2105 13 12.0631V11.586V11.5711V8.7041V7.86121C13 7.6328 12.9098 7.41375 12.7493 7.25224C12.5888 7.09073 12.3711 7 12.1441 7C11.9171 7 11.6995 7.09073 11.539 7.25224C11.3785 7.41375 11.2883 7.6328 11.2883 7.86121V8.7041V10.7187L11.8338 11.586L12.1338 12.0631L12.1395 12.0721L12.1421 12.0762L12.1421 12.0762L12.1441 12.0794L12.1545 12.0959L12.5986 12.802ZM12.5986 12.802L12.1537 12.0964L12.1441 12.0812L12.1404 12.0753L12.1404 12.0753L12.1384 12.0721L12.1327 12.0631L11.8319 11.586L11.2883 10.7238V11.586L11.2657 11.6002L11.2657 11.6002L10.5315 12.0631L10.4896 12.0895L9.138 12.9416L8.86142 14.1315M12.5986 12.802L12.2093 13.0468L12.1441 13.0878L10.0462 14.4073L9.32231 14.8625L9.3204 14.8637L9.31218 14.8689M9.31218 14.8689L8.85797 14.1464M9.31218 14.8689C9.11925 14.9902 8.88634 15.0294 8.66469 14.9779M9.31218 14.8689L8.85791 14.1466M8.85797 14.1464L8.85904 14.1418L8.85797 14.1464ZM8.85797 14.1464L8.85619 14.1435L8.84926 14.1325L8.3951 13.4101C8.39782 13.4083 8.40055 13.4066 8.40329 13.4048L9.138 12.9416L8.86142 14.1315M8.86142 14.1315L8.86107 14.133L8.86142 14.1315ZM8.66469 14.9779C8.44304 14.9263 8.25081 14.7883 8.13028 14.5942C8.00976 14.4 7.97081 14.1656 8.02201 13.9426C8.07245 13.7229 8.20633 13.5318 8.39479 13.4102L8.849 14.1324L8.85604 14.1436L8.85791 14.1466M8.66469 14.9779L8.85791 14.1466M8.66469 14.9779L8.85791 14.1466" fill="#DAA930" stroke="#DAA930" stroke-width="21.3333"/>
</svg>
