<svg width="32" height="32" viewBox="0 0 32 32" fill="none" xmlns="http://www.w3.org/2000/svg">
<g clip-path="url(#clip0_0_718)">
<path d="M31.5786 24.8783C31.5389 24.8249 30.8229 23.8735 29.6034 23.2258C30.9724 21.2735 31.1185 18.9724 31.1248 18.8607L31.1838 17.8131L30.1362 17.8721C30.0351 17.8778 28.1428 17.998 26.3376 19.0338C26.0668 16.0434 24.3177 14.1853 24.2373 14.1014L23.5606 13.3956L22.8839 14.1014C22.8035 14.1854 21.0545 16.0435 20.7836 19.0338C20.7583 19.0193 20.733 19.0056 20.7077 18.9915C20.389 15.6627 18.1446 12.9293 15.1242 11.8566V1.87672H16.9989V0.00195312H7.62511V1.87672H9.49987V11.8558C9.2191 11.9551 8.94382 12.0693 8.67491 12.1979L6.62836 10.1513L7.95401 8.82566L6.62836 7.50002L0 14.1283L1.32565 15.454L2.65129 14.1283L4.69804 16.1751C4.15817 17.3052 3.87545 18.5487 3.87545 19.812C3.87545 24.4638 7.66004 28.2484 12.3119 28.2484C13.821 28.2484 15.2774 27.8525 16.5644 27.0991C17.1873 27.5373 18.0153 27.9872 18.9619 28.167C18.8402 28.7607 18.811 29.1618 18.8093 29.1878L18.7357 30.252L19.8005 30.1882C19.872 30.1839 21.1639 30.0981 22.6232 29.4945V31.998H24.4979V29.4945C25.9573 30.0981 27.2492 30.1839 27.3206 30.1882L28.3853 30.252L28.3118 29.1879C28.31 29.1619 28.2808 28.7602 28.159 28.166C30.1875 27.771 31.5056 26.0891 31.5678 26.0085L32 25.4475L31.5786 24.8783ZM3.977 12.8027L5.30265 11.477L8.35364 14.528L8.97938 14.1582C9.50837 13.8457 10.0775 13.6097 10.6709 13.457L11.3746 13.2759V1.87672H13.2493V13.2759L13.9531 13.457C16.2834 14.0567 18.0714 15.902 18.6625 18.17C17.7346 17.9191 17.0449 17.8755 16.9849 17.8721L15.9374 17.8131L15.9964 18.8607C15.9966 18.8635 15.9969 18.8688 15.9972 18.8746H5.81802C6.05905 17.1976 6.83027 16.2489 7.02793 15.8536L3.977 12.8027ZM5.81752 20.7494H16.3543C16.5764 21.5047 16.9336 22.3887 17.5082 23.2122C16.2485 23.8397 15.4114 24.7574 15.3649 24.809L14.8016 25.4345L15.0907 25.7573C14.227 26.162 13.2838 26.3737 12.312 26.3737C9.01212 26.3737 6.27378 23.925 5.81752 20.7494ZM27.2075 26.3609C27.0179 26.3337 27.1219 26.3499 25.6056 26.1914L26.0628 27.5683C26.1238 27.752 26.1754 27.9296 26.2188 28.0964C25.5862 27.931 24.7986 27.6461 24.0897 27.1614L23.5606 26.7995L23.0315 27.1614C22.3201 27.6479 21.5335 27.9326 20.9022 28.0977C20.9458 27.9304 20.9974 27.7525 21.0585 27.5683L21.5157 26.1914C19.9844 26.3515 20.1015 26.334 19.9138 26.3609C19.1631 26.4686 18.1507 25.9603 17.4659 25.4383C17.9287 25.0877 18.5794 24.6941 19.3006 24.5554L21.0864 24.2121C19.0642 22.2855 19.7136 22.9148 19.5837 22.785C18.7307 21.932 18.2971 20.7995 18.0796 19.9523C18.9235 20.1681 20.0507 20.6008 20.9093 21.4593C21.1061 21.6559 20.1975 20.7224 22.8395 23.4751C22.6838 21.0972 22.6233 20.6885 22.6233 19.812C22.6233 18.3251 23.1212 17.1284 23.5641 16.3583C24.0051 17.1232 24.4981 18.3133 24.4981 19.812C24.4981 20.6879 24.4374 21.0986 24.2819 23.4751C26.8596 20.782 26.0485 21.6227 26.212 21.4593C27.0637 20.6077 28.1939 20.1741 29.0406 19.9563C28.8227 20.8034 28.3891 21.9334 27.5376 22.785C27.4053 22.9173 28.0612 22.2814 26.0349 24.212L27.8207 24.5554C28.5356 24.6928 29.1246 25.0881 29.5211 25.4301C28.8837 25.9778 27.9367 26.4656 27.2075 26.3609Z" fill="#DAA930"/>
</g>
<defs>
<clipPath id="clip0_0_718">
<rect width="32" height="32" fill="white"/>
</clipPath>
</defs>
</svg>
