<svg width="15" height="19" viewBox="0 0 15 19" fill="none" xmlns="http://www.w3.org/2000/svg">
<path d="M9.8453 3.04477C9.2138 3.84248 8.2034 4.47166 7.19301 4.38177C7.06671 3.30318 7.56138 2.15718 8.14025 1.44936C8.77175 0.629178 9.87687 0.0449413 10.7715 0C10.8767 1.12353 10.4663 2.22459 9.8453 3.04477Z" fill="white"/>
<path d="M10.7609 4.59518C9.87073 4.54049 9.05852 4.88095 8.40247 5.15595C7.98029 5.33291 7.62277 5.48277 7.35078 5.48277C7.04556 5.48277 6.67328 5.3249 6.25531 5.14765C5.70762 4.91539 5.08147 4.64985 4.42484 4.6626C2.91977 4.68507 1.51995 5.59513 0.751625 7.04448C-0.827121 9.94319 0.341151 14.2351 1.86727 16.5945C2.61455 17.763 3.50917 19.0438 4.68797 18.9988C5.20657 18.978 5.57962 18.809 5.96569 18.6341C6.41016 18.4328 6.8719 18.2236 7.59286 18.2236C8.28883 18.2236 8.73037 18.4273 9.15422 18.6229C9.55723 18.8088 9.94426 18.9873 10.5188 18.9764C11.7397 18.9539 12.508 17.8079 13.2553 16.6394C14.0617 15.3854 14.4161 14.1615 14.4699 13.9757L14.4699 13.9757L14.4762 13.9542C14.4749 13.9528 14.4649 13.948 14.4474 13.9394C14.1778 13.8076 12.1173 12.8007 12.0975 10.1005C12.0777 7.83407 13.7319 6.68577 13.9923 6.505C14.0081 6.494 14.0188 6.48658 14.0236 6.48272C12.9711 4.81989 11.3292 4.64013 10.7609 4.59518Z" fill="white"/>
</svg>
