<svg width="14" height="14" viewBox="0 0 14 14" fill="none" xmlns="http://www.w3.org/2000/svg">
<path d="M2.48464 7.4771C2.48464 7.88176 1.99325 8.10282 1.66959 7.84376L0.178814 6.65054C-0.0320197 6.48178 -0.0605062 6.18082 0.115189 5.97832C0.290884 5.77582 0.604228 5.74846 0.815062 5.91721L1.49079 6.45806V4.61336C1.49079 3.03176 2.82568 1.74963 4.47234 1.74963H9.4416C9.87168 1.74963 10.2902 1.88361 10.6342 2.13146L11.2305 2.56102C11.4501 2.71918 11.4946 3.01834 11.3299 3.22922C11.1653 3.4401 10.8538 3.48284 10.6342 3.32468L10.0379 2.89512C9.86588 2.77119 9.65664 2.7042 9.4416 2.7042H4.47234C3.37457 2.7042 2.48464 3.55896 2.48464 4.61336V7.4771Z" fill="white"/>
<path d="M10.9324 6.52248C10.9324 6.11781 11.4238 5.89675 11.7475 6.15581L13.2383 7.34904C13.4491 7.51779 13.4776 7.81875 13.3019 8.02125C13.1262 8.22376 12.8128 8.25112 12.602 8.08236L11.9263 7.54151V9.38621C11.9263 10.9678 10.5914 12.2499 8.94473 12.2499H3.97548C3.5454 12.2499 3.12692 12.116 2.78286 11.8681L2.18654 11.4386C1.96699 11.2804 1.92249 10.9812 2.08716 10.7704C2.25183 10.5595 2.5633 10.5167 2.78286 10.6749L3.37917 11.1045C3.5512 11.2284 3.76044 11.2954 3.97548 11.2954H8.94473C10.0425 11.2954 10.9324 10.4406 10.9324 9.38621V6.52248Z" fill="white"/>
<path fill-rule="evenodd" clip-rule="evenodd" d="M8.9447 6.99979C8.9447 8.18598 7.94354 9.14759 6.70854 9.14759C5.47354 9.14759 4.47237 8.18598 4.47237 6.99979C4.47237 5.81359 5.47354 4.85199 6.70854 4.85199C7.94354 4.85199 8.9447 5.81359 8.9447 6.99979ZM7.95085 6.99979C7.95085 7.65879 7.39465 8.19301 6.70854 8.19301C6.02243 8.19301 5.46623 7.65879 5.46623 6.99979C5.46623 6.34079 6.02243 5.80656 6.70854 5.80656C7.39465 5.80656 7.95085 6.34079 7.95085 6.99979Z" fill="white"/>
</svg>
