<svg width="32" height="32" viewBox="0 0 32 32" fill="none" xmlns="http://www.w3.org/2000/svg">
<g clip-path="url(#clip0_0_387)">
<path d="M10.3746 4.29883L6.62464 8.04883L4.74964 6.17383L3.42383 7.49964L6.62464 10.7005L11.7005 5.62464L10.3746 4.29883Z" fill="#DAA930"/>
<path d="M7.5625 0C3.3925 0 0 3.3645 0 7.5C0 11.6355 3.3925 15 7.5625 15C8.20325 15 8.83006 14.9208 9.4375 14.7642V18.8125H8.86981C7.11506 18.8125 5.6875 20.2401 5.6875 21.9948C5.6875 24.3979 6.40931 26.8041 7.71994 28.7701L9.87325 32H18.4544L18.7135 31.4818C20.0049 28.899 20.6875 25.9859 20.6875 23.0574V21.625C20.6875 20.0742 19.4258 18.8125 17.875 18.8125H15.0625V12.1875C15.0625 11.532 14.8364 10.9286 14.4591 10.4499C14.8552 9.52238 15.0625 8.5155 15.0625 7.5C15.0625 3.3645 11.698 0 7.5625 0ZM7.5625 13.125C4.42637 13.125 1.875 10.6016 1.875 7.5C1.875 4.39838 4.42637 1.875 7.5625 1.875C10.6641 1.875 13.1875 4.39838 13.1875 7.5C13.1875 8.16319 13.0696 8.82094 12.8435 9.43856C12.6521 9.39725 12.4536 9.375 12.25 9.375C10.6992 9.375 9.4375 10.6367 9.4375 12.1875V12.8051C8.83869 13.0173 8.21037 13.125 7.5625 13.125ZM17.875 20.6875C18.3919 20.6875 18.8125 21.1081 18.8125 21.625V23.0574C18.8125 25.5019 18.2854 27.933 17.2843 30.125H10.8767L9.28006 27.73C8.1725 26.0686 7.5625 24.0318 7.5625 21.9948C7.5625 21.274 8.14894 20.6875 8.86981 20.6875H9.4375V23.5625H11.3125V12.1875C11.3125 11.6706 11.7331 11.25 12.25 11.25C12.7669 11.25 13.1875 11.6706 13.1875 12.1875V20.6875H17.875Z" fill="#DAA930"/>
<path d="M26.3121 4.29883L24.4371 6.17383L22.5621 4.29883L21.2363 5.62464L23.1113 7.49964L21.2363 9.37464L22.5621 10.7005L24.4371 8.82545L26.3121 10.7005L27.638 9.37464L25.763 7.49964L27.638 5.62464L26.3121 4.29883Z" fill="#DAA930"/>
<path d="M24.4375 0C20.302 0 16.9375 3.3645 16.9375 7.5C16.9375 11.6355 20.302 15 24.4375 15C28.6075 15 32 11.6355 32 7.5C32 3.3645 28.6075 0 24.4375 0ZM24.4375 13.125C21.3359 13.125 18.8125 10.6016 18.8125 7.5C18.8125 4.39838 21.3359 1.875 24.4375 1.875C27.5736 1.875 30.125 4.39838 30.125 7.5C30.125 10.6016 27.5736 13.125 24.4375 13.125Z" fill="#DAA930"/>
</g>
<defs>
<clipPath id="clip0_0_387">
<rect width="32" height="32" fill="white"/>
</clipPath>
</defs>
</svg>
