<svg width="24" height="24" viewBox="0 0 24 24" fill="none" xmlns="http://www.w3.org/2000/svg">
<g clip-path="url(#clip0_0_1070)">
<path d="M22.829 9.17143L18.95 5.29243C18.7614 5.11027 18.5088 5.00948 18.2466 5.01176C17.9844 5.01403 17.7336 5.1192 17.5482 5.30461C17.3628 5.49002 17.2576 5.74083 17.2553 6.00303C17.2531 6.26523 17.3539 6.51783 17.536 6.70643L21.415 10.5854C21.5303 10.703 21.631 10.8339 21.715 10.9754C21.7 10.9754 21.688 10.9674 21.673 10.9674L5.98901 10.9994C5.7238 10.9994 5.46944 11.1048 5.28191 11.2923C5.09437 11.4799 4.98901 11.7342 4.98901 11.9994C4.98901 12.2646 5.09437 12.519 5.28191 12.7065C5.46944 12.8941 5.7238 12.9994 5.98901 12.9994L21.667 12.9674C21.695 12.9674 21.718 12.9534 21.745 12.9514C21.6563 13.1206 21.5438 13.2762 21.411 13.4134L17.532 17.2924C17.4365 17.3847 17.3603 17.495 17.3079 17.617C17.2555 17.739 17.2279 17.8703 17.2268 18.003C17.2256 18.1358 17.2509 18.2675 17.3012 18.3904C17.3515 18.5133 17.4257 18.6249 17.5196 18.7188C17.6135 18.8127 17.7252 18.887 17.8481 18.9373C17.971 18.9875 18.1026 19.0128 18.2354 19.0117C18.3682 19.0105 18.4994 18.9829 18.6214 18.9305C18.7434 18.8781 18.8538 18.8019 18.946 18.7064L22.825 14.8274C23.5749 14.0773 23.9962 13.0601 23.9962 11.9994C23.9962 10.9388 23.5749 9.92154 22.825 9.17143H22.829Z" fill="white"/>
<path d="M7 22H5C4.20435 22 3.44129 21.6839 2.87868 21.1213C2.31607 20.5587 2 19.7956 2 19V5C2 4.20435 2.31607 3.44129 2.87868 2.87868C3.44129 2.31607 4.20435 2 5 2H7C7.26522 2 7.51957 1.89464 7.70711 1.70711C7.89464 1.51957 8 1.26522 8 1C8 0.734784 7.89464 0.48043 7.70711 0.292893C7.51957 0.105357 7.26522 0 7 0L5 0C3.67441 0.00158786 2.40356 0.528882 1.46622 1.46622C0.528882 2.40356 0.00158786 3.67441 0 5L0 19C0.00158786 20.3256 0.528882 21.5964 1.46622 22.5338C2.40356 23.4711 3.67441 23.9984 5 24H7C7.26522 24 7.51957 23.8946 7.70711 23.7071C7.89464 23.5196 8 23.2652 8 23C8 22.7348 7.89464 22.4804 7.70711 22.2929C7.51957 22.1054 7.26522 22 7 22Z" fill="white"/>
</g>
<defs>
<clipPath id="clip0_0_1070">
<rect width="24" height="24" fill="white"/>
</clipPath>
</defs>
</svg>
