<svg width="32" height="32" viewBox="0 0 32 32" fill="none" xmlns="http://www.w3.org/2000/svg">
<g clip-path="url(#clip0_0_405)">
<path d="M29.1953 25.5211C29.7758 24.8184 30.125 23.918 30.125 22.9375C30.125 20.6974 28.3026 18.875 26.0625 18.875C24.5769 18.875 23.2757 19.677 22.5672 20.8703L18.8097 19.7034C18.7646 18.5286 17.996 17.5367 16.9375 17.1612V13.125H21C21.5177 13.125 21.9375 12.7052 21.9375 12.1875V10.9375C21.9375 9.02231 20.7824 7.37269 19.1328 6.64612C19.7133 5.94344 20.0625 5.043 20.0625 4.0625C20.0625 1.82244 18.2401 0 16 0C13.7599 0 11.9375 1.82244 11.9375 4.0625C11.9375 5.043 12.2867 5.94344 12.8672 6.64612C11.2176 7.37269 10.0625 9.02231 10.0625 10.9375V12.1875C10.0625 12.7052 10.4823 13.125 11 13.125H15.0625V17.1612C14.004 17.5367 13.2354 18.5286 13.1903 19.7034L9.43275 20.8703C8.72431 19.677 7.42306 18.875 5.9375 18.875C3.69744 18.875 1.875 20.6974 1.875 22.9375C1.875 23.918 2.22419 24.8184 2.80469 25.5211C1.15506 26.2477 0 27.8973 0 29.8125V31.0625C0 31.5802 0.41975 32 0.9375 32H10.9375C11.4552 32 11.875 31.5802 11.875 31.0625V29.8125C11.875 27.8973 10.7199 26.2477 9.07031 25.5211C9.65081 24.8184 10 23.918 10 22.9375C10 22.8444 9.99569 22.7523 9.9895 22.6608L13.7467 21.4939C14.2601 22.1801 15.0791 22.625 16 22.625C16.9209 22.625 17.7399 22.1801 18.2533 21.4939L22.0105 22.6608C22.0043 22.7523 22 22.8444 22 22.9375C22 23.918 22.3492 24.8184 22.9297 25.5211C21.2801 26.2477 20.125 27.8973 20.125 29.8125V31.0625C20.125 31.5802 20.5448 32 21.0625 32H31.0625C31.5802 32 32 31.5802 32 31.0625V29.8125C32 27.8973 30.8449 26.2477 29.1953 25.5211ZM16 1.875C17.2062 1.875 18.1875 2.85631 18.1875 4.0625C18.1875 5.26869 17.2062 6.25 16 6.25C14.7938 6.25 13.8125 5.26869 13.8125 4.0625C13.8125 2.85631 14.7938 1.875 16 1.875ZM11.9375 10.9375C11.9375 9.38669 13.1992 8.125 14.75 8.125H17.25C18.8008 8.125 20.0625 9.38669 20.0625 10.9375V11.25H11.9375V10.9375ZM5.9375 20.75C7.14369 20.75 8.125 21.7313 8.125 22.9375C8.125 24.1437 7.14369 25.125 5.9375 25.125C4.73131 25.125 3.75 24.1437 3.75 22.9375C3.75 21.7313 4.73131 20.75 5.9375 20.75ZM10 29.8125V30.125H1.875V29.8125C1.875 28.2617 3.13669 27 4.6875 27H7.1875C8.73831 27 10 28.2617 10 29.8125ZM16 20.75C15.4831 20.75 15.0625 20.3294 15.0625 19.8125C15.0625 19.2956 15.4831 18.875 16 18.875C16.5169 18.875 16.9375 19.2956 16.9375 19.8125C16.9375 20.3294 16.5169 20.75 16 20.75ZM26.0625 20.75C27.2687 20.75 28.25 21.7313 28.25 22.9375C28.25 24.1437 27.2687 25.125 26.0625 25.125C24.8563 25.125 23.875 24.1437 23.875 22.9375C23.875 21.7313 24.8563 20.75 26.0625 20.75ZM30.125 30.125H22V29.8125C22 28.2617 23.2617 27 24.8125 27H27.3125C28.8633 27 30.125 28.2617 30.125 29.8125V30.125Z" fill="#DAA930"/>
</g>
<defs>
<clipPath id="clip0_0_405">
<rect width="32" height="32" fill="white"/>
</clipPath>
</defs>
</svg>
