<svg width="36" height="36" viewBox="0 0 36 36" fill="none" xmlns="http://www.w3.org/2000/svg">
<path fill-rule="evenodd" clip-rule="evenodd" d="M10.1912 19.2521L8.49176 17.8926C8.17257 18.8703 8 19.9143 8 20.9986C8 26.5214 12.4772 30.9986 18 30.9986C23.5228 30.9986 28 26.5214 28 20.9986C28 19.9143 27.8274 18.8703 27.5082 17.8926L25.8088 19.2521C25.934 19.8143 26 20.3987 26 20.9986C26 25.4169 22.4183 28.9986 18 28.9986C13.5817 28.9986 10 25.4169 10 20.9986C10 20.3987 10.066 19.8143 10.1912 19.2521Z" fill="white"/>
<path d="M18 19.5L17.3753 20.2809L18 20.7806L18.6247 20.2809L18 19.5ZM19 6C19 5.44772 18.5523 5 18 5C17.4477 5 17 5.44772 17 6L19 6ZM9.87531 14.2809L17.3753 20.2809L18.6247 18.7191L11.1247 12.7191L9.87531 14.2809ZM18.6247 20.2809L26.1247 14.2809L24.8753 12.7191L17.3753 18.7191L18.6247 20.2809ZM19 19.5L19 6L17 6L17 19.5L19 19.5Z" fill="white"/>
</svg>
