<svg width="33" height="32" viewBox="0 0 33 32" fill="none" xmlns="http://www.w3.org/2000/svg">
<path d="M16.1575 31.9995C7.27976 31.9995 0 24.8494 0 15.9998C0 7.20869 7.22057 0 16.1575 0C25.0353 0 32.315 7.15008 32.315 15.9998C32.315 24.8494 25.0944 31.9995 16.1575 31.9995Z" fill="#3C5A99"/>
<path fill-rule="evenodd" clip-rule="evenodd" d="M13.6123 16.0582V25.3181C13.6123 25.4353 13.7307 25.5525 13.8491 25.5525H17.341C17.4594 25.5525 17.5777 25.4353 17.5777 25.3181V15.941H20.1227C20.2411 15.941 20.3594 15.8238 20.3594 15.7065L20.5962 12.8934C20.5962 12.7762 20.4778 12.659 20.3594 12.659H17.5777V10.6663C17.5777 10.1975 17.992 9.78721 18.4655 9.78721H20.4186C20.537 9.78721 20.6554 9.67 20.6554 9.55278V6.73964C20.6554 6.62242 20.537 6.50521 20.4186 6.50521H17.1634C15.2103 6.50521 13.6715 8.029 13.6715 9.96303V12.6004H11.9552C11.8368 12.6004 11.7184 12.7176 11.7184 12.8348V15.6479C11.7184 15.7651 11.8368 15.8824 11.9552 15.8824H13.6715V16.0582H13.6123Z" fill="white"/>
</svg>
