<svg width="10" height="10" viewBox="0 0 10 10" fill="none" xmlns="http://www.w3.org/2000/svg">
<g clip-path="url(#clip0_0_786)">
<mask id="path-1-inside-1_0_786" fill="white">
<path d="M5 5C5.49445 5 5.9778 4.85338 6.38893 4.57867C6.80005 4.30397 7.12048 3.91352 7.3097 3.45671C7.49892 2.99989 7.54843 2.49723 7.45196 2.01227C7.3555 1.52732 7.1174 1.08187 6.76777 0.732234C6.41814 0.382603 5.97268 0.144501 5.48773 0.0480379C5.00277 -0.0484251 4.50011 0.00108321 4.04329 0.190302C3.58648 0.379521 3.19603 0.699952 2.92133 1.11108C2.64662 1.5222 2.5 2.00555 2.5 2.5C2.50066 3.16284 2.76427 3.79834 3.23296 4.26704C3.70166 4.73573 4.33716 4.99934 5 5ZM5 0.833334C5.32964 0.833334 5.65187 0.931082 5.92595 1.11422C6.20003 1.29735 6.41365 1.55765 6.5398 1.86219C6.66595 2.16674 6.69895 2.50185 6.63464 2.82515C6.57033 3.14845 6.4116 3.44542 6.17851 3.67851C5.94542 3.9116 5.64845 4.07033 5.32515 4.13464C5.00185 4.19895 4.66674 4.16595 4.36219 4.0398C4.05765 3.91365 3.79735 3.70003 3.61422 3.42595C3.43108 3.15187 3.33333 2.82964 3.33333 2.5C3.33333 2.05797 3.50893 1.63405 3.82149 1.32149C4.13405 1.00893 4.55797 0.833334 5 0.833334Z"/>
</mask>
<path d="M5 5C5.49445 5 5.9778 4.85338 6.38893 4.57867C6.80005 4.30397 7.12048 3.91352 7.3097 3.45671C7.49892 2.99989 7.54843 2.49723 7.45196 2.01227C7.3555 1.52732 7.1174 1.08187 6.76777 0.732234C6.41814 0.382603 5.97268 0.144501 5.48773 0.0480379C5.00277 -0.0484251 4.50011 0.00108321 4.04329 0.190302C3.58648 0.379521 3.19603 0.699952 2.92133 1.11108C2.64662 1.5222 2.5 2.00555 2.5 2.5C2.50066 3.16284 2.76427 3.79834 3.23296 4.26704C3.70166 4.73573 4.33716 4.99934 5 5ZM5 0.833334C5.32964 0.833334 5.65187 0.931082 5.92595 1.11422C6.20003 1.29735 6.41365 1.55765 6.5398 1.86219C6.66595 2.16674 6.69895 2.50185 6.63464 2.82515C6.57033 3.14845 6.4116 3.44542 6.17851 3.67851C5.94542 3.9116 5.64845 4.07033 5.32515 4.13464C5.00185 4.19895 4.66674 4.16595 4.36219 4.0398C4.05765 3.91365 3.79735 3.70003 3.61422 3.42595C3.43108 3.15187 3.33333 2.82964 3.33333 2.5C3.33333 2.05797 3.50893 1.63405 3.82149 1.32149C4.13405 1.00893 4.55797 0.833334 5 0.833334Z" fill="#DAA930"/>
<path d="M5 5L4.9787 26.3333L4.98935 26.3333H5V5ZM2.5 2.5H-18.8333V2.51065L-18.8333 2.5213L2.5 2.5ZM5 0.833334V-20.5V0.833334ZM5 26.3333C9.71379 26.3333 14.3217 24.9355 18.2411 22.3167L-5.46324 -13.1593C-2.36611 -15.2288 1.27512 -16.3333 5 -16.3333L5 26.3333ZM18.2411 22.3167C22.1605 19.6979 25.2152 15.9756 27.0191 11.6206L-12.3997 -4.70721C-10.9743 -8.14856 -8.56036 -11.0899 -5.46324 -13.1593L18.2411 22.3167ZM27.0191 11.6206C28.823 7.26565 29.295 2.47356 28.3754 -2.14965L-13.4715 6.1742C-14.1981 2.52089 -13.8252 -1.26586 -12.3997 -4.70721L27.0191 11.6206ZM28.3754 -2.14965C27.4558 -6.77286 25.1859 -11.0196 21.8527 -14.3527L-8.31717 15.8172C-10.9511 13.1833 -12.7448 9.82751 -13.4715 6.1742L28.3754 -2.14965ZM21.8527 -14.3527C18.5196 -17.6859 14.2729 -19.9558 9.64965 -20.8754L1.3258 20.9715C-2.3275 20.2448 -5.68328 18.4511 -8.31717 15.8172L21.8527 -14.3527ZM9.64965 -20.8754C5.02644 -21.795 0.234352 -21.323 -4.12062 -19.5191L12.2072 19.8997C8.76586 21.3252 4.97911 21.6981 1.3258 20.9715L9.64965 -20.8754ZM-4.12062 -19.5191C-8.47559 -17.7152 -12.1978 -14.6605 -14.8167 -10.7411L20.6593 12.9632C18.5899 16.0604 15.6485 18.4743 12.2072 19.8997L-4.12062 -19.5191ZM-14.8167 -10.7411C-17.4355 -6.82172 -18.8333 -2.21379 -18.8333 2.5H23.8333C23.8333 6.22488 22.7288 9.86612 20.6593 12.9632L-14.8167 -10.7411ZM-18.8333 2.5213C-18.827 8.83471 -16.3162 14.8877 -11.852 19.352L18.3179 -10.8179C21.8448 -7.29105 23.8283 -2.50903 23.8333 2.4787L-18.8333 2.5213ZM-11.852 19.352C-7.38772 23.8162 -1.3347 26.327 4.9787 26.3333L5.0213 -16.3333C10.009 -16.3283 14.791 -14.3448 18.3179 -10.8179L-11.852 19.352ZM5 22.1667C1.1103 22.1667 -2.69205 21.0132 -5.92621 18.8522L17.7781 -16.6238C13.9958 -19.1511 9.54897 -20.5 5 -20.5L5 22.1667ZM-5.92621 18.8522C-9.16037 16.6912 -11.6811 13.6197 -13.1696 10.0261L26.2492 -6.30172C24.5084 -10.5044 21.5604 -14.0965 17.7781 -16.6238L-5.92621 18.8522ZM-13.1696 10.0261C-14.6582 6.4325 -15.0476 2.47818 -14.2888 -1.33678L27.5581 6.98708C28.4455 2.52551 27.99 -2.09902 26.2492 -6.30172L-13.1696 10.0261ZM-14.2888 -1.33678C-13.5299 -5.15174 -11.6569 -8.656 -8.90643 -11.4064L21.2635 18.7635C24.4801 15.5469 26.6706 11.4486 27.5581 6.98708L-14.2888 -1.33678ZM-8.90643 -11.4064C-6.156 -14.1569 -2.65173 -16.0299 1.16323 -16.7888L9.48708 25.0581C13.9486 24.1706 18.0468 21.9801 21.2635 18.7635L-8.90643 -11.4064ZM1.16323 -16.7888C4.97818 -17.5476 8.93249 -17.1582 12.5261 -15.6696L-3.80172 23.7492C0.400984 25.49 5.02551 25.9455 9.48708 25.0581L1.16323 -16.7888ZM12.5261 -15.6696C16.1197 -14.1811 19.1912 -11.6604 21.3522 -8.42622L-14.1238 15.2781C-11.5965 19.0604 -8.00443 22.0084 -3.80172 23.7492L12.5261 -15.6696ZM21.3522 -8.42622C23.5132 -5.19206 24.6667 -1.38971 24.6667 2.5H-18C-18 7.04898 -16.6511 11.4958 -14.1238 15.2781L21.3522 -8.42622ZM24.6667 2.5C24.6667 7.71592 22.5947 12.7182 18.9064 16.4064L-11.2635 -13.7635C-15.5768 -9.45012 -18 -3.59998 -18 2.5H24.6667ZM18.9064 16.4064C15.2182 20.0947 10.2159 22.1667 5 22.1667L5 -20.5C-1.09998 -20.5 -6.95012 -18.0768 -11.2635 -13.7635L18.9064 16.4064Z" fill="#DAA930" mask="url(#path-1-inside-1_0_786)"/>
<path d="M5 5.83301C4.00578 5.83411 3.05259 6.22955 2.34957 6.93258C1.64654 7.6356 1.2511 8.58878 1.25 9.58301C1.25 9.69351 1.2939 9.7995 1.37204 9.87764C1.45018 9.95578 1.55616 9.99967 1.66667 9.99967C1.77717 9.99967 1.88315 9.95578 1.96129 9.87764C2.03943 9.7995 2.08333 9.69351 2.08333 9.58301C2.08333 8.80946 2.39062 8.06759 2.9376 7.52061C3.48459 6.97363 4.22645 6.66634 5 6.66634C5.77355 6.66634 6.51541 6.97363 7.06239 7.52061C7.60937 8.06759 7.91666 8.80946 7.91666 9.58301C7.91666 9.69351 7.96056 9.7995 8.0387 9.87764C8.11684 9.95578 8.22282 9.99967 8.33333 9.99967C8.44384 9.99967 8.54982 9.95578 8.62796 9.87764C8.7061 9.7995 8.75 9.69351 8.75 9.58301C8.74889 8.58878 8.35345 7.6356 7.65043 6.93258C6.94741 6.22955 5.99422 5.83411 5 5.83301Z" fill="#DAA930"/>
</g>
<defs>
<clipPath id="clip0_0_786">
<rect width="10" height="10" fill="white"/>
</clipPath>
</defs>
</svg>
