<svg width="20" height="20" viewBox="0 0 20 20" fill="none" xmlns="http://www.w3.org/2000/svg">
<mask id="path-1-inside-1_2402_14691" fill="white">
<path d="M14.8611 1.66699H5.13889C4.21833 1.66809 3.3358 2.03427 2.68487 2.6852C2.03394 3.33613 1.66777 4.21866 1.66666 5.13921L1.66666 14.8614C1.66777 15.782 2.03394 16.6645 2.68487 17.3155C3.3358 17.9664 4.21833 18.3326 5.13889 18.3337H14.8611C15.7817 18.3326 16.6642 17.9664 17.3151 17.3155C17.9661 16.6645 18.3322 15.782 18.3333 14.8614V5.13921C18.3322 4.21866 17.9661 3.33613 17.3151 2.6852C16.6642 2.03427 15.7817 1.66809 14.8611 1.66699V1.66699ZM5.13889 3.05588H14.8611C15.4136 3.05588 15.9435 3.27537 16.3342 3.66608C16.7249 4.05678 16.9444 4.58668 16.9444 5.13921V14.8614C16.9432 15.1708 16.872 15.4759 16.7361 15.7538L10.3729 9.3906C10.0505 9.06808 9.66766 8.81224 9.24633 8.63768C8.825 8.46313 8.37341 8.37329 7.91736 8.37329C7.4613 8.37329 7.00971 8.46313 6.58839 8.63768C6.16706 8.81224 5.78424 9.06808 5.4618 9.3906L3.05555 11.7962V5.13921C3.05555 4.58668 3.27505 4.05678 3.66575 3.66608C4.05645 3.27537 4.58635 3.05588 5.13889 3.05588ZM5.13889 16.9448C4.58635 16.9448 4.05645 16.7253 3.66575 16.3346C3.27505 15.9439 3.05555 15.414 3.05555 14.8614V13.76L6.44305 10.3725C6.63653 10.179 6.86625 10.0254 7.1191 9.92059C7.37195 9.81581 7.64296 9.76188 7.91666 9.76188C8.19036 9.76188 8.46138 9.81581 8.71423 9.92059C8.96708 10.0254 9.1968 10.179 9.39028 10.3725L15.7535 16.7364C15.4756 16.8723 15.1705 16.9436 14.8611 16.9448H5.13889Z"/>
</mask>
<path d="M14.8611 1.66699H5.13889C4.21833 1.66809 3.3358 2.03427 2.68487 2.6852C2.03394 3.33613 1.66777 4.21866 1.66666 5.13921L1.66666 14.8614C1.66777 15.782 2.03394 16.6645 2.68487 17.3155C3.3358 17.9664 4.21833 18.3326 5.13889 18.3337H14.8611C15.7817 18.3326 16.6642 17.9664 17.3151 17.3155C17.9661 16.6645 18.3322 15.782 18.3333 14.8614V5.13921C18.3322 4.21866 17.9661 3.33613 17.3151 2.6852C16.6642 2.03427 15.7817 1.66809 14.8611 1.66699V1.66699ZM5.13889 3.05588H14.8611C15.4136 3.05588 15.9435 3.27537 16.3342 3.66608C16.7249 4.05678 16.9444 4.58668 16.9444 5.13921V14.8614C16.9432 15.1708 16.872 15.4759 16.7361 15.7538L10.3729 9.3906C10.0505 9.06808 9.66766 8.81224 9.24633 8.63768C8.825 8.46313 8.37341 8.37329 7.91736 8.37329C7.4613 8.37329 7.00971 8.46313 6.58839 8.63768C6.16706 8.81224 5.78424 9.06808 5.4618 9.3906L3.05555 11.7962V5.13921C3.05555 4.58668 3.27505 4.05678 3.66575 3.66608C4.05645 3.27537 4.58635 3.05588 5.13889 3.05588ZM5.13889 16.9448C4.58635 16.9448 4.05645 16.7253 3.66575 16.3346C3.27505 15.9439 3.05555 15.414 3.05555 14.8614V13.76L6.44305 10.3725C6.63653 10.179 6.86625 10.0254 7.1191 9.92059C7.37195 9.81581 7.64296 9.76188 7.91666 9.76188C8.19036 9.76188 8.46138 9.81581 8.71423 9.92059C8.96708 10.0254 9.1968 10.179 9.39028 10.3725L15.7535 16.7364C15.4756 16.8723 15.1705 16.9436 14.8611 16.9448H5.13889Z" fill="white"/>
<path d="M14.8611 1.66699V23.0003H36.1944V1.66699H14.8611ZM5.13889 1.66699V-19.6663H5.12611L5.11333 -19.6663L5.13889 1.66699ZM1.66666 5.13921L-19.6667 5.11366L-19.6667 5.12644V5.13921H1.66666ZM1.66666 14.8614H-19.6667V14.8742L-19.6667 14.887L1.66666 14.8614ZM5.13889 18.3337L5.11333 39.667L5.12611 39.667H5.13889V18.3337ZM14.8611 18.3337V39.667H14.8739L14.8867 39.667L14.8611 18.3337ZM18.3333 14.8614L39.6666 14.887L39.6667 14.8742V14.8614H18.3333ZM18.3333 5.13921H39.6667V5.12644L39.6666 5.11366L18.3333 5.13921ZM14.8611 1.66699L14.8867 -19.6663L-6.47223 -19.6919V1.66699H14.8611ZM16.9444 5.13921H38.2778H16.9444ZM16.9444 14.8614L38.2776 14.944L38.2778 14.9027V14.8614H16.9444ZM16.7361 15.7538L1.65117 30.8387L22.7759 51.9635L35.9005 25.1259L16.7361 15.7538ZM10.3729 9.3906L-4.71402 24.4736L-4.71203 24.4755L10.3729 9.3906ZM5.4618 9.3906L20.5446 24.4777L20.5487 24.4736L5.4618 9.3906ZM3.05555 11.7962H-18.2778V63.2889L18.1383 26.8833L3.05555 11.7962ZM3.05555 5.13921H-18.2778H3.05555ZM5.13889 16.9448V38.2781V16.9448ZM3.05555 14.8614H-18.2778H3.05555ZM3.05555 13.76L-12.0294 -1.3249L-18.2778 4.92349V13.76H3.05555ZM6.44305 10.3725L21.528 25.4575L21.5328 25.4527L6.44305 10.3725ZM9.39028 10.3725L-5.6995 25.4527L-5.69549 25.4567L9.39028 10.3725ZM15.7535 16.7364L25.1256 35.9009L51.9617 22.777L30.8392 1.65232L15.7535 16.7364ZM14.8611 16.9448V38.2781H14.9024L14.9437 38.2779L14.8611 16.9448ZM14.8611 -19.6663H5.13889V23.0003H14.8611V-19.6663ZM5.11333 -19.6663C-1.45631 -19.6585 -7.75463 -17.0452 -12.4001 -12.3997L17.7698 17.7701C14.4262 21.1137 9.89298 22.9946 5.16444 23.0003L5.11333 -19.6663ZM-12.4001 -12.3997C-17.0455 -7.7543 -19.6588 -1.45599 -19.6667 5.11366L23 5.16477C22.9943 9.89331 21.1134 14.4266 17.7698 17.7701L-12.4001 -12.3997ZM-19.6667 5.13921V14.8614H23V5.13921H-19.6667ZM-19.6667 14.887C-19.6588 21.4566 -17.0455 27.7549 -12.4001 32.4004L17.7698 2.23051C21.1134 5.5741 22.9943 10.1073 23 14.8359L-19.6667 14.887ZM-12.4001 32.4004C-7.75462 37.0458 -1.4563 39.6591 5.11333 39.667L5.16444 -2.99966C9.89297 -2.994 14.4262 -1.11309 17.7698 2.23051L-12.4001 32.4004ZM5.13889 39.667H14.8611V-2.99967H5.13889V39.667ZM14.8867 39.667C21.4563 39.6591 27.7546 37.0459 32.4001 32.4004L2.23018 2.23051C5.57377 -1.11309 10.107 -2.994 14.8356 -2.99966L14.8867 39.667ZM32.4001 32.4004C37.0455 27.7549 39.6588 21.4566 39.6666 14.887L-2.99999 14.8359C-2.99432 10.1074 -1.11342 5.5741 2.23018 2.23051L32.4001 32.4004ZM39.6667 14.8614V5.13921H-3V14.8614H39.6667ZM39.6666 5.11366C39.6588 -1.45598 37.0455 -7.75429 32.4001 -12.3997L2.23018 17.7701C-1.11341 14.4266 -2.99432 9.8933 -2.99999 5.16477L39.6666 5.11366ZM32.4001 -12.3997C27.7546 -17.0452 21.4563 -19.6585 14.8867 -19.6663L14.8356 23.0003C10.107 22.9946 5.57377 21.1137 2.23018 17.7701L32.4001 -12.3997ZM-6.47223 1.66699V1.66699H36.1944V1.66699H-6.47223ZM5.13889 24.3892H14.8611V-18.2775H5.13889V24.3892ZM14.8611 24.3892C9.75569 24.3892 4.85938 22.3611 1.2493 18.751L31.4192 -11.4189C27.0277 -15.8103 21.0716 -18.2775 14.8611 -18.2775V24.3892ZM1.2493 18.751C-2.36078 15.1409 -4.38889 10.2446 -4.38889 5.13921H38.2778C38.2778 -1.07127 35.8107 -7.02739 31.4192 -11.4189L1.2493 18.751ZM-4.38889 5.13921V14.8614H38.2778V5.13921H-4.38889ZM-4.38873 14.7788C-4.37746 11.8677 -3.70724 8.99691 -2.42831 6.3817L35.9005 25.1259C37.4513 21.9549 38.264 18.4739 38.2776 14.944L-4.38873 14.7788ZM31.8211 0.668852L25.4579 -5.69434L-4.71203 24.4755L1.65117 30.8387L31.8211 0.668852ZM25.4598 -5.69235C23.1564 -7.99645 20.4215 -9.8242 17.4115 -11.0712L1.08112 28.3466C-1.0862 27.4487 -3.0554 26.1326 -4.71402 24.4736L25.4598 -5.69235ZM17.4115 -11.0712C14.4016 -12.3182 11.1754 -12.96 7.91736 -12.96V29.7066C5.5714 29.7066 3.24843 29.2445 1.08112 28.3466L17.4115 -11.0712ZM7.91736 -12.96C4.65929 -12.96 1.43314 -12.3182 -1.57683 -11.0712L14.7536 28.3466C12.5863 29.2445 10.2633 29.7066 7.91736 29.7066V-12.96ZM-1.57683 -11.0712C-4.5868 -9.8242 -7.32164 -7.99645 -9.62513 -5.69235L20.5487 24.4736C18.8901 26.1326 16.9209 27.4487 14.7536 28.3466L-1.57683 -11.0712ZM-9.62097 -5.69652L-12.0272 -3.29096L18.1383 26.8833L20.5446 24.4777L-9.62097 -5.69652ZM24.3889 11.7962V5.13921H-18.2778V11.7962H24.3889ZM24.3889 5.13921C24.3889 10.2446 22.3608 15.1409 18.7507 18.751L-11.4192 -11.4189C-15.8107 -7.02739 -18.2778 -1.07127 -18.2778 5.13921H24.3889ZM18.7507 18.751C15.1406 22.3611 10.2443 24.3892 5.13889 24.3892V-18.2775C-1.0716 -18.2775 -7.02772 -15.8103 -11.4192 -11.4189L18.7507 18.751ZM5.13889 -4.38856C10.2443 -4.38856 15.1406 -2.36045 18.7507 1.24963L-11.4192 31.4195C-7.02772 35.811 -1.07159 38.2781 5.13889 38.2781V-4.38856ZM18.7507 1.24963C22.3608 4.85971 24.3889 9.75602 24.3889 14.8614H-18.2778C-18.2778 21.0719 -15.8107 27.028 -11.4192 31.4195L18.7507 1.24963ZM24.3889 14.8614V13.76H-18.2778V14.8614H24.3889ZM18.1405 28.845L21.528 25.4575L-8.64189 -4.7124L-12.0294 -1.3249L18.1405 28.845ZM21.5328 25.4527C19.7451 27.2415 17.6225 28.6605 15.2862 29.6287L-1.04797 -9.78753C-3.88998 -8.6098 -6.47208 -6.8836 -8.64672 -4.70756L21.5328 25.4527ZM15.2862 29.6287C12.9499 30.5969 10.4457 31.0952 7.91666 31.0952V-11.5715C4.84025 -11.5715 1.79402 -10.9653 -1.04797 -9.78753L15.2862 29.6287ZM7.91666 31.0952C5.38766 31.0952 2.88346 30.5969 0.547159 29.6287L16.8813 -9.78753C14.0393 -10.9653 10.9931 -11.5715 7.91666 -11.5715V31.0952ZM0.547159 29.6287C-1.78917 28.6605 -3.91182 27.2415 -5.6995 25.4527L24.4801 -4.70756C22.3054 -6.88358 19.7233 -8.60979 16.8813 -9.78753L0.547159 29.6287ZM-5.69549 25.4567L0.667702 31.8206L30.8392 1.65232L24.476 -4.71157L-5.69549 25.4567ZM6.38137 -2.42798C8.99658 -3.70691 11.8674 -4.37713 14.7785 -4.3884L14.9437 38.2779C18.4736 38.2643 21.9545 37.4516 25.1256 35.9009L6.38137 -2.42798ZM14.8611 -4.38856H5.13889V38.2781H14.8611V-4.38856Z" fill="#32B66C" mask="url(#path-1-inside-1_2402_14691)"/>
<path d="M12.7778 8.95877C13.2585 8.95877 13.7284 8.81622 14.1281 8.54915C14.5278 8.28207 14.8394 7.90247 15.0233 7.45835C15.2073 7.01422 15.2554 6.52552 15.1616 6.05404C15.0678 5.58255 14.8364 5.14947 14.4964 4.80955C14.1565 4.46963 13.7234 4.23814 13.252 4.14436C12.7805 4.05058 12.2918 4.09871 11.8476 4.28267C11.4035 4.46664 11.0239 4.77817 10.7568 5.17787C10.4898 5.57757 10.3472 6.04749 10.3472 6.52821C10.3472 7.17284 10.6033 7.79106 11.0591 8.24688C11.5149 8.70269 12.1332 8.95877 12.7778 8.95877ZM12.7778 5.48655C12.9838 5.48655 13.1852 5.54764 13.3565 5.6621C13.5278 5.77656 13.6613 5.93924 13.7402 6.12958C13.819 6.31992 13.8396 6.52937 13.7994 6.73143C13.7592 6.9335 13.66 7.1191 13.5143 7.26478C13.3687 7.41046 13.1831 7.50967 12.981 7.54986C12.7789 7.59006 12.5695 7.56943 12.3791 7.49059C12.1888 7.41175 12.0261 7.27823 11.9117 7.10693C11.7972 6.93563 11.7361 6.73424 11.7361 6.52821C11.7361 6.25195 11.8459 5.98699 12.0412 5.79164C12.2366 5.59629 12.5015 5.48655 12.7778 5.48655Z" fill="#32B66C"/>
</svg>
