<svg width="28" height="28" viewBox="0 0 28 28" fill="none" xmlns="http://www.w3.org/2000/svg">
<g clip-path="url(#clip0_0_1169)">
<path d="M16.2421 8.31055C15.9396 8.31055 15.6943 8.55557 15.6943 8.85742C15.6943 9.15906 15.9396 9.40408 16.2421 9.40408C16.5445 9.40408 16.7898 9.15906 16.7898 8.85742C16.7898 8.55557 16.5445 8.31055 16.2421 8.31055Z" fill="#DAA930"/>
<path d="M12.9201 18.9903C13.1339 18.7764 13.1339 18.4304 12.9201 18.2165C12.7061 18.0033 12.3593 18.0033 12.1451 18.2165C11.9315 18.4304 11.9315 18.7764 12.1451 18.9903C12.3593 19.2035 12.7061 19.2035 12.9201 18.9903Z" fill="#32B66C"/>
<path d="M6.33701 27.8384C6.54934 28.052 6.89501 28.0544 7.11012 27.8429L9.76595 25.2316C10.2171 24.7812 10.3543 24.1145 10.1559 23.535L10.7272 22.9851C11.0348 22.6886 11.4397 22.5252 11.8678 22.5252H19.1502C20.4421 22.5252 21.6632 22.03 22.5889 21.1309C22.627 21.0939 22.2998 21.4786 27.557 15.2075C28.3368 14.2868 28.2201 12.9042 27.2968 12.1251C26.3792 11.3533 25.0046 11.4642 24.2227 12.3691L20.9903 15.685C20.5821 15.1836 19.9597 14.8711 19.2871 14.8711H13.1786C12.3094 14.5081 11.3871 14.3244 10.4355 14.3244C7.79848 14.3244 5.49476 15.5395 4.25824 17.8201C3.73748 17.7216 3.18825 17.8789 2.79313 18.2732L0.187179 20.8818C-0.0255776 21.0948 -0.0260056 21.4393 0.186323 21.6527L6.33701 27.8384ZM10.4353 15.4177C11.2743 15.4177 12.0855 15.5863 12.8469 15.9187C12.9162 15.949 12.9909 15.9646 13.0665 15.9646H19.2871C19.8811 15.9646 20.3828 16.448 20.3828 17.0579C20.3828 17.661 19.8914 18.1515 19.2871 18.1515H14.8177C14.5153 18.1515 14.27 18.3963 14.27 18.6981C14.27 19.0002 14.5153 19.2448 14.8177 19.2448H19.2871C20.4954 19.2448 21.4783 18.2638 21.4783 17.0579C21.4783 16.9618 21.4714 16.8665 21.459 16.7721C24.5859 13.5641 25.0269 13.1134 25.0457 13.0909C25.4361 12.631 26.1292 12.5727 26.5902 12.9606C27.0517 13.3501 27.1101 14.0413 26.7186 14.5038L21.8053 20.3661C21.0879 21.0535 20.1459 21.4319 19.1502 21.4319H11.8678C11.1542 21.4319 10.4787 21.7042 9.96629 22.1983L9.50075 22.6467L5.20923 18.3638C6.21222 16.4858 8.09429 15.4177 10.4353 15.4177ZM3.56839 19.0459C3.74904 18.8656 4.02643 18.8331 4.24668 18.969C4.33037 19.0198 9.01573 23.7076 9.04463 23.7462C9.20494 23.9618 9.18204 24.2679 8.99433 24.4555L6.7302 26.6816L1.34771 21.2686L3.56839 19.0459Z" fill="#32B66C"/>
<path d="M8.57309 11.5906H21.7201C22.6264 11.5906 23.3635 10.8548 23.3635 9.95035C23.3635 8.57227 23.3635 2.6312 23.3635 1.6402C23.3635 0.735718 22.6264 0 21.7201 0H8.57309C7.66685 0 6.92969 0.735718 6.92969 1.6402V9.95035C6.92969 10.8548 7.66685 11.5906 8.57309 11.5906ZM22.2679 4.37372H8.02536V3.2804H22.2679V4.37372ZM21.7201 10.4972H8.57309C8.27108 10.4972 8.02536 10.2518 8.02536 9.95035V5.46726H22.2679V9.95035C22.2679 10.2518 22.0222 10.4972 21.7201 10.4972ZM8.57309 1.09354H21.7201C22.0222 1.09354 22.2679 1.33878 22.2679 1.6402V2.18686H8.02536V1.6402C8.02536 1.33878 8.27108 1.09354 8.57309 1.09354Z" fill="#DAA930"/>
<path d="M20.6241 8.31055H18.433C18.1305 8.31055 17.8853 8.55536 17.8853 8.85742C17.8853 9.15927 18.1305 9.40408 18.433 9.40408H20.6241C20.9268 9.40408 21.1721 9.15927 21.1721 8.85742C21.1721 8.55536 20.9268 8.31055 20.6241 8.31055Z" fill="#DAA930"/>
</g>
<defs>
<clipPath id="clip0_0_1169">
<rect width="28" height="28" fill="white"/>
</clipPath>
</defs>
</svg>
