<svg width="20" height="20" viewBox="0 0 20 20" fill="none" xmlns="http://www.w3.org/2000/svg">
<g clip-path="url(#clip0_2830_15558)">
<path d="M8.33301 10.0005C8.33301 10.2215 8.24521 10.4334 8.08893 10.5897C7.93265 10.746 7.72069 10.8338 7.49967 10.8338H3.39051C3.59229 12.4444 4.37522 13.9258 5.59221 14.9999C6.80921 16.0739 8.37651 16.6666 9.99967 16.6666C11.6228 16.6666 13.1901 16.0739 14.4071 14.9999C15.6241 13.9258 16.4071 12.4444 16.6088 10.8338H12.4997C12.2787 10.8338 12.0667 10.746 11.9104 10.5897C11.7541 10.4334 11.6663 10.2215 11.6663 10.0005C11.6663 9.77944 11.7541 9.56748 11.9104 9.4112C12.0667 9.25492 12.2787 9.16712 12.4997 9.16712H16.6663V7.50046H12.4997C12.2787 7.50046 12.0667 7.41266 11.9104 7.25638C11.7541 7.1001 11.6663 6.88814 11.6663 6.66712C11.6663 6.44611 11.7541 6.23415 11.9104 6.07787C12.0667 5.92159 12.2787 5.83379 12.4997 5.83379H16.6088C16.4071 4.22322 15.6241 2.74176 14.4071 1.66771C13.1901 0.593672 11.6228 0.000976562 9.99967 0.000976562C8.37651 0.000976562 6.80921 0.593672 5.59221 1.66771C4.37522 2.74176 3.59229 4.22322 3.39051 5.83379H7.49967C7.72069 5.83379 7.93265 5.92159 8.08893 6.07787C8.24521 6.23415 8.33301 6.44611 8.33301 6.66712C8.33301 6.88814 8.24521 7.1001 8.08893 7.25638C7.93265 7.41266 7.72069 7.50046 7.49967 7.50046H3.33301V9.16712H7.49967C7.72069 9.16712 7.93265 9.25492 8.08893 9.4112C8.24521 9.56748 8.33301 9.77944 8.33301 10.0005Z" fill="#32B66C"/>
<path d="M19.1667 10C18.9457 10 18.7337 10.0878 18.5774 10.2441C18.4211 10.4004 18.3333 10.6123 18.3333 10.8333C18.3311 12.8218 17.5402 14.7282 16.1342 16.1342C14.7282 17.5402 12.8218 18.3311 10.8333 18.3333H9.16667C7.17829 18.3309 5.27204 17.54 3.86604 16.134C2.46005 14.728 1.66909 12.8217 1.66667 10.8333C1.66667 10.6123 1.57887 10.4004 1.42259 10.2441C1.26631 10.0878 1.05435 10 0.833333 10C0.61232 10 0.400358 10.0878 0.244078 10.2441C0.0877974 10.4004 0 10.6123 0 10.8333C0.00286706 13.2636 0.969559 15.5935 2.68802 17.312C4.40648 19.0304 6.7364 19.9971 9.16667 20H10.8333C13.2636 19.9971 15.5935 19.0304 17.312 17.312C19.0304 15.5935 19.9971 13.2636 20 10.8333C20 10.6123 19.9122 10.4004 19.7559 10.2441C19.5996 10.0878 19.3877 10 19.1667 10Z" fill="#32B66C"/>
</g>
<defs>
<clipPath id="clip0_2830_15558">
<rect width="20" height="20" fill="white"/>
</clipPath>
</defs>
</svg>
