<svg width="24" height="24" viewBox="0 0 24 24" fill="none" xmlns="http://www.w3.org/2000/svg">
<mask id="path-1-inside-1_0_181" fill="white">
<path d="M20.8899 9.79048C19.628 7.62804 16.7577 4 11.7199 4C6.68211 4 3.81174 7.62804 2.54985 9.79048C2.15976 10.4544 1.95313 11.2195 1.95312 12C1.95312 12.7805 2.15976 13.5456 2.54985 14.2095C3.81174 16.372 6.68211 20 11.7199 20C16.7577 20 19.628 16.372 20.8899 14.2095C21.28 13.5456 21.4867 12.7805 21.4867 12C21.4867 11.2195 21.28 10.4544 20.8899 9.79048ZM19.5028 13.3132C18.419 15.1675 15.9661 18.2879 11.7199 18.2879C7.47374 18.2879 5.02074 15.1675 3.93703 13.3132C3.70527 12.9186 3.58251 12.4639 3.58251 12C3.58251 11.5361 3.70527 11.0814 3.93703 10.6868C5.02074 8.83253 7.47374 5.71215 11.7199 5.71215C15.9661 5.71215 18.419 8.82911 19.5028 10.6868C19.7345 11.0814 19.8573 11.5361 19.8573 12C19.8573 12.4639 19.7345 12.9186 19.5028 13.3132Z"/>
</mask>
<path d="M20.8899 9.79048C19.628 7.62804 16.7577 4 11.7199 4C6.68211 4 3.81174 7.62804 2.54985 9.79048C2.15976 10.4544 1.95313 11.2195 1.95312 12C1.95312 12.7805 2.15976 13.5456 2.54985 14.2095C3.81174 16.372 6.68211 20 11.7199 20C16.7577 20 19.628 16.372 20.8899 14.2095C21.28 13.5456 21.4867 12.7805 21.4867 12C21.4867 11.2195 21.28 10.4544 20.8899 9.79048ZM19.5028 13.3132C18.419 15.1675 15.9661 18.2879 11.7199 18.2879C7.47374 18.2879 5.02074 15.1675 3.93703 13.3132C3.70527 12.9186 3.58251 12.4639 3.58251 12C3.58251 11.5361 3.70527 11.0814 3.93703 10.6868C5.02074 8.83253 7.47374 5.71215 11.7199 5.71215C15.9661 5.71215 18.419 8.82911 19.5028 10.6868C19.7345 11.0814 19.8573 11.5361 19.8573 12C19.8573 12.4639 19.7345 12.9186 19.5028 13.3132Z" fill="#DAA930"/>
<path d="M2.54985 9.79048L20.943 20.5981L20.9592 20.5704L20.9754 20.5427L2.54985 9.79048ZM2.54985 14.2095L20.9754 3.45733L20.9592 3.42958L20.943 3.40189L2.54985 14.2095ZM20.8899 14.2095L2.49684 3.40189L2.48056 3.42958L2.46437 3.45733L20.8899 14.2095ZM3.93703 13.3132L22.3554 2.54869L22.3439 2.52895L22.3323 2.50924L3.93703 13.3132ZM3.93703 10.6868L22.3323 21.4908L22.3439 21.471L22.3554 21.4513L3.93703 10.6868ZM19.5028 10.6868L1.07575 21.4365L1.09159 21.4637L1.1075 21.4908L19.5028 10.6868ZM39.3155 -0.961722C36.8704 -5.15171 28.4243 -17.3333 11.7199 -17.3333V25.3333C8.6992 25.3333 6.16424 24.1292 4.57679 22.8874C3.25542 21.8538 2.66199 20.8813 2.46437 20.5427L39.3155 -0.961722ZM11.7199 -17.3333C-4.98455 -17.3333 -13.4307 -5.15171 -15.8757 -0.961722L20.9754 20.5427C20.7778 20.8813 20.1844 21.8538 18.863 22.8874C17.2755 24.1292 14.7406 25.3333 11.7199 25.3333V-17.3333ZM-15.8432 -1.01716C-18.186 2.96983 -19.3802 7.47392 -19.3802 12H23.2865C23.2865 14.965 22.5055 17.9389 20.943 20.5981L-15.8432 -1.01716ZM-19.3802 12C-19.3802 16.5261 -18.186 21.0302 -15.8432 25.0172L20.943 3.40189C22.5055 6.0611 23.2865 9.03499 23.2865 12H-19.3802ZM-15.8757 24.9617C-13.4306 29.1517 -4.98455 41.3333 11.7199 41.3333V-1.33333C14.7406 -1.33333 17.2755 -0.129195 18.863 1.11258C20.1844 2.14621 20.7778 3.11867 20.9754 3.45733L-15.8757 24.9617ZM11.7199 41.3333C28.4243 41.3333 36.8704 29.1517 39.3155 24.9617L2.46437 3.45733C2.66199 3.11867 3.25542 2.14621 4.57679 1.11258C6.16425 -0.129195 8.6992 -1.33333 11.7199 -1.33333V41.3333ZM39.283 25.0172C41.6258 21.0302 42.82 16.5261 42.82 12H0.15333C0.15333 9.03498 0.934305 6.0611 2.49684 3.40189L39.283 25.0172ZM42.82 12C42.82 7.47392 41.6258 2.96983 39.283 -1.01716L2.49684 20.5981C0.934305 17.9389 0.15333 14.965 0.15333 12H42.82ZM1.08439 2.54869C1.34478 2.10316 2.0584 0.953608 3.56398 -0.23708C5.32852 -1.63256 8.19231 -3.04548 11.7199 -3.04548V39.6212C27.763 39.6212 35.7713 27.7561 37.9211 24.0777L1.08439 2.54869ZM11.7199 -3.04548C15.2475 -3.04548 18.1113 -1.63256 19.8758 -0.23708C21.3814 0.953607 22.095 2.10316 22.3554 2.54869L-14.4813 24.0777C-12.3315 27.7561 -4.32321 39.6212 11.7199 39.6212V-3.04548ZM22.3323 2.50924C24.0517 5.43683 24.9158 8.71972 24.9158 12H-17.7508C-17.7508 16.2081 -16.6412 20.4004 -14.4582 24.1172L22.3323 2.50924ZM24.9158 12C24.9158 15.2803 24.0517 18.5632 22.3323 21.4908L-14.4582 -0.11719C-16.6412 3.59962 -17.7508 7.79195 -17.7508 12H24.9158ZM22.3554 21.4513C22.095 21.8968 21.3814 23.0464 19.8758 24.2371C18.1113 25.6326 15.2475 27.0455 11.7199 27.0455V-15.6212C-4.32322 -15.6212 -12.3315 -3.75607 -14.4813 -0.0777416L22.3554 21.4513ZM11.7199 27.0455C8.19864 27.0455 5.33574 25.6364 3.56742 24.2385C2.05838 23.0456 1.34145 21.892 1.07575 21.4365L37.9298 -0.0629401C35.7662 -3.77169 27.7561 -15.6212 11.7199 -15.6212V27.0455ZM1.1075 21.4908C-0.611947 18.5632 -1.47606 15.2803 -1.47606 12H41.1906C41.1906 7.79196 40.081 3.59963 37.898 -0.11719L1.1075 21.4908ZM-1.47606 12C-1.47606 8.71973 -0.611947 5.43684 1.1075 2.50924L37.898 24.1172C40.081 20.4004 41.1906 16.208 41.1906 12H-1.47606Z" fill="#DAA930" mask="url(#path-1-inside-1_0_181)"/>
<path d="M11.7202 8C10.9475 8 10.1922 8.2346 9.54974 8.67412C8.90728 9.11365 8.40655 9.73836 8.11086 10.4693C7.81517 11.2002 7.7378 12.0044 7.88854 12.7804C8.03929 13.5563 8.41136 14.269 8.95773 14.8284C9.50409 15.3878 10.2002 15.7688 10.958 15.9231C11.7159 16.0775 12.5014 15.9983 13.2152 15.6955C13.9291 15.3928 14.5392 14.8801 14.9685 14.2223C15.3978 13.5645 15.6269 12.7911 15.6269 12C15.6257 10.9395 15.2137 9.92285 14.4813 9.17298C13.7489 8.42311 12.7559 8.00127 11.7202 8ZM11.7202 14.4C11.2566 14.4 10.8034 14.2592 10.4179 13.9955C10.0324 13.7318 9.732 13.357 9.55459 12.9184C9.37718 12.4799 9.33076 11.9973 9.4212 11.5318C9.51165 11.0662 9.73489 10.6386 10.0627 10.3029C10.3905 9.9673 10.8082 9.73872 11.2629 9.64611C11.7176 9.55351 12.1889 9.60104 12.6172 9.78269C13.0455 9.96434 13.4116 10.272 13.6692 10.6666C13.9267 11.0613 14.0642 11.5253 14.0642 12C14.0642 12.6365 13.8173 13.247 13.3777 13.6971C12.9381 14.1471 12.3419 14.4 11.7202 14.4Z" fill="#DAA930"/>
</svg>
