<svg width="16" height="16" viewBox="0 0 16 16" fill="none" xmlns="http://www.w3.org/2000/svg">
<mask id="path-1-inside-1_1932_3574" fill="white">
<path d="M14.0755 1.92434C13.6965 1.54584 13.1827 1.33325 12.647 1.33325C12.1113 1.33325 11.5975 1.54584 11.2185 1.92434L2.14988 10.9931C1.89019 11.2514 1.68427 11.5585 1.54406 11.8969C1.40385 12.2352 1.33212 12.598 1.33302 12.9642V14.109C1.33302 14.2569 1.39176 14.3987 1.49633 14.5033C1.6009 14.6078 1.74272 14.6666 1.8906 14.6666H3.03533C3.40153 14.6676 3.7643 14.596 4.10264 14.4559C4.44097 14.3157 4.74815 14.1099 5.0064 13.8503L14.0755 4.78092C14.4539 4.40186 14.6663 3.88818 14.6663 3.35263C14.6663 2.81708 14.4539 2.3034 14.0755 1.92434ZM4.21797 13.0618C3.90349 13.3742 3.47859 13.5501 3.03533 13.5514H2.44819V12.9642C2.44763 12.7445 2.49065 12.5268 2.57478 12.3238C2.65891 12.1208 2.78247 11.9365 2.93831 11.7816L9.8206 4.89913L11.103 6.1816L4.21797 13.0618ZM13.2866 3.99247L11.8892 5.39037L10.6068 4.11068L12.0047 2.71279C12.0889 2.62876 12.1888 2.56214 12.2988 2.51674C12.4087 2.47133 12.5265 2.44803 12.6455 2.44816C12.7644 2.44829 12.8822 2.47185 12.9921 2.51749C13.1019 2.56314 13.2017 2.62997 13.2857 2.71418C13.3697 2.79839 13.4364 2.89832 13.4818 3.00828C13.5272 3.11823 13.5505 3.23605 13.5503 3.35501C13.5502 3.47397 13.5267 3.59174 13.481 3.70159C13.4354 3.81145 13.3685 3.91124 13.2843 3.99526L13.2866 3.99247Z"/>
</mask>
<path d="M14.0755 1.92434C13.6965 1.54584 13.1827 1.33325 12.647 1.33325C12.1113 1.33325 11.5975 1.54584 11.2185 1.92434L2.14988 10.9931C1.89019 11.2514 1.68427 11.5585 1.54406 11.8969C1.40385 12.2352 1.33212 12.598 1.33302 12.9642V14.109C1.33302 14.2569 1.39176 14.3987 1.49633 14.5033C1.6009 14.6078 1.74272 14.6666 1.8906 14.6666H3.03533C3.40153 14.6676 3.7643 14.596 4.10264 14.4559C4.44097 14.3157 4.74815 14.1099 5.0064 13.8503L14.0755 4.78092C14.4539 4.40186 14.6663 3.88818 14.6663 3.35263C14.6663 2.81708 14.4539 2.3034 14.0755 1.92434ZM4.21797 13.0618C3.90349 13.3742 3.47859 13.5501 3.03533 13.5514H2.44819V12.9642C2.44763 12.7445 2.49065 12.5268 2.57478 12.3238C2.65891 12.1208 2.78247 11.9365 2.93831 11.7816L9.8206 4.89913L11.103 6.1816L4.21797 13.0618ZM13.2866 3.99247L11.8892 5.39037L10.6068 4.11068L12.0047 2.71279C12.0889 2.62876 12.1888 2.56214 12.2988 2.51674C12.4087 2.47133 12.5265 2.44803 12.6455 2.44816C12.7644 2.44829 12.8822 2.47185 12.9921 2.51749C13.1019 2.56314 13.2017 2.62997 13.2857 2.71418C13.3697 2.79839 13.4364 2.89832 13.4818 3.00828C13.5272 3.11823 13.5505 3.23605 13.5503 3.35501C13.5502 3.47397 13.5267 3.59174 13.481 3.70159C13.4354 3.81145 13.3685 3.91124 13.2843 3.99526L13.2866 3.99247Z" fill="white"/>
<path d="M12.647 1.33325V-20.0001V1.33325ZM11.2185 1.92434L-3.85505 -13.172L-3.86084 -13.1662L-3.86663 -13.1604L11.2185 1.92434ZM2.14988 10.9931L17.1924 26.1204L17.2137 26.0992L17.235 26.0779L2.14988 10.9931ZM1.33302 12.9642H22.6663V12.938L22.6663 12.9118L1.33302 12.9642ZM1.33302 14.109H-20.0003H1.33302ZM3.03533 14.6666L3.09556 -6.66667L3.06545 -6.66676H3.03533V14.6666ZM5.0064 13.8503L-10.0787 -1.23454L-10.0991 -1.21413L-10.1195 -1.19367L5.0064 13.8503ZM14.0755 4.78092L29.1606 19.8657L29.1679 19.8584L29.1752 19.8512L14.0755 4.78092ZM4.21797 13.0618L19.2527 28.1968L19.2752 28.1745L19.2976 28.1521L4.21797 13.0618ZM3.03533 13.5514V34.8847H3.06619L3.09704 34.8846L3.03533 13.5514ZM2.44819 13.5514H-18.8851V34.8847H2.44819V13.5514ZM2.44819 12.9642H23.7815V12.9368L23.7815 12.9095L2.44819 12.9642ZM2.93831 11.7816L17.9791 26.9105L18.0013 26.8885L18.0234 26.8664L2.93831 11.7816ZM9.8206 4.89913L24.9057 -10.1857L9.8206 -25.2711L-5.2645 -10.1857L9.8206 4.89913ZM11.103 6.1816L26.1826 21.2719L41.2781 6.18711L26.1882 -8.90318L11.103 6.1816ZM13.2866 3.99247L29.9458 17.3184L-1.80155 -11.0893L13.2866 3.99247ZM11.8892 5.39037L-3.17944 20.4916L11.9087 35.5472L26.9774 20.4722L11.8892 5.39037ZM10.6068 4.11068L-4.4783 -10.9741L-19.5792 4.1271L-4.46188 19.2119L10.6068 4.11068ZM12.0047 2.71279L-3.06401 -12.3884L-3.07223 -12.3802L-3.08043 -12.372L12.0047 2.71279ZM13.2843 3.99526L-3.37496 -9.33062L28.353 19.0965L13.2843 3.99526ZM29.1491 -13.172C24.7702 -17.5443 18.8351 -20.0001 12.647 -20.0001V22.6666C7.53027 22.6666 2.62275 20.636 -0.997972 17.0207L29.1491 -13.172ZM12.647 -20.0001C6.45891 -20.0001 0.523824 -17.5443 -3.85505 -13.172L26.292 17.0207C22.6713 20.636 17.7637 22.6666 12.647 22.6666V-20.0001ZM-3.86663 -13.1604L-12.9352 -4.09167L17.235 26.0779L26.3036 17.0091L-3.86663 -13.1604ZM-12.8926 -4.13415C-15.1523 -1.88716 -16.9439 0.7856 -18.1639 3.72951L21.2521 20.0642C20.3125 22.3315 18.9326 24.3899 17.1924 26.1204L-12.8926 -4.13415ZM-18.1639 3.72951C-19.3839 6.6734 -20.0081 9.82998 -20.0003 13.0166L22.6663 12.9118C22.6723 15.366 22.1916 17.797 21.2521 20.0642L-18.1639 3.72951ZM-20.0003 12.9642V14.109H22.6663V12.9642H-20.0003ZM-20.0003 14.109C-20.0003 19.9147 -17.6941 25.4827 -13.5888 29.588L16.5814 -0.58153C20.4776 3.31472 22.6663 8.59907 22.6663 14.109H-20.0003ZM-13.5888 29.588C-9.48343 33.6935 -3.91533 35.9999 1.8906 35.9999V-6.66676C7.40077 -6.66676 12.6852 -4.47781 16.5814 -0.58153L-13.5888 29.588ZM1.8906 35.9999H3.03533V-6.66676H1.8906V35.9999ZM2.97509 35.9998C6.16273 36.0088 9.32048 35.3854 12.2655 34.1657L-4.06026 -5.25398C-1.79188 -6.19344 0.640332 -6.67361 3.09556 -6.66667L2.97509 35.9998ZM12.2655 34.1657C15.2106 32.946 17.8844 31.1542 20.1322 28.8942L-10.1195 -1.19367C-8.38812 -2.93444 -6.32865 -4.31452 -4.06026 -5.25398L12.2655 34.1657ZM20.0915 28.935L29.1606 19.8657L-1.00956 -10.3039L-10.0787 -1.23454L20.0915 28.935ZM29.1752 19.8512C33.5453 15.4725 35.9997 9.53886 35.9997 3.35263H-6.66699C-6.66699 -1.76249 -4.63761 -6.66877 -1.02407 -10.2893L29.1752 19.8512ZM35.9997 3.35263C35.9997 -2.8336 33.5453 -8.76722 29.1752 -13.1459L-1.02407 16.9946C-4.63761 13.374 -6.66699 8.46775 -6.66699 3.35263H35.9997ZM-10.8168 -2.07318C-7.14984 -5.71582 -2.19519 -7.76691 2.97361 -7.78187L3.09704 34.8846C9.15237 34.8671 14.9568 32.4642 19.2527 28.1968L-10.8168 -2.07318ZM3.03533 -7.78196H2.44819V34.8847H3.03533V-7.78196ZM23.7815 13.5514V12.9642H-18.8851V13.5514H23.7815ZM23.7815 12.9095C23.7881 15.5109 23.2787 18.0879 22.2828 20.4912L-17.1332 4.15644C-18.2974 6.96573 -18.8929 9.97804 -18.8851 13.019L23.7815 12.9095ZM22.2828 20.4912C21.2868 22.8944 19.8241 25.0763 17.9791 26.9105L-12.1025 -3.3474C-14.2591 -1.20335 -15.969 1.34715 -17.1332 4.15644L22.2828 20.4912ZM18.0234 26.8664L24.9057 19.9839L-5.2645 -10.1857L-12.1468 -3.30323L18.0234 26.8664ZM-5.26451 19.9839L-3.98206 21.2664L26.1882 -8.90318L24.9057 -10.1857L-5.26451 19.9839ZM-3.97655 -8.90868L-10.8616 -2.02848L19.2976 28.1521L26.1826 21.2719L-3.97655 -8.90868ZM-1.80155 -11.0893L-3.19886 -9.69141L26.9774 20.4722L28.3747 19.0743L-1.80155 -11.0893ZM26.9579 -9.71082L25.6755 -10.9905L-4.46188 19.2119L-3.17944 20.4916L26.9579 -9.71082ZM25.6919 19.1955L27.0898 17.7976L-3.08043 -12.372L-4.4783 -10.9741L25.6919 19.1955ZM27.0733 17.814C25.1745 19.7088 22.9209 21.2111 20.4414 22.235L4.15615 -17.2015C1.45669 -16.0868 -0.996715 -14.4513 -3.06401 -12.3884L27.0733 17.814ZM20.4414 22.235C17.9618 23.2589 15.3049 23.7844 12.6223 23.7815L12.6687 -18.8852C9.74816 -18.8883 6.85559 -18.3162 4.15615 -17.2015L20.4414 22.235ZM12.6223 23.7815C9.93964 23.7786 7.28386 23.2473 4.80656 22.218L21.1776 -17.183C18.4806 -18.3036 15.5892 -18.882 12.6687 -18.8852L12.6223 23.7815ZM4.80656 22.218C2.3293 21.1887 0.0790198 19.6815 -1.81578 17.7825L28.3872 -12.3542C26.3244 -14.4216 23.8745 -16.0624 21.1776 -17.183L4.80656 22.218ZM-1.81578 17.7825C-3.71055 15.8836 -5.21275 13.6301 -6.2366 11.1506L33.2001 -5.13404C32.0855 -7.83342 30.45 -10.2868 28.3872 -12.3542L-1.81578 17.7825ZM-6.2366 11.1506C-7.26047 8.67106 -7.7859 6.01422 -7.78298 3.3318L34.8837 3.37822C34.8868 0.457878 34.3148 -2.4346 33.2001 -5.13404L-6.2366 11.1506ZM-7.78298 3.3318C-7.78006 0.649292 -7.24883 -2.00639 -6.21959 -4.48362L33.1816 11.8868C34.3021 9.18986 34.8805 6.29864 34.8837 3.37822L-7.78298 3.3318ZM-6.21959 -4.48362C-5.19035 -6.96083 -3.68327 -9.21111 -1.78435 -11.1059L28.353 19.0965C30.4203 17.0336 32.0611 14.5837 33.1816 11.8868L-6.21959 -4.48362ZM29.9436 17.3211L29.9458 17.3184L-3.37273 -9.33341L-3.37496 -9.33062L29.9436 17.3211Z" fill="#32B66C" mask="url(#path-1-inside-1_1932_3574)"/>
</svg>
