<svg width="32" height="32" viewBox="0 0 32 32" fill="none" xmlns="http://www.w3.org/2000/svg">
<path d="M11.4012 16.7687C11.2794 17.3624 11.2502 17.7636 11.2485 17.7896L11.1749 18.8539L12.2399 18.7901C12.3114 18.7859 13.6034 18.7 15.0629 18.0964V20.6002H16.9379V18.0963C18.3974 18.7 19.6894 18.7858 19.7609 18.7901L20.8257 18.8539L20.7522 17.7897C20.7504 17.7637 20.7213 17.3624 20.5996 16.7687C22.638 16.3813 24.1283 14.7417 24.1988 14.663L24.7604 14.0359L24.197 13.4104C24.1505 13.3587 23.3134 12.4409 22.0534 11.8134C23.4137 9.8638 23.5592 7.57274 23.5655 7.4613L23.6245 6.41361L22.5768 6.47261C22.4757 6.4783 20.5831 6.59849 18.7777 7.63442C18.5069 4.64367 16.7575 2.78536 16.6771 2.70142L16.0003 1.99536L15.3235 2.7013C15.2431 2.78524 13.4939 4.64361 13.2229 7.63436C11.4175 6.5983 9.52498 6.47817 9.42386 6.47249L8.37617 6.41349L8.43517 7.46117C8.44142 7.57267 8.58698 9.86367 9.94717 11.8133C8.68723 12.4408 7.85005 13.3587 7.80355 13.4103L7.24023 14.0359L7.8018 14.663C7.87236 14.7417 9.36248 16.3814 11.4012 16.7687ZM11.7397 13.1566L13.5257 12.8132C11.4923 10.8759 12.1584 11.5215 12.0229 11.386C11.1712 10.5342 10.7375 9.40386 10.5197 8.55705C11.3669 8.77499 12.497 9.20855 13.3487 10.0602C13.5455 10.257 12.6369 9.32336 15.279 12.0762C15.1234 9.69799 15.0629 9.28924 15.0629 8.41261C15.0629 6.92949 15.5583 5.73492 16.0003 4.96449C16.4426 5.73549 16.9378 6.92974 16.9378 8.41261C16.9378 9.28867 16.8771 9.69967 16.7216 12.0762C19.3542 9.33324 18.461 10.2511 18.652 10.0602C19.5037 9.20849 20.6341 8.77486 21.4809 8.55699C21.126 9.93636 20.4857 10.9335 19.9004 11.4572C19.7653 11.578 19.8725 11.4817 18.4748 12.8133L20.2608 13.1567C20.9822 13.2954 21.6329 13.689 22.0957 14.0396C21.4119 14.5609 20.3892 15.0685 19.6477 14.9624C19.4578 14.9351 19.5445 14.9495 18.0455 14.7928C18.4594 16.0555 18.5418 16.2487 18.6588 16.6981C18.0261 16.5326 17.2384 16.2477 16.5294 15.7629L16.0002 15.401L15.471 15.7629C14.7595 16.2495 13.9729 16.5343 13.3415 16.6994C13.4603 16.2429 13.5459 16.0414 13.955 14.7928C12.4152 14.9538 12.5397 14.9355 12.353 14.9624C11.6021 15.0697 10.5897 14.5617 9.90473 14.0396C10.3676 13.689 11.0184 13.2953 11.7397 13.1566Z" fill="#DAA930"/>
<path d="M0 23.4414V29.0089L32 30.0048V22.4456L0 23.4414ZM26.3125 24.4984V27.9519L11.3125 27.4851V24.9652L26.3125 24.4984ZM1.875 25.2589L9.4375 25.0236V27.4267L1.875 27.1914V25.2589ZM30.125 28.0706L28.1875 28.0102V24.4401L30.125 24.3798V28.0706Z" fill="#DAA930"/>
<path d="M28.6281 20.4577L29.4231 20.9546L30.4169 19.3646L29.6219 18.8677C28.9586 18.4532 28.1875 17.6864 28.1875 17.319C28.1875 16.95 28.9456 16.1965 29.6219 15.7702C30.0086 15.5285 31.9375 14.2414 31.9375 12.6315C31.9375 11.0215 30.0086 9.73441 29.6219 9.49272L28.8269 8.99585L27.8331 10.5858L28.6281 11.0827C29.2914 11.4973 30.0625 12.2641 30.0625 12.6315C30.0625 13.0005 29.3044 13.754 28.6281 14.1802C28.2414 14.4219 26.3125 15.709 26.3125 17.319C26.3125 18.9289 28.2414 20.216 28.6281 20.4577Z" fill="#DAA930"/>
</svg>
