<svg width="219" height="125" viewBox="0 0 219 125" fill="none" xmlns="http://www.w3.org/2000/svg">
<path fill-rule="evenodd" clip-rule="evenodd" d="M163.994 8.16246L202.17 9.03665C210.005 9.21628 215.916 16.2182 214.79 23.9821L202.199 110.645C200.982 119.027 193.491 125.036 185.055 124.4L148.442 121.641C141.925 121.15 137.187 115.234 138.124 108.758L151.114 19.0661C152.037 12.6947 157.564 8.01518 163.994 8.16246Z" fill="#CDB1AA"/>
<path fill-rule="evenodd" clip-rule="evenodd" d="M87.4691 78.5013V56.3298H109.641V78.5013H87.4691ZM89.3637 76.6068H107.746V58.2243H89.3637V76.6068Z" fill="#CDB1AA"/>
<path fill-rule="evenodd" clip-rule="evenodd" d="M0 29.4267H55.2026V8.38638H0V29.4267Z" fill="#FFF5EE"/>
<path fill-rule="evenodd" clip-rule="evenodd" d="M78.732 53.1826H118.324V34.1784H78.732V53.1826Z" fill="#FFF5EE"/>
<path fill-rule="evenodd" clip-rule="evenodd" d="M164.421 12.463L200.445 13.4098C207.035 13.5834 211.972 19.509 210.947 26.0189L197.569 111.118C196.676 116.806 191.531 120.832 185.794 120.335L147.69 117.035C143.859 116.704 141.112 113.197 141.708 109.4L155.81 19.6296C156.473 15.4182 160.158 12.3508 164.421 12.463Z" fill="#F4F0F0"/>
<path fill-rule="evenodd" clip-rule="evenodd" d="M186.924 16.7568H177.322C174.725 16.7568 172.621 14.6369 172.621 12.0216V9.9696H191.625V12.0216C191.625 14.6369 189.521 16.7568 186.924 16.7568Z" fill="#CDB1AA"/>
<path fill-rule="evenodd" clip-rule="evenodd" d="M167.226 37.3468H214.8C217.34 37.3468 219.3 39.5893 218.963 42.1128L214.533 75.3241C214.254 77.4141 212.474 78.975 210.37 78.975H162.794C160.256 78.975 158.296 76.7325 158.633 74.209L163.063 40.9972C163.341 38.9074 165.122 37.3468 167.226 37.3468Z" fill="#FFF5EE"/>
<path fill-rule="evenodd" clip-rule="evenodd" d="M167.237 38.3569C165.692 38.3569 164.386 39.4989 164.18 41.0281L159.753 74.1302C159.506 75.9768 160.943 77.6177 162.807 77.6177H210.358C211.903 77.6177 213.209 76.4756 213.412 74.9462L217.842 41.8444C218.089 39.9978 216.652 38.3569 214.788 38.3569H167.237Z" fill="#F4F0F0"/>
<path fill-rule="evenodd" clip-rule="evenodd" d="M180.963 64.0429L166.286 63.5558L168.809 45.7175L183.254 45.9478L180.963 64.0429Z" fill="#E3D4C5"/>
<path fill-rule="evenodd" clip-rule="evenodd" d="M163.45 104.539H132.492C129.458 104.539 127.231 101.683 127.967 98.7343L129.757 91.5627C130.276 89.4827 132.142 88.0236 134.283 88.0236H165.239C168.273 88.0236 170.501 90.8801 169.764 93.8285L167.974 101C167.456 103.08 165.59 104.539 163.45 104.539Z" fill="#E3D4C5"/>
<path fill-rule="evenodd" clip-rule="evenodd" d="M189.636 49.1106C189.109 49.1106 188.684 48.7054 188.684 48.2057C188.684 47.7059 189.109 47.3007 189.636 47.3007H211.939C212.466 47.3007 212.891 47.7059 212.891 48.2057C212.891 48.7054 212.466 49.1106 211.939 49.1106H189.636Z" fill="#E3D4C5"/>
<path fill-rule="evenodd" clip-rule="evenodd" d="M188.95 56.3508C188.428 56.3508 188.005 55.9456 188.005 55.4458C188.005 54.946 188.428 54.5408 188.95 54.5408H202.67C203.192 54.5408 203.615 54.946 203.615 55.4458C203.615 55.9456 203.192 56.3508 202.67 56.3508H188.95Z" fill="#E3D4C5"/>
<path fill-rule="evenodd" clip-rule="evenodd" d="M214.078 70.8311H190.44C188.071 70.8311 186.363 68.5291 187.015 66.217C187.452 64.6627 188.85 63.5915 190.44 63.5915H214.078C216.444 63.5915 218.155 65.8934 217.503 68.2056C217.066 69.7597 215.668 70.8311 214.078 70.8311Z" fill="#CDB1AA"/>
<path fill-rule="evenodd" clip-rule="evenodd" d="M159.515 95.6695C160.416 95.6695 161.149 94.9736 161.149 94.1099C161.149 93.2461 160.416 92.5499 159.515 92.5499C158.615 92.5499 157.88 93.2458 157.88 94.1099C157.88 94.9736 158.615 95.6695 159.515 95.6695ZM159.515 92.994C160.174 92.994 160.703 93.4961 160.703 94.1099C160.703 94.7234 160.172 95.2254 159.515 95.2254C158.857 95.2254 158.328 94.7234 158.328 94.1099C158.328 93.4961 158.857 92.994 159.515 92.994ZM161.846 98.8516C162.237 98.7679 162.441 98.4876 162.441 98.0132C162.441 96.8039 161.117 95.8575 159.515 95.8575C157.911 95.8575 156.588 96.8039 156.588 98.0132C156.588 98.4921 156.821 98.7717 157.251 98.8527C157.531 98.9057 157.719 98.893 158.529 98.8003C159.002 98.7462 159.294 98.7229 159.613 98.7229C159.932 98.7229 160.224 98.7469 160.662 98.8C161.452 98.8959 161.588 98.9061 161.846 98.8516ZM159.515 96.3017C160.896 96.3017 161.993 97.0865 161.993 98.0132C161.993 98.2878 161.927 98.3799 161.751 98.4175C161.57 98.4561 161.429 98.4457 160.717 98.3591C160.262 98.3041 159.954 98.2788 159.613 98.2788C159.273 98.2788 158.966 98.3032 158.479 98.3589C157.73 98.4446 157.549 98.4568 157.335 98.4163C157.115 98.3751 157.036 98.2788 157.036 98.0132C157.036 97.0865 158.133 96.3017 159.515 96.3017ZM145.447 95.922C145.246 95.922 145.148 95.6781 145.293 95.5397L147.887 93.0669C147.975 92.9818 148.117 92.985 148.203 93.0739L150.574 95.5467C150.71 95.6881 150.611 95.922 150.414 95.922H149.869V98.2605C149.869 98.3831 149.767 98.4824 149.645 98.4824H146.27C146.146 98.4824 146.046 98.3831 146.046 98.2605V95.922H145.447ZM148.034 93.5415L146.003 95.4779H146.27C146.393 95.4779 146.493 95.5772 146.493 95.7001V98.0383H149.421V95.7001C149.421 95.5772 149.52 95.4779 149.645 95.4779H149.891L148.034 93.5415ZM139.845 95.1033C139.845 94.9806 139.745 94.8813 139.622 94.8813H138.916V94.6472C138.916 94.1612 138.519 93.7669 138.03 93.7669H136.202C135.713 93.7669 135.316 94.1612 135.316 94.6472V94.8813H134.61C134.487 94.8813 134.387 94.9806 134.387 95.1033V97.7729C134.387 97.8957 134.487 97.9951 134.61 97.9951H139.622C139.745 97.9951 139.845 97.8957 139.845 97.7729V95.1033ZM138.469 95.1033C138.469 95.2259 138.569 95.3254 138.692 95.3254H139.398V97.551H134.834V95.3254H135.54C135.663 95.3254 135.763 95.2259 135.763 95.1033V94.6472C135.763 94.4065 135.96 94.211 136.202 94.211H138.03C138.272 94.211 138.469 94.4065 138.469 94.6472V95.1033ZM138.069 96.1519C138.069 96.6752 137.642 97.0994 137.116 97.0994C136.59 97.0994 136.163 96.6752 136.163 96.1519C136.163 95.6288 136.59 95.2048 137.116 95.2048C137.642 95.2048 138.069 95.6288 138.069 96.1519ZM137.622 96.1519C137.622 95.8743 137.395 95.649 137.116 95.649C136.836 95.649 136.61 95.8743 136.61 96.1519C136.61 96.4299 136.836 96.6553 137.116 96.6553C137.395 96.6553 137.622 96.4299 137.622 96.1519Z" fill="#F4F0F0"/>
<path fill-rule="evenodd" clip-rule="evenodd" d="M140.03 16.7418L133.239 12.8016H109.714V0H140.03V16.7418Z" fill="#CDB1AA"/>
<path fill-rule="evenodd" clip-rule="evenodd" d="M27.24 73.4991C27.24 74.0233 26.8145 74.4482 26.2898 74.4482C25.765 74.4482 25.3394 74.0233 25.3394 73.4991V43.2271H79.1393C79.6641 43.2271 80.0895 43.6519 80.0895 44.1761C80.0895 44.7003 79.6641 45.1252 79.1393 45.1252H27.24V73.4991Z" fill="#FFF5EE"/>
<path fill-rule="evenodd" clip-rule="evenodd" d="M130.45 20.4716H55.0205C54.4959 20.4716 54.0706 20.0458 54.0706 19.5204C54.0706 18.9953 54.4959 18.5696 55.0205 18.5696H132.35V44.9937C132.35 45.5188 131.924 45.9446 131.4 45.9446C130.875 45.9446 130.45 45.5188 130.45 44.9937V20.4716Z" fill="#FFF5EE"/>
<path fill-rule="evenodd" clip-rule="evenodd" d="M127.502 93.8197C128.027 93.8197 128.453 94.2446 128.453 94.7684C128.453 95.2923 128.027 95.717 127.502 95.717H123.979V44.1343H161.49C162.015 44.1343 162.44 44.5589 162.44 45.0829C162.44 45.6066 162.015 46.0315 161.49 46.0315H125.88V93.8197H127.502Z" fill="#FFF5EE"/>
</svg>
