<svg width="212" height="236" viewBox="0 0 212 236" fill="none" xmlns="http://www.w3.org/2000/svg">
<path d="M28.2944 55.661L26.2062 51.7276L27.8893 46.8778V43.9043L22.7402 46.8778V49.845L24.9532 53.6787C24.9884 53.7367 25.0407 53.7824 25.1028 53.8096L28.2944 55.661Z" fill="#AAA648"/>
<path opacity="0.2" d="M28.2944 55.661L26.2062 51.7276L27.8893 46.8778V43.9043L22.7402 46.8778V49.845L24.9532 53.6787C24.9884 53.7367 25.0407 53.7824 25.1028 53.8096L28.2944 55.661Z" fill="black"/>
<path d="M50.5115 3.76111C50.4787 3.22945 50.3217 2.71287 50.0533 2.2528C49.7848 1.79273 49.4123 1.40195 48.9656 1.11179L47.7188 0.388685C47.2367 0.140946 46.7025 0.0117187 46.1604 0.0117188C45.6184 0.0117187 45.0841 0.140946 44.602 0.388685L1.53972 25.2735C1.09159 25.5676 0.71878 25.9628 0.451339 26.4273C0.183899 26.8918 0.029301 27.4126 0 27.9478V59.9391C0.0302565 60.4732 0.185306 60.9927 0.452704 61.4561C0.720103 61.9194 1.0924 62.3136 1.53972 62.6071L2.78646 63.3364C3.26457 63.579 3.79315 63.7054 4.32929 63.7054C4.86543 63.7054 5.39401 63.579 5.87213 63.3364L25.9695 51.7168L28.1825 55.5443C28.2071 55.6111 28.2531 55.668 28.3134 55.7061C28.3736 55.7442 28.4447 55.7613 28.5156 55.7549C28.5866 55.7486 28.6535 55.719 28.7059 55.6707C28.7584 55.6225 28.7935 55.5584 28.8058 55.4882L31.1435 48.7496L48.9967 38.4266C49.4467 38.134 49.8213 37.7393 50.0899 37.2746C50.3585 36.8099 50.5137 36.2883 50.5427 35.7524L50.5115 3.76111Z" fill="#AAA648"/>
<path opacity="0.2" d="M0 59.9373C0.0302565 60.4714 0.185306 60.991 0.452704 61.4543C0.720103 61.9177 1.0924 62.3119 1.53972 62.6053L2.78646 63.3347C3.2222 63.5519 3.69871 63.6753 4.18515 63.6968C4.67159 63.7182 5.15711 63.6374 5.61031 63.4593C4.88097 63.7336 4.36358 63.3222 4.36358 62.4432V30.452C4.3831 29.9145 4.53975 29.3909 4.81864 28.931L0.455058 26.4375C0.179867 26.8987 0.0254948 27.4218 0.00623501 27.9585L0 59.9373Z" fill="black"/>
<path opacity="0.25" d="M50.4612 3.32395C50.2804 2.66942 49.682 2.46371 48.9714 2.8689L5.88416 27.8036C5.42661 28.0841 5.0505 28.4796 4.79326 28.9506L0.429688 26.4571C0.688556 25.9873 1.06431 25.5922 1.52058 25.3102L44.5953 0.375424C45.0777 0.128671 45.6119 0 46.1537 0C46.6956 0 47.2297 0.128671 47.7122 0.375424L48.9589 1.09853C49.3459 1.34958 49.6784 1.67601 49.9365 2.05836C50.1946 2.44071 50.3731 2.87114 50.4612 3.32395Z" fill="white"/>
<path d="M21.2612 40.0141L21.4856 40.3071C21.5656 40.4056 21.6654 40.4863 21.7786 40.5439C21.9072 40.6031 22.0487 40.6288 22.19 40.6187C22.3923 40.6032 22.5875 40.5367 22.7572 40.4255C22.9664 40.3004 23.159 40.1496 23.3307 39.9767C23.5164 39.79 23.6777 39.5805 23.8107 39.3533C23.9556 39.1067 24.0687 38.8428 24.1474 38.5679C24.2293 38.2737 24.2692 37.9693 24.2658 37.664C24.2972 37.4718 24.2781 37.2748 24.2104 37.0923C24.1426 36.9098 24.0285 36.748 23.8793 36.6229C23.63 36.4546 23.2559 36.492 22.8445 36.7476C22.7044 36.8289 22.5781 36.932 22.4705 37.0531C22.3521 37.1777 22.2398 37.3024 22.1401 37.4271C22.0404 37.5518 21.9469 37.664 21.8658 37.7762C21.807 37.8581 21.7329 37.928 21.6476 37.9819L19.4285 39.266C19.3887 39.3007 19.3378 39.3198 19.2851 39.3198C19.2324 39.3198 19.1814 39.3007 19.1417 39.266C19.1005 39.2175 19.0702 39.1606 19.053 39.0993C19.0358 39.0379 19.032 38.9736 19.042 38.9107L19.4721 30.8069C19.4818 30.639 19.522 30.4743 19.5905 30.3207C19.6437 30.1872 19.7375 30.0738 19.8586 29.9965L25.9489 26.4745C25.9882 26.4442 26.0364 26.4277 26.086 26.4277C26.1357 26.4277 26.1839 26.4442 26.2232 26.4745C26.2643 26.5235 26.2954 26.58 26.3147 26.641C26.3339 26.702 26.341 26.7661 26.3354 26.8298V29.2049C26.3339 29.3732 26.2956 29.5392 26.2232 29.6911C26.168 29.8269 26.0722 29.9423 25.9489 30.0215L21.8222 32.4152L21.7225 34.4225C21.8981 34.172 22.0941 33.9364 22.3084 33.7181C22.528 33.4997 22.7753 33.3111 23.044 33.157C23.509 32.8666 24.0328 32.6835 24.5775 32.6209C25.0165 32.5662 25.4602 32.6749 25.8242 32.9264C26.2093 33.2156 26.493 33.6193 26.6346 34.0796C26.8519 34.7386 26.9511 35.4308 26.9276 36.1243C26.9308 36.9657 26.8239 37.804 26.6097 38.6177C26.406 39.3887 26.1088 40.1319 25.7245 40.8307C25.3663 41.4858 24.9241 42.0915 24.4092 42.6322C23.9295 43.1359 23.3819 43.5702 22.7822 43.9226C22.2607 44.2574 21.6705 44.4705 21.0554 44.546C20.6053 44.5983 20.1507 44.4973 19.7651 44.2592C19.3953 44.0109 19.1121 43.6536 18.9547 43.2369C18.7518 42.7383 18.65 42.2043 18.6555 41.666C18.6566 41.5297 18.6886 41.3955 18.749 41.2733C18.7901 41.1623 18.8668 41.068 18.9672 41.0052L20.7625 39.9642C20.9183 39.8707 21.0305 39.852 21.1115 39.8894C21.1696 39.92 21.2206 39.9625 21.2612 40.0141Z" fill="white"/>
<path d="M38.6136 34.1031C38.6458 34.1712 38.6607 34.2461 38.6573 34.3213C38.6561 34.4575 38.6241 34.5918 38.5638 34.714C38.5177 34.8221 38.4421 34.915 38.3456 34.982L36.0765 36.2911C36.0313 36.3264 35.978 36.3499 35.9215 36.3597C35.8649 36.3695 35.8068 36.3652 35.7524 36.3472C35.648 36.2975 35.5595 36.2198 35.4968 36.1228L32.8038 32.4574V37.5939C32.8025 37.761 32.7619 37.9254 32.6854 38.0739C32.6322 38.2091 32.5386 38.3245 32.4173 38.4043L30.5472 39.4828C30.5095 39.5165 30.4607 39.5351 30.4101 39.5351C30.3595 39.5351 30.3107 39.5165 30.273 39.4828C30.1908 39.3858 30.1505 39.2603 30.1608 39.1337V24.9458C30.1621 24.7795 30.2004 24.6155 30.273 24.4658C30.3281 24.3284 30.4238 24.2109 30.5472 24.1292L32.4173 23.057C32.454 23.0237 32.5018 23.0053 32.5514 23.0053C32.6009 23.0053 32.6487 23.0237 32.6854 23.057C32.7287 23.1035 32.7617 23.1586 32.7821 23.2188C32.8025 23.279 32.8099 23.3428 32.8038 23.4061V28.0315L35.2973 21.8477C35.3389 21.7355 35.4012 21.5983 35.4843 21.4362C35.5661 21.2667 35.6991 21.1271 35.8646 21.0373L38.09 19.7531C38.1198 19.726 38.1587 19.7109 38.1991 19.7109C38.2394 19.7109 38.2783 19.726 38.3082 19.7531C38.3425 19.792 38.3685 19.8375 38.3846 19.8869C38.4007 19.9362 38.4065 19.9882 38.4017 20.0399C38.4045 20.1292 38.3897 20.2182 38.358 20.3017L34.8422 28.9603L38.6136 34.1031Z" fill="white"/>
<path fill-rule="evenodd" clip-rule="evenodd" d="M90.9723 125.836C90.9723 125.836 98.2016 155.216 99.1865 227.283L81.9971 226.759L78.7288 226.66L77.4388 140.257L74.6617 140.193C74.6617 140.193 69.6406 225.613 69.6406 227.143L47.5264 227.283C47.5264 227.283 51.9405 139.646 59.6318 125.836H90.9723Z" fill="#5BA092"/>
<path fill-rule="evenodd" clip-rule="evenodd" d="M61.6165 127.772C62.1584 127.781 62.7103 127.79 63.2708 127.8L63.2702 127.803C63.2281 128.06 63.1785 128.366 63.1213 128.719C62.9584 129.726 62.7695 130.912 62.5566 132.266C61.9486 136.137 61.2709 140.589 60.5414 145.559C58.4565 159.759 56.3718 175.261 54.4261 191.552C53.0112 203.397 51.7229 215.233 50.5898 226.953C50.5793 227.062 50.6591 227.159 50.7684 227.17C50.8776 227.181 50.9745 227.101 50.9852 226.991C52.118 215.274 53.406 203.442 54.8204 191.599C56.7659 175.312 58.8502 159.814 60.9343 145.617C61.6638 140.649 62.3411 136.198 62.9491 132.328C63.1618 130.974 63.3507 129.789 63.5135 128.782C63.5705 128.43 63.6202 128.125 63.6621 127.868L63.6722 127.806C65.1337 127.83 66.6503 127.854 68.1946 127.876C70.6227 127.912 72.9783 127.942 75.2084 127.967C84.4462 128.067 90.3231 128.052 91.349 127.875C91.4572 127.856 91.5297 127.753 91.5111 127.645C91.4924 127.536 91.3897 127.464 91.2816 127.482C90.2941 127.653 84.3785 127.669 75.2128 127.568C72.9833 127.544 70.6281 127.513 68.2003 127.478C66.6559 127.456 65.1392 127.432 63.6778 127.408C63.6482 127.367 63.6033 127.338 63.5497 127.329C63.4754 127.317 63.4037 127.347 63.3604 127.403C62.7715 127.393 62.1917 127.383 61.6233 127.374C60.8979 127.361 60.2429 127.35 59.6695 127.339C59.4687 127.336 59.2925 127.332 59.1421 127.33L58.9592 127.326C58.8496 127.324 58.759 127.412 58.7568 127.522C58.7548 127.631 58.842 127.722 58.9517 127.724L59.135 127.728C59.2851 127.731 59.4615 127.734 59.6623 127.737C60.2359 127.748 60.891 127.759 61.6165 127.772ZM77.2397 140.264C77.2435 140.374 77.3354 140.46 77.4451 140.456L79.9995 140.368C80.1091 140.364 80.1949 140.272 80.1912 140.162C80.1874 140.052 80.0954 139.966 79.9858 139.97L77.4314 140.058C77.3217 140.062 77.2359 140.154 77.2397 140.264Z" fill="#2F6858"/>
<path fill-rule="evenodd" clip-rule="evenodd" d="M81.7637 226.713L82.2032 235.238H88.7531L88.5741 234.132L90.581 235.238H102.841C102.841 235.238 103.322 233.57 101.419 232.528C99.2628 231.347 98.9341 230.919 98.5513 229.842C97.9686 228.202 98.1986 227.131 98.1986 227.131L81.7637 226.713Z" fill="#B9B3B8"/>
<path fill-rule="evenodd" clip-rule="evenodd" d="M82.0967 233.164L82.2037 235.237H88.7534L88.5744 234.131L90.5811 235.237H102.841C102.841 235.237 103.195 234.008 102.09 233L82.0967 233.164Z" fill="#010101"/>
<path fill-rule="evenodd" clip-rule="evenodd" d="M52.4535 227.037L51.6104 233.011L57.5252 233.896L57.7955 232.936L60.3363 235.103L71.0686 235.237C71.0686 235.237 71.5747 233.524 69.6471 232.527C68.3025 231.831 67.7765 231.352 67.5622 230.439C67.1642 228.744 67.2214 227.13 67.2214 227.13L52.4535 227.037Z" fill="#B9B3B8"/>
<path fill-rule="evenodd" clip-rule="evenodd" d="M51.9681 230.66L51.6104 233.013L57.5252 233.898L57.7955 232.938L60.3363 235.105L71.0686 235.239C71.0686 235.239 71.3167 234.323 70.8535 233.656C70.8535 233.656 61.5379 233.238 60.4352 232.815C58.6989 232.148 55.5732 231.393 55.5732 231.393L51.9681 230.66Z" fill="#010101"/>
<path d="M66.4005 84.424C74.928 84.424 81.841 78.1844 81.841 70.4874C81.841 62.7904 74.928 56.5508 66.4005 56.5508C57.8729 56.5508 50.96 62.7904 50.96 70.4874C50.96 78.1844 57.8729 84.424 66.4005 84.424Z" fill="#010101"/>
<path fill-rule="evenodd" clip-rule="evenodd" d="M67.529 64.1172C61.2829 64.1172 56.2194 68.6484 56.2194 74.238C56.2194 75.3824 56.4347 76.481 56.8259 77.5067C56.7875 77.5057 56.7497 77.502 56.7109 77.502C55.0649 77.502 53.7305 78.6059 53.7305 79.9679C53.7305 81.33 55.0649 82.4339 56.7109 82.4339C57.6207 82.4339 58.4343 82.0957 58.9804 81.5637C59.1778 81.3718 59.4829 81.3511 59.6915 81.5306C61.2197 82.8469 63.1591 83.783 65.3215 84.1661C65.5995 84.2152 65.7958 84.4669 65.7796 84.7502L65.4708 90.1984H70.7044L70.4622 85.9179C70.4034 84.8848 71.0045 83.9176 71.9662 83.5503C76.0069 82.0065 78.8388 78.4182 78.8388 74.238C78.8388 68.6484 73.7753 64.1172 67.529 64.1172Z" fill="#C68E80"/>
<path fill-rule="evenodd" clip-rule="evenodd" d="M67.5296 64.1172C61.2832 64.1172 56.2197 68.6484 56.2197 74.2379C56.2197 75.3823 56.4351 76.4811 56.8263 77.5068L57.8564 79.0482C58.0916 79.4002 58.4911 79.6043 58.9123 79.5882L59.6048 79.5613C60.0417 79.5215 60.3358 79.0934 60.2186 78.6684L59.4161 75.7574C61.019 73.9755 61.1146 69.4089 61.1146 69.4089C65.7145 71.722 79.0533 69.7171 75.5068 67.0644C73.4617 65.2433 70.6428 64.1172 67.5296 64.1172Z" fill="#010101"/>
<path fill-rule="evenodd" clip-rule="evenodd" d="M65.7508 76.4483C65.6355 76.5649 65.4487 76.5649 65.3335 76.4483C65.2183 76.3317 65.2183 76.1426 65.3335 76.0259C65.4811 75.8765 65.7426 75.6618 66.1005 75.4484C67.4889 74.6203 69.0378 74.5901 70.5368 75.8854C70.6607 75.9924 70.6754 76.1809 70.5696 76.3064C70.4638 76.4318 70.2776 76.4467 70.1537 76.3396C68.8681 75.2288 67.5893 75.2537 66.4 75.963C66.2184 76.0713 66.0557 76.1874 65.915 76.3029C65.8323 76.3709 65.7766 76.4221 65.7508 76.4483Z" fill="#010101"/>
<path fill-rule="evenodd" clip-rule="evenodd" d="M74.2576 76.3888C74.1751 76.531 73.9943 76.5787 73.8538 76.4952C73.7132 76.4117 73.6662 76.2287 73.7487 76.0864C73.8552 75.9027 74.0531 75.6403 74.3421 75.3781C75.5099 74.3189 77.0198 74.3189 78.7068 76.0264C78.822 76.1431 78.822 76.3322 78.7068 76.4488C78.5916 76.5654 78.4048 76.5654 78.2895 76.4488C76.8293 74.9708 75.6755 74.9708 74.736 75.8229C74.597 75.949 74.4759 76.0845 74.3739 76.2197C74.314 76.2992 74.2749 76.3589 74.2576 76.3888Z" fill="#010101"/>
<path fill-rule="evenodd" clip-rule="evenodd" d="M67.4591 78.3359H74.9299C75.0996 78.3359 75.2343 78.4804 75.2245 78.6518C75.2171 78.7805 75.1889 78.9939 75.1261 79.2648C75.022 79.7138 74.8549 80.163 74.6098 80.5844C73.8902 81.8217 72.6628 82.5582 70.8503 82.529C69.3034 82.5041 68.265 81.7652 67.6692 80.5671C67.46 80.1465 67.3212 79.6988 67.2383 79.2516C67.1884 78.9823 67.168 78.7705 67.1642 78.6435C67.1592 78.4751 67.2927 78.3359 67.4591 78.3359Z" fill="#E74B33"/>
<path fill-rule="evenodd" clip-rule="evenodd" d="M68.4004 80.7957C68.5159 80.7633 68.6464 80.731 68.7896 80.701C69.4927 80.5534 70.2226 80.5105 70.9137 80.6377C71.7051 80.7834 72.3704 81.1439 72.8535 81.7591C72.972 81.9101 72.9202 82.1335 72.7478 82.2154C72.6545 82.2596 72.4928 82.3216 72.2735 82.3824C71.1259 82.7007 69.7125 82.6285 68.6645 81.8136C68.4953 81.6821 68.3189 81.5066 68.1441 81.3451C67.9777 81.1914 68.036 80.9133 68.2497 80.8412C68.2787 80.8314 68.3297 80.8156 68.4004 80.7957Z" fill="#F3705A"/>
<path fill-rule="evenodd" clip-rule="evenodd" d="M113.843 106.711C108.52 101.623 100.434 97.7255 100.434 97.7255L98.2168 101.014L93.4625 114.662C111.35 130.042 121.255 128.781 124.494 125.328C129.271 120.235 132.47 84.5813 132.47 84.5813C132.47 84.5813 133.911 83.2989 135.325 80.0768C137.482 75.1649 135.814 73.7553 135.814 73.7553C135.213 70.1895 132.941 70.0177 132.941 70.0177C132.941 70.0177 132.427 66.9248 130.927 66.8388C129.426 66.753 128.398 68.3423 128.398 68.3423C128.44 67.1394 127.404 58.378 127.404 58.378C127.404 58.378 126.683 53.4351 124.711 55.798C123.085 57.7462 123.732 65.5646 124.009 68.2486C123.352 63.1393 121.338 58.8457 121.338 58.8457C121.338 58.8457 119.481 55.6261 118.324 56.8721C117.166 58.118 119.149 71.1965 119.149 71.1965C119.149 71.1965 117.552 71.0488 116.18 73.025C114.226 75.8396 119.235 82.7 119.235 82.7L113.843 106.711ZM124.111 69.1586C124.082 68.853 124.048 68.5494 124.009 68.2486C124.069 68.82 124.111 69.1586 124.111 69.1586ZM39.4196 112.596L46.4986 100.483L55.7319 116.834L49.681 128.052C48.4143 130.702 44.4013 136.295 42.1399 138.165C38.9537 140.799 34.5823 142.721 31.5281 137.35C26.1829 127.951 23.5608 96.822 23.5608 96.822C21.4712 92.2699 21.5166 84.3549 21.5398 80.3177C21.5423 79.8733 21.5446 79.4759 21.5437 79.135C21.5435 79.0239 21.5937 78.9117 21.6868 78.7992C22.3972 76.4437 26.5049 74.1049 30.7521 72.4319C36.1991 70.2869 32.312 75.322 32.312 75.322C32.312 75.322 34.2567 73.5301 34.9822 74.2572C35.705 74.9817 35.0558 76.6251 34.5861 77.1218C34.5861 77.1218 36.9758 75.6513 37.0851 77.1771C37.1425 77.9799 36.513 79.1265 35.5403 80.56C35.5403 80.56 37.5979 78.9718 37.9821 79.8727C38.4169 80.8932 38.2864 81.8788 36.1124 85.2616C35.1255 86.7974 34.2565 88.0423 33.6019 88.9438L39.4196 112.596ZM63.2211 90.3478C63.2211 90.3478 68.6065 88.7421 77.8563 90.0084C77.8563 90.0084 74.9492 91.8679 70.9666 92.0358C66.6544 92.2173 63.2211 90.3478 63.2211 90.3478Z" fill="#C68E80"/>
<path fill-rule="evenodd" clip-rule="evenodd" d="M124.443 75.5634C124.591 76.0765 125.015 76.3851 125.72 76.4343C126.574 76.4938 127.228 76.2416 128.165 75.3261C128.134 75.4046 128.104 75.484 128.074 75.5644C127.863 76.1323 127.699 76.6881 127.599 77.2123C127.358 78.4854 127.517 79.4571 128.224 79.9821C128.976 80.5406 129.964 79.7647 131.312 77.9094C132.394 76.4219 134.13 74.862 134.931 74.5497C135.033 74.5096 135.084 74.3944 135.044 74.2918C135.004 74.1893 134.889 74.1387 134.787 74.1785C133.904 74.523 132.113 76.1313 130.991 77.675C129.786 79.3335 128.927 80.0084 128.461 79.6622C127.91 79.2529 127.774 78.4252 127.99 77.2866C128.084 76.7869 128.242 76.2517 128.446 75.7036C128.568 75.3755 128.699 75.0631 128.83 74.777C128.875 74.6771 128.918 74.5877 128.956 74.51C128.977 74.4674 128.992 74.4372 129 74.4202C129.019 74.3862 129.056 74.3209 129.11 74.2285C129.201 74.0738 129.308 73.9012 129.429 73.7151C129.775 73.1833 130.166 72.6515 130.593 72.1559C131.381 71.2423 132.2 70.5596 133.021 70.2016C133.122 70.1578 133.168 70.0404 133.124 69.9396C133.08 69.8389 132.963 69.7925 132.863 69.8365C131.978 70.2221 131.116 70.9409 130.293 71.8957C129.853 72.406 129.451 72.9517 129.096 73.4976C128.972 73.6888 128.862 73.8664 128.768 74.026C128.735 74.082 128.706 74.132 128.682 74.175C128.674 74.1887 128.668 74.2004 128.662 74.2098C127.329 75.7422 126.679 76.1022 125.747 76.0371C125.164 75.9963 124.866 75.7657 124.797 75.3313C124.836 75.2696 124.839 75.1888 124.798 75.1223C124.793 75.1137 124.788 75.1057 124.782 75.0984C124.782 75.0506 124.785 75.001 124.789 74.9494C124.844 74.3137 125.2 73.4381 125.798 72.3921C126.048 71.9545 126.336 71.495 126.655 71.0207C127.07 70.4037 127.514 69.7929 127.959 69.2159C128.115 69.014 128.259 68.8309 128.389 68.67C128.434 68.6137 128.474 68.5643 128.509 68.5219C128.529 68.4968 128.543 68.4797 128.551 68.4711C128.621 68.3867 128.609 68.2611 128.525 68.1908C128.441 68.1203 128.316 68.1317 128.245 68.2161C128.237 68.2254 128.223 68.2433 128.202 68.2694C128.166 68.3124 128.125 68.3628 128.079 68.4199C127.948 68.5832 127.802 68.7684 127.645 68.9726C127.195 69.5558 126.746 70.1734 126.326 70.7983C126.238 70.9291 126.152 71.0589 126.069 71.1876C125.729 71.2106 124.468 71.1945 122.616 71.1491C122.289 71.1412 121.948 71.1324 121.596 71.1228C120.988 71.1065 120.378 71.0888 119.796 71.0713C119.592 71.0651 119.407 71.0593 119.243 71.0544C119.144 71.0512 119.075 71.049 119.039 71.0478C118.929 71.0444 118.838 71.1306 118.834 71.2405C118.831 71.3504 118.917 71.4424 119.026 71.4458C119.063 71.447 119.132 71.4492 119.23 71.4523C119.394 71.4573 119.58 71.4631 119.784 71.4693C120.366 71.4868 120.977 71.5045 121.586 71.5208C121.937 71.5304 122.279 71.5392 122.607 71.5473C124.144 71.5849 125.252 71.6027 125.811 71.5939C125.685 71.7976 125.565 71.9979 125.453 72.194C124.828 73.2864 124.454 74.2074 124.393 74.9152C124.386 74.9924 124.384 75.0671 124.385 75.139C124.16 75.2692 123.881 75.4169 123.558 75.5786C123.424 75.6457 123.284 75.7146 123.137 75.7852C122.716 75.9881 122.265 76.196 121.813 76.3971C121.655 76.4673 121.508 76.5318 121.377 76.5892C121.298 76.6236 121.242 76.6477 121.212 76.6605C121.037 76.7351 121.056 76.9894 121.24 77.0365C121.253 77.0397 121.279 77.0469 121.318 77.0584C121.385 77.0782 121.463 77.1032 121.553 77.1337C121.812 77.2213 122.108 77.3356 122.436 77.4793C123.376 77.8915 124.382 78.4571 125.411 79.2003C125.5 79.2644 125.624 79.2443 125.689 79.1551C125.753 79.0657 125.733 78.9413 125.644 78.8772C124.59 78.117 123.56 77.5375 122.595 77.1146C122.326 76.9965 122.077 76.8974 121.851 76.816C121.891 76.798 121.932 76.7797 121.975 76.7608C122.43 76.5583 122.884 76.3489 123.309 76.1442C123.458 76.0727 123.6 76.0029 123.736 75.9348C124.002 75.8016 124.239 75.6773 124.443 75.5634ZM113.715 106.606C113.691 106.499 113.758 106.393 113.865 106.368C113.972 106.344 114.078 106.411 114.103 106.518L114.9 110.031C114.924 110.138 114.857 110.245 114.75 110.269C114.643 110.293 114.537 110.226 114.512 110.119L113.715 106.606ZM32.231 75.1418C32.3311 75.0968 32.4487 75.1416 32.4936 75.2419C32.5385 75.3423 32.4936 75.4601 32.3937 75.5051C32.3818 75.5103 32.3583 75.521 32.3242 75.537C32.2665 75.5634 32.1996 75.5949 32.1243 75.6309C31.9083 75.7341 31.6678 75.8531 31.4085 75.9867C30.6681 76.3684 29.9275 76.7889 29.2374 77.235C27.7818 78.1762 26.7513 79.1024 26.339 79.9457C26.3274 79.9696 26.3163 79.9933 26.3057 80.017C26.2606 80.1171 26.143 80.1619 26.043 80.1167C25.9429 80.0717 25.8983 79.9539 25.9433 79.8535C25.9557 79.8259 25.9687 79.7982 25.9822 79.7705C26.4351 78.8441 27.5098 77.8783 29.0219 76.9006C29.7241 76.4464 30.4756 76.0198 31.2269 75.6327C31.4898 75.4971 31.7339 75.3763 31.9532 75.2716C32.0301 75.2347 32.0985 75.2027 32.1575 75.1754C32.1932 75.1589 32.2179 75.1475 32.231 75.1418ZM34.7383 76.9947C34.6676 76.9107 34.5422 76.9002 34.4584 76.971L34.3934 77.026L34.2099 77.1813C34.0124 77.3485 33.7921 77.5349 33.5551 77.7358C32.8776 78.3096 32.2002 78.8841 31.5678 79.4217L31.5456 79.4406C30.0107 80.7453 28.9971 81.6137 28.7363 81.8512C28.6551 81.9253 28.6491 82.0511 28.7229 82.1326C28.7967 82.214 28.9223 82.22 29.0035 82.1459C29.2591 81.9132 30.2743 81.0433 31.8027 79.7442L31.8249 79.7253C32.4571 79.188 33.1343 78.6136 33.8115 78.0398C34.0486 77.8391 34.2687 77.6525 34.4663 77.4855L34.6497 77.3302L34.7145 77.2755C34.7985 77.2044 34.809 77.079 34.7383 76.9947ZM35.4046 80.4162C35.4845 80.3409 35.6103 80.3449 35.6853 80.4249C35.7606 80.5052 35.7567 80.631 35.6768 80.7065L35.6134 80.7662C35.5616 80.815 35.5016 80.8717 35.434 80.9358C35.2407 81.119 35.0256 81.3236 34.7935 81.545C34.1312 82.1776 33.4687 82.8171 32.8506 83.4233C32.789 83.4836 32.7282 83.5433 32.668 83.6027C31.5084 84.7441 30.6695 85.6096 30.2813 86.0806C30.2114 86.1654 30.086 86.1774 30.0016 86.1073C29.9169 86.0372 29.905 85.9118 29.975 85.827C30.3753 85.3414 31.2196 84.4701 32.3895 83.3186C32.4499 83.2592 32.5109 83.1993 32.5727 83.1386C33.1923 82.531 33.8559 81.8905 34.5196 81.2568C34.7518 81.035 34.9676 80.8299 35.1611 80.6465C35.2288 80.5822 35.289 80.5253 35.3409 80.4763L35.4046 80.4162ZM39.3128 112.43C39.2204 112.489 39.1934 112.612 39.2526 112.705C39.2583 112.714 39.2728 112.739 39.2947 112.782C39.3332 112.858 39.3767 112.954 39.424 113.073C39.5615 113.418 39.6999 113.869 39.8297 114.439C40.2032 116.079 40.428 118.336 40.428 121.304C40.428 121.414 40.5171 121.503 40.6267 121.503C40.7364 121.503 40.8254 121.414 40.8254 121.304C40.8254 118.308 40.5977 116.022 40.2171 114.35C40.0828 113.761 39.9383 113.29 39.7929 112.925C39.7035 112.701 39.6318 112.56 39.5873 112.49C39.5281 112.397 39.4051 112.37 39.3128 112.43Z" fill="#9B7368"/>
<path fill-rule="evenodd" clip-rule="evenodd" d="M63.2518 90.365C60.3753 91.013 57.3962 92.0867 53.8593 93.705C45.2846 97.6283 41.5312 108.825 41.5312 108.825C41.5312 108.825 46.8535 115.294 52.8583 116.554L47.6541 127.673C47.6541 127.673 66.4121 136.729 94.6635 129.106L93.4626 114.663C93.4626 114.663 99.9128 108.663 102.608 98.895C102.608 98.895 94.1929 92.0632 80.9507 90.3725C79.8122 90.2272 78.7319 90.0982 77.6998 89.9883C77.7519 89.9952 77.8041 90.0022 77.8563 90.0094C77.8563 90.0094 74.9493 91.8689 70.9667 92.0368C66.8905 92.2084 63.5996 90.5473 63.2518 90.365Z" fill="#5BA092"/>
<mask id="mask0_4606_22260" style="mask-type:alpha" maskUnits="userSpaceOnUse" x="41" y="89" width="62" height="44">
<path fill-rule="evenodd" clip-rule="evenodd" d="M63.2518 90.3669C60.3753 91.015 57.3962 92.0887 53.8593 93.7069C45.2846 97.6303 41.5312 108.827 41.5312 108.827C41.5312 108.827 46.8535 115.296 52.8583 116.556L47.6541 127.675C47.6541 127.675 66.4121 136.731 94.6635 129.108L93.4626 114.665C93.4626 114.665 99.9128 108.665 102.608 98.8969C102.608 98.8969 94.1929 92.0652 80.9507 90.3745C79.8122 90.2291 78.7319 90.1001 77.6998 89.9902C77.7519 89.9972 77.8041 90.0042 77.8563 90.0113C77.8563 90.0113 74.9493 91.8709 70.9667 92.0387C66.8905 92.2103 63.5996 90.5493 63.2518 90.3669Z" fill="white"/>
</mask>
<g mask="url(#mask0_4606_22260)">
<path d="M69.1328 91.2764C69.0688 91.1245 68.894 91.0532 68.7424 91.1173L66.9117 91.8906C66.7601 91.9547 66.689 92.1299 66.753 92.2818C66.817 92.4339 66.9916 92.5052 67.1434 92.4411L68.9739 91.6676C69.1256 91.6035 69.1968 91.4285 69.1328 91.2764Z" fill="#F4F0F0"/>
<path d="M54.69 94.6735C54.578 94.7944 54.585 94.9833 54.7055 95.0956L56.1613 96.4504C56.2819 96.5625 56.4707 96.5556 56.5825 96.4347C56.6946 96.3139 56.6876 96.1249 56.567 96.0126L55.1112 94.658C54.9906 94.5457 54.8021 94.5527 54.69 94.6735Z" fill="#F4F0F0"/>
<path d="M56.373 126.238C56.373 126.403 56.5064 126.537 56.671 126.537H58.6577C58.8222 126.537 58.9557 126.403 58.9557 126.238C58.9557 126.073 58.8222 125.939 58.6577 125.939H56.671C56.5064 125.939 56.373 126.073 56.373 126.238Z" fill="#F4F0F0"/>
<path d="M68.1815 104.813C68.1177 104.662 67.9429 104.59 67.7913 104.654L65.9606 105.428C65.8091 105.492 65.7379 105.667 65.8017 105.819C65.8657 105.971 66.0405 106.042 66.1921 105.978L68.0228 105.205C68.1744 105.141 68.2455 104.966 68.1815 104.813Z" fill="#F4F0F0"/>
<path d="M73.8211 99.4661C73.6594 99.4968 73.5529 99.6529 73.5833 99.8149L73.9508 101.771C73.9812 101.934 74.1372 102.04 74.2989 102.01C74.4606 101.979 74.5671 101.823 74.5365 101.661L74.169 99.7044C74.1386 99.5424 73.9828 99.4357 73.8211 99.4661Z" fill="#F4F0F0"/>
<path d="M70.0457 125.945C69.884 125.975 69.7775 126.131 69.8079 126.293L70.1754 128.25C70.2058 128.412 70.3618 128.519 70.5235 128.488C70.6852 128.458 70.7917 128.302 70.7611 128.139L70.3936 126.183C70.3632 126.021 70.2074 125.914 70.0457 125.945Z" fill="#F4F0F0"/>
<path d="M62.6815 111.808C62.5178 111.825 62.3988 111.972 62.4157 112.136L62.6199 114.116C62.6368 114.28 62.7832 114.4 62.9469 114.383C63.1106 114.366 63.2296 114.219 63.2127 114.055L63.0085 112.075C62.9916 111.911 62.8452 111.791 62.6815 111.808Z" fill="#F4F0F0"/>
<path d="M57.3942 101.179C57.3773 101.015 57.4963 100.868 57.66 100.851C57.8237 100.834 57.9701 100.954 57.987 101.118L58.1912 103.098C58.2081 103.262 58.0891 103.409 57.9254 103.426C57.7617 103.443 57.6153 103.323 57.5984 103.159L57.3942 101.179Z" fill="#F4F0F0"/>
<path d="M42.5475 107.984C42.4075 107.897 42.3644 107.713 42.4508 107.573C42.5374 107.433 42.7212 107.39 42.861 107.476L44.5507 108.524C44.6905 108.61 44.7338 108.795 44.6472 108.935C44.5606 109.075 44.377 109.119 44.237 109.032L42.5475 107.984Z" fill="#F4F0F0"/>
<path d="M69.8668 113.349C69.7804 113.489 69.8235 113.673 69.9636 113.76L71.653 114.807C71.793 114.894 71.9766 114.85 72.0632 114.71C72.1498 114.57 72.1065 114.386 71.9667 114.299L70.277 113.252C70.1372 113.165 69.9534 113.208 69.8668 113.349Z" fill="#F4F0F0"/>
<path d="M53.2341 111.014C53.2843 111.171 53.4522 111.258 53.6089 111.207L55.5004 110.599C55.6572 110.548 55.7434 110.38 55.6931 110.223C55.6427 110.066 55.475 109.979 55.3182 110.03L53.4268 110.638C53.27 110.689 53.1838 110.857 53.2341 111.014Z" fill="#F4F0F0"/>
<path d="M48.8654 107.065C48.9182 107.221 49.0873 107.305 49.2432 107.252L51.1252 106.615C51.2811 106.562 51.3647 106.393 51.3121 106.236C51.2595 106.08 51.0904 105.996 50.9344 106.049L49.0523 106.686C48.8963 106.739 48.8127 106.909 48.8654 107.065Z" fill="#F4F0F0"/>
<path d="M75.9629 111.127C75.807 111.18 75.6379 111.096 75.5851 110.94C75.5324 110.784 75.6161 110.614 75.772 110.561L77.6542 109.924C77.8099 109.871 77.9792 109.955 78.0318 110.111C78.0845 110.268 78.0008 110.437 77.8449 110.49L75.9629 111.127Z" fill="#F4F0F0"/>
<path d="M55.8653 115.972C55.7067 116.016 55.6136 116.18 55.6573 116.339L56.1855 118.258C56.2294 118.417 56.3935 118.511 56.552 118.467C56.7108 118.423 56.804 118.259 56.76 118.099L56.2318 116.18C56.1881 116.021 56.024 115.928 55.8653 115.972Z" fill="#F4F0F0"/>
<path d="M64.5517 125.176C64.6572 125.303 64.8451 125.32 64.9715 125.214L66.4964 123.938C66.6228 123.832 66.6396 123.644 66.5344 123.517C66.4289 123.391 66.2409 123.374 66.1146 123.48L64.5894 124.756C64.4631 124.861 64.4462 125.05 64.5517 125.176Z" fill="#F4F0F0"/>
<path d="M74.675 123.651C74.6895 123.815 74.8341 123.937 74.9982 123.922L76.9771 123.746C77.141 123.732 77.2622 123.587 77.2477 123.423C77.233 123.258 77.0884 123.137 76.9245 123.152L74.9456 123.327C74.7817 123.342 74.6605 123.487 74.675 123.651Z" fill="#F4F0F0"/>
<path d="M88.3574 93.9881C88.3574 94.1531 88.4909 94.2867 88.6554 94.2867H90.6421C90.8067 94.2867 90.9401 94.1531 90.9401 93.9881C90.9401 93.8232 90.8067 93.6895 90.6421 93.6895H88.6554C88.4909 93.6895 88.3574 93.8232 88.3574 93.9881Z" fill="#F4F0F0"/>
<path d="M84.881 120.767C84.7165 120.767 84.583 120.634 84.583 120.469C84.583 120.304 84.7165 120.17 84.881 120.17H86.8676C87.0323 120.17 87.1656 120.304 87.1656 120.469C87.1656 120.634 87.0323 120.767 86.8676 120.767H84.881Z" fill="#F4F0F0"/>
<path d="M96.0022 98.8849C96.1538 98.8208 96.3286 98.892 96.3926 99.044C96.4565 99.1961 96.3854 99.3711 96.2336 99.4352L94.4031 100.209C94.2514 100.273 94.0767 100.201 94.0128 100.049C93.9488 99.8975 94.0199 99.7223 94.1715 99.6582L96.0022 98.8849Z" fill="#F4F0F0"/>
<path d="M92.2268 125.363C92.3784 125.299 92.5532 125.371 92.6172 125.522C92.6811 125.675 92.61 125.85 92.4582 125.914L90.6277 126.687C90.476 126.751 90.3013 126.68 90.2374 126.528C90.1734 126.376 90.2445 126.201 90.3961 126.137L92.2268 125.363Z" fill="#F4F0F0"/>
<path d="M90.6256 106.364C90.6087 106.2 90.7277 106.054 90.8914 106.037C91.0551 106.02 91.2015 106.139 91.2186 106.303L91.4227 108.284C91.4396 108.448 91.3205 108.594 91.1568 108.611C90.9932 108.628 90.8467 108.509 90.8298 108.345L90.6256 106.364Z" fill="#F4F0F0"/>
<path d="M81.8199 105.436C81.6631 105.486 81.4953 105.4 81.445 105.243C81.3947 105.086 81.4809 104.917 81.6377 104.867L83.5292 104.259C83.6859 104.208 83.8538 104.295 83.904 104.451C83.9543 104.609 83.8681 104.777 83.7113 104.827L81.8199 105.436Z" fill="#F4F0F0"/>
<path d="M78.3432 131.41C78.1866 131.461 78.0188 131.374 77.9685 131.217C77.918 131.06 78.0045 130.892 78.161 130.842L80.0527 130.233C80.2094 130.183 80.3771 130.269 80.4274 130.426C80.4778 130.583 80.3916 130.751 80.2349 130.802L78.3432 131.41Z" fill="#F4F0F0"/>
<path d="M78.6585 116.354C78.6184 116.194 78.7151 116.032 78.8746 115.992C79.0344 115.951 79.1963 116.048 79.2364 116.208L79.7211 118.139C79.7613 118.299 79.6645 118.461 79.505 118.501C79.3453 118.542 79.1834 118.445 79.1432 118.285L78.6585 116.354Z" fill="#F4F0F0"/>
<path d="M83.8673 110.566C83.8234 110.407 83.9166 110.242 84.0753 110.198C84.2338 110.155 84.3979 110.248 84.4418 110.407L84.9701 112.326C85.0138 112.485 84.9206 112.65 84.7621 112.693C84.6034 112.737 84.4393 112.644 84.3956 112.485L83.8673 110.566Z" fill="#F4F0F0"/>
</g>
<path fill-rule="evenodd" clip-rule="evenodd" d="M53.0353 116.646C52.9851 116.744 52.8651 116.782 52.7677 116.731C52.6702 116.681 52.632 116.561 52.6823 116.463L55.7336 110.543C55.784 110.446 55.9038 110.407 56.0012 110.458C56.0987 110.508 56.1369 110.628 56.0866 110.726L53.0353 116.646Z" fill="#2F6858"/>
<path fill-rule="evenodd" clip-rule="evenodd" d="M42.9531 69.5146L30.3261 68.9935C29.3317 68.9525 28.5601 69.8528 28.7508 70.8316L29.1892 73.0823C29.7039 72.8564 30.2269 72.6394 30.752 72.4325C36.199 70.2875 32.3119 75.3225 32.3119 75.3225C32.3119 75.3225 34.2566 73.5307 34.9821 74.2578C35.7049 74.9823 35.0556 76.6256 34.586 77.1224C34.586 77.1224 36.9757 75.6519 37.085 77.1777C37.1424 77.9805 36.5128 79.127 35.5402 80.5605C35.5402 80.5605 37.5978 78.9723 37.982 79.8732C38.4168 80.8938 38.2863 81.8793 36.1123 85.2621C34.409 87.9129 33.0571 89.697 32.5517 90.345L33.2047 93.6968C33.2788 94.0778 33.6197 94.3474 34.0067 94.3315L45.2926 93.865C46.1842 93.8282 46.8581 93.0423 46.7603 92.1534L44.4209 70.8879C44.3374 70.1294 43.7136 69.5458 42.9531 69.5146Z" fill="#7D7D7D"/>
<path fill-rule="evenodd" clip-rule="evenodd" d="M36.6801 60.1845C36.3722 60.5917 35.9568 61.2035 35.4615 61.9712C35.4013 62.0646 35.3399 62.16 35.2779 62.2573C34.9072 62.8374 34.5198 63.4592 34.1392 64.0811C34.0061 64.2987 33.8831 64.5008 33.7735 64.6822C33.7351 64.7457 33.7011 64.802 33.6721 64.8505C33.6425 64.8997 33.6425 64.8997 33.6364 64.9099C33.5627 65.033 33.3871 65.0398 33.304 64.9227C33.2979 64.914 33.2855 64.8968 33.2677 64.8717C33.2375 64.8297 33.2021 64.7809 33.1618 64.7258C33.0469 64.5684 32.9162 64.3928 32.7724 64.2037C32.362 63.6635 31.9289 63.1234 31.4938 62.6198C31.1936 62.2724 30.903 61.9548 30.6254 61.6735C30.2055 61.2481 29.8246 60.9148 29.4938 60.6901C29.2341 60.5138 29.1353 60.585 29.0566 61.0156C28.977 61.4516 28.9917 62.1429 29.0834 63.0117C29.125 63.4056 29.1811 63.8237 29.2481 64.2542C29.3015 64.597 29.3587 64.9281 29.4159 65.2348C29.4359 65.3421 29.4544 65.4386 29.4711 65.5228C29.481 65.5732 29.4881 65.6082 29.4918 65.6261C29.5141 65.7338 29.4451 65.8392 29.3376 65.8615C29.2302 65.8838 29.125 65.8146 29.1028 65.707C29.0988 65.6878 29.0915 65.6518 29.0813 65.6002C29.0644 65.5146 29.0456 65.4166 29.0253 65.3079C28.9674 64.9975 28.9096 64.6626 28.8555 64.3156C28.7876 63.879 28.7306 63.4545 28.6883 63.0536C28.5929 62.1493 28.5775 61.4275 28.6658 60.9439C28.7893 60.2674 29.1728 59.9912 29.7166 60.3605C30.0722 60.6019 30.4713 60.9512 30.9079 61.3935C31.192 61.6816 31.4886 62.0055 31.7942 62.3591C32.2352 62.8696 32.6733 63.4161 33.0885 63.9624C33.221 64.1365 33.3424 64.2994 33.4508 64.4475C33.5565 64.2729 33.6739 64.0799 33.8007 63.8729C34.1825 63.249 34.5711 62.6251 34.9432 62.0425C35.0058 61.9448 35.0674 61.8489 35.128 61.755C35.6282 60.9796 36.0482 60.361 36.3634 59.944C36.547 59.7012 36.6938 59.5282 36.8061 59.4267C36.8843 59.3559 36.9513 59.3123 37.0274 59.2979C37.1803 59.2689 37.2954 59.3716 37.3174 59.5149C37.3629 59.8115 37.3236 60.7791 37.2235 62.2542C37.2078 62.4843 37.1909 62.723 37.173 62.9684C37.1374 63.4555 37.0991 63.9465 37.061 64.4169C37.0554 64.4854 37.05 64.5515 37.0449 64.6148C37.1207 64.5637 37.201 64.5101 37.2848 64.4543C37.7306 64.1581 38.1906 63.8618 38.6401 63.585C38.7915 63.4918 38.9397 63.4022 39.0837 63.3167C39.7987 62.892 40.388 62.5835 40.8141 62.4235C41.0785 62.3242 41.2822 62.2801 41.4377 62.302C41.6809 62.3363 41.7975 62.5313 41.7423 62.7859C41.6642 63.146 41.5571 63.7011 41.4288 64.4046C41.4135 64.4884 41.398 64.5741 41.3821 64.6614C41.2895 65.1745 41.1926 65.7244 41.0974 66.2742C41.0883 66.327 41.0793 66.3788 41.0706 66.4294C41.2921 66.229 41.5198 66.0301 41.7449 65.8426C41.8595 65.7472 41.9713 65.6566 42.0794 65.5717C42.4461 65.2839 42.7606 65.0695 43.0115 64.9453C43.3797 64.7632 43.6695 64.7491 43.7907 65.0403C43.9069 65.3197 43.8815 65.7939 43.7587 66.4373C43.7214 66.6324 43.6759 66.8379 43.6236 67.0493C43.5716 67.2612 43.5157 67.4676 43.4597 67.661C43.4402 67.7286 43.422 67.79 43.4057 67.8437C43.3957 67.8762 43.3886 67.8991 43.3848 67.9114C43.3516 68.0161 43.24 68.0743 43.1353 68.041C43.0308 68.0078 42.9728 67.8959 43.006 67.791C43.0095 67.78 43.0161 67.7585 43.0256 67.7277C43.0415 67.6755 43.0592 67.616 43.0781 67.5501C43.1327 67.3617 43.1872 67.16 43.238 66.954C43.2885 66.7489 43.3326 66.5502 43.3683 66.3625C43.4718 65.821 43.4969 65.409 43.4327 65.217C43.3805 65.2205 43.2956 65.2488 43.1873 65.3024C42.9664 65.4118 42.6714 65.6129 42.3244 65.8852C42.2195 65.9677 42.1106 66.0558 41.9987 66.1489C41.7445 66.3607 41.486 66.588 41.2375 66.8154C41.1504 66.8948 41.071 66.9689 41.0005 67.035C40.9583 67.0746 40.9289 67.1029 40.9134 67.1176C40.7754 67.2504 40.5481 67.13 40.5801 66.9406C40.5862 66.904 40.598 66.8351 40.6145 66.7385C40.6419 66.5779 40.6727 66.3989 40.706 66.2062C40.8012 65.6554 40.8983 65.1046 40.9911 64.5905C41.007 64.5029 41.0225 64.417 41.038 64.3329C41.1671 63.6254 41.2748 63.0668 41.3539 62.7013C41.3545 62.6989 41.3549 62.6967 41.3555 62.6945C41.2764 62.694 41.1369 62.7275 40.9536 62.7963C40.5549 62.9461 39.9827 63.2457 39.2862 63.6592C39.1441 63.7436 38.9977 63.8322 38.8481 63.9243C38.4029 64.1984 37.9466 64.4923 37.5046 64.7862C37.3496 64.8891 37.2078 64.9846 37.0818 65.0703C37.0063 65.1216 36.9531 65.1582 36.9251 65.1775C36.7868 65.2732 36.5999 65.1644 36.6142 64.9967C36.6167 64.9672 36.6215 64.9111 36.6283 64.8316C36.6392 64.6989 36.6517 64.5489 36.665 64.3847C36.7032 63.9152 36.7411 63.4252 36.7767 62.9393C36.7945 62.6945 36.8114 62.4566 36.8271 62.2272C36.9014 61.1316 36.9422 60.3007 36.9392 59.8613C36.8663 59.9448 36.7794 60.0532 36.6801 60.1845Z" fill="#F3705A"/>
<path d="M74.0406 115.752C74.0156 115.718 74.026 115.18 74.0637 114.558C74.1603 112.96 74.1721 112.99 73.6953 113.629C72.7491 114.896 70.9677 115.992 69.6591 116.112L69.3189 116.143L69.456 115.85C69.6851 115.359 70.5371 114.371 71.0999 113.943L71.6313 113.538L70.5723 113.576C68.9686 113.633 67.5422 113.349 66.0968 112.686C65.6859 112.497 65.3111 112.311 65.2639 112.271C65.1661 112.189 66.0263 111.818 66.8719 111.578C67.6771 111.349 69.5267 111.208 70.3419 111.313C70.7144 111.36 71.0287 111.389 71.0402 111.375C71.0522 111.359 70.7583 111.154 70.3879 110.916C68.5611 109.738 66.7747 107.586 65.8365 105.433C65.555 104.787 65.4708 104.507 65.5554 104.5C65.697 104.488 67.2338 105.044 67.784 105.306C69.318 106.039 70.8705 107.223 71.9515 108.486C72.2669 108.854 72.4947 109.077 72.4578 108.982C72.2081 108.335 72.0488 107.468 71.9286 106.103C71.7768 104.377 71.8216 103.568 72.1564 101.987C72.3514 101.066 72.9592 99.2618 73.0778 99.2514C73.167 99.2436 73.8574 100.478 74.1897 101.24C75.1185 103.368 75.5661 106.058 75.3475 108.195C75.3069 108.591 75.2771 108.953 75.2811 109C75.2853 109.047 75.4865 108.733 75.7284 108.304C76.823 106.361 78.5903 104.621 80.5387 103.567C81.557 103.016 81.5205 103.016 81.4243 103.58C81.0372 105.854 79.5362 108.597 77.753 110.289C77.4183 110.606 77.1647 110.865 77.1895 110.862C77.2142 110.86 77.4834 110.779 77.7876 110.681C79.0793 110.266 80.5835 110.175 82.0356 110.424C83.0826 110.603 83.109 110.633 82.5718 111.045C81.2352 112.071 79.7629 112.672 77.9472 112.931L76.9928 113.068L77.564 113.342C78.11 113.603 79.4318 114.669 79.679 115.047C79.789 115.215 79.7747 115.228 79.4499 115.257C78.8763 115.307 77.7434 115.075 76.9288 114.741C76.3537 114.505 75.9525 114.251 75.3285 113.73L74.4957 113.035L74.8493 114.219C75.0438 114.87 75.2108 115.473 75.2204 115.559C75.2351 115.693 75.1524 115.722 74.6621 115.765C74.3453 115.793 74.0658 115.789 74.0406 115.752Z" fill="black"/>
<path fill-rule="evenodd" clip-rule="evenodd" d="M127.48 176.074H135.277L119.236 201.62C118.712 202.455 117.798 202.96 116.814 202.96C115.594 202.96 114.798 201.677 115.34 200.582L127.48 176.074Z" fill="#E3D4C5"/>
<path fill-rule="evenodd" clip-rule="evenodd" d="M187.01 176.074H179.213L195.253 201.62C195.777 202.455 196.692 202.96 197.675 202.96C198.896 202.96 199.691 201.677 199.149 200.582L187.01 176.074Z" fill="#E3D4C5"/>
<path fill-rule="evenodd" clip-rule="evenodd" d="M212 169.407C212 177.556 187.583 184.161 157.463 184.161C127.344 184.161 102.927 177.556 102.927 169.407C102.927 161.258 127.344 154.652 157.463 154.652C187.583 154.652 212 161.258 212 169.407Z" fill="#CDB1AA"/>
<path fill-rule="evenodd" clip-rule="evenodd" d="M175.497 159.023H185.771L185.377 165.561C185.258 167.537 183.622 169.078 181.645 169.078H179.622C177.645 169.078 176.01 167.537 175.891 165.561L175.497 159.023Z" fill="#F3705A"/>
<path fill-rule="evenodd" clip-rule="evenodd" d="M184.678 166.893L184.832 165.61C186.619 165.468 188.749 164.746 188.749 162.121C188.749 161.266 188.419 161.065 188.31 160.998C187.612 160.576 186.043 161.065 185.218 161.474L184.689 160.44C184.967 160.302 187.444 159.115 188.924 160.012C189.38 160.289 189.924 160.879 189.924 162.121C189.924 164.818 187.853 166.639 184.678 166.893Z" fill="#F3705A"/>
<path fill-rule="evenodd" clip-rule="evenodd" d="M185.771 159.134C185.771 160.038 183.471 160.773 180.634 160.773C177.797 160.773 175.497 160.038 175.497 159.134C175.497 158.229 177.797 157.494 180.634 157.494C183.471 157.494 185.771 158.229 185.771 159.134Z" fill="#E74B33"/>
<path fill-rule="evenodd" clip-rule="evenodd" d="M181.538 149.503C181.47 149.601 181.496 149.739 181.596 149.807C182.953 150.729 183.584 151.588 183.584 152.81C183.584 153.647 183.272 154.329 182.657 154.957C182.179 155.444 181.692 155.781 180.519 156.495C180.265 156.651 180.152 156.721 180.013 156.808C178.153 157.971 177.249 158.9 177.249 160.382C177.249 160.393 177.277 160.397 177.326 160.404C177.361 160.408 177.405 160.417 177.457 160.428C177.492 160.436 177.524 160.443 177.554 160.452C177.631 160.469 177.684 160.482 177.684 160.471C177.684 159.136 178.466 158.29 180.244 157.18C180.382 157.092 180.494 157.024 180.747 156.869C181.952 156.133 182.456 155.785 182.968 155.263C183.66 154.559 184.022 153.77 184.022 152.81C184.022 151.413 183.306 150.441 181.842 149.444C181.742 149.376 181.606 149.402 181.538 149.503ZM189.049 152.467C188.928 152.467 188.83 152.565 188.83 152.685C188.83 153.538 188.518 154.233 187.901 154.869C187.423 155.365 186.937 155.706 185.764 156.434C184.56 157.182 184.056 157.536 183.543 158.067C182.852 158.782 182.492 159.582 182.492 160.554C182.492 160.668 182.545 160.659 182.647 160.642C182.654 160.64 182.661 160.64 182.669 160.638C182.694 160.633 182.72 160.631 182.746 160.627C182.84 160.616 182.929 160.605 182.929 160.554C182.929 159.702 183.242 159.007 183.858 158.371C184.336 157.875 184.822 157.534 185.995 156.806C187.199 156.058 187.704 155.704 188.216 155.173C188.907 154.458 189.268 153.658 189.268 152.685C189.268 152.565 189.17 152.467 189.049 152.467Z" fill="#F4F0F0"/>
<path d="M157.263 146.379L153.385 142.502C153.082 142.199 152.592 142.199 152.289 142.502C151.986 142.804 151.986 143.295 152.289 143.598L152.571 143.881L146.708 149.743C145.719 149.031 144.655 148.501 143.532 148.164V133.744H144.307C144.736 133.744 145.082 133.397 145.082 132.969C145.082 132.54 144.736 132.193 144.307 132.193H136.552C136.124 132.193 135.777 132.54 135.777 132.969C135.777 133.397 136.124 133.744 136.552 133.744H137.328V148.162C132.732 149.525 129.573 153.715 129.573 158.559C129.573 162.525 131.717 165.99 134.9 167.885C134.522 167.937 134.226 168.247 134.226 168.64C134.226 169.069 134.573 169.415 135.001 169.415H145.858C146.287 169.415 146.633 169.069 146.633 168.64C146.633 168.247 146.338 167.937 145.959 167.885C149.142 165.99 151.286 162.525 151.286 158.559C151.286 156.704 150.791 154.873 149.849 153.227L155.884 147.193L156.166 147.475C156.318 147.627 156.516 147.703 156.714 147.703C156.913 147.703 157.111 147.627 157.263 147.475C157.566 147.172 157.566 146.682 157.263 146.379Z" fill="#303C42"/>
<path d="M148.321 152.561C148.062 152.82 148.02 153.225 148.219 153.531C149.211 155.06 149.735 156.798 149.735 158.559C149.735 163.69 145.561 167.864 140.43 167.864C135.298 167.864 131.124 163.69 131.124 158.559C131.124 154.23 134.068 150.51 138.282 149.512C138.632 149.43 138.879 149.118 138.879 148.758V133.744H141.98V148.758C141.98 149.118 142.227 149.43 142.577 149.512C143.909 149.828 145.157 150.454 146.287 151.373C146.43 151.49 146.604 151.547 146.776 151.547C146.976 151.547 147.174 151.471 147.325 151.32L153.668 144.977L154.787 146.096L148.321 152.561Z" fill="#85BACE"/>
<path opacity="0.1" d="M148.96 155.457C148.96 160.589 144.785 164.763 139.654 164.763C135.869 164.763 132.61 162.488 131.158 159.236C131.508 164.052 135.527 167.865 140.429 167.865C145.561 167.865 149.735 163.691 149.735 158.559C149.735 157.273 149.449 156.002 148.912 154.812C148.927 155.028 148.96 155.241 148.96 155.457Z" fill="black"/>
<path d="M157.263 146.379L153.385 142.502C153.082 142.199 152.592 142.199 152.289 142.502C151.986 142.804 151.986 143.295 152.289 143.598L152.571 143.881L146.708 149.743C145.719 149.031 144.655 148.501 143.532 148.164V133.744H144.307C144.736 133.744 145.082 133.397 145.082 132.969C145.082 132.54 144.736 132.193 144.307 132.193H136.552C136.124 132.193 135.777 132.54 135.777 132.969C135.777 133.397 136.124 133.744 136.552 133.744H137.328V148.162C132.732 149.525 129.573 153.715 129.573 158.559C129.573 162.525 131.717 165.99 134.9 167.885C134.522 167.937 134.226 168.247 134.226 168.64C134.226 169.069 134.573 169.415 135.001 169.415H145.858C146.287 169.415 146.633 169.069 146.633 168.64C146.633 168.247 146.338 167.937 145.959 167.885C149.142 165.99 151.286 162.525 151.286 158.559C151.286 156.704 150.791 154.873 149.849 153.227L155.884 147.193L156.166 147.475C156.318 147.627 156.516 147.703 156.714 147.703C156.913 147.703 157.111 147.627 157.263 147.475C157.566 147.172 157.566 146.682 157.263 146.379Z" fill="url(#paint0_linear_4606_22260)"/>
<defs>
<linearGradient id="paint0_linear_4606_22260" x1="129.572" y1="146.103" x2="153.097" y2="157.073" gradientUnits="userSpaceOnUse">
<stop stop-color="white" stop-opacity="0.2"/>
<stop offset="1" stop-color="white" stop-opacity="0"/>
</linearGradient>
</defs>
</svg>
