<svg width="12" height="12" viewBox="0 0 12 12" fill="none" xmlns="http://www.w3.org/2000/svg">
<mask id="path-1-inside-1_0_1138" fill="white">
<path d="M9.33333 1H2.66667C2.22464 1 1.80072 1.1756 1.48816 1.48816C1.17559 1.80073 1 2.22466 1 2.66669L1 7.66676C1 8.10879 1.17559 8.53272 1.48816 8.84529C1.80072 9.15785 2.22464 9.33345 2.66667 9.33345H3.875L5.72958 10.9014C5.80482 10.9651 5.90019 11 5.99875 11C6.09731 11 6.19268 10.9651 6.26792 10.9014L8.125 9.33345H9.33333C9.77536 9.33345 10.1993 9.15785 10.5118 8.84529C10.8244 8.53272 11 8.10879 11 7.66676V2.66669C11 2.22466 10.8244 1.80073 10.5118 1.48816C10.1993 1.1756 9.77536 1 9.33333 1V1ZM10.1667 7.66676C10.1667 7.88778 10.0789 8.09974 9.92259 8.25602C9.76631 8.41231 9.55435 8.50011 9.33333 8.50011H8.125C7.92804 8.50017 7.73746 8.56999 7.58708 8.69719L6 10.0376L4.41375 8.69719C4.26315 8.56981 4.07225 8.49997 3.875 8.50011H2.66667C2.44565 8.50011 2.23369 8.41231 2.07741 8.25602C1.92113 8.09974 1.83333 7.88778 1.83333 7.66676V2.66669C1.83333 2.44567 1.92113 2.23371 2.07741 2.07743C2.23369 1.92114 2.44565 1.83335 2.66667 1.83335H9.33333C9.55435 1.83335 9.76631 1.92114 9.92259 2.07743C10.0789 2.23371 10.1667 2.44567 10.1667 2.66669V7.66676Z"/>
</mask>
<path d="M9.33333 1H2.66667C2.22464 1 1.80072 1.1756 1.48816 1.48816C1.17559 1.80073 1 2.22466 1 2.66669L1 7.66676C1 8.10879 1.17559 8.53272 1.48816 8.84529C1.80072 9.15785 2.22464 9.33345 2.66667 9.33345H3.875L5.72958 10.9014C5.80482 10.9651 5.90019 11 5.99875 11C6.09731 11 6.19268 10.9651 6.26792 10.9014L8.125 9.33345H9.33333C9.77536 9.33345 10.1993 9.15785 10.5118 8.84529C10.8244 8.53272 11 8.10879 11 7.66676V2.66669C11 2.22466 10.8244 1.80073 10.5118 1.48816C10.1993 1.1756 9.77536 1 9.33333 1V1ZM10.1667 7.66676C10.1667 7.88778 10.0789 8.09974 9.92259 8.25602C9.76631 8.41231 9.55435 8.50011 9.33333 8.50011H8.125C7.92804 8.50017 7.73746 8.56999 7.58708 8.69719L6 10.0376L4.41375 8.69719C4.26315 8.56981 4.07225 8.49997 3.875 8.50011H2.66667C2.44565 8.50011 2.23369 8.41231 2.07741 8.25602C1.92113 8.09974 1.83333 7.88778 1.83333 7.66676V2.66669C1.83333 2.44567 1.92113 2.23371 2.07741 2.07743C2.23369 1.92114 2.44565 1.83335 2.66667 1.83335H9.33333C9.55435 1.83335 9.76631 1.92114 9.92259 2.07743C10.0789 2.23371 10.1667 2.44567 10.1667 2.66669V7.66676Z" fill="#DAA930"/>
<path d="M9.33333 1V2.2H10.5333V1H9.33333ZM1 2.66669H-0.2H1ZM1 7.66676H-0.2H1ZM3.875 9.33345L4.64975 8.41706L4.31429 8.13345H3.875V9.33345ZM5.72958 10.9014L6.50479 9.98539L6.50433 9.985L5.72958 10.9014ZM5.99875 11V12.2V11ZM6.26792 10.9014L5.49378 9.98449L5.49271 9.98539L6.26792 10.9014ZM8.125 9.33345V8.13345H7.68617L7.35086 8.41655L8.125 9.33345ZM9.33333 1V-0.2H8.13333V1H9.33333ZM8.125 8.50011V7.30011H8.12463L8.125 8.50011ZM7.58708 8.69719L8.36138 9.61396L8.36206 9.61339L7.58708 8.69719ZM6 10.0376L5.22547 10.9542L5.9998 11.6085L6.7743 10.9544L6 10.0376ZM4.41375 8.69719L3.63877 9.61339L3.63922 9.61376L4.41375 8.69719ZM3.875 8.50011V9.70011H3.87583L3.875 8.50011ZM1.83333 7.66676H0.633333H1.83333ZM2.66667 1.83335V0.633345V1.83335ZM9.33333 1.83335V0.633345V1.83335ZM9.33333 -0.2H2.66667V2.2H9.33333V-0.2ZM2.66667 -0.2C1.90637 -0.2 1.17722 0.10203 0.639621 0.63964L2.33669 2.33668C2.42421 2.24916 2.5429 2.2 2.66667 2.2V-0.2ZM0.639621 0.63964C0.102019 1.17725 -0.2 1.9064 -0.2 2.66669H2.2C2.2 2.54291 2.24917 2.4242 2.33669 2.33668L0.639621 0.63964ZM-0.2 2.66669V7.66676H2.2V2.66669H-0.2ZM-0.2 7.66676C-0.2 8.42705 0.102019 9.1562 0.639621 9.69381L2.33669 7.99677C2.24917 7.90925 2.2 7.79054 2.2 7.66676H-0.2ZM0.639621 9.69381C1.17722 10.2314 1.90637 10.5335 2.66667 10.5335V8.13345C2.5429 8.13345 2.42421 8.08429 2.33669 7.99677L0.639621 9.69381ZM2.66667 10.5335H3.875V8.13345H2.66667V10.5335ZM3.10025 10.2498L4.95483 11.8178L6.50433 9.985L4.64975 8.41706L3.10025 10.2498ZM4.95438 11.8174C5.24629 12.0644 5.61633 12.2 5.99875 12.2V9.8C6.18405 9.8 6.36335 9.86569 6.50479 9.98539L4.95438 11.8174ZM5.99875 12.2C6.38117 12.2 6.75121 12.0644 7.04312 11.8174L5.49271 9.98539C5.63415 9.86569 5.81345 9.8 5.99875 9.8V12.2ZM7.04206 11.8183L8.89914 10.2504L7.35086 8.41655L5.49378 9.98449L7.04206 11.8183ZM8.125 10.5335H9.33333V8.13345H8.125V10.5335ZM9.33333 10.5335C10.0936 10.5335 10.8228 10.2314 11.3604 9.69381L9.66331 7.99677C9.57579 8.08429 9.45709 8.13345 9.33333 8.13345V10.5335ZM11.3604 9.69381C11.898 9.1562 12.2 8.42705 12.2 7.66676H9.8C9.8 7.79054 9.75083 7.90925 9.66331 7.99677L11.3604 9.69381ZM12.2 7.66676V2.66669H9.8V7.66676H12.2ZM12.2 2.66669C12.2 1.9064 11.898 1.17725 11.3604 0.63964L9.66331 2.33668C9.75083 2.4242 9.8 2.54291 9.8 2.66669H12.2ZM11.3604 0.63964C10.8228 0.10203 10.0936 -0.2 9.33333 -0.2V2.2C9.4571 2.2 9.57579 2.24916 9.66331 2.33668L11.3604 0.63964ZM8.13333 1V1H10.5333V1H8.13333ZM8.96667 7.66676C8.96667 7.56952 9.00529 7.47626 9.07405 7.4075L10.7711 9.10455C11.1524 8.72322 11.3667 8.20603 11.3667 7.66676H8.96667ZM9.07405 7.4075C9.14282 7.33874 9.23608 7.30011 9.33333 7.30011V9.70011C9.87261 9.70011 10.3898 9.48587 10.7711 9.10455L9.07405 7.4075ZM9.33333 7.30011H8.125V9.70011H9.33333V7.30011ZM8.12463 7.30011C7.64404 7.30025 7.17904 7.47063 6.81211 7.781L8.36206 9.61339C8.29589 9.66935 8.21204 9.70008 8.12537 9.70011L8.12463 7.30011ZM6.81279 7.78042L5.2257 9.12086L6.7743 10.9544L8.36138 9.61396L6.81279 7.78042ZM6.77453 9.12106L5.18828 7.78062L3.63922 9.61376L5.22547 10.9542L6.77453 9.12106ZM5.18873 7.781C4.82126 7.47017 4.35546 7.29977 3.87417 7.30011L3.87583 9.70011C3.78904 9.70017 3.70504 9.66944 3.63877 9.61339L5.18873 7.781ZM3.875 7.30011H2.66667V9.70011H3.875V7.30011ZM2.66667 7.30011C2.76392 7.30011 2.85718 7.33874 2.92595 7.4075L1.22888 9.10455C1.6102 9.48587 2.12739 9.70011 2.66667 9.70011V7.30011ZM2.92595 7.4075C2.99471 7.47626 3.03333 7.56952 3.03333 7.66676H0.633333C0.633333 8.20603 0.847555 8.72322 1.22888 9.10455L2.92595 7.4075ZM3.03333 7.66676V2.66669H0.633333V7.66676H3.03333ZM3.03333 2.66669C3.03333 2.76393 2.99471 2.85719 2.92595 2.92595L1.22888 1.2289C0.847555 1.61023 0.633333 2.12742 0.633333 2.66669H3.03333ZM2.92595 2.92595C2.85718 2.99471 2.76392 3.03335 2.66667 3.03335V0.633345C2.12739 0.633345 1.6102 0.847576 1.22888 1.2289L2.92595 2.92595ZM2.66667 3.03335H9.33333V0.633345H2.66667V3.03335ZM9.33333 3.03335C9.23608 3.03335 9.14282 2.99471 9.07405 2.92595L10.7711 1.2289C10.3898 0.847576 9.87261 0.633345 9.33333 0.633345V3.03335ZM9.07405 2.92595C9.00529 2.85719 8.96667 2.76393 8.96667 2.66669H11.3667C11.3667 2.12742 11.1524 1.61023 10.7711 1.2289L9.07405 2.92595ZM8.96667 2.66669V7.66676H11.3667V2.66669H8.96667Z" fill="#DAA930" mask="url(#path-1-inside-1_0_1138)"/>
<path d="M3.92857 4H6.07143C6.18509 4 6.2941 3.94732 6.37447 3.85355C6.45485 3.75979 6.5 3.63261 6.5 3.5C6.5 3.36739 6.45485 3.24021 6.37447 3.14645C6.2941 3.05268 6.18509 3 6.07143 3H3.92857C3.81491 3 3.7059 3.05268 3.62553 3.14645C3.54515 3.24021 3.5 3.36739 3.5 3.5C3.5 3.63261 3.54515 3.75979 3.62553 3.85355C3.7059 3.94732 3.81491 4 3.92857 4Z" fill="#DAA930"/>
<path d="M8.08333 5H3.91667C3.80616 5 3.70018 5.02634 3.62204 5.07322C3.5439 5.12011 3.5 5.1837 3.5 5.25C3.5 5.3163 3.5439 5.37989 3.62204 5.42678C3.70018 5.47366 3.80616 5.5 3.91667 5.5H8.08333C8.19384 5.5 8.29982 5.47366 8.37796 5.42678C8.4561 5.37989 8.5 5.3163 8.5 5.25C8.5 5.1837 8.4561 5.12011 8.37796 5.07322C8.29982 5.02634 8.19384 5 8.08333 5Z" fill="#DAA930"/>
<path d="M8.08333 6.5H3.91667C3.80616 6.5 3.70018 6.55268 3.62204 6.64645C3.5439 6.74021 3.5 6.86739 3.5 7C3.5 7.13261 3.5439 7.25979 3.62204 7.35355C3.70018 7.44732 3.80616 7.5 3.91667 7.5H8.08333C8.19384 7.5 8.29982 7.44732 8.37796 7.35355C8.4561 7.25979 8.5 7.13261 8.5 7C8.5 6.86739 8.4561 6.74021 8.37796 6.64645C8.29982 6.55268 8.19384 6.5 8.08333 6.5Z" fill="#DAA930"/>
</svg>
