<svg width="267" height="239" viewBox="0 0 267 239" fill="none" xmlns="http://www.w3.org/2000/svg">
<path fill-rule="evenodd" clip-rule="evenodd" d="M81.5883 77.2054C81.4643 77.2054 81.3637 77.306 81.3637 77.4301V84.31L78.7301 81.6753C78.6424 81.5876 78.5002 81.5876 78.4125 81.6753C78.3248 81.7631 78.3248 81.9054 78.4125 81.9931L81.0462 84.6279H74.1692C74.0452 84.6279 73.9446 84.7285 73.9446 84.8526C73.9446 84.9767 74.0452 85.0773 74.1692 85.0773H81.046L78.4125 87.7119C78.3248 87.7997 78.3248 87.9419 78.4125 88.0297C78.5002 88.1175 78.6424 88.1175 78.7301 88.0297L81.3637 85.395V92.275C81.3637 92.3991 81.4643 92.4997 81.5883 92.4997C81.7124 92.4997 81.8129 92.3991 81.8129 92.275V85.395L84.4465 88.0297C84.5342 88.1175 84.6765 88.1175 84.7642 88.0297C84.8518 87.942 84.8518 87.7997 84.7642 87.7119L82.1306 85.0773H89.0073C89.1314 85.0773 89.2318 84.9767 89.2318 84.8526C89.2318 84.7285 89.1314 84.6279 89.0073 84.6279H82.1304L84.7642 81.9931C84.8518 81.9053 84.8518 81.7631 84.7642 81.6753C84.6765 81.5876 84.5342 81.5876 84.4465 81.6753L81.8129 84.3101V77.4301C81.8129 77.306 81.7124 77.2054 81.5883 77.2054ZM117.816 113.532C117.816 113.408 117.916 113.307 118.04 113.307C118.164 113.307 118.265 113.408 118.265 113.532V124.374L122.523 120.114C122.611 120.026 122.753 120.026 122.841 120.114C122.928 120.202 122.928 120.344 122.841 120.432L118.582 124.692H129.569C129.693 124.692 129.794 124.792 129.794 124.916C129.794 125.04 129.693 125.141 129.569 125.141H118.582L122.841 129.401C122.928 129.489 122.928 129.631 122.841 129.719C122.753 129.807 122.611 129.807 122.523 129.719L118.265 125.459V136.451C118.265 136.575 118.164 136.676 118.04 136.676C117.916 136.676 117.816 136.575 117.816 136.451V125.459L113.557 129.719C113.47 129.807 113.327 129.807 113.24 129.719C113.152 129.631 113.152 129.489 113.24 129.401L117.498 125.141H106.661C106.537 125.141 106.436 125.04 106.436 124.916C106.436 124.792 106.537 124.692 106.661 124.692H117.498L113.24 120.432C113.152 120.344 113.152 120.202 113.24 120.114C113.327 120.026 113.47 120.026 113.557 120.114L117.816 124.374V113.532Z" fill="#CDB1AA"/>
<path fill-rule="evenodd" clip-rule="evenodd" d="M37.4361 236.641L43.9272 236.565L50.8377 231.018L43.9811 231.099H43.9724C43.575 231.099 43.2505 230.777 43.2459 230.377C43.2413 229.972 43.5627 229.642 43.9641 229.637L52.6863 229.535L60.6391 223.152L54.8608 223.219H54.8522C54.4547 223.219 54.1303 222.897 54.1258 222.497C54.1212 222.093 54.4426 221.762 54.8439 221.757L62.4877 221.668L68.0939 217.168L62.2592 217.236H62.2506C61.8531 217.236 61.5287 216.915 61.5241 216.514C61.5195 216.111 61.8409 215.779 62.2422 215.774L69.9426 215.685L74.4544 212.062L68.7871 212.13H68.7785C68.381 212.13 68.0566 211.808 68.0519 211.406C68.0473 211.003 68.3688 210.673 68.77 210.668L76.3031 210.579L81.3708 206.511L75.1699 206.584H75.1613C74.7638 206.584 74.4394 206.262 74.4348 205.862C74.4301 205.457 74.7516 205.127 75.1529 205.122L83.2194 205.028L87.8645 201.3L80.8275 201.382H80.8187C80.4214 201.382 80.0968 201.06 80.0922 200.66C80.0876 200.255 80.4092 199.925 80.8105 199.92L92.9315 199.778H92.9401C93.0738 199.778 93.1986 199.814 93.3064 199.879H210.411C210.52 199.814 210.644 199.778 210.778 199.778H210.786L222.908 199.92C223.31 199.925 223.63 200.255 223.625 200.66C223.622 201.06 223.296 201.382 222.9 201.382H222.89L219.543 201.342L223.432 205.063L228.564 205.122C228.966 205.127 229.288 205.457 229.283 205.862C229.278 206.262 228.954 206.584 228.556 206.584H228.548L224.98 206.543L229.224 210.6L234.948 210.668C235.349 210.673 235.671 211.003 235.666 211.406C235.661 211.808 235.337 212.13 234.939 212.13H234.931L230.771 212.08L234.549 215.693L241.476 215.774C241.878 215.779 242.2 216.111 242.195 216.514C242.19 216.915 241.864 217.236 241.468 217.236H241.46L236.097 217.173L240.792 221.663L248.873 221.757C249.275 221.762 249.597 222.093 249.592 222.497C249.587 222.897 249.263 223.219 248.865 223.219H248.857L242.34 223.143L249.001 229.512L259.755 229.637C260.156 229.642 260.477 229.972 260.472 230.377C260.467 230.777 260.143 231.099 259.745 231.099H259.737L250.549 230.992L256.335 236.524L266.282 236.641C266.683 236.646 267.005 236.977 267 237.382C266.995 237.781 266.672 238.103 266.274 238.103H266.265L257.883 238.006L257.928 238.049H42.1019L37.4532 238.103H37.4445C37.0471 238.103 36.7227 237.781 36.718 237.382C36.7133 236.977 37.0348 236.646 37.4361 236.641Z" fill="#FFF5EE"/>
<path fill-rule="evenodd" clip-rule="evenodd" d="M158.633 181.607L222.399 181.056L217.382 146.477C217.106 144.574 215.474 143.158 213.548 143.152L163.837 142.952C162.759 142.947 161.663 143.474 160.642 144.244C159.622 145.015 159.107 145.943 159.107 145.943L158.633 181.607Z" fill="#78BFB1"/>
<path fill-rule="evenodd" clip-rule="evenodd" d="M154.962 142.62C156.315 142.62 157.569 143.325 158.268 144.48L159.128 145.9L158.656 181.441L97.015 180.892L101.513 146C101.762 144.067 103.413 142.62 105.367 142.62H154.962Z" fill="#78BFB1"/>
<path fill-rule="evenodd" clip-rule="evenodd" d="M218.973 158.763L240.751 166.965C242.256 167.532 243.265 168.964 243.297 170.576L243.873 199.5C243.898 200.741 242.904 201.76 241.668 201.76H77.9105C76.6297 201.76 75.618 200.668 75.7102 199.385L77.9042 168.832C78.0006 167.487 78.7743 166.286 79.9552 165.647L100.506 154.514L97.1907 181.021H222.137L218.973 158.763Z" fill="#78BFB1"/>
<path fill-rule="evenodd" clip-rule="evenodd" d="M233.755 201.594H228.18L232.042 214.382C232.207 214.931 232.708 215.306 233.274 215.306C234.378 215.306 235.233 214.331 235.105 213.221L233.755 201.594Z" fill="#CDB1AA"/>
<path fill-rule="evenodd" clip-rule="evenodd" d="M87.1449 201.594H92.7197L88.8571 214.382C88.6916 214.931 88.1919 215.306 87.6256 215.306C86.5219 215.306 85.6656 214.331 85.7944 213.221L87.1449 201.594Z" fill="#CDB1AA"/>
<path fill-rule="evenodd" clip-rule="evenodd" d="M201.899 161.782C201.16 161.782 200.562 161.08 200.562 160.213C200.562 159.345 201.16 158.643 201.899 158.643C202.637 158.643 203.235 159.345 203.235 160.213C203.235 161.08 202.637 161.782 201.899 161.782ZM180.361 161.782C179.622 161.782 179.024 161.08 179.024 160.213C179.024 159.345 179.622 158.643 180.361 158.643C181.098 158.643 181.697 159.345 181.697 160.213C181.697 161.08 181.098 161.782 180.361 161.782ZM140.036 160.213C140.036 161.08 140.634 161.782 141.372 161.782C142.11 161.782 142.708 161.08 142.708 160.213C142.708 159.345 142.11 158.643 141.372 158.643C140.634 158.643 140.036 159.345 140.036 160.213ZM119.991 161.782C119.253 161.782 118.655 161.08 118.655 160.213C118.655 159.345 119.253 158.643 119.991 158.643C120.729 158.643 121.327 159.345 121.327 160.213C121.327 161.08 120.729 161.782 119.991 161.782Z" fill="#2F6858"/>
<path fill-rule="evenodd" clip-rule="evenodd" d="M206.549 151.775C207.02 151.696 207.511 151.681 208.01 151.739L210.023 152.132L219.025 163.542L233.597 156.723C234.616 156.984 235.501 157.54 236.17 158.289L218.288 166.658L206.549 151.775ZM202.233 156.204L202.137 157.02L216.674 175.314L237.087 165.828L237.431 162.914L217.411 172.218L202.988 154.065C202.591 154.694 202.325 155.419 202.233 156.204ZM201.446 162.723L201.034 166.223L214.632 183.341L236.142 173.343L236.486 170.432L215.367 180.246L201.446 162.723ZM207.993 185.756L199.931 175.522L200.342 172.008L211.748 186.489L207.993 185.756ZM235.539 178.461L216.317 187.558L220.475 188.377L235.199 181.411L235.539 178.461ZM219.58 154.008L215.845 153.278L220.298 158.945L227.504 155.56L223.369 154.75L221.027 155.85L219.58 154.008Z" fill="#5BA092"/>
<path fill-rule="evenodd" clip-rule="evenodd" d="M204.181 184.825L228.968 189.663C231.811 189.997 234.385 187.957 234.719 185.107L237.395 162.181C237.728 159.33 235.695 156.748 232.852 156.414L208.064 151.576C205.221 151.24 202.648 153.282 202.314 156.132L199.637 179.058C199.304 181.909 201.338 184.491 204.181 184.825Z" fill="#F4F0F0"/>
<path fill-rule="evenodd" clip-rule="evenodd" d="M101.875 175.507C103.264 175.507 104.39 174.347 104.39 172.917C104.39 171.486 103.264 170.328 101.875 170.328C100.486 170.328 99.3604 171.486 99.3604 172.917C99.3604 174.347 100.486 175.507 101.875 175.507ZM107.044 185.129C108.186 185.523 109.475 184.768 109.924 183.441C110.371 182.116 109.809 180.722 108.667 180.329C107.525 179.934 106.236 180.691 105.788 182.017C105.34 183.342 105.902 184.736 107.044 185.129ZM92.7204 182.718C91.9764 182.718 91.3002 182.995 90.7967 183.445C90.5634 182.813 90.4339 182.128 90.4339 181.411V168.129C90.4339 166.676 90.9642 165.337 91.8472 164.31C92.0781 166.101 93.5741 167.483 95.3865 167.483C97.3589 167.483 98.9578 165.846 98.9578 163.828C98.9578 163.165 98.7854 162.546 98.4854 162.01L106.508 161.117C106.507 161.156 106.503 161.196 106.503 161.237C106.503 162.556 107.404 163.624 108.515 163.624C109.626 163.624 110.527 162.556 110.527 161.237C110.527 161.042 110.505 160.856 110.469 160.674L112.083 160.496C115.501 160.114 118.49 162.817 118.49 166.289V167.777C118.241 167.718 117.984 167.687 117.72 167.687C115.526 167.687 113.747 169.824 113.747 172.461C113.747 175.097 115.526 177.233 117.72 177.233C117.984 177.233 118.241 177.202 118.49 177.144V179.571C118.49 182.543 116.275 185.039 113.35 185.364L96.8412 187.204C96.1776 187.279 95.5305 187.234 94.918 187.094C95.3052 186.633 95.5375 186.046 95.5375 185.41C95.5375 183.924 94.276 182.718 92.7204 182.718Z" fill="#F3705A"/>
<path fill-rule="evenodd" clip-rule="evenodd" d="M108.515 163.625C107.403 163.625 106.503 162.556 106.503 161.238C106.503 161.21 106.504 161.183 106.506 161.155H106.506C106.506 161.142 106.507 161.129 106.508 161.117L110.468 160.674C110.505 160.856 110.527 161.043 110.527 161.238C110.527 162.556 109.626 163.625 108.515 163.625ZM117.72 167.687C115.525 167.687 113.746 169.825 113.746 172.461C113.746 175.098 115.525 177.234 117.72 177.234C117.983 177.234 118.24 177.202 118.489 177.144V167.778C118.24 167.718 117.983 167.687 117.72 167.687ZM104.39 172.917C104.39 171.486 103.264 170.328 101.875 170.328C100.486 170.328 99.36 171.486 99.36 172.917C99.36 174.348 100.486 175.507 101.875 175.507C103.264 175.507 104.39 174.348 104.39 172.917ZM109.923 183.442C110.371 182.115 109.809 180.723 108.667 180.329C107.525 179.935 106.235 180.691 105.787 182.018C105.339 183.343 105.902 184.737 107.044 185.13C108.186 185.523 109.475 184.768 109.923 183.442ZM90.7962 183.445C91.2997 182.996 91.9761 182.718 92.7201 182.718C94.2757 182.718 95.537 183.924 95.537 185.411C95.537 186.047 95.3046 186.633 94.9175 187.094C93.0275 186.656 91.4712 185.275 90.7962 183.445ZM91.8465 164.31C92.0775 166.101 93.5737 167.484 95.386 167.484C97.3585 167.484 98.9575 165.847 98.9575 163.828C98.9575 163.166 98.7849 162.546 98.4849 162.011L95.5738 162.335C94.0783 162.501 92.7698 163.237 91.8465 164.31Z" fill="#E74B33"/>
<path fill-rule="evenodd" clip-rule="evenodd" d="M159.177 145.758C159.307 145.758 159.413 145.864 159.413 145.993V180.947L199.367 181.135C199.497 181.137 199.602 181.242 199.602 181.371C199.601 181.502 199.495 181.606 199.365 181.606L115.587 181.209C115.457 181.209 115.351 181.104 115.352 180.973C115.353 180.843 115.459 180.738 115.589 180.738L158.941 180.943V145.993C158.941 145.864 159.047 145.758 159.177 145.758Z" fill="#2F6858"/>
<path fill-rule="evenodd" clip-rule="evenodd" d="M115.392 188.569C112.151 187.513 105.398 186.837 102.149 197.72C102.149 197.72 92.9452 197.678 87.7329 198.395C81.6495 199.232 81.4935 202 78.9941 203.321C73.1327 206.419 68.8313 206.761 68.8107 207.437C68.7472 209.536 77.4741 206.991 78.543 206.635C78.543 206.635 76.9049 211.159 79.1285 221.444C79.208 221.812 79.5449 222.067 79.92 222.041L80.9993 221.968C81.3961 221.941 81.7041 221.611 81.7041 221.213V215.479C81.7041 215.189 81.9472 214.959 82.236 214.975L82.2531 214.976C82.5079 214.99 82.7119 215.192 82.728 215.447L83.0973 221.266C83.1225 221.665 83.4529 221.975 83.852 221.975H84.6826C85.0888 221.975 85.4225 221.654 85.4385 221.248L85.797 212.122C85.797 212.122 98.5181 215.167 103.662 215.001L104.424 222.118C104.463 222.483 104.759 222.768 105.126 222.792L105.517 222.818C105.883 222.843 106.214 222.6 106.302 222.243L107.821 216.018C107.879 215.781 108.097 215.62 108.34 215.634L108.415 215.639C108.67 215.654 108.873 215.856 108.889 216.111L109.263 222.111C109.287 222.48 109.572 222.778 109.939 222.817L110.705 222.898C111.099 222.939 111.459 222.668 111.528 222.277L115 202.712C115 202.712 122.798 196.752 119.021 191.236C118.151 189.964 116.856 189.046 115.392 188.569Z" fill="#9B7368"/>
<path fill-rule="evenodd" clip-rule="evenodd" d="M96.2987 208.048C96.43 206.846 97.7771 206.195 98.8178 206.811C100.211 207.635 101.893 209.098 99.5408 210.497C97.1675 211.91 96.106 209.814 96.2987 208.048Z" fill="#F7D3BB"/>
<path fill-rule="evenodd" clip-rule="evenodd" d="M111.552 190.933C111.678 191.487 112.071 191.87 112.431 191.789C112.791 191.707 112.981 191.191 112.855 190.637C112.73 190.083 112.336 189.7 111.977 189.781C111.617 189.863 111.427 190.378 111.552 190.933Z" fill="#010101"/>
<path fill-rule="evenodd" clip-rule="evenodd" d="M115.051 193.376C115.102 193.283 115.218 193.248 115.312 193.299C115.318 193.302 115.982 193.657 116.611 193.441C116.974 193.317 117.26 193.02 117.461 192.56L117.496 192.48L116.566 191.449C116.453 191.323 116.524 191.123 116.691 191.097L117.845 190.919C118 190.896 118.126 191.041 118.08 191.191L117.708 192.407L117.793 192.524C117.802 192.536 118.695 193.736 119.95 193.252C120.048 193.214 120.16 193.264 120.199 193.363C120.237 193.462 120.187 193.573 120.088 193.611C118.946 194.051 118.061 193.36 117.682 192.977C117.445 193.393 117.128 193.671 116.736 193.805C116.546 193.871 116.355 193.895 116.175 193.895C115.612 193.895 115.153 193.651 115.128 193.637C115.035 193.586 115 193.469 115.051 193.376Z" fill="#010101"/>
<path fill-rule="evenodd" clip-rule="evenodd" d="M108.484 200.974C106.923 203.097 104.658 195.764 103.961 193.318C104.959 191.545 106.091 190.325 107.264 189.507C107.825 191.23 110.132 198.733 108.484 200.974Z" fill="#6D4038"/>
<path fill-rule="evenodd" clip-rule="evenodd" d="M92.517 203.819C89.3265 208.817 83.9622 202.07 84.4334 199.212C85.296 198.867 86.3636 198.581 87.7314 198.393C88.9817 198.221 90.4619 198.093 91.9893 197.997C93.3865 198.947 94.5047 200.705 92.517 203.819Z" fill="#F7D3BB"/>
<path fill-rule="evenodd" clip-rule="evenodd" d="M119.689 196.569C120.666 197.697 123.022 200.854 121.638 203.702C120.335 206.383 118.785 201.854 118.109 199.492C118.746 198.627 119.331 197.634 119.689 196.569Z" fill="#6D4038"/>
<path fill-rule="evenodd" clip-rule="evenodd" d="M204.392 164.745L224.674 163.073L226.222 187.886H190.423C190.423 187.886 182.111 188.084 181.604 188.345C180.703 188.808 178.875 190.864 178.115 194.836C177.686 197.075 177.356 198.878 177.081 200.378C176.153 205.444 175.858 207.051 174.554 210.322C172.943 214.363 165.911 220.59 164.093 221.216C164.068 221.224 164.043 221.233 164.017 221.242C163.88 221.289 163.742 221.336 163.607 221.391C163.188 221.559 162.3 221.783 161.258 221.26C159.805 220.531 161.113 219.365 161.113 219.365C161.113 219.365 159.369 219.802 158.594 219.025C157.819 218.247 158.344 217.786 158.344 217.786C158.344 217.786 157.533 217.887 157.263 217.514C156.992 217.141 157.297 216.463 157.297 216.463C157.297 216.463 155.674 216.429 155.877 215.276C155.991 214.632 158.175 212.344 160.1 210.33C161.618 208.741 162.974 207.321 163.022 207.013C163.097 206.529 163.332 205.208 163.686 203.361C161.131 203.425 149.628 203.7 147.063 203.51C144.173 203.295 142.781 202.221 142.46 200.61C142.139 198.999 144.28 199.213 144.28 199.213L157.113 194.284C157.113 194.284 159.543 183.845 163.947 170.228C167.591 158.96 173.541 159.391 178.975 159.786L179.014 159.789C184.695 160.201 201.379 162.96 201.379 162.96L204.392 164.745Z" fill="#8D574D"/>
<path fill-rule="evenodd" clip-rule="evenodd" d="M160.981 216.533C160.699 215.357 160.506 214.195 160.445 213.117C160.397 212.258 160.434 211.483 160.568 210.815C160.622 210.545 160.447 210.282 160.177 210.227C159.908 210.173 159.646 210.349 159.592 210.619C159.441 211.379 159.399 212.236 159.452 213.173C159.517 214.319 159.719 215.537 160.014 216.767C160.141 217.296 160.277 217.791 160.414 218.24C160.461 218.397 160.506 218.538 160.546 218.66C160.57 218.734 160.588 218.786 160.598 218.815C160.722 219.168 161.174 219.264 161.429 218.992C162.39 217.967 163.553 217.209 164.877 216.688C166.894 215.895 169.035 215.715 170.899 215.882C171.024 215.894 171.134 215.905 171.227 215.917C171.282 215.924 171.317 215.929 171.333 215.932C171.605 215.975 171.859 215.789 171.903 215.517C171.946 215.245 171.761 214.989 171.489 214.945C171.394 214.93 171.224 214.908 170.988 214.887C168.983 214.707 166.697 214.9 164.515 215.758C163.319 216.229 162.237 216.878 161.298 217.725C161.19 217.355 161.082 216.955 160.981 216.533Z" fill="#E74B33"/>
<path fill-rule="evenodd" clip-rule="evenodd" d="M145.184 198.461C144.91 198.482 144.704 198.722 144.725 198.997C144.745 199.272 144.984 199.478 145.258 199.458C145.259 199.458 145.266 199.457 145.279 199.457C145.459 199.45 145.736 199.46 146.108 199.502C146.677 199.567 147.335 199.695 148.08 199.9C150.147 200.469 152.53 201.531 155.208 203.208C155.441 203.354 155.748 203.282 155.893 203.048C156.038 202.814 155.967 202.506 155.734 202.36C152.976 200.633 150.505 199.531 148.343 198.936C147.548 198.718 146.84 198.581 146.221 198.51C145.799 198.462 145.471 198.45 145.242 198.458C145.216 198.459 145.196 198.46 145.184 198.461Z" fill="#E74B33"/>
<path fill-rule="evenodd" clip-rule="evenodd" d="M163.61 221.375C163.77 221.311 163.932 221.257 164.094 221.201C165.902 220.578 172.897 214.379 174.5 210.356C174.781 209.649 174.992 209.097 175.157 208.608L175.24 208.689C176.225 209.65 176.329 211.19 175.479 212.27C173.457 214.838 169.762 219.338 167.016 221.576C166.041 222.37 164.647 222.398 163.645 221.638L163.477 221.424C163.525 221.408 163.57 221.391 163.61 221.375Z" fill="#F3705A"/>
<path fill-rule="evenodd" clip-rule="evenodd" d="M163.883 202.417C163.695 203.383 163.532 204.242 163.4 204.957H145.048C144.189 204.957 143.493 204.258 143.493 203.396V202.417H163.883Z" fill="#F3705A"/>
<path fill-rule="evenodd" clip-rule="evenodd" d="M202.596 161.169L202.271 162.964L185.686 159.717L191.248 187.885C191.248 187.885 226.616 189.788 228.309 187.557C236.44 172.893 228.983 159.262 228.983 161.169H202.596Z" fill="#5BA092"/>
<mask id="mask0_4600_21905" style="mask-type:alpha" maskUnits="userSpaceOnUse" x="185" y="159" width="48" height="30">
<path fill-rule="evenodd" clip-rule="evenodd" d="M202.6 161.169L202.275 162.964L185.69 159.717L191.252 187.885C191.252 187.885 226.62 189.788 228.312 187.557C236.444 172.893 228.987 159.262 228.987 161.169H202.6Z" fill="white"/>
</mask>
<g mask="url(#mask0_4600_21905)">
<path fill-rule="evenodd" clip-rule="evenodd" d="M223.192 176.21C221.772 176.973 219.877 177.277 217.953 177.125C215.983 174.877 213.632 172.914 210.941 171.351C211.246 168.598 211.105 165.818 210.519 163.089C209.877 160.097 208.774 157.872 206.782 156.176C205.979 155.491 205.168 155.092 204.264 155.062C203.188 155.026 202.13 155.578 201.586 156.391C201.156 157.035 201.025 157.722 201.026 158.755C201.032 162.179 202.127 165.573 204.147 168.626C201.126 167.97 197.989 167.982 195.316 168.741C194.206 166.591 192.705 165.095 190.572 164.382C187.998 163.521 184.71 164.003 182.043 165.435C179.786 166.647 178.214 168.34 177.822 170.176C177.358 172.343 178.563 174.661 180.839 176.376C182.413 177.562 184.426 178.476 186.918 179.214C186.329 183.511 187.042 187.813 189.046 191.697C191.203 195.878 194.901 198.928 199.553 199.677C203.872 200.373 208.695 198.959 212.315 196.245C214.276 196.773 216.326 197.017 218.343 196.925C220.431 196.831 222.455 196.373 224.326 195.626C224.303 196.762 224.142 197.701 223.795 198.593C222.926 200.827 220.616 202.543 217.591 203.092C217.409 203.125 217.287 203.3 217.32 203.483C217.353 203.666 217.528 203.788 217.711 203.754C220.954 203.166 223.462 201.303 224.422 198.837C224.832 197.784 225.001 196.686 225.002 195.342C228.837 193.636 231.958 190.709 233.553 187.243C235.088 183.908 235.067 180.577 233.153 177.983C232.414 176.981 231.427 176.331 230.269 176.286C228.977 176.237 227.953 176.868 226.813 178.088C225.178 179.839 223.624 181.63 222.155 183.459C221.185 181.461 219.978 179.569 218.553 177.831C220.371 177.883 222.132 177.544 223.51 176.803C225.102 175.948 226.117 174.667 226.652 173.013C226.778 172.623 226.877 172.219 226.95 171.796C228.219 172.076 229.532 172.152 230.859 171.998C231.043 171.976 231.176 171.809 231.154 171.625C231.133 171.44 230.966 171.307 230.782 171.329C229.514 171.476 228.259 171.4 227.044 171.127C227.135 170.299 227.142 169.399 227.084 168.397C226.947 166.024 226.498 162.834 225.692 160.135C224.418 155.868 222.479 153.578 219.713 154.26C218.127 154.651 216.627 156.368 216.271 157.853C215.599 160.654 216.975 164.446 219.688 167.431C221.549 169.478 223.829 170.944 226.299 171.634C225.959 173.734 225.009 175.233 223.192 176.21ZM217.623 177.771C219.265 179.682 220.63 181.797 221.69 184.043C220.945 184.986 220.223 185.938 219.524 186.899C219.277 187.239 219.051 187.553 218.66 188.1C218.524 188.291 218.453 188.39 218.387 188.482C215.819 192.075 214.355 193.81 212.173 195.507C209.869 194.846 207.702 193.78 205.889 192.403C202.91 190.139 200.824 187.106 199.539 183.489C199.237 182.638 198.996 181.843 198.748 180.866C199.27 180.856 199.789 180.834 200.304 180.8C203.574 180.583 206.225 179.839 207.952 178.438C209.097 177.51 209.806 176.362 210.273 174.847C212.079 176.113 213.903 176.996 215.87 177.472C216.447 177.612 217.035 177.712 217.623 177.771ZM207.529 177.915C205.932 179.21 203.404 179.919 200.26 180.128C199.705 180.165 199.146 180.187 198.583 180.195C198.407 179.46 198.221 178.614 198.002 177.58C197.98 177.475 197.98 177.475 197.958 177.369C197.105 173.334 196.609 171.507 195.615 169.357C198.363 168.603 201.632 168.666 204.723 169.454C205.997 171.194 207.58 172.808 209.438 174.234C209.524 174.3 209.61 174.365 209.696 174.429C209.264 175.936 208.608 177.039 207.529 177.915ZM216.935 177.001C216.631 176.951 216.328 176.89 216.028 176.817C214.08 176.346 212.269 175.452 210.464 174.157C210.541 173.846 210.61 173.521 210.673 173.18C210.74 172.813 210.799 172.446 210.85 172.078C213.146 173.445 215.184 175.112 216.935 177.001ZM198.906 183.715C200.233 187.449 202.393 190.592 205.482 192.939C207.233 194.269 209.297 195.317 211.497 196.007C208.068 198.419 203.626 199.651 199.66 199.012C195.235 198.3 191.708 195.391 189.643 191.387C187.719 187.657 187.024 183.529 187.571 179.401C187.888 179.488 188.211 179.572 188.542 179.655C191.742 180.449 194.95 180.869 198.056 180.872C198.323 181.942 198.579 182.795 198.906 183.715ZM218.934 188.874C219 188.782 219.07 188.683 219.207 188.492C219.597 187.946 219.821 187.634 220.067 187.296C220.694 186.434 221.34 185.579 222.003 184.733C223.311 187.711 224.093 190.903 224.29 194.145C224.306 194.407 224.317 194.658 224.323 194.901C222.452 195.679 220.416 196.157 218.313 196.253C216.534 196.334 214.728 196.144 212.984 195.721C215.018 194.07 216.487 192.297 218.934 188.874ZM224.961 194.104C224.752 190.665 223.901 187.28 222.474 184.137C223.993 182.233 225.604 180.369 227.304 178.548C228.323 177.457 229.196 176.919 230.244 176.959C231.17 176.995 231.984 177.532 232.612 178.383C234.364 180.757 234.383 183.831 232.942 186.961C231.453 190.198 228.557 192.954 224.987 194.609C224.98 194.445 224.972 194.276 224.961 194.104ZM181.243 175.838C179.157 174.266 178.079 172.191 178.479 170.317C178.823 168.704 180.261 167.156 182.361 166.029C184.876 164.678 187.976 164.224 190.359 165.021C192.27 165.66 193.634 166.996 194.663 168.945C194.189 169.107 193.732 169.294 193.295 169.507C189.731 171.245 187.719 174.452 187.021 178.542C184.641 177.83 182.726 176.955 181.243 175.838ZM201.699 158.754C201.697 157.843 201.806 157.272 202.144 156.766C202.56 156.145 203.4 155.707 204.242 155.735C204.969 155.759 205.649 156.094 206.346 156.689C208.209 158.275 209.248 160.37 209.862 163.231C210.412 165.794 210.56 168.403 210.303 170.991C209.537 170.572 208.744 170.184 207.925 169.832C207.023 169.443 206.084 169.119 205.126 168.863C202.91 165.762 201.704 162.269 201.699 158.754ZM210.011 173.058C209.969 173.287 209.924 173.508 209.876 173.722C209.866 173.714 209.857 173.707 209.847 173.699C208.294 172.507 206.94 171.182 205.806 169.762C206.437 169.961 207.057 170.19 207.659 170.45C208.544 170.832 209.398 171.254 210.221 171.715C210.163 172.163 210.093 172.611 210.011 173.058ZM197.3 177.509C197.322 177.614 197.322 177.614 197.345 177.72C197.55 178.688 197.726 179.493 197.892 180.198C194.894 180.181 191.796 179.768 188.704 179.001C188.351 178.913 188.007 178.823 187.671 178.73C188.324 174.801 190.221 171.755 193.589 170.113C194.026 169.899 194.486 169.713 194.965 169.554C195.958 171.681 196.446 173.468 197.3 177.509ZM220.185 166.978C217.61 164.144 216.311 160.567 216.924 158.01C217.225 156.756 218.55 155.24 219.873 154.914C222.158 154.351 223.866 156.367 225.048 160.328C225.836 162.968 226.279 166.11 226.413 168.436C226.466 169.351 226.46 170.191 226.386 170.958C224.076 170.292 221.94 168.908 220.185 166.978Z" fill="#2F6858"/>
</g>
<path fill-rule="evenodd" clip-rule="evenodd" d="M201.294 162.876C201.342 162.792 201.45 162.763 201.535 162.811L204.307 164.417C204.391 164.466 204.42 164.574 204.372 164.659C204.323 164.744 204.215 164.773 204.131 164.724L201.359 163.118C201.274 163.07 201.245 162.961 201.294 162.876ZM163.611 203.402C163.592 203.498 163.655 203.591 163.751 203.61C163.846 203.628 163.939 203.565 163.957 203.469C166.195 191.758 168.804 180.89 170.823 176.766C174.044 170.188 178.168 168.454 186.981 169.799C187.077 169.813 187.167 169.747 187.182 169.65C187.196 169.553 187.13 169.463 187.034 169.448C178.079 168.082 173.801 169.881 170.506 176.61C168.467 180.775 165.856 191.652 163.611 203.402ZM157.235 216.484C157.208 216.578 157.261 216.676 157.355 216.703C157.448 216.731 157.546 216.677 157.573 216.583C157.575 216.576 157.578 216.566 157.582 216.553C157.585 216.543 157.589 216.531 157.594 216.517C157.612 216.462 157.633 216.401 157.659 216.335C157.731 216.147 157.817 215.959 157.918 215.785C158.125 215.425 158.361 215.175 158.613 215.08C158.705 215.045 158.751 214.943 158.717 214.852C158.682 214.76 158.581 214.713 158.49 214.748C158.145 214.878 157.857 215.183 157.612 215.608C157.502 215.799 157.408 216.004 157.33 216.208C157.302 216.279 157.279 216.346 157.259 216.406C157.253 216.423 157.249 216.438 157.245 216.451C157.24 216.465 157.237 216.476 157.235 216.484ZM158.412 218.03C158.317 218.009 158.257 217.914 158.279 217.819C158.282 217.803 158.289 217.774 158.299 217.735C158.316 217.671 158.336 217.6 158.36 217.523C158.427 217.305 158.51 217.086 158.61 216.88C158.805 216.477 159.038 216.172 159.324 216.008C159.408 215.96 159.516 215.989 159.564 216.074C159.612 216.159 159.583 216.268 159.498 216.316C159.287 216.438 159.093 216.69 158.927 217.035C158.836 217.223 158.759 217.426 158.696 217.629C158.674 217.7 158.655 217.766 158.64 217.825C158.631 217.86 158.625 217.884 158.623 217.896C158.601 217.992 158.507 218.052 158.412 218.03ZM181.255 188.228C181.273 188.325 181.366 188.387 181.461 188.369C181.557 188.35 181.619 188.257 181.601 188.161L181.265 186.413C181.246 186.317 181.154 186.254 181.058 186.273C180.963 186.292 180.9 186.385 180.919 186.481L181.255 188.228Z" fill="#9B7368"/>
<path fill-rule="evenodd" clip-rule="evenodd" d="M207.771 111.38C207.771 111.38 206.11 114.698 203.022 115.721C201.976 116.067 201.003 116.614 200.226 117.398C198.803 118.834 197.136 121.435 197.339 125.642C197.685 132.85 199.305 133.137 195.027 134.827C189.252 137.107 190.519 147.789 198.379 149.359C201.969 150.076 205.629 150.973 208.98 152.472C213.023 154.281 217.419 158.39 222.058 156.279C225.967 154.501 227.469 150.043 226.612 146.036C226.105 143.667 225.014 141.471 223.924 139.309C222.864 137.206 222.138 135.123 224.17 133.375C225.27 132.43 226.697 131.997 227.62 130.828C229.643 128.266 227.296 124.028 227.277 121.166C227.188 107.576 223.284 108.959 223.284 108.959L215.14 106.518L207.771 111.38Z" fill="#010101"/>
<path fill-rule="evenodd" clip-rule="evenodd" d="M206.398 116.146C206.453 116.146 206.508 116.147 206.563 116.151C206.704 116.16 206.824 116.05 206.822 115.907C206.821 115.867 206.82 115.826 206.82 115.786C206.82 111.215 211.322 107.51 216.876 107.51C222.43 107.51 226.932 111.215 226.932 115.786C226.932 115.829 226.932 115.872 226.931 115.915C226.928 116.059 227.05 116.171 227.193 116.157C227.274 116.15 227.356 116.146 227.44 116.146C228.729 116.146 229.775 117.029 229.775 118.119C229.775 119.208 228.729 120.092 227.44 120.092C226.916 120.092 226.434 119.945 226.045 119.699C225.923 119.622 225.766 119.654 225.686 119.774C224.332 121.796 221.981 123.301 219.178 123.841C218.936 123.888 218.767 124.109 218.781 124.356L219.047 129.023H214.705L214.971 124.356C214.985 124.109 214.816 123.888 214.574 123.841C211.787 123.304 209.447 121.813 208.09 119.809C208.012 119.694 207.861 119.659 207.742 119.73C207.362 119.957 206.899 120.092 206.398 120.092C205.108 120.092 204.062 119.208 204.062 118.119C204.062 117.029 205.108 116.146 206.398 116.146ZM206.822 115.907C206.821 115.867 206.82 115.826 206.82 115.786C206.82 111.215 211.322 107.51 216.876 107.51C222.43 107.51 226.932 111.215 226.932 115.786C226.932 115.829 226.932 115.872 226.931 115.915C226.93 115.973 226.949 116.025 226.982 116.066L226.984 116.121C226.984 116.121 218.741 115.158 217.436 110.618C217.436 110.618 211.355 116.87 206.563 116.151C206.704 116.16 206.824 116.05 206.822 115.907Z" fill="#8D574D"/>
<path fill-rule="evenodd" clip-rule="evenodd" d="M203.55 109.306C205.157 103.314 214.192 103.113 218.208 104.055C222.224 104.997 229.793 105.925 225.771 109.104C222.023 112.066 201.944 115.297 203.55 109.306Z" fill="#2F6858"/>
<path fill-rule="evenodd" clip-rule="evenodd" d="M214.864 107.063C214.741 107.151 214.576 107.147 214.458 107.053C214.1 106.765 213.312 106.097 213.613 106.022C213.998 105.925 215.125 105.996 215.139 106.517C215.147 106.793 215.002 106.963 214.864 107.063Z" fill="#5BA092"/>
<path fill-rule="evenodd" clip-rule="evenodd" d="M222.6 117.835C222.696 117.932 222.851 117.932 222.947 117.835C223.042 117.738 223.042 117.581 222.947 117.485C222.824 117.361 222.607 117.183 222.31 117.005C221.158 116.318 219.873 116.293 218.629 117.368C218.526 117.457 218.514 117.613 218.602 117.717C218.69 117.821 218.844 117.834 218.947 117.745C220.014 116.823 221.075 116.844 222.062 117.432C222.212 117.522 222.347 117.619 222.464 117.714C222.533 117.771 222.579 117.813 222.6 117.835Z" fill="#010101"/>
<path fill-rule="evenodd" clip-rule="evenodd" d="M215.541 117.787C215.609 117.905 215.759 117.944 215.876 117.875C215.993 117.806 216.032 117.654 215.963 117.536C215.875 117.383 215.711 117.166 215.471 116.948C214.502 116.069 213.249 116.069 211.849 117.486C211.754 117.583 211.754 117.74 211.849 117.836C211.945 117.933 212.1 117.933 212.195 117.836C213.407 116.61 214.364 116.61 215.144 117.317C215.259 117.422 215.36 117.534 215.444 117.646C215.494 117.712 215.527 117.762 215.541 117.787Z" fill="#010101"/>
<path fill-rule="evenodd" clip-rule="evenodd" d="M221.183 119.403H214.984C214.843 119.403 214.731 119.523 214.74 119.665C214.746 119.772 214.769 119.949 214.821 120.173C214.908 120.546 215.046 120.919 215.25 121.268C215.847 122.295 216.865 122.906 218.369 122.882C219.652 122.861 220.514 122.248 221.008 121.254C221.182 120.905 221.297 120.534 221.366 120.163C221.407 119.939 221.424 119.763 221.427 119.658C221.432 119.518 221.321 119.403 221.183 119.403Z" fill="#E74B33"/>
<path fill-rule="evenodd" clip-rule="evenodd" d="M220.402 121.442C220.306 121.415 220.198 121.388 220.079 121.363C219.495 121.241 218.89 121.205 218.316 121.311C217.66 121.432 217.108 121.731 216.707 122.241C216.608 122.367 216.651 122.552 216.794 122.62C216.872 122.657 217.006 122.708 217.188 122.759C218.14 123.023 219.313 122.963 220.182 122.287C220.323 122.177 220.469 122.032 220.614 121.898C220.752 121.77 220.704 121.54 220.527 121.48C220.503 121.472 220.46 121.458 220.402 121.442Z" fill="#F3705A"/>
<path fill-rule="evenodd" clip-rule="evenodd" d="M181.541 142.946C185.957 138.724 192.667 135.49 192.667 135.49L194.507 138.218L198.451 149.543C183.609 162.304 175.391 161.257 172.704 158.392C168.74 154.167 166.086 124.584 166.086 124.584C166.086 124.584 164.89 123.52 163.716 120.846C161.927 116.771 163.311 115.601 163.311 115.601C163.809 112.642 165.694 112.5 165.694 112.5C165.694 112.5 166.121 109.933 167.366 109.862C168.611 109.791 169.465 111.11 169.465 111.11C169.429 110.112 170.289 102.842 170.289 102.842C170.289 102.842 170.887 98.7406 172.523 100.701C173.872 102.318 173.335 108.805 173.105 111.032C173.651 106.792 175.322 103.23 175.322 103.23C175.322 103.23 176.863 100.559 177.823 101.592C178.784 102.626 177.138 113.478 177.138 113.478C177.138 113.478 178.463 113.355 179.602 114.995C181.223 117.33 177.067 123.023 177.067 123.023L181.541 142.946ZM173.021 111.787C173.045 111.533 173.073 111.281 173.105 111.032C173.057 111.506 173.021 111.787 173.021 111.787ZM243.293 147.828L237.419 137.778L229.758 151.344L234.778 160.653C235.829 162.852 239.159 167.492 241.035 169.044C243.679 171.23 247.306 172.824 249.841 168.368C254.276 160.569 256.451 134.74 256.451 134.74C258.185 130.963 258.147 124.396 258.128 121.046C258.126 120.677 258.124 120.348 258.125 120.065C258.125 119.973 258.083 119.879 258.006 119.786C257.417 117.832 254.008 115.891 250.484 114.503C245.965 112.723 249.19 116.901 249.19 116.901C249.19 116.901 247.576 115.414 246.974 116.017C246.375 116.619 246.913 117.982 247.303 118.394C247.303 118.394 245.32 117.174 245.23 118.44C245.182 119.106 245.704 120.058 246.511 121.247C246.511 121.247 244.804 119.929 244.485 120.677C244.125 121.524 244.233 122.341 246.037 125.148C246.856 126.422 247.577 127.455 248.12 128.203L243.293 147.828ZM223.544 129.368C223.544 129.368 219.075 128.036 211.4 129.087C211.4 129.087 213.812 130.63 217.117 130.769C220.695 130.92 223.544 129.368 223.544 129.368Z" fill="#8D574D"/>
<path fill-rule="evenodd" clip-rule="evenodd" d="M172.746 117.101C172.624 117.527 172.271 117.783 171.687 117.824C170.978 117.873 170.436 117.664 169.658 116.905C169.683 116.97 169.709 117.036 169.734 117.102C169.909 117.573 170.045 118.035 170.127 118.47C170.327 119.526 170.195 120.332 169.609 120.768C168.985 121.231 168.165 120.587 167.047 119.048C166.149 117.814 164.708 116.519 164.044 116.26C163.959 116.227 163.917 116.131 163.95 116.046C163.983 115.961 164.079 115.919 164.163 115.952C164.896 116.238 166.382 117.573 167.313 118.854C168.313 120.23 169.026 120.79 169.412 120.502C169.87 120.163 169.982 119.476 169.803 118.531C169.725 118.117 169.594 117.673 169.425 117.218C169.323 116.946 169.215 116.686 169.106 116.449C169.069 116.366 169.033 116.292 169.002 116.227C168.985 116.192 168.972 116.167 168.965 116.153C168.949 116.125 168.919 116.07 168.874 115.994C168.798 115.865 168.709 115.722 168.609 115.568C168.322 115.127 167.998 114.685 167.643 114.274C166.989 113.516 166.31 112.95 165.629 112.653C165.545 112.616 165.507 112.519 165.543 112.435C165.579 112.352 165.677 112.313 165.76 112.35C166.494 112.67 167.209 113.266 167.892 114.058C168.258 114.482 168.591 114.934 168.885 115.387C168.988 115.546 169.079 115.693 169.157 115.826C169.185 115.872 169.209 115.914 169.229 115.949C169.235 115.961 169.241 115.971 169.245 115.978C170.351 117.25 170.891 117.548 171.664 117.494C172.148 117.461 172.395 117.269 172.452 116.909C172.42 116.858 172.418 116.791 172.451 116.735C172.456 116.728 172.46 116.722 172.465 116.716C172.465 116.676 172.463 116.635 172.459 116.592C172.414 116.065 172.118 115.338 171.622 114.47C171.414 114.107 171.175 113.726 170.911 113.332C170.567 112.82 170.198 112.313 169.829 111.835C169.7 111.667 169.58 111.515 169.472 111.382C169.435 111.335 169.401 111.294 169.373 111.259C169.356 111.238 169.344 111.224 169.338 111.217C169.28 111.147 169.289 111.042 169.359 110.984C169.429 110.926 169.533 110.935 169.591 111.005C169.598 111.013 169.61 111.028 169.628 111.049C169.657 111.085 169.691 111.127 169.729 111.174C169.838 111.31 169.959 111.463 170.09 111.633C170.463 112.117 170.836 112.629 171.184 113.148C171.257 113.256 171.328 113.364 171.397 113.471C171.679 113.49 172.726 113.476 174.262 113.439C174.534 113.432 174.817 113.425 175.108 113.417C175.613 113.403 176.119 113.389 176.602 113.374C176.771 113.369 176.925 113.364 177.061 113.36C177.143 113.357 177.2 113.356 177.23 113.355C177.321 113.352 177.397 113.423 177.4 113.515C177.403 113.606 177.332 113.682 177.241 113.685C177.21 113.686 177.153 113.688 177.071 113.69C176.935 113.694 176.781 113.699 176.612 113.704C176.129 113.719 175.622 113.734 175.117 113.747C174.825 113.755 174.542 113.762 174.27 113.769C172.994 113.8 172.075 113.815 171.611 113.808C171.716 113.977 171.815 114.143 171.908 114.306C172.426 115.212 172.737 115.976 172.787 116.564C172.793 116.628 172.795 116.69 172.795 116.749C172.981 116.857 173.212 116.98 173.48 117.114C173.591 117.17 173.708 117.227 173.829 117.285C174.179 117.454 174.553 117.626 174.928 117.793C175.059 117.851 175.181 117.905 175.29 117.953C175.356 117.981 175.402 118.001 175.427 118.012C175.572 118.074 175.556 118.285 175.403 118.324C175.393 118.326 175.372 118.332 175.339 118.342C175.284 118.358 175.218 118.379 175.144 118.404C174.929 118.477 174.683 118.572 174.411 118.691C173.631 119.033 172.797 119.502 171.943 120.119C171.869 120.172 171.766 120.156 171.713 120.082C171.659 120.007 171.676 119.904 171.75 119.851C172.624 119.22 173.479 118.739 174.279 118.388C174.503 118.291 174.709 118.208 174.897 118.141C174.863 118.126 174.829 118.111 174.794 118.095C174.417 117.927 174.039 117.753 173.687 117.583C173.564 117.524 173.445 117.466 173.333 117.41C173.112 117.299 172.915 117.196 172.746 117.101ZM181.647 142.859C181.668 142.77 181.612 142.681 181.523 142.661C181.434 142.641 181.346 142.697 181.326 142.786L180.664 145.7C180.644 145.789 180.7 145.878 180.789 145.898C180.877 145.918 180.966 145.862 180.986 145.773L181.647 142.859ZM249.258 116.752C249.174 116.714 249.077 116.751 249.04 116.835C249.002 116.918 249.04 117.016 249.123 117.053C249.132 117.057 249.152 117.066 249.18 117.079C249.228 117.101 249.284 117.128 249.346 117.157C249.525 117.243 249.725 117.342 249.94 117.453C250.554 117.769 251.169 118.118 251.741 118.488C252.949 119.269 253.804 120.038 254.146 120.738C254.156 120.757 254.165 120.777 254.174 120.797C254.211 120.88 254.309 120.917 254.392 120.879C254.475 120.842 254.512 120.744 254.475 120.661C254.464 120.638 254.454 120.615 254.442 120.592C254.067 119.824 253.175 119.022 251.92 118.211C251.338 117.834 250.714 117.48 250.091 117.159C249.873 117.046 249.67 116.946 249.488 116.859C249.424 116.829 249.368 116.802 249.319 116.779C249.289 116.766 249.268 116.756 249.258 116.752ZM247.177 118.289C247.236 118.219 247.34 118.211 247.409 118.269L247.463 118.315L247.616 118.444C247.779 118.583 247.962 118.737 248.159 118.904C248.721 119.38 249.283 119.857 249.808 120.303L249.826 120.318C251.1 121.401 251.941 122.122 252.157 122.319C252.225 122.38 252.23 122.485 252.168 122.552C252.107 122.62 252.003 122.625 251.936 122.563C251.723 122.37 250.881 121.648 249.613 120.57L249.595 120.555C249.07 120.109 248.508 119.632 247.946 119.156C247.749 118.99 247.567 118.835 247.403 118.696L247.251 118.567L247.197 118.522C247.127 118.463 247.118 118.359 247.177 118.289ZM246.624 121.128C246.558 121.065 246.454 121.069 246.391 121.135C246.329 121.202 246.332 121.306 246.398 121.369L246.451 121.418C246.494 121.459 246.544 121.506 246.6 121.559C246.76 121.711 246.939 121.881 247.131 122.065C247.681 122.589 248.231 123.12 248.743 123.623C248.795 123.673 248.845 123.723 248.895 123.772C249.857 124.719 250.553 125.437 250.875 125.828C250.933 125.898 251.037 125.908 251.107 125.85C251.178 125.792 251.188 125.688 251.129 125.617C250.797 125.215 250.097 124.492 249.126 123.536C249.076 123.487 249.025 123.437 248.974 123.387C248.46 122.883 247.909 122.351 247.359 121.825C247.166 121.641 246.987 121.471 246.826 121.319C246.77 121.266 246.72 121.218 246.677 121.178L246.624 121.128ZM243.382 147.691C243.458 147.74 243.481 147.842 243.432 147.919C243.427 147.926 243.415 147.947 243.397 147.983C243.365 148.046 243.329 148.126 243.289 148.224C243.175 148.511 243.06 148.885 242.953 149.358C242.643 150.719 242.456 152.592 242.456 155.054C242.456 155.145 242.382 155.219 242.291 155.219C242.2 155.219 242.127 155.145 242.127 155.054C242.127 152.568 242.315 150.671 242.631 149.284C242.743 148.795 242.863 148.404 242.983 148.102C243.057 147.916 243.117 147.799 243.154 147.741C243.203 147.664 243.305 147.641 243.382 147.691Z" fill="#9B7368"/>
<path fill-rule="evenodd" clip-rule="evenodd" d="M223.518 129.381C225.904 129.919 228.376 130.81 231.311 132.153C238.426 135.408 241.54 144.698 241.54 144.698C241.54 144.698 237.124 150.065 232.142 151.112L236.46 160.337C236.46 160.337 220.895 167.851 197.454 161.526L198.451 149.542C198.451 149.542 193.099 144.564 190.863 136.459C190.863 136.459 197.845 130.79 208.832 129.388C209.777 129.267 210.673 129.16 211.53 129.069C211.486 129.075 211.443 129.08 211.4 129.086C211.4 129.086 213.812 130.629 217.116 130.769C220.499 130.911 223.229 129.533 223.518 129.381Z" fill="#5BA092"/>
<mask id="mask1_4600_21905" style="mask-type:alpha" maskUnits="userSpaceOnUse" x="190" y="129" width="52" height="36">
<path fill-rule="evenodd" clip-rule="evenodd" d="M223.518 129.383C225.904 129.921 228.376 130.812 231.311 132.155C238.426 135.41 241.54 144.7 241.54 144.7C241.54 144.7 237.124 150.067 232.142 151.114L236.46 160.339C236.46 160.339 220.895 167.853 197.454 161.528L198.451 149.544C198.451 149.544 193.099 144.566 190.863 136.461C190.863 136.461 197.845 130.792 208.832 129.39C209.777 129.269 210.673 129.162 211.53 129.071C211.486 129.077 211.443 129.082 211.4 129.088C211.4 129.088 213.812 130.631 217.116 130.77C220.499 130.913 223.229 129.535 223.518 129.383Z" fill="white"/>
</mask>
<g mask="url(#mask1_4600_21905)">
<path d="M218.637 130.136C218.69 130.01 218.835 129.951 218.96 130.004L220.479 130.646C220.605 130.699 220.664 130.845 220.611 130.971C220.558 131.097 220.413 131.156 220.287 131.103L218.768 130.461C218.643 130.408 218.584 130.263 218.637 130.136Z" fill="#F4F0F0"/>
<path d="M230.62 132.955C230.713 133.055 230.707 133.212 230.607 133.305L229.399 134.429C229.299 134.522 229.143 134.516 229.05 134.416C228.957 134.316 228.963 134.159 229.063 134.066L230.271 132.942C230.371 132.849 230.527 132.854 230.62 132.955Z" fill="#F4F0F0"/>
<path d="M229.223 159.147C229.223 159.284 229.113 159.395 228.976 159.395H227.328C227.191 159.395 227.081 159.284 227.081 159.147C227.081 159.01 227.191 158.899 227.328 158.899H228.976C229.113 158.899 229.223 159.01 229.223 159.147Z" fill="#F4F0F0"/>
<path d="M219.426 141.369C219.479 141.243 219.624 141.184 219.749 141.237L221.268 141.878C221.394 141.932 221.453 142.077 221.4 142.203C221.347 142.329 221.202 142.388 221.076 142.335L219.557 141.693C219.432 141.64 219.373 141.495 219.426 141.369Z" fill="#F4F0F0"/>
<path d="M214.747 136.933C214.882 136.958 214.97 137.087 214.945 137.222L214.64 138.845C214.615 138.98 214.485 139.068 214.351 139.043C214.217 139.018 214.128 138.888 214.154 138.754L214.459 137.13C214.484 136.996 214.613 136.907 214.747 136.933Z" fill="#F4F0F0"/>
<path d="M217.878 158.903C218.012 158.929 218.101 159.058 218.076 159.193L217.771 160.816C217.745 160.951 217.616 161.039 217.482 161.014C217.348 160.989 217.259 160.859 217.285 160.724L217.59 159.101C217.615 158.967 217.744 158.878 217.878 158.903Z" fill="#F4F0F0"/>
<path d="M223.99 147.172C224.126 147.186 224.224 147.308 224.21 147.444L224.041 149.087C224.027 149.223 223.905 149.322 223.77 149.308C223.634 149.294 223.535 149.172 223.549 149.036L223.719 147.393C223.733 147.257 223.854 147.158 223.99 147.172Z" fill="#F4F0F0"/>
<path d="M228.376 138.354C228.39 138.218 228.292 138.096 228.156 138.082C228.02 138.068 227.899 138.167 227.885 138.303L227.715 139.946C227.701 140.082 227.8 140.204 227.936 140.218C228.072 140.232 228.193 140.133 228.207 139.997L228.376 138.354Z" fill="#F4F0F0"/>
<path d="M240.695 144C240.811 143.928 240.847 143.775 240.775 143.659C240.704 143.543 240.551 143.507 240.435 143.579L239.033 144.448C238.917 144.52 238.881 144.672 238.953 144.789C239.025 144.905 239.177 144.941 239.293 144.869L240.695 144Z" fill="#F4F0F0"/>
<path d="M218.028 148.448C218.1 148.564 218.064 148.717 217.948 148.789L216.546 149.658C216.43 149.73 216.278 149.694 216.206 149.578C216.134 149.461 216.17 149.309 216.286 149.237L217.688 148.368C217.804 148.296 217.956 148.332 218.028 148.448Z" fill="#F4F0F0"/>
<path d="M231.828 146.513C231.786 146.643 231.647 146.715 231.517 146.673L229.947 146.168C229.817 146.126 229.746 145.987 229.787 145.856C229.829 145.726 229.968 145.654 230.099 145.696L231.668 146.201C231.798 146.243 231.87 146.382 231.828 146.513Z" fill="#F4F0F0"/>
<path d="M235.454 143.237C235.41 143.367 235.269 143.437 235.14 143.393L233.579 142.864C233.449 142.82 233.38 142.68 233.423 142.55C233.467 142.42 233.607 142.351 233.737 142.394L235.299 142.923C235.428 142.967 235.497 143.108 235.454 143.237Z" fill="#F4F0F0"/>
<path d="M212.969 146.608C213.099 146.652 213.239 146.582 213.283 146.452C213.326 146.323 213.257 146.182 213.128 146.138L211.566 145.609C211.437 145.566 211.296 145.635 211.252 145.765C211.209 145.894 211.278 146.035 211.408 146.079L212.969 146.608Z" fill="#F4F0F0"/>
<path d="M229.645 150.627C229.776 150.663 229.853 150.8 229.817 150.931L229.379 152.524C229.342 152.656 229.206 152.733 229.075 152.697C228.943 152.661 228.866 152.524 228.902 152.392L229.34 150.8C229.377 150.668 229.513 150.59 229.645 150.627Z" fill="#F4F0F0"/>
<path d="M222.437 158.265C222.35 158.37 222.194 158.384 222.089 158.296L220.824 157.237C220.719 157.15 220.705 156.993 220.792 156.888C220.88 156.783 221.036 156.769 221.141 156.857L222.406 157.916C222.511 158.003 222.525 158.16 222.437 158.265Z" fill="#F4F0F0"/>
<path d="M214.038 157C214.026 157.136 213.906 157.237 213.77 157.225L212.128 157.079C211.992 157.067 211.891 156.947 211.903 156.811C211.915 156.674 212.035 156.573 212.171 156.586L213.813 156.731C213.949 156.743 214.05 156.864 214.038 157Z" fill="#F4F0F0"/>
<path d="M202.686 132.389C202.686 132.526 202.576 132.637 202.439 132.637H200.791C200.654 132.637 200.543 132.526 200.543 132.389C200.543 132.252 200.654 132.141 200.791 132.141H202.439C202.576 132.141 202.686 132.252 202.686 132.389Z" fill="#F4F0F0"/>
<path d="M205.57 154.607C205.706 154.607 205.817 154.497 205.817 154.36C205.817 154.223 205.706 154.112 205.57 154.112H203.922C203.785 154.112 203.674 154.223 203.674 154.36C203.674 154.497 203.785 154.607 203.922 154.607H205.57Z" fill="#F4F0F0"/>
<path d="M196.342 136.452C196.216 136.398 196.071 136.458 196.018 136.584C195.965 136.71 196.024 136.855 196.15 136.908L197.669 137.55C197.795 137.603 197.94 137.544 197.993 137.418C198.046 137.292 197.987 137.146 197.861 137.093L196.342 136.452Z" fill="#F4F0F0"/>
<path d="M199.476 158.422C199.35 158.369 199.205 158.428 199.152 158.554C199.099 158.681 199.158 158.826 199.284 158.879L200.803 159.521C200.929 159.574 201.074 159.515 201.127 159.389C201.18 159.263 201.121 159.117 200.995 159.064L199.476 158.422Z" fill="#F4F0F0"/>
<path d="M200.804 142.659C200.818 142.522 200.719 142.401 200.584 142.387C200.448 142.373 200.326 142.472 200.312 142.608L200.143 144.251C200.129 144.387 200.227 144.509 200.363 144.523C200.499 144.537 200.621 144.438 200.635 144.302L200.804 142.659Z" fill="#F4F0F0"/>
<path d="M208.111 141.886C208.241 141.928 208.381 141.856 208.422 141.726C208.464 141.595 208.393 141.456 208.263 141.414L206.693 140.909C206.563 140.867 206.424 140.939 206.382 141.069C206.34 141.199 206.412 141.339 206.542 141.381L208.111 141.886Z" fill="#F4F0F0"/>
<path d="M210.995 163.44C211.125 163.482 211.265 163.411 211.306 163.28C211.348 163.15 211.276 163.01 211.146 162.969L209.577 162.464C209.447 162.422 209.308 162.494 209.266 162.624C209.224 162.754 209.296 162.894 209.426 162.936L210.995 163.44Z" fill="#F4F0F0"/>
<path d="M210.733 150.946C210.767 150.813 210.687 150.678 210.554 150.645C210.422 150.611 210.287 150.692 210.254 150.825L209.852 152.427C209.818 152.559 209.899 152.694 210.031 152.727C210.164 152.761 210.298 152.68 210.331 152.548L210.733 150.946Z" fill="#F4F0F0"/>
<path d="M206.412 146.146C206.448 146.014 206.371 145.878 206.239 145.842C206.108 145.805 205.971 145.883 205.935 146.014L205.497 147.607C205.46 147.739 205.538 147.875 205.669 147.912C205.801 147.948 205.937 147.871 205.973 147.739L206.412 146.146Z" fill="#F4F0F0"/>
</g>
<path fill-rule="evenodd" clip-rule="evenodd" d="M231.996 151.187C232.038 151.268 232.137 151.3 232.218 151.258C232.299 151.216 232.331 151.116 232.289 151.035L229.757 146.123C229.715 146.042 229.616 146.01 229.535 146.052C229.454 146.094 229.423 146.194 229.464 146.275L231.996 151.187Z" fill="#2F6858"/>
<path fill-rule="evenodd" clip-rule="evenodd" d="M240.361 112.082L250.838 111.65C251.663 111.616 252.303 112.363 252.145 113.175L251.781 115.043C251.354 114.855 250.92 114.675 250.484 114.503C245.965 112.724 249.19 116.901 249.19 116.901C249.19 116.901 247.576 115.415 246.974 116.018C246.375 116.619 246.913 117.983 247.303 118.395C247.303 118.395 245.32 117.175 245.23 118.441C245.182 119.107 245.704 120.058 246.511 121.247C246.511 121.247 244.804 119.93 244.485 120.677C244.124 121.524 244.233 122.342 246.037 125.149C247.45 127.348 248.572 128.828 248.991 129.366L248.449 132.147C248.388 132.463 248.105 132.687 247.784 132.674L238.419 132.287C237.68 132.256 237.121 131.604 237.202 130.866L239.143 113.222C239.212 112.592 239.73 112.108 240.361 112.082Z" fill="#717171"/>
<path fill-rule="evenodd" clip-rule="evenodd" d="M245.566 104.34C245.822 104.678 246.167 105.185 246.578 105.822C246.627 105.9 246.678 105.979 246.73 106.06C247.037 106.541 247.359 107.057 247.675 107.573C247.785 107.753 247.887 107.921 247.978 108.072C248.01 108.124 248.038 108.171 248.062 108.211C248.087 108.252 248.087 108.252 248.092 108.261C248.153 108.363 248.299 108.368 248.368 108.271C248.373 108.264 248.383 108.25 248.398 108.229C248.423 108.194 248.452 108.153 248.486 108.108C248.581 107.977 248.689 107.832 248.809 107.675C249.149 107.226 249.509 106.778 249.87 106.36C250.119 106.072 250.36 105.809 250.59 105.575C250.939 105.222 251.255 104.946 251.529 104.759C251.745 104.613 251.827 104.672 251.892 105.029C251.958 105.391 251.946 105.965 251.87 106.686C251.835 107.012 251.789 107.359 251.733 107.716C251.689 108.001 251.641 108.276 251.594 108.53C251.577 108.619 251.562 108.699 251.548 108.769C251.54 108.811 251.534 108.84 251.531 108.855C251.512 108.944 251.57 109.032 251.659 109.05C251.748 109.069 251.835 109.011 251.854 108.922C251.857 108.906 251.863 108.876 251.871 108.833C251.885 108.762 251.901 108.681 251.918 108.591C251.966 108.333 252.014 108.055 252.059 107.767C252.115 107.405 252.162 107.053 252.197 106.72C252.277 105.97 252.289 105.371 252.216 104.97C252.114 104.408 251.795 104.179 251.344 104.486C251.049 104.686 250.718 104.976 250.356 105.343C250.12 105.582 249.874 105.851 249.62 106.144C249.254 106.568 248.891 107.021 248.547 107.474C248.437 107.619 248.336 107.754 248.246 107.877C248.158 107.732 248.061 107.572 247.956 107.4C247.639 106.882 247.316 106.365 247.008 105.881C246.956 105.8 246.905 105.721 246.854 105.643C246.439 104.999 246.091 104.486 245.829 104.14C245.677 103.939 245.555 103.795 245.462 103.711C245.397 103.652 245.341 103.616 245.278 103.604C245.151 103.58 245.056 103.665 245.038 103.784C245 104.03 245.032 104.833 245.116 106.057C245.129 106.248 245.143 106.446 245.157 106.65C245.187 107.054 245.219 107.461 245.25 107.852C245.255 107.908 245.259 107.963 245.264 108.016C245.201 107.973 245.134 107.929 245.065 107.883C244.695 107.637 244.313 107.391 243.94 107.161C243.815 107.084 243.692 107.01 243.572 106.939C242.979 106.586 242.49 106.33 242.136 106.197C241.917 106.115 241.748 106.079 241.619 106.097C241.417 106.125 241.32 106.287 241.366 106.498C241.431 106.797 241.52 107.258 241.626 107.841C241.639 107.911 241.652 107.982 241.665 108.054C241.742 108.48 241.822 108.936 241.901 109.393C241.909 109.436 241.916 109.479 241.923 109.521C241.74 109.355 241.551 109.19 241.364 109.034C241.269 108.955 241.176 108.88 241.086 108.81C240.782 108.571 240.521 108.393 240.313 108.29C240.008 108.139 239.767 108.127 239.667 108.369C239.57 108.601 239.591 108.994 239.693 109.528C239.724 109.69 239.762 109.86 239.805 110.036C239.848 110.211 239.895 110.383 239.941 110.543C239.957 110.599 239.972 110.65 239.986 110.695C239.994 110.722 240 110.741 240.003 110.751C240.031 110.838 240.123 110.886 240.21 110.859C240.297 110.831 240.345 110.738 240.318 110.651C240.315 110.642 240.309 110.624 240.301 110.599C240.288 110.555 240.273 110.506 240.258 110.451C240.212 110.295 240.167 110.128 240.125 109.957C240.083 109.786 240.047 109.622 240.017 109.466C239.931 109.017 239.91 108.675 239.964 108.515C240.007 108.518 240.077 108.542 240.167 108.586C240.35 108.677 240.595 108.844 240.883 109.07C240.97 109.138 241.061 109.211 241.153 109.289C241.364 109.464 241.579 109.653 241.785 109.842C241.857 109.908 241.923 109.969 241.982 110.024C242.017 110.057 242.041 110.08 242.054 110.092C242.168 110.203 242.357 110.103 242.33 109.946C242.325 109.915 242.316 109.858 242.302 109.778C242.279 109.645 242.254 109.496 242.226 109.336C242.147 108.879 242.066 108.422 241.989 107.996C241.976 107.923 241.963 107.852 241.951 107.782C241.843 107.195 241.754 106.731 241.688 106.428C241.688 106.426 241.688 106.424 241.687 106.422C241.753 106.422 241.868 106.45 242.021 106.507C242.351 106.631 242.826 106.88 243.404 107.223C243.522 107.293 243.643 107.366 243.768 107.443C244.137 107.67 244.516 107.914 244.882 108.158C245.011 108.243 245.129 108.323 245.233 108.394C245.296 108.436 245.34 108.467 245.363 108.483C245.478 108.562 245.633 108.472 245.621 108.333C245.619 108.308 245.615 108.262 245.609 108.196C245.6 108.086 245.59 107.961 245.579 107.825C245.547 107.435 245.516 107.029 245.486 106.625C245.471 106.422 245.457 106.225 245.444 106.035C245.383 105.126 245.349 104.436 245.351 104.072C245.412 104.141 245.484 104.231 245.566 104.34Z" fill="#F3705A"/>
<path fill-rule="evenodd" clip-rule="evenodd" d="M248.353 218.776H242.717L254.312 237.141C254.69 237.741 255.353 238.104 256.063 238.104C256.945 238.104 257.52 237.182 257.128 236.394L248.353 218.776Z" fill="#E3D4C5"/>
<path fill-rule="evenodd" clip-rule="evenodd" d="M205.692 218.776H211.329L199.733 237.141C199.355 237.741 198.694 238.104 197.982 238.104C197.1 238.104 196.525 237.182 196.917 236.394L205.692 218.776Z" fill="#E3D4C5"/>
<path fill-rule="evenodd" clip-rule="evenodd" d="M188.532 216.959C188.532 222.068 203.879 226.21 222.81 226.21C241.742 226.21 257.088 222.068 257.088 216.959C257.088 211.849 241.742 207.708 222.81 207.708C203.879 207.708 188.532 211.849 188.532 216.959Z" fill="#CDB1AA"/>
<path fill-rule="evenodd" clip-rule="evenodd" d="M233.563 213.819L222.396 213.325L221.902 213.679V214.544L233.824 222.246L245.485 221.846L245.525 220.822L233.563 213.819Z" fill="#E3D4C5"/>
<path fill-rule="evenodd" clip-rule="evenodd" d="M233.845 221.584L222.398 214.165V211.673L233.845 218.953L245.526 218.576V221.304L233.845 221.584Z" fill="#F4F0F0"/>
<path fill-rule="evenodd" clip-rule="evenodd" d="M233.58 210.846L221.902 211.231L222.396 212.104V211.544L233.841 218.941L245.484 218.736L245.69 218.383L233.58 210.846Z" fill="#E3D4C5"/>
<path fill-rule="evenodd" clip-rule="evenodd" d="M211.494 215.473H205.052L205.298 219.555C205.374 220.789 206.398 221.751 207.638 221.751H208.907C210.146 221.751 211.172 220.789 211.246 219.555L211.494 215.473Z" fill="#F3705A"/>
<path fill-rule="evenodd" clip-rule="evenodd" d="M205.713 220.263L205.615 219.47C204.49 219.383 203.149 218.937 203.149 217.313C203.149 216.784 203.357 216.659 203.425 216.619C203.864 216.356 204.852 216.659 205.373 216.913L205.706 216.274C205.531 216.188 203.97 215.454 203.038 216.009C202.751 216.18 202.409 216.545 202.409 217.313C202.409 218.981 203.712 220.106 205.713 220.263Z" fill="#F3705A"/>
<path fill-rule="evenodd" clip-rule="evenodd" d="M205.052 215.472C205.052 216.019 206.494 216.464 208.273 216.464C210.052 216.464 211.494 216.019 211.494 215.472C211.494 214.926 210.052 214.481 208.273 214.481C206.494 214.481 205.052 214.926 205.052 215.472Z" fill="#E74B33"/>
<path fill-rule="evenodd" clip-rule="evenodd" d="M207.791 209.421C207.833 209.484 207.817 209.57 207.754 209.613C206.897 210.196 206.497 210.738 206.497 211.509C206.497 212.04 206.695 212.469 207.084 212.866C207.386 213.173 207.693 213.386 208.435 213.839C208.597 213.936 208.668 213.981 208.755 214.035C209.931 214.77 210.503 215.358 210.503 216.293C210.503 216.3 210.485 216.302 210.453 216.307C210.432 216.31 210.404 216.315 210.371 216.323C210.349 216.328 210.33 216.333 210.31 216.336C210.262 216.35 210.229 216.358 210.229 216.35C210.229 215.507 209.733 214.972 208.61 214.27C208.522 214.215 208.451 214.172 208.291 214.075C207.53 213.609 207.211 213.389 206.887 213.059C206.449 212.614 206.221 212.116 206.221 211.509C206.221 210.627 206.674 210.014 207.599 209.383C207.662 209.342 207.748 209.357 207.791 209.421ZM203.043 211.293C203.119 211.293 203.18 211.356 203.18 211.432C203.18 211.97 203.378 212.408 203.768 212.811C204.07 213.123 204.378 213.34 205.119 213.799C205.881 214.271 206.2 214.496 206.523 214.83C206.96 215.282 207.188 215.788 207.188 216.402C207.188 216.473 207.155 216.468 207.09 216.457C207.085 216.457 207.082 216.455 207.077 216.455C207.06 216.452 207.044 216.45 207.027 216.449C206.968 216.44 206.912 216.434 206.912 216.402C206.912 215.864 206.713 215.424 206.325 215.023C206.023 214.709 205.714 214.494 204.974 214.034C204.212 213.561 203.894 213.338 203.57 213.003C203.132 212.552 202.904 212.046 202.904 211.432C202.904 211.356 202.965 211.293 203.043 211.293Z" fill="#F4F0F0"/>
<path fill-rule="evenodd" clip-rule="evenodd" d="M138.545 14.2891L115.118 33.3071L132.834 43.9177L138.545 14.2891Z" fill="#F2B08F"/>
<path fill-rule="evenodd" clip-rule="evenodd" d="M132.834 43.9177L138.545 14.2891L147.522 35.5363L132.834 43.9177ZM132.834 43.9182L125.23 59.0029L115.118 33.3071L132.834 43.9182Z" fill="#E58857"/>
<path fill-rule="evenodd" clip-rule="evenodd" d="M132.834 43.9186L125.23 59.0028L147.522 35.5372L132.834 43.9186Z" fill="#333333"/>
<path fill-rule="evenodd" clip-rule="evenodd" d="M19.1375 37.1975L7.38675 27.6731L16.2763 22.3556L19.1375 37.1975Z" fill="#F2B08F"/>
<path fill-rule="evenodd" clip-rule="evenodd" d="M16.2653 22.5769L19.1761 37.6734L23.7782 26.8422L16.2653 22.5769ZM16.2653 22.5769L12.3797 14.8926L7.19534 27.9908L16.2653 22.5769Z" fill="#E58857"/>
<path fill-rule="evenodd" clip-rule="evenodd" d="M16.3596 22.6333L12.5274 14.9708L23.743 26.901L16.3596 22.6333Z" fill="#333333"/>
<path fill-rule="evenodd" clip-rule="evenodd" d="M2.22263 155.361L31.8928 189.5L32.5885 162.413L2.22263 155.361ZM12.165 112.516L0 141.999L31.4474 150.812L12.165 112.516Z" fill="#5BA092"/>
<path fill-rule="evenodd" clip-rule="evenodd" d="M32.5659 162.413L31.8745 189.5L42.9787 147.241L32.5659 162.413ZM39.8232 137.391L12.2793 112.516L31.4319 150.812L39.8232 137.391Z" fill="#2F6858"/>
<path fill-rule="evenodd" clip-rule="evenodd" d="M2.36134 155.593L13.5987 145.998L31.4204 151.086L35.0849 145.104L42.9789 147.549L32.5553 162.579L2.36134 155.593Z" fill="#010101"/>
<path d="M78.5625 128.961C95.6797 123.399 102.336 96.668 93.4288 69.2556C84.5219 41.8432 63.4253 24.1297 46.308 29.6915C29.1908 35.2532 22.5349 61.984 31.4417 89.3964C40.3486 116.809 61.4452 134.522 78.5625 128.961Z" fill="#E8CAA2"/>
<path d="M84.6272 126.992C100.38 121.873 105.93 95.5019 97.0229 68.0895C88.1161 40.6771 68.1255 22.6043 52.3727 27.7227C36.6199 32.8411 31.0701 59.2125 39.9769 86.6249C48.8838 114.037 68.8744 132.11 84.6272 126.992Z" fill="#DEBC90"/>
<path fill-rule="evenodd" clip-rule="evenodd" d="M77.9625 109.81L75.4829 101.7L75.0498 101.833C73.5474 102.292 71.9171 102.458 70.2036 102.327C68.67 102.206 67.255 101.798 65.993 101.114L66.2259 98.9371C67.4326 99.5393 68.7517 99.9573 70.1582 100.183C71.7735 100.442 73.4034 100.327 75.0035 99.8382C76.2565 99.4552 77.3466 98.8525 78.2477 98.052C79.1508 97.2444 79.8488 96.2804 80.3254 95.1847C80.8005 94.0833 81.0707 92.853 81.1254 91.5211C81.1798 90.1901 80.9979 88.8176 80.5766 87.4395C79.7577 84.7616 78.3984 82.7335 76.5371 81.413C74.7386 80.1387 72.4791 79.2078 69.8215 78.6472C66.0847 77.8585 63.1361 76.7146 61.0618 75.2467C59.0271 73.8104 57.6079 71.7035 56.7218 68.8059C55.8335 65.899 55.8113 63.2744 56.6538 60.784C57.4889 58.3101 59.115 56.4417 61.4892 55.2284L61.8444 55.0465L59.3403 46.8545L60.8639 46.3888L63.3831 54.6285L63.803 54.526C65.4839 54.1222 66.9877 54.032 68.2728 54.2597C69.3851 54.459 70.4071 54.7409 71.3182 55.1018L71.0882 57.2512C70.4052 56.9588 69.4951 56.6679 68.3762 56.3779C66.9187 56.001 65.2138 56.1045 63.3028 56.6887C61.9252 57.11 60.8266 57.7476 60.0322 58.5854C59.2349 59.4219 58.655 60.3584 58.3026 61.364C57.9442 62.3761 57.7812 63.4704 57.8195 64.6157C57.8554 65.7445 58.0273 66.8171 58.3291 67.8042C59.0725 70.2351 60.3297 72.0568 62.0683 73.221C63.726 74.3299 66.2103 75.2575 69.455 75.9782C71.0787 76.3665 72.5967 76.8298 73.9574 77.3512C75.2945 77.8679 76.5144 78.5523 77.579 79.3826C78.6364 80.2072 79.5711 81.2212 80.3631 82.3911C81.1467 83.5525 81.8051 84.9873 82.3156 86.6574C82.685 87.865 82.8961 89.1738 82.9424 90.5505C82.9886 91.9287 82.8352 93.2875 82.4894 94.5905C82.1428 95.896 81.5401 97.1395 80.7046 98.283C79.8672 99.4273 78.7488 100.384 77.3745 101.129L77.0316 101.315L79.4861 109.344L77.9625 109.81Z" fill="#A88454"/>
<path d="M128.58 113.019C139.442 116.548 143.669 133.504 138.02 150.89C132.371 168.276 118.985 179.509 108.122 175.979C97.2596 172.45 93.0329 155.494 98.682 138.108C104.331 120.722 117.717 109.489 128.58 113.019Z" fill="#E8CAA2"/>
<path d="M132.429 114.269C142.426 117.517 145.95 134.245 140.301 151.631C134.652 169.017 121.969 180.478 111.972 177.23C101.975 173.981 98.4499 157.254 104.099 139.868C109.748 122.482 122.432 111.021 132.429 114.269Z" fill="#DEBC90"/>
<path fill-rule="evenodd" clip-rule="evenodd" d="M114.952 164.761L116.792 159.707L116.522 159.608C115.585 159.267 114.695 158.729 113.877 158.009C113.145 157.362 112.584 156.615 112.205 155.787L113.155 154.773C113.537 155.539 114.046 156.254 114.672 156.906C115.392 157.653 116.262 158.218 117.26 158.58C118.041 158.865 118.824 158.976 119.586 158.915C120.352 158.85 121.074 158.628 121.734 158.255C122.395 157.879 123.002 157.359 123.538 156.706C124.074 156.052 124.506 155.287 124.819 154.428C125.426 152.76 125.512 151.213 125.072 149.834C124.647 148.502 123.857 147.168 122.724 145.869C121.131 144.043 120.073 142.338 119.582 140.802C119.1 139.298 119.185 137.689 119.842 135.883C120.501 134.071 121.492 132.733 122.87 131.794C124.238 130.86 125.775 130.534 127.442 130.826L127.692 130.87L129.55 125.764L130.5 126.11L128.631 131.246L128.883 131.354C129.889 131.791 130.686 132.32 131.25 132.926C131.738 133.451 132.148 133.984 132.472 134.515L131.535 135.516C131.3 135.107 130.95 134.612 130.494 134.038C129.899 133.291 128.996 132.692 127.804 132.258C126.944 131.946 126.144 131.849 125.422 131.97C124.698 132.089 124.047 132.342 123.484 132.717C122.916 133.093 122.416 133.585 121.998 134.18C121.585 134.765 121.263 135.374 121.039 135.989C120.488 137.504 120.429 138.907 120.866 140.16C121.283 141.355 122.188 142.773 123.557 144.377C124.232 145.194 124.824 146.008 125.315 146.792C125.796 147.564 126.152 148.376 126.375 149.203C126.596 150.025 126.683 150.895 126.638 151.79C126.592 152.678 126.378 153.656 125.999 154.697C125.725 155.449 125.332 156.192 124.83 156.908C124.327 157.623 123.73 158.253 123.058 158.781C122.383 159.31 121.604 159.71 120.744 159.969C119.882 160.23 118.95 160.287 117.969 160.139L117.724 160.103L115.903 165.107L114.952 164.761Z" fill="#A88454"/>
<path d="M105.088 0.413082C112.031 2.66881 114.727 13.5212 111.11 24.6525C107.493 35.7838 98.933 42.9789 91.9906 40.7232C85.0482 38.4674 82.3522 27.6151 85.969 16.4838C89.5858 5.35244 98.1457 -1.84265 105.088 0.413082Z" fill="#E8CAA2"/>
<path d="M107.547 1.21057C113.936 3.2865 116.184 13.9931 112.567 25.1244C108.95 36.2557 100.839 43.5966 94.4496 41.5207C88.0605 39.4447 85.8131 28.7381 89.4299 17.6068C93.0467 6.47549 101.158 -0.865359 107.547 1.21057Z" fill="#DEBC90"/>
<path fill-rule="evenodd" clip-rule="evenodd" d="M96.3585 33.5398L97.5364 30.3036L97.3636 30.2408C96.7647 30.0231 96.1965 29.6788 95.6732 29.2178C95.2061 28.8041 94.8476 28.3261 94.6058 27.7962L95.2132 27.1468C95.4569 27.6366 95.7818 28.0942 96.1823 28.5113C96.6419 28.9897 97.1982 29.3505 97.8358 29.5824C98.3351 29.7643 98.8352 29.8351 99.3226 29.7954C99.8124 29.7544 100.274 29.6122 100.696 29.3727C101.119 29.1319 101.507 28.7984 101.85 28.38C102.193 27.9615 102.469 27.4722 102.669 26.922C103.058 25.8537 103.113 24.8637 102.833 23.981C102.562 23.1285 102.057 22.2746 101.333 21.4438C100.316 20.2754 99.6405 19.1843 99.3269 18.2015C99.019 17.2389 99.0738 16.2089 99.4946 15.0527C99.9168 13.8927 100.551 13.036 101.432 12.4338C102.307 11.8359 103.289 11.6266 104.355 11.8132L104.514 11.8406L105.704 8.5723L106.311 8.79334L105.114 12.081L105.275 12.1504C105.919 12.43 106.428 12.7677 106.788 13.1555C107.1 13.4917 107.362 13.8328 107.569 14.1723L106.97 14.8132C106.819 14.5516 106.596 14.2351 106.305 13.8677C105.924 13.3897 105.347 13.0067 104.585 12.7295C104.036 12.5297 103.525 12.4683 103.063 12.5457C102.6 12.6227 102.184 12.7847 101.824 13.0246C101.461 13.2655 101.141 13.581 100.873 13.9617C100.609 14.3362 100.403 14.7263 100.26 15.1202C99.9069 16.0903 99.8691 16.9882 100.148 17.7906C100.414 18.5548 100.992 19.4625 101.866 20.4884C102.298 21.0112 102.676 21.5321 102.989 22.0332C103.296 22.5277 103.524 23.0477 103.666 23.5767C103.807 24.1024 103.862 24.6597 103.833 25.2326C103.803 25.8008 103.666 26.427 103.423 27.0934C103.248 27.5752 102.997 28.0512 102.675 28.5089C102.354 28.9675 101.972 29.3704 101.542 29.7085C101.111 30.0477 100.612 30.3036 100.062 30.4704C99.5111 30.6371 98.9155 30.6744 98.2883 30.5804L98.132 30.5568L96.9659 33.7608L96.3585 33.5398Z" fill="#A88454"/>
</svg>
