<svg width="40" height="40" viewBox="0 0 40 40" fill="none" xmlns="http://www.w3.org/2000/svg">
<g clip-path="url(#clip0_2461_17698)">
<mask id="path-1-inside-1_2461_17698" fill="white">
<path d="M38.125 10H28.125V1.85059C28.1246 1.52567 27.9953 1.21417 27.7656 0.984421C27.5358 0.754668 27.2243 0.625412 26.8994 0.625H13.1006C12.7757 0.625412 12.4642 0.754668 12.2344 0.984421C12.0047 1.21417 11.8754 1.52567 11.875 1.85059V8.75H1.875C1.54358 8.75033 1.22583 8.88213 0.991482 9.11648C0.757133 9.35083 0.625331 9.66858 0.625 10V18.75C0.625331 19.0814 0.757133 19.3992 0.991482 19.6335C1.22583 19.8679 1.54358 19.9997 1.875 20H5.29052L8.855 25.3467C8.93268 25.4632 9.04725 25.5502 9.18032 25.5939C9.31339 25.6375 9.45725 25.6351 9.58883 25.5872C9.7204 25.5393 9.83207 25.4485 9.90592 25.3296C9.97976 25.2106 10.0115 25.0702 9.99605 24.9311L9.44824 20H13.125C13.4564 19.9997 13.7742 19.8679 14.0085 19.6335C14.2429 19.3992 14.3747 19.0814 14.375 18.75V14.375H17.6279L19.3909 22.0157C19.4227 22.1534 19.5003 22.2762 19.6109 22.3642C19.7215 22.4521 19.8587 22.5 20 22.5C20.1413 22.5 20.2785 22.4521 20.3891 22.3642C20.4997 22.2762 20.5773 22.1534 20.6091 22.0157L22.3721 14.375H25.625V20C25.6253 20.3314 25.7571 20.6492 25.9915 20.8835C26.2258 21.1179 26.5436 21.2497 26.875 21.25H30.5295L30.0064 24.9115C29.9873 25.0454 30.0121 25.1819 30.0771 25.3005C30.1422 25.4191 30.244 25.5134 30.3672 25.5692C30.4904 25.625 30.6284 25.6394 30.7604 25.6101C30.8925 25.5808 31.0115 25.5095 31.0995 25.4068L34.6625 21.25H38.125C38.4564 21.2497 38.7742 21.1179 39.0085 20.8835C39.2429 20.6492 39.3747 20.3314 39.375 20V11.25C39.3747 10.9186 39.2429 10.6008 39.0085 10.3665C38.7742 10.1321 38.4564 10.0003 38.125 10ZM13.125 18.75H8.75C8.6621 18.75 8.57519 18.7685 8.49495 18.8044C8.4147 18.8402 8.34293 18.8926 8.28431 18.9581C8.2257 19.0236 8.18156 19.1007 8.1548 19.1845C8.12803 19.2682 8.11923 19.3566 8.12897 19.444L8.47016 22.5158L6.145 19.0283C6.08794 18.9427 6.01062 18.8725 5.91991 18.8239C5.82919 18.7754 5.72789 18.75 5.625 18.75H1.875V10H11.875V13.1494C11.8754 13.4743 12.0047 13.7858 12.2344 14.0156C12.4642 14.2453 12.7757 14.3746 13.1006 14.375H13.125V18.75ZM21.875 13.125C21.7337 13.125 21.5965 13.1729 21.4859 13.2608C21.3753 13.3488 21.2977 13.4716 21.2659 13.6093L20 19.0955L18.7341 13.6093C18.7023 13.4716 18.6247 13.3488 18.5141 13.2608C18.4035 13.1729 18.2663 13.125 18.125 13.125L13.125 13.1494L13.1006 1.875L26.875 1.85059V13.125H21.875ZM38.125 20H34.375C34.2848 20 34.1957 20.0195 34.1138 20.0571C34.0319 20.0948 33.9591 20.1497 33.9004 20.2182L31.5472 22.9636L31.8686 20.7135C31.8813 20.6249 31.8748 20.5345 31.8495 20.4486C31.8243 20.3627 31.7808 20.2832 31.7222 20.2155C31.6635 20.1479 31.591 20.0936 31.5095 20.0564C31.4281 20.0192 31.3396 20 31.25 20H26.875V14.375H26.8994C27.2243 14.3746 27.5358 14.2453 27.7656 14.0156C27.9953 13.7858 28.1246 13.4743 28.125 13.1494V11.25H38.125V20Z"/>
</mask>
<path d="M38.125 10H28.125V1.85059C28.1246 1.52567 27.9953 1.21417 27.7656 0.984421C27.5358 0.754668 27.2243 0.625412 26.8994 0.625H13.1006C12.7757 0.625412 12.4642 0.754668 12.2344 0.984421C12.0047 1.21417 11.8754 1.52567 11.875 1.85059V8.75H1.875C1.54358 8.75033 1.22583 8.88213 0.991482 9.11648C0.757133 9.35083 0.625331 9.66858 0.625 10V18.75C0.625331 19.0814 0.757133 19.3992 0.991482 19.6335C1.22583 19.8679 1.54358 19.9997 1.875 20H5.29052L8.855 25.3467C8.93268 25.4632 9.04725 25.5502 9.18032 25.5939C9.31339 25.6375 9.45725 25.6351 9.58883 25.5872C9.7204 25.5393 9.83207 25.4485 9.90592 25.3296C9.97976 25.2106 10.0115 25.0702 9.99605 24.9311L9.44824 20H13.125C13.4564 19.9997 13.7742 19.8679 14.0085 19.6335C14.2429 19.3992 14.3747 19.0814 14.375 18.75V14.375H17.6279L19.3909 22.0157C19.4227 22.1534 19.5003 22.2762 19.6109 22.3642C19.7215 22.4521 19.8587 22.5 20 22.5C20.1413 22.5 20.2785 22.4521 20.3891 22.3642C20.4997 22.2762 20.5773 22.1534 20.6091 22.0157L22.3721 14.375H25.625V20C25.6253 20.3314 25.7571 20.6492 25.9915 20.8835C26.2258 21.1179 26.5436 21.2497 26.875 21.25H30.5295L30.0064 24.9115C29.9873 25.0454 30.0121 25.1819 30.0771 25.3005C30.1422 25.4191 30.244 25.5134 30.3672 25.5692C30.4904 25.625 30.6284 25.6394 30.7604 25.6101C30.8925 25.5808 31.0115 25.5095 31.0995 25.4068L34.6625 21.25H38.125C38.4564 21.2497 38.7742 21.1179 39.0085 20.8835C39.2429 20.6492 39.3747 20.3314 39.375 20V11.25C39.3747 10.9186 39.2429 10.6008 39.0085 10.3665C38.7742 10.1321 38.4564 10.0003 38.125 10ZM13.125 18.75H8.75C8.6621 18.75 8.57519 18.7685 8.49495 18.8044C8.4147 18.8402 8.34293 18.8926 8.28431 18.9581C8.2257 19.0236 8.18156 19.1007 8.1548 19.1845C8.12803 19.2682 8.11923 19.3566 8.12897 19.444L8.47016 22.5158L6.145 19.0283C6.08794 18.9427 6.01062 18.8725 5.91991 18.8239C5.82919 18.7754 5.72789 18.75 5.625 18.75H1.875V10H11.875V13.1494C11.8754 13.4743 12.0047 13.7858 12.2344 14.0156C12.4642 14.2453 12.7757 14.3746 13.1006 14.375H13.125V18.75ZM21.875 13.125C21.7337 13.125 21.5965 13.1729 21.4859 13.2608C21.3753 13.3488 21.2977 13.4716 21.2659 13.6093L20 19.0955L18.7341 13.6093C18.7023 13.4716 18.6247 13.3488 18.5141 13.2608C18.4035 13.1729 18.2663 13.125 18.125 13.125L13.125 13.1494L13.1006 1.875L26.875 1.85059V13.125H21.875ZM38.125 20H34.375C34.2848 20 34.1957 20.0195 34.1138 20.0571C34.0319 20.0948 33.9591 20.1497 33.9004 20.2182L31.5472 22.9636L31.8686 20.7135C31.8813 20.6249 31.8748 20.5345 31.8495 20.4486C31.8243 20.3627 31.7808 20.2832 31.7222 20.2155C31.6635 20.1479 31.591 20.0936 31.5095 20.0564C31.4281 20.0192 31.3396 20 31.25 20H26.875V14.375H26.8994C27.2243 14.3746 27.5358 14.2453 27.7656 14.0156C27.9953 13.7858 28.1246 13.4743 28.125 13.1494V11.25H38.125V20Z" fill="white"/>
<path d="M28.125 10H20.125V18H28.125V10ZM28.125 1.85059H36.125L36.125 1.84045L28.125 1.85059ZM26.8994 0.625L26.9096 -7.375H26.8994V0.625ZM13.1006 0.625V-7.37501L13.0904 -7.37499L13.1006 0.625ZM11.875 1.85059L3.875 1.84045V1.85059H11.875ZM11.875 8.75V16.75H19.875V8.75H11.875ZM1.875 8.75V0.749996L1.86701 0.750004L1.875 8.75ZM0.625 10L-7.375 9.99201V10H0.625ZM0.625 18.75H-7.375L-7.375 18.758L0.625 18.75ZM1.875 20L1.86701 28H1.875V20ZM5.29052 20L11.9469 15.5624L9.57198 12H5.29052V20ZM8.855 25.3467L2.19861 29.7843L2.19881 29.7846L8.855 25.3467ZM9.99605 24.9311L17.9472 24.0483L17.9471 24.0477L9.99605 24.9311ZM9.44824 20V12H0.510284L1.49716 20.8833L9.44824 20ZM13.125 20V28L13.133 28L13.125 20ZM14.375 18.75L22.375 18.758V18.75H14.375ZM14.375 14.375V6.375H6.375V14.375H14.375ZM17.6279 14.375L25.423 12.5764L23.9922 6.375H17.6279V14.375ZM19.3909 22.0157L11.5957 23.8143L11.5966 23.8185L19.3909 22.0157ZM20.6091 22.0157L28.4034 23.8185L28.4043 23.8143L20.6091 22.0157ZM22.3721 14.375V6.375H16.0078L14.5769 12.5764L22.3721 14.375ZM25.625 14.375H33.625V6.375H25.625V14.375ZM25.625 20H17.625L17.625 20.008L25.625 20ZM26.875 21.25L26.867 29.25H26.875V21.25ZM30.5295 21.25L38.4491 22.3814L39.7536 13.25H30.5295V21.25ZM30.0064 24.9115L37.926 26.0431L37.926 26.0429L30.0064 24.9115ZM31.0995 25.4068L37.172 30.615L37.1736 30.6131L31.0995 25.4068ZM34.6625 21.25V13.25H30.983L28.5884 16.0437L34.6625 21.25ZM38.125 21.25V29.25L38.133 29.25L38.125 21.25ZM39.375 20L47.375 20.008V20H39.375ZM39.375 11.25H47.375L47.375 11.242L39.375 11.25ZM13.125 18.75V26.75H21.125V18.75H13.125ZM8.75 18.75L8.74801 26.75H8.75V18.75ZM8.12897 19.444L16.0801 18.5609L16.0797 18.5573L8.12897 19.444ZM8.47016 22.5158L1.81388 26.9536L16.4213 21.6327L8.47016 22.5158ZM6.145 19.0283L-0.512336 23.4645L-0.511279 23.4661L6.145 19.0283ZM5.625 18.75V26.75H5.62613L5.625 18.75ZM1.875 18.75H-6.125V26.75H1.875V18.75ZM1.875 10V2H-6.125V10H1.875ZM11.875 10H19.875V2H11.875V10ZM11.875 13.1494H3.87499L3.87501 13.1596L11.875 13.1494ZM13.1006 14.375L13.0904 22.375H13.1006V14.375ZM13.125 14.375H21.125V6.375H13.125V14.375ZM21.875 13.125L21.8744 21.125H21.875V13.125ZM21.2659 13.6093L13.4715 11.807L13.4707 11.8107L21.2659 13.6093ZM20 19.0955L12.2048 20.8941H27.7952L20 19.0955ZM18.7341 13.6093L26.5293 11.8107L26.5285 11.807L18.7341 13.6093ZM18.125 13.125L18.1244 5.125L18.1052 5.125L18.0859 5.1251L18.125 13.125ZM13.125 13.1494L5.12502 13.1667L5.14239 21.1885L13.1641 21.1493L13.125 13.1494ZM13.1006 1.875L13.0864 -6.12499L5.08328 -6.1108L5.10061 1.89232L13.1006 1.875ZM26.875 1.85059H34.875V-6.1636L26.8608 -6.1494L26.875 1.85059ZM26.875 13.125V21.125H34.875V13.125H26.875ZM38.125 20V28H46.125V20H38.125ZM34.375 20L34.373 28H34.375V20ZM33.9004 20.2182L39.9745 25.4246L39.9747 25.4243L33.9004 20.2182ZM31.5472 22.9636L23.6276 21.8325L19.7438 49.0267L37.6213 28.1699L31.5472 22.9636ZM31.8686 20.7135L23.9495 19.5788L23.949 19.5824L31.8686 20.7135ZM31.25 20V28H31.2505L31.25 20ZM26.875 20H18.875V28H26.875V20ZM26.875 14.375V6.375H18.875V14.375H26.875ZM26.8994 14.375V22.375L26.9096 22.375L26.8994 14.375ZM28.125 13.1494L36.125 13.1596V13.1494H28.125ZM28.125 11.25V3.25H20.125V11.25H28.125ZM38.125 11.25H46.125V3.25H38.125V11.25ZM38.125 2H28.125V18H38.125V2ZM36.125 10V1.85059H20.125V10H36.125ZM36.125 1.84045C36.1219 -0.602683 35.15 -2.94487 33.4224 -4.67243L22.1087 6.64128C20.8407 5.37322 20.1273 3.65402 20.125 1.86073L36.125 1.84045ZM33.4224 -4.67243C31.6949 -6.4 29.3527 -7.3719 26.9096 -7.37499L26.8893 8.62499C25.096 8.62272 23.3768 7.90934 22.1087 6.64128L33.4224 -4.67243ZM26.8994 -7.375H13.1006V8.625H26.8994V-7.375ZM13.0904 -7.37499C10.6473 -7.3719 8.30513 -6.39999 6.57757 -4.67243L17.8913 6.64128C16.6232 7.90933 14.904 8.62272 13.1107 8.62499L13.0904 -7.37499ZM6.57757 -4.67243C4.85 -2.94487 3.8781 -0.602683 3.87501 1.84045L19.875 1.86073C19.8727 3.65402 19.1593 5.37322 17.8913 6.64128L6.57757 -4.67243ZM3.875 1.85059V8.75H19.875V1.85059H3.875ZM11.875 0.75H1.875V16.75H11.875V0.75ZM1.86701 0.750004C-0.583372 0.752451 -2.93269 1.72695 -4.66537 3.45963L6.64834 14.7733C5.38435 16.0373 3.67053 16.7482 1.88299 16.75L1.86701 0.750004ZM-4.66537 3.45963C-6.39805 5.19231 -7.37255 7.54163 -7.375 9.99201L8.625 10.008C8.62321 11.7955 7.91232 13.5094 6.64834 14.7733L-4.66537 3.45963ZM-7.375 10V18.75H8.625V10H-7.375ZM-7.375 18.758C-7.37255 21.2084 -6.39806 23.5577 -4.66537 25.2904L6.64834 13.9767C7.91232 15.2407 8.62321 16.9545 8.625 18.742L-7.375 18.758ZM-4.66537 25.2904C-2.93268 27.0231 -0.583362 27.9975 1.86701 28L1.88299 12C3.67052 12.0018 5.38435 12.7127 6.64834 13.9767L-4.66537 25.2904ZM1.875 28H5.29052V12H1.875V28ZM-1.36587 24.4376L2.19861 29.7843L15.5114 20.9091L11.9469 15.5624L-1.36587 24.4376ZM2.19881 29.7846C3.27098 31.3927 4.85218 32.594 6.68872 33.196L11.6719 17.9917C13.2423 18.5064 14.5944 19.5337 15.5112 20.9088L2.19881 29.7846ZM6.68872 33.196C8.52526 33.7979 10.5108 33.7656 12.3268 33.1041L6.85082 18.0703C8.4037 17.5047 10.1015 17.4771 11.6719 17.9917L6.68872 33.196ZM12.3268 33.1041C14.1428 32.4426 15.684 31.1903 16.7032 29.5482L3.10864 21.1109C3.98013 19.7067 5.29799 18.6359 6.85082 18.0703L12.3268 33.1041ZM16.7032 29.5482C17.7224 27.9061 18.1605 25.9692 17.9472 24.0483L2.04491 25.8138C1.86254 24.1713 2.23715 22.5151 3.10864 21.1109L16.7032 29.5482ZM17.9471 24.0477L17.3993 19.1167L1.49716 20.8833L2.04496 25.8144L17.9471 24.0477ZM9.44824 28H13.125V12H9.44824V28ZM13.133 28C15.5834 27.9975 17.9327 27.0231 19.6654 25.2904L8.35166 13.9767C9.61566 12.7127 11.3295 12.0018 13.117 12L13.133 28ZM19.6654 25.2904C21.3981 23.5577 22.3725 21.2084 22.375 18.758L6.375 18.742C6.37679 16.9545 7.08767 15.2407 8.35166 13.9767L19.6654 25.2904ZM22.375 18.75V14.375H6.375V18.75H22.375ZM14.375 22.375H17.6279V6.375H14.375V22.375ZM9.83269 16.1736L11.5957 23.8143L27.1861 20.217L25.423 12.5764L9.83269 16.1736ZM11.5966 23.8185C12.036 25.718 13.106 27.4127 14.632 28.626L24.5897 16.1023C25.8946 17.1398 26.8094 18.5888 27.1851 20.2129L11.5966 23.8185ZM14.632 28.626C16.1582 29.8395 18.0503 30.5 20 30.5V14.5C21.667 14.5 23.2849 15.0648 24.5897 16.1023L14.632 28.626ZM20 30.5C21.9497 30.5 23.8419 29.8395 25.368 28.626L15.4103 16.1023C16.7151 15.0648 18.333 14.5 20 14.5V30.5ZM25.368 28.626C26.894 27.4127 27.964 25.718 28.4034 23.8185L12.8149 20.2129C13.1906 18.5887 14.1054 17.1398 15.4103 16.1023L25.368 28.626ZM28.4043 23.8143L30.1673 16.1736L14.5769 12.5764L12.8139 20.217L28.4043 23.8143ZM22.3721 22.375H25.625V6.375H22.3721V22.375ZM17.625 14.375V20H33.625V14.375H17.625ZM17.625 20.008C17.6275 22.4584 18.602 24.8077 20.3346 26.5404L31.6483 15.2267C32.9123 16.4906 33.6232 18.2045 33.625 19.992L17.625 20.008ZM20.3346 26.5404C22.0673 28.273 24.4166 29.2475 26.867 29.25L26.883 13.25C28.6705 13.2518 30.3844 13.9627 31.6483 15.2267L20.3346 26.5404ZM26.875 29.25H30.5295V13.25H26.875V29.25ZM22.6099 20.1186L22.0868 23.7801L37.926 26.0429L38.4491 22.3814L22.6099 20.1186ZM22.0868 23.7799C21.8228 25.6277 22.1653 27.5113 23.0631 29.1479L37.0912 21.453C37.8588 22.8525 38.1517 24.4631 37.926 26.0431L22.0868 23.7799ZM23.0631 29.1479C23.9608 30.7845 25.3652 32.0857 27.0655 32.8561L33.6689 18.2823C35.1227 18.941 36.3236 20.0536 37.0912 21.453L23.0631 29.1479ZM27.0655 32.8561C28.7657 33.6265 30.67 33.8245 32.4923 33.4204L29.0285 17.7998C30.5868 17.4543 32.2151 17.6236 33.6689 18.2823L27.0655 32.8561ZM32.4923 33.4204C34.3147 33.0163 35.9568 32.0319 37.172 30.615L25.0271 20.1986C26.0662 18.9871 27.4703 18.1453 29.0285 17.7998L32.4923 33.4204ZM37.1736 30.6131L40.7366 26.4563L28.5884 16.0437L25.0255 20.2005L37.1736 30.6131ZM34.6625 29.25H38.125V13.25H34.6625V29.25ZM38.133 29.25C40.5834 29.2475 42.9327 28.273 44.6654 26.5404L33.3517 15.2267C34.6156 13.9627 36.3295 13.2518 38.117 13.25L38.133 29.25ZM44.6654 26.5404C46.398 24.8077 47.3726 22.4584 47.375 20.008L31.375 19.992C31.3768 18.2045 32.0877 16.4906 33.3517 15.2267L44.6654 26.5404ZM47.375 20V11.25H31.375V20H47.375ZM47.375 11.242C47.3726 8.79162 46.398 6.4423 44.6654 4.70963L33.3517 16.0233C32.0877 14.7594 31.3768 13.0455 31.375 11.258L47.375 11.242ZM44.6654 4.70963C42.9327 2.97694 40.5834 2.00245 38.133 2L38.117 18C36.3295 17.9982 34.6157 17.2873 33.3517 16.0233L44.6654 4.70963ZM13.125 10.75H8.75V26.75H13.125V10.75ZM8.75199 10.75C7.53854 10.7497 6.33868 11.0055 5.23082 11.5006L11.7591 26.1082C10.8117 26.5316 9.78567 26.7503 8.74801 26.75L8.75199 10.75ZM5.23082 11.5006C4.12295 11.9957 3.13205 12.719 2.32286 13.6232L14.2458 24.293C13.5538 25.0662 12.7065 25.6848 11.7591 26.1082L5.23082 11.5006ZM2.32286 13.6232C1.51366 14.5275 0.904368 15.5923 0.534812 16.7481L15.7748 21.6208C15.4588 22.6092 14.9377 23.5198 14.2458 24.293L2.32286 13.6232ZM0.534812 16.7481C0.165265 17.9039 0.043762 19.1247 0.178261 20.3307L16.0797 18.5573C16.1947 19.5885 16.0908 20.6325 15.7748 21.6208L0.534812 16.7481ZM0.177861 20.3271L0.519049 23.399L16.4213 21.6327L16.0801 18.5609L0.177861 20.3271ZM15.1264 18.0781L12.8013 14.5905L-0.511279 23.4661L1.81388 26.9536L15.1264 18.0781ZM12.8023 14.5921C12.0147 13.4101 10.9473 12.441 9.69502 11.7707L2.1448 25.8772C1.0739 25.304 0.161175 24.4752 -0.512336 23.4645L12.8023 14.5921ZM9.69502 11.7707C8.4427 11.1004 7.04425 10.7498 5.62387 10.75L5.62613 26.75C4.41154 26.7502 3.21568 26.4504 2.1448 25.8772L9.69502 11.7707ZM5.625 10.75H1.875V26.75H5.625V10.75ZM9.875 18.75V10H-6.125V18.75H9.875ZM1.875 18H11.875V2H1.875V18ZM3.875 10V13.1494H19.875V10H3.875ZM3.87501 13.1596C3.8781 15.6027 4.85 17.9449 6.57757 19.6724L17.8913 8.35873C19.1593 9.62678 19.8727 11.346 19.875 13.1393L3.87501 13.1596ZM6.57757 19.6724C8.30513 21.4 10.6473 22.3719 13.0904 22.375L13.1107 6.37501C14.904 6.37728 16.6232 7.09067 17.8913 8.35873L6.57757 19.6724ZM13.1006 22.375H13.125V6.375H13.1006V22.375ZM5.125 14.375V18.75H21.125V14.375H5.125ZM21.8756 5.125C19.9257 5.12485 18.0333 5.78541 16.5071 6.99889L26.4647 19.5227C25.1597 20.5603 23.5416 21.1251 21.8744 21.125L21.8756 5.125ZM16.5071 6.99889C14.9809 8.21238 13.9108 9.90722 13.4715 11.807L29.0602 15.4117C28.6846 17.036 27.7697 18.4852 26.4647 19.5227L16.5071 6.99889ZM13.4707 11.8107L12.2048 17.2968L27.7952 20.8941L29.0611 15.408L13.4707 11.8107ZM27.7952 17.2968L26.5293 11.8107L10.939 15.408L12.2048 20.8941L27.7952 17.2968ZM26.5285 11.807C26.0892 9.90722 25.0191 8.21238 23.4929 6.99889L13.5353 19.5227C12.2303 18.4852 11.3154 17.036 10.9398 15.4117L26.5285 11.807ZM23.4929 6.99889C21.9667 5.78541 20.0743 5.12485 18.1244 5.125L18.1256 21.125C16.4584 21.1251 14.8403 20.5603 13.5353 19.5227L23.4929 6.99889ZM18.0859 5.1251L13.0859 5.14951L13.1641 21.1493L18.1641 21.1249L18.0859 5.1251ZM21.125 13.1321L21.1006 1.85768L5.10061 1.89232L5.12502 13.1667L21.125 13.1321ZM13.1148 9.87499L26.8892 9.85057L26.8608 -6.1494L13.0864 -6.12499L13.1148 9.87499ZM18.875 1.85059V13.125H34.875V1.85059H18.875ZM26.875 5.125H21.875V21.125H26.875V5.125ZM38.125 12H34.375V28H38.125V12ZM34.377 12C33.1325 11.9997 31.9026 12.2687 30.7718 12.7887L37.4559 27.3256C36.4889 27.7702 35.4372 28.0003 34.373 28L34.377 12ZM30.7718 12.7887C29.6409 13.3086 28.6361 14.0672 27.8262 15.0121L39.9747 25.4243C39.2821 26.2323 38.4229 26.881 37.4559 27.3256L30.7718 12.7887ZM27.8264 15.0118L25.4732 17.7572L37.6213 28.1699L39.9745 25.4246L27.8264 15.0118ZM39.4669 24.0946L39.7882 21.8446L23.949 19.5824L23.6276 21.8325L39.4669 24.0946ZM39.7877 21.8482C39.963 20.6247 39.8733 19.3778 39.5246 18.1918L24.1744 22.7054C23.8763 21.6912 23.7996 20.625 23.9495 19.5788L39.7877 21.8482ZM39.5246 18.1918C39.1759 17.0059 38.5763 15.9088 37.7667 14.975L25.6776 25.4561C24.9853 24.6576 24.4726 23.7195 24.1744 22.7054L39.5246 18.1918ZM37.7667 14.975C36.9571 14.0411 35.9561 13.2921 34.8316 12.7788L28.1875 27.334C27.2259 26.8951 26.37 26.2546 25.6776 25.4561L37.7667 14.975ZM34.8316 12.7788C33.7072 12.2655 32.4855 11.9999 31.2495 12L31.2505 28C30.1936 28.0001 29.149 27.773 28.1875 27.334L34.8316 12.7788ZM31.25 12H26.875V28H31.25V12ZM34.875 20V14.375H18.875V20H34.875ZM26.875 22.375H26.8994V6.375H26.875V22.375ZM26.9096 22.375C29.3527 22.3719 31.6949 21.4 33.4224 19.6724L22.1087 8.35873C23.3768 7.09066 25.096 6.37728 26.8893 6.37501L26.9096 22.375ZM33.4224 19.6724C35.15 17.9449 36.1219 15.6027 36.125 13.1596L20.125 13.1393C20.1273 11.346 20.8407 9.62678 22.1087 8.35873L33.4224 19.6724ZM36.125 13.1494V11.25H20.125V13.1494H36.125ZM28.125 19.25H38.125V3.25H28.125V19.25ZM30.125 11.25V20H46.125V11.25H30.125Z" fill="white" mask="url(#path-1-inside-1_2461_17698)"/>
<path d="M5.625 34.375V38.75C5.625 38.9158 5.69085 39.0747 5.80806 39.1919C5.92527 39.3092 6.08424 39.375 6.25 39.375H13.75C13.9158 39.375 14.0747 39.3092 14.1919 39.1919C14.3092 39.0747 14.375 38.9158 14.375 38.75V34.375C14.3727 33.7152 14.1612 33.0732 13.7709 32.5413C13.3807 32.0093 12.8318 31.6148 12.2032 31.4144C12.5952 30.924 12.8099 30.3154 12.8125 29.6875C12.8125 28.9416 12.5162 28.2262 11.9887 27.6988C11.4613 27.1713 10.7459 26.875 10 26.875C9.25408 26.875 8.53871 27.1713 8.01126 27.6988C7.48382 28.2262 7.1875 28.9416 7.1875 29.6875C7.19008 30.3154 7.4048 30.924 7.79682 31.4144C7.16821 31.6148 6.61933 32.0093 6.22908 32.5413C5.83884 33.0732 5.62734 33.7152 5.625 34.375ZM10 28.125C10.309 28.125 10.6111 28.2166 10.8681 28.3883C11.125 28.56 11.3253 28.804 11.4436 29.0896C11.5618 29.3751 11.5928 29.6892 11.5325 29.9923C11.4722 30.2954 11.3234 30.5738 11.1049 30.7924C10.8863 31.0109 10.6079 31.1597 10.3048 31.22C10.0017 31.2803 9.68757 31.2493 9.40206 31.1311C9.11655 31.0128 8.87252 30.8125 8.70083 30.5556C8.52914 30.2986 8.4375 29.9965 8.4375 29.6875C8.43799 29.2732 8.60276 28.8761 8.89568 28.5832C9.1886 28.2903 9.58575 28.1255 10 28.125ZM6.875 34.375C6.87554 33.8779 7.07326 33.4013 7.42477 33.0498C7.77629 32.6983 8.25289 32.5005 8.75 32.5H11.25C11.7471 32.5005 12.2237 32.6983 12.5752 33.0498C12.9267 33.4013 13.1245 33.8779 13.125 34.375V38.125H6.875V34.375Z" fill="white"/>
<path d="M15.625 34.375V38.75C15.625 38.9158 15.6908 39.0747 15.8081 39.1919C15.9253 39.3092 16.0842 39.375 16.25 39.375H23.75C23.9158 39.375 24.0747 39.3092 24.1919 39.1919C24.3092 39.0747 24.375 38.9158 24.375 38.75V34.375C24.3727 33.7152 24.1612 33.0732 23.7709 32.5413C23.3807 32.0093 22.8318 31.6148 22.2032 31.4144C22.5952 30.924 22.8099 30.3154 22.8125 29.6875C22.8125 28.9416 22.5162 28.2262 21.9887 27.6988C21.4613 27.1713 20.7459 26.875 20 26.875C19.2541 26.875 18.5387 27.1713 18.0113 27.6988C17.4838 28.2262 17.1875 28.9416 17.1875 29.6875C17.1901 30.3154 17.4048 30.924 17.7968 31.4144C17.1682 31.6148 16.6193 32.0093 16.2291 32.5413C15.8388 33.0732 15.6273 33.7152 15.625 34.375ZM20 28.125C20.309 28.125 20.6111 28.2166 20.8681 28.3883C21.125 28.56 21.3253 28.804 21.4436 29.0896C21.5618 29.3751 21.5928 29.6892 21.5325 29.9923C21.4722 30.2954 21.3234 30.5738 21.1049 30.7924C20.8863 31.0109 20.6079 31.1597 20.3048 31.22C20.0017 31.2803 19.6876 31.2493 19.4021 31.1311C19.1165 31.0128 18.8725 30.8125 18.7008 30.5556C18.5291 30.2986 18.4375 29.9965 18.4375 29.6875C18.438 29.2732 18.6028 28.8761 18.8957 28.5832C19.1886 28.2903 19.5857 28.1255 20 28.125ZM16.875 34.375C16.8755 33.8779 17.0733 33.4013 17.4248 33.0498C17.7763 32.6983 18.2529 32.5005 18.75 32.5H21.25C21.7471 32.5005 22.2237 32.6983 22.5752 33.0498C22.9267 33.4013 23.1245 33.8779 23.125 34.375V38.125H16.875V34.375Z" fill="white"/>
<path d="M25.625 34.375V38.75C25.625 38.9158 25.6908 39.0747 25.8081 39.1919C25.9253 39.3092 26.0842 39.375 26.25 39.375H33.75C33.9158 39.375 34.0747 39.3092 34.1919 39.1919C34.3092 39.0747 34.375 38.9158 34.375 38.75V34.375C34.3727 33.7152 34.1612 33.0732 33.7709 32.5413C33.3807 32.0093 32.8318 31.6148 32.2032 31.4144C32.5952 30.924 32.8099 30.3154 32.8125 29.6875C32.8125 28.9416 32.5162 28.2262 31.9887 27.6988C31.4613 27.1713 30.7459 26.875 30 26.875C29.2541 26.875 28.5387 27.1713 28.0113 27.6988C27.4838 28.2262 27.1875 28.9416 27.1875 29.6875C27.1901 30.3154 27.4048 30.924 27.7968 31.4144C27.1682 31.6148 26.6193 32.0093 26.2291 32.5413C25.8388 33.0732 25.6273 33.7152 25.625 34.375ZM30 28.125C30.309 28.125 30.6111 28.2166 30.8681 28.3883C31.125 28.56 31.3253 28.804 31.4436 29.0896C31.5618 29.3751 31.5928 29.6892 31.5325 29.9923C31.4722 30.2954 31.3234 30.5738 31.1049 30.7924C30.8863 31.0109 30.6079 31.1597 30.3048 31.22C30.0017 31.2803 29.6876 31.2493 29.4021 31.1311C29.1165 31.0128 28.8725 30.8125 28.7008 30.5556C28.5291 30.2986 28.4375 29.9965 28.4375 29.6875C28.438 29.2732 28.6028 28.8761 28.8957 28.5832C29.1886 28.2903 29.5857 28.1255 30 28.125ZM26.875 34.375C26.8755 33.8779 27.0733 33.4013 27.4248 33.0498C27.7763 32.6983 28.2529 32.5005 28.75 32.5H31.25C31.7471 32.5005 32.2237 32.6983 32.5752 33.0498C32.9267 33.4013 33.1245 33.8779 33.125 34.375V38.125H26.875V34.375Z" fill="white"/>
<path d="M32.1553 18.6464C32.2576 18.7141 32.3775 18.7502 32.5002 18.7502C32.6228 18.7502 32.7427 18.7141 32.845 18.6464C33.6809 18.0937 35.6252 16.6286 35.6252 14.9666C35.6402 14.5516 35.5085 14.1446 35.2534 13.817C34.9983 13.4893 34.6359 13.262 34.2299 13.1749C33.9304 13.1078 33.6197 13.1084 33.3204 13.1767C33.0212 13.2449 32.741 13.3791 32.5002 13.5695C32.2594 13.3791 31.9792 13.2449 31.6799 13.1766C31.3807 13.1084 31.07 13.1078 30.7704 13.1749C30.3644 13.262 30.0021 13.4893 29.7469 13.817C29.4918 14.1446 29.3602 14.5516 29.3752 14.9666C29.3752 16.6286 31.3194 18.0937 32.1553 18.6464ZM31.0469 14.3938C31.2206 14.3554 31.402 14.3757 31.5629 14.4513C31.7238 14.5269 31.8552 14.6537 31.9365 14.8119C31.9874 14.9182 32.0673 15.008 32.167 15.0709C32.2668 15.1337 32.3823 15.1671 32.5002 15.1671C32.6181 15.1671 32.7336 15.1337 32.8333 15.0709C32.933 15.008 33.013 14.9182 33.0638 14.8119C33.1435 14.6522 33.2746 14.5242 33.436 14.4483C33.5974 14.3724 33.7797 14.3532 33.9534 14.3938C34.0834 14.4176 34.1994 14.4902 34.2778 14.5966C34.3562 14.703 34.391 14.8354 34.3752 14.9666C34.3752 15.6901 33.4807 16.6472 32.5002 17.364C31.5196 16.6472 30.6252 15.6901 30.6252 14.9666C30.6094 14.8354 30.6442 14.703 30.7225 14.5966C30.8009 14.4902 30.9169 14.4176 31.0469 14.3938Z" fill="white"/>
<path d="M9.22991 11.9249C8.9304 11.8578 8.61968 11.8584 8.32042 11.9266C8.02116 11.9949 7.74093 12.1291 7.50018 12.3195C7.25937 12.1292 6.97914 11.995 6.6799 11.9268C6.38066 11.8585 6.06995 11.8579 5.77044 11.9249C5.36443 12.0121 5.00208 12.2394 4.74694 12.567C4.4918 12.8946 4.36019 13.3016 4.37518 13.7166C4.37518 15.3786 6.31945 16.8438 7.15533 17.3964C7.2576 17.4641 7.37753 17.5002 7.50018 17.5002C7.62282 17.5002 7.74275 17.4641 7.84503 17.3964C8.6809 16.8438 10.6252 15.3786 10.6252 13.7166C10.6402 13.3016 10.5085 12.8946 10.2534 12.567C9.99828 12.2394 9.63592 12.0121 9.22991 11.9249ZM7.50018 16.1141C6.51964 15.3972 5.62518 14.4402 5.62518 13.7166C5.60936 13.5854 5.64418 13.4531 5.72255 13.3467C5.80091 13.2402 5.91692 13.1677 6.04693 13.1438C6.22056 13.1055 6.402 13.1257 6.56292 13.2014C6.72385 13.277 6.85521 13.4038 6.93651 13.5619C6.98738 13.6683 7.0673 13.7581 7.16705 13.8209C7.26679 13.8838 7.38228 13.9171 7.50018 13.9171C7.61807 13.9171 7.73356 13.8838 7.83331 13.8209C7.93305 13.7581 8.01297 13.6683 8.06384 13.5619C8.14357 13.4024 8.27471 13.2744 8.4361 13.1985C8.59749 13.1227 8.77973 13.1034 8.95343 13.1438C9.08343 13.1677 9.19944 13.2402 9.2778 13.3467C9.35617 13.4531 9.391 13.5854 9.37518 13.7166C9.37518 14.4402 8.48071 15.3972 7.50018 16.1141Z" fill="white"/>
<path d="M22.5723 3.82484C22.1223 3.72131 21.654 3.72693 21.2066 3.84122C20.7592 3.95552 20.3456 4.17519 20.0003 4.48189C19.6551 4.17506 19.2415 3.95531 18.7941 3.84101C18.3466 3.7267 17.8783 3.72116 17.4283 3.82484C16.906 3.93193 16.4385 4.22039 16.1085 4.63913C15.7785 5.05788 15.6073 5.5799 15.6253 6.11274C15.6253 8.42781 18.7189 10.5567 19.6671 11.1539C19.7669 11.2167 19.8824 11.2501 20.0003 11.2501C20.1182 11.2501 20.2338 11.2167 20.3336 11.1539C21.2817 10.5567 24.3753 8.42781 24.3753 6.11274C24.3933 5.5799 24.2221 5.05788 23.8921 4.63913C23.5621 4.22039 23.0946 3.93193 22.5723 3.82484ZM20.0003 9.87953C18.4903 8.86574 16.8753 7.35328 16.8753 6.11274C16.8598 5.86202 16.937 5.61435 17.0922 5.41681C17.2474 5.21926 17.4697 5.08562 17.717 5.04127C17.8331 5.01415 17.952 5.00063 18.0713 5.00099C18.35 4.99292 18.6255 5.06207 18.8674 5.20081C19.1093 5.33955 19.3081 5.54246 19.4418 5.78712C19.4996 5.88371 19.5814 5.96367 19.6793 6.01919C19.7772 6.07471 19.8878 6.1039 20.0003 6.1039C20.1128 6.1039 20.2235 6.07471 20.3213 6.01919C20.4192 5.96367 20.501 5.88371 20.5588 5.78712C20.7255 5.49165 20.9844 5.25882 21.2958 5.12416C21.6072 4.9895 21.9541 4.96039 22.2836 5.04127C22.5309 5.08562 22.7532 5.21926 22.9084 5.41681C23.0636 5.61435 23.1408 5.86202 23.1253 6.11274C23.1253 7.35329 21.5103 8.86574 20.0003 9.87953Z" fill="white"/>
</g>
<defs>
<clipPath id="clip0_2461_17698">
<rect width="40" height="40" fill="white"/>
</clipPath>
</defs>
</svg>
