<svg width="20" height="20" viewBox="0 0 20 20" fill="none" xmlns="http://www.w3.org/2000/svg">
<mask id="path-1-inside-1_4488_19223" fill="white">
<path d="M14.8614 1.66699H5.13921C4.21866 1.66809 3.33613 2.03427 2.6852 2.6852C2.03427 3.33613 1.66809 4.21866 1.66699 5.13921L1.66699 14.8614C1.66809 15.782 2.03427 16.6645 2.6852 17.3155C3.33613 17.9664 4.21866 18.3326 5.13921 18.3337H14.8614C15.782 18.3326 16.6645 17.9664 17.3155 17.3155C17.9664 16.6645 18.3326 15.782 18.3337 14.8614V5.13921C18.3326 4.21866 17.9664 3.33613 17.3155 2.6852C16.6645 2.03427 15.782 1.66809 14.8614 1.66699V1.66699ZM5.13921 3.05588H14.8614C15.414 3.05588 15.9439 3.27537 16.3346 3.66608C16.7253 4.05678 16.9448 4.58668 16.9448 5.13921V14.8614C16.9436 15.1708 16.8723 15.4759 16.7364 15.7538L10.3732 9.3906C10.0508 9.06808 9.66799 8.81224 9.24666 8.63768C8.82533 8.46313 8.37374 8.37329 7.91769 8.37329C7.46163 8.37329 7.01004 8.46313 6.58871 8.63768C6.16738 8.81224 5.78457 9.06808 5.46213 9.3906L3.05588 11.7962V5.13921C3.05588 4.58668 3.27537 4.05678 3.66608 3.66608C4.05678 3.27537 4.58668 3.05588 5.13921 3.05588ZM5.13921 16.9448C4.58668 16.9448 4.05678 16.7253 3.66608 16.3346C3.27537 15.9439 3.05588 15.414 3.05588 14.8614V13.76L6.44338 10.3725C6.63685 10.179 6.86658 10.0254 7.11943 9.92059C7.37228 9.81581 7.64329 9.76188 7.91699 9.76188C8.19069 9.76188 8.46171 9.81581 8.71456 9.92059C8.96741 10.0254 9.19713 10.179 9.3906 10.3725L15.7538 16.7364C15.4759 16.8723 15.1708 16.9436 14.8614 16.9448H5.13921Z"/>
</mask>
<path d="M14.8614 1.66699H5.13921C4.21866 1.66809 3.33613 2.03427 2.6852 2.6852C2.03427 3.33613 1.66809 4.21866 1.66699 5.13921L1.66699 14.8614C1.66809 15.782 2.03427 16.6645 2.6852 17.3155C3.33613 17.9664 4.21866 18.3326 5.13921 18.3337H14.8614C15.782 18.3326 16.6645 17.9664 17.3155 17.3155C17.9664 16.6645 18.3326 15.782 18.3337 14.8614V5.13921C18.3326 4.21866 17.9664 3.33613 17.3155 2.6852C16.6645 2.03427 15.782 1.66809 14.8614 1.66699V1.66699ZM5.13921 3.05588H14.8614C15.414 3.05588 15.9439 3.27537 16.3346 3.66608C16.7253 4.05678 16.9448 4.58668 16.9448 5.13921V14.8614C16.9436 15.1708 16.8723 15.4759 16.7364 15.7538L10.3732 9.3906C10.0508 9.06808 9.66799 8.81224 9.24666 8.63768C8.82533 8.46313 8.37374 8.37329 7.91769 8.37329C7.46163 8.37329 7.01004 8.46313 6.58871 8.63768C6.16738 8.81224 5.78457 9.06808 5.46213 9.3906L3.05588 11.7962V5.13921C3.05588 4.58668 3.27537 4.05678 3.66608 3.66608C4.05678 3.27537 4.58668 3.05588 5.13921 3.05588ZM5.13921 16.9448C4.58668 16.9448 4.05678 16.7253 3.66608 16.3346C3.27537 15.9439 3.05588 15.414 3.05588 14.8614V13.76L6.44338 10.3725C6.63685 10.179 6.86658 10.0254 7.11943 9.92059C7.37228 9.81581 7.64329 9.76188 7.91699 9.76188C8.19069 9.76188 8.46171 9.81581 8.71456 9.92059C8.96741 10.0254 9.19713 10.179 9.3906 10.3725L15.7538 16.7364C15.4759 16.8723 15.1708 16.9436 14.8614 16.9448H5.13921Z" fill="white"/>
<path d="M14.8614 1.66699V23.0003H36.1948V1.66699H14.8614ZM5.13921 1.66699V-19.6663H5.12644L5.11366 -19.6663L5.13921 1.66699ZM1.66699 5.13921L-19.6663 5.11366L-19.6663 5.12644V5.13921H1.66699ZM1.66699 14.8614H-19.6663V14.8742L-19.6663 14.887L1.66699 14.8614ZM5.13921 18.3337L5.11366 39.667L5.12644 39.667H5.13921V18.3337ZM14.8614 18.3337V39.667H14.8742L14.887 39.667L14.8614 18.3337ZM18.3337 14.8614L39.667 14.887L39.667 14.8742V14.8614H18.3337ZM18.3337 5.13921H39.667V5.12644L39.667 5.11366L18.3337 5.13921ZM14.8614 1.66699L14.887 -19.6663L-6.4719 -19.6919V1.66699H14.8614ZM16.9448 5.13921H38.2781H16.9448ZM16.9448 14.8614L38.2779 14.944L38.2781 14.9027V14.8614H16.9448ZM16.7364 15.7538L1.65149 30.8387L22.7763 51.9635L35.9009 25.1259L16.7364 15.7538ZM10.3732 9.3906L-4.71369 24.4736L-4.7117 24.4755L10.3732 9.3906ZM5.46213 9.3906L20.5449 24.4777L20.5491 24.4736L5.46213 9.3906ZM3.05588 11.7962H-18.2775V63.2889L18.1387 26.8833L3.05588 11.7962ZM3.05588 5.13921H-18.2775H3.05588ZM5.13921 3.05588V-18.2775V3.05588ZM5.13921 16.9448V38.2781V16.9448ZM3.05588 14.8614H-18.2775H3.05588ZM3.05588 13.76L-12.0291 -1.3249L-18.2775 4.92349V13.76H3.05588ZM6.44338 10.3725L21.5283 25.4575L21.5332 25.4527L6.44338 10.3725ZM9.3906 10.3725L-5.69918 25.4527L-5.69517 25.4567L9.3906 10.3725ZM15.7538 16.7364L25.1259 35.9009L51.962 22.777L30.8396 1.65232L15.7538 16.7364ZM14.8614 16.9448V38.2781H14.9027L14.944 38.2779L14.8614 16.9448ZM14.8614 -19.6663H5.13921V23.0003H14.8614V-19.6663ZM5.11366 -19.6663C-1.45599 -19.6585 -7.7543 -17.0452 -12.3997 -12.3997L17.7701 17.7701C14.4266 21.1137 9.89331 22.9946 5.16477 23.0003L5.11366 -19.6663ZM-12.3997 -12.3997C-17.0452 -7.7543 -19.6585 -1.45599 -19.6663 5.11366L23.0003 5.16477C22.9946 9.89331 21.1137 14.4266 17.7701 17.7701L-12.3997 -12.3997ZM-19.6663 5.13921V14.8614H23.0003V5.13921H-19.6663ZM-19.6663 14.887C-19.6585 21.4566 -17.0452 27.7549 -12.3997 32.4004L17.7701 2.23051C21.1137 5.5741 22.9946 10.1073 23.0003 14.8359L-19.6663 14.887ZM-12.3997 32.4004C-7.75429 37.0458 -1.45598 39.6591 5.11366 39.667L5.16477 -2.99966C9.8933 -2.994 14.4266 -1.11309 17.7701 2.23051L-12.3997 32.4004ZM5.13921 39.667H14.8614V-2.99967H5.13921V39.667ZM14.887 39.667C21.4566 39.6591 27.7549 37.0459 32.4004 32.4004L2.23051 2.23051C5.5741 -1.11309 10.1074 -2.994 14.8359 -2.99966L14.887 39.667ZM32.4004 32.4004C37.0459 27.7549 39.6591 21.4566 39.667 14.887L-2.99966 14.8359C-2.994 10.1074 -1.11309 5.5741 2.23051 2.23051L32.4004 32.4004ZM39.667 14.8614V5.13921H-2.99967V14.8614H39.667ZM39.667 5.11366C39.6591 -1.45598 37.0458 -7.75429 32.4004 -12.3997L2.23051 17.7701C-1.11309 14.4266 -2.994 9.8933 -2.99966 5.16477L39.667 5.11366ZM32.4004 -12.3997C27.7549 -17.0452 21.4566 -19.6585 14.887 -19.6663L14.8359 23.0003C10.1073 22.9946 5.5741 21.1137 2.23051 17.7701L32.4004 -12.3997ZM-6.4719 1.66699V1.66699H36.1948V1.66699H-6.4719ZM5.13921 24.3892H14.8614V-18.2775H5.13921V24.3892ZM14.8614 24.3892C9.75602 24.3892 4.85971 22.3611 1.24963 18.751L31.4195 -11.4189C27.028 -15.8103 21.0719 -18.2775 14.8614 -18.2775V24.3892ZM1.24963 18.751C-2.36045 15.1409 -4.38856 10.2446 -4.38856 5.13921H38.2781C38.2781 -1.07127 35.811 -7.02739 31.4195 -11.4189L1.24963 18.751ZM-4.38856 5.13921V14.8614H38.2781V5.13921H-4.38856ZM-4.3884 14.7788C-4.37713 11.8677 -3.70691 8.99691 -2.42798 6.3817L35.9009 25.1259C37.4516 21.9549 38.2643 18.4739 38.2779 14.944L-4.3884 14.7788ZM31.8214 0.668852L25.4582 -5.69434L-4.7117 24.4755L1.65149 30.8387L31.8214 0.668852ZM25.4602 -5.69235C23.1567 -7.99645 20.4218 -9.8242 17.4119 -11.0712L1.08145 28.3466C-1.08587 27.4487 -3.05507 26.1326 -4.71369 24.4736L25.4602 -5.69235ZM17.4119 -11.0712C14.4019 -12.3182 11.1758 -12.96 7.91769 -12.96V29.7066C5.57173 29.7066 3.24876 29.2445 1.08145 28.3466L17.4119 -11.0712ZM7.91769 -12.96C4.65962 -12.96 1.43347 -12.3182 -1.5765 -11.0712L14.7539 28.3466C12.5866 29.2445 10.2636 29.7066 7.91769 29.7066V-12.96ZM-1.5765 -11.0712C-4.58647 -9.8242 -7.32131 -7.99645 -9.6248 -5.69235L20.5491 24.4736C18.8904 26.1326 16.9212 27.4487 14.7539 28.3466L-1.5765 -11.0712ZM-9.62064 -5.69652L-12.0269 -3.29096L18.1387 26.8833L20.5449 24.4777L-9.62064 -5.69652ZM24.3892 11.7962V5.13921H-18.2775V11.7962H24.3892ZM24.3892 5.13921C24.3892 10.2446 22.3611 15.1409 18.751 18.751L-11.4189 -11.4189C-15.8103 -7.02739 -18.2775 -1.07127 -18.2775 5.13921H24.3892ZM18.751 18.751C15.1409 22.3611 10.2446 24.3892 5.13921 24.3892V-18.2775C-1.07127 -18.2775 -7.02739 -15.8103 -11.4189 -11.4189L18.751 18.751ZM5.13921 -4.38856C10.2446 -4.38856 15.1409 -2.36045 18.751 1.24963L-11.4189 31.4195C-7.02739 35.811 -1.07127 38.2781 5.13921 38.2781V-4.38856ZM18.751 1.24963C22.3611 4.85971 24.3892 9.75602 24.3892 14.8614H-18.2775C-18.2775 21.0719 -15.8103 27.028 -11.4189 31.4195L18.751 1.24963ZM24.3892 14.8614V13.76H-18.2775V14.8614H24.3892ZM18.1408 28.845L21.5283 25.4575L-8.64156 -4.7124L-12.0291 -1.3249L18.1408 28.845ZM21.5332 25.4527C19.7455 27.2415 17.6228 28.6605 15.2865 29.6287L-1.04764 -9.78753C-3.88965 -8.6098 -6.47176 -6.8836 -8.6464 -4.70756L21.5332 25.4527ZM15.2865 29.6287C12.9502 30.5969 10.446 31.0952 7.91699 31.0952V-11.5715C4.84058 -11.5715 1.79435 -10.9653 -1.04764 -9.78753L15.2865 29.6287ZM7.91699 31.0952C5.38798 31.0952 2.88379 30.5969 0.547487 29.6287L16.8816 -9.78753C14.0396 -10.9653 10.9934 -11.5715 7.91699 -11.5715V31.0952ZM0.547487 29.6287C-1.78884 28.6605 -3.91149 27.2415 -5.69917 25.4527L24.4804 -4.70756C22.3058 -6.88358 19.7237 -8.60979 16.8816 -9.78753L0.547487 29.6287ZM-5.69517 25.4567L0.66803 31.8206L30.8396 1.65232L24.4764 -4.71157L-5.69517 25.4567ZM6.3817 -2.42798C8.99691 -3.70691 11.8677 -4.37713 14.7788 -4.3884L14.944 38.2779C18.4739 38.2643 21.9549 37.4516 25.1259 35.9009L6.3817 -2.42798ZM14.8614 -4.38856H5.13921V38.2781H14.8614V-4.38856Z" fill="#32B66C" mask="url(#path-1-inside-1_4488_19223)"/>
<path d="M12.7782 8.95877C13.2589 8.95877 13.7289 8.81622 14.1286 8.54915C14.5283 8.28207 14.8398 7.90247 15.0238 7.45835C15.2077 7.01422 15.2558 6.52552 15.1621 6.05404C15.0683 5.58255 14.8368 5.14947 14.4969 4.80955C14.157 4.46963 13.7239 4.23814 13.2524 4.14436C12.7809 4.05058 12.2922 4.09871 11.8481 4.28267C11.404 4.46664 11.0244 4.77817 10.7573 5.17787C10.4902 5.57757 10.3477 6.04749 10.3477 6.52821C10.3477 7.17284 10.6037 7.79106 11.0595 8.24688C11.5154 8.70269 12.1336 8.95877 12.7782 8.95877ZM12.7782 5.48655C12.9842 5.48655 13.1856 5.54764 13.3569 5.6621C13.5282 5.77656 13.6617 5.93924 13.7406 6.12958C13.8194 6.31992 13.8401 6.52937 13.7999 6.73143C13.7597 6.9335 13.6605 7.1191 13.5148 7.26478C13.3691 7.41046 13.1835 7.50967 12.9814 7.54986C12.7794 7.59006 12.5699 7.56943 12.3796 7.49059C12.1892 7.41175 12.0266 7.27823 11.9121 7.10693C11.7976 6.93563 11.7365 6.73424 11.7365 6.52821C11.7365 6.25195 11.8463 5.98699 12.0416 5.79164C12.237 5.59629 12.5019 5.48655 12.7782 5.48655Z" fill="#32B66C"/>
</svg>
