<svg width="24" height="24" viewBox="0 0 24 24" fill="none" xmlns="http://www.w3.org/2000/svg">
<path d="M9.85557 4.72502C10.4667 4.57397 11.0925 4.49847 11.7201 4.50002C17.9354 4.50002 21.4869 12 21.4869 12C20.9479 13.0646 20.3052 14.0669 19.5691 14.9906M13.6025 13.9875C13.3586 14.2638 13.0645 14.4855 12.7378 14.6392C12.4111 14.7929 12.0583 14.8756 11.7007 14.8822C11.343 14.8889 10.9878 14.8194 10.6561 14.678C10.3244 14.5365 10.0231 14.326 9.7702 14.0589C9.51726 13.7918 9.31786 13.4737 9.18389 13.1235C9.04993 12.7733 8.98413 12.3982 8.99045 12.0206C8.99676 11.6429 9.07504 11.2705 9.22062 10.9255C9.36621 10.5805 9.57611 10.27 9.83782 10.0125M16.9942 17.5688C15.4764 18.7903 13.6283 19.4671 11.7201 19.5C5.50492 19.5 1.95337 12 1.95337 12C3.0578 9.82679 4.58963 7.92809 6.44608 6.43127L16.9942 17.5688Z" stroke="#DAA930" stroke-width="2" stroke-linecap="round" stroke-linejoin="round"/>
<path d="M1.95337 2.5L21.4869 22.5" stroke="#DAA930" stroke-width="2" stroke-linecap="round" stroke-linejoin="round"/>
</svg>
