<svg width="32" height="32" viewBox="0 0 32 32" fill="none" xmlns="http://www.w3.org/2000/svg">
<path d="M18.571 14.6667H17.3333V13.429C16.8943 13.3657 16.4488 13.3333 16 13.3333C15.5512 13.3333 15.1057 13.3657 14.6667 13.429V14.6667H13.429C13.3657 15.1057 13.3333 15.5512 13.3333 16C13.3333 16.4488 13.3657 16.8943 13.429 17.3333H14.6667V18.571C15.1057 18.6343 15.5512 18.6667 16 18.6667C16.4488 18.6667 16.8943 18.6343 17.3333 18.571V17.3333H18.571C18.6343 16.8943 18.6667 16.4488 18.6667 16C18.6667 15.5512 18.6343 15.1057 18.571 14.6667Z" fill="white" stroke="white" stroke-width="21.3333"/>
</svg>
