<svg width="24" height="24" viewBox="0 0 24 24" fill="none" xmlns="http://www.w3.org/2000/svg">
<path d="M16.7418 15.904L17.6007 15.2051C17.8481 15.0037 18.0894 14.7878 18.3209 14.5562L18.321 14.5562C20.855 12.0222 21.4753 8.39208 21.4986 8.24919C21.5082 8.19007 21.4565 8.13846 21.3973 8.14801C21.2551 8.17117 17.6413 8.78883 15.108 11.3083L14.1675 12.2437L14.2565 10.9202C14.2744 10.6554 14.2841 10.3877 14.2841 10.1174C14.2841 6.06597 12.1576 2.63392 12.0746 2.50195L12.0745 2.50189C12.0402 2.4473 11.9595 2.4473 11.9252 2.50189L11.9251 2.50195C11.8421 2.63392 9.71556 6.06597 9.71556 10.1174C9.71556 10.3877 9.72532 10.6554 9.74314 10.9202L9.83218 12.2437L8.89167 11.3083C6.35839 8.78883 2.74459 8.17117 2.60234 8.14801L2.68268 7.6545L2.60233 8.14801C2.54322 8.13838 2.49152 8.19013 2.50109 8.2492L16.7418 15.904ZM16.7418 15.904L17.8341 16.0861M16.7418 15.904L17.8341 16.0861M17.8341 16.0861C19.8566 16.4232 21.4024 17.5311 21.4634 17.5754C21.5116 17.6105 21.5115 17.6831 21.4634 17.7181C21.3797 17.779 19.244 19.3036 16.7057 19.3036C15.1336 19.3036 13.7088 18.7177 12.8225 18.2474L12.0881 17.8578V18.6891V21.4506C12.0881 21.4993 12.0486 21.5389 11.9999 21.5389C11.9512 21.5389 11.9117 21.4993 11.9117 21.4506V18.6891V17.8578L11.1773 18.2474C10.291 18.7177 8.86615 19.3036 7.29405 19.3036C4.75424 19.3036 2.6176 17.7772 2.53624 17.7181C2.48801 17.6829 2.48825 17.6104 2.5363 17.5754L2.53634 17.5754C2.59652 17.5316 4.14267 16.4232 6.16559 16.0861L7.25787 15.904M17.8341 16.0861L7.25787 15.904M7.25787 15.904L6.399 15.2051C6.15157 15.0037 5.91031 14.7878 5.67872 14.5562L5.32516 14.9098M7.25787 15.904L5.32516 14.9098M5.32516 14.9098L5.67872 14.5562M5.32516 14.9098L5.67872 14.5562M5.67872 14.5562C3.14507 12.0226 2.52455 8.39316 2.5011 8.24927L5.67872 14.5562ZM15.2151 11.4503L15.5687 11.8039L15.2151 11.4503C14.7721 11.8934 14.3613 12.4014 13.9907 12.9593L13.941 13.0341L13.9204 13.1216C13.5911 14.5237 13.0987 15.7151 12.7029 16.5333L12.2028 17.5673L13.3004 17.2288C14.5828 16.8334 16.6187 16.009 18.1962 14.4314C19.9353 12.6923 20.7607 10.3941 21.1044 9.15774L21.3415 8.30503L20.4888 8.54208C19.2527 8.88569 16.9544 9.71109 15.2151 11.4503ZM12.4489 3.5619L12.0001 2.65177L11.5519 3.56221C10.9155 4.85482 9.89197 7.35686 9.89197 10.1174C9.89197 12.8778 10.9157 15.3619 11.552 16.6431L11.9998 17.5446L12.4476 16.6431C13.0839 15.3622 14.1076 12.878 14.1076 10.1174C14.1076 7.35019 13.0855 4.8527 12.4489 3.5619ZM3.51083 8.54212L2.65812 8.30507L2.89517 9.15778C3.23878 10.3938 4.06414 12.6921 5.80339 14.4315L5.8034 14.4315C7.38091 16.009 9.41663 16.8334 10.6992 17.2288L11.7968 17.5673L11.2967 16.5333C10.9009 15.7151 10.4085 14.5237 10.0792 13.1216L10.0587 13.0342L10.0089 12.9593C9.63833 12.4014 9.22753 11.8934 8.78455 11.4504L8.78453 11.4503C7.04539 9.71121 4.74716 8.88581 3.51083 8.54212ZM3.49363 17.2048L2.65861 17.6468L3.49366 18.0887C4.32693 18.5297 5.73688 19.1271 7.29397 19.1271C8.60251 19.1271 9.80465 18.7053 10.6449 18.3124L11.8135 17.7659L10.5818 17.3821C9.84289 17.1519 8.89673 16.7905 7.93124 16.2445L7.83226 16.1885L7.71879 16.1808C6.22694 16.0801 4.74519 16.5424 3.49363 17.2048ZM13.4178 17.3821L12.186 17.7659L13.3547 18.3124C14.1948 18.7053 15.397 19.1271 16.7056 19.1271C18.2627 19.1271 19.6725 18.5298 20.506 18.0886L21.341 17.6466L20.5059 17.2047C19.2545 16.5424 17.7726 16.08 16.2808 16.1808L16.1673 16.1885L16.0683 16.2444C15.1029 16.7905 14.1567 17.1518 13.4178 17.3821Z" fill="white" stroke="white" stroke-width="1.00002"/>
</svg>
