<svg width="24" height="24" viewBox="0 0 24 24" fill="none" xmlns="http://www.w3.org/2000/svg">
<path d="M15.5711 5.99592C15.5719 6.12752 15.5466 6.25798 15.4969 6.37982C15.4471 6.50166 15.3738 6.61247 15.2811 6.70591L10.6911 11.2859C10.5974 11.3789 10.523 11.4895 10.4722 11.6113C10.4214 11.7332 10.3953 11.8639 10.3953 11.9959C10.3953 12.1279 10.4214 12.2586 10.4722 12.3805C10.523 12.5023 10.5974 12.6129 10.6911 12.7059L15.2811 17.2859C15.4694 17.4742 15.5752 17.7296 15.5752 17.9959C15.5752 18.2622 15.4694 18.5176 15.2811 18.7059C15.0928 18.8942 14.8374 19 14.5711 19C14.4392 19 14.3087 18.974 14.1868 18.9236C14.065 18.8731 13.9543 18.7991 13.8611 18.7059L9.28111 14.1159C8.73354 13.546 8.42773 12.7863 8.42773 11.9959C8.42773 11.2056 8.73354 10.4459 9.28111 9.87591L13.8611 5.28592C13.9541 5.19219 14.0647 5.11779 14.1865 5.06702C14.3084 5.01625 14.4391 4.99012 14.5711 4.99012C14.7031 4.99012 14.8338 5.01625 14.9557 5.06702C15.0775 5.11779 15.1881 5.19219 15.2811 5.28592C15.3738 5.37936 15.4471 5.49017 15.4969 5.61201C15.5466 5.73384 15.5719 5.86431 15.5711 5.99592Z" fill="white"/>
</svg>
