<svg width="24" height="24" viewBox="0 0 24 24" fill="none" xmlns="http://www.w3.org/2000/svg">
<mask id="path-1-inside-1_2023_10877" fill="white">
<path d="M5.99591 8.42891C6.12752 8.42815 6.25798 8.45337 6.37982 8.50314C6.50166 8.5529 6.61247 8.62623 6.70591 8.71891L11.2859 13.3089C11.3789 13.4026 11.4895 13.477 11.6113 13.5278C11.7332 13.5786 11.8639 13.6047 11.9959 13.6047C12.1279 13.6047 12.2586 13.5786 12.3805 13.5278C12.5023 13.477 12.6129 13.4026 12.7059 13.3089L17.2859 8.71891C17.4742 8.5306 17.7296 8.42482 17.9959 8.42482C18.2622 8.42482 18.5176 8.5306 18.7059 8.71891C18.8942 8.90721 19 9.1626 19 9.4289C19 9.56076 18.974 9.69133 18.9236 9.81315C18.8731 9.93498 18.7991 10.0457 18.7059 10.1389L14.1159 14.7189C13.546 15.2665 12.7863 15.5723 11.9959 15.5723C11.2056 15.5723 10.4459 15.2665 9.87591 14.7189L5.28592 10.1389C5.19219 10.0459 5.11779 9.93534 5.06702 9.81348C5.01625 9.69162 4.99012 9.56092 4.99012 9.42891C4.99012 9.29689 5.01625 9.16619 5.06702 9.04433C5.11779 8.92247 5.19219 8.81187 5.28592 8.71891C5.37936 8.62623 5.49017 8.5529 5.61201 8.50314C5.73384 8.45337 5.86431 8.42815 5.99591 8.42891Z"/>
</mask>
<path d="M5.99591 8.42891C6.12752 8.42815 6.25798 8.45337 6.37982 8.50314C6.50166 8.5529 6.61247 8.62623 6.70591 8.71891L11.2859 13.3089C11.3789 13.4026 11.4895 13.477 11.6113 13.5278C11.7332 13.5786 11.8639 13.6047 11.9959 13.6047C12.1279 13.6047 12.2586 13.5786 12.3805 13.5278C12.5023 13.477 12.6129 13.4026 12.7059 13.3089L17.2859 8.71891C17.4742 8.5306 17.7296 8.42482 17.9959 8.42482C18.2622 8.42482 18.5176 8.5306 18.7059 8.71891C18.8942 8.90721 19 9.1626 19 9.4289C19 9.56076 18.974 9.69133 18.9236 9.81315C18.8731 9.93498 18.7991 10.0457 18.7059 10.1389L14.1159 14.7189C13.546 15.2665 12.7863 15.5723 11.9959 15.5723C11.2056 15.5723 10.4459 15.2665 9.87591 14.7189L5.28592 10.1389C5.19219 10.0459 5.11779 9.93534 5.06702 9.81348C5.01625 9.69162 4.99012 9.56092 4.99012 9.42891C4.99012 9.29689 5.01625 9.16619 5.06702 9.04433C5.11779 8.92247 5.19219 8.81187 5.28592 8.71891C5.37936 8.62623 5.49017 8.5529 5.61201 8.50314C5.73384 8.45337 5.86431 8.42815 5.99591 8.42891Z" fill="white"/>
<path d="M5.99591 8.42891L5.87258 29.7619L5.99592 29.7626L6.11925 29.7619L5.99591 8.42891ZM6.70591 8.71891L21.8073 -6.34959L21.7684 -6.38861L21.7292 -6.42742L6.70591 8.71891ZM11.2859 13.3089L26.4326 -1.71409L26.41 -1.73688L26.3873 -1.7596L11.2859 13.3089ZM12.7059 13.3089L-2.39547 -1.7596L-2.41814 -1.73688L-2.44075 -1.71408L12.7059 13.3089ZM17.2859 8.71891L2.20097 -6.36605L2.19275 -6.35782L2.18453 -6.34959L17.2859 8.71891ZM19 9.4289L40.3333 9.4289L19 9.4289ZM18.7059 10.1389L33.7744 25.2403L33.7826 25.2321L33.7908 25.2239L18.7059 10.1389ZM14.1159 14.7189L28.8959 30.1028L29.0415 29.9629L29.1844 29.8203L14.1159 14.7189ZM11.9959 15.5723L11.9959 36.9056L11.9959 15.5723ZM9.87591 14.7189L-5.19256 29.8203L-5.04963 29.9629L-4.90403 30.1028L9.87591 14.7189ZM5.28592 10.1389L20.3544 -4.96249L20.3317 -4.98517L20.3089 -5.00777L5.28592 10.1389ZM5.28592 8.71891L20.3089 23.8656L20.3092 23.8652L5.28592 8.71891ZM6.11925 29.7619C3.44322 29.7774 0.790492 29.2644 -1.68684 28.2526L14.4465 -11.2463C11.7255 -12.3577 8.81182 -12.9211 5.87257 -12.9041L6.11925 29.7619ZM-1.68684 28.2526C-4.16425 27.2407 -6.41749 25.7497 -8.3174 23.8652L21.7292 -6.42742C19.6424 -8.49726 17.1676 -10.1349 14.4465 -11.2463L-1.68684 28.2526ZM-8.39546 23.7874L-3.81546 28.3774L26.3873 -1.7596L21.8073 -6.34959L-8.39546 23.7874ZM-3.86074 28.3319C-1.78456 30.4252 0.685539 32.0866 3.40705 33.2204L19.8156 -6.16487C22.2934 -5.13258 24.5423 -3.6199 26.4326 -1.71409L-3.86074 28.3319ZM3.40705 33.2204C6.12855 34.3543 9.04763 34.938 11.9959 34.938L11.9959 -7.72864C14.6802 -7.72864 17.3378 -7.19715 19.8156 -6.16487L3.40705 33.2204ZM11.9959 34.938C14.9442 34.938 17.8633 34.3543 20.5848 33.2204L4.1762 -6.16487C6.65398 -7.19715 9.31165 -7.72864 11.9959 -7.72864L11.9959 34.938ZM20.5848 33.2204C23.3063 32.0866 25.7764 30.4252 27.8526 28.3319L-2.44075 -1.71408C-0.550487 -3.6199 1.69841 -5.13258 4.1762 -6.16487L20.5848 33.2204ZM27.8073 28.3774L32.3873 23.7874L2.18453 -6.34959L-2.39547 -1.7596L27.8073 28.3774ZM32.3708 23.8039C28.5584 27.6163 23.3875 29.7581 17.9959 29.7581L17.9959 -12.9085C12.0717 -12.9085 6.39007 -10.5551 2.20097 -6.36605L32.3708 23.8039ZM17.9959 29.7581C12.6043 29.7581 7.43347 27.6163 3.62098 23.8039L33.7908 -6.36605C29.6017 -10.5551 23.9201 -12.9085 17.9959 -12.9085L17.9959 29.7581ZM3.62098 23.8039C-0.191499 19.9914 -2.33333 14.8206 -2.33333 9.42891L40.3333 9.4289C40.3333 3.50464 37.9799 -2.17698 33.7908 -6.36605L3.62098 23.8039ZM-2.33333 9.42891C-2.33333 6.7592 -1.80749 4.11567 -0.785859 1.64923L38.633 17.9771C39.7555 15.267 40.3333 12.3623 40.3333 9.4289L-2.33333 9.42891ZM-0.785859 1.64923C0.235785 -0.817232 1.73323 -3.05831 3.62097 -4.94605L33.7908 25.2239C35.8651 23.1496 37.5104 20.6872 38.633 17.9771L-0.785859 1.64923ZM3.63743 -4.96249L-0.952564 -0.382503L29.1844 29.8203L33.7744 25.2403L3.63743 -4.96249ZM-0.664035 -0.665003C2.73947 -3.9349 7.27617 -5.76107 11.9959 -5.76107L11.9959 36.9056C18.2964 36.9056 24.3525 34.4678 28.8959 30.1028L-0.664035 -0.665003ZM11.9959 -5.76107C16.7156 -5.76107 21.2523 -3.9349 24.6559 -0.665005L-4.90403 30.1028C-0.360638 34.4678 5.69546 36.9056 11.9959 36.9056L11.9959 -5.76107ZM24.9444 -0.382502L20.3544 -4.96249L-9.78256 25.2403L-5.19256 29.8203L24.9444 -0.382502ZM20.3089 -5.00777C22.2146 -3.11764 23.7273 -0.868788 24.7597 1.60917L-14.6256 18.0178C-13.4917 20.7395 -11.8302 23.2095 -9.73704 25.2856L20.3089 -5.00777ZM24.7597 1.60917C25.792 4.08705 26.3235 6.74474 26.3235 9.4289L-16.3432 9.42891C-16.3432 12.3771 -15.7595 15.2962 -14.6256 18.0178L24.7597 1.60917ZM26.3235 9.4289C26.3235 12.1131 25.792 14.7708 24.7597 17.2486L-14.6256 0.84002C-15.7595 3.56162 -16.3432 6.48072 -16.3432 9.42891L26.3235 9.4289ZM24.7597 17.2486C23.7273 19.7266 22.2146 21.9755 20.3089 23.8656L-9.73704 -6.42777C-11.8302 -4.35171 -13.4917 -1.88165 -14.6256 0.84002L24.7597 17.2486ZM20.3092 23.8652C18.4093 25.7497 16.1561 27.2407 13.6787 28.2526L-2.45465 -11.2463C-5.17574 -10.1349 -7.65061 -8.49726 -9.7374 -6.42741L20.3092 23.8652ZM13.6787 28.2526C11.2013 29.2644 8.54861 29.7774 5.87258 29.7619L6.11925 -12.9041C3.18001 -12.9211 0.266349 -12.3577 -2.45465 -11.2463L13.6787 28.2526Z" fill="#949494" mask="url(#path-1-inside-1_2023_10877)"/>
</svg>
