<svg width="20" height="20" viewBox="0 0 20 20" fill="none" xmlns="http://www.w3.org/2000/svg">
<path d="M15 4.99985C14.8437 4.84362 14.6318 4.75586 14.4108 4.75586C14.1899 4.75586 13.9779 4.84362 13.8217 4.99985L10 8.82152L6.17833 4.99985C6.02206 4.84362 5.81014 4.75586 5.58917 4.75586C5.3682 4.75586 5.15627 4.84362 5 4.99985C4.84377 5.15612 4.75601 5.36804 4.75601 5.58901C4.75601 5.80998 4.84377 6.02191 5 6.17818L8.82167 9.99985L5 13.8215C4.84377 13.9778 4.75601 14.1897 4.75601 14.4107C4.75601 14.6317 4.84377 14.8436 5 14.9998C5.15627 15.1561 5.3682 15.2438 5.58917 15.2438C5.81014 15.2438 6.02206 15.1561 6.17833 14.9998L10 11.1782L13.8217 14.9998C13.9779 15.1561 14.1899 15.2438 14.4108 15.2438C14.6318 15.2438 14.8437 15.1561 15 14.9998C15.1562 14.8436 15.244 14.6317 15.244 14.4107C15.244 14.1897 15.1562 13.9778 15 13.8215L11.1783 9.99985L15 6.17818C15.1562 6.02191 15.244 5.80998 15.244 5.58901C15.244 5.36804 15.1562 5.15612 15 4.99985Z" fill="white"/>
</svg>
