<svg width="48" height="48" viewBox="0 0 48 48" fill="none" xmlns="http://www.w3.org/2000/svg">
<circle cx="24" cy="24" r="24" fill="#171717"/>
<g clip-path="url(#clip0_0_291)">
<path d="M22.333 24.0005C22.333 24.2215 22.2452 24.4334 22.0889 24.5897C21.9326 24.746 21.7207 24.8338 21.4997 24.8338H17.3905C17.5923 26.4444 18.3752 27.9258 19.5922 28.9999C20.8092 30.0739 22.3765 30.6666 23.9997 30.6666C25.6228 30.6666 27.1901 30.0739 28.4071 28.9999C29.6241 27.9258 30.4071 26.4444 30.6088 24.8338H26.4997C26.2787 24.8338 26.0667 24.746 25.9104 24.5897C25.7541 24.4334 25.6663 24.2215 25.6663 24.0005C25.6663 23.7794 25.7541 23.5675 25.9104 23.4112C26.0667 23.2549 26.2787 23.1671 26.4997 23.1671H30.6663V21.5005H26.4997C26.2787 21.5005 26.0667 21.4127 25.9104 21.2564C25.7541 21.1001 25.6663 20.8881 25.6663 20.6671C25.6663 20.4461 25.7541 20.2341 25.9104 20.0779C26.0667 19.9216 26.2787 19.8338 26.4997 19.8338H30.6088C30.4071 18.2232 29.6241 16.7418 28.4071 15.6677C27.1901 14.5937 25.6228 14.001 23.9997 14.001C22.3765 14.001 20.8092 14.5937 19.5922 15.6677C18.3752 16.7418 17.5923 18.2232 17.3905 19.8338H21.4997C21.7207 19.8338 21.9326 19.9216 22.0889 20.0779C22.2452 20.2341 22.333 20.4461 22.333 20.6671C22.333 20.8881 22.2452 21.1001 22.0889 21.2564C21.9326 21.4127 21.7207 21.5005 21.4997 21.5005H17.333V23.1671H21.4997C21.7207 23.1671 21.9326 23.2549 22.0889 23.4112C22.2452 23.5675 22.333 23.7794 22.333 24.0005Z" fill="#32B66C"/>
<path d="M33.1667 24C32.9457 24 32.7337 24.0878 32.5774 24.2441C32.4211 24.4004 32.3333 24.6123 32.3333 24.8333C32.3311 26.8218 31.5402 28.7282 30.1342 30.1342C28.7282 31.5402 26.8218 32.3311 24.8333 32.3333H23.1667C21.1783 32.3309 19.272 31.54 17.866 30.134C16.46 28.728 15.6691 26.8217 15.6667 24.8333C15.6667 24.6123 15.5789 24.4004 15.4226 24.2441C15.2663 24.0878 15.0543 24 14.8333 24C14.6123 24 14.4004 24.0878 14.2441 24.2441C14.0878 24.4004 14 24.6123 14 24.8333C14.0029 27.2636 14.9696 29.5935 16.688 31.312C18.4065 33.0304 20.7364 33.9971 23.1667 34H24.8333C27.2636 33.9971 29.5935 33.0304 31.312 31.312C33.0304 29.5935 33.9971 27.2636 34 24.8333C34 24.6123 33.9122 24.4004 33.7559 24.2441C33.5996 24.0878 33.3877 24 33.1667 24Z" fill="#32B66C"/>
</g>
<defs>
<clipPath id="clip0_0_291">
<rect width="20" height="20" fill="white" transform="translate(14 14)"/>
</clipPath>
</defs>
</svg>
