<svg width="38" height="38" viewBox="0 0 38 38" fill="none" xmlns="http://www.w3.org/2000/svg">
<path d="M22.5625 6.33398H15.4375C10.3994 6.33398 7.8803 6.33398 6.31515 7.92398C4.75 9.51397 4.75 12.073 4.75 17.1911V20.8102C4.75 25.9283 4.75 28.4873 6.31515 30.0773C7.8803 31.6673 10.3994 31.6673 15.4375 31.6673H22.5625C27.6006 31.6673 30.1197 31.6673 31.6849 30.0773C33.25 28.4873 33.25 25.9283 33.25 20.8102V17.1911C33.25 12.073 33.25 9.51397 31.6849 7.92398C30.1197 6.33398 27.6006 6.33398 22.5625 6.33398Z" stroke="white" stroke-width="2"/>
<path d="M11.0835 12.666H15.8335" stroke="white" stroke-width="2" stroke-linecap="round"/>
<path d="M23.75 23.334V21.0007C23.75 20.0578 23.75 19.5864 24.0429 19.2935C24.3358 19.0007 24.8072 19.0007 25.75 19.0007H31.25C32.1928 19.0007 32.6642 19.0007 32.9571 19.2935C33.25 19.5864 33.25 20.0578 33.25 21.0007V23.334C33.25 24.2768 33.25 24.7482 32.9571 25.0411C32.6642 25.334 32.1928 25.334 31.25 25.334H25.75C24.8072 25.334 24.3358 25.334 24.0429 25.0411C23.75 24.7482 23.75 24.2768 23.75 23.334Z" stroke="white" stroke-width="2"/>
</svg>
