<svg width="32" height="32" viewBox="0 0 32 32" fill="none" xmlns="http://www.w3.org/2000/svg">
<g clip-path="url(#clip0_0_447)">
<path d="M31.9585 27.5181L30.2303 21.8191C31.2005 20.0039 31.7115 17.9641 31.7115 15.8928C31.7115 8.95606 26.0679 3.3125 19.1311 3.3125C14.9304 3.3125 11.2049 5.38233 8.91872 8.55518C4.01906 9.20044 0.224621 13.4033 0.224621 18.4763C0.224621 20.094 0.616711 21.6878 1.36158 23.1121L0.041515 27.4646C-0.0617565 27.805 0.031017 28.1743 0.282238 28.4258C0.465832 28.6094 0.71217 28.7083 0.963879 28.7083C1.05739 28.7083 1.15162 28.6946 1.24366 28.6668L5.59621 27.3467C7.02052 28.0916 8.61403 28.4837 10.232 28.4837C11.7295 28.4837 13.1509 28.1524 14.4278 27.5603C15.8814 28.1485 17.469 28.4732 19.1311 28.4732C21.2024 28.4732 23.2422 27.9622 25.0574 26.992L30.7564 28.7202C30.8484 28.7481 30.9427 28.7617 31.0362 28.7617C31.2879 28.7617 31.5342 28.6629 31.7176 28.4793C31.969 28.228 32.0618 27.8584 31.9585 27.5181ZM25.2259 25.0286C24.97 24.9512 24.6939 24.9832 24.4629 25.117C22.8499 26.0515 21.0061 26.5454 19.1311 26.5454C13.2573 26.5454 8.47853 21.7666 8.47853 15.8928C8.47853 10.0188 13.2573 5.24024 19.1311 5.24024C25.0049 5.24024 29.7837 10.019 29.7837 15.8928C29.7837 17.7678 29.2898 19.6116 28.3553 21.2246C28.2215 21.4556 28.1895 21.7319 28.2669 21.9876L29.5906 26.3523L25.2259 25.0286ZM10.232 26.5559C8.80983 26.5559 7.41139 26.1812 6.18825 25.4727C6.03981 25.3867 5.87306 25.3428 5.70485 25.3428C5.6111 25.3428 5.51686 25.3565 5.42531 25.3843L2.40944 26.2988L3.32399 23.283C3.40138 23.0274 3.3694 22.7512 3.23561 22.52C2.52687 21.2969 2.15211 19.8985 2.15211 18.4763C2.15211 14.9368 4.4402 11.9219 7.61476 10.832C6.93117 12.3814 6.55055 14.0935 6.55055 15.8928C6.55055 20.2356 8.76247 24.0713 12.1189 26.3328C11.5134 26.4783 10.8816 26.5559 10.232 26.5559Z" fill="#DAA930"/>
<path d="M20.5784 18.4834H14.7422C14.21 18.4834 13.7783 18.9148 13.7783 19.4473C13.7783 19.9795 14.21 20.4111 14.7422 20.4111H20.5784C21.1106 20.4111 21.542 19.9795 21.542 19.4473C21.542 18.9148 21.1106 18.4834 20.5784 18.4834Z" fill="#DAA930"/>
<path d="M23.52 14.9297H14.7422C14.21 14.9297 13.7783 15.3613 13.7783 15.8936C13.7783 16.426 14.21 16.8574 14.7422 16.8574H23.52C24.0523 16.8574 24.4839 16.426 24.4839 15.8936C24.4839 15.3613 24.0523 14.9297 23.52 14.9297Z" fill="#DAA930"/>
<path d="M23.52 11.375H14.7422C14.21 11.375 13.7783 11.8066 13.7783 12.3389C13.7783 12.8711 14.21 13.3027 14.7422 13.3027H23.52C24.0523 13.3027 24.4839 12.8711 24.4839 12.3389C24.4839 11.8066 24.0523 11.375 23.52 11.375Z" fill="#DAA930"/>
</g>
<defs>
<clipPath id="clip0_0_447">
<rect width="32" height="32" fill="white"/>
</clipPath>
</defs>
</svg>
