<svg width="40" height="40" viewBox="0 0 40 40" fill="none" xmlns="http://www.w3.org/2000/svg">
<g clip-path="url(#clip0_2752_14362)">
<path d="M21.5226 12.3691L21.5226 12.3691C21.3286 12.4827 20.6719 12.9124 20.6719 13.7065V14.4531C20.6719 14.8242 20.371 15.125 20 15.125C19.629 15.125 19.3281 14.8242 19.3281 14.4531V13.7064C19.3281 12.713 19.8785 11.7749 20.8433 11.2096C21.3546 10.9102 21.6719 10.3583 21.6719 9.76562C21.6719 8.84331 20.9223 8.09375 20 8.09375C19.0777 8.09375 18.3281 8.84331 18.3281 9.76562C18.3281 10.1367 18.0273 10.4375 17.6562 10.4375C17.2852 10.4375 16.9844 10.1367 16.9844 9.76562C16.9844 8.10325 18.3376 6.75 20 6.75C21.6624 6.75 23.0156 8.10325 23.0156 9.76562C23.0156 10.8312 22.443 11.8299 21.5226 12.3691Z" fill="white" stroke="white"/>
<path d="M20 20.3125C20.6472 20.3125 21.1719 19.7878 21.1719 19.1406C21.1719 18.4934 20.6472 17.9688 20 17.9688C19.3528 17.9688 18.8281 18.4934 18.8281 19.1406C18.8281 19.7878 19.3528 20.3125 20 20.3125Z" fill="white"/>
<path d="M20 0C12.8921 0 7.10938 5.78273 7.10938 12.8906C7.10938 15.8099 8.11625 18.6699 9.94453 20.9438C11.6428 23.0559 12.5781 25.745 12.5781 28.5156V31.7969C12.5781 33.3246 13.5579 34.6272 14.9219 35.1109V36.4844C14.9219 38.4229 16.499 40 18.4375 40H21.5625C23.501 40 25.0781 38.4229 25.0781 36.4844V35.1109C26.4421 34.6272 27.4219 33.3246 27.4219 31.7969V28.5156C27.4219 25.745 28.3572 23.0559 30.0555 20.9438C31.8837 18.6699 32.8906 15.8099 32.8906 12.8906C32.8906 5.78273 27.1079 0 20 0ZM22.7344 36.4844C22.7344 37.1305 22.2087 37.6562 21.5625 37.6562H18.4375C17.7913 37.6562 17.2656 37.1305 17.2656 36.4844V35.3125H22.7344V36.4844ZM25.0781 31.7969C25.0781 32.443 24.5524 32.9688 23.9062 32.9688H16.0938C15.4476 32.9688 14.9219 32.443 14.9219 31.7969V29.6484H25.0781V31.7969ZM28.229 19.4752C26.4304 21.712 25.3477 24.4848 25.1227 27.3828H14.8773C14.6523 24.4848 13.5697 21.712 11.7711 19.4752C10.2547 17.5892 9.45312 15.3123 9.45312 12.8906C9.45312 7.07508 14.1845 2.34375 20 2.34375C25.8155 2.34375 30.5469 7.07508 30.5469 12.8906C30.5469 15.3123 29.7453 17.5892 28.229 19.4752Z" fill="white"/>
<path d="M38.8281 11.7188H36.4844C35.8372 11.7188 35.3125 12.2434 35.3125 12.8906C35.3125 13.5378 35.8372 14.0625 36.4844 14.0625H38.8281C39.4753 14.0625 40 13.5378 40 12.8906C40 12.2434 39.4753 11.7188 38.8281 11.7188Z" fill="white"/>
<path d="M3.51562 14.0625C4.16281 14.0625 4.6875 13.5378 4.6875 12.8906C4.6875 12.2434 4.16281 11.7188 3.51562 11.7188H1.17188C0.524687 11.7188 0 12.2434 0 12.8906C0 13.5378 0.524687 14.0625 1.17188 14.0625H3.51562Z" fill="white"/>
<path d="M35.8963 8.38071L38.0986 7.57907C38.7068 7.35774 39.0203 6.68524 38.799 6.07704C38.5777 5.46883 37.9052 5.15532 37.297 5.37665L35.0946 6.17829C34.4864 6.39962 34.1729 7.07212 34.3942 7.68032C34.6156 8.28852 35.2881 8.60204 35.8963 8.38071Z" fill="white"/>
<path d="M4.10458 17.4011L1.90223 18.2027C1.29403 18.424 0.980515 19.0965 1.20184 19.7047C1.42317 20.3129 2.09567 20.6265 2.70387 20.4051L4.90622 19.6035C5.51442 19.3822 5.82794 18.7097 5.60661 18.1015C5.38528 17.4932 4.7127 17.1797 4.10458 17.4011Z" fill="white"/>
<path d="M38.0986 18.2027L35.8963 17.4011C35.2881 17.1797 34.6157 17.4932 34.3943 18.1015C34.1729 18.7097 34.4864 19.3821 35.0946 19.6035L37.297 20.4051C37.9052 20.6265 38.5776 20.3129 38.799 19.7047C39.0204 19.0965 38.7068 18.424 38.0986 18.2027Z" fill="white"/>
<path d="M4.90625 6.17829L2.70391 5.37665C2.0957 5.15532 1.42328 5.46884 1.20187 6.07704C0.980468 6.68524 1.29406 7.35766 1.90226 7.57907L4.10461 8.38071C4.71281 8.60204 5.38523 8.28852 5.60664 7.68032C5.82805 7.07212 5.51445 6.39962 4.90625 6.17829Z" fill="white"/>
</g>
<defs>
<clipPath id="clip0_2752_14362">
<rect width="40" height="40" fill="white"/>
</clipPath>
</defs>
</svg>
