<svg width="18" height="22" viewBox="0 0 18 22" fill="none" xmlns="http://www.w3.org/2000/svg">
<path d="M16.266 5.30881C16.266 5.42177 16.266 5.53473 16.1531 5.64769C15.2494 10.166 12.3125 11.6345 8.47195 11.6345H6.55165C6.09982 11.6345 5.648 11.9733 5.648 12.4252L4.63137 18.7508L4.40545 20.5581C4.40545 20.897 4.63136 21.1229 4.85728 21.1229H8.35898C8.81081 21.1229 9.14969 20.7841 9.14969 20.4452V20.2193L9.82744 16.1528V15.9269C9.9404 15.475 10.2793 15.2491 10.6181 15.2491H11.1829C14.5717 15.2491 17.1697 13.8936 17.8474 9.94009C18.1863 8.24572 17.9604 6.89022 17.1697 5.98656C16.9438 5.76064 16.6049 5.53473 16.266 5.30881Z" fill="#2199D6"/>
<path d="M15.3621 4.96992C15.2491 4.96992 15.1362 4.85696 14.9102 4.85696C14.7973 4.85696 14.5714 4.744 14.4584 4.744C13.8936 4.63105 13.3288 4.63105 12.764 4.63105H7.56797C7.45502 4.63105 7.34205 4.63105 7.2291 4.744C7.00318 4.85696 6.77727 5.08288 6.77727 5.30879L5.64769 12.3122V12.5381C5.76065 12.0863 6.09951 11.7474 6.55134 11.7474H8.47164C12.3122 11.7474 15.2491 10.166 16.1528 5.76063C16.1528 5.64767 16.1528 5.53471 16.2657 5.42175C16.0398 5.3088 15.8139 5.19584 15.588 5.08288C15.475 4.96992 15.3621 4.96992 15.3621 4.96992Z" fill="#252C5E"/>
<path d="M6.77748 5.30902C6.77748 5.08311 7.00339 4.85719 7.2293 4.74423C7.34226 4.74423 7.45522 4.63128 7.56818 4.63128H12.7642C13.329 4.63128 14.0068 4.63127 14.4586 4.74423C14.5716 4.74423 14.7975 4.74423 14.9105 4.85719C15.0234 4.85719 15.1364 4.97015 15.3623 4.97015C15.4752 4.97015 15.4752 4.97015 15.5882 5.08311C15.8141 5.19607 16.04 5.30902 16.2659 5.42198C16.4919 3.72761 16.2659 2.59803 15.3623 1.58141C14.3457 0.451829 12.5383 0 10.2792 0H3.61465C3.16282 0 2.71098 0.338871 2.71098 0.790702L0 18.1862C0 18.5251 0.225916 18.864 0.56479 18.864H4.63127L5.6479 12.3124L6.77748 5.30902Z" fill="#263577"/>
</svg>
