<svg width="24" height="24" viewBox="0 0 24 24" fill="none" xmlns="http://www.w3.org/2000/svg">
<g clip-path="url(#clip0_0_480)">
<path d="M14.0003 22C14.0003 20.8954 13.1048 20 12.0002 20C10.8957 20 10.0002 20.8954 10.0002 22C10.0002 23.1046 10.8957 24 12.0002 24C13.1048 24 14.0003 23.1046 14.0003 22Z" fill="white"/>
<path d="M14.0003 12C14.0003 10.8954 13.1048 9.99999 12.0002 9.99999C10.8957 9.99999 10.0002 10.8954 10.0002 12C10.0002 13.1046 10.8957 14 12.0002 14C13.1048 14 14.0003 13.1046 14.0003 12Z" fill="white"/>
<path d="M14.0003 1.99999C14.0003 0.895413 13.1048 -2.30239e-05 12.0002 -2.29756e-05C10.8957 -2.29273e-05 10.0002 0.895413 10.0002 1.99999C10.0002 3.10456 10.8957 4 12.0002 4C13.1048 4 14.0003 3.10456 14.0003 1.99999Z" fill="white"/>
</g>
<defs>
<clipPath id="clip0_0_480">
<rect width="24" height="24" fill="white"/>
</clipPath>
</defs>
</svg>
