<svg width="24" height="24" viewBox="0 0 24 24" fill="none" xmlns="http://www.w3.org/2000/svg">
<g clip-path="url(#clip0_2071_12316)">
<path d="M22.903 6.53895C22.227 6.20095 21.43 6.27195 20.826 6.72695C20.787 6.75595 20.75 6.78895 20.716 6.82295L18.959 8.59595C18.748 6.03095 16.618 4.00195 14 4.00195H5C2.243 4.00095 0 6.24395 0 9.00095V15.001C0 17.758 2.243 20.001 5 20.001H14C16.629 20.001 18.768 17.954 18.962 15.374L20.718 17.128C20.752 17.161 20.787 17.191 20.825 17.22C21.177 17.484 21.593 17.618 22.013 17.618C22.316 17.618 22.619 17.549 22.903 17.407C23.58 17.069 24 16.388 24 15.633V8.31495C24 7.55795 23.58 6.87795 22.903 6.53995V6.53895ZM14 18.001H5C3.346 18.001 2 16.655 2 15.001V9.00095C2 7.34695 3.346 6.00095 5 6.00095H14C15.654 6.00095 17 7.34695 17 9.00095V15.001C17 16.655 15.654 18.001 14 18.001ZM19 12.584V11.395L22 8.36695L22.025 15.605L19 12.583V12.584Z" fill="#32B66C"/>
</g>
<defs>
<clipPath id="clip0_2071_12316">
<rect width="24" height="24" fill="white"/>
</clipPath>
</defs>
</svg>
