<svg width="16" height="16" viewBox="0 0 16 16" fill="none" xmlns="http://www.w3.org/2000/svg">
<path d="M11.4286 0C9.32571 0 7.61905 1.74829 7.61905 3.90244C7.61905 6.05659 9.32571 7.80488 11.4286 7.80488C13.5314 7.80488 15.2381 6.05659 15.2381 3.90244C15.2381 1.74829 13.5314 0 11.4286 0ZM11.4286 6.2439C10.1638 6.2439 9.14286 5.19805 9.14286 3.90244C9.14286 2.60683 10.1638 1.56098 11.4286 1.56098C12.6933 1.56098 13.7143 2.60683 13.7143 3.90244C13.7143 5.19805 12.6933 6.2439 11.4286 6.2439ZM13.7143 10.9268H12.1905C12.1905 9.99024 11.619 9.14732 10.7657 8.81951L6.07238 7.02439H0V15.6098H4.57143V14.4859L9.90476 16L16 14.0488V13.2683C16 11.9727 14.979 10.9268 13.7143 10.9268ZM3.04762 14.0488H1.52381V8.58537H3.04762V14.0488ZM9.88191 14.3688L4.57143 12.878V8.58537H5.7981L10.2324 10.279C10.4914 10.3805 10.6667 10.638 10.6667 10.9268C10.6667 10.9268 9.14286 10.8878 8.91429 10.8098L7.10095 10.1932L6.62095 11.6761L8.43429 12.2927C8.82286 12.4254 9.22667 12.4878 9.63809 12.4878H13.7143C14.0114 12.4878 14.2781 12.6751 14.4 12.9327L9.88191 14.3688Z" fill="#B632B1"/>
</svg>
