<svg width="41" height="41" viewBox="0 0 41 41" fill="none" xmlns="http://www.w3.org/2000/svg">
<g clip-path="url(#clip0_2139_13365)">
<path d="M10.1165 28.7066V28.2533L9.66605 28.2026C4.52483 27.6243 0.50716 23.302 0.50716 18.0175C0.50716 12.3364 5.12938 7.71414 10.8105 7.71414C16.7391 7.71414 21.1139 12.7059 21.1139 18.0175C21.1139 19.696 20.6779 21.2667 19.9486 22.6741C19.5451 22.4238 19.1778 22.123 18.8521 21.7786C19.3933 20.6399 19.7259 19.3749 19.7259 18.0175C19.7259 13.4341 15.8996 9.10215 10.8105 9.10215C5.89463 9.10215 1.89518 13.1016 1.89518 18.0175C1.89518 22.9334 5.89463 26.9328 10.8105 26.9328C11.3197 26.9328 11.819 26.8896 12.3053 26.807C12.6385 27.2061 12.9932 27.5873 13.3692 27.9474C12.9095 28.0616 12.4343 28.1459 11.9472 28.2084L11.5045 28.2652V28.7114V33.7128V34.2199H12.0117H15.6152C15.999 34.2199 16.3092 34.5301 16.3092 34.9139C16.3092 35.2978 15.999 35.608 15.6152 35.608H12.0117H11.5045V36.1151V39.7987C11.5045 40.1825 11.1944 40.4927 10.8105 40.4927C10.4267 40.4927 10.1165 40.1825 10.1165 39.7987V36.1151V35.608H9.60935H6.00585C5.62202 35.608 5.31184 35.2978 5.31184 34.9139C5.31184 34.5301 5.62202 34.2199 6.00585 34.2199H9.60935H10.1165V33.7128V28.7066Z" fill="white" stroke="white"/>
<path d="M20.2522 8.07713C21.0795 7.8495 21.9353 7.71418 22.8219 7.71418C25.2433 7.71418 27.4467 8.5901 29.2153 10.0048L29.5659 10.2853L29.8868 9.97133L37.2534 2.76487L38.1424 1.89518H36.8987H32.5914C32.2076 1.89518 31.8974 1.585 31.8974 1.20117C31.8974 0.817339 32.2076 0.50716 32.5914 0.50716H39.2913H39.7984C40.1794 0.50716 40.4924 0.822615 40.4924 1.20117V8.40819C40.4924 8.79201 40.1823 9.10219 39.7984 9.10219C39.4146 9.10219 39.1044 8.79201 39.1044 8.40819V4.10087V2.89526L38.2426 3.73834L30.876 10.9448L30.5479 11.2657L30.8346 11.6241C32.2493 13.3927 33.1253 15.5961 33.1253 18.0175C33.1253 23.6987 28.503 28.3209 22.8219 28.3209C17.0111 28.3209 12.5185 23.3779 12.5185 18.0175C12.5185 16.339 12.9545 14.7683 13.6838 13.3609C14.0873 13.6112 14.4546 13.9121 14.7803 14.2565C14.2391 15.3951 13.9066 16.6601 13.9066 18.0175C13.9066 22.6488 17.7682 26.9329 22.8219 26.9329C27.7378 26.9329 31.7372 22.9334 31.7372 18.0175C31.7372 13.1016 27.7378 9.10219 22.8219 9.10219C22.3128 9.10219 21.8135 9.1454 21.3272 9.228C20.9907 8.82508 20.6324 8.44034 20.2522 8.07713Z" fill="white" stroke="white"/>
</g>
<defs>
<clipPath id="clip0_2139_13365">
<rect width="40.4211" height="40.4211" fill="white" transform="scale(1.01432)"/>
</clipPath>
</defs>
</svg>
