<svg width="28" height="28" viewBox="0 0 28 28" fill="none" xmlns="http://www.w3.org/2000/svg">
<g clip-path="url(#clip0_0_981)">
<path d="M27.8717 19.6875C27.7659 19.376 27.5997 19.0884 27.3824 18.8413C27.1652 18.5943 26.9013 18.3926 26.6059 18.2478C26.3104 18.1031 25.9893 18.0182 25.6609 17.998C25.3326 17.9777 25.0035 18.0226 24.6925 18.13L22.1667 18.9175C22.202 18.5907 22.1679 18.2601 22.0666 17.9474C21.9652 17.6347 21.799 17.3469 21.5787 17.1029C21.3584 16.8589 21.089 16.6642 20.7882 16.5316C20.4875 16.399 20.1621 16.3314 19.8333 16.3333H13.5917C11.375 14.8517 9.50833 15.1667 5.83333 15.1667V14.5833C5.83333 14.4286 5.77188 14.2803 5.66248 14.1709C5.55308 14.0615 5.40471 14 5.25 14H0.583333C0.428624 14 0.280251 14.0615 0.170854 14.1709C0.0614582 14.2803 0 14.4286 0 14.5833L0 23.9167C0 24.0714 0.0614582 24.2197 0.170854 24.3291C0.280251 24.4385 0.428624 24.5 0.583333 24.5H5.25C5.40471 24.5 5.55308 24.4385 5.66248 24.3291C5.77188 24.2197 5.83333 24.0714 5.83333 23.9167C5.83333 23.7125 5.78083 23.7242 6.0025 23.8525C8.29708 25.1732 10.8629 25.9527 13.5043 26.1317C16.1458 26.3106 18.7933 25.8842 21.245 24.885L26.495 22.7558C27.0655 22.5078 27.5228 22.0558 27.7774 21.4882C28.0321 20.9207 28.0657 20.2785 27.8717 19.6875ZM4.66667 23.3333H1.16667V15.1667H4.66667V23.3333ZM26.0575 21.6767L20.8075 23.8C18.5204 24.7343 16.05 25.1332 13.5852 24.9664C11.1203 24.7996 8.72616 24.0714 6.58583 22.8375L5.83333 22.4117V16.3333C9.6775 16.3333 11.1125 16.0825 12.9442 17.3017C13.3525 17.5758 13.1017 17.5 19.8333 17.5C20.0547 17.5007 20.2713 17.5645 20.4578 17.6837C20.6444 17.803 20.7931 17.9728 20.8867 18.1735C20.9803 18.3741 21.0149 18.5972 20.9864 18.8168C20.9579 19.0363 20.8675 19.2432 20.7258 19.4133C20.0725 19.9967 20.6383 19.8333 13.4167 19.8333C13.262 19.8333 13.1136 19.8948 13.0042 20.0042C12.8948 20.1136 12.8333 20.262 12.8333 20.4167C12.8333 20.5714 12.8948 20.7197 13.0042 20.8291C13.1136 20.9385 13.262 21 13.4167 21C19.9908 21 20.5333 21.2158 21.4375 20.3583L25.0833 19.25C25.4018 19.1414 25.7498 19.1587 26.0559 19.2984C26.362 19.4381 26.6032 19.6895 26.7299 20.0012C26.8567 20.3128 26.8595 20.6612 26.7377 20.9749C26.6159 21.2886 26.3789 21.5438 26.075 21.6883L26.0575 21.6767Z" fill="#32B66C"/>
<path d="M2.50266 21.1686C2.42156 21.2504 2.36648 21.3544 2.34436 21.4674C2.32224 21.5804 2.33407 21.6975 2.37836 21.8038C2.42265 21.9101 2.49742 22.0009 2.59324 22.0648C2.68907 22.1287 2.80166 22.1628 2.91683 22.1628C3.032 22.1628 3.14459 22.1287 3.24041 22.0648C3.33624 22.0009 3.41101 21.9101 3.4553 21.8038C3.49959 21.6975 3.51142 21.5804 3.4893 21.4674C3.46718 21.3544 3.4121 21.2504 3.331 21.1686C3.27677 21.114 3.21225 21.0706 3.14117 21.041C3.07008 21.0113 2.99384 20.9961 2.91683 20.9961C2.83982 20.9961 2.76358 21.0113 2.69249 21.041C2.62141 21.0706 2.55689 21.114 2.50266 21.1686Z" fill="#32B66C"/>
<path d="M18.6667 9.91732H16.3333C16.1786 9.91732 16.0303 9.97878 15.9209 10.0882C15.8115 10.1976 15.75 10.3459 15.75 10.5007C15.75 10.6554 15.8115 10.8037 15.9209 10.9131C16.0303 11.0225 16.1786 11.084 16.3333 11.084H17.5V11.6673C17.5 11.822 17.5615 11.9704 17.6709 12.0798C17.7802 12.1892 17.9286 12.2507 18.0833 12.2507C18.238 12.2507 18.3864 12.1892 18.4958 12.0798C18.6052 11.9704 18.6667 11.822 18.6667 11.6673V11.084C19.1308 11.084 19.5759 10.8996 19.9041 10.5714C20.2323 10.2432 20.4167 9.79811 20.4167 9.33399C20.4167 8.86986 20.2323 8.42474 19.9041 8.09655C19.5759 7.76836 19.1308 7.58398 18.6667 7.58398H17.5C17.3453 7.58398 17.1969 7.52253 17.0875 7.41313C16.9781 7.30373 16.9167 7.15536 16.9167 7.00065C16.9167 6.84594 16.9781 6.69757 17.0875 6.58817C17.1969 6.47878 17.3453 6.41732 17.5 6.41732H19.8333C19.988 6.41732 20.1364 6.35586 20.2458 6.24646C20.3552 6.13707 20.4167 5.98869 20.4167 5.83398C20.4167 5.67928 20.3552 5.5309 20.2458 5.42151C20.1364 5.31211 19.988 5.25065 19.8333 5.25065H18.6667V4.66732C18.6667 4.51261 18.6052 4.36424 18.4958 4.25484C18.3864 4.14544 18.238 4.08398 18.0833 4.08398C17.9286 4.08398 17.7802 4.14544 17.6709 4.25484C17.5615 4.36424 17.5 4.51261 17.5 4.66732V5.25065C17.0359 5.25065 16.5908 5.43503 16.2626 5.76321C15.9344 6.0914 15.75 6.53652 15.75 7.00065C15.75 7.46478 15.9344 7.9099 16.2626 8.23809C16.5908 8.56628 17.0359 8.75065 17.5 8.75065H18.6667C18.8214 8.75065 18.9697 8.81211 19.0791 8.92151C19.1885 9.0309 19.25 9.17928 19.25 9.33399C19.25 9.4887 19.1885 9.63707 19.0791 9.74646C18.9697 9.85586 18.8214 9.91732 18.6667 9.91732Z" fill="#DAA930"/>
<path d="M18.0832 14.5833C19.3523 14.5833 20.5929 14.207 21.6481 13.5019C22.7033 12.7969 23.5257 11.7947 24.0114 10.6222C24.4971 9.44973 24.6241 8.15955 24.3765 6.91484C24.129 5.67013 23.5178 4.52679 22.6204 3.6294C21.7231 2.73201 20.5797 2.12089 19.335 1.8733C18.0903 1.62571 16.8001 1.75278 15.6276 2.23844C14.4551 2.7241 13.453 3.54655 12.7479 4.60176C12.0428 5.65698 11.6665 6.89757 11.6665 8.16667C11.6665 9.86847 12.3425 11.5006 13.5459 12.7039C14.7493 13.9073 16.3814 14.5833 18.0832 14.5833ZM18.0832 2.91667C19.1215 2.91667 20.1366 3.22458 20.9999 3.80145C21.8633 4.37833 22.5362 5.19827 22.9335 6.15758C23.3309 7.11689 23.4349 8.17249 23.2323 9.19089C23.0297 10.2093 22.5297 11.1448 21.7955 11.879C21.0613 12.6132 20.1258 13.1132 19.1074 13.3158C18.089 13.5184 17.0334 13.4144 16.0741 13.017C15.1148 12.6197 14.2948 11.9468 13.718 11.0834C13.1411 10.2201 12.8332 9.20502 12.8332 8.16667C12.8332 6.77428 13.3863 5.43892 14.3709 4.45436C15.3554 3.46979 16.6908 2.91667 18.0832 2.91667Z" fill="#DAA930"/>
</g>
<defs>
<clipPath id="clip0_0_981">
<rect width="28" height="28" fill="white"/>
</clipPath>
</defs>
</svg>
