<svg width="19" height="25" viewBox="0 0 19 25" fill="none" xmlns="http://www.w3.org/2000/svg">
<path d="M12.8704 4.00641C12.0449 5.05606 10.724 5.88396 9.40316 5.76569C9.23806 4.34644 9.88473 2.83849 10.6415 1.90711C11.467 0.827893 12.9117 0.0591352 14.0812 0C14.2188 1.47838 13.6822 2.92719 12.8704 4.00641Z" fill="white"/>
<path d="M14.0673 6.0465C12.9037 5.97453 11.8419 6.42252 10.9843 6.78437C10.4323 7.01723 9.96499 7.21442 9.60942 7.21442C9.21041 7.21442 8.72375 7.00668 8.17734 6.77345C7.46138 6.46783 6.64282 6.11843 5.78444 6.1352C3.81691 6.16477 1.98697 7.36225 0.982573 9.26936C-1.08127 13.0836 0.445975 18.731 2.44102 21.8356C3.4179 23.3731 4.58741 25.0585 6.12841 24.9993C6.80636 24.9718 7.29404 24.7495 7.79874 24.5194C8.37978 24.2544 8.98339 23.9792 9.92588 23.9792C10.8357 23.9792 11.4129 24.2473 11.967 24.5046C12.4938 24.7492 12.9998 24.9842 13.7509 24.9698C15.3469 24.9402 16.3513 23.4322 17.3282 21.8947C18.3824 20.2445 18.8457 18.6341 18.916 18.3897L18.9242 18.3614C18.9225 18.3596 18.9095 18.3532 18.8865 18.3419C18.5341 18.1685 15.8405 16.8436 15.8147 13.2906C15.7888 10.3083 17.9512 8.79735 18.2916 8.5595C18.3123 8.54502 18.3263 8.53526 18.3326 8.53017C16.9567 6.34217 14.8103 6.10563 14.0673 6.0465Z" fill="white"/>
</svg>
