<svg width="12" height="12" viewBox="0 0 12 12" fill="none" xmlns="http://www.w3.org/2000/svg">
<g clip-path="url(#clip0_0_329)">
<path d="M1.05469 12C0.473145 12 0 11.5269 0 10.9453C0 10.3638 0.473145 9.89062 1.05469 9.89062C1.63623 9.89062 2.10938 10.3638 2.10938 10.9453C2.10938 11.5269 1.63623 12 1.05469 12Z" fill="#DAA930"/>
<path d="M11.2388 4.01065C11.0297 3.83762 10.9199 3.5723 10.9453 3.30139C11.0026 2.68442 10.7864 2.08154 10.3524 1.64758C9.91846 1.21362 9.31485 1.00049 8.69861 1.05469C8.42331 1.07977 8.16202 0.970184 7.98935 0.761169C7.58899 0.277405 7.00049 0 6.375 0C5.74951 0 5.16101 0.277405 4.76065 0.761169C4.58762 0.970917 4.32367 1.08115 4.05139 1.05469C3.43277 0.999115 2.83118 1.21362 2.39758 1.64758C1.96362 2.08154 1.74738 2.68442 1.80469 3.30139C1.83014 3.57257 1.72055 3.83762 1.51117 4.01065C1.0274 4.41101 0.75 4.99951 0.75 5.625C0.75 6.25049 1.0274 6.83899 1.51117 7.23935C1.72028 7.41238 1.83014 7.6777 1.80469 7.94861C1.74738 8.56558 1.96362 9.16846 2.39758 9.60242C2.83191 10.037 3.4389 10.2554 4.05103 10.1949C4.32294 10.1689 4.58734 10.2794 4.76065 10.4888C5.16101 10.9726 5.74951 11.25 6.375 11.25C7.00049 11.25 7.58899 10.9726 7.98935 10.4888C8.16238 10.2794 8.42532 10.1699 8.69861 10.1949C9.31183 10.2475 9.91809 10.0364 10.3524 9.60242C10.7864 9.16846 11.0026 8.56558 10.9453 7.94861C10.92 7.67734 11.0294 7.41229 11.2388 7.23926C11.7226 6.83899 12 6.25049 12 5.625C12 4.99951 11.7226 4.41101 11.2388 4.01065ZM3.91406 6.32812C3.52643 6.32812 3.21094 6.01263 3.21094 5.625C3.21094 5.23737 3.52643 4.92188 3.91406 4.92188C4.3017 4.92188 4.61719 5.23737 4.61719 5.625C4.61719 6.01263 4.3017 6.32812 3.91406 6.32812ZM6.375 6.32812C5.98737 6.32812 5.67188 6.01263 5.67188 5.625C5.67188 5.23737 5.98737 4.92188 6.375 4.92188C6.76263 4.92188 7.07812 5.23737 7.07812 5.625C7.07812 6.01263 6.76263 6.32812 6.375 6.32812ZM8.83594 6.32812C8.4483 6.32812 8.13281 6.01263 8.13281 5.625C8.13281 5.23737 8.4483 4.92188 8.83594 4.92188C9.22357 4.92188 9.53906 5.23737 9.53906 5.625C9.53906 6.01263 9.22357 6.32812 8.83594 6.32812Z" fill="#DAA930"/>
</g>
<defs>
<clipPath id="clip0_0_329">
<rect width="12" height="12" fill="white"/>
</clipPath>
</defs>
</svg>
