<svg width="24" height="24" viewBox="0 0 24 24" fill="none" xmlns="http://www.w3.org/2000/svg">
<mask id="path-1-inside-1_0_225" fill="white">
<path d="M20.8899 9.87764C20.1555 8.66781 19.229 7.58713 18.1473 6.6785L20.4254 4.38696C20.5736 4.23261 20.6556 4.02588 20.6537 3.81129C20.6519 3.59671 20.5663 3.39144 20.4155 3.23971C20.2646 3.08797 20.0606 3.0019 19.8472 3.00003C19.6339 2.99817 19.4284 3.08066 19.2749 3.22974L16.7975 5.72505C15.2618 4.80747 13.5061 4.32923 11.7199 4.34195C6.68292 4.34195 3.81255 7.81035 2.54985 9.87764C2.15976 10.5123 1.95313 11.2438 1.95312 11.9899C1.95312 12.7361 2.15976 13.4676 2.54985 14.1022C3.28433 15.3121 4.2108 16.3928 5.29249 17.3014L3.01442 19.5929C2.93671 19.6684 2.87473 19.7587 2.83209 19.8586C2.78945 19.9584 2.76701 20.0658 2.76607 20.1745C2.76513 20.2832 2.78571 20.3909 2.82662 20.4915C2.86753 20.5921 2.92794 20.6835 3.00433 20.7603C3.08072 20.8371 3.17156 20.8979 3.27155 20.9391C3.37154 20.9802 3.47867 21.0009 3.5867 21C3.69473 20.999 3.80149 20.9764 3.90075 20.9336C4.00001 20.8907 4.08979 20.8283 4.16484 20.7502L6.64794 18.2524C8.18178 19.1698 9.93541 19.6489 11.7199 19.6379C16.7569 19.6379 19.6272 16.1695 20.8899 14.1022C21.28 13.4676 21.4867 12.7361 21.4867 11.9899C21.4867 11.2438 21.28 10.5123 20.8899 9.87764ZM3.93622 13.2454C3.70446 12.8681 3.5817 12.4334 3.5817 11.9899C3.5817 11.5465 3.70446 11.1118 3.93622 10.7345C5.02156 8.96184 7.47455 5.97876 11.7199 5.97876C13.0707 5.97115 14.4025 6.29862 15.5975 6.9322L13.9597 8.57965C13.1786 8.058 12.2421 7.82426 11.3092 7.91809C10.3763 8.01192 9.50436 8.42754 8.84139 9.09443C8.17842 9.76132 7.76524 10.6384 7.67197 11.5768C7.57869 12.5153 7.81105 13.4573 8.32964 14.243L6.45023 16.1335C5.45366 15.3231 4.60324 14.3461 3.93622 13.2454ZM14.1607 11.9899C14.1607 12.6411 13.9035 13.2656 13.4458 13.726C12.9881 14.1865 12.3672 14.4452 11.7199 14.4452C11.3574 14.4437 11 14.3598 10.6744 14.1996L13.9166 10.9383C14.0758 11.2658 14.1593 11.6254 14.1607 11.9899ZM9.27911 11.9899C9.27911 11.3388 9.53626 10.7143 9.994 10.2538C10.4517 9.7934 11.0726 9.53473 11.7199 9.53473C12.0823 9.53614 12.4398 9.62008 12.7654 9.78025L9.52319 13.0416C9.36396 12.7141 9.28051 12.3545 9.27911 11.9899ZM19.5036 13.2454C18.4182 15.018 15.9652 18.0011 11.7199 18.0011C10.3691 18.0087 9.03728 17.6813 7.8423 17.0477L9.48006 15.4002C10.2612 15.9219 11.1976 16.1556 12.1306 16.0618C13.0635 15.968 13.9354 15.5523 14.5984 14.8855C15.2614 14.2186 15.6745 13.3415 15.7678 12.403C15.8611 11.4646 15.6287 10.5226 15.1101 9.73687L16.9896 7.84636C17.9861 8.65681 18.8365 9.63379 19.5036 10.7345C19.7353 11.1118 19.8581 11.5465 19.8581 11.9899C19.8581 12.4334 19.7353 12.8681 19.5036 13.2454Z"/>
</mask>
<path d="M20.8899 9.87764C20.1555 8.66781 19.229 7.58713 18.1473 6.6785L20.4254 4.38696C20.5736 4.23261 20.6556 4.02588 20.6537 3.81129C20.6519 3.59671 20.5663 3.39144 20.4155 3.23971C20.2646 3.08797 20.0606 3.0019 19.8472 3.00003C19.6339 2.99817 19.4284 3.08066 19.2749 3.22974L16.7975 5.72505C15.2618 4.80747 13.5061 4.32923 11.7199 4.34195C6.68292 4.34195 3.81255 7.81035 2.54985 9.87764C2.15976 10.5123 1.95313 11.2438 1.95312 11.9899C1.95312 12.7361 2.15976 13.4676 2.54985 14.1022C3.28433 15.3121 4.2108 16.3928 5.29249 17.3014L3.01442 19.5929C2.93671 19.6684 2.87473 19.7587 2.83209 19.8586C2.78945 19.9584 2.76701 20.0658 2.76607 20.1745C2.76513 20.2832 2.78571 20.3909 2.82662 20.4915C2.86753 20.5921 2.92794 20.6835 3.00433 20.7603C3.08072 20.8371 3.17156 20.8979 3.27155 20.9391C3.37154 20.9802 3.47867 21.0009 3.5867 21C3.69473 20.999 3.80149 20.9764 3.90075 20.9336C4.00001 20.8907 4.08979 20.8283 4.16484 20.7502L6.64794 18.2524C8.18178 19.1698 9.93541 19.6489 11.7199 19.6379C16.7569 19.6379 19.6272 16.1695 20.8899 14.1022C21.28 13.4676 21.4867 12.7361 21.4867 11.9899C21.4867 11.2438 21.28 10.5123 20.8899 9.87764ZM3.93622 13.2454C3.70446 12.8681 3.5817 12.4334 3.5817 11.9899C3.5817 11.5465 3.70446 11.1118 3.93622 10.7345C5.02156 8.96184 7.47455 5.97876 11.7199 5.97876C13.0707 5.97115 14.4025 6.29862 15.5975 6.9322L13.9597 8.57965C13.1786 8.058 12.2421 7.82426 11.3092 7.91809C10.3763 8.01192 9.50436 8.42754 8.84139 9.09443C8.17842 9.76132 7.76524 10.6384 7.67197 11.5768C7.57869 12.5153 7.81105 13.4573 8.32964 14.243L6.45023 16.1335C5.45366 15.3231 4.60324 14.3461 3.93622 13.2454ZM14.1607 11.9899C14.1607 12.6411 13.9035 13.2656 13.4458 13.726C12.9881 14.1865 12.3672 14.4452 11.7199 14.4452C11.3574 14.4437 11 14.3598 10.6744 14.1996L13.9166 10.9383C14.0758 11.2658 14.1593 11.6254 14.1607 11.9899ZM9.27911 11.9899C9.27911 11.3388 9.53626 10.7143 9.994 10.2538C10.4517 9.7934 11.0726 9.53473 11.7199 9.53473C12.0823 9.53614 12.4398 9.62008 12.7654 9.78025L9.52319 13.0416C9.36396 12.7141 9.28051 12.3545 9.27911 11.9899ZM19.5036 13.2454C18.4182 15.018 15.9652 18.0011 11.7199 18.0011C10.3691 18.0087 9.03728 17.6813 7.8423 17.0477L9.48006 15.4002C10.2612 15.9219 11.1976 16.1556 12.1306 16.0618C13.0635 15.968 13.9354 15.5523 14.5984 14.8855C15.2614 14.2186 15.6745 13.3415 15.7678 12.403C15.8611 11.4646 15.6287 10.5226 15.1101 9.73687L16.9896 7.84636C17.9861 8.65681 18.8365 9.63379 19.5036 10.7345C19.7353 11.1118 19.8581 11.5465 19.8581 11.9899C19.8581 12.4334 19.7353 12.8681 19.5036 13.2454Z" fill="white"/>
<path d="M18.1473 6.6785L3.01797 -8.36194L-13.3384 8.09114L4.42567 23.0134L18.1473 6.6785ZM20.4254 4.38696L35.5547 19.4274L35.6854 19.2959L35.8138 19.1622L20.4254 4.38696ZM19.2749 3.22974L4.4093 -12.0714L4.2713 -11.9373L4.13575 -11.8008L19.2749 3.22974ZM16.7975 5.72505L5.85561 24.0386L20.1801 32.5972L31.9367 20.7555L16.7975 5.72505ZM11.7199 4.34195V25.6753H11.7958L11.8717 25.6747L11.7199 4.34195ZM2.54985 9.87764L20.7246 21.0485L20.7402 21.0232L20.7557 20.9978L2.54985 9.87764ZM2.54985 14.1022L20.7857 3.03136L20.7553 2.98128L20.7246 2.93136L2.54985 14.1022ZM5.29249 17.3014L20.4218 32.3418L36.7782 15.8887L19.0141 0.966526L5.29249 17.3014ZM3.01442 19.5929L17.8801 34.894L18.013 34.7648L18.1438 34.6334L3.01442 19.5929ZM4.16484 20.7502L-10.9645 5.70972L-11.0952 5.84118L-11.2235 5.97488L4.16484 20.7502ZM6.64794 18.2524L17.5986 -0.0559351L3.28079 -8.61976L-8.48139 3.21195L6.64794 18.2524ZM11.7199 19.6379V-1.6954H11.6546L11.5893 -1.695L11.7199 19.6379ZM20.8899 14.1022L2.71516 2.93136L2.69958 2.95671L2.68407 2.98211L20.8899 14.1022ZM3.93622 10.7345L22.1133 21.9017L22.1218 21.8879L22.1302 21.874L3.93622 10.7345ZM11.7199 5.97876V27.3121H11.78L11.8401 27.3118L11.7199 5.97876ZM15.5975 6.9322L30.7268 21.9726L51.0152 1.5643L25.5907 -11.9158L15.5975 6.9322ZM13.9597 8.57965L2.11179 26.3205L16.7116 36.0707L29.0891 23.6201L13.9597 8.57965ZM8.32964 14.243L23.459 29.2834L35.6943 16.9758L26.1346 2.4916L8.32964 14.243ZM6.45023 16.1335L-7.00978 32.6846L7.96845 44.8655L21.5796 31.174L6.45023 16.1335ZM11.7199 14.4452L11.6368 35.7783L11.6784 35.7785H11.7199V14.4452ZM10.6744 14.1996L-4.45491 -0.840792L-25.4003 20.2284L1.2577 33.3422L10.6744 14.1996ZM13.9166 10.9383L33.1027 1.61071L19.9675 -25.4075L-1.21273 -4.10214L13.9166 10.9383ZM9.27911 11.9899H-12.0542V12.031L-12.0541 12.0721L9.27911 11.9899ZM11.7199 9.53473L11.803 -11.7984L11.7614 -11.7986H11.7199V9.53473ZM12.7654 9.78025L27.8947 24.8207L48.8401 3.7515L22.1821 -9.36228L12.7654 9.78025ZM9.52319 13.0416L-9.66294 22.3692L3.47232 49.3874L24.6525 28.082L9.52319 13.0416ZM11.7199 18.0011V-3.33221H11.6598L11.5997 -3.33187L11.7199 18.0011ZM7.8423 17.0477L-7.28704 2.00726L-27.5754 22.4156L-2.15091 35.8957L7.8423 17.0477ZM9.48006 15.4002L21.328 -2.3406L6.72821 -12.0908L-5.64927 0.359813L9.48006 15.4002ZM15.1101 9.73687L-0.0191815 -5.30355L-12.2545 7.00407L-2.69478 21.4883L15.1101 9.73687ZM16.9896 7.84636L30.4496 -8.70475L15.4713 -20.8856L1.86022 -7.19407L16.9896 7.84636ZM19.5036 10.7345L1.25873 21.7906L1.29246 21.8463L1.32652 21.9017L19.5036 10.7345ZM39.1258 -1.19324C37.186 -4.3884 34.7358 -7.24817 31.8689 -9.65637L4.42567 23.0134C3.7222 22.4224 3.12487 21.724 2.65407 20.9485L39.1258 -1.19324ZM33.2766 21.7189L35.5547 19.4274L5.29604 -10.6535L3.01797 -8.36194L33.2766 21.7189ZM35.8138 19.1622C39.8331 14.9761 42.0361 9.39525 41.9863 3.62701L-0.67881 3.99558C-0.724933 -1.34349 1.31405 -6.51089 5.03698 -10.3883L35.8138 19.1622ZM41.9863 3.62701C41.9364 -2.14137 39.6372 -7.68414 35.5448 -11.8007L5.28613 18.2801C1.49543 14.467 -0.632687 9.33479 -0.67881 3.99558L41.9863 3.62701ZM35.5448 -11.8007C31.4483 -15.9214 25.8806 -18.2814 20.0337 -18.3325L19.6608 24.3326C14.2405 24.2852 9.0809 22.0973 5.28613 18.2801L35.5448 -11.8007ZM20.0337 -18.3325C14.1867 -18.3836 8.57774 -16.1212 4.4093 -12.0714L34.1406 18.5308C30.279 22.2825 25.0811 24.3799 19.6608 24.3326L20.0337 -18.3325ZM4.13575 -11.8008L1.65835 -9.30544L31.9367 20.7555L34.4141 18.2602L4.13575 -11.8008ZM27.7395 -12.5885C22.8573 -15.5055 17.2652 -17.0314 11.568 -16.9908L11.8717 25.6747C9.747 25.6899 7.66632 25.1204 5.85561 24.0386L27.7395 -12.5885ZM11.7199 -16.9914C-4.50954 -16.9914 -12.9962 -5.59717 -15.656 -1.2425L20.7557 20.9978C20.5005 21.4156 19.8487 22.4073 18.4957 23.4191C16.8876 24.6216 14.4772 25.6753 11.7199 25.6753V-16.9914ZM-15.6249 -1.29324C-18.0838 2.70728 -19.3802 7.30653 -19.3802 11.9899H23.2865C23.2865 15.181 22.4033 18.3174 20.7246 21.0485L-15.6249 -1.29324ZM-19.3802 11.9899C-19.3802 16.6734 -18.0838 21.2726 -15.6249 25.2731L20.7246 2.93136C22.4033 5.66253 23.2865 8.79891 23.2865 11.9899H-19.3802ZM-15.686 25.1731C-13.7463 28.3683 -11.296 31.228 -8.42915 33.6363L19.0141 0.966526C19.7176 1.55746 20.3149 2.25587 20.7857 3.03136L-15.686 25.1731ZM-9.83685 2.26097L-12.1149 4.5525L18.1438 34.6334L20.4218 32.3418L-9.83685 2.26097ZM-11.8512 4.29183C-13.9609 6.34146 -15.6367 8.78633 -16.7872 11.4803L22.4514 28.2369C21.3862 30.7311 19.8343 32.9954 17.8801 34.894L-11.8512 4.29183ZM-16.7872 11.4803C-17.9375 14.174 -18.5412 17.0665 -18.5665 19.9902L24.0986 20.3588C24.0752 23.0651 23.5164 25.7429 22.4514 28.2369L-16.7872 11.4803ZM-18.5665 19.9902C-18.5917 22.9139 -18.0381 25.8162 -16.9347 28.529L22.5879 12.454C23.6095 14.9656 24.122 17.6524 24.0986 20.3588L-18.5665 19.9902ZM-16.9347 28.529C-15.8312 31.2421 -14.1983 33.7152 -12.125 35.8007L18.1337 5.71987C20.0542 7.65172 21.5663 9.94207 22.5879 12.454L-16.9347 28.529ZM-12.125 35.8007C-10.0514 37.8865 -7.57866 39.543 -4.8475 40.667L11.3906 1.21111C13.9218 2.25281 16.2129 3.78774 18.1337 5.71987L-12.125 35.8007ZM-4.8475 40.667C-2.11615 41.7911 0.814819 42.3583 3.77317 42.3325L3.40023 -0.332549C6.14253 -0.356519 8.85922 0.169313 11.3906 1.21111L-4.8475 40.667ZM3.77317 42.3325C6.73165 42.3066 9.65201 41.6882 12.3628 40.5168L-4.56132 1.35028C-2.04903 0.264709 0.65781 -0.308577 3.40023 -0.332549L3.77317 42.3325ZM12.3628 40.5168C15.0734 39.3456 17.5165 37.6467 19.5532 35.5254L-11.2235 5.97488C-9.33693 4.00998 -7.07333 2.43574 -4.56132 1.35028L12.3628 40.5168ZM19.2942 35.7906L21.7773 33.2928L-8.48139 3.21195L-10.9645 5.70972L19.2942 35.7906ZM-4.30271 36.5607C0.573421 39.4772 6.15885 41.0057 11.8505 40.9709L11.5893 -1.695C13.712 -1.70799 15.7901 -1.13761 17.5986 -0.0559351L-4.30271 36.5607ZM11.7199 40.9713C27.9493 40.9713 36.436 29.5771 39.0958 25.2224L2.68407 2.98211C2.93926 2.56431 3.59113 1.57259 4.94408 0.560823C6.55215 -0.641725 8.96263 -1.6954 11.7199 -1.6954V40.9713ZM39.0647 25.2731C41.5236 21.2726 42.82 16.6734 42.82 11.9899H0.15333C0.15333 8.7989 1.03649 5.66253 2.71516 2.93136L39.0647 25.2731ZM42.82 11.9899C42.82 7.30653 41.5236 2.70728 39.0647 -1.29324L2.71516 21.0485C1.03649 18.3174 0.15333 15.181 0.15333 11.9899H42.82ZM22.1133 2.07819C23.9488 5.06595 24.915 8.49766 24.915 11.9899H-17.7516C-17.7516 16.3692 -16.5399 20.6703 -14.2408 24.4126L22.1133 2.07819ZM24.915 11.9899C24.915 15.4822 23.9488 18.9139 22.1133 21.9017L-14.2408 -0.432674C-16.5399 3.30958 -17.7516 7.61071 -17.7516 11.9899H24.915ZM22.1302 21.874C21.8163 22.3867 21.0462 23.5468 19.5082 24.7095C17.7197 26.0616 14.98 27.3121 11.7199 27.3121V-15.3546C-3.84929 -15.3546 -11.897 -4.2608 -14.2578 -0.405011L22.1302 21.874ZM11.8401 27.3118C9.66149 27.324 7.5192 26.7955 5.60429 25.7802L25.5907 -11.9158C21.2858 -14.1982 16.4799 -15.3817 11.5997 -15.3542L11.8401 27.3118ZM0.468165 -8.10823L-1.1696 -6.46078L29.0891 23.6201L30.7268 21.9726L0.468165 -8.10823ZM25.8077 -9.16119C20.9189 -12.4261 15.0409 -13.8982 9.17438 -13.3082L13.4441 29.1443C9.44343 29.5467 5.43833 28.5421 2.11179 26.3205L25.8077 -9.16119ZM9.17438 -13.3082C3.30862 -12.7182 -2.15178 -10.1066 -6.28794 -5.946L23.9707 24.1349C21.1605 26.9617 17.444 28.742 13.4441 29.1443L9.17438 -13.3082ZM-6.28794 -5.946C-10.4216 -1.78787 -12.9796 3.66035 -13.5568 9.46677L28.9007 13.6869C28.5101 17.6164 26.7785 21.3105 23.9707 24.1349L-6.28794 -5.946ZM-13.5568 9.46677C-14.1338 15.2725 -12.6985 21.1108 -9.47529 25.9944L26.1346 2.4916C28.3206 5.80374 29.2912 9.75803 28.9007 13.6869L-13.5568 9.46677ZM-6.79969 -0.797416L-8.6791 1.0931L21.5796 31.174L23.459 29.2834L-6.79969 -0.797416ZM19.9102 -0.417581C20.8157 0.318807 21.5826 1.20171 22.1811 2.18928L-14.3086 24.3015C-12.3761 27.4905 -9.90842 30.3273 -7.00978 32.6846L19.9102 -0.417581ZM-7.17265 11.9899C-7.17265 7.0236 -5.21256 2.23549 -1.68354 -1.31439L28.5751 28.7665C33.0196 24.2957 35.494 18.2586 35.494 11.9899H-7.17265ZM-1.68354 -1.31439C1.8497 -4.86851 6.66858 -6.88818 11.7199 -6.88818V35.7785C18.0659 35.7785 24.1264 33.2415 28.5751 28.7665L-1.68354 -1.31439ZM11.803 -6.88801C14.6815 -6.8768 17.5155 -6.20993 20.0912 -4.94289L1.2577 33.3422C4.48455 34.9295 8.03339 35.7643 11.6368 35.7783L11.803 -6.88801ZM25.8038 29.2401L29.0459 25.9787L-1.21273 -4.10214L-4.45491 -0.840792L25.8038 29.2401ZM-5.26952 20.2659C-6.51281 17.7085 -7.16158 14.9077 -7.17249 12.0721L35.4939 11.9078C35.4801 8.34306 34.6645 4.82311 33.1027 1.61071L-5.26952 20.2659ZM30.6124 11.9899C30.6124 16.9563 28.6523 21.7444 25.1233 25.2943L-5.13533 -4.78659C-9.57983 -0.315822 -12.0542 5.72128 -12.0542 11.9899H30.6124ZM25.1233 25.2943C21.5901 28.8484 16.7712 30.8681 11.7199 30.8681V-11.7986C5.37392 -11.7986 -0.686614 -9.2616 -5.13533 -4.78659L25.1233 25.2943ZM11.6368 30.8679C8.7583 30.8567 5.92431 30.1898 3.34864 28.9228L22.1821 -9.36228C18.9552 -10.9497 15.4064 -11.7844 11.803 -11.7984L11.6368 30.8679ZM-2.36397 -5.26018L-5.60614 -1.99884L24.6525 28.082L27.8947 24.8207L-2.36397 -5.26018ZM28.7093 3.71401C29.9526 6.27136 30.6014 9.07223 30.6123 11.9078L-12.0541 12.0721C-12.0403 15.6368 -11.2247 19.1568 -9.66294 22.3692L28.7093 3.71401ZM1.30955 2.10586C1.62345 1.59317 2.39358 0.433112 3.93156 -0.729594C5.7201 -2.08171 8.45981 -3.33221 11.7199 -3.33221V39.3345C27.2891 39.3345 35.3368 28.2407 37.6976 24.3849L1.30955 2.10586ZM11.5997 -3.33187C13.7783 -3.34414 15.9206 -2.8156 17.8355 -1.80031L-2.15091 35.8957C2.15397 38.1781 6.95992 39.3616 11.8401 39.3341L11.5997 -3.33187ZM22.9716 32.0881L24.6094 30.4407L-5.64927 0.359813L-7.28704 2.00726L22.9716 32.0881ZM-2.36788 33.1411C2.5209 36.406 8.39894 37.8781 14.2654 37.288L9.99573 -5.16445C13.9963 -5.56681 18.0014 -4.56219 21.328 -2.3406L-2.36788 33.1411ZM14.2654 37.288C20.1312 36.6981 25.5916 34.0865 29.7277 29.9259L-0.530935 -0.15497C2.27929 -2.9818 5.99584 -4.76216 9.99573 -5.16445L14.2654 37.288ZM29.7277 29.9259C33.8614 25.7677 36.4194 20.3195 36.9965 14.5131L-5.4609 10.293C-5.07032 6.36346 -3.3387 2.6694 -0.530935 -0.15497L29.7277 29.9259ZM36.9965 14.5131C37.5736 8.70736 36.1383 2.86906 32.9151 -2.01453L-2.69478 21.4883C-4.88083 18.1761 -5.85142 14.2218 -5.4609 10.293L36.9965 14.5131ZM30.2395 24.7773L32.1189 22.8868L1.86022 -7.19407L-0.0191815 -5.30355L30.2395 24.7773ZM3.52954 24.3975C2.62405 23.6611 1.8572 22.7782 1.25873 21.7906L37.7484 -0.321583C35.8159 -3.5106 33.3482 -6.34747 30.4496 -8.70475L3.52954 24.3975ZM1.32652 21.9017C-0.509035 18.9139 -1.47524 15.4822 -1.47524 11.9899H41.1914C41.1914 7.61073 39.9797 3.30959 37.6806 -0.432674L1.32652 21.9017ZM-1.47524 11.9899C-1.47524 8.49767 -0.509035 5.06596 1.32652 2.07819L37.6806 24.4126C39.9797 20.6703 41.1914 16.3692 41.1914 11.9899H-1.47524Z" fill="#DAA930" mask="url(#path-1-inside-1_0_225)"/>
</svg>
