<svg width="36" height="36" viewBox="0 0 36 36" fill="none" xmlns="http://www.w3.org/2000/svg">
<path d="M13.5 19.5L12.7929 18.7929L13.5 18.0858L14.2071 18.7929L13.5 19.5ZM14.5 33C14.5 33.5523 14.0523 34 13.5 34C12.9477 34 12.5 33.5523 12.5 33L14.5 33ZM5.29289 26.2929L12.7929 18.7929L14.2071 20.2071L6.70711 27.7071L5.29289 26.2929ZM14.2071 18.7929L21.7071 26.2929L20.2929 27.7071L12.7929 20.2071L14.2071 18.7929ZM14.5 19.5L14.5 33L12.5 33L12.5 19.5L14.5 19.5Z" fill="white"/>
<path d="M22.5 16.5L21.7929 17.2071L22.5 17.9142L23.2071 17.2071L22.5 16.5ZM23.5 3C23.5 2.44772 23.0523 2 22.5 2C21.9477 2 21.5 2.44772 21.5 3L23.5 3ZM14.2929 9.70711L21.7929 17.2071L23.2071 15.7929L15.7071 8.29289L14.2929 9.70711ZM23.2071 17.2071L30.7071 9.70711L29.2929 8.29289L21.7929 15.7929L23.2071 17.2071ZM23.5 16.5L23.5 3L21.5 3L21.5 16.5L23.5 16.5Z" fill="white"/>
</svg>
