<svg width="12" height="12" viewBox="0 0 12 12" fill="none" xmlns="http://www.w3.org/2000/svg">
<g clip-path="url(#clip0_2417_15145)">
<path d="M11.1592 8.79716L11.0065 8.64459L10.6545 8.29291L10.4125 8.60998M11.1592 8.79716L9.1 4.50048C9.1 4.44301 9.09768 4.38607 9.09314 4.32976C9.00603 3.25099 8.1009 2.40048 7 2.40048H2.5C2.49995 2.40048 2.4999 2.40048 2.49986 2.40048C1.34155 2.40056 0.4 3.34215 0.4 4.50048V7.50048C0.4 8.65885 1.34163 9.60048 2.5 9.60048H7C8.10542 9.60048 9.01347 8.74296 9.09417 7.65789C9.09803 7.60592 9.1 7.55342 9.1 7.50048V6.73998L9.76417 7.40349L10.5884 8.22695L10.638 8.27649L10.359 8.56398M11.1592 8.79716C11.1086 8.80506 11.0575 8.80898 11.0065 8.80898C10.7965 8.80898 10.5885 8.74198 10.4125 8.60998M11.1592 8.79716L10.0056 8.21094L10.359 8.56398M10.4125 8.60998L10.6521 8.29053L10.6421 8.28055L10.359 8.56398M10.4125 8.60998C10.3935 8.59548 10.376 8.58048 10.359 8.56398M11.6153 8.60103C11.8564 8.41552 12 8.12865 12 7.81648V4.15748C12 3.83672 11.8492 3.54361 11.5972 3.35879L11.5999 4.15748L11.6 4.1814L11.6125 7.8004L11.6126 7.81648L11.6153 8.60103ZM9.1 6.45837V6.29198H9.4995L9.21676 6.575L9.1 6.45837Z" fill="#DAA930" stroke="#DAA930" stroke-width="1.2"/>
</g>
<defs>
<clipPath id="clip0_2417_15145">
<rect width="12" height="12" fill="white"/>
</clipPath>
</defs>
</svg>
