<svg width="36" height="36" viewBox="0 0 36 36" fill="none" xmlns="http://www.w3.org/2000/svg">
<path d="M12 30L11.2929 30.7071L12 31.4142L12.7071 30.7071L12 30ZM15 7C15.5523 7 16 6.55228 16 6C16 5.44772 15.5523 5 15 5L15 7ZM5.29289 24.7071L11.2929 30.7071L12.7071 29.2929L6.70711 23.2929L5.29289 24.7071ZM12.7071 30.7071L18.7071 24.7071L17.2929 23.2929L11.2929 29.2929L12.7071 30.7071ZM13 30L13 8L11 8L11 30L13 30ZM14 7L15 7L15 5L14 5L14 7ZM13 8C13 7.44771 13.4477 7 14 7L14 5C12.3431 5 11 6.34315 11 8L13 8Z" fill="white"/>
<path d="M24 6L23.2929 5.29289L24 4.58579L24.7071 5.29289L24 6ZM24 29.5L23 29.5L24 29.5ZM21 32.5C20.4477 32.5 20 32.0523 20 31.5C20 30.9477 20.4477 30.5 21 30.5L21 32.5ZM17.2929 11.2929L23.2929 5.29289L24.7071 6.70711L18.7071 12.7071L17.2929 11.2929ZM24.7071 5.29289L30.7071 11.2929L29.2929 12.7071L23.2929 6.70711L24.7071 5.29289ZM25 6L25 29.5L23 29.5L23 6L25 6ZM22 32.5L21 32.5L21 30.5L22 30.5L22 32.5ZM25 29.5C25 31.1569 23.6569 32.5 22 32.5L22 30.5C22.5523 30.5 23 30.0523 23 29.5L25 29.5Z" fill="white"/>
</svg>
