<svg width="14" height="14" viewBox="0 0 14 14" fill="none" xmlns="http://www.w3.org/2000/svg">
<g clip-path="url(#clip0_2400_14480)">
<path d="M13.8151 10.883C13.7977 10.8596 13.4845 10.4434 12.951 10.16C13.5499 9.30592 13.6138 8.29923 13.6165 8.25035L13.6424 7.79206L13.1841 7.81787C13.1398 7.82036 12.312 7.87293 11.5223 8.3261C11.4038 7.01787 10.6386 6.20496 10.6034 6.16828L10.3074 5.85948L10.0113 6.16828C9.97614 6.20499 9.21097 7.0179 9.09245 8.3261C9.08138 8.31976 9.07031 8.31378 9.05923 8.3076C8.91983 6.85132 7.93794 5.6555 6.61656 5.1862V0.820177H7.43673V0H3.33585V0.820177H4.15603V5.18587C4.03319 5.22928 3.91276 5.27923 3.79512 5.3355L2.89979 4.44016L3.47974 3.86022L2.89979 3.28027L0 6.18003L0.579947 6.75998L1.15989 6.18003L2.05531 7.07545C1.81912 7.56988 1.69544 8.11387 1.69544 8.66653C1.69544 10.7016 3.35113 12.3573 5.38624 12.3573C6.04642 12.3573 6.68359 12.1841 7.24664 11.8545C7.51913 12.0462 7.88138 12.2431 8.29551 12.3217C8.24225 12.5814 8.22949 12.7569 8.22872 12.7683L8.19654 13.2339L8.66238 13.2059C8.69365 13.2041 9.25881 13.1665 9.89724 12.9025V13.9977H10.7174V12.9025C11.3558 13.1665 11.921 13.2041 11.9523 13.2059L12.418 13.2339L12.3859 12.7683C12.3851 12.757 12.3724 12.5812 12.3191 12.3213C13.2065 12.1485 13.7832 11.4127 13.8104 11.3774L13.9994 11.132L13.8151 10.883ZM1.73987 5.60008L2.31981 5.02014L3.65457 6.35489L3.92832 6.19313C4.15974 6.05638 4.40872 5.95314 4.66831 5.88635L4.97618 5.80712V0.820177H5.79635V5.8071L6.10422 5.88633C7.1237 6.1487 7.9059 6.956 8.1645 7.94819C7.75857 7.83843 7.45683 7.81935 7.43061 7.81787L6.97232 7.79206L6.99813 8.25035C6.99821 8.25161 6.99835 8.2539 6.99851 8.25645H2.54528C2.65073 7.52277 2.98812 7.10776 3.0746 6.93481L1.73987 5.60008ZM2.54506 9.07662H7.1547C7.25186 9.40707 7.40816 9.79381 7.65955 10.1541C7.10842 10.4286 6.74221 10.83 6.72187 10.8527L6.47546 11.1263L6.6019 11.2675C6.22405 11.4446 5.81142 11.5372 5.38626 11.5372C3.94264 11.5372 2.74467 10.4659 2.54506 9.07662ZM11.9028 11.5316C11.8198 11.5197 11.8654 11.5268 11.202 11.4574L11.402 12.0598C11.4287 12.1402 11.4513 12.2178 11.4703 12.2908C11.1935 12.2184 10.8489 12.0938 10.5388 11.8818L10.3074 11.7235L10.0759 11.8818C9.76464 12.0946 9.42052 12.2192 9.14434 12.2914C9.1634 12.2182 9.18598 12.1404 9.21272 12.0598L9.41273 11.4574C8.74284 11.5274 8.79407 11.5198 8.71194 11.5316C8.38352 11.5787 7.94062 11.3563 7.64101 11.128C7.84349 10.9746 8.12814 10.8024 8.44366 10.7417L9.22491 10.5915C8.34024 9.74865 8.62435 10.024 8.56751 9.96717C8.19433 9.59399 8.00465 9.09855 7.90951 8.72791C8.2787 8.82231 8.77184 9.01161 9.14746 9.38722C9.23355 9.47323 8.83604 9.06484 9.99186 10.2691C9.92378 9.22879 9.89729 9.04999 9.89729 8.66653C9.89729 8.01605 10.1151 7.49253 10.3089 7.1556C10.5018 7.49024 10.7175 8.01088 10.7175 8.66653C10.7175 9.04975 10.6909 9.22939 10.6229 10.2691C11.7506 9.09089 11.3958 9.45869 11.4673 9.38722C11.8399 9.01464 12.3343 8.82496 12.7048 8.72966C12.6094 9.10027 12.4197 9.59462 12.0472 9.96717C11.9893 10.025 12.2763 9.74687 11.3898 10.5915L12.1711 10.7417C12.4838 10.8018 12.7415 10.9747 12.9149 11.1244C12.6361 11.364 12.2218 11.5774 11.9028 11.5316Z" fill="white"/>
</g>
<defs>
<clipPath id="clip0_2400_14480">
<rect width="13.7143" height="13.7143" fill="white" transform="scale(1.02079)"/>
</clipPath>
</defs>
</svg>
