<svg width="20" height="20" viewBox="0 0 20 20" fill="none" xmlns="http://www.w3.org/2000/svg">
<path d="M14.8039 12.292C13.4669 12.072 12.8639 10.702 12.8399 10.645C12.7659 10.495 12.7499 10.38 12.7879 10.293C12.8609 10.122 13.1409 10.033 13.3259 9.97502C13.3751 9.95987 13.4238 9.9432 13.4719 9.92502C13.62 9.87418 13.7558 9.79313 13.8709 9.68702C13.9085 9.65208 13.9386 9.60986 13.9594 9.56293C13.9802 9.51601 13.9913 9.46534 13.9919 9.41402C13.9889 9.25402 13.8659 9.11202 13.6709 9.04302C13.6017 9.01477 13.5277 9.00017 13.4529 9.00002C13.3834 8.99933 13.3145 9.01366 13.2509 9.04202C13.1208 9.10772 12.9792 9.14778 12.8339 9.16002C12.7865 9.15866 12.7397 9.14848 12.6959 9.13002L12.7079 8.93702L12.7099 8.90802C12.7529 8.23202 12.8059 7.39002 12.5819 6.89002C12.4379 6.56037 12.2299 6.26261 11.9699 6.01402C11.7555 5.81209 11.5079 5.64869 11.2379 5.53102C10.8775 5.37425 10.4889 5.29259 10.0959 5.29102L9.89893 5.29202C9.50552 5.29399 9.11664 5.37599 8.75593 5.53302C8.48674 5.65061 8.2398 5.81366 8.02593 6.01502C7.76741 6.26345 7.56045 6.56045 7.41693 6.88902C7.19393 7.38902 7.24693 8.23002 7.28893 8.90702L7.30293 9.13002C7.25097 9.15142 7.19509 9.16165 7.13893 9.16002C7.01293 9.16002 6.86293 9.12002 6.69393 9.04102C6.6405 9.01705 6.58247 9.0051 6.52393 9.00602C6.41834 9.00758 6.31497 9.03652 6.22393 9.09002C6.17152 9.11735 6.12558 9.15559 6.08918 9.20216C6.05279 9.24873 6.02678 9.30256 6.01293 9.36002C5.99993 9.43002 5.99993 9.57002 6.15493 9.71102C6.24093 9.78802 6.36593 9.86102 6.52793 9.92402C6.56993 9.94102 6.62093 9.95702 6.67393 9.97402C6.85893 10.032 7.13993 10.121 7.21293 10.292C7.24993 10.379 7.23293 10.494 7.16493 10.632C7.14293 10.684 6.98393 11.042 6.65693 11.422C6.4812 11.6294 6.27641 11.8103 6.04893 11.959C5.79045 12.127 5.50004 12.2397 5.19593 12.29C5.1388 12.2991 5.08709 12.3291 5.05086 12.3742C5.01463 12.4193 4.99648 12.4763 4.99993 12.534C5.00193 12.569 5.00993 12.603 5.02493 12.636C5.07293 12.749 5.18393 12.843 5.36393 12.926C5.58393 13.028 5.91193 13.114 6.34193 13.181C6.36393 13.221 6.38593 13.325 6.40193 13.396C6.41793 13.471 6.43493 13.548 6.45893 13.63C6.48493 13.719 6.55293 13.825 6.72693 13.825C6.79393 13.825 6.86893 13.81 6.95693 13.793C7.08693 13.768 7.26193 13.733 7.48193 13.733C7.60393 13.733 7.72993 13.744 7.85693 13.766C8.10193 13.806 8.31293 13.955 8.55693 14.127C8.91493 14.38 9.31993 14.666 9.93893 14.666L9.98893 14.664L10.0609 14.666C10.6799 14.666 11.0849 14.38 11.4429 14.128C11.6879 13.956 11.8989 13.807 12.1429 13.766C12.4416 13.7154 12.7473 13.7235 13.0429 13.79C13.1399 13.809 13.2149 13.818 13.2729 13.818C13.4119 13.818 13.5059 13.748 13.5409 13.626C13.5649 13.546 13.5819 13.471 13.5989 13.394C13.6129 13.327 13.6369 13.221 13.6589 13.18C14.0879 13.112 14.4159 13.027 14.6359 12.926C14.8159 12.842 14.9259 12.748 14.9749 12.636C14.9893 12.6038 14.9977 12.5692 14.9999 12.534C15.0031 12.4764 14.9848 12.4197 14.9486 12.3748C14.9124 12.3299 14.8609 12.3011 14.8039 12.292Z" fill="#B3B3B3"/>
<path d="M4 2C3.46957 2 2.96086 2.21071 2.58579 2.58579C2.21071 2.96086 2 3.46957 2 4V16C2 16.5304 2.21071 17.0391 2.58579 17.4142C2.96086 17.7893 3.46957 18 4 18H16C16.5304 18 17.0391 17.7893 17.4142 17.4142C17.7893 17.0391 18 16.5304 18 16V4C18 3.46957 17.7893 2.96086 17.4142 2.58579C17.0391 2.21071 16.5304 2 16 2H4ZM4 0H16C17.0609 0 18.0783 0.421427 18.8284 1.17157C19.5786 1.92172 20 2.93913 20 4V16C20 17.0609 19.5786 18.0783 18.8284 18.8284C18.0783 19.5786 17.0609 20 16 20H4C2.93913 20 1.92172 19.5786 1.17157 18.8284C0.421427 18.0783 0 17.0609 0 16V4C0 2.93913 0.421427 1.92172 1.17157 1.17157C1.92172 0.421427 2.93913 0 4 0Z" fill="#B3B3B3"/>
</svg>
