<svg width="24" height="24" viewBox="0 0 24 24" fill="none" xmlns="http://www.w3.org/2000/svg">
<g clip-path="url(#clip0_0_353)">
<mask id="path-1-inside-1_0_353" fill="white">
<path d="M23 21.9999H22V13.9999C21.9984 12.6743 21.4711 11.4035 20.5338 10.4661C19.5964 9.5288 18.3256 9.0015 17 8.99992H13V6.03891C13.4455 5.84449 13.8246 5.52443 14.091 5.11789C14.3574 4.71135 14.4996 4.23596 14.5 3.74991C14.2299 2.47168 13.6213 1.28949 12.738 0.326908C12.6443 0.224438 12.5303 0.142602 12.4032 0.0866132C12.2762 0.0306242 12.1388 0.00170898 12 0.00170898C11.8611 0.00170898 11.7238 0.0306242 11.5968 0.0866132C11.4697 0.142602 11.3557 0.224438 11.262 0.326908C10.3787 1.28949 9.77013 2.47168 9.5 3.74991C9.50044 4.23596 9.64256 4.71135 9.90897 5.11789C10.1754 5.52443 10.5545 5.84449 11 6.03891V8.99992H7C5.6744 9.0015 4.40356 9.5288 3.46622 10.4661C2.52888 11.4035 2.00159 12.6743 2 13.9999V21.9999H1C0.734783 21.9999 0.480429 22.1053 0.292893 22.2928C0.105357 22.4804 0 22.7347 0 22.9999C0 23.2651 0.105357 23.5195 0.292893 23.707C0.480429 23.8946 0.734783 23.9999 1 23.9999H23C23.2652 23.9999 23.5196 23.8946 23.7071 23.707C23.8946 23.5195 24 23.2651 24 22.9999C24 22.7347 23.8946 22.4804 23.7071 22.2928C23.5196 22.1053 23.2652 21.9999 23 21.9999ZM7 10.9999H17C17.7956 10.9999 18.5587 11.316 19.1213 11.8786C19.6839 12.4412 20 13.2043 20 13.9999V15.9799C19.064 15.8799 18.5 15.2799 18.5 14.9999C18.5 14.7347 18.3946 14.4803 18.2071 14.2928C18.0196 14.1053 17.7652 13.9999 17.5 13.9999C17.2348 13.9999 16.9804 14.1053 16.7929 14.2928C16.6054 14.4803 16.5 14.7347 16.5 14.9999C16.5 15.3429 15.818 15.9999 14.75 15.9999C13.661 15.9999 13 15.3059 13 14.9999C13 14.7347 12.8946 14.4803 12.7071 14.2928C12.5196 14.1053 12.2652 13.9999 12 13.9999C11.7348 13.9999 11.4804 14.1053 11.2929 14.2928C11.1054 14.4803 11 14.7347 11 14.9999C11 15.3429 10.318 15.9999 9.25 15.9999C8.161 15.9999 7.5 15.3059 7.5 14.9999C7.5 14.7347 7.39464 14.4803 7.2071 14.2928C7.01957 14.1053 6.76521 13.9999 6.5 13.9999C6.23478 13.9999 5.98043 14.1053 5.79289 14.2928C5.60536 14.4803 5.5 14.7347 5.5 14.9999C5.5 15.3149 4.921 15.8879 4 15.9809V13.9999C4 13.2043 4.31607 12.4412 4.87868 11.8786C5.44129 11.316 6.20435 10.9999 7 10.9999ZM4 17.9789C4.91869 17.9382 5.79793 17.5939 6.5 16.9999C7.27136 17.6429 8.24308 17.9963 9.24729 17.9991C10.2515 18.0018 11.2251 17.6537 12 17.0149C12.7749 17.6537 13.7485 18.0018 14.7527 17.9991C15.7569 17.9963 16.7286 17.6429 17.5 16.9999C18.2022 17.5935 19.0814 17.9374 20 17.9779V21.9999H4V17.9789Z"/>
</mask>
<path d="M23 21.9999H22V13.9999C21.9984 12.6743 21.4711 11.4035 20.5338 10.4661C19.5964 9.5288 18.3256 9.0015 17 8.99992H13V6.03891C13.4455 5.84449 13.8246 5.52443 14.091 5.11789C14.3574 4.71135 14.4996 4.23596 14.5 3.74991C14.2299 2.47168 13.6213 1.28949 12.738 0.326908C12.6443 0.224438 12.5303 0.142602 12.4032 0.0866132C12.2762 0.0306242 12.1388 0.00170898 12 0.00170898C11.8611 0.00170898 11.7238 0.0306242 11.5968 0.0866132C11.4697 0.142602 11.3557 0.224438 11.262 0.326908C10.3787 1.28949 9.77013 2.47168 9.5 3.74991C9.50044 4.23596 9.64256 4.71135 9.90897 5.11789C10.1754 5.52443 10.5545 5.84449 11 6.03891V8.99992H7C5.6744 9.0015 4.40356 9.5288 3.46622 10.4661C2.52888 11.4035 2.00159 12.6743 2 13.9999V21.9999H1C0.734783 21.9999 0.480429 22.1053 0.292893 22.2928C0.105357 22.4804 0 22.7347 0 22.9999C0 23.2651 0.105357 23.5195 0.292893 23.707C0.480429 23.8946 0.734783 23.9999 1 23.9999H23C23.2652 23.9999 23.5196 23.8946 23.7071 23.707C23.8946 23.5195 24 23.2651 24 22.9999C24 22.7347 23.8946 22.4804 23.7071 22.2928C23.5196 22.1053 23.2652 21.9999 23 21.9999ZM7 10.9999H17C17.7956 10.9999 18.5587 11.316 19.1213 11.8786C19.6839 12.4412 20 13.2043 20 13.9999V15.9799C19.064 15.8799 18.5 15.2799 18.5 14.9999C18.5 14.7347 18.3946 14.4803 18.2071 14.2928C18.0196 14.1053 17.7652 13.9999 17.5 13.9999C17.2348 13.9999 16.9804 14.1053 16.7929 14.2928C16.6054 14.4803 16.5 14.7347 16.5 14.9999C16.5 15.3429 15.818 15.9999 14.75 15.9999C13.661 15.9999 13 15.3059 13 14.9999C13 14.7347 12.8946 14.4803 12.7071 14.2928C12.5196 14.1053 12.2652 13.9999 12 13.9999C11.7348 13.9999 11.4804 14.1053 11.2929 14.2928C11.1054 14.4803 11 14.7347 11 14.9999C11 15.3429 10.318 15.9999 9.25 15.9999C8.161 15.9999 7.5 15.3059 7.5 14.9999C7.5 14.7347 7.39464 14.4803 7.2071 14.2928C7.01957 14.1053 6.76521 13.9999 6.5 13.9999C6.23478 13.9999 5.98043 14.1053 5.79289 14.2928C5.60536 14.4803 5.5 14.7347 5.5 14.9999C5.5 15.3149 4.921 15.8879 4 15.9809V13.9999C4 13.2043 4.31607 12.4412 4.87868 11.8786C5.44129 11.316 6.20435 10.9999 7 10.9999ZM4 17.9789C4.91869 17.9382 5.79793 17.5939 6.5 16.9999C7.27136 17.6429 8.24308 17.9963 9.24729 17.9991C10.2515 18.0018 11.2251 17.6537 12 17.0149C12.7749 17.6537 13.7485 18.0018 14.7527 17.9991C15.7569 17.9963 16.7286 17.6429 17.5 16.9999C18.2022 17.5935 19.0814 17.9374 20 17.9779V21.9999H4V17.9789Z" fill="white"/>
<path d="M22 21.9999H0.666659V43.3333H22V21.9999ZM22 13.9999H43.3333V13.9871L43.3333 13.9744L22 13.9999ZM17 8.99992L17.0255 -12.3334L17.0128 -12.3334H17V8.99992ZM13 8.99992H-8.33334V30.3332H13V8.99992ZM13 6.03891L4.46666 -13.5134L-8.33334 -7.92703V6.03891H13ZM14.5 3.74991L35.8333 3.76944L35.8354 1.52994L35.3723 -0.661168L14.5 3.74991ZM12.738 0.326908L-3.00601 14.7226L-2.9931 14.7368L-2.98016 14.7509L12.738 0.326908ZM11.262 0.326908L26.9802 14.7509L26.9931 14.7368L27.006 14.7226L11.262 0.326908ZM9.5 3.74991L-11.3723 -0.661168L-11.8354 1.52994L-11.8333 3.76944L9.5 3.74991ZM11 6.03891H32.3333V-7.92703L19.5333 -13.5134L11 6.03891ZM11 8.99992V30.3332H32.3333V8.99992H11ZM7 8.99992V-12.3334H6.98722L6.97444 -12.3334L7 8.99992ZM2 13.9999L-19.3333 13.9744L-19.3333 13.9871V13.9999H2ZM2 21.9999V43.3333H23.3333V21.9999H2ZM0 22.9999H-21.3333H0ZM17 10.9999V32.3333V10.9999ZM20 13.9999H41.3333H20ZM20 15.9799L17.7337 37.1925L41.3333 39.7139V15.9799H20ZM4 15.9809H-17.3333V39.5769L6.14328 37.2063L4 15.9809ZM4 17.9789L3.05446 -3.33345L-17.3333 -2.42893V17.9789H4ZM6.5 16.9999L20.1597 0.61324L6.39881 -10.8577L-7.2784 0.712903L6.5 16.9999ZM12 17.0149L25.5701 0.553976L12 -10.633L-1.57013 0.553976L12 17.0149ZM17.5 16.9999L31.272 0.707486L17.5957 -10.8531L3.84028 0.61324L17.5 16.9999ZM20 17.9779H41.3333V-2.43607L20.9391 -3.33473L20 17.9779ZM20 21.9999V43.3333H41.3333V21.9999H20ZM4 21.9999H-17.3333V43.3333H4V21.9999ZM23 0.66659H22V43.3333H23V0.66659ZM43.3333 21.9999V13.9999H0.666659V21.9999H43.3333ZM43.3333 13.9744C43.325 6.99969 40.5506 0.313061 35.6187 -4.6188L5.44882 25.5511C2.39164 22.4939 0.671854 18.349 0.666675 14.0255L43.3333 13.9744ZM35.6187 -4.6188C30.6869 -9.55066 24.0002 -12.325 17.0255 -12.3334L16.9744 30.3332C12.6509 30.3281 8.506 28.6083 5.44882 25.5511L35.6187 -4.6188ZM17 -12.3334H13V30.3332H17V-12.3334ZM34.3333 8.99992V6.03891H-8.33334V8.99992H34.3333ZM21.5333 25.5912C25.7802 23.7377 29.3947 20.6865 31.9344 16.8108L-3.75238 -6.57502C-1.74544 -9.63761 1.11074 -12.0488 4.46666 -13.5134L21.5333 25.5912ZM31.9344 16.8108C34.4742 12.9351 35.8291 8.40315 35.8333 3.76944L-6.83333 3.73038C-6.82998 0.0687763 -5.75932 -3.51244 -3.75238 -6.57502L31.9344 16.8108ZM35.3723 -0.661168C34.312 -5.67843 31.9234 -10.3187 28.4562 -14.0971L-2.98016 14.7509C-4.68072 12.8977 -5.85226 10.6218 -6.37232 8.16099L35.3723 -0.661168ZM28.482 -14.0688C26.3895 -16.3573 23.8433 -18.185 21.0056 -19.4354L3.80085 19.6087C1.21729 18.4702 -1.10087 16.8062 -3.00601 14.7226L28.482 -14.0688ZM21.0056 -19.4354C18.1679 -20.6859 15.101 -21.3316 12 -21.3316V21.335C9.17673 21.335 6.3844 20.7471 3.80085 19.6087L21.0056 -19.4354ZM12 -21.3316C8.89903 -21.3316 5.83205 -20.6859 2.99437 -19.4354L20.1991 19.6087C17.6156 20.7471 14.8233 21.335 12 21.335V-21.3316ZM2.99437 -19.4354C0.156699 -18.185 -2.38948 -16.3573 -4.48201 -14.0688L27.006 14.7226C25.1009 16.8062 22.7827 18.4702 20.1991 19.6087L2.99437 -19.4354ZM-4.45616 -14.0971C-7.92337 -10.3187 -10.312 -5.67843 -11.3723 -0.661168L30.3723 8.16099C29.8523 10.6218 28.6807 12.8977 26.9802 14.7509L-4.45616 -14.0971ZM-11.8333 3.76944C-11.8291 8.40315 -10.4742 12.9351 -7.93443 16.8108L27.7524 -6.57502C29.7593 -3.51244 30.83 0.0687763 30.8333 3.73038L-11.8333 3.76944ZM-7.93443 16.8108C-5.39467 20.6865 -1.78021 23.7377 2.46666 25.5912L19.5333 -13.5134C22.8893 -12.0488 25.7454 -9.63761 27.7524 -6.57502L-7.93443 16.8108ZM-10.3333 6.03891V8.99992H32.3333V6.03891H-10.3333ZM11 -12.3334H7V30.3332H11V-12.3334ZM6.97444 -12.3334C-0.000251617 -12.325 -6.68688 -9.55066 -11.6187 -4.6188L18.5512 25.5511C15.494 28.6083 11.3491 30.3281 7.02555 30.3332L6.97444 -12.3334ZM-11.6187 -4.6188C-16.5506 0.313053 -19.325 6.99968 -19.3333 13.9744L23.3333 14.0255C23.3281 18.349 21.6083 22.4939 18.5512 25.5511L-11.6187 -4.6188ZM-19.3333 13.9999V21.9999H23.3333V13.9999H-19.3333ZM2 0.66659H1V43.3333H2V0.66659ZM1 0.66659C-4.92313 0.66659 -10.6037 3.01954 -14.7921 7.20788L15.3778 37.3778C11.5646 41.191 6.3927 43.3333 1 43.3333V0.66659ZM-14.7921 7.20788C-18.9804 11.3962 -21.3333 17.0768 -21.3333 22.9999H21.3333C21.3333 28.3926 19.1911 33.5645 15.3778 37.3778L-14.7921 7.20788ZM-21.3333 22.9999C-21.3333 28.9231 -18.9804 34.6036 -14.7921 38.792L15.3778 8.6221C19.1911 12.4353 21.3333 17.6072 21.3333 22.9999H-21.3333ZM-14.7921 38.792C-10.6037 42.9803 -4.92313 45.3333 1 45.3333V2.66659C6.3927 2.66659 11.5646 4.80882 15.3778 8.6221L-14.7921 38.792ZM1 45.3333H23V2.66659H1V45.3333ZM23 45.3333C28.9231 45.3333 34.6037 42.9803 38.7921 38.792L8.62215 8.6221C12.4354 4.80881 17.6073 2.66659 23 2.66659V45.3333ZM38.7921 38.792C42.9804 34.6036 45.3333 28.923 45.3333 22.9999H2.66666C2.66666 17.6073 4.80887 12.4354 8.62215 8.6221L38.7921 38.792ZM45.3333 22.9999C45.3333 17.0768 42.9804 11.3962 38.7921 7.20788L8.62215 37.3778C4.80887 33.5645 2.66666 28.3926 2.66666 22.9999H45.3333ZM38.7921 7.20788C34.6037 3.01952 28.9231 0.66659 23 0.66659V43.3333C17.6073 43.3333 12.4354 41.191 8.62215 37.3778L38.7921 7.20788ZM7 32.3333H17V-10.3334H7V32.3333ZM17 32.3333C12.1377 32.3333 7.47453 30.4017 4.03636 26.9635L34.2063 -3.20634C29.6429 -7.76974 23.4536 -10.3334 17 -10.3334V32.3333ZM4.03636 26.9635C0.59819 23.5254 -1.33334 18.8622 -1.33334 13.9999H41.3333C41.3333 7.54633 38.7697 1.35705 34.2063 -3.20634L4.03636 26.9635ZM-1.33334 13.9999V15.9799H41.3333V13.9999H-1.33334ZM22.2663 -5.23269C25.8282 -4.85215 29.1293 -3.47764 31.8665 -1.38235C33.2014 -0.360446 34.7363 1.08879 36.1246 3.08761C37.116 4.51511 39.8333 8.75814 39.8333 14.9999H-2.83334C-2.83334 21.3817 -0.0455326 25.8047 1.08091 27.4266C2.60416 29.6198 4.33858 31.2778 5.93153 32.4972C9.18466 34.9875 13.2358 36.712 17.7337 37.1925L22.2663 -5.23269ZM39.8333 14.9999C39.8333 9.07679 37.4804 3.39622 33.2921 -0.792125L3.12215 29.3778C-0.691114 25.5645 -2.83334 20.3926 -2.83334 14.9999H39.8333ZM33.2921 -0.792125C29.1037 -4.98045 23.4232 -7.33342 17.5 -7.33342V35.3333C12.1073 35.3333 6.93539 33.191 3.12215 29.3778L33.2921 -0.792125ZM17.5 -7.33342C11.5768 -7.33342 5.89625 -4.98045 1.70793 -0.792125L31.8778 29.3778C28.0646 33.191 22.8927 35.3333 17.5 35.3333V-7.33342ZM1.70793 -0.792125C-2.4804 3.39622 -4.83334 9.07679 -4.83334 14.9999H37.8333C37.8333 20.3926 35.6911 25.5645 31.8778 29.3778L1.70793 -0.792125ZM-4.83334 14.9999C-4.83334 8.65235 -2.03509 4.33137 -0.820265 2.67653C0.745125 0.544141 2.48837 -0.962511 4.01348 -2.00162C7.15149 -4.13964 10.8804 -5.33341 14.75 -5.33341V37.3333C19.6876 37.3333 24.2915 35.811 28.0375 33.2587C29.8666 32.0125 31.8471 30.2773 33.5738 27.9252C34.9498 26.0507 37.8333 21.519 37.8333 14.9999H-4.83334ZM14.75 -5.33341C18.8225 -5.33341 22.6312 -4.01884 25.7311 -1.84082C27.2284 -0.788811 28.8719 0.682743 30.3452 2.699C31.3324 4.05008 34.3333 8.43328 34.3333 14.9999H-8.33334C-8.33334 21.7196 -5.24981 26.3043 -4.1046 27.8715C-2.47335 30.104 -0.596496 31.8064 1.20216 33.0702C4.9048 35.6717 9.58847 37.3333 14.75 37.3333V-5.33341ZM34.3333 14.9999C34.3333 9.07674 31.9804 3.39618 27.7921 -0.792125L-2.37785 29.3778C-6.19108 25.5645 -8.33334 20.3927 -8.33334 14.9999H34.3333ZM27.7921 -0.792125C23.6038 -4.98043 17.9232 -7.33342 12 -7.33342V35.3333C6.60724 35.3333 1.43538 33.191 -2.37785 29.3778L27.7921 -0.792125ZM12 -7.33342C6.07681 -7.33342 0.396238 -4.98043 -3.79206 -0.792125L26.3778 29.3778C22.5646 33.191 17.3928 35.3333 12 35.3333V-7.33342ZM-3.79206 -0.792125C-7.98036 3.39618 -10.3333 9.07674 -10.3333 14.9999H32.3333C32.3333 20.3927 30.1911 25.5645 26.3778 29.3778L-3.79206 -0.792125ZM-10.3333 14.9999C-10.3333 8.65235 -7.53508 4.33137 -6.32026 2.67653C-4.75487 0.544141 -3.01163 -0.962511 -1.48651 -2.00162C1.65149 -4.13964 5.38044 -5.33341 9.25 -5.33341V37.3333C14.1876 37.3333 18.7915 35.811 22.5375 33.2587C24.3666 32.0125 26.3471 30.2773 28.0738 27.9252C29.4498 26.0507 32.3333 21.519 32.3333 14.9999H-10.3333ZM9.25 -5.33341C13.3225 -5.33341 17.1312 -4.01884 20.2311 -1.84082C21.7284 -0.788811 23.3719 0.682743 24.8452 2.699C25.8324 4.05008 28.8333 8.43328 28.8333 14.9999H-13.8333C-13.8333 21.7196 -10.7498 26.3043 -9.6046 27.8715C-7.97335 30.104 -6.09649 31.8064 -4.29784 33.0702C-0.595201 35.6717 4.08847 37.3333 9.25 37.3333V-5.33341ZM28.8333 14.9999C28.8333 9.07674 26.4804 3.39618 22.2921 -0.792125L-7.87785 29.3778C-11.6911 25.5645 -13.8333 20.3927 -13.8333 14.9999H28.8333ZM22.2921 -0.792125C18.1038 -4.98043 12.4232 -7.33342 6.5 -7.33342V35.3333C1.10724 35.3333 -4.06462 33.191 -7.87785 29.3778L22.2921 -0.792125ZM6.5 -7.33342C0.576808 -7.33342 -5.10376 -4.98043 -9.29206 -0.792125L20.8778 29.3778C17.0646 33.191 11.8928 35.3333 6.5 35.3333V-7.33342ZM-9.29206 -0.792125C-13.4804 3.39618 -15.8333 9.07674 -15.8333 14.9999H26.8333C26.8333 20.3927 24.6911 25.5645 20.8778 29.3778L-9.29206 -0.792125ZM-15.8333 14.9999C-15.8333 9.04104 -13.3599 4.8897 -12.1607 3.15269C-10.6938 1.02785 -9.0607 -0.479403 -7.677 -1.51368C-4.85347 -3.62421 -1.55848 -4.89962 1.85672 -5.24448L6.14328 37.2063C10.4795 36.7685 14.5245 35.16 17.8677 32.661C19.5113 31.4325 21.3467 29.7171 22.951 27.3933C24.2876 25.4574 26.8333 21.1163 26.8333 14.9999H-15.8333ZM25.3333 15.9809V13.9999H-17.3333V15.9809H25.3333ZM25.3333 13.9999C25.3333 18.8622 23.4018 23.5254 19.9636 26.9635L-10.2063 -3.20634C-14.7697 1.35705 -17.3333 7.54632 -17.3333 13.9999H25.3333ZM19.9636 26.9635C16.5255 30.4017 11.8623 32.3333 7 32.3333V-10.3334C0.546396 -10.3334 -5.64289 -7.76973 -10.2063 -3.20634L19.9636 26.9635ZM4.94553 39.2913C10.58 39.0413 15.9725 36.9296 20.2784 33.2869L-7.2784 0.712903C-4.37664 -1.74191 -0.74264 -3.16499 3.05446 -3.33345L4.94553 39.2913ZM-7.15972 33.3866C-2.56942 37.213 3.21318 39.316 9.18911 39.3323L9.30547 -3.3342C13.273 -3.32338 17.1121 -1.92718 20.1597 0.61324L-7.15972 33.3866ZM9.18911 39.3323C15.1651 39.3486 20.959 37.2772 25.5701 33.4759L-1.57013 0.553976C1.49124 -1.96977 5.33795 -3.34503 9.30547 -3.3342L9.18911 39.3323ZM-1.57013 33.4759C3.04096 37.2772 8.83494 39.3486 14.8109 39.3323L14.6945 -3.3342C18.662 -3.34503 22.5087 -1.96977 25.5701 0.553976L-1.57013 33.4759ZM14.8109 39.3323C20.7868 39.316 26.5694 37.213 31.1597 33.3866L3.84028 0.61324C6.88785 -1.92718 10.727 -3.32338 14.6945 -3.3342L14.8109 39.3323ZM3.728 33.2924C8.03471 36.9328 13.4271 39.0423 19.0609 39.2906L20.9391 -3.33473C24.7357 -3.16743 28.3697 -1.74583 31.272 0.707486L3.728 33.2924ZM-1.33334 17.9779V21.9999H41.3333V17.9779H-1.33334ZM20 0.66659H4V43.3333H20V0.66659ZM25.3333 21.9999V17.9789H-17.3333V21.9999H25.3333Z" fill="#DAA930" mask="url(#path-1-inside-1_0_353)"/>
</g>
<defs>
<clipPath id="clip0_0_353">
<rect width="24" height="24" fill="white"/>
</clipPath>
</defs>
</svg>
