<svg width="32" height="32" viewBox="0 0 32 32" fill="none" xmlns="http://www.w3.org/2000/svg">
<g clip-path="url(#clip0_0_436)">
<path d="M30.7959 5.33689L29.3532 4.94638L30.4379 3.86164C31.0353 3.22053 31.0177 2.22148 30.398 1.60185C29.7784 0.982213 28.7794 0.964586 28.1383 1.56198L27.0535 2.64672L26.663 1.20401C26.5281 0.624897 26.088 0.165502 25.5152 0.00583981C24.9424 -0.153822 24.3282 0.0116789 23.9131 0.437491C23.4981 0.863302 23.3484 1.4816 23.5227 2.05011L23.9078 3.4874L22.465 3.10231C21.5964 2.87017 20.704 3.38618 20.4718 4.25486C20.2397 5.12354 20.7557 6.01593 21.6244 6.24808L23.0671 6.63316L18.7281 10.9721C13.931 7.38143 7.17461 8.10806 3.25072 12.6367C-0.673172 17.1653 -0.43055 23.9563 3.80651 28.1934C8.04357 32.4305 14.8346 32.6731 19.3632 28.7492C23.8918 24.8253 24.6185 18.0689 21.0278 13.2718L25.3667 8.93282L25.7518 10.3755C25.984 11.2442 26.8764 11.7602 27.745 11.5281C28.6137 11.2959 29.1297 10.4035 28.8976 9.53486L28.5125 8.09214L29.9498 8.47723C30.5183 8.65151 31.1366 8.5018 31.5624 8.08676C31.9882 7.67172 32.1537 7.05746 31.9941 6.48467C31.8344 5.91189 31.375 5.47181 30.7959 5.33689ZM11.9322 28.2033C7.43899 28.2033 3.79656 24.5609 3.79656 20.0677C3.79656 15.5746 7.43899 11.9321 11.9322 11.9321C16.4253 11.9321 20.0678 15.5746 20.0678 20.0677C20.0678 22.2254 19.2106 24.2948 17.6849 25.8205C16.1592 27.3462 14.0899 28.2033 11.9322 28.2033Z" fill="#DAA930"/>
<path d="M31.9457 7.32747C31.8339 7.74487 31.5607 8.10065 31.1862 8.31635C30.8118 8.53206 30.367 8.58996 29.9498 8.4773L28.5125 8.09221L28.8976 9.53493C29.1297 10.4036 28.6137 11.296 27.745 11.5281C26.8764 11.7603 25.984 11.2443 25.7518 10.3756L25.3667 8.93289L21.0278 13.2719C24.4637 18.056 23.6852 24.6707 19.2324 28.5264C14.7796 32.3821 8.1216 32.2068 3.87793 28.122L6.18301 25.817C8.21117 27.9935 11.2657 28.8895 14.1482 28.1533C17.0307 27.4172 19.2816 25.1664 20.0177 22.2838C20.7539 19.4013 19.8579 16.3468 17.6813 14.3187L30.4162 1.58374C31.0507 2.21901 31.0507 3.24814 30.4162 3.8834L29.3315 4.96815L30.7742 5.35866C31.6388 5.58221 32.1617 6.4609 31.9457 7.32747Z" fill="#DAA930"/>
</g>
<defs>
<clipPath id="clip0_0_436">
<rect width="32" height="32" fill="white"/>
</clipPath>
</defs>
</svg>
