<svg width="81" height="34" viewBox="0 0 81 34" fill="none" xmlns="http://www.w3.org/2000/svg">
<path d="M55.5136 6.11368C55.4245 6.61756 55.0974 7.71576 54.8336 8.54537C53.8544 11.4823 49.8797 21.6878 46.7959 29.1278C44.8681 33.7838 44.9279 33.6648 44.6308 33.8137C44.1616 34.0796 42.7948 34.1095 42.4657 33.5757C42.4894 33.1976 42.5799 32.8267 42.7329 32.4802C42.941 31.9464 43.7107 29.9302 44.454 27.9724C45.166 26.0446 45.7888 24.3834 45.7888 24.3235C45.5795 23.7109 45.2351 23.1531 44.781 22.6915C44.305 22.1876 43.4761 21.6225 43.387 21.7395C43.3571 21.7694 42.8832 22.8955 42.3201 24.2304C40.7772 28.0275 40.718 28.1152 39.6511 28.2642C38.999 28.3532 38.1089 28.0602 37.9899 27.7304C37.9307 27.4631 38.168 26.7824 39.5029 23.6075C40.0367 22.3026 40.4807 21.2057 40.4508 21.1758C39.6006 21.2235 38.7618 21.3932 37.9599 21.6797C37.4907 21.8361 36.3279 22.3325 35.38 22.7752C32.8 23.991 30.9321 23.6041 33.7793 21.6797C35.6054 20.5282 37.7009 19.8739 39.8578 19.7818L41.1628 19.6927L42.7649 16.0458C44.93 11.1498 46.4716 7.97893 46.8578 7.68177C47.0776 7.53019 47.3347 7.44175 47.6012 7.42604C47.8677 7.41034 48.1334 7.46797 48.3695 7.59268C48.5775 7.7416 48.5775 7.76949 48.3994 8.48145C48.0145 9.87546 46.5906 13.6447 43.9215 20.285C43.8916 20.3441 44.1595 20.5821 44.5145 20.7542C44.9809 21.0583 45.4178 21.4055 45.8194 21.7912C46.0346 22.0261 46.2848 22.2261 46.5613 22.3842C46.5913 22.3515 47.1869 20.9011 47.8663 19.1201C51.1881 10.6976 53.056 6.45639 53.9679 5.27046C54.7499 4.27561 55.8468 4.33479 55.5136 6.11368Z" fill="url(#paint0_linear_2830_16912)"/>
<path d="M60.2095 20.2902C59.3325 20.8784 58.3865 21.3566 57.3929 21.7141C56.8597 21.8705 56.7999 21.9222 56.2974 22.7531C54.4872 25.926 50.0686 27.4091 50.2766 23.3162C50.3956 21.032 52.0854 17.6211 54.2207 15.3683C54.5841 15.0133 54.9024 14.615 55.1686 14.1824C55.4957 13.3514 58.4007 14.2422 57.3936 14.5081C56.9788 14.6271 54.6946 17.9761 53.6277 20.0549C52.7076 21.8637 52.3527 22.9306 52.3527 23.9397C52.3527 26.6387 54.8136 23.4705 55.2583 22.7239L55.7622 21.8929L55.293 21.744C55.0514 21.663 54.836 21.5186 54.6693 21.3259C54.5025 21.1332 54.3905 20.8993 54.3451 20.6485C54.1669 19.6693 54.9381 17.8326 56.2131 16.1707C56.568 15.6654 58.1409 13.6207 58.4034 15.3696C58.5815 16.4651 57.9886 19.2246 57.2474 20.9457C57.091 21.2728 57.4255 21.1837 58.5523 20.5907C59.3533 20.2045 59.7083 20.0868 59.9164 20.1215C60.0857 20.1725 60.2095 20.231 60.2095 20.2902ZM57.3929 16.3788C57.3929 16.053 57.3929 16.053 57.2147 16.2611C56.5831 17.2852 56.0942 18.3907 55.7615 19.5469C55.6754 19.7999 55.6448 20.0685 55.6718 20.3344C55.6988 20.6003 55.7828 20.8573 55.918 21.0878C56.0669 21.2959 56.1261 21.2068 56.598 19.961C56.9828 18.7954 57.2486 17.5938 57.3915 16.3747L57.3929 16.3788Z" fill="url(#paint1_linear_2830_16912)"/>
<path d="M69.6646 19.0743C69.9604 19.2232 67.6776 23.4943 66.61 24.7993C65.6009 25.9852 63.2888 26.9039 62.9318 24.8292C62.9116 24.6248 62.8615 24.4246 62.7829 24.2349C62.5483 24.4558 62.3304 24.6938 62.1308 24.9468C61.8235 25.3222 61.4642 25.6519 61.0639 25.926C58.0916 27.4901 58.2473 23.614 58.692 21.8331C59.3612 19.4269 60.4125 17.1439 61.8058 15.0711C62.3987 13.9151 63.7628 15.1901 63.7927 15.3982C63.7927 15.4281 63.5547 15.8674 63.2889 16.376C61.361 19.7271 59.729 24.9815 60.56 25.2161C61.0225 24.8959 61.4327 24.5059 61.7758 24.0601C62.8428 22.8728 62.8428 22.8443 63.1699 21.6869C63.7017 19.5868 64.584 17.5916 65.7797 15.7851C65.9756 15.5222 66.1336 15.2332 66.2489 14.9263C66.6637 13.739 68.206 15.0439 68.2359 15.252C68.2359 15.3111 62.037 28.5685 66.1598 23.9717C67.3365 22.6365 68.2974 21.1257 69.0077 19.4939C69.1281 19.1022 69.3973 18.9322 69.6646 19.0743Z" fill="url(#paint2_linear_2830_16912)"/>
<path d="M72.6605 20.9655C72.2586 20.9903 71.8609 21.0601 71.4746 21.1735L71.0054 21.3224L70.9455 22.5383C70.7075 27.3725 66.1406 25.2372 66.1406 23.8432C66.1406 23.4583 67.8304 22.0643 68.8396 21.5883L69.1646 21.4415L69.1945 18.6834C69.2537 15.9253 69.2537 15.8953 69.5515 15.3024C70.3526 13.4935 73.1093 13.5534 73.1093 15.2133C73.0794 16.2816 72.4837 17.2594 71.8581 17.2594C71.4433 17.2594 71.4433 17.103 71.769 16.5794C71.9894 16.2256 72.0836 15.8076 72.0363 15.3935C72.0363 14.6224 72.2743 14.6224 71.6514 14.6224C71.3243 14.6224 71.2053 14.6822 71.0258 15.0372C70.6395 15.8083 70.5566 16.6692 70.6987 18.7153C70.7878 19.7523 70.8551 20.6132 70.8768 20.6431C71.0372 20.6406 71.1959 20.6105 71.346 20.554C72.0392 20.3792 72.7662 20.3895 73.4541 20.584C73.7567 20.8233 73.5207 20.9417 72.6605 20.9655ZM69.2183 22.1527L68.3296 22.7457C67.9121 23.0335 67.5154 23.3503 67.1422 23.6936C66.4915 24.3736 68.0025 24.8496 68.3595 24.6456C68.8498 24.1687 69.1363 23.5204 69.1591 22.8368L69.2183 22.1527Z" fill="url(#paint3_linear_2830_16912)"/>
<path d="M79.9854 20.4967C78.4724 23.2255 77.0784 24.6787 75.5953 25.0636C72.8684 25.7756 72.0075 23.6098 72.6223 21.1787C74.2822 14.6248 80.2438 12.7562 79.8303 16.2269C79.5492 17.6138 78.7545 18.8433 77.6054 19.6691C77.3591 19.7953 77.0881 19.8661 76.8115 19.8763C76.535 19.8865 76.2595 19.836 76.0046 19.7283C75.8265 19.5515 75.7965 19.7283 75.3525 21.0332C75.1072 21.6866 74.996 22.3827 75.0254 23.08C75.0254 24.0892 75.0254 24.1191 75.2933 24.1748C76.1522 24.2938 78.881 21.4773 79.7712 19.5202C80.069 18.8946 80.1561 18.7783 80.424 18.7783C80.8442 18.7756 80.7817 19.0449 79.9854 20.4967ZM78.5914 16.8199C79.2714 13.0799 76.4555 18.1547 76.3072 18.7477C75.8924 20.3498 78.1174 19.491 78.5914 16.8219V16.8199Z" fill="url(#paint4_linear_2830_16912)"/>
<path d="M19.7687 11.8594C19.4987 11.8243 19.2457 11.708 19.0434 11.5258C18.8411 11.3436 18.6989 11.1043 18.6358 10.8394C18.6358 10.2954 19.4851 9.37467 20.1998 9.07139C20.0577 9.23731 19.4171 10.2274 19.5613 10.2274C21.2389 10.2274 24.6416 7.74606 24.6416 5.68973C24.6416 4.65068 23.5774 4.17806 22.539 4.17806C16.0661 4.17806 2.55434 15.9129 2.15246 23.1706C2.05862 24.5633 2.60128 25.6037 4.77457 25.4146C9.92357 24.9454 18.7147 17.5714 22.5628 14.1231C17.9096 14.5923 11.6963 16.4624 11.6963 17.6197C11.6963 17.8543 10.845 17.0077 10.845 16.2019C10.845 14.0993 20.106 13.2962 22.0426 13.2962C24.7824 13.2962 27.0495 14.0517 27.1685 14.4053C26.0684 14.1541 24.9423 14.0354 23.814 14.0518C25.089 14.2877 25.4916 15.7055 25.1142 15.3737C24.7592 15.1139 24.1438 15.3737 23.3414 15.9653C18.8779 19.2245 15.0018 25.5316 13.7037 28.7684C13.3532 29.5793 13.1301 30.4395 13.0421 31.3184C13.0421 31.4844 13.1141 31.4844 13.1141 31.5313C13.1141 31.5782 13.0904 31.6265 12.9951 31.6265C12.7592 31.6265 12.4756 31.3137 12.4756 30.871C12.4756 27.2316 15.2637 21.9888 17.4397 19.3667C13.7534 22.3192 7.85159 26.689 3.82732 26.9249C1.46498 27.0671 0.0240377 25.6968 0.000237532 23.5467C-0.067763 14.6882 14.481 3.7041 22.6308 3.7041C23.7868 3.7041 25.7024 4.24812 25.7024 5.97125C25.6983 8.67223 22.3201 11.8594 19.7687 11.8594Z" fill="url(#paint5_linear_2830_16912)"/>
<path d="M29.7292 16.0709C29.5653 16.3521 29.416 16.6415 29.2817 16.9379C29.0498 17.4139 28.6167 18.2258 28.2977 18.759C27.2873 20.4066 25.9511 19.8871 26.6222 17.5071C26.9593 16.3671 27.4391 15.2743 28.0502 14.2546C28.1801 14.0384 28.2379 13.9228 28.1801 13.9071C27.9823 13.825 27.768 13.7908 27.5545 13.8072C27.5402 13.8214 27.2947 14.3566 27.0051 14.9917C26.6934 15.7789 26.3062 16.534 25.8491 17.2466C25.7335 17.3622 25.4295 17.403 25.373 17.3201C25.4512 17.0915 25.5562 16.8731 25.6858 16.6693C26.2621 15.7162 26.7551 14.7151 27.1594 13.6773C27.1594 13.6338 27.0873 13.5753 27.003 13.5318C26.7306 13.3988 26.5104 13.1786 26.3774 12.9062C26.3042 12.6881 26.2818 12.4562 26.3118 12.2282C26.3419 12.0001 26.4236 11.782 26.5508 11.5903C27.36 9.9869 28.6459 10.4201 27.9108 12.7185C27.8371 12.909 27.7887 13.1083 27.7667 13.3114C27.9878 13.4723 28.2591 13.5487 28.5317 13.527C28.8409 13.5275 29.1482 13.5766 29.4422 13.6725C29.4578 13.6868 29.4 13.7589 29.3266 13.8289C28.6916 15.0697 28.1599 16.3606 27.7368 17.6886C27.3614 18.8589 27.4049 19.0323 27.9244 18.3958C28.4949 17.655 28.9682 16.8442 29.3327 15.9832L29.4891 15.55L29.7203 15.5344C30.0324 15.5079 30.0324 15.5657 29.7292 16.0709ZM27.7639 11.0987C27.5371 11.551 27.3949 12.0409 27.3444 12.5444C27.3444 12.8477 27.3723 12.9918 27.4443 12.9354C27.5076 12.7503 27.5598 12.5616 27.6007 12.3703C27.7639 11.7794 27.8496 11.0001 27.7639 11.0987Z" fill="url(#paint6_linear_2830_16912)"/>
<path d="M32.7778 16.1291C32.0406 17.4591 31.362 18.1629 30.6391 18.3554C29.3091 18.7008 28.8902 17.6468 29.1935 16.4622C30.002 13.2662 32.9076 12.3564 32.7057 14.0482C32.569 14.7238 32.1814 15.3224 31.6211 15.7238C31.5004 15.7847 31.3681 15.8189 31.233 15.8241C31.0979 15.8292 30.9633 15.8052 30.8384 15.7537C30.7527 15.666 30.7371 15.7537 30.5256 16.3888C30.4073 16.7078 30.3541 17.0472 30.3692 17.3871C30.3692 17.878 30.3692 17.8923 30.4991 17.9222C30.9186 17.98 32.248 16.6064 32.6819 15.6517C32.8274 15.3484 32.8696 15.2906 32.9947 15.2906C33.1973 15.2879 33.1674 15.4239 32.7778 16.1291ZM32.0978 14.3379C32.4296 12.5169 31.0573 14.9873 30.9839 15.2763C30.7826 16.057 31.8672 15.6456 32.0984 14.3359L32.0978 14.3379Z" fill="url(#paint7_linear_2830_16912)"/>
<path d="M35.9438 16.1291C35.2066 17.4591 34.5355 18.1629 33.8052 18.3554C32.4751 18.7008 32.0562 17.6468 32.3595 16.4622C33.1687 13.2662 36.0737 12.3564 35.8717 14.0482C35.735 14.7238 35.3474 15.3224 34.7871 15.7238C34.6665 15.7846 34.5343 15.8188 34.3994 15.8239C34.2644 15.8291 34.1299 15.8051 34.0051 15.7537C33.9187 15.666 33.9031 15.7537 33.6923 16.3888C33.574 16.7078 33.5208 17.0472 33.5359 17.3871C33.5359 17.878 33.5359 17.8923 33.6658 17.9222C34.0853 17.98 35.4147 16.6064 35.8486 15.6517C35.9941 15.3484 36.0363 15.2906 36.1614 15.2906C36.3627 15.2879 36.3327 15.4239 35.9438 16.1291ZM35.2638 14.3379C35.5956 12.5169 34.2234 14.9873 34.1499 15.2763C33.948 16.057 35.0326 15.6456 35.2638 14.3359V14.3379Z" fill="url(#paint8_linear_2830_16912)"/>
<path d="M40.3806 15.8024C40.4527 15.8745 40.2507 16.2934 39.7006 17.2468C38.0686 20.0504 36.7528 19.4153 37.7354 16.394C38.01 15.5961 38.3583 14.8255 38.7758 14.0922C38.9322 13.8311 38.9322 13.8168 38.8193 13.8746C38.2638 14.3185 37.7642 14.8281 37.3315 15.3924C36.4923 16.5062 35.7988 17.8662 35.7988 18.3837V18.6734H35.2493C34.5564 18.6734 34.4666 18.6292 34.642 18.398C35.0813 17.6295 35.448 16.8218 35.7375 15.9854C36.0986 15.117 36.4604 14.2643 36.5481 14.0766C36.648 13.8674 36.7301 13.6501 36.7936 13.4272C36.8799 13.094 36.9976 12.9512 37.1689 12.9512C37.3138 12.9881 37.4542 13.0405 37.5878 13.1076L37.9197 13.264L37.732 13.5237C37.474 13.9729 37.2643 14.4482 37.1064 14.9415C37.1064 14.9558 37.3662 14.6961 37.6994 14.3629C38.0778 13.8573 38.6393 13.5202 39.2634 13.4238C40.5356 13.3082 39.481 14.7382 39.1192 15.663C38.4392 17.4263 38.1944 18.3225 38.3821 18.3225C38.9989 17.6984 39.507 16.9756 39.8855 16.1839C40.1195 15.8024 40.265 15.6814 40.3806 15.8024Z" fill="url(#paint9_linear_2830_16912)"/>
<path d="M33.8956 5.9007C33.8942 5.84844 33.8969 5.79616 33.9037 5.74432C33.926 4.9643 34.0271 4.18855 34.2056 3.4289C34.4472 2.38267 34.9252 1.40567 35.603 0.572868C35.7022 0.447283 35.8104 0.329109 35.9267 0.219273C35.9641 0.184593 35.9947 0.109797 36.0532 0.134957C36.1117 0.160117 36.0892 0.234905 36.0926 0.291345C36.1192 0.731309 36.1443 1.16924 36.1661 1.60852C36.2114 2.5152 36.2282 3.42482 36.2164 4.33739C36.2069 5.09355 36.1615 5.84721 36.0804 6.59839C36.0197 7.22012 35.9188 7.83727 35.7785 8.44597C35.6733 8.92527 35.5137 9.39095 35.3025 9.83387C35.2841 9.89463 35.2439 9.94644 35.1896 9.97939C34.4654 7.44025 32.7926 5.6192 30.7383 4.08238C31.9498 4.35679 33.0442 5.00556 33.8663 5.93675L33.8956 5.9007Z" fill="url(#paint10_linear_2830_16912)"/>
<path d="M36.258 0C36.8629 0.899009 37.3322 1.88218 37.6507 2.91789C37.9547 3.95014 38.0415 5.0342 37.9057 6.10168C37.9492 6.12072 37.9621 6.09216 37.9777 6.07516C38.5362 5.47403 39.2431 5.03054 40.0273 4.78928C40.4066 4.66169 40.7945 4.56126 41.188 4.48872C41.3009 4.46696 41.3445 4.48872 41.2901 4.60772C40.9483 5.46893 40.4959 6.28202 39.9443 7.0265C39.6173 7.47548 39.2509 7.89444 38.8495 8.27839C38.4184 8.68863 37.9547 9.06318 37.463 9.39836C37.1019 9.64113 36.7245 9.85668 36.3444 10.0682C36.311 10.0872 36.2764 10.1259 36.2363 10.096C36.1961 10.0661 36.2362 10.0226 36.2458 9.98656C36.5166 8.90992 36.7085 7.81492 36.8197 6.7103C37.0335 4.51301 36.848 2.29515 36.2723 0.163879C36.2461 0.113267 36.241 0.0543752 36.258 0Z" fill="url(#paint11_linear_2830_16912)"/>
<path d="M35.1167 10.7586C34.8869 10.8072 34.6516 10.825 34.417 10.8116C33.3802 10.8434 32.3466 10.6793 31.3706 10.3282C30.8564 10.1307 30.3679 9.87225 29.9154 9.55837C29.7794 9.46453 29.7841 9.44073 29.9391 9.36457C30.3693 9.17302 30.8295 9.05796 31.2992 9.02457C31.4352 9.00892 31.578 8.99805 31.7167 8.98377C31.7493 8.98377 31.7915 8.98378 31.8044 8.94162C31.8173 8.89946 31.7854 8.88653 31.7656 8.86681C31.3706 8.46353 31.0198 8.01924 30.7191 7.54147C30.3115 6.88632 30.0129 6.16935 29.8351 5.41851C29.7153 4.92306 29.6404 4.41781 29.6114 3.9089C29.6114 3.88102 29.591 3.84973 29.6427 3.81641C30.7858 6.63979 32.4035 9.10074 35.1167 10.7586Z" fill="url(#paint12_linear_2830_16912)"/>
<path d="M36.3408 10.7831C36.5489 10.6471 36.7583 10.5281 36.9664 10.4016C37.8368 9.8771 38.6433 9.25321 39.3695 8.54246C40.3589 7.58086 41.1304 6.41817 41.6319 5.13291C41.789 4.72587 41.9145 4.30733 42.0073 3.88102C42.0129 3.82222 42.0383 3.76706 42.0794 3.72461C42.0794 3.85449 42.0977 3.96398 42.0977 4.07482C42.1018 5.58993 41.5773 7.05902 40.6146 8.22898C40.3474 8.55945 40.0628 8.87543 39.7619 9.17555C39.7225 9.21499 39.649 9.24353 39.679 9.31969C39.7089 9.39585 39.7762 9.3809 39.8354 9.3877C40.4373 9.46073 41.0228 9.63428 41.5673 9.9011C41.5843 9.9011 41.602 9.92151 41.5972 9.96911C39.8031 9.69781 37.9689 9.98184 36.3408 10.7831Z" fill="url(#paint13_linear_2830_16912)"/>
<path d="M36.0947 11.3408C38.1534 11.509 40.2247 11.2514 42.1794 10.584C42.0553 10.7529 41.9055 10.9014 41.7354 11.0239C41.0428 11.5092 40.2627 11.8555 39.4383 12.044C39.3023 12.0786 39.2819 12.1208 39.3649 12.2303C39.5349 12.4963 39.7408 12.7374 39.9769 12.947C40.0371 12.9824 40.0831 13.0377 40.1068 13.1034C38.6027 13.0103 37.1807 12.3856 36.0947 11.3408Z" fill="url(#paint14_linear_2830_16912)"/>
<path d="M31.2857 12.8169C31.3638 12.4795 31.5421 12.1735 31.797 11.9391C31.9051 11.8371 31.899 11.7983 31.7596 11.7636C31.399 11.6585 31.0601 11.49 30.7587 11.2659C30.2801 10.9219 29.834 10.535 29.4258 10.1098C29.4028 10.0796 29.3819 10.0478 29.3633 10.0146C31.1509 10.8584 33.102 11.2995 35.0787 11.3067C33.695 11.433 32.3775 11.9576 31.2857 12.8169Z" fill="url(#paint15_linear_2830_16912)"/>
<defs>
<linearGradient id="paint0_linear_2830_16912" x1="23.7576" y1="19.3119" x2="84.884" y2="19.3119" gradientUnits="userSpaceOnUse">
<stop stop-color="#7A5100"/>
<stop offset="0.3" stop-color="#E9BA46"/>
<stop offset="0.55" stop-color="#C08B09"/>
<stop offset="0.79" stop-color="#EEC95E"/>
<stop offset="1" stop-color="#865800"/>
</linearGradient>
<linearGradient id="paint1_linear_2830_16912" x1="23.7498" y1="19.824" x2="84.9003" y2="19.824" gradientUnits="userSpaceOnUse">
<stop stop-color="#7A5100"/>
<stop offset="0.3" stop-color="#E9BA46"/>
<stop offset="0.55" stop-color="#C08B09"/>
<stop offset="0.79" stop-color="#EEC95E"/>
<stop offset="1" stop-color="#865800"/>
</linearGradient>
<linearGradient id="paint2_linear_2830_16912" x1="23.757" y1="20.3617" x2="84.8934" y2="20.3617" gradientUnits="userSpaceOnUse">
<stop stop-color="#7A5100"/>
<stop offset="0.3" stop-color="#E9BA46"/>
<stop offset="0.55" stop-color="#C08B09"/>
<stop offset="0.79" stop-color="#EEC95E"/>
<stop offset="1" stop-color="#865800"/>
</linearGradient>
<linearGradient id="paint3_linear_2830_16912" x1="23.7524" y1="19.7583" x2="84.8947" y2="19.7583" gradientUnits="userSpaceOnUse">
<stop stop-color="#7A5100"/>
<stop offset="0.3" stop-color="#E9BA46"/>
<stop offset="0.55" stop-color="#C08B09"/>
<stop offset="0.79" stop-color="#EEC95E"/>
<stop offset="1" stop-color="#865800"/>
</linearGradient>
<linearGradient id="paint4_linear_2830_16912" x1="23.7602" y1="19.8564" x2="84.8947" y2="19.8564" gradientUnits="userSpaceOnUse">
<stop stop-color="#7A5100"/>
<stop offset="0.3" stop-color="#E9BA46"/>
<stop offset="0.55" stop-color="#C08B09"/>
<stop offset="0.79" stop-color="#EEC95E"/>
<stop offset="1" stop-color="#865800"/>
</linearGradient>
<linearGradient id="paint5_linear_2830_16912" x1="2.33649" y1="26.0141" x2="49.5642" y2="-2.17979" gradientUnits="userSpaceOnUse">
<stop stop-color="#32B66C"/>
<stop offset="1" stop-color="#EAE113"/>
</linearGradient>
<linearGradient id="paint6_linear_2830_16912" x1="4.57314" y1="29.5531" x2="54.5404" y2="21.5342" gradientUnits="userSpaceOnUse">
<stop stop-color="#32B66C"/>
<stop offset="1" stop-color="#EAE113"/>
</linearGradient>
<linearGradient id="paint7_linear_2830_16912" x1="5.94095" y1="31.7284" x2="56.3954" y2="12.7947" gradientUnits="userSpaceOnUse">
<stop stop-color="#32B66C"/>
<stop offset="1" stop-color="#EAE113"/>
</linearGradient>
<linearGradient id="paint8_linear_2830_16912" x1="6.84664" y1="33.1559" x2="57.2942" y2="14.2248" gradientUnits="userSpaceOnUse">
<stop stop-color="#32B66C"/>
<stop offset="1" stop-color="#EAE113"/>
</linearGradient>
<linearGradient id="paint9_linear_2830_16912" x1="7.85042" y1="34.7495" x2="55.4507" y2="7.23045" gradientUnits="userSpaceOnUse">
<stop stop-color="#32B66C"/>
<stop offset="1" stop-color="#EAE113"/>
</linearGradient>
<linearGradient id="paint10_linear_2830_16912" x1="28.2002" y1="8.827" x2="41.3785" y2="6.74248" gradientUnits="userSpaceOnUse">
<stop stop-color="#32B66C"/>
<stop offset="0.74" stop-color="#DFB956"/>
<stop offset="1" stop-color="#BB912E"/>
</linearGradient>
<linearGradient id="paint11_linear_2830_16912" x1="28.3323" y1="9.09629" x2="41.4476" y2="7.39439" gradientUnits="userSpaceOnUse">
<stop stop-color="#32B66C"/>
<stop offset="0.74" stop-color="#DFB956"/>
<stop offset="1" stop-color="#BB912E"/>
</linearGradient>
<linearGradient id="paint12_linear_2830_16912" x1="28.4395" y1="9.29705" x2="41.6438" y2="5.12151" gradientUnits="userSpaceOnUse">
<stop stop-color="#32B66C"/>
<stop offset="0.74" stop-color="#DFB956"/>
<stop offset="1" stop-color="#BB912E"/>
</linearGradient>
<linearGradient id="paint13_linear_2830_16912" x1="30.2154" y1="12.7806" x2="43.371" y2="8.30984" gradientUnits="userSpaceOnUse">
<stop stop-color="#32B66C"/>
<stop offset="0.74" stop-color="#DFB956"/>
<stop offset="1" stop-color="#BB912E"/>
</linearGradient>
<linearGradient id="paint14_linear_2830_16912" x1="31.6225" y1="15.5271" x2="34.8158" y2="6.02384" gradientUnits="userSpaceOnUse">
<stop stop-color="#32B66C"/>
<stop offset="0.74" stop-color="#DFB956"/>
<stop offset="1" stop-color="#BB912E"/>
</linearGradient>
<linearGradient id="paint15_linear_2830_16912" x1="29.7748" y1="11.909" x2="34.5043" y2="1.87026" gradientUnits="userSpaceOnUse">
<stop stop-color="#32B66C"/>
<stop offset="0.74" stop-color="#DFB956"/>
<stop offset="1" stop-color="#BB912E"/>
</linearGradient>
</defs>
</svg>
