<svg width="24" height="24" viewBox="0 0 24 24" fill="none" xmlns="http://www.w3.org/2000/svg">
<g clip-path="url(#clip0_0_550)">
<path d="M23.561 21.4452L18.9159 16.7981C22.3916 12.1533 21.4439 5.57034 16.7991 2.09462C12.1543 -1.3811 5.57133 -0.433388 2.09561 4.21139C-1.38011 8.85616 -0.432395 15.4392 4.21238 18.9149C7.94345 21.7069 13.068 21.7069 16.7991 18.9149L21.4462 23.562C22.0302 24.146 22.977 24.146 23.561 23.562C24.145 22.978 24.145 22.0312 23.561 21.4472L23.561 21.4452ZM10.5445 18.0179C6.41642 18.0179 3.07 14.6715 3.07 10.5435C3.07 6.41542 6.41642 3.06901 10.5445 3.06901C14.6725 3.06901 18.0189 6.41542 18.0189 10.5435C18.0146 14.6697 14.6707 18.0136 10.5445 18.0179Z" fill="#DAA930"/>
<path d="M7.71362 12.8224C7.65108 13.1416 7.63609 13.3572 7.63519 13.3712L7.5974 13.9432L8.14445 13.9089C8.18118 13.9067 8.84488 13.8605 9.59461 13.536V14.8818H10.5578V13.536C11.3075 13.8605 11.9712 13.9066 12.008 13.9089L12.5549 13.9432L12.5172 13.3712C12.5163 13.3572 12.5013 13.1416 12.4388 12.8224C13.486 12.6142 14.2515 11.733 14.2877 11.6907L14.5762 11.3536L14.2868 11.0173C14.2629 10.9896 13.8329 10.4962 13.1856 10.159C13.8844 9.11108 13.9592 7.87965 13.9624 7.81975L13.9927 7.25662L13.4545 7.28834C13.4025 7.29139 12.4303 7.35599 11.5029 7.91281C11.3638 6.30529 10.4652 5.30646 10.4238 5.26134L10.0762 4.88184L9.72853 5.26127C9.68721 5.30639 8.78863 6.30526 8.64945 7.91277C7.722 7.35589 6.74984 7.29133 6.69789 7.28827L6.1597 7.25656L6.19001 7.81968C6.19322 7.87962 6.26799 9.11102 6.96671 10.1589C6.31949 10.4962 5.88943 10.9896 5.86554 11.0173L5.57617 11.3535L5.86464 11.6906C5.90089 11.733 6.66636 12.6143 7.71362 12.8224ZM7.88754 10.881L8.805 10.6964C7.80373 9.69822 8.07664 9.97574 8.03965 9.93628C8.03805 9.93457 8.03587 9.93227 8.03298 9.92925C7.59547 9.47144 7.37272 8.86387 7.2608 8.40871C7.696 8.52585 8.27657 8.75889 8.71405 9.21663C8.71969 9.22254 8.72357 9.22656 8.72609 9.22913C8.76869 9.27254 8.42421 8.90326 9.70567 10.3003C9.62573 9.02196 9.59461 8.80226 9.59461 8.33108C9.59461 7.5339 9.84912 6.89183 10.0762 6.47773C10.3034 6.89214 10.5578 7.53404 10.5578 8.33108C10.5578 8.80196 10.5266 9.02287 10.4467 10.3003C11.723 8.9088 11.3861 9.27001 11.4266 9.22875C11.4291 9.22629 11.4328 9.2224 11.4383 9.21663C11.8759 8.75886 12.4565 8.52578 12.8915 8.40868C12.7092 9.15009 12.3803 9.68607 12.0796 9.96755C12.0102 10.0325 12.0653 9.98068 11.3473 10.6964L12.2648 10.881C12.6353 10.9555 12.9696 11.1671 13.2073 11.3556C12.8561 11.6357 12.3307 11.9086 11.9498 11.8515C11.8523 11.8369 11.8968 11.8446 11.1268 11.7604C11.3394 12.4391 11.3817 12.543 11.4418 12.7845C11.1168 12.6955 10.7122 12.5424 10.348 12.2818L10.0761 12.0873L9.8043 12.2818C9.4388 12.5434 9.03469 12.6964 8.71035 12.7852C8.77139 12.5398 8.81534 12.4315 9.02554 11.7604C8.23454 11.8469 8.29847 11.8371 8.20257 11.8515C7.81685 11.9093 7.29676 11.6362 6.94491 11.3556C7.18269 11.1671 7.51701 10.9555 7.88754 10.881Z" fill="#DAA930"/>
</g>
<defs>
<clipPath id="clip0_0_550">
<rect width="24" height="24" fill="white"/>
</clipPath>
</defs>
</svg>
