<svg width="16" height="16" viewBox="0 0 16 16" fill="none" xmlns="http://www.w3.org/2000/svg">
<path d="M8 4.66699C7.60444 4.66699 7.21776 4.80384 6.88886 5.06023C6.55996 5.31662 6.30362 5.68104 6.15224 6.1074C6.00087 6.53376 5.96126 7.00291 6.03843 7.45554C6.1156 7.90816 6.30608 8.32392 6.58579 8.65024C6.86549 8.97656 7.22186 9.19879 7.60982 9.28882C7.99778 9.37886 8.39992 9.33265 8.76537 9.15604C9.13082 8.97944 9.44318 8.68037 9.66294 8.29665C9.8827 7.91294 10 7.46181 10 7.00032C10 6.38149 9.78929 5.78799 9.41421 5.35041C9.03914 4.91282 8.53043 4.66699 8 4.66699ZM8 8.16699C7.80222 8.16699 7.60888 8.09857 7.44443 7.97037C7.27998 7.84218 7.15181 7.65997 7.07612 7.44679C7.00043 7.23361 6.98063 6.99903 7.01922 6.77272C7.0578 6.54641 7.15304 6.33853 7.29289 6.17537C7.43275 6.01221 7.61093 5.90109 7.80491 5.85608C7.99889 5.81106 8.19996 5.83416 8.38268 5.92247C8.56541 6.01077 8.72159 6.1603 8.83147 6.35216C8.94135 6.54402 9 6.76958 9 7.00032C9 7.30974 8.89464 7.60649 8.70711 7.82528C8.51957 8.04407 8.26522 8.16699 8 8.16699Z" fill="white"/>
<path d="M8 14.6663C7.55336 14.6687 7.11267 14.559 6.71483 14.3464C6.317 14.1337 5.97359 13.8244 5.71337 13.4442C3.69196 10.5239 2.66666 8.32852 2.66666 6.91864C2.66666 5.43724 3.22857 4.01651 4.22876 2.969C5.22896 1.92149 6.58551 1.33301 8 1.33301C9.41448 1.33301 10.771 1.92149 11.7712 2.969C12.7714 4.01651 13.3333 5.43724 13.3333 6.91864C13.3333 8.32852 12.308 10.5239 10.2866 13.4442C10.0264 13.8244 9.683 14.1337 9.28516 14.3464C8.88732 14.559 8.44664 14.6687 8 14.6663ZM8 2.54568C6.89271 2.547 5.83114 3.00827 5.04816 3.82828C4.26519 4.64829 3.82476 5.76008 3.8235 6.91975C3.8235 8.03632 4.82758 10.1011 6.65009 12.7337C6.80481 12.9569 7.00778 13.1385 7.24241 13.2638C7.47704 13.3891 7.73665 13.4544 8 13.4544C8.26335 13.4544 8.52296 13.3891 8.75758 13.2638C8.99221 13.1385 9.19519 12.9569 9.34991 12.7337C11.1724 10.1011 12.1765 8.03632 12.1765 6.91975C12.1752 5.76008 11.7348 4.64829 10.9518 3.82828C10.1689 3.00827 9.10729 2.547 8 2.54568Z" fill="white"/>
</svg>
