<svg width="7" height="7" viewBox="0 0 7 7" fill="none" xmlns="http://www.w3.org/2000/svg">
<path d="M6.44743 0.135799C6.32405 0.0670184 6.18834 0.0232784 6.04807 0.00708011C5.9078 -0.00911819 5.76572 0.0025429 5.62995 0.0413966C5.49418 0.0802504 5.36739 0.145535 5.25683 0.233516C5.14627 0.321497 5.0541 0.430449 4.9856 0.554142L2.99009 4.15179L1.84803 3.00767C1.74887 2.90482 1.63027 2.82279 1.49913 2.76636C1.36799 2.70992 1.22694 2.68022 1.08422 2.67897C0.941497 2.67773 0.799958 2.70498 0.667859 2.75912C0.53576 2.81326 0.415748 2.89322 0.314825 2.99432C0.213901 3.09543 0.134088 3.21566 0.0800425 3.348C0.0259967 3.48033 -0.00119963 3.62213 4.05839e-05 3.76511C0.0012808 3.90809 0.0309327 4.04939 0.087266 4.18076C0.143599 4.31214 0.225486 4.43096 0.328148 4.53029L2.47791 6.68393C2.68106 6.88799 2.95515 6.99997 3.23784 6.99997L3.38672 6.98921C3.55147 6.96612 3.70862 6.90503 3.84581 6.81077C3.98299 6.7165 4.09646 6.59162 4.17729 6.44595L6.86449 1.60027C6.93309 1.47668 6.97673 1.34076 6.9929 1.20028C7.00907 1.05979 6.99746 0.91749 6.95873 0.7815C6.92 0.64551 6.85492 0.518493 6.76719 0.407704C6.67946 0.296914 6.57081 0.20452 6.44743 0.135799Z" fill="white"/>
</svg>
