<svg width="20" height="20" viewBox="0 0 20 20" fill="none" xmlns="http://www.w3.org/2000/svg">
<path d="M9.99992 11.6663C10.9204 11.6663 11.6666 10.9201 11.6666 9.99967C11.6666 9.0792 10.9204 8.33301 9.99992 8.33301C9.07944 8.33301 8.33325 9.0792 8.33325 9.99967C8.33325 10.9201 9.07944 11.6663 9.99992 11.6663Z" stroke="#32B66C" stroke-width="1.2" stroke-linecap="round" stroke-linejoin="round"/>
<path d="M13.5331 6.46673C13.998 6.9311 14.3668 7.48254 14.6184 8.08953C14.87 8.69652 14.9995 9.34715 14.9995 10.0042C14.9995 10.6613 14.87 11.3119 14.6184 11.9189C14.3668 12.5259 13.998 13.0774 13.5331 13.5417M6.46643 13.5334C6.00155 13.069 5.63276 12.5176 5.38113 11.9106C5.12951 11.3036 5 10.653 5 9.9959C5 9.33882 5.12951 8.68819 5.38113 8.0812C5.63276 7.47421 6.00155 6.92276 6.46643 6.4584M15.8914 4.1084C17.4537 5.67113 18.3313 7.79036 18.3313 10.0001C18.3313 12.2098 17.4537 14.329 15.8914 15.8917M4.1081 15.8917C2.54584 14.329 1.66821 12.2098 1.66821 10.0001C1.66821 7.79036 2.54584 5.67113 4.1081 4.1084" stroke="#32B66C" stroke-width="1.2" stroke-linecap="round" stroke-linejoin="round"/>
</svg>
