<svg width="102" height="116" viewBox="0 0 102 116" fill="none" xmlns="http://www.w3.org/2000/svg">
<path fill-rule="evenodd" clip-rule="evenodd" d="M39.9361 29.9318C41.0691 29.9318 42.0822 29.5112 42.7626 28.8492C43.0086 28.6097 43.389 28.5857 43.6495 28.8093C45.5521 30.446 47.9667 31.61 50.659 32.0865C51.0049 32.1477 51.2494 32.461 51.2292 32.8135L50.8446 39.6269H57.3621L57.0604 34.2656C56.9793 32.8444 58.0543 31.4792 59.4513 31.2417C64.2913 30.419 67.2563 26.5912 67.2077 20.9759C67.1399 13.1553 60.0777 8.34375 52.2993 8.34375C44.521 8.34375 39.324 12.7828 39.324 19.7361C39.324 21.0284 39.5449 22.2737 39.9502 23.447C40.0086 23.6164 39.8905 23.7932 39.7123 23.7962C38.6994 23.814 36.2116 24.0122 36.2247 26.8641C36.2325 28.5582 37.8864 29.9318 39.9361 29.9318Z" fill="#C68E80"/>
<path fill-rule="evenodd" clip-rule="evenodd" d="M63.9275 11.1403C66.5561 10.4956 68.4926 8.28936 68.4926 5.66577C68.4926 2.53667 65.7384 0 62.3407 0C58.9433 0 56.1888 2.53667 56.1888 5.66577C56.1888 6.25746 56.2877 6.8276 56.4703 7.36381C52.2533 6.39591 47.7901 6.96233 43.9966 9.1904C43.8277 9.28947 43.6608 9.39324 43.4947 9.49925C43.4979 9.42346 43.5008 9.34792 43.5008 9.27139C43.5008 6.14204 40.7466 3.60537 37.3492 3.60537C33.9513 3.60537 31.1973 6.14204 31.1973 9.27139C31.1973 12.4005 33.9513 14.9372 37.3492 14.9372C37.946 14.9372 38.5221 14.8574 39.0676 14.7113C38.2751 16.9765 38.3505 19.8383 39.9496 23.4474C39.9496 23.4474 47.7302 22.1481 54.3947 13.0056C54.3947 13.0056 64.2633 17.8988 66.8265 19.0577C66.8265 19.0577 67.7795 14.798 63.9275 11.1403Z" fill="#B9B3B8"/>
<path fill-rule="evenodd" clip-rule="evenodd" d="M50.0267 22.52C49.9595 22.3264 50.0602 22.1144 50.2517 22.0464C50.4432 21.9785 50.6529 22.0804 50.7201 22.274C50.7365 22.3214 50.775 22.4148 50.8364 22.5383C50.9404 22.7473 51.0695 22.9564 51.2242 23.1502C51.652 23.6862 52.1831 23.9985 52.8383 23.9985C53.5028 23.9985 54.0514 23.7045 54.5004 23.2033C54.6615 23.0234 54.7976 22.8295 54.9083 22.636C54.9736 22.522 55.0148 22.4361 55.0325 22.393C55.1103 22.2035 55.3253 22.1137 55.5127 22.1923C55.7001 22.271 55.789 22.4884 55.7112 22.6779C55.6023 22.9432 55.3854 23.3222 55.045 23.7021C54.4669 24.3475 53.7316 24.7415 52.8383 24.7415C51.9358 24.7415 51.2087 24.3139 50.6523 23.6168C50.3268 23.2089 50.125 22.8032 50.0267 22.52Z" fill="#010101"/>
<path fill-rule="evenodd" clip-rule="evenodd" d="M59.9747 22.4959C59.8826 22.313 59.9545 22.0893 60.1353 21.9962C60.3161 21.9031 60.5374 21.9757 60.6295 22.1586C60.6524 22.2041 60.7026 22.2925 60.7788 22.4092C60.9076 22.6063 61.0601 22.8038 61.2345 22.987C61.7168 23.4939 62.2646 23.7905 62.8697 23.7905C63.4544 23.7905 63.9388 23.4729 64.336 22.922C64.4814 22.7203 64.6035 22.5022 64.7022 22.2842C64.7608 22.1547 64.7977 22.0564 64.8139 22.0058C64.8761 21.8105 65.0831 21.7031 65.2763 21.766C65.4694 21.8289 65.5756 22.0383 65.5133 22.2336C65.4888 22.3105 65.4418 22.4356 65.3704 22.5934C65.2524 22.854 65.1065 23.1145 64.9298 23.3596C64.4068 24.0852 63.7229 24.5335 62.8697 24.5335C62.0369 24.5335 61.3138 24.142 60.7049 23.5022C60.3489 23.128 60.1053 22.7551 59.9747 22.4959Z" fill="#010101"/>
<path fill-rule="evenodd" clip-rule="evenodd" d="M54.6612 26.8923C54.5496 26.7209 54.5965 26.4905 54.766 26.3777C54.9354 26.2648 55.1633 26.3123 55.2749 26.4836C55.2987 26.5201 55.3553 26.5954 55.4452 26.6965C55.5997 26.8704 55.7883 27.0454 56.0114 27.209C56.9951 27.931 58.2737 28.1974 59.8953 27.7328C60.0905 27.6769 60.2936 27.7916 60.3489 27.989C60.4042 28.1864 60.2908 28.3918 60.0956 28.4477C58.2498 28.9765 56.7401 28.662 55.5797 27.8104C55.1204 27.4733 54.8177 27.1325 54.6612 26.8923Z" fill="#010101"/>
<path fill-rule="evenodd" clip-rule="evenodd" d="M84.3429 45.9726C84.2234 45.8146 84.1042 45.6865 83.9859 45.5922C80.2626 42.6228 63.9184 39.7798 63.9184 39.7798C63.9184 39.7798 63.2242 36.8736 62.3405 35.9889C61.4574 35.1047 48.2367 35.2119 47.6586 35.5012C47.0804 35.7908 46.3095 38.9738 46.3095 38.9738C42.8599 39.1383 39.7915 39.9759 36.5538 40.8832C31.4999 41.8077 24.2426 44.41 18.6523 51.5908C9.10862 63.8491 -1.15497 85.1208 0.105495 95.5765C1.36596 106.032 14.2826 110.534 26.9352 95.0358C29.7545 91.5823 31.6082 89.3178 33.5567 86.6412C33.0641 87.5611 32.6107 89.8409 33.5567 89.9831C45.8894 91.8354 63.4748 91.1031 73.5165 89.9831C74.3534 105.718 79.1234 110.172 83.2959 113.17C86.6238 115.561 91.0492 115.632 94.5322 113.473C97.9386 111.362 101.928 107.191 101.997 99.2136C102.118 85.2538 98.4806 73.9643 94.4793 59.3977C92.59 52.5196 88.3222 48.403 84.3429 45.9726Z" fill="#2F6858"/>
<path fill-rule="evenodd" clip-rule="evenodd" d="M50.0057 35.3663C50.0341 35.2326 50.1652 35.1471 50.2991 35.1754C50.4327 35.2036 50.518 35.3351 50.4898 35.4689L49.7204 39.1144C49.6922 39.2481 49.5608 39.3338 49.4272 39.3056C49.2937 39.2771 49.2081 39.1458 49.2363 39.0118L50.0057 35.3663ZM30.4302 63.6687L30.4829 63.6315L30.5096 63.6129L41.6945 72.3939C41.3699 74.0514 39.6142 77.2701 36.9953 81.2936C36.0408 82.76 35.0317 84.2379 34.1532 85.4738C33.8118 85.9538 33.5179 86.3577 33.3299 86.6064C33.299 86.6473 33.2715 86.6832 33.2483 86.7134C33.2131 86.733 33.1825 86.7614 33.1595 86.7981C33.1271 86.8499 33.1122 86.8761 33.1006 86.91L33.0979 86.9142L33.0956 86.9175C33.0937 86.9209 33.0919 86.9239 33.0904 86.9271C33.0805 86.9502 33.0897 86.9816 33.1367 87.1426L33.137 87.1429C33.2876 87.2518 33.2876 87.2518 33.3952 87.2342H33.3955L33.3957 87.234C33.4346 87.2201 33.4467 87.2159 33.4578 87.2097C33.463 87.2067 33.4677 87.2035 33.4746 87.1988C33.5001 87.182 33.5145 87.1676 33.535 87.1451C33.5699 87.1067 33.6327 87.0269 33.7245 86.9053C33.9157 86.6522 34.2124 86.2448 34.5562 85.7608C35.4387 84.5198 36.4515 83.0362 37.4099 81.564C40.1505 77.3531 41.9454 74.0395 42.2081 72.3283C42.2217 72.2399 42.1866 72.151 42.1163 72.0957L30.6714 63.1104C30.5868 63.0438 30.4688 63.0398 30.3798 63.1003C30.3691 63.1074 30.3488 63.1216 30.3192 63.1421C30.2697 63.1763 30.2118 63.2169 30.1452 63.264C29.9555 63.3977 29.7356 63.5562 29.4879 63.7383C28.7816 64.2581 27.9947 64.8644 27.1473 65.5515C24.7271 67.5138 22.3069 69.7305 20.0474 72.1559C18.4582 73.8619 17.0052 75.6129 15.7195 77.4009C15.6396 77.5121 15.6649 77.6669 15.7757 77.7466C15.8865 77.8266 16.0411 77.8014 16.1211 77.6904C17.3939 75.9203 18.8335 74.1851 20.4094 72.4937C22.652 70.0864 25.0554 67.885 27.4588 65.9364C28.2997 65.2543 29.0805 64.6529 29.7811 64.1375C30.026 63.9572 30.2432 63.8007 30.4302 63.6687ZM73.5042 71.9642C73.5156 71.2665 73.5277 70.6322 73.5398 70.0735C73.5438 69.881 73.5478 69.7111 73.5512 69.5655L88.5148 65.6401C89.442 67.8744 90.338 71.532 91.1831 76.2133C91.6992 79.0727 92.1648 82.1371 92.5717 85.2018C92.714 86.2745 92.8392 87.2707 92.9456 88.1645C92.9829 88.4771 93.0151 88.7547 93.0423 88.994C93.0519 89.0777 93.0601 89.1507 93.067 89.2124L93.0752 89.287C93.09 89.4229 93.212 89.521 93.3478 89.5064C93.4836 89.4915 93.5819 89.3692 93.567 89.2332L93.5586 89.1574C93.5549 89.1245 93.5509 89.0881 93.5465 89.0487L93.5339 88.938C93.5066 88.698 93.4742 88.4194 93.4369 88.1058C93.33 87.2097 93.2048 86.2116 93.0621 85.1365C92.6541 82.0648 92.1878 78.9929 91.67 76.1251C90.7935 71.2692 89.8623 67.5061 88.8861 65.2478C88.8376 65.1356 88.7144 65.0757 88.5964 65.1067L73.2459 69.1336C73.1393 69.1616 73.0641 69.2567 73.0611 69.3666L73.0604 69.4011L73.0589 69.4637L73.0567 69.5469C73.0532 69.6945 73.0493 69.8669 73.0451 70.0628C73.0329 70.6223 73.0208 71.2576 73.0094 71.9563C72.9533 75.4346 72.9377 79.0469 72.9874 82.4229C73.0307 85.3712 73.1222 87.9342 73.2694 90.0012C73.2793 90.1377 73.3976 90.2403 73.5339 90.2306C73.6702 90.2209 73.7729 90.1023 73.763 89.9661C73.6165 87.9096 73.5252 85.3554 73.482 82.4155C73.4325 79.0454 73.4481 75.4378 73.5042 71.9642ZM53.4256 35.1702C53.289 35.1764 53.1834 35.292 53.1896 35.4287L53.3435 38.8689C53.3494 39.0054 53.4652 39.1114 53.6015 39.1052C53.7381 39.099 53.8437 38.9834 53.8378 38.8466L53.6839 35.4065C53.6777 35.27 53.5622 35.164 53.4256 35.1702ZM56.4067 35.4439C56.3923 35.3076 56.4908 35.1858 56.6266 35.1714C56.7624 35.1568 56.8844 35.2554 56.8988 35.3916L57.2577 38.7803C57.2721 38.9162 57.1736 39.0381 57.0378 39.0527C56.902 39.0671 56.78 38.9685 56.7656 38.8325L56.4067 35.4439ZM59.8556 35.4585C59.7222 35.4894 59.6394 35.6224 59.6703 35.7557L60.4392 39.0755C60.4701 39.2087 60.603 39.2917 60.736 39.2607C60.8691 39.2298 60.952 39.0968 60.9211 38.9635L60.1524 35.644C60.1215 35.5107 59.9887 35.4278 59.8556 35.4585Z" fill="#5BA092"/>
<path fill-rule="evenodd" clip-rule="evenodd" d="M66.0233 34.8219L78.3469 40.1528C79.0367 40.4512 79.357 41.2507 79.0649 41.9437L68.401 67.2242C68.0859 67.9714 67.2964 68.4006 66.4988 68.2587L53.1396 65.8808C52.0306 65.6834 51.3943 64.5037 51.8376 63.467L63.6897 35.7529C64.0761 34.8494 65.1221 34.432 66.0233 34.8219Z" fill="#010101"/>
<path fill-rule="evenodd" clip-rule="evenodd" d="M65.7047 61.3507C65.7047 61.3507 60.1267 56.6088 58.8517 54.005C57.4447 51.1317 59.5904 51.0998 59.5904 51.0998C57.9108 47.1296 61.7741 48.1849 61.7741 48.1849C60.2494 45.8739 61.5292 44.8835 62.4831 45.0761C64.7027 45.5244 69.6288 49.3376 69.6288 49.3376C69.0239 48.6409 68.2452 47.9548 67.4565 47.2599C66.0735 46.0413 64.6595 44.7955 64.0959 43.4165C62.3416 39.1236 67.3315 41.6684 69.5863 43.6161C71.603 45.358 76.6654 49.7587 76.6654 49.7587C76.6654 49.7587 75.4475 46.2533 75.4475 43.7385C75.4475 41.2238 77.3504 39.0139 78.2638 40.9952C78.4657 41.4331 78.9466 42.5719 79.526 43.9443C80.5104 46.2759 81.7797 49.2821 82.4504 50.6733C83.5162 52.8835 88.6587 65.3467 88.6587 65.3467L73.6235 69.2312C73.6235 69.2312 68.9896 67.5879 65.7047 61.3507ZM38.3367 50.3729C33.7587 53.0098 30.5186 63.3056 30.5186 63.3056L41.9634 72.2909L44.664 68.3148C44.664 68.3227 44.6647 68.3309 44.6654 68.3391C44.6667 68.3547 44.6682 68.3703 44.6645 68.3851C44.1793 70.2932 46.4739 70.8381 47.7455 69.9373C53.197 66.0756 50.5601 63.1654 50.5601 63.1654C53.2047 60.23 50.9 58.3048 50.9 58.3048C53.4503 53.8911 49.5977 53.422 49.5977 53.422C55.9216 50.8895 59.2638 46.0522 55.8585 46.0522C52.4531 46.0522 38.3367 50.3729 38.3367 50.3729Z" fill="#C68E80"/>
<path fill-rule="evenodd" clip-rule="evenodd" d="M61.6861 48.4163C61.5584 48.3673 61.4949 48.2239 61.5441 48.0963C61.5931 47.9685 61.7363 47.9049 61.8637 47.9542C61.888 47.9633 61.9332 47.9812 61.9983 48.0079C62.1057 48.0518 62.2304 48.1043 62.3704 48.1649C62.7697 48.3386 63.214 48.5451 63.6925 48.7844C65.0593 49.468 66.4261 50.2771 67.7032 51.2086C68.8147 52.0197 69.8068 52.8881 70.6481 53.8136C70.7402 53.9147 70.733 54.0712 70.6318 54.1633C70.5309 54.2555 70.3743 54.248 70.2825 54.147C69.4649 53.2479 68.4976 52.4014 67.4117 51.6091C66.159 50.6949 64.8151 49.8997 63.4713 49.2275C63.0012 48.9924 62.5646 48.7896 62.1735 48.6194C62.0367 48.56 61.9157 48.509 61.8113 48.4666C61.7494 48.4411 61.7071 48.4245 61.6861 48.4163ZM72.7017 51.7517C72.8014 51.6581 72.8064 51.5013 72.7129 51.4015C72.6859 51.3728 72.6352 51.3205 72.563 51.248C72.4432 51.1284 72.3049 50.9949 72.1498 50.8515C71.7072 50.4423 71.2179 50.0329 70.6947 49.6507C70.2714 49.3414 69.8431 49.0625 69.4137 48.822C69.2944 48.7551 69.1435 48.7977 69.077 48.9171C69.0102 49.0365 69.0527 49.1876 69.1719 49.2542C69.5834 49.4846 69.995 49.7525 70.403 50.0507C70.9096 50.421 71.3846 50.8183 71.8141 51.2153C71.9643 51.3542 72.0979 51.483 72.2131 51.5984C72.2817 51.667 72.3287 51.7156 72.3519 51.7406C72.4454 51.8404 72.602 51.8454 72.7017 51.7517ZM50.7946 57.9656C50.8795 57.7878 50.9646 57.5906 51.0438 57.3801C51.2335 56.8756 51.3599 56.3773 51.3936 55.9179C51.4614 54.9953 51.1556 54.3511 50.3639 54.0343C49.5938 53.7257 48.3121 53.7284 46.6768 53.9875C45.9341 54.1051 45.1442 54.2713 44.332 54.4739C43.737 54.6225 43.1648 54.7815 42.6364 54.9405C42.4516 54.996 42.2856 55.0478 42.1409 55.0941C42.0545 55.1216 41.9944 55.1414 41.9637 55.1515C41.8343 55.1951 41.6941 55.1253 41.6505 54.9955C41.6072 54.8657 41.677 54.7256 41.8066 54.682C41.8395 54.6708 41.9016 54.6505 41.9902 54.6223C42.1376 54.575 42.3064 54.5227 42.4939 54.4662C43.0295 54.305 43.6091 54.1438 44.2123 53.9934C45.0376 53.7876 45.8414 53.6182 46.5994 53.4981C48.317 53.2261 49.6712 53.2232 50.5478 53.5744C51.564 53.9813 51.9693 54.8348 51.8871 55.954C51.8495 56.4669 51.712 57.0093 51.5066 57.5547C51.4223 57.7794 51.3317 57.9896 51.2409 58.1796C51.2325 58.1972 51.2244 58.2143 51.2162 58.2309C51.9339 58.7564 52.2622 59.4383 52.2409 60.2256C52.2221 60.9146 51.9408 61.6356 51.4866 62.3531C51.3241 62.6095 51.1504 62.8472 50.9767 63.0615C50.9389 63.108 50.9025 63.1514 50.8684 63.1915C51.569 63.9979 51.5893 65.2422 51.0396 66.6153C50.4871 67.9956 49.4209 69.3113 48.3667 69.895C47.3057 70.4825 46.2661 70.7091 45.5101 70.4961C44.6502 70.2542 44.2452 69.4856 44.4206 68.3473C44.5237 67.6781 44.7939 67.1134 45.1788 66.6495C45.4812 66.2849 45.7857 66.0534 45.9982 65.9389C46.1184 65.8743 46.2686 65.9194 46.3332 66.0397C46.398 66.1604 46.3527 66.3105 46.2325 66.3753C46.1969 66.3944 46.1259 66.4392 46.0319 66.5111C45.8713 66.6332 45.71 66.7845 45.5593 66.966C45.2293 67.3636 44.9985 67.8465 44.9097 68.4229C44.7699 69.3298 45.0445 69.8504 45.6442 70.0194C46.2545 70.1912 47.1696 69.9919 48.1273 69.4616C49.0745 68.937 50.0678 67.7113 50.5804 66.4311C51.1331 65.0508 51.0386 63.8862 50.2375 63.2762C49.6433 62.8235 48.7089 62.6818 47.5261 62.8069C46.826 62.8809 46.0742 63.0444 45.3092 63.2708C44.9322 63.3822 44.5767 63.5016 44.2538 63.621C44.141 63.6628 44.0403 63.7015 43.9535 63.7361C43.9018 63.7567 43.8664 63.7711 43.8489 63.7785C43.7229 63.8317 43.578 63.7728 43.5248 63.6467C43.4716 63.5207 43.5307 63.3753 43.6566 63.3223C43.6772 63.3134 43.7158 63.2975 43.7707 63.2757C43.8612 63.2396 43.9656 63.1994 44.0824 63.1563C44.4151 63.0332 44.781 62.9104 45.1689 62.7957C45.9606 62.5614 46.7406 62.3918 47.4741 62.3143C48.7502 62.1793 49.7883 62.3316 50.5032 62.8567C50.5317 62.8232 50.5616 62.7873 50.5928 62.7489C50.7551 62.549 50.9174 62.3266 51.0685 62.0879C51.4797 61.439 51.7303 60.796 51.7461 60.212C51.7654 59.4985 51.4324 58.908 50.6479 58.4508C49.811 57.9631 48.6003 57.8779 47.1139 58.1335C46.2038 58.2898 45.2296 58.5672 44.2338 58.9308C43.669 59.1371 43.1329 59.358 42.6431 59.579C42.4716 59.656 42.3185 59.7278 42.1856 59.792C42.1065 59.8301 42.0521 59.8573 42.0246 59.8715C41.9029 59.9336 41.7539 59.8851 41.6918 59.7632C41.6298 59.6414 41.678 59.4923 41.7997 59.4301C41.8304 59.4145 41.888 59.3858 41.9707 59.3459C42.1072 59.2798 42.2646 59.2062 42.4397 59.1272C42.9402 58.9016 43.4874 58.6759 44.0641 58.4654C45.0858 58.0924 46.0875 57.8073 47.0301 57.6454C48.5644 57.3813 49.8464 57.4586 50.7946 57.9656ZM59.369 50.9909C59.3089 51.1137 59.3594 51.2621 59.4821 51.3225C59.5041 51.3332 59.5481 51.3555 59.613 51.3892C59.7218 51.4459 59.8482 51.5135 59.991 51.5925C60.3999 51.8181 60.8559 52.0868 61.3474 52.3977C62.7521 53.2863 64.1568 54.3332 65.4672 55.5307C66.485 56.4612 67.4046 57.447 68.2022 58.4862C68.2853 58.5947 68.4407 58.6153 68.549 58.5318C68.6574 58.4486 68.6777 58.293 68.5945 58.1846C67.7784 57.121 66.8393 56.1143 65.8007 55.1649C64.4673 53.9461 63.0396 52.8824 61.6116 51.9791C61.1117 51.6628 60.6473 51.3892 60.2299 51.1586C60.0835 51.0778 59.9534 51.008 59.8408 50.9495C59.7728 50.9144 59.7255 50.8903 59.7003 50.878C59.5776 50.8175 59.4294 50.8683 59.369 50.9909Z" fill="#6D4038"/>
</svg>
