<svg width="18" height="18" viewBox="0 0 18 18" fill="none" xmlns="http://www.w3.org/2000/svg">
<path d="M13.0088 4.99226C12.7057 4.68906 12.5282 4.28262 12.5119 3.85422C12.4956 3.42581 12.6415 3.00703 12.9206 2.68162C12.9437 2.65455 12.9557 2.61976 12.9542 2.58422C12.9528 2.54868 12.9379 2.51501 12.9126 2.48997L11.3048 0.880319C11.2782 0.853754 11.2422 0.838831 11.2046 0.838831C11.167 0.838831 11.131 0.853754 11.1044 0.880319L8.54164 3.44309C8.44708 3.53762 8.37585 3.65288 8.3336 3.77974C8.29151 3.90688 8.22037 4.02247 8.12582 4.11734C8.03127 4.2122 7.91592 4.28373 7.78892 4.32625C7.66198 4.36854 7.5466 4.43976 7.4519 4.53428L0.879572 11.1052C0.853007 11.1317 0.838084 11.1678 0.838084 11.2053C0.838084 11.2429 0.853007 11.279 0.879572 11.3055L2.4874 12.9134C2.51245 12.9386 2.54611 12.9535 2.58165 12.955C2.61719 12.9565 2.65198 12.9445 2.67905 12.9214C3.00439 12.642 3.42327 12.4958 3.85182 12.512C4.28037 12.5283 4.68697 12.7058 4.99022 13.009C5.29347 13.3123 5.47099 13.7189 5.48724 14.1474C5.50349 14.576 5.35727 14.9949 5.07786 15.3202C5.05478 15.3473 5.04277 15.3821 5.04426 15.4176C5.04575 15.4531 5.06061 15.4868 5.08588 15.5118L6.69371 17.1197C6.72029 17.1462 6.75633 17.1612 6.7939 17.1612C6.83148 17.1612 6.86752 17.1462 6.8941 17.1197L13.4668 10.5474C13.5613 10.4526 13.6325 10.3373 13.6748 10.2103C13.7169 10.0832 13.7881 9.9676 13.8826 9.87274C13.9772 9.77787 14.0925 9.70635 14.2195 9.66383C14.3464 9.62158 14.4616 9.55035 14.5562 9.45579L17.1189 6.89302C17.1455 6.86644 17.1604 6.8304 17.1604 6.79283C17.1604 6.75525 17.1455 6.71921 17.1189 6.69263L15.5111 5.0848C15.4861 5.05954 15.4524 5.04467 15.4169 5.04319C15.3813 5.0417 15.3465 5.0537 15.3195 5.07679C14.9945 5.35637 14.576 5.50299 14.1476 5.48731C13.7192 5.47164 13.3125 5.29484 13.0088 4.99226Z" stroke="#4830DA" stroke-width="1.64287" stroke-miterlimit="10"/>
<path d="M8.79881 4.7897L8.19728 4.18818M10.4026 6.39353L10.0015 5.99275M12.0065 7.99772L11.6057 7.59658M13.811 9.80193L13.2095 9.2004" stroke="#4830DA" stroke-width="1.64287" stroke-miterlimit="10" stroke-linecap="round"/>
</svg>
