<svg width="32" height="32" viewBox="0 0 32 32" fill="none" xmlns="http://www.w3.org/2000/svg">
<path d="M29.6606 24.6852C29.6141 24.6336 28.7769 23.7157 27.5169 23.0882C28.8772 21.1386 29.0227 18.8476 29.029 18.7361L29.088 17.6884L28.0403 17.7474C27.9392 17.7531 26.0466 17.8733 24.2412 18.9093C23.9704 15.9185 22.2211 14.0601 22.1406 13.9762L21.4639 13.2703L20.7871 13.9762C20.7067 14.0602 18.9574 15.9186 18.6865 18.9093C18.0312 18.5332 17.3648 18.2783 16.7764 18.1052V0H3.65137V13.2247C2.49224 14.4089 1.77637 16.0285 1.77637 17.8125V20.0758C3.38062 18.4789 3.3648 18.4711 3.65137 18.2207V26.25H13.5756C14.1221 26.7638 15.3399 27.7539 16.8647 28.0436C16.743 28.6373 16.7138 29.0385 16.7121 29.0644L16.6385 30.1287L17.7034 30.0649C17.7749 30.0606 19.0669 29.9748 20.5264 29.3711V32H22.4014V29.3711C23.8609 29.9748 25.153 30.0606 25.2244 30.0649L26.2892 30.1287L26.2158 29.0645C26.214 29.0385 26.1849 28.6373 26.0632 28.0435C28.1016 27.6561 29.5919 26.0166 29.6624 25.9379L30.2239 25.3107L29.6606 24.6852ZM4.17112 15.6684C4.95068 14.1591 6.52624 13.125 8.33887 13.125H10.2161C9.80593 13.6702 9.51168 14.3078 9.37056 15H7.24049C6.16318 15 5.12124 15.2306 4.17112 15.6684ZM14.9014 7.5H11.1514V5.625H14.9014V7.5ZM9.27637 7.5H5.52637V5.625H9.27637V7.5ZM9.27637 9.375V11.25H8.33887C7.33293 11.25 6.37931 11.4778 5.52637 11.8841V9.375H9.27637ZM11.1514 9.375H14.9014V11.25H11.1514V9.375ZM14.9014 3.75H11.1514V1.875H14.9014V3.75ZM9.27637 1.875V3.75H5.52637V1.875H9.27637ZM5.52637 17.1496C6.07237 16.9699 6.64899 16.875 7.24049 16.875H11.1514V15.9375C11.1514 14.3867 12.4131 13.125 13.9639 13.125H14.9014V17.7482C14.8952 17.7479 14.8904 17.7476 14.8874 17.7474L13.8397 17.6884L13.8987 18.7361C13.905 18.8476 14.0506 21.1387 15.4107 23.0882C14.5812 23.5013 13.9351 24.0402 13.5771 24.375H5.52637V17.1496ZM25.1113 26.2372C24.9243 26.2104 25.0382 26.2276 23.5092 26.0677L23.9664 27.4448C24.0276 27.629 24.0792 27.8069 24.1227 27.9743C23.4911 27.8092 22.7046 27.5244 21.9931 27.0378L21.4639 26.6759L20.9347 27.0378C20.2232 27.5244 19.4366 27.8092 18.8052 27.9743C18.8487 27.8069 18.9004 27.629 18.9615 27.4448L19.4187 26.0677C17.8789 26.2287 18.0034 26.2104 17.8167 26.2372C17.0658 26.3446 16.0534 25.8366 15.3684 25.3145C15.8313 24.9639 16.4821 24.5702 17.2034 24.4315L18.9894 24.0881C16.9689 22.1631 17.6154 22.7897 17.4865 22.6608C16.6334 21.8077 16.1997 20.6751 15.9822 19.8277C16.8262 20.0436 17.9536 20.4763 18.8123 21.335C19.0091 21.5316 18.1004 20.598 20.7427 23.3511C20.5871 20.9728 20.5265 20.5641 20.5265 19.6874C20.5265 18.2004 21.0245 17.0036 21.4674 16.2333C21.9085 16.9983 22.4015 18.1886 22.4015 19.6874C22.4015 20.5635 22.3408 20.9742 22.1853 23.3511C24.8129 20.6133 23.9277 21.5227 24.1157 21.335C24.9688 20.4819 26.1014 20.0482 26.9487 19.8307C26.7329 20.6747 26.3001 21.8021 25.4413 22.6609C25.312 22.7902 25.9597 22.1623 23.9386 24.088L25.7246 24.4314C26.4459 24.5701 27.0966 24.9638 27.5594 25.3144C26.8756 25.8358 25.8528 26.3434 25.1113 26.2372Z" fill="#DAA930"/>
</svg>
