<svg width="12" height="12" viewBox="0 0 12 12" fill="none" xmlns="http://www.w3.org/2000/svg">
<mask id="path-1-inside-1_0_280" fill="white">
<path d="M10.6945 4.89524C10.0485 3.81402 8.57904 2 6 2C3.42096 2 1.9515 3.81402 1.30549 4.89524C1.10578 5.22718 1 5.60973 1 6C1 6.39027 1.10578 6.77282 1.30549 7.10476C1.9515 8.18598 3.42096 10 6 10C8.57904 10 10.0485 8.18598 10.6945 7.10476C10.8942 6.77282 11 6.39027 11 6C11 5.60973 10.8942 5.22718 10.6945 4.89524ZM9.98436 6.65661C9.42956 7.58374 8.17378 9.14393 6 9.14393C3.82622 9.14393 2.57044 7.58374 2.01564 6.65661C1.89699 6.4593 1.83415 6.23194 1.83415 6C1.83415 5.76806 1.89699 5.5407 2.01564 5.34339C2.57044 4.41627 3.82622 2.85607 6 2.85607C8.17378 2.85607 9.42956 4.41455 9.98436 5.34339C10.103 5.5407 10.1659 5.76806 10.1659 6C10.1659 6.23194 10.103 6.4593 9.98436 6.65661Z"/>
</mask>
<path d="M10.6945 4.89524C10.0485 3.81402 8.57904 2 6 2C3.42096 2 1.9515 3.81402 1.30549 4.89524C1.10578 5.22718 1 5.60973 1 6C1 6.39027 1.10578 6.77282 1.30549 7.10476C1.9515 8.18598 3.42096 10 6 10C8.57904 10 10.0485 8.18598 10.6945 7.10476C10.8942 6.77282 11 6.39027 11 6C11 5.60973 10.8942 5.22718 10.6945 4.89524ZM9.98436 6.65661C9.42956 7.58374 8.17378 9.14393 6 9.14393C3.82622 9.14393 2.57044 7.58374 2.01564 6.65661C1.89699 6.4593 1.83415 6.23194 1.83415 6C1.83415 5.76806 1.89699 5.5407 2.01564 5.34339C2.57044 4.41627 3.82622 2.85607 6 2.85607C8.17378 2.85607 9.42956 4.41455 9.98436 5.34339C10.103 5.5407 10.1659 5.76806 10.1659 6C10.1659 6.23194 10.103 6.4593 9.98436 6.65661Z" fill="#DAA930"/>
<path d="M1.30549 4.89524L2.33375 5.51386L2.33562 5.51073L1.30549 4.89524ZM1.30549 7.10476L2.33563 6.48927L2.33374 6.48614L1.30549 7.10476ZM10.6945 7.10476L9.66625 6.48614L9.66438 6.48927L10.6945 7.10476ZM2.01564 6.65661L3.04536 6.04042L3.04402 6.03819L2.01564 6.65661ZM2.01564 5.34339L3.04402 5.96181L3.04536 5.95958L2.01564 5.34339ZM9.98436 5.34339L8.95413 5.95874L8.95598 5.96181L9.98436 5.34339ZM11.7246 4.27975C11.0056 3.07637 9.22123 0.8 6 0.8V3.2C7.93686 3.2 9.09136 4.55167 9.66438 5.51073L11.7246 4.27975ZM6 0.8C2.77877 0.8 0.994357 3.07637 0.275356 4.27975L2.33562 5.51073C2.90864 4.55167 4.06314 3.2 6 3.2V0.8ZM0.277235 4.27662C-0.0357208 4.7968 -0.2 5.39346 -0.2 6H2.2C2.2 5.826 2.24729 5.65757 2.33374 5.51386L0.277235 4.27662ZM-0.2 6C-0.2 6.60654 -0.0357208 7.2032 0.277235 7.72338L2.33374 6.48614C2.24729 6.34244 2.2 6.174 2.2 6H-0.2ZM0.275356 7.72025C0.994357 8.92363 2.77877 11.2 6 11.2V8.8C4.06314 8.8 2.90864 7.44833 2.33562 6.48927L0.275356 7.72025ZM6 11.2C9.22123 11.2 11.0056 8.92363 11.7246 7.72025L9.66438 6.48927C9.09136 7.44833 7.93686 8.8 6 8.8V11.2ZM11.7228 7.72338C12.0357 7.2032 12.2 6.60654 12.2 6H9.8C9.8 6.174 9.75271 6.34244 9.66626 6.48614L11.7228 7.72338ZM12.2 6C12.2 5.39346 12.0357 4.7968 11.7228 4.27662L9.66626 5.51386C9.75271 5.65757 9.8 5.826 9.8 6H12.2ZM8.95464 6.04042C8.46623 6.85662 7.52423 7.94393 6 7.94393V10.3439C8.82332 10.3439 10.3929 8.31085 11.0141 7.27279L8.95464 6.04042ZM6 7.94393C4.47577 7.94393 3.53377 6.85662 3.04536 6.04042L0.985926 7.27279C1.6071 8.31085 3.17668 10.3439 6 10.3439V7.94393ZM3.04402 6.03819C3.03854 6.02908 3.03415 6.01575 3.03415 6H0.634148C0.634148 6.44813 0.755446 6.88953 0.987264 7.27502L3.04402 6.03819ZM3.03415 6C3.03415 5.98425 3.03854 5.97092 3.04402 5.96181L0.987264 4.72498C0.755446 5.11047 0.634148 5.55187 0.634148 6H3.03415ZM3.04536 5.95958C3.53377 5.14338 4.47577 4.05607 6 4.05607V1.65607C3.17668 1.65607 1.6071 3.68915 0.985926 4.72721L3.04536 5.95958ZM6 4.05607C7.52464 4.05607 8.46651 5.14234 8.95414 5.95874L11.0146 4.72804C10.3926 3.68676 8.82292 1.65607 6 1.65607V4.05607ZM8.95598 5.96181C8.96146 5.97092 8.96585 5.98425 8.96585 6H11.3659C11.3659 5.55187 11.2446 5.11047 11.0127 4.72498L8.95598 5.96181ZM8.96585 6C8.96585 6.01575 8.96146 6.02908 8.95598 6.03819L11.0127 7.27502C11.2446 6.88953 11.3659 6.44813 11.3659 6H8.96585Z" fill="#DAA930" mask="url(#path-1-inside-1_0_280)"/>
<path d="M6 4C5.60444 4 5.21776 4.1173 4.88886 4.33706C4.55996 4.55682 4.30362 4.86918 4.15224 5.23463C4.00087 5.60009 3.96126 6.00222 4.03843 6.39018C4.1156 6.77814 4.30608 7.13451 4.58579 7.41421C4.86549 7.69392 5.22186 7.8844 5.60982 7.96157C5.99778 8.03874 6.39991 7.99913 6.76537 7.84776C7.13082 7.69638 7.44318 7.44004 7.66294 7.11114C7.8827 6.78224 8 6.39556 8 6C7.99936 5.46976 7.78845 4.96142 7.41351 4.58649C7.03858 4.21155 6.53024 4.00064 6 4ZM6 7.2C5.76266 7.2 5.53066 7.12962 5.33332 6.99776C5.13598 6.86591 4.98217 6.67849 4.89135 6.45922C4.80052 6.23995 4.77676 5.99867 4.82306 5.76589C4.86936 5.53311 4.98365 5.31929 5.15147 5.15147C5.3193 4.98365 5.53312 4.86936 5.76589 4.82306C5.99867 4.77676 6.23995 4.80052 6.45922 4.89134C6.67849 4.98217 6.86591 5.13598 6.99776 5.33332C7.12962 5.53065 7.2 5.76266 7.2 6C7.2 6.31826 7.07357 6.62348 6.84853 6.84853C6.62349 7.07357 6.31826 7.2 6 7.2Z" fill="#DAA930"/>
</svg>
