<svg width="16" height="16" viewBox="0 0 16 16" fill="none" xmlns="http://www.w3.org/2000/svg">
<path d="M8 4.66699C7.60444 4.66699 7.21776 4.80384 6.88886 5.06023C6.55996 5.31662 6.30362 5.68104 6.15224 6.1074C6.00087 6.53376 5.96126 7.00291 6.03843 7.45554C6.1156 7.90816 6.30608 8.32392 6.58579 8.65024C6.86549 8.97656 7.22186 9.19879 7.60982 9.28882C7.99778 9.37886 8.39992 9.33265 8.76537 9.15604C9.13082 8.97944 9.44318 8.68037 9.66294 8.29665C9.8827 7.91294 10 7.46181 10 7.00032C10 6.38149 9.78929 5.78799 9.41421 5.35041C9.03914 4.91282 8.53043 4.66699 8 4.66699ZM8 8.16699C7.80222 8.16699 7.60888 8.09857 7.44443 7.97037C7.27998 7.84218 7.15181 7.65997 7.07612 7.44679C7.00043 7.23361 6.98063 6.99903 7.01922 6.77272C7.0578 6.54641 7.15304 6.33853 7.29289 6.17537C7.43275 6.01221 7.61093 5.90109 7.80491 5.85608C7.99889 5.81106 8.19996 5.83416 8.38268 5.92247C8.56541 6.01077 8.72159 6.1603 8.83147 6.35216C8.94135 6.54402 9 6.76958 9 7.00032C9 7.30974 8.89464 7.60649 8.70711 7.82528C8.51957 8.04407 8.26522 8.16699 8 8.16699Z" fill="#DAA930"/>
<path d="M8.00002 14.6663C7.55338 14.6687 7.11269 14.559 6.71486 14.3464C6.31702 14.1337 5.97362 13.8244 5.7134 13.4442C3.69198 10.5239 2.66669 8.32852 2.66669 6.91864C2.66669 5.43724 3.22859 4.01651 4.22878 2.969C5.22898 1.92149 6.58553 1.33301 8.00002 1.33301C9.41451 1.33301 10.7711 1.92149 11.7713 2.969C12.7715 4.01651 13.3334 5.43724 13.3334 6.91864C13.3334 8.32852 12.3081 10.5239 10.2866 13.4442C10.0264 13.8244 9.68302 14.1337 9.28518 14.3464C8.88735 14.559 8.44666 14.6687 8.00002 14.6663ZM8.00002 2.54568C6.89273 2.547 5.83116 3.00827 5.04819 3.82828C4.26522 4.64829 3.82479 5.76008 3.82352 6.91975C3.82352 8.03632 4.8276 10.1011 6.65011 12.7337C6.80483 12.9569 7.00781 13.1385 7.24243 13.2638C7.47706 13.3891 7.73667 13.4544 8.00002 13.4544C8.26337 13.4544 8.52298 13.3891 8.75761 13.2638C8.99223 13.1385 9.19521 12.9569 9.34993 12.7337C11.1724 10.1011 12.1765 8.03632 12.1765 6.91975C12.1753 5.76008 11.7348 4.64829 10.9519 3.82828C10.1689 3.00827 9.10731 2.547 8.00002 2.54568Z" fill="#DAA930"/>
</svg>
